<svg xmlns="http://www.w3.org/2000/svg" width="101" height="101" viewBox="0 0 101 101">
  <g id="Group_1081" data-name="Group 1081" transform="translate(-295 -5394)">
    <circle id="Ellip`_129" data-name="Ellipse 129" cx="50.5" cy="50.5" r="50.5" transform="translate(295 5394)" fill="#c9c9c9"/>
    <path id="user_people_profile_avatar" data-name="user, people, profile, avatar" d="M33.786,1A32.786,32.786,0,1,0,66.572,33.786,32.786,32.786,0,0,0,33.786,1Zm0,59.611A28.736,28.736,0,0,1,18.26,55.622a20.864,20.864,0,0,1,31.051,0A27.323,27.323,0,0,1,33.786,60.611Zm19.952-8.96a26.765,26.765,0,0,0-39.9,0,26.825,26.825,0,1,1,39.9,0ZM33.786,15.9A11.922,11.922,0,1,0,45.708,27.825,11.922,11.922,0,0,0,33.786,15.9Zm0,17.883a5.961,5.961,0,1,1,5.961-5.961A5.961,5.961,0,0,1,33.786,33.786Z" transform="translate(312 5413)" fill="#fff"/>
  </g>
</svg>
