<svg xmlns="http://www.w3.org/2000/svg" width="79.459" height="66.474" viewBox="0 0 79.459 66.474">
  <g id="_14" data-name="14" transform="translate(-241.3 -572.057)">
    <path id="Path_3119" data-name="Path 3119" d="M313.7,611.264l-55.539,4.3-6.108-36.673,64.228,4.27Z" transform="translate(3.478 2.081)" fill="none" stroke="#2c2c2c" stroke-linecap="round" stroke-linejoin="round" stroke-width="2"/>
    <path id="Path_3120" data-name="Path 3120" d="M303.285,628.518H271.472a9.466,9.466,0,0,1-9.337-7.91L254.8,576.553a4.183,4.183,0,0,0-4.125-3.5H242.3" transform="translate(0)" fill="none" stroke="#2c2c2c" stroke-linecap="round" stroke-linejoin="round" stroke-width="2"/>
    <circle id="Ellipse_137" data-name="Ellipse 137" cx="4.506" cy="4.506" r="4.506" transform="translate(266.704 628.518)" fill="none" stroke="#2c2c2c" stroke-linecap="round" stroke-linejoin="round" stroke-width="2"/>
    <circle id="Ellipse_138" data-name="Ellipse 138" cx="4.506" cy="4.506" r="4.506" transform="translate(298.779 628.518)" fill="none" stroke="#2c2c2c" stroke-linecap="round" stroke-linejoin="round" stroke-width="2"/>
    <line id="Line_45" data-name="Line 45" x2="3.215" y2="34.182" transform="translate(272.967 582.363)" fill="none" stroke="#2c2c2c" stroke-linecap="round" stroke-linejoin="round" stroke-width="2"/>
    <line id="Line_46" data-name="Line 46" x2="0.819" y2="31.805" transform="translate(289.305 583.6)" fill="none" stroke="#2c2c2c" stroke-linecap="round" stroke-linejoin="round" stroke-width="2"/>
    <line id="Line_47" data-name="Line 47" x1="1.736" y2="29.612" transform="translate(303.762 584.61)" fill="none" stroke="#2c2c2c" stroke-linecap="round" stroke-linejoin="round" stroke-width="2"/>
    <line id="Line_48" data-name="Line 48" x2="61.187" y2="1.318" transform="translate(257.705 593.697)" fill="none" stroke="#2c2c2c" stroke-linecap="round" stroke-linejoin="round" stroke-width="2"/>
    <line id="Line_49" data-name="Line 49" y1="2.209" x2="58.194" transform="translate(259.795 604.036)" fill="none" stroke="#2c2c2c" stroke-linecap="round" stroke-linejoin="round" stroke-width="2"/>
  </g>
</svg>
