<svg xmlns="http://www.w3.org/2000/svg" width="1966.487" height="548.551" viewBox="0 0 1966.487 548.551">
  <path id="Path_2009" data-name="Path 2009" d="M1569.6,1039.481q25.231-.008,50.462,0,74.4-.076,148.792,0,83.245-.041,166.489,0,86.849,0,173.7,0,81.933,0,163.867,0,87.177,0,174.354,0,108.152.046,216.3,0,81.934.038,163.867,0,86.522.005,173.044,0,82.916,0,165.833,0h167.144q87.5,0,175.009,0h26.664c1.493,5.251,1.155,527.893-.381,534.816-1.209-.468-2.4-.822-3.485-1.368-2.9-1.46-5.757-3-8.626-4.513-22.054-11.659-43.859-10.622-65.534,1.051-6.472,3.485-13.2,6.532-19.654,10.046-20.094,10.94-40.226,11.036-60.614.752-10.046-5.068-20.172-10-30.4-14.721-16.152-7.455-32.492-7.419-48.683-.13-9.089,4.092-17.975,8.6-26.956,12.908-2.148,1.031-4.308,2.042-6.466,3.055-18.346,8.615-36.6,8.363-54.76-.535-9.521-4.667-19.076-9.274-28.518-14.086-19.9-10.141-39.417-8.462-58.809,1.366-8.879,4.5-17.845,8.844-26.817,13.173-18.842,9.089-37.5,7.952-55.99-1.059-10.31-5.025-20.519-10.252-30.955-15.023-17.882-8.176-35.572-6.673-52.9,1.785-7.978,3.894-15.779,8.132-23.833,11.869a153.794,153.794,0,0,1-17.515,6.938c-13.907,4.478-27.272,1.584-40.056-4.016-10.913-4.781-21.483-10.284-32.224-15.433-18.362-8.8-36.656-8.03-54.813.549-9.207,4.351-18.158,9.236-27.535,13.2a114.769,114.769,0,0,1-21.045,6.685c-12.017,2.517-23.436-.74-34.3-5.449-7.75-3.359-15.2-7.376-22.715-11.214-9.7-4.953-19.634-9.059-30.78-10.062a54.5,54.5,0,0,0-18.738,1.718c-12.155,3.145-22.7,9.669-33.832,14.977-5.855,2.792-11.8,5.475-17.907,7.7-15.71,5.737-30.952,3.444-45.66-3.394-8.448-3.927-16.767-8.13-24.99-12.475-22.3-11.785-44.128-10.605-66.1,1.15a333.9,333.9,0,0,1-31.875,14.629c-14.1,5.729-28.291,4.342-41.934-1.718-9.1-4.042-17.982-8.564-26.8-13.16-10.308-5.373-21.059-9.223-32.86-9.8a52.5,52.5,0,0,0-24.083,4.932c-9.895,4.419-19.5,9.427-29.316,14.019a140.162,140.162,0,0,1-13.834,5.681c-14.977,5.141-29.714,3.729-43.919-2.546-10.113-4.467-19.924-9.565-29.864-14.39-9.9-4.807-20.212-7.548-31.5-7.153a61.228,61.228,0,0,0-23.889,5.942c-10.611,4.918-21.041,10.2-31.637,15.149a89.742,89.742,0,0,1-11.568,4.365,50.511,50.511,0,0,1-34.594-1.721c-11.223-4.588-21.787-10.639-32.906-15.486a131.537,131.537,0,0,0-22.684-7.843c-11.689-2.7-22.982.2-33.73,4.737-5.784,2.442-11.2,5.671-16.938,8.23-9.294,4.147-18.463,8.76-28.144,11.848-11.5,3.67-23.408,2.568-34.665-1.663-7.5-2.818-14.691-6.417-21.88-9.932-9.726-4.758-19.2-10.077-30-12.369-10.69-2.269-21.438-2.106-31.536,2.017-10.624,4.339-20.98,9.344-31.2,14.524-9.577,4.857-19.48,8.637-30.272,9.522-11.374.933-22.014-2.094-32.187-6.849-12.151-5.681-24.157-11.7-36.568-16.805-15.165-6.24-30.4-4.48-45.052,2.027-10.3,4.574-20.293,9.78-30.507,14.538-2.5,1.165-5.325,1.685-8,2.5Z" transform="translate(-1569.598 -1039.463)" fill="#2c2c2c"/>
</svg>
