<svg xmlns="http://www.w3.org/2000/svg" width="20.332" height="20.332" viewBox="0 0 20.332 20.332">
  <path id="Icon_awesome-whatsapp" data-name="Icon awesome-whatsapp" d="M17.287,5.2A10.079,10.079,0,0,0,1.43,17.363L0,22.582l5.342-1.4a10.045,10.045,0,0,0,4.815,1.225h0a10.376,10.376,0,0,0,7.361-3.152,9.8,9.8,0,0,0,2.81-6.924A10.115,10.115,0,0,0,17.287,5.2Zm-7.125,15.5A8.359,8.359,0,0,1,5.9,19.542l-.3-.182-3.168.831L3.268,17.1l-.2-.318A8.391,8.391,0,1,1,18.63,12.33,8.468,8.468,0,0,1,10.162,20.708Zm4.593-6.272c-.25-.127-1.489-.735-1.72-.817s-.4-.127-.567.127-.649.817-.8.989-.3.191-.545.064a6.853,6.853,0,0,1-3.427-3c-.259-.445.259-.413.74-1.375a.467.467,0,0,0-.023-.44c-.064-.127-.567-1.366-.776-1.87s-.413-.422-.567-.431-.313-.009-.481-.009a.933.933,0,0,0-.672.313,2.829,2.829,0,0,0-.88,2.1A4.932,4.932,0,0,0,6.063,12.7a11.25,11.25,0,0,0,4.3,3.8,4.926,4.926,0,0,0,3.023.631,2.579,2.579,0,0,0,1.7-1.2,2.106,2.106,0,0,0,.145-1.2C15.172,14.622,15,14.558,14.755,14.436Z" transform="translate(0 -2.25)" fill="#469612"/>
</svg>
