<svg xmlns="http://www.w3.org/2000/svg" width="588.38" height="303.803" viewBox="0 0 588.38 303.803">
  <g id="Group_863" data-name="Group 863" transform="translate(-240.64 -387.893)">
    <g id="Group_752" data-name="Group 752" transform="translate(245.348 574.058)">
      <path id="Path_2502" data-name="Path 2502" d="M585.716,1263.4c3.447-4.564,6.035-11.786,6.042-15.945.025-14.234-17.253-14.363-22.056.909l-3.61,13.1,10.918,8.631Z" transform="translate(-494.774 -1224.693)" fill="#469612"/>
      <path id="Path_2503" data-name="Path 2503" d="M497.236,1229.436c5.413-8.182,4.92-23.269-9.8-22.056-14.215,1.171-14.486,22.7-12.676,36.772l1.019,10.709Z" transform="translate(-424.177 -1202.058)" fill="#469612"/>
      <path id="Path_2504" data-name="Path 2504" d="M393.531,1215.047c-6.271-15.766-.925-21.612,3.934-23.548,4.8-1.914,14.381-.707,16.18,10.018l-3.491,19.693Z" transform="translate(-360.34 -1189.364)" fill="#469612"/>
      <path id="Path_2505" data-name="Path 2505" d="M323.569,1255.275c-16.957-14.911-30.421,5.52-15.319,16.61l13.43,3.973s6.039-11.636,5.669-11.473S323.569,1255.275,323.569,1255.275Z" transform="translate(-292.138 -1234.79)" fill="#469612"/>
      <path id="Path_2506" data-name="Path 2506" d="M280.017,1363.333c-9.237,0-17.734-9.351-10.516-17.209,4.475-4.872,13.79-4,20.682.389l13.5,16.825Z" transform="translate(-265.393 -1305.92)" fill="#469612"/>
      <path id="Path_2507" data-name="Path 2507" d="M575.117,1370.107c13.125.281,20.844-10.507,11.058-17.134-3.586-2.429-11.463-1.226-18.085,1.673l-10.965,15.466Z" transform="translate(-487.901 -1312.695)" fill="#469612"/>
      <path id="Path_2508" data-name="Path 2508" d="M494.175,1304.775c-6.832,5.029-10.258,18.015-11.07,26.459l18.643.22C522.51,1309.5,506.247,1295.889,494.175,1304.775Z" transform="translate(-431.173 -1274.644)" fill="#469612"/>
      <path id="Path_2509" data-name="Path 2509" d="M387.79,1295.853c-3.442-4.241-10.134-5.162-14.855-2.416s-7.232,8.616-6.467,14.024c1.054,7.451,5.556,12.168,11.684,16.536l15.459-.538C393.545,1316.352,392,1301.046,387.79,1295.853Z" transform="translate(-341.678 -1266.869)" fill="#469612"/>
      <g id="Group_735" data-name="Group 735" transform="translate(0 35.508)">
        <path id="Path_2510" data-name="Path 2510" d="M275.418,1357.327c-.4,0-.79-.017-1.183-.051-.189-.016-.378-.038-.566-.06s.313.046.131.018l-.12-.018q-.16-.025-.32-.052a14.773,14.773,0,0,1-2.258-.583q-.264-.091-.525-.192l-.259-.1c-.3-.123.259.114-.031-.014q-.524-.231-1.03-.5a15.53,15.53,0,0,1-1.9-1.211c-.187-.138.25.2.011.008-.069-.056-.139-.111-.207-.168q-.219-.181-.43-.372-.4-.364-.775-.76-.177-.189-.346-.385-.084-.1-.165-.2c-.068-.082-.3-.406-.031-.032-.2-.276-.4-.544-.578-.831a10.161,10.161,0,0,1-.521-.931c-.068-.137-.129-.277-.192-.416-.071-.156.118.3.06.141-.012-.033-.026-.065-.039-.1q-.051-.13-.1-.262a8.723,8.723,0,0,1-.293-1c-.036-.158-.068-.317-.094-.476-.012-.068-.019-.138-.032-.206.087.472.02.148.008.028a8,8,0,0,1-.035-1.047q.008-.247.032-.494c.007-.071.019-.142.023-.213-.031.482-.013.1.008-.018a8.236,8.236,0,0,1,.249-1.034q.078-.253.173-.5c.027-.071.063-.142.085-.215-.125.415-.021.052.031-.058a9.821,9.821,0,0,1,.561-1.035q.157-.253.328-.5.075-.107.152-.213a1.226,1.226,0,0,0,.105-.141c.012.045-.2.259-.027.037a11.572,11.572,0,0,1,1.61-1.629c.113-.1-.158.12-.14.108.04-.026.078-.059.116-.087q.1-.075.206-.147.224-.155.456-.3a10.057,10.057,0,0,1,.932-.5c.078-.037.156-.073.234-.108l.1-.045c.158-.072-.293.117-.13.055s.346-.136.522-.2q.517-.182,1.049-.316t1.1-.228l.271-.042c.309-.045-.269.031-.021,0,.2-.023.395-.044.593-.061a17.228,17.228,0,0,1,2.368-.026q.61.034,1.217.106c.066.008.391.049.152.018s.087.013.153.023q.32.049.637.107a22.742,22.742,0,0,1,2.47.6q.618.187,1.226.407.3.107.588.221l.292.117.125.051c.286.116-.211-.092-.044-.019.8.35,1.587.729,2.35,1.158q.572.321,1.126.673a1.414,1.414,0,0,0,1.918-.5,1.432,1.432,0,0,0-.5-1.918,25.153,25.153,0,0,0-10.615-3.753,15,15,0,0,0-9.706,1.875,10.433,10.433,0,0,0-1.219,17.191,16.248,16.248,0,0,0,9.443,4.064c.407.036.815.053,1.224.055a1.4,1.4,0,0,0,0-2.8Z" transform="translate(-260.794 -1336.825)" fill="#21223f"/>
      </g>
      <g id="Group_736" data-name="Group 736" transform="translate(78.79 37.573)">
        <path id="Path_2511" data-name="Path 2511" d="M606.5,1366.906a21.115,21.115,0,0,0,10.545-2.411,12.346,12.346,0,0,0,5.866-6.433,8.334,8.334,0,0,0-1.275-7.755,13.1,13.1,0,0,0-3.814-3.417,11.443,11.443,0,0,0-5.075-1.212,25.705,25.705,0,0,0-6.054.588,37.351,37.351,0,0,0-6.2,1.846c-.582.228-1.158.47-1.731.72a1.4,1.4,0,0,0-.644.838,1.434,1.434,0,0,0,.141,1.08,1.414,1.414,0,0,0,.838.644,1.63,1.63,0,0,0,1.08-.141c.12-.052.256-.1.369-.159-.033.019-.29.121-.056.024l.14-.058q.4-.163.8-.318.707-.273,1.424-.519,1.489-.51,3.017-.9c.965-.243,1.94-.447,2.923-.6l.369-.056c.046-.007.092-.012.138-.019-.365.062-.182.024-.1.013.241-.03.482-.058.723-.083.467-.047.935-.08,1.4-.1a16.812,16.812,0,0,1,2.521.079c.12.014.458.086,0,0,.085.017.172.025.258.04q.287.047.572.109a9.035,9.035,0,0,1,1.031.289c.083.029.166.059.248.091a.588.588,0,0,1,.121.048c.025.02-.318-.141-.186-.078.162.077.325.149.483.235a8,8,0,0,1,.9.583c.074.054.146.109.22.163s.178.168-.1-.078c.038.033.08.063.119.095q.232.186.455.382c.273.241.536.494.785.759q.172.184.335.375.085.1.167.2c.02.025.04.051.06.076.106.128-.213-.284-.082-.106a9.51,9.51,0,0,1,.533.8c.155.263.285.536.416.812.088.186-.082-.187-.074-.177a.518.518,0,0,1,.042.106c.027.07.054.141.079.212.05.14.1.282.136.425a7.384,7.384,0,0,1,.18.825c.043.261-.038-.351-.018-.133.007.071.015.142.021.213q.017.213.021.426a6.615,6.615,0,0,1-.038.821c0,.035-.009.07-.012.105-.017.161.056-.375.028-.215-.011.061-.019.123-.03.184-.025.14-.054.28-.087.418a7.287,7.287,0,0,1-.252.826c-.022.06-.046.119-.069.178-.1.264.134-.3.046-.107-.066.142-.13.286-.2.426a8.744,8.744,0,0,1-.436.76q-.117.182-.242.359c-.04.055-.079.111-.12.166-.2.266.193-.24.022-.027a11.522,11.522,0,0,1-1.3,1.375q-.179.159-.363.311c-.066.055-.134.108-.2.162s-.207.148.13-.1l-.1.079q-.426.32-.877.607a15.465,15.465,0,0,1-1.91,1.031c-.088.04-.177.079-.266.118-.214.1.333-.135.031-.013-.184.074-.367.147-.553.216q-.552.205-1.117.374a19.743,19.743,0,0,1-2.444.562l-.285.045c-.1.015-.492.045-.039.008-.223.019-.446.055-.669.076q-.664.066-1.332.091c-.459.018-.917.02-1.376.012a1.414,1.414,0,0,0-1.4,1.4,1.429,1.429,0,0,0,1.4,1.4Z" transform="translate(-598.077 -1345.666)" fill="#21223f"/>
      </g>
      <g id="Group_737" data-name="Group 737" transform="translate(23.255 23.604)">
        <path id="Path_2512" data-name="Path 2512" d="M374.269,1318.181q-.46-.328-.914-.664-.233-.172-.465-.348l-.212-.161-.106-.081c-.147-.111.219.171.074.057-.571-.446-1.135-.9-1.684-1.372a30.953,30.953,0,0,1-3.045-2.976q-.337-.381-.658-.776c-.1-.126-.2-.255-.3-.38-.009-.011.187.245.1.124l-.073-.1-.169-.226q-.609-.827-1.136-1.709a19.555,19.555,0,0,1-.961-1.825c-.068-.149-.133-.3-.2-.448s.066.159.061.146c-.015-.038-.032-.076-.047-.114q-.055-.133-.108-.268-.19-.484-.353-.978a20.033,20.033,0,0,1-.572-2.107q-.116-.543-.2-1.092-.021-.134-.041-.268c-.007-.045-.011-.091-.02-.135,0-.014.04.321.022.163-.022-.2-.045-.391-.061-.588a14.192,14.192,0,0,1-.014-2.111q.017-.253.043-.506c.01-.1.021-.2.033-.295.027-.237-.046.315,0,0q.078-.523.193-1.04a14.9,14.9,0,0,1,.619-2.065q.045-.118.092-.236c.02-.05.131-.319.042-.106s.025-.054.047-.1q.06-.134.123-.268.225-.476.484-.935.269-.475.574-.929.14-.209.288-.413c.049-.068.1-.134.15-.2.089-.123-.1.125-.092.117.036-.043.069-.088.1-.131a12.974,12.974,0,0,1,1.461-1.55q.187-.168.38-.328c.064-.053.131-.1.2-.158.117-.1-.127.1-.118.09.045-.032.089-.068.134-.1q.421-.314.869-.589t.925-.511q.216-.106.436-.2l.111-.048c.014-.006-.293.118-.15.065.087-.033.174-.069.261-.1a11.881,11.881,0,0,1,1.967-.552q.237-.045.475-.081c.04-.006.08-.01.119-.017.018,0-.33.041-.173.024.093-.01.186-.022.279-.031q.5-.05,1-.061.522-.011,1.044.021.241.015.48.039l.239.026c.315.037-.246-.039-.015,0a12.923,12.923,0,0,1,1.983.463q.227.074.452.156l.223.085.111.044c.177.069-.071-.03-.115-.05.3.139.6.273.894.429s.575.324.85.505q.215.142.422.293c.044.032.265.2.08.057s.06.05.106.088a9.913,9.913,0,0,1,1.4,1.409c.039.048.186.238.014.014s-.041-.052,0,0q.1.135.195.273.19.277.363.565c.255.423.484.86.7,1.306.111.234.214.472.319.708.036.082-.14-.339-.042-.1l.074.179q.08.2.156.4a43.547,43.547,0,0,1,1.979,7.208c.262,1.319.486,2.646.681,3.976.05.343.1.686.145,1.029,0,.02-.044-.332-.024-.175l.016.118.031.236q.033.255.065.511.123.989.227,1.98c.243,2.325.416,4.659.489,7q.022.7.029,1.395a1.4,1.4,0,0,0,2.8,0c-.022-2.259-.161-4.517-.361-6.767-.252-2.826-.608-5.647-1.1-8.442a51.8,51.8,0,0,0-1.876-7.7,16.988,16.988,0,0,0-3.261-6.117,12.791,12.791,0,0,0-8.05-3.878,13.277,13.277,0,0,0-8.605,1.954,15.055,15.055,0,0,0-5.823,7.423,16.152,16.152,0,0,0-.974,4.616,17.285,17.285,0,0,0,.409,4.733,20.9,20.9,0,0,0,3.631,8.049,33.03,33.03,0,0,0,6.5,6.429q.958.74,1.944,1.443a1.408,1.408,0,0,0,1.918-.5,1.439,1.439,0,0,0-.5-1.918Z" transform="translate(-360.342 -1285.866)" fill="#21223f"/>
      </g>
      <g id="Group_738" data-name="Group 738" transform="translate(50.526 25.984)">
        <path id="Path_2513" data-name="Path 2513" d="M498.126,1327.872a48.421,48.421,0,0,0,7.055-9.29,25.129,25.129,0,0,0,3.039-8.021,14.813,14.813,0,0,0-.272-6.827,10.572,10.572,0,0,0-7.925-7.4,12.855,12.855,0,0,0-5.933.14,15.885,15.885,0,0,0-6.056,3.152,22.172,22.172,0,0,0-5.31,6.9,46.906,46.906,0,0,0-3.535,9.038,64.057,64.057,0,0,0-1.875,9.148q-.129.974-.225,1.952a1.406,1.406,0,0,0,1.4,1.4,1.44,1.44,0,0,0,1.4-1.4c.063-.652.144-1.3.225-1.952,0-.027-.048.347-.026.192.005-.036.01-.073.015-.109l.036-.255q.039-.276.082-.552.077-.507.163-1.012.37-2.185.893-4.34.55-2.268,1.276-4.488.36-1.093.769-2.169.207-.544.429-1.083c.037-.089.078-.177.111-.267,0-.012-.122.286-.061.144l.049-.114q.122-.283.247-.566a33.146,33.146,0,0,1,2.061-3.932c.374-.6.771-1.2,1.2-1.765l.135-.178c.143-.19-.2.252-.015.02.107-.134.214-.268.323-.4q.323-.39.667-.761a15.63,15.63,0,0,1,1.417-1.355c.113-.095.229-.187.345-.28.177-.141-.292.218-.041.033l.175-.129q.323-.234.657-.452a15.13,15.13,0,0,1,1.333-.775q.332-.17.673-.324l.144-.064a.572.572,0,0,1,.1-.042,1.7,1.7,0,0,1-.214.09c.121-.047.241-.1.362-.144a12.7,12.7,0,0,1,2.667-.707c.067-.01.267-.037-.02,0s-.065.009,0,0q.165-.019.331-.034.328-.029.657-.04a10.932,10.932,0,0,1,1.288.036q.147.013.293.03a.707.707,0,0,0,.157.019,1.406,1.406,0,0,0-.261-.035l.111.016q.309.047.615.113a9.858,9.858,0,0,1,1.166.328q.134.046.267.1l.142.056.06.025c.193.074-.316-.14-.194-.083.183.087.369.165.55.256a9.139,9.139,0,0,1,1.021.6q.125.085.246.174l.1.077c.156.114-.321-.255-.113-.087.157.127.312.256.461.391a8.943,8.943,0,0,1,.83.862c.066.078.128.161.194.239s-.243-.323-.111-.144l.105.142q.183.253.349.518a9.526,9.526,0,0,1,.6,1.127l.057.128c.107.239-.13-.323-.06-.141.039.1.082.2.12.308q.117.315.213.638a11.071,11.071,0,0,1,.313,1.359c.015.089.069.474.028.171-.039-.288-.007-.05,0,.021s.016.139.023.209q.036.36.051.722a14.044,14.044,0,0,1-.023,1.575c-.019.276-.048.551-.08.825-.03.257.033-.226.019-.132-.011.071-.02.141-.031.212q-.033.215-.071.428c-.106.6-.243,1.19-.407,1.774-.176.631-.383,1.254-.614,1.867q-.085.224-.174.446-.049.122-.1.242c-.015.035-.029.069-.043.1-.062.152.149-.344.038-.091-.14.32-.282.639-.432.955a33.679,33.679,0,0,1-2.353,4.127q-.744,1.124-1.56,2.2l-.213.28c-.1.125.06-.081.064-.083-.032.016-.072.092-.094.121q-.239.305-.482.606-.467.58-.951,1.146-.986,1.155-2.032,2.258a1.4,1.4,0,0,0,1.982,1.982Z" transform="translate(-477.086 -1296.054)" fill="#21223f"/>
      </g>
      <g id="Group_739" data-name="Group 739" transform="translate(48.398 3.852)">
        <path id="Path_2514" data-name="Path 2514" d="M471.561,1239.554c-.339-2.642-.577-5.3-.7-7.959a73.313,73.313,0,0,1,.072-8.4q.073-1.036.182-2.068.055-.51.12-1.02c.007-.055.049-.368.012-.093s0-.03.013-.092q.039-.277.081-.554a38.315,38.315,0,0,1,.786-3.872,27.339,27.339,0,0,1,1.169-3.54l.036-.086c.063-.153-.135.314-.069.163l.086-.2q.093-.211.189-.42.185-.4.387-.789c.263-.507.549-1,.861-1.481q.228-.351.475-.689c.039-.054.079-.107.119-.161a.838.838,0,0,1,.069-.091c.029-.029-.222.283-.132.171s.176-.222.267-.332a12.942,12.942,0,0,1,1.111-1.183q.3-.284.626-.547l.13-.1c.138-.113-.313.234-.065.05.1-.077.208-.153.314-.228a11.141,11.141,0,0,1,1.41-.84q.177-.088.356-.17l.181-.081c.162-.073-.363.145-.072.031.26-.1.521-.2.787-.285a12.137,12.137,0,0,1,1.687-.41l.214-.035c.064-.01.345-.049.061-.01s0,0,.064-.006l.254-.027c.369-.036.739-.059,1.11-.073a17.34,17.34,0,0,1,2.147.047q.242.021.483.05l.135.017c.153.017-.237-.026-.2-.027a1.506,1.506,0,0,1,.265.04q.465.075.924.182a12.014,12.014,0,0,1,1.707.545c.205.082-.321-.143-.121-.051l.184.083q.194.089.383.187.37.191.723.412c.222.14.431.3.646.446.115.08-.217-.156-.178-.138a.538.538,0,0,1,.084.066l.124.1q.163.134.32.276a10.3,10.3,0,0,1,1.031,1.1c.128.156-.239-.319-.077-.1.036.048.072.1.107.146q.114.157.221.319.208.313.391.64t.345.67c.052.11.1.223.15.333a2.212,2.212,0,0,1-.09-.214.687.687,0,0,1,.04.1c.025.065.052.13.077.2a12.266,12.266,0,0,1,.459,1.468q.093.379.164.764.035.187.065.375c.01.063.019.125.028.188.047.31-.034-.281-.013-.1.061.532.105,1.064.118,1.6s0,1.089-.037,1.631q-.029.425-.078.849c-.016.141-.094.632-.007.081-.022.141-.041.283-.064.424a20.282,20.282,0,0,1-.8,3.229q-.132.392-.279.78-.071.186-.146.371c-.025.062-.051.123-.076.184-.053.136.1-.245.086-.2s-.037.087-.056.13q-.324.747-.71,1.465-.372.69-.8,1.345a1.412,1.412,0,0,0,.5,1.917,1.434,1.434,0,0,0,1.918-.5,20.514,20.514,0,0,0,2.751-6.421,19.247,19.247,0,0,0,.465-6.986,13.239,13.239,0,0,0-2.642-6.613,11.062,11.062,0,0,0-6.019-3.754,16.55,16.55,0,0,0-4.416-.453,15.871,15.871,0,0,0-4.173.607,12.953,12.953,0,0,0-6.028,3.922,20.242,20.242,0,0,0-3.7,6.722,38.451,38.451,0,0,0-1.724,8.171,64.873,64.873,0,0,0-.37,8.583c.05,2.787.241,5.572.544,8.343q.1.945.225,1.887a1.54,1.54,0,0,0,.41.991,1.424,1.424,0,0,0,.991.411c.679-.03,1.5-.623,1.4-1.4Z" transform="translate(-467.976 -1201.311)" fill="#21223f"/>
      </g>
      <g id="Group_740" data-name="Group 740" transform="translate(73.523 10.773)">
        <path id="Path_2515" data-name="Path 2515" d="M578.286,1244.215c.155-.491.325-.977.513-1.457q.063-.161.129-.322c.019-.047.04-.094.059-.141-.16.407-.06.143-.021.055q.142-.327.3-.648a18.779,18.779,0,0,1,1.358-2.383q.171-.254.35-.5.1-.136.2-.269c.027-.035.055-.07.081-.106-.271.365-.117.151-.056.075q.383-.483.8-.935a23.205,23.205,0,0,1,1.767-1.628s-.3.23-.142.11l.095-.071q.118-.088.238-.174.237-.169.482-.329.454-.3.932-.554c.31-.167.627-.319.948-.462.3-.136-.342.135-.033.014l.2-.079q.251-.1.506-.181.488-.162.989-.279a5.013,5.013,0,0,1,.987-.183c.025,0-.421.05-.221.03l.1-.012q.125-.014.252-.025.25-.022.5-.031.47-.018.94.01.22.013.439.036c.129.014.47.077-.083-.015.08.013.16.023.24.036a8.965,8.965,0,0,1,.893.2,8.6,8.6,0,0,1,.884.295c.117.046.382.179-.093-.041.072.033.146.064.218.1q.216.1.426.214a8.223,8.223,0,0,1,.776.475c.123.085.537.432.1.067.124.1.252.2.374.31a8.385,8.385,0,0,1,.667.658q.16.177.31.362c.01.013.069.1.079.1s-.232-.309-.126-.163c.05.069.1.137.152.206a9.191,9.191,0,0,1,.546.863,4.952,4.952,0,0,1,.468.956c0,.014-.149-.37-.077-.18.013.035.028.07.042.1q.052.133.1.266.1.273.184.551.168.549.284,1.113.058.278.1.558c.017.106.031.212.048.318-.079-.51-.016-.11,0,.018.049.441.077.884.089,1.328.01.418,0,.836-.024,1.253q-.022.321-.059.641c-.01.093-.024.186-.034.279.057-.525,0,.01-.022.129a29.847,29.847,0,0,1-1.746,6.159q-.149.381-.306.759c-.035.084-.134.293.017-.04-.025.056-.048.112-.072.168q-.1.231-.2.461-.365.816-.769,1.614a31.141,31.141,0,0,1-1.7,2.952q-.443.678-.93,1.326a1.409,1.409,0,0,0-.141,1.08,1.431,1.431,0,0,0,.644.838,1.416,1.416,0,0,0,1.08.141,1.638,1.638,0,0,0,.838-.644,30.68,30.68,0,0,0,3.508-6.143,35.128,35.128,0,0,0,2.272-6.8,15.21,15.21,0,0,0-1.239-10.734,9.841,9.841,0,0,0-6.916-4.827,12.575,12.575,0,0,0-8.811,2.022,18.555,18.555,0,0,0-6.877,8.911c-.188.48-.358.966-.513,1.457a1.414,1.414,0,0,0,.979,1.724,1.432,1.432,0,0,0,1.724-.979Z" transform="translate(-575.529 -1230.942)" fill="#21223f"/>
      </g>
      <g id="Group_741" data-name="Group 741" transform="translate(28.955)">
        <path id="Path_2516" data-name="Path 2516" d="M410.444,1196.6a15.733,15.733,0,0,0-2.236-5.965,12.727,12.727,0,0,0-3.942-3.873,13.936,13.936,0,0,0-9.237-1.8,12.011,12.011,0,0,0-6.412,3.046,12.286,12.286,0,0,0-3.693,7.418c-.617,4.509.42,9.093,1.913,13.336q.373,1.062.791,2.108a1.527,1.527,0,0,0,.644.838,1.4,1.4,0,0,0,2.059-1.583,44.284,44.284,0,0,1-2.32-7.543q-.158-.783-.274-1.572c-.01-.067-.019-.133-.028-.2-.028-.195.048.38.013.1-.014-.117-.029-.234-.043-.351q-.043-.38-.074-.76a20.1,20.1,0,0,1-.048-2.686c.021-.408.062-.814.109-1.22.02-.177-.057.4-.022.163l.017-.118c.015-.1.03-.195.047-.292q.049-.284.109-.566a12.267,12.267,0,0,1,.6-1.995c.013-.031.026-.062.038-.094.071-.182-.089.218-.083.2a1.6,1.6,0,0,1,.1-.227q.1-.221.211-.438.208-.408.452-.8c.156-.249.326-.487.5-.723.114-.154-.27.338-.07.093.041-.051.082-.1.124-.152q.138-.166.283-.325a10.337,10.337,0,0,1,1.184-1.1c.212-.17-.3.228-.109.084l.145-.107q.16-.117.324-.227.314-.211.643-.4t.652-.346q.15-.074.3-.143l.168-.074c.239-.107-.376.154-.134.056a10.455,10.455,0,0,1,1.614-.508c.3-.068.606-.122.912-.168.269-.041-.412.05-.106.015l.246-.027q.249-.025.5-.041a13.05,13.05,0,0,1,2,.031,2.887,2.887,0,0,1,.506.056c0,.006-.4-.058-.212-.028l.134.02q.147.023.295.049.514.092,1.019.227.54.144,1.066.337c.159.059.316.124.474.186-.472-.186-.157-.066-.048-.017s.191.088.285.133q.5.24.965.527.251.153.494.32l.194.136c.1.07.453.358.051.032a11.943,11.943,0,0,1,1.707,1.661c.062.074.12.152.182.226-.318-.381-.048-.06.018.029q.2.269.378.55a12.341,12.341,0,0,1,.654,1.143c.1.2.2.413.293.622.042.092.109.285-.039-.1.018.046.038.092.057.138q.078.192.151.387.269.722.463,1.468c.137.52.247,1.047.337,1.578a1.408,1.408,0,0,0,1.724.979,1.442,1.442,0,0,0,.979-1.724Z" transform="translate(-384.742 -1184.823)" fill="#21223f"/>
      </g>
      <g id="Group_742" data-name="Group 742" transform="translate(8.153 13.847)">
        <path id="Path_2517" data-name="Path 2517" d="M319.963,1249.747a21.781,21.781,0,0,0-10.019-5.4,12.416,12.416,0,0,0-8.462,1.22,11.54,11.54,0,0,0-5.016,5.966,12.733,12.733,0,0,0-.242,8.014,16.655,16.655,0,0,0,5.422,7.992c.422.352.858.688,1.3,1.014a1.411,1.411,0,0,0,1.08.141,1.4,1.4,0,0,0,.335-2.562l-.263-.2c-.185-.138.074.057.09.071l-.127-.1q-.265-.209-.523-.427-.485-.41-.942-.851a18.548,18.548,0,0,1-1.577-1.746c-.106-.132.192.254.092.119l-.083-.11q-.072-.1-.143-.194-.179-.247-.348-.5-.293-.44-.553-.9t-.484-.938c-.066-.142-.128-.286-.192-.429.2.44.066.157.023.049s-.075-.191-.11-.287a12.54,12.54,0,0,1-.528-1.834q-.047-.228-.085-.457c-.013-.076-.024-.151-.036-.227-.05-.327.039.338.008.06-.034-.309-.062-.619-.074-.929a11.33,11.33,0,0,1,.07-1.789c0-.036.009-.072.013-.108a2.131,2.131,0,0,0-.028.211c.011-.071.021-.142.033-.214q.037-.226.083-.449.087-.418.206-.828t.277-.826c.025-.065.051-.13.077-.2.1-.259-.153.347-.04.093.06-.135.121-.27.185-.4a10.228,10.228,0,0,1,.857-1.449q.06-.084.121-.167c.021-.027.042-.055.062-.082.092-.126-.222.282-.125.161s.182-.228.277-.339q.268-.314.562-.6t.631-.572l.161-.131c.2-.159-.27.2-.1.076.126-.092.251-.185.38-.273a9.711,9.711,0,0,1,1.49-.835c.057-.026.115-.048.171-.075-.448.212-.2.085-.087.04q.226-.089.456-.167.415-.141.841-.245.45-.11.907-.179l.085-.012c.206-.034-.218.031-.2.027a1.878,1.878,0,0,1,.228-.027q.246-.026.492-.041a11.778,11.778,0,0,1,1.967.049c.084.009.167.021.251.029-.5-.052-.177-.024-.057-.006q.273.042.544.095.544.107,1.078.255t1.071.341q.274.1.545.206c.092.036.182.077.275.112-.012,0-.334-.145-.128-.054l.173.076a20.017,20.017,0,0,1,2.293,1.211q.608.372,1.193.781.3.206.584.42l.257.192c.048.036.1.072.147.113-.286-.254-.048-.036.011.011.4.32.8.652,1.187.992a1.4,1.4,0,0,0,1.982-1.982Z" transform="translate(-295.694 -1244.1)" fill="#21223f"/>
      </g>
      <g id="Group_743" data-name="Group 743" transform="translate(9.975 45.824)">
        <path id="Path_2518" data-name="Path 2518" d="M304.17,1382.386a59.766,59.766,0,0,1,7.075.566,49.88,49.88,0,0,1,6.843,1.541q1.891.568,3.732,1.286a.706.706,0,0,0,.862-.489.717.717,0,0,0-.489-.862,50.624,50.624,0,0,0-13.865-3.225c-1.383-.122-2.771-.173-4.158-.218-.9-.029-.9,1.372,0,1.4Z" transform="translate(-303.494 -1380.984)" fill="#21223f"/>
      </g>
      <g id="Group_744" data-name="Group 744" transform="translate(35.261 36.083)">
        <path id="Path_2519" data-name="Path 2519" d="M422.11,1359.908l-7.083-15.82-2-4.459a.705.705,0,0,0-.959-.251.718.718,0,0,0-.251.959l7.083,15.82,2,4.46a.706.706,0,0,0,.959.251.718.718,0,0,0,.251-.959Z" transform="translate(-411.737 -1339.287)" fill="#21223f"/>
      </g>
      <g id="Group_745" data-name="Group 745" transform="translate(61.024 38.805)">
        <path id="Path_2520" data-name="Path 2520" d="M523.4,1368.767a57.353,57.353,0,0,1,6.238-13.325q1.123-1.766,2.372-3.448a.706.706,0,0,0-.251-.959.718.718,0,0,0-.959.252,58.743,58.743,0,0,0-7.319,13.12q-.789,1.967-1.433,3.987a.7.7,0,0,0,1.352.373Z" transform="translate(-522.025 -1350.94)" fill="#21223f"/>
      </g>
      <g id="Group_746" data-name="Group 746" transform="translate(73.441 47.068)">
        <path id="Path_2521" data-name="Path 2521" d="M576.232,1394.537a43.363,43.363,0,0,1,12.3-5.7c1.238-.4,2.482-.772,3.727-1.147a.7.7,0,0,0-.373-1.352,69.521,69.521,0,0,0-13.035,4.913,30.267,30.267,0,0,0-3.327,2.071.721.721,0,0,0-.251.959.706.706,0,0,0,.959.252Z" transform="translate(-575.179 -1386.309)" fill="#21223f"/>
      </g>
      <g id="Group_747" data-name="Group 747" transform="translate(79.85 23.264)">
        <path id="Path_2522" data-name="Path 2522" d="M603.9,1298.36q2.28-5.149,4.872-10.155.709-1.375,1.443-2.739c.428-.794-.782-1.5-1.21-.707q-2.671,4.958-5.036,10.075-.652,1.4-1.279,2.819a.722.722,0,0,0,.251.959.706.706,0,0,0,.959-.251Z" transform="translate(-602.613 -1284.411)" fill="#21223f"/>
      </g>
      <g id="Group_748" data-name="Group 748" transform="translate(58.707 14.232)">
        <path id="Path_2523" data-name="Path 2523" d="M513.466,1265.072a85.176,85.176,0,0,1,3.658-14.506q.651-1.974,1.345-3.933a.7.7,0,1,0-1.351-.373,119.245,119.245,0,0,0-4.264,14.357c-.292,1.352-.542,2.712-.738,4.081a.724.724,0,0,0,.489.862.706.706,0,0,0,.862-.489Z" transform="translate(-512.104 -1245.746)" fill="#21223f"/>
      </g>
      <g id="Group_749" data-name="Group 749" transform="translate(41.111 10.999)">
        <path id="Path_2524" data-name="Path 2524" d="M444.221,1252.567c-.443-1.74-.908-3.474-1.381-5.206-.927-3.4-1.889-6.788-2.966-10.141-.519-1.615-1.057-3.23-1.706-4.8a.724.724,0,0,0-.862-.49.705.705,0,0,0-.489.862,91.307,91.307,0,0,1,3.082,9.3q1.312,4.48,2.491,9,.243.921.48,1.844a.7.7,0,0,0,1.352-.373Z" transform="translate(-436.779 -1231.906)" fill="#21223f"/>
      </g>
      <g id="Group_750" data-name="Group 750" transform="translate(17.592 22.866)">
        <path id="Path_2525" data-name="Path 2525" d="M336.448,1284.01a39.91,39.91,0,0,1,8.273,5.924c.659.614,1.653-.375.991-.991a41.363,41.363,0,0,0-8.556-6.143c-.794-.428-1.5.782-.707,1.21Z" transform="translate(-336.1 -1282.709)" fill="#21223f"/>
      </g>
      <path id="Path_2526" data-name="Path 2526" d="M360.705,1430.592H323.4v37.08c0,11.554,8.261,20.92,18.452,20.92h37.712c10.191,0,18.452-9.366,18.452-20.92v-37.08Z" transform="translate(-308.773 -1373.18)" fill="#bffd6a"/>
      <g id="Group_751" data-name="Group 751" transform="translate(13.223 55.993)">
        <path id="Path_2527" data-name="Path 2527" d="M356.107,1424.536H323.384c-1.506,0-3.017-.039-4.523,0H318.8a1.422,1.422,0,0,0-1.4,1.4v36.74a25.334,25.334,0,0,0,2.424,11.03,20.8,20.8,0,0,0,9.841,9.936,18.4,18.4,0,0,0,7,1.685c.677.024,1.357.01,2.035.01h30.988c2.032,0,4.082.082,6.113-.021a18.963,18.963,0,0,0,12.611-5.872,23.523,23.523,0,0,0,6.239-13.572,43.643,43.643,0,0,0,.171-5.229v-34.708a1.422,1.422,0,0,0-1.4-1.4H360.7c-1.51,0-3.025-.039-4.534,0h-.063a1.4,1.4,0,0,0,0,2.8h32.711c1.506,0,3.028.064,4.534,0h.063l-1.4-1.4v36.639a28.2,28.2,0,0,1-.122,2.865q-.022.216-.048.433c0,.015-.048.37-.016.136.027-.2-.005.032-.012.081q-.07.478-.16.954-.172.912-.417,1.808-.241.881-.552,1.741-.15.412-.315.819a1.057,1.057,0,0,0-.078.19c0-.036.125-.289.021-.052-.069.156-.138.312-.209.466a21.456,21.456,0,0,1-1.733,3.063q-.223.328-.459.647l-.118.158c-.012.017-.214.271-.07.093.125-.155-.012.014-.043.052-.051.064-.1.128-.154.191q-.555.681-1.169,1.312-.573.589-1.195,1.128c-.206.178-.416.351-.629.521-.039.031-.207.161-.047.038.185-.141-.068.05-.087.064q-.172.128-.347.253a17.713,17.713,0,0,1-2.873,1.666,1.944,1.944,0,0,1-.39.173c.029-.005.306-.124.073-.031l-.176.071q-.4.157-.8.295a16.5,16.5,0,0,1-1.6.455q-.4.092-.8.163-.189.034-.379.063a.821.821,0,0,1-.19.028l.134-.018-.144.018a16.487,16.487,0,0,1-1.651.112c-.616.011-1.232,0-1.847,0H342.666c-1.966,0-3.94.051-5.906-.007q-.415-.012-.828-.045-.218-.017-.435-.04l-.192-.022c-.053-.006-.325-.064-.1-.012s-.218-.035-.289-.047q-.189-.031-.378-.068-.422-.081-.84-.183-.808-.2-1.593-.478c-.253-.09-.5-.188-.753-.288-.1-.041-.189-.018.073.031a1.035,1.035,0,0,1-.174-.076q-.217-.1-.431-.2a17.773,17.773,0,0,1-2.852-1.705,2.8,2.8,0,0,1-.306-.229c.262.255-.012-.011-.093-.077q-.337-.271-.661-.558-.653-.577-1.252-1.211-.571-.6-1.09-1.255a1.72,1.72,0,0,1-.122-.154c.173.279.064.083.009.01-.079-.106-.158-.211-.235-.318q-.277-.381-.537-.775a21.533,21.533,0,0,1-1.673-3.047c-.036-.08-.239-.525-.083-.182-.057-.125-.1-.254-.155-.381q-.172-.432-.325-.872-.3-.864-.534-1.75t-.4-1.817c-.05-.281-.109-.567-.135-.851.035.395-.016-.144-.025-.219q-.031-.271-.055-.542c-.141-1.566-.1-3.151-.1-4.722v-34.51l-1.4,1.4h32.722c1.506,0,3.017.039,4.523,0h.063a1.4,1.4,0,0,0,0-2.8Z" transform="translate(-317.397 -1424.518)" fill="#21223f"/>
      </g>
    </g>
    <g id="Group_780" data-name="Group 780" transform="translate(520.226 387.893)">
      <path id="Path_2528" data-name="Path 2528" d="M1760.724,1133.462c-4.763-16.252-8.881-32.733-15.187-48.451-2.761-6.882-5.916-13.693-10.483-19.535-6.014-7.691-14.262-13.4-23.049-17.655s-18.159-7.146-27.49-10.021l-51.483,11.2c-10.6,3.5-21.531,7.176-29.87,14.6-10.933,9.732-15.807,25.983-20.237,39.934l-22.531,38.125-40.409,11.3a45.836,45.836,0,0,1,6.916,19.544l8.709,12.388s34.3,5.411,54.88-6.974l20.172-2.218,2.461,12.4,142.01.235C1775.1,1182.165,1763.513,1142.977,1760.724,1133.462Z" transform="translate(-1500.713 -885.98)" fill="#fffa7b"/>
      <path id="Path_2529" data-name="Path 2529" d="M2016.249,1042.532c2.989,19.785-20.6,36.855-38.436,33.766-7.536-1.305-14.83-7.058-15.213-14.7-2.825,4.568-7.063,8.5-12.268,9.822-15.383,3.906-20.506-12.09-10.083-18.545l31.982-12.8,19.633-2.275Z" transform="translate(-1818.618 -885.98)" fill="#fff"/>
      <path id="Path_2530" data-name="Path 2530" d="M1740.17,1257.105l-6.063-5.935-46.583,16.021-22.059-12.077-5.684,5.344,21.494,11.526,7.235,1Z" transform="translate(-1607.851 -1049.506)" fill="#fff"/>
      <path id="Path_2531" data-name="Path 2531" d="M1437.486,1538.783l20.981-1.647s5.916,9.419,5.546,19.678l-20.889-1.017Z" transform="translate(-1437.486 -1268.67)" fill="#fcc4b9"/>
      <path id="Path_2532" data-name="Path 2532" d="M1850.4,1038.715a24.5,24.5,0,0,1-5.191-28.924s13.226,2.56,20.942.376a83.3,83.3,0,0,0,13.046-4.833s4.067,7.64,4.129,13.309-4.025,5.792-4.025,5.792-14.708,5.054-18.938,7.507-9.963,6.772-9.963,6.772" transform="translate(-1747.952 -861.099)" fill="#2c2c2c"/>
      <path id="Path_2533" data-name="Path 2533" d="M1815,548.593l1.427-14.883s4.784-18.3-1.5-29.638-43.441-8.072-70.989,0-23.2,21.273-23.2,21.273c-3.718,26.1-.487,67.449,13.6,83.9,8.956,10.456,24.828,14.171,38.667,11,2.049-.47,9.484-3.508,11.438-4.229l3.691,9.4s3.241,8.245-4.252,12.722c0,0,7.7,10.494,24.508,8.459,21.25-2.572,29.139-21.181,29.139-21.181-14.266-16.144-20.181-29.752-20.181-46.09l1.823.07a17.639,17.639,0,0,0,12.321-5.673C1842.284,561.693,1832.3,540.139,1815,548.593Z" transform="translate(-1653.478 -471.314)" fill="#fcc4b9"/>
      <path id="Path_2534" data-name="Path 2534" d="M1658.2,497.3a21.957,21.957,0,0,0-20.887,32.6c-6.417,6.145-7.392,16.623-3.725,24.715s11.2,13.93,19.408,17.342l-.9-32.557,18.406-25.633Z" transform="translate(-1586.146 -471.698)" fill="#2c2c2c"/>
      <path id="Path_2535" data-name="Path 2535" d="M1943.143,548.806a62.294,62.294,0,0,0-43.621-40.213c6.361-25.645-8.057-48.847-27.428-51.684,4.542-18.6-2.925-39.57-18.2-51.113s-37.488-13-54.141-3.551c0,0-2.381-7.565-16.4-8.452a29.629,29.629,0,0,0-27.741,44.011c4.8,8.6,13.671,14.323,23.034,17.365s19.307,3.7,29.131,4.341a67.581,67.581,0,0,0,10.857,21.147c1.66,2.177,3.77,4.418,6.5,4.568,2.46.134,4.658-1.491,6.388-3.245a30.191,30.191,0,0,0,7.774-14.022c22.438-6.749,24.369,13.8,19.734,23.321-4.871,10-16.661,9.754-16.661,9.754-1.563,20.833,16.568,41.183,16.568,41.183s28.163,6.414,45.314,21.016c18.46,15.716,25.06,45.1,25.06,45.1C1942.52,592.46,1949.624,568.411,1943.143,548.806Z" transform="translate(-1678.488 -392.372)" fill="#2c2c2c"/>
      <g id="Group_753" data-name="Group 753" transform="translate(159.344 73.787)">
        <path id="Path_2536" data-name="Path 2536" d="M2122.66,708.286c.264-.128.53-.253.8-.371.072-.032.146-.06.216-.094-.346.166-.2.085-.12.05.166-.068.332-.135.5-.2q.758-.292,1.538-.52.737-.214,1.491-.362.362-.07.727-.124c.365-.053-.339.041.019,0q.226-.027.452-.047a13.537,13.537,0,0,1,2.714.028l.177.021c-.469-.052-.277-.039-.167-.022s.213.032.32.05q.316.054.628.124a12.135,12.135,0,0,1,1.264.357q.267.091.529.195l.156.063c.223.088-.347-.152-.128-.054.1.046.2.09.3.137a12.063,12.063,0,0,1,1.079.571,12.5,12.5,0,0,1,1.056.7l.088.066c.191.139-.293-.233-.109-.085.072.057.144.114.215.172q.257.21.5.432.451.409.864.857.207.225.4.458c.06.071.119.142.177.215l.1.131c.191.237-.135-.18-.065-.085a16.341,16.341,0,0,1,1.349,2.111c.2.371.375.749.544,1.133.044.1.117.322-.051-.123.02.054.044.106.066.16q.054.133.106.268.125.324.236.652a17.449,17.449,0,0,1,.642,2.49q.058.32.1.642c.05.347-.045-.361,0-.02.016.128.03.256.043.384q.067.669.085,1.342a17.969,17.969,0,0,1-.128,2.655c-.014.109-.053.359.019-.131-.009.061-.017.121-.026.182q-.022.151-.047.3-.06.363-.135.724-.138.666-.328,1.32t-.435,1.3q-.067.177-.137.352l-.048.117c-.1.238.146-.337.043-.1s-.205.465-.316.694a17.328,17.328,0,0,1-1.444,2.457c-.14.2-.287.393-.433.588.3-.4.037-.051-.029.032q-.137.171-.279.338a16.367,16.367,0,0,1-1.249,1.322q-.333.315-.683.61-.183.155-.37.3l-.064.052c.19-.153-.1.076-.136.1a17.194,17.194,0,0,1-1.6,1.052,17.748,17.748,0,0,1-1.791.906l-.16.069c.375-.168.091-.039.012-.008q-.2.082-.407.158-.491.184-.992.339a18.145,18.145,0,0,1-1.864.471c-.308.061-.645.078-.947.16.384-.1.139-.018.026,0l-.174.02c-.188.021-.376.039-.565.054a17.38,17.38,0,0,1-1.961.046q-.458-.015-.914-.055-.239-.021-.477-.049c-.038,0-.327-.048-.073-.007s-.114-.017-.159-.024a16.45,16.45,0,0,1-1.877-.4,1.4,1.4,0,0,0-.745,2.7,19.042,19.042,0,0,0,16.157-3.059,18.728,18.728,0,0,0,7.139-11.172,19.4,19.4,0,0,0-1.206-11.628,15.067,15.067,0,0,0-7.317-7.733,14.135,14.135,0,0,0-5.788-1.291,17.394,17.394,0,0,0-6.437,1.265c-.65.256-1.293.536-1.922.842a1.41,1.41,0,0,0-.5,1.918,1.438,1.438,0,0,0,1.918.5Z" transform="translate(-2119.601 -703.759)"/>
      </g>
      <g id="Group_754" data-name="Group 754" transform="translate(64.307 47.055)">
        <path id="Path_2537" data-name="Path 2537" d="M1791.873,676.673c-7.556,6.847-16.854,11.98-27.038,13.568-.651.1-.887.133-1.575.208q-.9.1-1.808.161-1.737.119-3.479.1t-3.474-.172c-1.286-.114-2.1-.221-3.365-.444a41.675,41.675,0,0,1-6.792-1.792c-1.133-.405-1.943-.736-2.952-1.206s-2.023-1-3-1.564a30.4,30.4,0,0,1-5.358-3.9,30.854,30.854,0,0,1-2.352-2.381q-.472-.533-.918-1.087c-.12-.149-.238-.3-.356-.448.2.261-.033-.045-.062-.082q-.14-.185-.278-.372a41.942,41.942,0,0,1-3-4.732q-.718-1.309-1.359-2.657-.308-.646-.6-1.3-.161-.361-.318-.723l-.131-.3q-.057-.136.012.029l-.1-.246a85.846,85.846,0,0,1-4.037-12.571q-.815-3.331-1.434-6.706-.331-1.791-.615-3.591-.131-.83-.252-1.661-.067-.454-.13-.909l-.042-.3-.041-.3-.011-.084a170.689,170.689,0,0,1-1.337-28.027q.055-1.6.141-3.2l-.191.707a102.417,102.417,0,0,1,8.392-13.4c1.406-1.92,2.877-3.762,4.492-5.568a1.434,1.434,0,0,0,0-1.982,1.416,1.416,0,0,0-1.982,0,95.66,95.66,0,0,0-10.567,14.669c-.851,1.42-1.677,2.856-2.46,4.315a3.227,3.227,0,0,0-.486,1.263c-.12,1.34-.13,2.7-.168,4.047-.165,5.7-.043,11.405.353,17.092a157.373,157.373,0,0,0,2.188,17.61,102.145,102.145,0,0,0,4.237,16.129,55.044,55.044,0,0,0,6.654,13.3,34.45,34.45,0,0,0,12.119,10.577,42.92,42.92,0,0,0,16.86,4.668,46.05,46.05,0,0,0,17.842-2.308,57.522,57.522,0,0,0,17.173-9.41q1.849-1.448,3.588-3.029a1.4,1.4,0,0,0-1.982-1.982Z" transform="translate(-1712.77 -589.326)"/>
      </g>
      <g id="Group_755" data-name="Group 755" transform="translate(103.33 72.046)">
        <path id="Path_2538" data-name="Path 2538" d="M1895.458,697.707a16.645,16.645,0,0,0-5.959-1.388,16.335,16.335,0,0,0-8.986,2.248,1.4,1.4,0,0,0,1.415,2.421c.382-.227.772-.437,1.173-.628q.15-.071.3-.139c.092-.041.411-.135.058-.028.21-.064.414-.165.62-.24a15.021,15.021,0,0,1,2.57-.676c.109-.018.219-.036.329-.052.047-.007.095-.012.141-.02-.032.006-.34.041-.09.013.22-.024.441-.048.663-.065q.664-.051,1.33-.043t1.329.072q.165.017.331.036c.047.006.094.014.141.018-.033,0-.338-.05-.09-.011.219.035.438.071.655.113a14.477,14.477,0,0,1,1.474.369q.341.1.676.226.178.065.355.135l.133.053c.31.122-.29-.126.016.006a1.535,1.535,0,0,0,1.08.141,1.4,1.4,0,0,0,.335-2.562Z" transform="translate(-1879.818 -696.305)" fill="#2c2c2c"/>
      </g>
      <g id="Group_756" data-name="Group 756" transform="translate(70.789 78.275)">
        <path id="Path_2539" data-name="Path 2539" d="M1751.411,723.294a10.57,10.57,0,0,0-10.495,3.235,1.4,1.4,0,0,0,1.982,1.982,8.763,8.763,0,0,1,.85-.869q.13-.115.265-.225l.1-.082q.124-.1-.112.087c.078-.012.214-.157.281-.2s.143-.1.216-.145a9.134,9.134,0,0,1,1.061-.593c.092-.044.184-.084.277-.126s.053-.024-.135.057l.162-.065q.284-.11.575-.2a9.333,9.333,0,0,1,1.182-.289c.085-.015.173-.024.257-.042-.437.093-.047.007.059,0q.3-.03.606-.04a8.853,8.853,0,0,1,1.214.042c.129.014.323.114-.028-.007a2.094,2.094,0,0,0,.3.049c.214.039.426.088.636.143a1.4,1.4,0,1,0,.745-2.7Z" transform="translate(-1740.517 -722.971)" fill="#2c2c2c"/>
      </g>
      <ellipse id="Ellipse_83" data-name="Ellipse 83" cx="4.368" cy="6.407" rx="4.368" ry="6.407" transform="matrix(0.986, -0.165, 0.165, 0.986, 104.721, 88.397)"/>
      <ellipse id="Ellipse_84" data-name="Ellipse 84" cx="4.368" cy="6.407" rx="4.368" ry="6.407" transform="matrix(0.986, -0.165, 0.165, 0.986, 75.371, 93.308)"/>
      <g id="Group_757" data-name="Group 757" transform="translate(162.431 84.122)">
        <path id="Path_2540" data-name="Path 2540" d="M2144.238,749.407a3.279,3.279,0,0,0-2.856-1.408,4.94,4.94,0,0,0-3.206,1.488,15.625,15.625,0,0,0-2.3,2.894,21.687,21.687,0,0,0-1.8,3.421,21.431,21.431,0,0,0-1.24,3.993.706.706,0,0,0,1.171.682,4.323,4.323,0,0,1,1.509-.936,4.659,4.659,0,0,1,1.825-.278,4.557,4.557,0,0,1,3.245,1.436.7.7,0,1,0,.991-.991,6.16,6.16,0,0,0-8.561-.222l1.171.682a20.526,20.526,0,0,1,2.376-6.231,18.751,18.751,0,0,1,1.883-2.693,5.053,5.053,0,0,1,2.339-1.753,2.5,2.5,0,0,1,1.274-.018,1.59,1.59,0,0,1,.574.248,1.56,1.56,0,0,1,.4.392.717.717,0,0,0,.959.251.708.708,0,0,0,.251-.959Z" transform="translate(-2132.818 -747.998)"/>
      </g>
      <ellipse id="Ellipse_85" data-name="Ellipse 85" cx="7.806" cy="5.606" rx="7.806" ry="5.606" transform="matrix(0.986, -0.165, 0.165, 0.986, 117.935, 106.399)" fill="#e18f81"/>
      <path id="Path_2541" data-name="Path 2541" d="M1837.254,887.035a34.119,34.119,0,0,0-11.752,2.1,6.188,6.188,0,0,0,3.475,6.136,6.339,6.339,0,0,0,6.96-1.266A6.5,6.5,0,0,0,1837.254,887.035Z" transform="translate(-1734.834 -770.434)"/>
      <path id="Path_2542" data-name="Path 2542" d="M1831,907.888a5.952,5.952,0,0,0,2.217,1.8,6.338,6.338,0,0,0,6.96-1.266,6.13,6.13,0,0,0,1.388-2.2A14.218,14.218,0,0,0,1831,907.888Z" transform="translate(-1739.073 -784.851)" fill="#f96464"/>
      <g id="Group_758" data-name="Group 758" transform="translate(90.285 116.25)">
        <path id="Path_2543" data-name="Path 2543" d="M1836.112,885.535a33.9,33.9,0,0,0-11.845,2.117.374.374,0,0,0-.257.338,6.489,6.489,0,0,0,4.9,6.866,6.842,6.842,0,0,0,4.507-.578,6.389,6.389,0,0,0,3.052-3.384,6.831,6.831,0,0,0-.021-5.1.363.363,0,0,0-.431-.245.352.352,0,0,0-.245.431,5.912,5.912,0,0,1-6.224,8.282,5.538,5.538,0,0,1-3.517-1.974,5.814,5.814,0,0,1-1.322-4.3l-.257.338a33.314,33.314,0,0,1,11.658-2.092A.351.351,0,0,0,1836.112,885.535Z" transform="translate(-1823.977 -885.534)" fill="#21223f"/>
      </g>
      <g id="Group_759" data-name="Group 759" transform="translate(161.853 106.784)">
        <path id="Path_2544" data-name="Path 2544" d="M2130.345,846.415a74.855,74.855,0,0,0,1.48,10.251,73.813,73.813,0,0,0,2.8,9.681,77.339,77.339,0,0,0,4.183,9.466,74.976,74.976,0,0,0,11.879,16.607q.428.451.864.894a1.4,1.4,0,1,0,1.982-1.982q-1.742-1.774-3.359-3.665-.823-.963-1.611-1.955-.178-.224-.355-.45l-.176-.226c-.117-.15.159.208.044.057l-.116-.152q-.378-.494-.747-.993a73.757,73.757,0,0,1-5.374-8.413q-1.194-2.181-2.241-4.438c-.349-.752-.664-1.519-1.008-2.273,0,0,.109.26.048.115l-.056-.132-.128-.309q-.119-.287-.235-.575-.232-.577-.455-1.157a73.98,73.98,0,0,1-2.942-9.54q-.575-2.442-.981-4.92-.1-.613-.19-1.228-.041-.284-.081-.568l-.019-.142c-.022-.161.019.139.018.136-.014-.127-.033-.253-.049-.379q-.156-1.233-.27-2.471-.057-.619-.1-1.239a1.4,1.4,0,0,0-2.8,0Z" transform="translate(-2130.342 -845.012)"/>
      </g>
      <g id="Group_760" data-name="Group 760" transform="translate(129.007 144.3)">
        <path id="Path_2545" data-name="Path 2545" d="M1991,1007.714q.291.653.577,1.308.134.308.267.617l.13.3.055.13c.074.172-.136-.325-.014-.033.329.786.649,1.575.947,2.373a28.425,28.425,0,0,1,1.3,4.388q.05.25.092.5c.014.083.027.166.04.249s.057.4.021.131,0,.027.01.094.018.162.025.244c.017.172.03.344.04.517a11.365,11.365,0,0,1-.044,1.909c0,.044-.011.087-.015.131-.015.151.025-.244.029-.21a.958.958,0,0,1-.035.227q-.04.243-.092.484-.1.466-.249.921-.067.205-.143.408c-.027.073-.056.145-.085.218-.106.27.142-.319,0,.006q-.2.44-.439.86a11.062,11.062,0,0,1-.625.969c-.058.081-.118.16-.177.24-.133.179.07-.093.08-.1-.034.036-.064.08-.1.119q-.209.259-.43.506a17.543,17.543,0,0,1-2.028,1.914,1.406,1.406,0,0,0,0,1.982,1.441,1.441,0,0,0,1.982,0,13.129,13.129,0,0,0,5-7.745,18.213,18.213,0,0,0-1.242-9.1c-.724-2.028-1.589-4-2.464-5.97a1.406,1.406,0,0,0-1.918-.5,1.444,1.444,0,0,0-.5,1.918Z" transform="translate(-1989.736 -1005.609)" fill="#2c2c2c"/>
      </g>
      <g id="Group_761" data-name="Group 761" transform="translate(129.017 152.707)">
        <path id="Path_2546" data-name="Path 2546" d="M1990.177,1056.7a27.846,27.846,0,0,0,8.277,5.917,32.6,32.6,0,0,0,23,1.841,36.715,36.715,0,0,0,12.309-6.4,49.5,49.5,0,0,0,11.029-12.375q.633-.982,1.229-1.989a1.4,1.4,0,1,0-2.421-1.415q-1.175,1.977-2.491,3.866-.628.9-1.292,1.769a1.38,1.38,0,0,0-.164.214l.11-.142-.109.141-.274.349q-.354.446-.719.885a45.368,45.368,0,0,1-5.455,5.556c-.467.4-.948.776-1.426,1.16.374-.3-.046.034-.135.1l-.3.224q-.388.287-.782.563-1.385.972-2.856,1.814-1.438.821-2.949,1.5-.184.083-.37.164l-.185.08c-.046.02-.261.111-.018.008s.029-.012-.018.007l-.185.076q-.216.088-.432.173-.735.288-1.484.54a33.131,33.131,0,0,1-5.846,1.375c.545-.079.073-.01-.054.006l-.335.039q-.379.042-.759.076-.723.064-1.448.093-1.4.057-2.795-.011-.7-.034-1.4-.1-.347-.033-.694-.073l-.288-.035-.172-.022c.523.059.2.028.087.011q-1.358-.192-2.694-.5-1.282-.3-2.536-.7-.63-.2-1.25-.436-.308-.115-.613-.236l-.253-.1c-.123-.05-.573-.251-.067-.026a31.963,31.963,0,0,1-4.45-2.361q-.519-.337-1.022-.7-.249-.179-.494-.362l-.2-.153c-.181-.136.3.235.123.1l-.159-.125q-.937-.741-1.8-1.568-.4-.388-.79-.795a1.415,1.415,0,0,0-1.982,0,1.43,1.43,0,0,0,0,1.982Z" transform="translate(-1989.778 -1041.597)" fill="#2c2c2c"/>
      </g>
      <g id="Group_762" data-name="Group 762" transform="translate(43.937 24.144)">
        <path id="Path_2547" data-name="Path 2547" d="M1653.683,491.309a23.911,23.911,0,0,0-17.58,6.2,23.157,23.157,0,0,0-7.415,17.671,23.532,23.532,0,0,0,2.9,10.84l.219-1.7c-5.258,5.066-7,12.693-5.941,19.748,1.088,7.276,5.537,13.645,11.192,18.184a45.58,45.58,0,0,0,11.05,6.468,1.405,1.405,0,0,0,1.724-.979,1.446,1.446,0,0,0-.979-1.724c-.357-.149.266.116-.089-.037l-.317-.137q-.264-.115-.526-.234-.631-.285-1.254-.588-1.2-.582-2.356-1.234a41.534,41.534,0,0,1-4.46-2.891l-.277-.208c-.037-.028-.343-.265-.082-.062q-.227-.177-.452-.357-.538-.432-1.06-.883-1-.863-1.927-1.8t-1.774-1.935q-.4-.479-.789-.974c.205.264-.028-.039-.058-.078q-.1-.136-.2-.274-.2-.275-.4-.555a27.625,27.625,0,0,1-2.592-4.552c-.044-.1-.087-.2-.13-.3-.142-.324.076.193-.005-.014-.073-.185-.149-.368-.219-.553q-.231-.607-.429-1.227a24.182,24.182,0,0,1-.636-2.415q-.122-.586-.216-1.177c-.017-.109-.1-.632-.043-.274-.039-.25-.062-.5-.088-.756a24.408,24.408,0,0,1-.122-2.5,23.8,23.8,0,0,1,.135-2.485c.019-.178.036-.359.064-.536-.059.377,0,.013.01-.054q.024-.16.05-.319.1-.636.246-1.265a21.26,21.26,0,0,1,.745-2.564q.126-.35.266-.7c.023-.059.149-.4.021-.058.037-.1.084-.2.128-.292q.281-.63.607-1.238a18.406,18.406,0,0,1,1.477-2.326c.036-.048.26-.331.04-.054.066-.083.132-.167.2-.249q.236-.29.484-.569.464-.522.969-1.005a1.431,1.431,0,0,0,.219-1.7c-.191-.343-.373-.691-.544-1.044q-.116-.238-.225-.479c-.041-.089-.08-.179-.12-.269-.16-.359.105.266-.042-.1a21.814,21.814,0,0,1-1.279-4.4q-.052-.289-.1-.581c-.015-.1-.028-.194-.042-.291-.035-.235.038.343,0-.036s-.085-.78-.112-1.172a22.894,22.894,0,0,1-.044-2.355q.018-.53.059-1.058.023-.294.054-.587c.008-.078.017-.156.026-.234,0-.04.062-.474.034-.281-.032.222.024-.16.025-.164q.018-.116.037-.233.047-.29.1-.58.109-.578.249-1.15a22.1,22.1,0,0,1,.677-2.252q.179-.5.382-.987c-.112.271-.009.024.021-.043q.059-.135.12-.268.134-.294.277-.584a20.611,20.611,0,0,1,1.127-2q.3-.472.631-.928c.088-.121.177-.241.266-.361.224-.3-.182.222.055-.071.07-.087.14-.175.21-.262a21.4,21.4,0,0,1,1.465-1.619q.773-.772,1.621-1.464c.054-.045.509-.4.243-.2q.222-.171.449-.336.453-.331.922-.639.939-.616,1.934-1.138.447-.235.9-.45.254-.119.511-.232l.206-.089c-.3.133.01,0,.079-.032a22.523,22.523,0,0,1,4.791-1.355l.277-.044c.08-.012.419-.077.071-.013.2-.037.409-.051.612-.071q.613-.063,1.229-.09a21.12,21.12,0,0,1,2.521.042,1.408,1.408,0,0,0,1.4-1.4,1.436,1.436,0,0,0-1.4-1.4Z" transform="translate(-1625.57 -491.247)"/>
      </g>
      <g id="Group_763" data-name="Group 763" transform="translate(72.05)">
        <path id="Path_2548" data-name="Path 2548" d="M1833.948,459.538a24.879,24.879,0,0,1-.406,2.588q-.273,1.321-.665,2.613a26.676,26.676,0,0,1-2.01,4.929q-.66,1.261-1.436,2.458-.367.566-.759,1.114c-.27.378-.471.647-.682.913q-.885,1.115-1.875,2.141c-.311.323-.63.638-.963.939q-.223.2-.454.4c-.1.081-.193.161-.292.239l-.014.011q-.09.068-.182.133a10.136,10.136,0,0,1-1.07.678,6.474,6.474,0,0,1-.659.323c.064-.026.187-.064-.07.02-.138.045-.273.094-.412.135a3.946,3.946,0,0,1-2.146.065c-.2-.051-.394-.116-.589-.184-.035-.012-.245-.1-.046-.015q-.126-.056-.249-.118a7.876,7.876,0,0,1-1.182-.735c.158.117-.031-.025-.052-.042-.092-.076-.183-.152-.273-.23q-.244-.212-.477-.438c-.331-.319-.645-.656-.947-1-.269-.309-.528-.626-.781-.948-.069-.088-.157-.2-.334-.441q-.242-.323-.481-.648-.882-1.2-1.711-2.448-1.656-2.485-3.089-5.111a64.887,64.887,0,0,1-5.143-12.218,1.451,1.451,0,0,0-1.351-1.029c-10.508-.683-21.078-1.346-31.031-5.087a45.914,45.914,0,0,1-5.753-2.618,44.609,44.609,0,0,1-5.606-3.591,1.384,1.384,0,0,1-.163-.125l-.332-.262q-.275-.22-.546-.445-.649-.539-1.273-1.107-1.218-1.109-2.329-2.329-.541-.6-1.053-1.218c-.412-.5-.532-.655-.9-1.155a30.258,30.258,0,0,1-1.764-2.707,27.588,27.588,0,0,1-1.485-2.966c.1.232-.083-.2-.081-.2q-.082-.2-.16-.4-.156-.4-.3-.814-.289-.818-.528-1.652a29.971,29.971,0,0,1-.738-3.242,26.433,26.433,0,0,1-.337-3.079,28.766,28.766,0,0,1,2.18-12.936c-.1.233.088-.2.085-.2q.087-.2.177-.4.18-.395.372-.784.384-.778.816-1.532a27.575,27.575,0,0,1,1.765-2.7q.123-.166.248-.33c-.161.21.116-.147.119-.151q.214-.269.435-.534.53-.634,1.095-1.237a29.5,29.5,0,0,1,2.391-2.279,23.429,23.429,0,0,1,2.345-1.785,30.936,30.936,0,0,1,2.709-1.646q.668-.361,1.353-.688c.54-.258,1.01-.465,1.368-.611a30.682,30.682,0,0,1,3.06-1.059,29.918,29.918,0,0,1,3.085-.714q.406-.072.815-.132c-.026,0,.421-.058.223-.032s.249-.03.224-.027q.82-.1,1.645-.147a27.8,27.8,0,0,1,3.305-.005q.748.043,1.493.131c.022,0,.467.061.169.02l.271.039q.474.071.945.161a24.231,24.231,0,0,1,3.054.786c.477.157.945.335,1.413.517.416.162-.24-.11.169.07.125.055.249.11.373.166q.433.2.856.414a19,19,0,0,1,2.633,1.627c.011.008.359.277.142.106l.208.167q.311.253.609.52a15.953,15.953,0,0,1,1.136,1.125q.27.3.523.6c-.018-.022.255.32.14.172s.149.2.133.178a15.191,15.191,0,0,1,.882,1.353,1.4,1.4,0,0,0,2.42-1.415c-4.77-8.2-15.343-10.589-24.119-9.168a30.936,30.936,0,0,0-23.9,42.287c3.549,8.772,11.033,15.214,19.491,19.114,9.827,4.532,20.7,5.726,31.382,6.476q2.07.145,4.142.277L1801.8,455.4a69.907,69.907,0,0,0,4.931,11.962,62.719,62.719,0,0,0,6.908,10.59,12.038,12.038,0,0,0,4.628,3.7,7.235,7.235,0,0,0,6.03-.4,16.23,16.23,0,0,0,4.668-3.909,31.485,31.485,0,0,0,7.789-17.8,1.406,1.406,0,0,0-1.4-1.4,1.441,1.441,0,0,0-1.4,1.4Z" transform="translate(-1745.916 -387.893)"/>
      </g>
      <g id="Group_764" data-name="Group 764" transform="translate(119.87 2.262)">
        <path id="Path_2549" data-name="Path 2549" d="M1952.724,406.4a49.429,49.429,0,0,1,42.76-2.187c13.4,5.616,23.159,17.522,27,31.428a47.8,47.8,0,0,1,.527,23.84,1.414,1.414,0,0,0,.979,1.724c16.369,2.474,26.488,18.57,27.76,34.1a49.641,49.641,0,0,1-1.312,15.862,1.424,1.424,0,0,0,.979,1.724,61.079,61.079,0,0,1,36.747,26.779,52.406,52.406,0,0,1,7.96,21.939,61.064,61.064,0,0,1-2.55,24.363,70.421,70.421,0,0,1-12.99,24.313c-1.143,1.379.83,3.373,1.982,1.982,10.854-13.1,17.506-30.568,16.6-47.692-.871-16.48-9.872-31.832-22.565-42.112a62.733,62.733,0,0,0-24.44-12.275l.979,1.724c4.267-17.443-.506-38.108-16.066-48.555a30.413,30.413,0,0,0-12.341-4.853l.979,1.724a52.14,52.14,0,0,0-9.178-42.99,48.338,48.338,0,0,0-17.4-14.431,52.7,52.7,0,0,0-22.5-5.224,50.875,50.875,0,0,0-25.318,6.4,1.4,1.4,0,0,0,1.415,2.421Z" transform="translate(-1950.623 -397.576)"/>
      </g>
      <g id="Group_765" data-name="Group 765" transform="translate(93.23 147.307)">
        <path id="Path_2550" data-name="Path 2550" d="M1839.4,1019.158a25.049,25.049,0,0,0-2.816,11.872,26.218,26.218,0,0,0,3.344,12.452,27.62,27.62,0,0,0,4.881,6.3,1.4,1.4,0,0,0,1.982-1.982,27.253,27.253,0,0,1-2.324-2.549,1.365,1.365,0,0,1-.226-.286c.1.252.113.147.026.032l-.135-.181q-.241-.324-.472-.656-.469-.672-.893-1.374a24.987,24.987,0,0,1-1.459-2.8l-.086-.2c-.022-.051-.1-.231-.013-.028l-.091-.225q-.15-.372-.287-.748-.266-.727-.486-1.469a24.593,24.593,0,0,1-.675-2.928c-.038-.228-.065-.457-.1-.684.083.48,0-.008-.012-.111q-.024-.2-.044-.4-.073-.721-.1-1.446a24.388,24.388,0,0,1,.056-2.945c.018-.223.039-.446.063-.668.012-.118.026-.235.04-.352.007-.052.013-.1.02-.156.036-.294-.051.354-.008.061.07-.477.15-.953.247-1.426a23.315,23.315,0,0,1,.845-3.056q.134-.38.28-.755.07-.178.143-.355c.02-.047.04-.094.059-.141-.162.408-.058.138-.021.054q.319-.732.69-1.439a1.4,1.4,0,1,0-2.42-1.415Z" transform="translate(-1836.584 -1018.48)"/>
      </g>
      <g id="Group_766" data-name="Group 766" transform="translate(81.069 161.605)">
        <path id="Path_2551" data-name="Path 2551" d="M1787.282,1135.174c1.5-4.717,2.97-9.445,4.685-14.088q.644-1.744,1.338-3.469.165-.409.333-.816l.16-.385c.036-.085.069-.173.108-.257l-.069.164.072-.17q.362-.851.741-1.694a72.59,72.59,0,0,1,3.319-6.533q.906-1.569,1.909-3.079.5-.75,1.025-1.482.263-.365.532-.725.135-.18.271-.359c.036-.048.074-.095.109-.143-.228.31-.055.071,0,0a41.469,41.469,0,0,1,4.911-5.3q.723-.651,1.476-1.268.36-.295.726-.582l.09-.071c-.181.143.074-.057.091-.069q.214-.163.43-.324,1.587-1.182,3.267-2.23a62.9,62.9,0,0,1,6.9-3.71q.895-.415,1.8-.809.43-.187.862-.37c.2-.083-.32.134-.016.007l.182-.076.549-.227q1.834-.751,3.694-1.438c2.479-.92,4.983-1.77,7.492-2.6l1.874-.62a1.4,1.4,0,0,0-.745-2.7c-5.163,1.7-10.319,3.437-15.307,5.609a58.708,58.708,0,0,0-13.836,8.2,45.576,45.576,0,0,0-9.73,11.318,80.966,80.966,0,0,0-6.575,13.637c-1.8,4.661-3.318,9.425-4.827,14.186l-.548,1.729a1.414,1.414,0,0,0,.979,1.724,1.433,1.433,0,0,0,1.724-.979Z" transform="translate(-1784.524 -1079.686)"/>
      </g>
      <path id="Path_2552" data-name="Path 2552" d="M1752.607,1332.787l-15.168-58.932-53.731,16.513-7.235-1-22.958-12.311,15.566,75.613L1692.827,1364h7.128l23.342-7" transform="translate(-1603.05 -1066.892)" fill="#bffd6a"/>
      <path id="Path_2553" data-name="Path 2553" d="M1968.621,1509.768c-14.009-.218-24.27-12.352-40.021-13.254-12.463-.714-18.575,3.411-18.556,8.4a5.7,5.7,0,0,0,2.5,4.078c3.7,1.956,3.464,7.167,4.487,11.229,2.593,10.295,13.13,19.6,34.864,12.57a104.759,104.759,0,0,0,18.748,2.531" transform="translate(-1799.654 -1237.475)" fill="#fcc4b9"/>
      <g id="Group_767" data-name="Group 767" transform="translate(166.756 150.399)">
        <path id="Path_2554" data-name="Path 2554" d="M2168,1034.491c14.534,4.478,29.633,9.109,41.6,18.893a54.1,54.1,0,0,1,7.533,7.447,55.685,55.685,0,0,1,6.11,9.357,146.926,146.926,0,0,1,8.975,21.9c2.622,7.747,4.887,15.609,7.119,23.475,1.562,5.508,3.169,11,4.731,16.511a129.158,129.158,0,0,1,4.691,23.4c.2,2.23.311,4.47.291,6.71-.011,1.136-.056,2.273-.143,3.406-.086,1.105-.182,1.953-.336,2.9a27.373,27.373,0,0,1-1.546,5.756c-.022.056-.134.324-.038.1-.052.122-.106.244-.161.365q-.136.3-.282.6-.317.643-.684,1.258-.329.55-.7,1.074a7.774,7.774,0,0,1-.725.911q-.417.475-.875.911-.23.218-.469.426c-.084.073-.594.482-.41.342a13.552,13.552,0,0,1-2.4,1.451,8.544,8.544,0,0,1-1.126.456c-.123.043-.709.168-.167.126h-.021c-.09.005-.183,0-.273-.006-1.318-.042-2.636-.062-3.954-.093l-18.192-.428-24.858-.585-23.124-.544-12.792-.3-.585-.014,1.4,1.4a85.649,85.649,0,0,0-.415-21.644,64.246,64.246,0,0,0-2.1-9.784l-.979,1.724,17.189-2.5,27.358-3.984,6.226-.907a1.411,1.411,0,0,0,.979-1.724,1.438,1.438,0,0,0-1.724-.979l-17.189,2.5-27.358,3.984-6.226.907a1.412,1.412,0,0,0-.979,1.724c2.765,9.149,3.3,19,2.611,28.495-.053.73-.11,1.461-.2,2.188a1.416,1.416,0,0,0,1.4,1.4l9.281.218,21.755.512,25.472.6,20.474.482,5.585.131c.375.009.755.035,1.13.027a2.933,2.933,0,0,0,.88-.178,16.441,16.441,0,0,0,2.928-1.307c7.48-4.311,9.132-13.794,9.162-21.705.032-8.821-1.7-17.651-3.9-26.162-.883-3.42-1.9-6.8-2.876-10.2-2.309-8-4.5-16.034-6.916-24-2.385-7.867-4.993-15.676-8.133-23.276-2.94-7.117-6.382-14.062-11.4-19.964-9.906-11.649-24.311-18.1-38.5-22.87-3.777-1.27-7.585-2.443-11.392-3.616-1.728-.532-2.467,2.173-.745,2.7Z" transform="translate(-2151.331 -1031.719)" fill="#21223f"/>
      </g>
      <g id="Group_768" data-name="Group 768" transform="translate(198.458 196.945)">
        <path id="Path_2555" data-name="Path 2555" d="M2305.673,1295.193c-2.127-3.876-4.047-7.865-5.8-11.926q-.165-.383-.327-.766c-.138-.327.088.209-.05-.118l-.19-.454q-.333-.8-.657-1.6-.672-1.663-1.3-3.342-1.247-3.309-2.34-6.674a123.366,123.366,0,0,1-3.581-13.459q-.334-1.642-.611-3.3-.134-.8-.252-1.6-.061-.408-.117-.817c-.008-.06-.016-.12-.025-.181,0,.028.046.347.014.1q-.029-.225-.058-.45c-.26-2.055-.439-4.121-.506-6.191a46.891,46.891,0,0,1,.142-5.729q.06-.664.144-1.326c.006-.05.013-.1.02-.149.022-.177-.046.327-.02.15.016-.111.031-.221.047-.332q.048-.329.1-.656c.141-.835.316-1.665.531-2.484q.153-.583.335-1.159a1.414,1.414,0,0,0-.979-1.724,1.433,1.433,0,0,0-1.725.979,35.98,35.98,0,0,0-1.43,10.93,73.372,73.372,0,0,0,1.341,12.909,117.808,117.808,0,0,0,3.394,13.558q2.111,6.8,4.869,13.38c1.772,4.244,3.707,8.42,5.87,12.48q.364.684.737,1.363a1.415,1.415,0,0,0,1.918.5,1.431,1.431,0,0,0,.5-1.917Z" transform="translate(-2287.041 -1230.969)" fill="#21223f"/>
      </g>
      <g id="Group_769" data-name="Group 769" transform="translate(109.004 257.547)">
        <path id="Path_2556" data-name="Path 2556" d="M1964.072,1503.736q-.866-.015-1.729-.087-.4-.034-.789-.079c-.138-.016-.275-.034-.413-.051.483.06-.092-.016-.2-.032a29.407,29.407,0,0,1-3.217-.691c-1.085-.295-2.154-.646-3.207-1.038q-.776-.288-1.541-.6c-.128-.052-.254-.11-.383-.159l.1.044-.191-.082q-.4-.173-.8-.351c-4.222-1.88-8.25-4.163-12.469-6.049a44.007,44.007,0,0,0-14.468-4.026,39.368,39.368,0,0,0-8,.137,23.883,23.883,0,0,0-6.542,1.674c-2.775,1.195-5.494,3.453-6.005,6.594a5.661,5.661,0,0,0,.229,3.108,7.573,7.573,0,0,0,2.209,3.081,10.9,10.9,0,0,0,1.342.9c-.371-.214-.038-.025.062.063s.18.166.266.254.167.177.246.269l.094.112c.172.2-.183-.256-.041-.053a8.759,8.759,0,0,1,.755,1.313c.044.094.1.283-.036-.091.017.047.039.094.057.141.047.119.092.239.135.36.1.271.182.545.26.822.6,2.136.761,4.364,1.275,6.52a22.311,22.311,0,0,0,1.6,4.449,20.38,20.38,0,0,0,6.124,7.431,22.023,22.023,0,0,0,10.033,4.05,38.511,38.511,0,0,0,14.768-.975c1.389-.339,2.763-.736,4.124-1.174h-.745a82.711,82.711,0,0,0,10.314,1.835q3.707.454,7.439.676c.456.027.912.053,1.368.069a1.413,1.413,0,0,0,1.4-1.4,1.43,1.43,0,0,0-1.4-1.4c-1.124-.041-2.248-.12-3.37-.206q-1.779-.137-3.553-.325-1.036-.11-2.07-.238l-.563-.072c-.1-.013-.632-.072-.2-.026-.388-.042-.776-.107-1.162-.164-1.536-.225-3.067-.486-4.588-.8q-1.172-.239-2.334-.521c-.179-.044-.357-.1-.537-.134a2.189,2.189,0,0,0-1.182.139q-.643.2-1.29.392c-1.548.451-3.114.841-4.7,1.15q-1.1.214-2.2.375l-.28.039s.316-.041.094-.013c-.184.023-.368.047-.552.068q-.542.063-1.085.111a34.273,34.273,0,0,1-3.922.128q-.912-.024-1.821-.1-.42-.037-.839-.087l-.225-.028c-.286-.035.359.051.075.01-.147-.021-.295-.042-.442-.065a23.872,23.872,0,0,1-3.248-.74q-.736-.224-1.455-.5l-.3-.12-.181-.074c-.241-.1.334.144.1.041s-.469-.206-.7-.316a19.314,19.314,0,0,1-2.473-1.4q-.274-.183-.542-.376-.144-.1-.287-.212l-.095-.072c-.186-.138.313.248.05.038-.351-.279-.694-.567-1.025-.869a18.524,18.524,0,0,1-1.808-1.9q-.107-.13-.212-.263l-.1-.132c-.125-.157.124.16.116.151-.144-.169-.27-.359-.4-.54q-.378-.532-.719-1.088a19.723,19.723,0,0,1-1.188-2.255c-.037-.083-.073-.166-.11-.249-.044-.1-.123-.319.056.135-.02-.05-.042-.1-.062-.15q-.123-.3-.237-.606-.217-.581-.4-1.175c-.686-2.237-.871-4.574-1.384-6.849a12.388,12.388,0,0,0-1.345-3.629,7.287,7.287,0,0,0-1.238-1.569,9.782,9.782,0,0,0-1.572-1.123c-.113-.071-.333-.3.013.023-.1-.09-.2-.172-.3-.264-.225-.214-.4-.492-.629-.7.259.23.089.115.015.011q-.05-.071-.1-.143-.148-.219-.278-.451c-.073-.13-.136-.263-.2-.4-.142-.28.1.3,0,.008-.038-.111-.079-.221-.112-.333a1.657,1.657,0,0,0-.1-.422l.026.2c-.007-.056-.012-.113-.015-.169s-.006-.142-.006-.214c0-.179.009-.357.026-.536,0-.044.01-.088.014-.133.02-.209-.058.379-.03.219.014-.08.025-.161.04-.241q.049-.262.121-.518.067-.236.154-.466c.016-.042.033-.083.049-.125.076-.2-.162.364-.072.168.038-.082.074-.165.115-.247a6.5,6.5,0,0,1,.551-.917c.028-.039.057-.077.085-.116.128-.179-.242.3-.1.131.052-.063.1-.127.155-.189q.194-.229.406-.442t.415-.39q.12-.105.243-.207l.126-.1c.178-.146-.287.214-.11.085a13.045,13.045,0,0,1,2.437-1.4c.324-.142-.307.124.03-.013q.187-.077.377-.149.392-.148.791-.278c.544-.177,1.095-.329,1.651-.461.606-.143,1.217-.261,1.831-.359q.232-.037.465-.07c.1-.014.32-.022-.072.009.087-.007.174-.023.261-.033q.537-.066,1.076-.113a40.011,40.011,0,0,1,4.581-.127c.8.021,1.6.058,2.4.125q.517.043,1.033.1l.279.033.093.012q.233.03-.1-.014a2.754,2.754,0,0,0,.552.08,36.086,36.086,0,0,1,4.182.9c1.313.364,2.607.8,3.882,1.279.629.238,1.243.528,1.877.751-.407-.143.046.02.149.064l.481.209q.479.21.956.427c2.408,1.1,4.759,2.309,7.123,3.5,4.641,2.332,9.439,4.64,14.612,5.474a28.522,28.522,0,0,0,4.04.377,1.4,1.4,0,0,0,0-2.8Z" transform="translate(-1904.109 -1490.392)" fill="#21223f"/>
      </g>
      <g id="Group_770" data-name="Group 770" transform="translate(49.081 205.558)">
        <path id="Path_2557" data-name="Path 2557" d="M1749.417,1327.8l-1.509-5.861-3.623-14.076-4.383-17.029-3.788-14.719c-.612-2.379-1.16-4.787-1.84-7.148-.01-.033-.017-.066-.026-.1a1.418,1.418,0,0,0-1.724-.979l-5.336,1.64-12.862,3.953-15.513,4.768-13.409,4.121-4.42,1.358c-.7.214-1.418.39-2.1.645-.03.011-.062.019-.092.028h.745l-7-.966c-.336-.047-.2-.12.1.108a.782.782,0,0,0-.084-.045c-.167-.1-.342-.183-.512-.275l-2.254-1.209-15.687-8.412-4.42-2.37a1.419,1.419,0,0,0-2.059,1.583l.322,1.565.889,4.317,1.346,6.538,1.672,8.124,1.888,9.168,1.986,9.646,1.977,9.6,1.83,8.891,1.577,7.662,1.207,5.864.722,3.509c.046.224.078.457.139.677a1.6,1.6,0,0,0,1.025,1.065l5.51,2.629,8.65,4.127,7.331,3.5c.576.275,1.151.553,1.728.824a4.69,4.69,0,0,0,2.13.266h4.6a6.412,6.412,0,0,0,1.837-.109l5.6-1.679,9.243-2.771,7.195-2.156,1.1-.331a1.4,1.4,0,0,0-.745-2.7l-11.813,3.541-8.04,2.41-2.572.771-.7.209c-.362.109-.129-.019.125.016a10.109,10.109,0,0,0-1.316,0h-5.783l.707.191-8.051-3.841-12.77-6.093-2.925-1.4.644.838-.415-2.017-1.13-5.49-1.68-8.162-2.042-9.917-2.236-10.862-2.257-10.966-2.114-10.27-1.778-8.639-1.279-6.214c-.2-.98-.367-1.976-.607-2.948-.01-.042-.018-.085-.026-.128l-2.059,1.583,6.055,3.247,11.117,5.962,4.219,2.262,1.189.637a3.361,3.361,0,0,0,.723.345c.559.135,1.167.161,1.736.24l3.164.437,2.189.3a2.458,2.458,0,0,0,.986-.014c1.543-.413,3.065-.942,4.592-1.412l9.556-2.937,12.138-3.731,12.187-3.746,9.875-3.035,5.047-1.551.229-.071-1.724-.979,1.508,5.862,3.623,14.076,4.383,17.029,3.788,14.719c.612,2.379,1.16,4.787,1.84,7.148.01.033.017.066.026.1a1.4,1.4,0,0,0,2.7-.745Z" transform="translate(-1647.589 -1267.839)" fill="#21223f"/>
      </g>
      <g id="Group_771" data-name="Group 771" transform="translate(72.032 221.071)">
        <path id="Path_2558" data-name="Path 2558" d="M1745.88,1336.027l.435,1.984,1.183,5.4,1.75,7.985,2.135,9.742,2.338,10.67,2.36,10.77,2.2,10.04,1.859,8.482,1.332,6.08c.211.963.405,1.932.634,2.891.01.041.018.083.027.124a1.412,1.412,0,0,0,1.724.979,1.434,1.434,0,0,0,.979-1.724l-.435-1.984-1.183-5.4-1.75-7.984-2.135-9.742-2.339-10.67-2.36-10.77-2.2-10.04-1.859-8.482-1.332-6.079c-.211-.963-.4-1.932-.634-2.891-.01-.041-.018-.082-.027-.123a1.412,1.412,0,0,0-1.724-.979,1.434,1.434,0,0,0-.979,1.724Z" transform="translate(-1745.841 -1334.248)" fill="#21223f"/>
      </g>
      <g id="Group_772" data-name="Group 772" transform="translate(79.267 222.07)">
        <path id="Path_2559" data-name="Path 2559" d="M1776.85,1340.3l.434,1.967,1.181,5.353,1.747,7.919,2.132,9.663,2.335,10.585,2.366,10.721,2.2,9.963,1.858,8.419,1.336,6.053c.211.955.4,1.916.632,2.867.01.041.018.082.027.123a1.412,1.412,0,0,0,1.724.979,1.434,1.434,0,0,0,.979-1.724l-.434-1.967-1.181-5.354-1.747-7.919-2.132-9.663-2.335-10.585-2.366-10.722-2.2-9.963-1.858-8.419-1.335-6.053c-.211-.955-.4-1.916-.633-2.867-.01-.041-.018-.082-.027-.123a1.412,1.412,0,0,0-1.724-.979,1.434,1.434,0,0,0-.979,1.724Z" transform="translate(-1776.811 -1338.523)" fill="#21223f"/>
      </g>
      <g id="Group_773" data-name="Group 773" transform="translate(50.532 200.254)">
        <path id="Path_2560" data-name="Path 2560" d="M1656.189,1256.823l4.965-4.668.719-.677-1.7.219,4.472,2.448,9.141,5,7.4,4.049c.62.339,1.4.917,2.132.716.266-.073.527-.181.788-.271l5.224-1.8,8.583-2.952,10.137-3.486,9.885-3.4,7.826-2.692,3.963-1.363.175-.06-1.364-.361,5.311,5.2.752.736a1.4,1.4,0,0,0,1.982-1.982l-5.311-5.2-.752-.736a1.393,1.393,0,0,0-1.364-.361l-4.652,1.6-11.092,3.815-13.489,4.639-11.6,3.989-3.848,1.323c-.606.208-1.228.393-1.824.627-.026.01-.052.018-.079.027l1.08.141-7.5-4.1-11.85-6.488-2.714-1.486a1.443,1.443,0,0,0-1.7.219l-4.965,4.667-.72.677a1.414,1.414,0,0,0,0,1.982,1.431,1.431,0,0,0,1.982,0Z" transform="translate(-1653.801 -1245.133)" fill="#21223f"/>
      </g>
      <g id="Group_774" data-name="Group 774" transform="translate(17.856 254.273)">
        <path id="Path_2561" data-name="Path 2561" d="M1555.378,1476.429l-1.076.3-2.945.824-4.337,1.213-5.318,1.487-5.8,1.621-5.881,1.645-5.458,1.526-4.634,1.3-3.317.928c-.525.147-1.053.285-1.575.441l-.069.019a1.413,1.413,0,0,0-.838,2.059,32.963,32.963,0,0,1,2.049,3.544q.463.9.888,1.814.24.517.469,1.041c.041.093.081.187.122.281.022.052.149.352.051.118s.029.07.051.123l.136.332a46.39,46.39,0,0,1,1.735,5.085q.449,1.622.766,3.277.159.833.281,1.673c.01.067.019.133.028.2.039.27-.025-.2,0-.021.019.151.038.3.056.454q.054.458.1.917a1.432,1.432,0,0,0,1.4,1.4,1.417,1.417,0,0,0,1.4-1.4,43.092,43.092,0,0,0-2.8-11.685,49.482,49.482,0,0,0-3.553-7.369c-.241-.4-.485-.809-.751-1.2l-.838,2.059,1.075-.3,2.945-.824,4.337-1.213,5.318-1.487,5.8-1.621,5.881-1.645,5.458-1.526,4.634-1.3,3.317-.927c.525-.147,1.053-.286,1.576-.441l.07-.019a1.4,1.4,0,0,0-.745-2.7Z" transform="translate(-1513.926 -1476.378)" fill="#21223f"/>
      </g>
      <g id="Group_775" data-name="Group 775" transform="translate(108.759 292.335)">
        <path id="Path_2562" data-name="Path 2562" d="M1908.061,1648.716l-2.037-7.575-.214-.794a1.4,1.4,0,1,0-2.7.745l1.742,6.475.509,1.894a1.4,1.4,0,1,0,2.7-.745Z" transform="translate(-1903.058 -1639.311)" fill="#21223f"/>
      </g>
      <g id="Group_776" data-name="Group 776" transform="translate(108.542 196.22)">
        <path id="Path_2563" data-name="Path 2563" d="M1904.939,1238.359c.021-.2.044-.393.068-.589.038-.3-.039-.034,0,0a2.2,2.2,0,0,1,.047-.32q.084-.56.191-1.116.218-1.139.527-2.258.3-1.092.688-2.158.2-.558.427-1.107c.015-.038.135-.321.054-.131s.041-.093.057-.13q.13-.3.266-.59a1.515,1.515,0,0,0,.141-1.08,1.4,1.4,0,0,0-2.562-.335,31.285,31.285,0,0,0-2.708,9.817,1.406,1.406,0,0,0,1.4,1.4,1.442,1.442,0,0,0,1.4-1.4Z" transform="translate(-1902.131 -1227.867)"/>
      </g>
      <g id="Group_777" data-name="Group 777" transform="translate(70.624 293.217)">
        <path id="Path_2564" data-name="Path 2564" d="M1741.214,1648.992a35.385,35.385,0,0,0,10.253-2,25.887,25.887,0,0,0,2.957-1.309,1.413,1.413,0,0,0,.5-1.918,1.433,1.433,0,0,0-1.917-.5q-.556.292-1.128.552l-.276.123a.632.632,0,0,0-.139.06s.25-.1.1-.043c-.2.083-.405.166-.61.244-.787.3-1.591.567-2.4.795s-1.659.427-2.5.592q-.61.119-1.224.218c-.195.031-.389.061-.584.089-.1.014-.194.025-.291.04,0,0,.292-.037.131-.018l-.193.024q-1.336.167-2.681.245a1.4,1.4,0,1,0,0,2.8Z" transform="translate(-1739.811 -1643.087)" fill="#21223f"/>
      </g>
      <g id="Group_778" data-name="Group 778" transform="translate(4.828 267.057)">
        <path id="Path_2565" data-name="Path 2565" d="M1459.555,1535.56l13.042-1.647a1.538,1.538,0,0,0,.991-.411,1.424,1.424,0,0,0,.411-.991c-.031-.681-.623-1.5-1.4-1.4l-13.042,1.647a1.536,1.536,0,0,0-.991.41,1.424,1.424,0,0,0-.41.991c.03.681.622,1.5,1.4,1.4Z" transform="translate(-1458.152 -1531.101)" fill="#21223f"/>
      </g>
      <g id="Group_779" data-name="Group 779" transform="translate(114.777 155.149)">
        <path id="Path_2566" data-name="Path 2566" d="M1934.969,1062.588a12.946,12.946,0,0,0-5.674,7.153,11.135,11.135,0,0,0,7.062,13.81,16.923,16.923,0,0,0,10.955-.2,22.683,22.683,0,0,0,10.983-8.69q.494-.7.944-1.427l-2.612-.708c.344,6.322,4.875,11.473,10.405,14.133a23.677,23.677,0,0,0,8.527,2.251,30.486,30.486,0,0,0,7.736-.467,39.033,39.033,0,0,0,14.823-6.183,37.6,37.6,0,0,0,11.3-11.733,26.517,26.517,0,0,0,3.866-15.226c-.052-.743-.144-1.483-.254-2.219a1.405,1.405,0,0,0-1.724-.979,1.445,1.445,0,0,0-.979,1.724,2.468,2.468,0,0,1,.042.293c0-.034-.041-.335-.012-.08.019.162.039.324.056.486q.05.484.08.969.058.959.036,1.92-.021.9-.113,1.8-.024.235-.052.47c0,.033-.059.338-.011.095s-.01.062-.014.094q-.069.466-.156.929a24.826,24.826,0,0,1-.944,3.542q-.154.445-.324.885-.077.2-.157.395c-.029.073-.06.146-.089.218-.126.307.128-.291-.006.013-.255.578-.521,1.151-.811,1.713a30.25,30.25,0,0,1-1.911,3.2q-.258.378-.527.749-.128.176-.257.35l-.175.232c-.052.069-.222.324-.017.024a16.446,16.446,0,0,1-1.205,1.464,36.489,36.489,0,0,1-2.7,2.779q-.706.655-1.443,1.273-.36.3-.727.6c-.128.1-.254.213-.389.307.285-.2-.089.067-.188.142a40.144,40.144,0,0,1-6.662,4.074c-.587.284-1.181.579-1.79.813.29-.111.012-.006-.117.047q-.227.092-.454.182-.454.179-.912.346a36.321,36.321,0,0,1-3.691,1.133q-.878.218-1.767.39-.464.089-.931.165l-.418.065-.232.034c-.33.049.331-.041,0,0a30.319,30.319,0,0,1-3.647.248q-.888,0-1.775-.051-.429-.027-.856-.068-.2-.019-.4-.042l-.268-.031c-.109-.014-.365-.1.017,0-.617-.166-1.286-.2-1.913-.35a20.83,20.83,0,0,1-2.048-.588q-.493-.169-.978-.362c-.085-.034-.169-.07-.255-.1.28.11.091.039.031.013-.2-.089-.4-.177-.6-.27a21.036,21.036,0,0,1-1.889-1.005c-.609-.365-1.192-.767-1.764-1.187-.285-.21.155.126-.017-.012l-.212-.169q-.21-.17-.415-.346-.409-.35-.8-.723a17.088,17.088,0,0,1-1.405-1.528c-.056-.069-.11-.138-.165-.207.192.237.066.086.026.032-.1-.142-.208-.282-.309-.426q-.3-.429-.572-.88t-.5-.914q-.106-.21-.2-.423c-.037-.079-.071-.158-.107-.238-.122-.266.1.247-.021-.049a13.713,13.713,0,0,1-.611-1.944q-.053-.231-.1-.464c-.011-.06-.033-.487-.088-.523.078.051.032.267,0,0-.01-.089-.02-.177-.028-.266-.017-.179-.029-.358-.039-.537a1.413,1.413,0,0,0-2.612-.707c-.291.468-.593.928-.91,1.378q-.222.315-.452.623l-.107.142c-.013.017-.133.174-.035.046s-.023.029-.036.045l-.184.232a24.529,24.529,0,0,1-2.2,2.4q-.576.549-1.19,1.055c-.106.087-.213.173-.32.259-.209.168.127-.092-.088.068-.234.175-.471.348-.712.514a18.363,18.363,0,0,1-2.73,1.562c-.123.057-.248.11-.372.166.249-.112-.058.022-.15.059q-.38.15-.767.281c-.491.166-.99.306-1.493.426q-.708.169-1.427.289l-.3.047a1.647,1.647,0,0,1-.2.028s.291-.034.129-.018c-.224.022-.448.052-.672.071a15.621,15.621,0,0,1-2.482.024q-.276-.02-.55-.051c-.112-.013-.417-.09,0,0-.093-.021-.19-.028-.284-.044q-.552-.09-1.095-.229-.5-.129-.99-.3c-.152-.054-.3-.113-.453-.172-.3-.119.241.111.029.012-.088-.041-.177-.08-.265-.121a10.218,10.218,0,0,1-1.636-.971c-.042-.031-.286-.216-.077-.055s-.031-.027-.072-.06q-.183-.15-.359-.309-.335-.3-.64-.635-.145-.158-.283-.323c-.049-.059-.1-.119-.146-.178-.184-.225.193.265.019.024s-.339-.479-.491-.729-.3-.524-.434-.8c-.061-.126-.116-.254-.175-.381-.038-.082.135.339.042.1-.031-.08-.063-.16-.093-.24a9.717,9.717,0,0,1-.46-1.707c-.011-.063-.021-.127-.032-.191-.007-.042-.01-.086-.019-.128s.041.363.029.213-.034-.3-.045-.45q-.034-.436-.029-.875,0-.457.052-.913c.007-.065.015-.13.022-.2.023-.221-.058.371-.01.079.026-.152.05-.3.08-.456a10.846,10.846,0,0,1,.524-1.767c.016-.042.039-.084.051-.126.007-.026-.137.311-.075.177.029-.062.055-.126.084-.188q.107-.236.226-.466.218-.421.472-.821.124-.2.257-.386.072-.1.146-.205l.064-.087c.108-.152-.062.085-.087.111.239-.244.437-.535.672-.786s.479-.49.734-.719q.189-.169.384-.331c.071-.059.144-.115.215-.174.116-.1-.138.1-.126.1.056-.036.107-.081.16-.121.3-.22.6-.426.918-.622a1.4,1.4,0,0,0-1.415-2.42Z" transform="translate(-1928.823 -1052.048)" fill="#2c2c2c"/>
      </g>
    </g>
    <g id="Group_785" data-name="Group 785" transform="translate(358.238 575.344)">
      <path id="Path_2567" data-name="Path 2567" d="M1431.176,1614.419h67.505a5.237,5.237,0,0,1,5.237,5.237v5.354a5.237,5.237,0,0,1-5.237,5.237h-67.505Z" transform="translate(-1270.662 -1515.351)" fill="#d3d5e2"/>
      <g id="Group_781" data-name="Group 781" transform="translate(159.111 97.665)">
        <path id="Path_2568" data-name="Path 2568" d="M1426.574,1611.218h67.488c.175,0,.347.015.522.024.331.018-.235-.047-.028-.005.081.016.162.028.242.045q.191.041.379.1c.087.025.4.084.457.157-.008-.01-.309-.146-.07-.028.086.042.172.082.257.127q.19.1.37.216c.067.043.13.089.2.132.093.06.176.052-.056-.049a2.574,2.574,0,0,1,.686.65c.042.047.082.1.122.144.173.2-.035-.056-.045-.059.073.022.2.3.238.355q.113.183.21.374c.029.057.055.115.083.172.136.271-.081-.247.007.02a6.742,6.742,0,0,1,.237.843c.005.026.053.348.022.106s.005.086.007.111c.01.135.014.27.015.406s0,.291,0,.437v4.578c0,.18,0,.361,0,.541a1.043,1.043,0,0,1-.03.4c.118-.189.032-.209,0-.03-.015.081-.031.161-.05.241q-.044.19-.1.376c-.024.077-.053.152-.078.229-.1.3.053-.077,0,.021-.143.249-.255.509-.415.75-.035.052-.076.1-.108.156-.1.172.223-.256.017-.021-.1.119-.205.239-.316.352s-.2.2-.311.291a.89.89,0,0,1-.182.151c.023-.01.267-.187.056-.049a8.228,8.228,0,0,1-.824.476c-.159.08,0,.057.07-.028a.787.787,0,0,1-.18.068q-.229.081-.465.14c-.127.032-.256.054-.384.081-.321.069.24-.016.029,0-.083.005-.166.016-.25.021-.11.006-.22.008-.33.009h-67.479l1.4,1.4v-15.828a1.4,1.4,0,0,0-2.8,0v15.828a1.422,1.422,0,0,0,1.4,1.4h67.341a6.724,6.724,0,0,0,3.887-1.146,6.861,6.861,0,0,0,2.6-3.464,7.688,7.688,0,0,0,.317-2.445v-4.617a7.134,7.134,0,0,0-.416-2.62,6.635,6.635,0,0,0-6.411-4.339h-67.316a1.4,1.4,0,0,0,0,2.8Z" transform="translate(-1425.171 -1608.414)" fill="#21223f"/>
      </g>
      <path id="Path_2569" data-name="Path 2569" d="M891.979,1614.419h125.958v15.828H898.282a6.3,6.3,0,0,1-6.3-6.3Z" transform="translate(-857.423 -1515.351)" fill="#fff"/>
      <g id="Group_782" data-name="Group 782" transform="translate(33.137 97.654)">
        <path id="Path_2570" data-name="Path 2570" d="M887.322,1611.182h120.851c1.627,0,3.267.059,4.893,0,.071,0,.143,0,.214,0l-1.4-1.4v15.828l1.4-1.4H898.954c-1.737,0-3.474.007-5.211,0a4.951,4.951,0,0,1-5.013-4.637c-.1-2.432-.006-4.886-.006-7.319v-2.469a1.4,1.4,0,0,0-2.8,0v7.329a28.588,28.588,0,0,0,.038,2.894,7.805,7.805,0,0,0,3.73,5.926c2.148,1.283,4.554,1.08,6.933,1.08h110.549c1.952,0,3.906.024,5.858,0h.251a1.422,1.422,0,0,0,1.4-1.4V1609.78a1.422,1.422,0,0,0-1.4-1.4H892.429c-1.63,0-3.263-.027-4.893,0-.071,0-.143,0-.214,0A1.4,1.4,0,0,0,887.322,1611.182Z" transform="translate(-885.903 -1608.367)" fill="#21223f"/>
      </g>
      <path id="Path_2571" data-name="Path 2571" d="M1209.367,1196.43h22.618a6.456,6.456,0,0,1,6.03,4.149l35.762,93.494h-20.412" transform="translate(-1100.668 -1195.005)" fill="#d3d5e2"/>
      <path id="Path_2572" data-name="Path 2572" d="M909.086,1294.073H783.8l-33.334-87.148a7.732,7.732,0,0,1,7.222-10.495H865.3a9.354,9.354,0,0,1,8.736,6.012Z" transform="translate(-748.572 -1195.005)" fill="#fff"/>
      <g id="Group_783" data-name="Group 783">
        <path id="Path_2573" data-name="Path 2573" d="M904.565,1288H784.382c-1.621,0-3.275-.1-4.894,0-.068,0-.138,0-.206,0l1.352,1.029-2.371-6.2-5.9-15.438-7.8-20.385-7.9-20.648-6.307-16.488c-1-2.613-2.008-5.222-3-7.839a6.462,6.462,0,0,1,2.967-8.208,7.853,7.853,0,0,1,3.786-.666H857.841c.9,0,1.794,0,2.691,0a8.12,8.12,0,0,1,7.411,4.489c.976,1.965,1.621,4.152,2.4,6.2l5.657,14.79,7.65,20,8.017,20.958,6.852,17.912,4.131,10.8.56,1.465a1.442,1.442,0,0,0,1.724.979,1.412,1.412,0,0,0,.979-1.724l-2.3-6.012-5.829-15.24-7.727-20.2-8.051-21.047-6.806-17.794-3.929-10.273a14.793,14.793,0,0,0-1.851-3.735,11,11,0,0,0-8.91-4.37c-2.7,0-5.394,0-8.091,0H757.3c-3.163,0-6.5-.339-9.256,1.57a9.229,9.229,0,0,0-3.414,10.795c.3.8.607,1.588.911,2.382l4.835,12.64,7.369,19.266,8.106,21.191,7.111,18.59,4.371,11.428.6,1.556a1.455,1.455,0,0,0,1.352,1.029H899.465c1.629,0,3.265.04,4.894,0,.069,0,.138,0,.207,0A1.4,1.4,0,0,0,904.565,1288Z" transform="translate(-744.051 -1190.33)" fill="#21223f"/>
      </g>
      <g id="Group_784" data-name="Group 784" transform="translate(107.297 0.022)">
        <path id="Path_2574" data-name="Path 2574" d="M1204.769,1193.229h22.688c.117,0,.233.005.35.013q.139.009.277.024-.216-.032.037.008a7.887,7.887,0,0,1,.8.191c.13.04.257.087.385.132.4.143-.127-.065.1.043a6.9,6.9,0,0,1,.653.351c.115.071.225.148.338.222q.2.146.039.023.105.084.207.173a6.447,6.447,0,0,1,.485.47c.092.1.181.2.268.306-.17-.207.1.143.108.152a6.508,6.508,0,0,1,.422.709c0,.005.2.417.091.172.037.087.035.087.052.131l.03.079c.068.177.136.355.2.533l.953,2.491,3.7,9.671,5.435,14.209,6.375,16.666,6.551,17.128,5.86,15.319,4.405,11.518,2.156,5.636.094.246,1.352-1.774h-20.412a1.4,1.4,0,1,0,0,2.8h20.412a1.412,1.412,0,0,0,1.351-1.774l-1.518-3.968-3.979-10.4-5.631-14.722-6.474-16.926-6.508-17.015-5.733-14.989-4.149-10.848c-.586-1.532-1.16-3.068-1.757-4.595a8.017,8.017,0,0,0-7.55-5.208c-1.788,0-3.576,0-5.364,0h-17.1a1.4,1.4,0,1,0,0,2.8Z" transform="translate(-1203.367 -1190.424)" fill="#21223f"/>
      </g>
      <ellipse id="Ellipse_86" data-name="Ellipse 86" cx="7.671" cy="10.554" rx="7.671" ry="10.554" transform="translate(62.535 43.677) rotate(-23.757)" fill="#ddd"/>
    </g>
    <g id="Group_786" data-name="Group 786" transform="translate(240.64 688.784)">
      <path id="Path_2575" data-name="Path 2575" d="M241.994,1678.8h561.9c7.589,0,15.19.123,22.778,0,.332-.005.664,0,1,0a1.4,1.4,0,0,0,0-2.8h-561.9c-7.589,0-15.19-.122-22.778,0-.332.005-.664,0-1,0a1.4,1.4,0,0,0,0,2.8Z" transform="translate(-240.64 -1675.94)" fill="#21223f"/>
    </g>
    <g id="Group_792" data-name="Group 792" transform="translate(739.441 556.785)">
      <g id="Group_788" data-name="Group 788" transform="translate(24.597)">
        <path id="Path_2576" data-name="Path 2576" d="M2509.181,1116.47l2.331,3.073a2.743,2.743,0,0,1-.577,3.88l-15.867,11.475-.287,26.5h-9.042V1134.46a6.832,6.832,0,0,1,2.651-5.4l16.928-13.1A2.743,2.743,0,0,1,2509.181,1116.47Z" transform="translate(-2484.677 -1114.334)" fill="#fffa7b"/>
        <path id="Path_2577" data-name="Path 2577" d="M2485.739,1252.585h9.194l-.071,6.479h-9.123Z" transform="translate(-2484.677 -1219.483)" fill="#fff"/>
        <path id="Path_2578" data-name="Path 2578" d="M2485.739,1200.006h9.326l-.07,6.479h-9.256Z" transform="translate(-2484.677 -1179.187)" fill="#fff"/>
        <path id="Path_2579" data-name="Path 2579" d="M2527.225,1149.02l-5.273,3.813-5.844-6.67,5.134-3.972Z" transform="translate(-2507.952 -1134.877)" fill="#fff"/>
        <g id="Group_787" data-name="Group 787">
          <path id="Path_2580" data-name="Path 2580" d="M2504.788,1113.551l1.69,2.228c.213.28.429.559.638.842a2.959,2.959,0,0,1,.261.414c.024.047.046.1.068.143-.016-.035-.071-.208-.021-.032.032.113.064.223.091.337.06.256.007-.16.012.1,0,.089.007.178,0,.268a.671.671,0,0,1-.01.152c.036-.038.04-.2.007-.053a3.8,3.8,0,0,1-.093.37.583.583,0,0,1-.051.144s.095-.18.03-.075c-.053.087-.093.184-.147.271-.027.043-.062.085-.085.13-.064.127.12-.131.022-.026-.082.088-.158.178-.247.259s-.181.143-.044.045l-.029.021c-.116.078-.227.164-.34.246l-1.62,1.171-5.491,3.971-5.732,4.146c-.883.639-1.773,1.268-2.65,1.916-.573.424-.521.919-.527,1.517l-.02,1.812-.066,6.08-.081,7.5-.073,6.689-.039,3.637,0,.17,1.051-1.051h-9.042l1.051,1.051v-26.8c0-.167,0-.333.01-.5.006-.12.018-.239.028-.358.018-.2,0-.027,0,.013.009-.059.018-.118.028-.176a6.846,6.846,0,0,1,.169-.735c.066-.227.146-.448.231-.668.057-.147-.073.148,0,.008.027-.052.049-.107.075-.16q.086-.179.183-.353a6.7,6.7,0,0,1,.375-.6c.032-.046.241-.31.1-.142.095-.114.189-.228.29-.338a7.022,7.022,0,0,1,.86-.791l.212-.164,3.6-2.785,5.871-4.543,5.3-4.1,1.555-1.2.342-.265c.117-.09-.067.066-.1.08a2.932,2.932,0,0,0,.275-.176c.078-.044.329-.132.111-.063.1-.032.2-.069.3-.095.05-.013.1-.022.152-.034.246-.059-.224.005.028,0,.09,0,.18-.009.27-.007.052,0,.1,0,.154.007s.2.044.052,0a1.992,1.992,0,0,1,.2.052c.049.014.1.03.147.046s.192.072.055.016.018.011.051.028.093.048.137.075.09.054.133.083.167.119.054.033.021.021.048.044.079.073.117.111a3.2,3.2,0,0,1,.242.278,1.053,1.053,0,0,0,1.487,0,1.084,1.084,0,0,0,0-1.487,3.784,3.784,0,0,0-2.837-1.391,3.885,3.885,0,0,0-2.52.885l-.82.635-4.605,3.564-6.064,4.692-4.606,3.564c-.273.211-.547.421-.819.634a7.767,7.767,0,0,0-2.857,4.886,23.6,23.6,0,0,0-.109,3.482v24.722a1.066,1.066,0,0,0,1.051,1.051h9.042a1.068,1.068,0,0,0,1.051-1.051l.029-2.637.068-6.333.083-7.66.071-6.618c.011-1.064.075-2.141.035-3.2,0-.015,0-.031,0-.046l-.521.908,2.632-1.9,5.68-4.108,5.5-3.975,1.636-1.184a5.212,5.212,0,0,0,1.547-1.5,3.832,3.832,0,0,0,.383-2.991,4.37,4.37,0,0,0-.773-1.426l-1.951-2.572-.16-.211a1.08,1.08,0,0,0-1.438-.377A1.063,1.063,0,0,0,2504.788,1113.551Z" transform="translate(-2481.192 -1110.884)" fill="#21223f"/>
        </g>
      </g>
      <path id="Path_2581" data-name="Path 2581" d="M2421.293,1354.586h25.588l-7.019,73.243a3.346,3.346,0,0,1-3.049,3.283h-31.039a3.347,3.347,0,0,1-3.05-3.283l-7.019-73.243Z" transform="translate(-2391.078 -1297.657)" fill="#bffd6a"/>
      <path id="Path_2582" data-name="Path 2582" d="M2453.9,1441.889l2.737-28.558c-17.58,2.987-28.459,20.486-46.485,21.493l2.073,21.638C2433.586,1457.125,2444.171,1446.461,2453.9,1441.889Z" transform="translate(-2402.15 -1342.679)" fill="#469612"/>
      <g id="Group_789" data-name="Group 789" transform="translate(3.222 55.528)">
        <path id="Path_2583" data-name="Path 2583" d="M2416.68,1351.389h25.587l-1.4-1.4-.285,2.97-.754,7.866-1.073,11.194-1.234,12.878-1.26,13.15-1.129,11.784-.848,8.85-.416,4.344q-.01.1-.02.2c.032-.344-.021.105-.042.2a4.271,4.271,0,0,1-.2.634c.126-.314-.089.144-.145.236-.044.074-.1.143-.143.216s-.038.057.064-.081c-.042.052-.087.1-.133.152-.068.073-.144.137-.212.209s-.1.17.057-.033c-.1.136-.325.171-.451.274s.312-.091.028-.013c-.09.025-.184.05-.274.078-.275.086.1-.023.091,0s-.259.016-.29.016c-1.042.018-2.087,0-3.13,0h-27.143c-.329,0-.68-.034-1.007-.012-.185.012.33.09.043,0-.089-.029-.183-.053-.274-.078-.269-.077.08.03.071.034-.03.014-.224-.117-.253-.135a.89.89,0,0,1-.241-.161c.012.018.24.219.057.033-.07-.071-.145-.136-.212-.209-.046-.049-.09-.1-.133-.152l.094.123a1.957,1.957,0,0,1-.325-.534c-.034-.058-.1-.245.008.041-.04-.1-.078-.2-.111-.309-.057-.181-.094-.363-.133-.548-.054-.259,0-.025,0,.026-.007-.079-.015-.157-.023-.236l-.15-1.566-.66-6.885-1.013-10.571-1.216-12.69-1.262-13.167-1.172-12.234-.925-9.659-.529-5.516-.069-.716-1.4,1.4h25.587a1.4,1.4,0,1,0,0-2.8h-25.587a1.411,1.411,0,0,0-1.4,1.4l.288,3,.761,7.946,1.083,11.294,1.25,13.047,1.265,13.205,1.128,11.769.837,8.739c.132,1.371.26,2.742.395,4.113a6.794,6.794,0,0,0,.242,1.393,4.642,4.642,0,0,0,4.124,3.417c1.052.043,2.113,0,3.165,0h25.149a21.465,21.465,0,0,0,3.579-.079,4.746,4.746,0,0,0,3.576-3.775,9.662,9.662,0,0,0,.133-.984l.137-1.437.644-6.716,1-10.479,1.218-12.711,1.276-13.323,1.182-12.34.936-9.762.536-5.589.07-.732a1.414,1.414,0,0,0-1.4-1.4H2416.68a1.4,1.4,0,1,0,0,2.8Z" transform="translate(-2389.686 -1348.586)" fill="#2c2c2c"/>
      </g>
      <rect id="Rectangle_116" data-name="Rectangle 116" width="57.62" height="7.225" rx="3.612" transform="translate(1.405 49.705)" fill="#fff"/>
      <path id="Path_2584" data-name="Path 2584" d="M2394.741,1286a2.806,2.806,0,0,1,2.647-1.873h42.35a2.807,2.807,0,0,1,2.647,1.873l2.6,7.362h-52.84Z" transform="translate(-2388.347 -1243.656)" fill="#fff"/>
      <g id="Group_790" data-name="Group 790" transform="translate(0 48.302)">
        <path id="Path_2585" data-name="Path 2585" d="M2379.175,1320.458h53.913c.242.007-.005.012-.094-.024a1.092,1.092,0,0,0,.3.078c-.156.02-.268-.134-.123-.051.044.025.09.047.134.073a.9.9,0,0,0,.127.084c-.224-.076-.2-.177-.108-.076a1.159,1.159,0,0,0,.132.136c.121.09-.17-.272-.057-.073a2.617,2.617,0,0,0,.147.267c-.162-.216-.092-.245-.06-.118.012.049.025.1.039.151.064.213-.021-.105-.014-.137a.964.964,0,0,0,.007.162v.031c0,.164,0,.327,0,.491,0,.984.017,1.97,0,2.954,0,0,0,.1,0,.122,0,.181.065-.309.02-.136-.013.05-.024.1-.036.152-.017.069-.1.2.007.015.128-.229-.06.1-.084.139s-.132.2,0,.013,0-.012-.04.029a.739.739,0,0,0-.111.1c.1-.189.236-.155.07-.062-.043.024-.368.213-.14.084.186-.1.054-.024-.015-.007-.051.012-.1.023-.152.036-.173.045.316-.017.136-.02-.043,0-.086,0-.129,0-.118,0-.237,0-.355,0h-53.506c-.04,0-.084,0-.125,0-.173,0,.334.073.1.012-.048-.012-.1-.03-.151-.039-.207-.041.087.034.118.06a1.872,1.872,0,0,0-.268-.147c-.189-.105.089.054.1.083-.017-.038-.1-.1-.137-.13s-.142-.182-.014,0c.141.2.007,0-.021-.045s-.048-.09-.074-.134c-.112-.193.058.1.052.122a1.129,1.129,0,0,0-.078-.3c.105.2.023.286.025.134,0-.009,0-.055,0-.083s0-.029,0-.043c0-.173,0-.347,0-.521v-1.825c0-.362-.006-.724,0-1.085,0-.026,0-.057,0-.083,0-.227-.013.106-.025.134a1.091,1.091,0,0,0,.078-.3c.02.156-.135.267-.052.122.025-.044.047-.09.074-.134a.9.9,0,0,0,.084-.127c-.076.225-.177.2-.076.108.035-.032.075-.071.107-.107.177-.193-.228.135-.076.054.087-.047.179-.1.264-.152.146-.087-.289.083-.12.056.05-.008.1-.03.149-.042s.24-.048.008-.009c-.255.043,0,.009.054.008a1.4,1.4,0,0,0,0-2.8,3.335,3.335,0,0,0-3.107,2.245,5,5,0,0,0-.169,1.686v1.868a10.337,10.337,0,0,0,.041,1.381,3.271,3.271,0,0,0,2.466,2.756,4.9,4.9,0,0,0,1.049.092h53.257c.139,0,.279,0,.418,0a3.336,3.336,0,0,0,3.051-2.317,5.388,5.388,0,0,0,.143-1.66v-1.873a8.359,8.359,0,0,0-.077-1.594,3.262,3.262,0,0,0-2.506-2.506,8.183,8.183,0,0,0-1.511-.077h-53.053a1.4,1.4,0,0,0,0,2.8Z" transform="translate(-2375.895 -1317.653)" fill="#2c2c2c"/>
      </g>
      <g id="Group_791" data-name="Group 791" transform="translate(2.377 39.066)">
        <path id="Path_2586" data-name="Path 2586" d="M2391.438,1281.766c.082-.22-.036.088-.049.105a1.467,1.467,0,0,0,.072-.146c.051-.1.108-.186.167-.277.129-.2-.2.226,0,0,.08-.09.168-.168.254-.251.16-.155-.07.063-.1.071a.773.773,0,0,0,.13-.09c.089-.058.182-.106.276-.157.208-.112-.317.111,0,0,.115-.04.231-.064.348-.1s.166.035-.132.011a1.281,1.281,0,0,0,.163-.014c.057,0,.114,0,.171-.005h42.267c.053,0,.107,0,.16,0s.109.007.164.01c.161.007.038.08-.13-.018a1.638,1.638,0,0,0,.313.074c.055.016.367.129.132.039-.208-.08-.04-.014.013.013s.117.062.173.1.089.058.133.086c.125.08.012.09-.093-.076a1.447,1.447,0,0,0,.206.186c.036.036.278.324.126.128-.134-.174-.023-.026.008.021s.073.113.106.172.05.1.076.144c.056.105.017.169-.042-.109a.826.826,0,0,0,.03.081c.007.02.014.04.021.06.093.261.185.523.277.785l2.133,6.043.167.471,1.351-1.774h-52.84l1.352,1.774,2.28-6.458.319-.9a1.411,1.411,0,0,0-.979-1.724,1.438,1.438,0,0,0-1.725.979l-2.279,6.458-.319.9a1.412,1.412,0,0,0,1.351,1.774h52.84a1.413,1.413,0,0,0,1.352-1.774l-1.846-5.23c-.248-.7-.489-1.406-.743-2.106a4.479,4.479,0,0,0-1.711-2.244,4.21,4.21,0,0,0-2.34-.684c-.793,0-1.586,0-2.38,0h-39.513a5.284,5.284,0,0,0-2.26.433,4.258,4.258,0,0,0-2.152,2.469,1.409,1.409,0,0,0,.979,1.724A1.439,1.439,0,0,0,2391.438,1281.766Z" transform="translate(-2386.07 -1278.118)" fill="#21223f"/>
      </g>
    </g>
    <g id="Group_798" data-name="Group 798" transform="translate(284.55 657.373)">
      <rect id="Rectangle_117" data-name="Rectangle 117" width="81.245" height="15.876" transform="translate(8.91 9.197)" fill="#fff"/>
      <g id="Group_793" data-name="Group 793" transform="translate(88.754 7.794)">
        <path id="Path_2587" data-name="Path 2587" d="M811.347,1592.121v-15.876a1.4,1.4,0,0,0-2.8,0v15.876a1.4,1.4,0,0,0,2.8,0Z" transform="translate(-808.544 -1574.842)" fill="#21223f"/>
      </g>
      <g id="Group_797" data-name="Group 797">
        <path id="Path_2588" data-name="Path 2588" d="M525.652,1578.947H450.6a15.925,15.925,0,0,1-16.023-15.353,15.749,15.749,0,0,1,15.728-16.111h75.349a3.888,3.888,0,0,1,3.888,3.888v.018a3.888,3.888,0,0,1-3.888,3.888H450.3a7.938,7.938,0,0,0-7.938,7.938h0a7.938,7.938,0,0,0,7.938,7.938h71.443l3.924.018a3.888,3.888,0,0,1,3.87,3.888h0A3.888,3.888,0,0,1,525.652,1578.947Z" transform="translate(-433.178 -1546.08)" fill="#fffa7b"/>
        <g id="Group_794" data-name="Group 794">
          <path id="Path_2589" data-name="Path 2589" d="M521.082,1572.941H446.038c-.4,0-.806-.014-1.208-.044q-.264-.02-.526-.047l-.261-.03c.258.031.032,0-.017,0-.386-.06-.771-.128-1.152-.213a16.217,16.217,0,0,1-2.1-.619c-.16-.059-.318-.122-.476-.185-.044-.018-.246-.107-.017-.007l-.232-.1q-.52-.235-1.022-.507a16.212,16.212,0,0,1-1.761-1.1l-.2-.149c-.029-.022-.238-.182-.108-.081s-.076-.062-.1-.085l-.194-.159q-.434-.361-.841-.752a18.558,18.558,0,0,1-1.4-1.523c-.172-.206-.048-.057-.013-.012-.051-.066-.1-.133-.151-.2q-.149-.2-.292-.408-.322-.465-.61-.952-.256-.434-.484-.884-.114-.225-.221-.454-.054-.115-.105-.23c-.01-.022-.167-.4-.058-.131a16.041,16.041,0,0,1-.675-2.064q-.126-.5-.217-1.013c-.031-.171-.058-.343-.083-.516.042.281-.03-.278-.036-.346a15.756,15.756,0,0,1-.055-2.26q.025-.524.084-1.046c0-.039.039-.31.016-.136s.015-.1.021-.134q.045-.287.1-.572a15.636,15.636,0,0,1,.56-2.091q.082-.239.172-.475c.022-.057.2-.511.094-.249.146-.346.308-.686.48-1.02a15.749,15.749,0,0,1,1.093-1.811c.095-.136.194-.269.291-.4.029-.039.162-.21.007-.012l.154-.194q.332-.409.69-.8a15.873,15.873,0,0,1,1.529-1.446l.192-.156c.029-.024.235-.183.1-.081s.075-.056.106-.078l.2-.146q.43-.307.879-.585a18.026,18.026,0,0,1,1.876-.991c.245-.115.064-.03.011-.008.077-.033.155-.064.233-.095q.234-.093.472-.179.536-.193,1.086-.347.492-.138.993-.243.252-.053.505-.1l.255-.042c.063-.01.44-.06.141-.023a19.361,19.361,0,0,1,2.387-.123h74.929c.046,0,.047,0,.135,0s.176.009.264.018c-.205-.019-.032,0,.076.023a4.489,4.489,0,0,1,.49.144c.206.071-.179-.094.014.006.074.039.149.075.222.116s.143.086.214.13c.032.02.243.173.111.072-.157-.12.152.139.143.131.076.071.146.147.218.222.026.027.19.229.089.1s.052.079.072.111c.089.143.169.286.246.436.1.193-.065-.193.006.014.028.08.056.16.08.242s.112.6.087.325c.013.138.02.276.02.416,0,.071-.057.564-.005.284a4.215,4.215,0,0,1-.12.5c-.025.081-.053.161-.083.24.1-.267-.039.067-.07.123a3.919,3.919,0,0,1-.266.422c.149-.206-.12.126-.184.19-.047.046-.411.344-.19.184a5.8,5.8,0,0,1-.534.324c-.045.026-.244.1-.011.012-.079.03-.159.058-.24.083a4.206,4.206,0,0,1-.5.12c.281-.051-.214,0-.284.005h-.072c-.337,0-.674,0-1.012,0H448.2a27.43,27.43,0,0,0-3.9.12,9.3,9.3,0,0,0-7.02,5.249,9.337,9.337,0,0,0,8.449,13.31c.256,0,.512,0,.767,0h68.515c.961,0,1.923,0,2.884,0l2.786.013.355,0h.06c.1,0,.544.057.281.008a4.179,4.179,0,0,1,.5.121c.08.025.161.053.239.084-.062-.025-.211-.116.01.012.144.084.287.166.43.253.045.028.2.163.014,0,.063.053.125.108.186.164a3.92,3.92,0,0,1,.339.363c-.174-.212.1.169.136.226.046.079.222.473.13.23a3.942,3.942,0,0,1,.15.486c.02.083.037.168.051.252-.044-.255-.006-.039,0,.016,0,.134.011.266.006.4,0,.088-.009.176-.018.264.026-.256,0-.039-.009.013-.041.167-.088.329-.136.494-.073.251-.028.076,0,.017q-.053.114-.113.224a3.925,3.925,0,0,1-.266.423c.149-.207-.12.126-.184.189s-.122.112-.181.17c-.275.268.13-.079-.059.049-.139.095-.28.179-.427.26-.033.018-.272.128-.118.062s-.092.03-.129.042a4.6,4.6,0,0,1-.5.128c-.219.046.211-.012-.015,0-.111.007-.221.013-.332.014a1.4,1.4,0,0,0,0,2.8,5.408,5.408,0,0,0,4.434-2.408,5.255,5.255,0,0,0,.5-4.763,5.317,5.317,0,0,0-3.764-3.276,13.779,13.779,0,0,0-2.738-.139q-1.977-.009-3.953-.011H446.7c-.316,0-.633,0-.949,0h-.015c-.134,0-.267,0-.4-.01q-.132-.007-.264-.018c-.034,0-.384-.041-.2-.018s-.1-.017-.135-.024q-.128-.023-.254-.049-.252-.053-.5-.122-.276-.077-.546-.173c-.08-.028-.158-.059-.237-.089.188.071.025.012-.071-.033a8.4,8.4,0,0,1-.882-.477c-.159-.1-.311-.207-.465-.314-.041-.028-.206-.164-.013-.008q-.121-.1-.239-.2a7.992,7.992,0,0,1-.708-.7c-.055-.062-.109-.125-.163-.188-.024-.028-.188-.231-.086-.1.123.157-.121-.169-.114-.158q-.09-.127-.174-.259a7.929,7.929,0,0,1-.49-.874q-.055-.114-.106-.229c-.089-.2.072.192,0-.015s-.144-.4-.2-.6a8.38,8.38,0,0,1-.227-1c-.037-.224.02.211,0-.016-.008-.088-.017-.175-.024-.262-.015-.2-.023-.4-.022-.6q0-.233.014-.466c0-.088.011-.176.02-.264,0-.039.035-.312.012-.139s.017-.1.024-.135q.022-.128.049-.254.066-.314.157-.622.072-.244.16-.483c.013-.035.108-.283.045-.127s.039-.087.055-.122a8.38,8.38,0,0,1,.51-.935c.1-.158.208-.311.318-.463.128-.175-.13.154.01-.011.053-.063.106-.128.16-.19a8.009,8.009,0,0,1,.744-.75c.062-.055.127-.107.189-.162.3-.261-.133.092.06-.05.134-.1.271-.194.41-.284a7.921,7.921,0,0,1,.93-.518c.076-.035.152-.071.23-.1-.246.1.014,0,.076-.023q.239-.088.483-.16a7.878,7.878,0,0,1,1.069-.237c-.267.04.189-.014.28-.02.177-.012.355-.016.532-.017h.014c1.073-.007,2.146,0,3.219,0h70.539a13.6,13.6,0,0,0,2.733-.129,5.313,5.313,0,0,0,3.312-8.007,5.386,5.386,0,0,0-4.4-2.46c-.255-.005-.511,0-.766,0H445.947a17.1,17.1,0,0,0-4.259,33.725,24.079,24.079,0,0,0,5.986.542h73.408a1.4,1.4,0,0,0,0-2.8Z" transform="translate(-428.608 -1541.476)" fill="#21223f"/>
        </g>
        <g id="Group_795" data-name="Group 795" transform="translate(17.934 14.671)">
          <path id="Path_2590" data-name="Path 2590" d="M505.719,1604.986h68.965c.931,0,1.864.018,2.8,0h.122a.351.351,0,0,0,0-.7H508.637c-.931,0-1.865-.018-2.8,0h-.122a.351.351,0,0,0,0,.7Z" transform="translate(-505.381 -1604.277)" fill="#21223f"/>
        </g>
        <g id="Group_796" data-name="Group 796" transform="translate(17.934 18.861)">
          <path id="Path_2591" data-name="Path 2591" d="M505.719,1622.923h68.965c.931,0,1.864.018,2.8,0,.041,0,.082,0,.122,0a.351.351,0,0,0,0-.7H508.637c-.931,0-1.865-.018-2.8,0h-.122a.351.351,0,0,0,0,.7Z" transform="translate(-505.381 -1622.214)" fill="#21223f"/>
        </g>
      </g>
    </g>
  </g>
</svg>
