<svg xmlns="http://www.w3.org/2000/svg" width="14.79" height="14.153" viewBox="0 0 14.79 14.153">
  <g id="Group_1090" data-name="Group 1090" transform="translate(0)">
    <path id="Path_2725" data-name="Path 2725" d="M15.789,51.648l-3.961-.766L9.874,47.349a.879.879,0,0,0-1.538,0L6.382,50.881l-3.959.766a.879.879,0,0,0-.475,1.463L4.7,56.059l-.5,4a.879.879,0,0,0,1.244.9l3.655-1.709,3.653,1.709a.879.879,0,0,0,1.244-.9l-.5-4,2.757-2.948a.88.88,0,0,0-.475-1.463Z" transform="translate(-1.71 -46.896)" fill="#469612"/>
  </g>
</svg>
