<svg xmlns="http://www.w3.org/2000/svg" width="120.41" height="56.161" viewBox="0 0 120.41 56.161">
  <g id="_12" data-name="12" transform="translate(-442.278 -463.448)">
    <line id="Line_39" data-name="Line 39" x2="27.4" transform="translate(506.448 510.201)" fill="none" stroke="#2c2c2c" stroke-linecap="round" stroke-linejoin="round" stroke-width="2"/>
    <path id="Path_3116" data-name="Path 3116" d="M541.884,510.2h7.393a3.632,3.632,0,0,0,3.631-3.633V496.007c0-2.169-6.511-15.629-9.341-21.377a4.651,4.651,0,0,0-4.174-2.6H524.82v-3.906a3.682,3.682,0,0,0-3.683-3.681l-47.9.033a3.68,3.68,0,0,0-3.678,3.681v38.407a3.632,3.632,0,0,0,3.631,3.633h7.661" transform="translate(8.779 0)" fill="none" stroke="#2c2c2c" stroke-linecap="round" stroke-linejoin="round" stroke-width="2"/>
    <line id="Line_40" data-name="Line 40" x1="27.4" transform="translate(506.448 510.201)" fill="none" stroke="#2c2c2c" stroke-linecap="round" stroke-linejoin="round" stroke-width="2"/>
    <circle id="Ellipse_133" data-name="Ellipse 133" cx="8.408" cy="8.408" r="8.408" transform="translate(489.633 501.793)" fill="none" stroke="#2c2c2c" stroke-linecap="round" stroke-linejoin="round" stroke-width="2"/>
    <circle id="Ellipse_134" data-name="Ellipse 134" cx="8.408" cy="8.408" r="8.408" transform="translate(533.849 501.793)" fill="none" stroke="#2c2c2c" stroke-linecap="round" stroke-linejoin="round" stroke-width="2"/>
    <circle id="Ellipse_135" data-name="Ellipse 135" cx="2.908" cy="2.908" r="2.908" transform="translate(539.348 507.293)" fill="none" stroke="#2c2c2c" stroke-linecap="round" stroke-linejoin="round" stroke-width="2"/>
    <circle id="Ellipse_136" data-name="Ellipse 136" cx="2.84" cy="2.84" r="2.84" transform="translate(495.201 507.361)" fill="none" stroke="#2c2c2c" stroke-linecap="round" stroke-linejoin="round" stroke-width="2"/>
    <path id="Path_3117" data-name="Path 3117" d="M530.795,488.07h-16.32V473.689h8.292a2.116,2.116,0,0,1,1.921,1.226Z" transform="translate(23.782 3.087)" fill="none" stroke="#2c2c2c" stroke-linecap="round" stroke-linejoin="round" stroke-width="2"/>
    <line id="Line_41" data-name="Line 41" x1="10.075" transform="translate(462.633 487.721)" fill="none" stroke="#2c2c2c" stroke-linecap="round" stroke-linejoin="round" stroke-width="2"/>
    <line id="Line_42" data-name="Line 42" x1="19.67" transform="translate(453.037 495.214)" fill="none" stroke="#2c2c2c" stroke-linecap="round" stroke-linejoin="round" stroke-width="2"/>
    <line id="Line_43" data-name="Line 43" x1="29.43" transform="translate(443.278 502.707)" fill="none" stroke="#2c2c2c" stroke-linecap="round" stroke-linejoin="round" stroke-width="2"/>
    <line id="Line_44" data-name="Line 44" x1="10.075" transform="translate(462.633 510.201)" fill="none" stroke="#2c2c2c" stroke-linecap="round" stroke-linejoin="round" stroke-width="2"/>
    <path id="Path_3118" data-name="Path 3118" d="M469.976,493.989h54.706V470.135" transform="translate(8.918 1.9)" fill="none" stroke="#2c2c2c" stroke-linecap="round" stroke-linejoin="round" stroke-width="2"/>
  </g>
</svg>
