<svg xmlns="http://www.w3.org/2000/svg" width="82" height="82" viewBox="0 0 82 82">
  <g id="Rectangle_128" data-name="Rectangle 128" fill="#fff" stroke="#bffd6a" stroke-width="2">
    <rect width="82" height="82" rx="10" stroke="none"/>
    <rect x="1" y="1" width="80" height="80" rx="9" fill="none"/>
  </g>
  <path id="male-solid" d="M7.288,0A4.859,4.859,0,1,1,2.429,4.859,4.859,4.859,0,0,1,7.288,0m3.644,10.932H10.07a6.672,6.672,0,0,1-5.563,0H3.644A3.644,3.644,0,0,0,0,14.576V24.9a1.822,1.822,0,0,0,1.822,1.822H3.037V37.049a1.822,1.822,0,0,0,1.822,1.822H9.718a1.822,1.822,0,0,0,1.822-1.822V26.724h1.215A1.822,1.822,0,0,0,14.576,24.9V14.576A3.644,3.644,0,0,0,10.932,10.932Z" transform="translate(23.363 17)" fill="#2c2c2c"/>
  <path id="female-solid" d="M17.228,0A4.927,4.927,0,1,1,12.3,4.927,4.927,4.927,0,0,1,17.228,0m9.183,27.265-3.7-14.78a1.848,1.848,0,0,0-1.792-1.4h-.875a6.765,6.765,0,0,1-5.641,0h-.875a1.848,1.848,0,0,0-1.792,1.4l-3.7,14.78a1.848,1.848,0,0,0,1.792,2.3h4.311v8.006A1.848,1.848,0,0,0,16,39.414H18.46a1.848,1.848,0,0,0,1.848-1.848V29.561h4.311a1.848,1.848,0,0,0,1.792-2.3Z" transform="translate(33.005 16.594)" fill="#2c2c2c"/>
  <g id="child-solid" transform="translate(9 36)" fill="#2c2c2c">
    <path d="M 13.57744693756104 28.53043556213379 L 12.70149707794189 28.53043556213379 C 11.64085292816162 28.53043556213379 10.74912929534912 27.79339218139648 10.51162719726562 26.80455780029297 C 10.27412509918213 27.79339218139648 9.382401466369629 28.53043556213379 8.321757316589355 28.53043556213379 L 7.445806980133057 28.53043556213379 C 6.204107284545898 28.53043556213379 5.193907260894775 27.52023506164551 5.193907260894775 26.27853584289551 L 5.193907260894775 11.88211631774902 L 0.1598272025585175 6.848084926605225 C -0.7181828022003174 5.970055103302002 -0.7181828022003174 4.541414737701416 0.1598172038793564 3.663394927978516 C 0.5851172208786011 3.238065004348755 1.150617241859436 3.003814935684204 1.752137184143066 3.003814935684204 C 2.353657245635986 3.003814935684204 2.919147253036499 3.238065004348755 3.344457149505615 3.663404941558838 L 7.940547943115234 8.259514808654785 L 9.467058181762695 8.259514808654785 C 7.520201206207275 7.788493156433105 6.069857120513916 6.031318664550781 6.069857120513916 3.941784858703613 C 6.069857120513916 1.49257493019104 8.062427520751953 -0.499995082616806 10.51162719726562 -0.499995082616806 C 12.9608268737793 -0.499995082616806 14.95339679718018 1.49257493019104 14.95339679718018 3.941784858703613 C 14.95339679718018 6.031318664550781 13.50305271148682 7.788493156433105 11.55619621276855 8.259514808654785 L 13.0826587677002 8.259514808654785 L 17.67881774902344 3.663394927978516 C 18.10410690307617 3.238065004348755 18.66959762573242 3.003814935684204 19.27111625671387 3.003814935684204 C 19.87263679504395 3.003814935684204 20.43813705444336 3.238065004348755 20.86344718933105 3.663404941558838 C 21.7414379119873 4.541394710540771 21.7414379119873 5.970015048980713 20.86342811584473 6.848014831542969 L 15.82934761047363 11.88210487365723 L 15.82934761047363 26.27853584289551 C 15.82934761047363 27.52023506164551 14.81914710998535 28.53043556213379 13.57744693756104 28.53043556213379 Z" stroke="none"/>
    <path d="M 10.51162719726562 -5.7220458984375e-06 C 8.334617614746094 -5.7220458984375e-06 6.569857597351074 1.764764785766602 6.569857597351074 3.941774368286133 C 6.569857597351074 6.118734359741211 8.334617614746094 7.883554458618164 10.51162719726562 7.883554458618164 C 12.68863677978516 7.883554458618164 14.45339775085449 6.118734359741211 14.45339775085449 3.941774368286133 C 14.45339775085449 1.764764785766602 12.68863677978516 -5.7220458984375e-06 10.51162719726562 -5.7220458984375e-06 M 1.75213623046875 3.503816604614258 C 1.303787231445312 3.503816604614258 0.8554363250732422 3.674860000610352 0.5133781433105469 4.016944885253906 C -0.1707935333251953 4.70112419128418 -0.1707935333251953 5.810344696044922 0.5133781433105469 6.494514465332031 L 5.693906784057617 11.67500495910645 L 5.693906784057617 26.27853393554688 C 5.693906784057617 27.24607467651367 6.478267669677734 28.03042411804199 7.445807456970215 28.03042411804199 L 8.321757316589355 28.03042411804199 C 9.289297103881836 28.03042411804199 10.07365703582764 27.24607467651367 10.07365703582764 26.27853393554688 L 10.07365703582764 20.14687538146973 L 10.94959735870361 20.14687538146973 L 10.94959735870361 26.27853393554688 C 10.94959735870361 27.24607467651367 11.73395729064941 28.03042411804199 12.70149707794189 28.03042411804199 L 13.57744789123535 28.03042411804199 C 14.54498672485352 28.03042411804199 15.32934761047363 27.24607467651367 15.32934761047363 26.27853393554688 L 15.32934761047363 11.67500495910645 L 20.5098762512207 6.494464874267578 C 21.19404792785645 5.810295104980469 21.19404792785645 4.701114654541016 20.5098762512207 4.016944885253906 C 19.82575798034668 3.332775115966797 18.71647644042969 3.332775115966797 18.03236770629883 4.016944885253906 L 13.28975677490234 8.759504318237305 L 7.733447074890137 8.759504318237305 L 2.990886688232422 4.016944885253906 C 2.648832321166992 3.674860000610352 2.200485229492188 3.503816604614258 1.75213623046875 3.503816604614258 M 10.51162719726562 -1.000005722045898 C 13.23652648925781 -1.000005722045898 15.45339775085449 1.216865539550781 15.45339775085449 3.941774368286133 C 15.45339775085449 4.449867248535156 15.37638854980469 4.940078735351562 15.23331260681152 5.401767730712891 L 17.32526779174805 3.309835433959961 C 17.84495735168457 2.790084838867188 18.5360279083252 2.503814697265625 19.2711181640625 2.503814697265625 C 20.00619697570801 2.503814697265625 20.69726753234863 2.790075302124023 21.21701812744141 3.309864044189453 C 22.28993797302246 4.382795333862305 22.28993797302246 6.12861442565918 21.21698760986328 7.201574325561523 L 16.32934761047363 12.08922481536865 L 16.32934761047363 26.27853393554688 C 16.32934761047363 27.79593467712402 15.09484672546387 29.03042411804199 13.57744789123535 29.03042411804199 L 12.70149707794189 29.03042411804199 C 11.80924701690674 29.03042411804199 11.01477718353271 28.60354232788086 10.51162719726562 27.94333648681641 C 10.00847721099854 28.60354232788086 9.214007377624512 29.03042411804199 8.321757316589355 29.03042411804199 L 7.445807456970215 29.03042411804199 C 5.928407669067383 29.03042411804199 4.693906784057617 27.79593467712402 4.693906784057617 26.27853393554688 L 4.693906784057617 12.08921718597412 L -0.1937236785888672 7.201625823974609 C -1.266693115234375 6.128664016723633 -1.266693115234375 4.382814407348633 -0.1937332153320312 3.309844970703125 C 0.3259868621826172 2.790075302124023 1.017057418823242 2.503814697265625 1.752138137817383 2.503814697265625 C 2.487216949462891 2.503814697265625 3.178277969360352 2.790075302124023 3.698026657104492 3.309864044189453 L 5.789946556091309 5.401784896850586 C 5.646871566772461 4.940095901489258 5.569857597351074 4.449867248535156 5.569857597351074 3.941774368286133 C 5.569857597351074 1.216865539550781 7.786726951599121 -1.000005722045898 10.51162719726562 -1.000005722045898 Z" stroke="none" fill="#fff"/>
  </g>
  <g id="child-solid-2" data-name="child-solid" transform="translate(52 35.594)" fill="#2c2c2c">
    <path d="M 13.57744693756104 28.53043556213379 L 12.70149707794189 28.53043556213379 C 11.64085292816162 28.53043556213379 10.74912929534912 27.79339218139648 10.51162719726562 26.80455780029297 C 10.27412509918213 27.79339218139648 9.382401466369629 28.53043556213379 8.321757316589355 28.53043556213379 L 7.445806980133057 28.53043556213379 C 6.204107284545898 28.53043556213379 5.193907260894775 27.52023506164551 5.193907260894775 26.27853584289551 L 5.193907260894775 11.88211631774902 L 0.1598272025585175 6.848084926605225 C -0.7181828022003174 5.970055103302002 -0.7181828022003174 4.541414737701416 0.1598172038793564 3.663394927978516 C 0.5851172208786011 3.238065004348755 1.150617241859436 3.003814935684204 1.752137184143066 3.003814935684204 C 2.353657245635986 3.003814935684204 2.919147253036499 3.238065004348755 3.344457149505615 3.663404941558838 L 7.940547943115234 8.259514808654785 L 9.467058181762695 8.259514808654785 C 7.520201206207275 7.788493156433105 6.069857120513916 6.031318664550781 6.069857120513916 3.941784858703613 C 6.069857120513916 1.49257493019104 8.062427520751953 -0.499995082616806 10.51162719726562 -0.499995082616806 C 12.9608268737793 -0.499995082616806 14.95339679718018 1.49257493019104 14.95339679718018 3.941784858703613 C 14.95339679718018 6.031318664550781 13.50305271148682 7.788493156433105 11.55619621276855 8.259514808654785 L 13.0826587677002 8.259514808654785 L 17.67881774902344 3.663394927978516 C 18.10410690307617 3.238065004348755 18.66959762573242 3.003814935684204 19.27111625671387 3.003814935684204 C 19.87263679504395 3.003814935684204 20.43813705444336 3.238065004348755 20.86344718933105 3.663404941558838 C 21.7414379119873 4.541394710540771 21.7414379119873 5.970015048980713 20.86342811584473 6.848014831542969 L 15.82934761047363 11.88210487365723 L 15.82934761047363 26.27853584289551 C 15.82934761047363 27.52023506164551 14.81914710998535 28.53043556213379 13.57744693756104 28.53043556213379 Z" stroke="none"/>
    <path d="M 10.51162719726562 -5.7220458984375e-06 C 8.334617614746094 -5.7220458984375e-06 6.569857597351074 1.764764785766602 6.569857597351074 3.941774368286133 C 6.569857597351074 6.118734359741211 8.334617614746094 7.883554458618164 10.51162719726562 7.883554458618164 C 12.68863677978516 7.883554458618164 14.45339775085449 6.118734359741211 14.45339775085449 3.941774368286133 C 14.45339775085449 1.764764785766602 12.68863677978516 -5.7220458984375e-06 10.51162719726562 -5.7220458984375e-06 M 1.75213623046875 3.503816604614258 C 1.303787231445312 3.503816604614258 0.8554363250732422 3.674860000610352 0.5133781433105469 4.016944885253906 C -0.1707935333251953 4.70112419128418 -0.1707935333251953 5.810344696044922 0.5133781433105469 6.494514465332031 L 5.693906784057617 11.67500495910645 L 5.693906784057617 26.27853393554688 C 5.693906784057617 27.24607467651367 6.478267669677734 28.03042411804199 7.445807456970215 28.03042411804199 L 8.321757316589355 28.03042411804199 C 9.289297103881836 28.03042411804199 10.07365703582764 27.24607467651367 10.07365703582764 26.27853393554688 L 10.07365703582764 20.14687538146973 L 10.94959735870361 20.14687538146973 L 10.94959735870361 26.27853393554688 C 10.94959735870361 27.24607467651367 11.73395729064941 28.03042411804199 12.70149707794189 28.03042411804199 L 13.57744789123535 28.03042411804199 C 14.54498672485352 28.03042411804199 15.32934761047363 27.24607467651367 15.32934761047363 26.27853393554688 L 15.32934761047363 11.67500495910645 L 20.5098762512207 6.494464874267578 C 21.19404792785645 5.810295104980469 21.19404792785645 4.701114654541016 20.5098762512207 4.016944885253906 C 19.82575798034668 3.332775115966797 18.71647644042969 3.332775115966797 18.03236770629883 4.016944885253906 L 13.28975677490234 8.759504318237305 L 7.733447074890137 8.759504318237305 L 2.990886688232422 4.016944885253906 C 2.648832321166992 3.674860000610352 2.200485229492188 3.503816604614258 1.75213623046875 3.503816604614258 M 10.51162719726562 -1.000005722045898 C 13.23652648925781 -1.000005722045898 15.45339775085449 1.216865539550781 15.45339775085449 3.941774368286133 C 15.45339775085449 4.449867248535156 15.37638854980469 4.940078735351562 15.23331260681152 5.401767730712891 L 17.32526779174805 3.309835433959961 C 17.84495735168457 2.790084838867188 18.5360279083252 2.503814697265625 19.2711181640625 2.503814697265625 C 20.00619697570801 2.503814697265625 20.69726753234863 2.790075302124023 21.21701812744141 3.309864044189453 C 22.28993797302246 4.382795333862305 22.28993797302246 6.12861442565918 21.21698760986328 7.201574325561523 L 16.32934761047363 12.08922481536865 L 16.32934761047363 26.27853393554688 C 16.32934761047363 27.79593467712402 15.09484672546387 29.03042411804199 13.57744789123535 29.03042411804199 L 12.70149707794189 29.03042411804199 C 11.80924701690674 29.03042411804199 11.01477718353271 28.60354232788086 10.51162719726562 27.94333648681641 C 10.00847721099854 28.60354232788086 9.214007377624512 29.03042411804199 8.321757316589355 29.03042411804199 L 7.445807456970215 29.03042411804199 C 5.928407669067383 29.03042411804199 4.693906784057617 27.79593467712402 4.693906784057617 26.27853393554688 L 4.693906784057617 12.08921718597412 L -0.1937236785888672 7.201625823974609 C -1.266693115234375 6.128664016723633 -1.266693115234375 4.382814407348633 -0.1937332153320312 3.309844970703125 C 0.3259868621826172 2.790075302124023 1.017057418823242 2.503814697265625 1.752138137817383 2.503814697265625 C 2.487216949462891 2.503814697265625 3.178277969360352 2.790075302124023 3.698026657104492 3.309864044189453 L 5.789946556091309 5.401784896850586 C 5.646871566772461 4.940095901489258 5.569857597351074 4.449867248535156 5.569857597351074 3.941774368286133 C 5.569857597351074 1.216865539550781 7.786726951599121 -1.000005722045898 10.51162719726562 -1.000005722045898 Z" stroke="none" fill="#fff"/>
  </g>
  <g id="child-solid-3" data-name="child-solid" transform="translate(31 35.594)" fill="#2c2c2c">
    <path d="M 13.57744693756104 28.53043556213379 L 12.70149707794189 28.53043556213379 C 11.64085292816162 28.53043556213379 10.74912929534912 27.79339218139648 10.51162719726562 26.80455780029297 C 10.27412509918213 27.79339218139648 9.382401466369629 28.53043556213379 8.321757316589355 28.53043556213379 L 7.445806980133057 28.53043556213379 C 6.204107284545898 28.53043556213379 5.193907260894775 27.52023506164551 5.193907260894775 26.27853584289551 L 5.193907260894775 11.88211631774902 L 0.1598272025585175 6.848084926605225 C -0.7181828022003174 5.970055103302002 -0.7181828022003174 4.541414737701416 0.1598172038793564 3.663394927978516 C 0.5851172208786011 3.238065004348755 1.150617241859436 3.003814935684204 1.752137184143066 3.003814935684204 C 2.353657245635986 3.003814935684204 2.919147253036499 3.238065004348755 3.344457149505615 3.663404941558838 L 7.940547943115234 8.259514808654785 L 9.467058181762695 8.259514808654785 C 7.520201206207275 7.788493156433105 6.069857120513916 6.031318664550781 6.069857120513916 3.941784858703613 C 6.069857120513916 1.49257493019104 8.062427520751953 -0.499995082616806 10.51162719726562 -0.499995082616806 C 12.9608268737793 -0.499995082616806 14.95339679718018 1.49257493019104 14.95339679718018 3.941784858703613 C 14.95339679718018 6.031318664550781 13.50305271148682 7.788493156433105 11.55619621276855 8.259514808654785 L 13.0826587677002 8.259514808654785 L 17.67881774902344 3.663394927978516 C 18.10410690307617 3.238065004348755 18.66959762573242 3.003814935684204 19.27111625671387 3.003814935684204 C 19.87263679504395 3.003814935684204 20.43813705444336 3.238065004348755 20.86344718933105 3.663404941558838 C 21.7414379119873 4.541394710540771 21.7414379119873 5.970015048980713 20.86342811584473 6.848014831542969 L 15.82934761047363 11.88210487365723 L 15.82934761047363 26.27853584289551 C 15.82934761047363 27.52023506164551 14.81914710998535 28.53043556213379 13.57744693756104 28.53043556213379 Z" stroke="none"/>
    <path d="M 10.51162719726562 -5.7220458984375e-06 C 8.334617614746094 -5.7220458984375e-06 6.569857597351074 1.764764785766602 6.569857597351074 3.941774368286133 C 6.569857597351074 6.118734359741211 8.334617614746094 7.883554458618164 10.51162719726562 7.883554458618164 C 12.68863677978516 7.883554458618164 14.45339775085449 6.118734359741211 14.45339775085449 3.941774368286133 C 14.45339775085449 1.764764785766602 12.68863677978516 -5.7220458984375e-06 10.51162719726562 -5.7220458984375e-06 M 1.75213623046875 3.503816604614258 C 1.303787231445312 3.503816604614258 0.8554363250732422 3.674860000610352 0.5133781433105469 4.016944885253906 C -0.1707935333251953 4.70112419128418 -0.1707935333251953 5.810344696044922 0.5133781433105469 6.494514465332031 L 5.693906784057617 11.67500495910645 L 5.693906784057617 26.27853393554688 C 5.693906784057617 27.24607467651367 6.478267669677734 28.03042411804199 7.445807456970215 28.03042411804199 L 8.321757316589355 28.03042411804199 C 9.289297103881836 28.03042411804199 10.07365703582764 27.24607467651367 10.07365703582764 26.27853393554688 L 10.07365703582764 20.14687538146973 L 10.94959735870361 20.14687538146973 L 10.94959735870361 26.27853393554688 C 10.94959735870361 27.24607467651367 11.73395729064941 28.03042411804199 12.70149707794189 28.03042411804199 L 13.57744789123535 28.03042411804199 C 14.54498672485352 28.03042411804199 15.32934761047363 27.24607467651367 15.32934761047363 26.27853393554688 L 15.32934761047363 11.67500495910645 L 20.5098762512207 6.494464874267578 C 21.19404792785645 5.810295104980469 21.19404792785645 4.701114654541016 20.5098762512207 4.016944885253906 C 19.82575798034668 3.332775115966797 18.71647644042969 3.332775115966797 18.03236770629883 4.016944885253906 L 13.28975677490234 8.759504318237305 L 7.733447074890137 8.759504318237305 L 2.990886688232422 4.016944885253906 C 2.648832321166992 3.674860000610352 2.200485229492188 3.503816604614258 1.75213623046875 3.503816604614258 M 10.51162719726562 -1.000005722045898 C 13.23652648925781 -1.000005722045898 15.45339775085449 1.216865539550781 15.45339775085449 3.941774368286133 C 15.45339775085449 4.449867248535156 15.37638854980469 4.940078735351562 15.23331260681152 5.401767730712891 L 17.32526779174805 3.309835433959961 C 17.84495735168457 2.790084838867188 18.5360279083252 2.503814697265625 19.2711181640625 2.503814697265625 C 20.00619697570801 2.503814697265625 20.69726753234863 2.790075302124023 21.21701812744141 3.309864044189453 C 22.28993797302246 4.382795333862305 22.28993797302246 6.12861442565918 21.21698760986328 7.201574325561523 L 16.32934761047363 12.08922481536865 L 16.32934761047363 26.27853393554688 C 16.32934761047363 27.79593467712402 15.09484672546387 29.03042411804199 13.57744789123535 29.03042411804199 L 12.70149707794189 29.03042411804199 C 11.80924701690674 29.03042411804199 11.01477718353271 28.60354232788086 10.51162719726562 27.94333648681641 C 10.00847721099854 28.60354232788086 9.214007377624512 29.03042411804199 8.321757316589355 29.03042411804199 L 7.445807456970215 29.03042411804199 C 5.928407669067383 29.03042411804199 4.693906784057617 27.79593467712402 4.693906784057617 26.27853393554688 L 4.693906784057617 12.08921718597412 L -0.1937236785888672 7.201625823974609 C -1.266693115234375 6.128664016723633 -1.266693115234375 4.382814407348633 -0.1937332153320312 3.309844970703125 C 0.3259868621826172 2.790075302124023 1.017057418823242 2.503814697265625 1.752138137817383 2.503814697265625 C 2.487216949462891 2.503814697265625 3.178277969360352 2.790075302124023 3.698026657104492 3.309864044189453 L 5.789946556091309 5.401784896850586 C 5.646871566772461 4.940095901489258 5.569857597351074 4.449867248535156 5.569857597351074 3.941774368286133 C 5.569857597351074 1.216865539550781 7.786726951599121 -1.000005722045898 10.51162719726562 -1.000005722045898 Z" stroke="none" fill="#fff"/>
  </g>
</svg>
