<svg xmlns="http://www.w3.org/2000/svg" width="83.678" height="71.017" viewBox="0 0 83.678 71.017">
  <g id="_10" data-name="10" transform="translate(-244.455 -462.29)">
    <path id="Path_3126" data-name="Path 3126" d="M257.37,477.4l38.105-14.111L300.7,477.4" transform="translate(7.247 0)" fill="none" stroke="#2c2c2c" stroke-linecap="round" stroke-linejoin="round" stroke-width="2"/>
    <path id="Path_3127" data-name="Path 3127" d="M319.646,489.091v-10.58a6.447,6.447,0,0,0-6.446-6.446H251.9a6.446,6.446,0,0,0-6.447,6.446v42.011a6.447,6.447,0,0,0,6.447,6.449h61.3a6.448,6.448,0,0,0,6.446-6.449V509.943" transform="translate(0 5.337)" fill="none" stroke="#2c2c2c" stroke-linecap="round" stroke-linejoin="round" stroke-width="2"/>
    <path id="Rectangle_264" data-name="Rectangle 264" d="M4.4,0H37.319a1.341,1.341,0,0,1,1.341,1.341v18.17a1.341,1.341,0,0,1-1.341,1.341H4.4a4.4,4.4,0,0,1-4.4-4.4V4.4A4.4,4.4,0,0,1,4.4,0Z" transform="translate(288.472 494.427)" fill="none" stroke="#2c2c2c" stroke-linecap="round" stroke-linejoin="round" stroke-width="2"/>
    <circle id="Ellipse_139" data-name="Ellipse 139" cx="3.305" cy="3.305" r="3.305" transform="translate(297.578 501.549)" fill="none" stroke="#2c2c2c" stroke-linecap="round" stroke-linejoin="round" stroke-width="2"/>
  </g>
</svg>
