<svg xmlns="http://www.w3.org/2000/svg" width="73" height="112.754" viewBox="0 0 73 112.754">
  <path id="plug-solid" d="M57.5,5.75a5.75,5.75,0,0,0-11.5,0V23H57.5Zm8.625,23H2.875A2.875,2.875,0,0,0,0,31.625v5.75A2.875,2.875,0,0,0,2.875,40.25H5.75V46a28.761,28.761,0,0,0,23,28.174v34.58h11.5V74.175A28.763,28.763,0,0,0,63.25,46V40.25h2.875A2.875,2.875,0,0,0,69,37.375v-5.75A2.875,2.875,0,0,0,66.125,28.75ZM23,5.75a5.75,5.75,0,0,0-11.5,0V23H23Z" transform="translate(2 2)" fill="none" stroke="#2c2c2c" stroke-width="4"/>
</svg>
