<svg xmlns="http://www.w3.org/2000/svg" width="74.837" height="109.884" viewBox="0 0 74.837 109.884">
  <g id="_6" data-name="6" transform="translate(-249.038 -345.269)">
    <path id="Path_3129" data-name="Path 3129" d="M303.46,385.4l6.3,37.688-27.025-7.038-27.025,7.158,6.276-37.634" transform="translate(3.72 29.945)" fill="none" stroke="#2c2c2c" stroke-linecap="round" stroke-linejoin="round" stroke-width="4"/>
    <path id="Path_3130" data-name="Path 3130" d="M286.456,421.294c-3.81,0-6.959-3.892-10.4-5.008-3.565-1.157-8.393.1-11.358-2.06-3-2.18-3.283-7.173-5.463-10.171-2.158-2.965-6.832-4.769-7.989-8.332-1.118-3.44,1.567-7.63,1.567-11.44s-2.685-8-1.567-11.44c1.157-3.564,5.831-5.367,7.989-8.334,2.18-3,2.467-7.991,5.463-10.171,2.965-2.158,7.793-.9,11.358-2.058,3.439-1.118,6.588-5.01,10.4-5.01s6.961,3.892,10.4,5.01c3.564,1.157,8.391-.1,11.358,2.058,3,2.18,3.281,7.175,5.463,10.171,2.158,2.967,6.832,4.77,7.989,8.334,1.116,3.439-1.568,7.629-1.568,11.44s2.683,8,1.568,11.439c-1.157,3.565-5.831,5.368-7.989,8.334-2.182,3-2.467,7.991-5.463,10.171-2.967,2.16-7.795.9-11.358,2.06C293.417,417.4,290.268,421.294,286.456,421.294Z" transform="translate(0)" fill="none" stroke="#2c2c2c" stroke-linecap="round" stroke-linejoin="round" stroke-width="4"/>
    <circle id="Ellipse_140" data-name="Ellipse 140" cx="25.938" cy="25.938" r="25.938" transform="translate(260.519 358.344)" fill="none" stroke="#2c2c2c" stroke-linecap="round" stroke-linejoin="round" stroke-width="4"/>
    <path id="Path_3131" data-name="Path 3131" d="M277.563,359.634l4.216,10.146,11.047.943-8.442,7.076L287,388.665l-9.433-5.911-9.433,5.911,2.612-10.866-8.442-7.076,11.047-.943Z" transform="translate(8.894 9.711)" fill="none" stroke="#2c2c2c" stroke-linecap="round" stroke-linejoin="round" stroke-width="4"/>
    <line id="Line_56" data-name="Line 56" x1="5.509" y2="33.083" transform="translate(269.866 416.729)" fill="none" stroke="#2c2c2c" stroke-linecap="round" stroke-linejoin="round" stroke-width="4"/>
    <line id="Line_57" data-name="Line 57" x2="5.207" y2="32.609" transform="translate(297.706 417.203)" fill="none" stroke="#2c2c2c" stroke-linecap="round" stroke-linejoin="round" stroke-width="4"/>
  </g>
</svg>
