<svg xmlns="http://www.w3.org/2000/svg" width="85.593" height="89.571" viewBox="0 0 85.593 89.571">
  <g id="_5" data-name="5" transform="translate(-136.583 -349.391)">
    <rect id="Rectangle_286" data-name="Rectangle 286" width="24.024" height="49.141" rx="2.946" transform="translate(138.583 387.821)" fill="none" stroke="#222" stroke-linecap="round" stroke-linejoin="round" stroke-width="4"/>
    <path id="Path_3132" data-name="Path 3132" d="M152.033,431.115a83.945,83.945,0,0,0,14.616,3.837c5.085.842,19.694.818,29.112.7a9.621,9.621,0,0,0,9.433-8.457l3.66-29.949a9.625,9.625,0,0,0-9.553-10.79H181.777c2.194-10.885,4.754-21.457,3.621-26.051-.816-3.3-3.085-9.016-6.418-9.016h0c-4.575,0-5.918,5.057-5.918,9.633a25.225,25.225,0,0,1-.694,5.427,39.766,39.766,0,0,1-16.5,24.029l-4.007,2.729" transform="translate(11.239)" fill="none" stroke="#222" stroke-linecap="round" stroke-linejoin="round" stroke-width="4"/>
  </g>
</svg>
