<svg xmlns="http://www.w3.org/2000/svg" width="64.767" height="78.112" viewBox="0 0 64.767 78.112">
  <g id="_4" data-name="4" transform="translate(-465.69 -233.545)">
    <path id="Path_3121" data-name="Path 3121" d="M479.484,250.012c.165-4.941,2.076-10.315,6.732-13.192,6.809-4.207,22.937-3.1,23.12,13.191" transform="translate(3.589)" fill="none" stroke="#2c2c2c" stroke-linecap="round" stroke-linejoin="round" stroke-width="2"/>
    <path id="Path_3122" data-name="Path 3122" d="M481.633,255.1c.186-1.32.672-3.195.875-4.064,1.223-5.264,3.818-6.015,5.826-5.514.16,2.5,2.621,3.6,4.659,3.247,3.856-.667,7.218-5.646,10.385-3.005,3.2,2.62,2.908,9.59,2.908,9.59a1.39,1.39,0,0,0,.011.183.934.934,0,0,0,.154.419" transform="translate(4.192 2.879)" fill="none" stroke="#2c2c2c" stroke-linecap="round" stroke-linejoin="round" stroke-width="2"/>
    <path id="Path_3123" data-name="Path 3123" d="M507.774,269.518h0s-4.569,3.349-9.7,3.349a16.4,16.4,0,0,1-9.7-3.349h0A21.684,21.684,0,0,0,466.69,291.2v5.116a4.583,4.583,0,0,0,4.583,4.583h53.6a4.584,4.584,0,0,0,4.583-4.583V291.2A21.683,21.683,0,0,0,507.774,269.518Z" transform="translate(0 9.758)" fill="none" stroke="#2c2c2c" stroke-linecap="round" stroke-linejoin="round" stroke-width="2"/>
    <rect id="Rectangle_261" data-name="Rectangle 261" width="11.841" height="4.425" transform="translate(505.614 293.854)" fill="none" stroke="#2c2c2c" stroke-linecap="round" stroke-linejoin="round" stroke-width="2"/>
    <path id="Path_3124" data-name="Path 3124" d="M481.633,255.28c.885,3.5,4.507,15.574,12.36,15.574,3.733,0,6.528-3.212,8.512-6.928a45.747,45.747,0,0,0,3.793-10.571c.085-.371.125-.58.125-.58" transform="translate(4.192 5.061)" fill="none" stroke="#2c2c2c" stroke-linecap="round" stroke-linejoin="round" stroke-width="2"/>
    <line id="Line_50" data-name="Line 50" x1="1.91" y1="7.27" transform="translate(505.614 272.007)" fill="none" stroke="#2c2c2c" stroke-linecap="round" stroke-linejoin="round" stroke-width="2"/>
    <line id="Line_51" data-name="Line 51" y1="7.27" x2="1.91" transform="translate(488.672 272.007)" fill="none" stroke="#2c2c2c" stroke-linecap="round" stroke-linejoin="round" stroke-width="2"/>
    <path id="Path_3125" data-name="Path 3125" d="M493.861,263.11a36.934,36.934,0,0,0,5.213-.315c5.222-.754,6.678-2.841,6.9-5.988" transform="translate(7.622 6.192)" fill="none" stroke="#2c2c2c" stroke-linecap="round" stroke-linejoin="round" stroke-width="2"/>
    <path id="Rectangle_262" data-name="Rectangle 262" d="M3.365,0H5.477a1.5,1.5,0,0,1,1.5,1.5V11.5a1.5,1.5,0,0,1-1.5,1.5H3.365A3.365,3.365,0,0,1,0,9.634V3.365A3.365,3.365,0,0,1,3.365,0Z" transform="translate(478.844 250.01)" fill="none" stroke="#2c2c2c" stroke-linecap="round" stroke-linejoin="round" stroke-width="2"/>
    <path id="Rectangle_263" data-name="Rectangle 263" d="M3.365,0H5.477a1.5,1.5,0,0,1,1.5,1.5V11.5a1.5,1.5,0,0,1-1.5,1.5H3.365A3.365,3.365,0,0,1,0,9.634V3.365A3.365,3.365,0,0,1,3.365,0Z" transform="translate(517.624 263.009) rotate(180)" fill="none" stroke="#2c2c2c" stroke-linecap="round" stroke-linejoin="round" stroke-width="2"/>
  </g>
</svg>
