<svg xmlns="http://www.w3.org/2000/svg" width="17.041" height="16.315" viewBox="0 0 17.041 16.315">
  <g id="Group_1160" data-name="Group 1160" transform="translate(-1659.979 -519.842)">
    <g id="Group_1080" data-name="Group 1080" transform="translate(1659.979 519.842)">
      <path id="Path_2725" data-name="Path 2725" d="M17.931,52.371l-4.564-.883-2.251-4.069a1.012,1.012,0,0,0-1.772,0L7.093,51.488l-4.562.883a1.013,1.013,0,0,0-.548,1.686l3.173,3.4-.571,4.612a1.013,1.013,0,0,0,1.434,1.042l4.211-1.969,4.209,1.969a1.012,1.012,0,0,0,1.434-1.042L15.3,57.453l3.176-3.4a1.014,1.014,0,0,0-.548-1.686Z" transform="translate(-1.711 -46.887)" fill="#c9c9c9"/>
      <path id="Path_2726" data-name="Path 2726" d="M13.3,51.462c-2.254-5.008-2.782-4.592-3.147-4.592a1,1,0,0,0-.877.522l-2.23,4.069-4.518.883a1.016,1.016,0,0,0-.543,1.686l3.143,3.4-.566,4.612a1.017,1.017,0,0,0,.405.944,1,1,0,0,0,1.015.1Z" transform="translate(-1.711 -46.861)" fill="#ffd938"/>
    </g>
  </g>
</svg>
