<svg xmlns="http://www.w3.org/2000/svg" width="84.949" height="81.329" viewBox="0 0 84.949 81.329">
  <g id="Group_1081" data-name="Group 1081" transform="translate(-917.604 -495.685)">
    <g id="Group_1080" data-name="Group 1080" transform="translate(-309.318 -4742.469)">
      <path id="Path_2693" data-name="Path 2693" d="M82.57,74.188l-22.75-4.4L48.6,49.5a5.047,5.047,0,0,0-8.833,0L28.541,69.787,5.8,74.188a5.051,5.051,0,0,0-2.731,8.4L18.89,99.522l-2.847,22.992a5.049,5.049,0,0,0,7.147,5.194l20.993-9.818,20.983,9.818a5.047,5.047,0,0,0,7.147-5.194L69.467,99.522,85.3,82.593a5.052,5.052,0,0,0-2.731-8.4Z" transform="translate(1225.212 5191.298)" fill="#ffe98d"/>
    </g>
    <path id="Path_2694" data-name="Path 2694" d="M60.022,69.795C48.676,44.827,46.02,46.9,44.183,46.9a5.055,5.055,0,0,0-4.417,2.6L28.541,69.795,5.8,74.2A5.051,5.051,0,0,0,3.07,82.6L18.89,99.53l-2.847,22.992a5.049,5.049,0,0,0,7.147,5.194Z" transform="translate(915.894 448.823)" fill="#ffd938"/>
  </g>
</svg>
