<svg id="Group_1081" data-name="Group 1081" xmlns="http://www.w3.org/2000/svg" width="17.041" height="16.307" viewBox="0 0 17.041 16.307">
  <path id="Path_2725" data-name="Path 2725" d="M17.931,52.371l-4.564-.883-2.251-4.069a1.012,1.012,0,0,0-1.772,0L7.093,51.488l-4.562.883a1.013,1.013,0,0,0-.548,1.686l3.173,3.4-.571,4.612a1.013,1.013,0,0,0,1.434,1.042l4.211-1.969,4.209,1.969a1.012,1.012,0,0,0,1.434-1.042L15.3,57.453l3.176-3.4a1.014,1.014,0,0,0-.548-1.686Z" transform="translate(-1.711 -46.896)" fill="#c9c9c9"/>
</svg>
