<svg xmlns="http://www.w3.org/2000/svg" width="26.314" height="21.372" viewBox="0 0 26.314 21.372">
  <path id="twitter-brands" d="M23.609,53.408c.017.234.017.468.017.7A15.239,15.239,0,0,1,8.282,69.454,15.24,15.24,0,0,1,0,67.033a11.157,11.157,0,0,0,1.3.067A10.8,10.8,0,0,0,8,64.8a5.4,5.4,0,0,1-5.042-3.74,6.8,6.8,0,0,0,1.019.083,5.7,5.7,0,0,0,1.419-.184,5.394,5.394,0,0,1-4.325-5.293V55.6a5.431,5.431,0,0,0,2.438.685,5.4,5.4,0,0,1-1.67-7.213,15.33,15.33,0,0,0,11.12,5.644,6.088,6.088,0,0,1-.134-1.236,5.4,5.4,0,0,1,9.334-3.69,10.618,10.618,0,0,0,3.423-1.3,5.379,5.379,0,0,1-2.371,2.972,10.812,10.812,0,0,0,3.106-.835A11.593,11.593,0,0,1,23.609,53.408Z" transform="translate(0 -48.082)" fill="#469612"/>
</svg>
