<?xml version="1.0" encoding="utf-8"?>
<!-- Generator: Adobe Illustrator 25.2.1, SVG Export Plug-In . SVG Version: 6.00 Build 0)  -->
<svg version="1.1" id="Laag_1" xmlns="http://www.w3.org/2000/svg" xmlns:xlink="http://www.w3.org/1999/xlink" x="0px" y="0px"
	 viewBox="0 0 108.79 110.74" style="enable-background:new 0 0 108.79 110.74;" xml:space="preserve">
<style type="text/css">
	.st0{enable-background:new    ;}
	.st1{fill:url(#SVGID_1_);}
	.st2{fill:url(#SVGID_2_);}
	.st3{fill:url(#SVGID_3_);}
	.st4{fill:url(#SVGID_4_);}
	.st5{fill:url(#SVGID_5_);}
	.st6{fill:url(#SVGID_6_);}
	.st7{fill:url(#SVGID_7_);}
	.st8{fill:url(#SVGID_8_);}
	.st9{fill:url(#SVGID_9_);}
	.st10{fill:url(#SVGID_10_);}
	.st11{fill:url(#SVGID_11_);}
	.st12{fill:url(#SVGID_12_);}
	.st13{fill:url(#SVGID_13_);}
	.st14{fill:url(#SVGID_14_);}
	.st15{fill:url(#SVGID_15_);}
	.st16{fill:#EBFED1;stroke:#2C2C2C;stroke-width:2;}
	.st17{fill:#A8E533;}
	.st18{fill:#2C2C2C;}
	.st19{fill:#469612;}
	.st20{fill:#FCC4B9;}
	.st21{fill:#EFA89E;}
	.st22{fill:#A1A7B7;}
	.st23{fill:#FFFA7B;}
	.st24{fill:#BFFD6A;}
	.st25{fill:#C9C9C9;}
	.st26{fill:#FFFFFF;}
	.st27{fill:#D6D8ED;}
	.st28{fill:#8B93A0;}
	.st29{fill:#E18F81;}
	.st30{fill:#F96464;}
	.st31{fill:#1C9337;}
	.st32{fill:#147A27;}
	.st33{fill:#6EB42D;}
	.st34{fill:#619B23;}
	.st35{fill:#DBA065;}
	.st36{fill:#C18753;}
	.st37{fill:#FFD243;}
	.st38{fill:#737581;}
	.st39{fill:#EBFED1;}
	.st40{fill:#51545E;}
	.st41{fill:#40434C;}
	.st42{fill:#5E6270;}
	.st43{fill:#892F58;}
	.st44{fill:#231F20;}
	.st45{fill:#CBFD63;}
	.st46{fill:#001B01;}
	.st47{fill:#FFE98D;}
	.st48{fill:#FFD938;}
	.st49{fill:#525252;}
	.st50{fill:#DFE6F2;}
	.st51{fill:#E8A6A0;}
	.st52{fill:#717171;}
	.st53{fill:#21223F;}
	.st54{fill:#D3D5E2;}
	.st55{fill:#DDDDDD;}
	.st56{fill:#C8DDFC;}
	.st57{clip-path:url(#SVGID_17_);}
	.st58{fill:#67E9FF;}
	.st59{fill:#3B1B6D;}
	.st60{fill:#F96262;}
	.st61{fill:#315775;}
	.st62{fill:#DB9561;}
	.st63{fill:#BC7A4D;}
	.st64{clip-path:url(#SVGID_19_);}
	.st65{fill:#4CA934;}
	.st66{fill:#F9F6E5;}
	.st67{fill:#D8D3BC;}
	.st68{fill:#6F6F6D;}
	.st69{fill:#89C433;}
	.st70{fill:#FEFEFE;}
	.st71{fill:#E7E4EA;}
	.st72{fill:#DDD745;}
	.st73{fill:#9ED85B;}
	.st74{fill:#CCCCCA;}
	.st75{fill:#D3D3D3;}
	.st76{fill:#AEAEAE;}
	.st77{fill:#FEFFFF;}
	.st78{fill:#D5CE35;}
	.st79{fill:#EFF1FE;}
	.st80{fill:#BFFD6A;stroke:#2C2C2C;}
	.st81{fill:none;stroke:#2C2C2C;stroke-width:0.695;stroke-linecap:round;stroke-linejoin:round;}
	.st82{fill:#83E700;stroke:#2C2C2C;stroke-width:0.695;stroke-linecap:round;stroke-linejoin:round;}
	.st83{fill:#001B01;stroke:#2C2C2C;}
	.st84{fill:#469612;stroke:#2C2C2C;stroke-width:3;stroke-miterlimit:10;}
	.st85{fill:#7ECE29;}
	.st86{fill:#FFFA7B;stroke:#000000;stroke-width:2.5;}
	.st87{fill:#FFFA7B;stroke:#000000;stroke-width:2;}
</style>
<g id="Group_438" transform="translate(-1216.737 -1237.408)">
	<g id="Group_389" transform="translate(2021.429 1321.754)">
		<g id="Group_388">
			<path id="Path_2057" class="st23" d="M-711.3-6.8c-15.79-7.41-15.66-27.24-34.51-25.58s-19.12,19.39-41.68,26.62
				s-14.75,31.25-14.75,31.25h101.72C-694.38,21.55-695.51,0.6-711.3-6.8z"/>
		</g>
	</g>
	<g id="Group_391" transform="translate(2145.804 1280.256)">
		<g id="Group_390" transform="translate(0 0)">
			<path id="Path_2058" class="st23" d="M-833.21-10.75c0,0-1.07-5.83-7.31-5.75c-3.44-0.12-6.47,2.28-7.12,5.66
				c0,0-3.8,1.58-3.8,3.6h23.28C-828.82-9.43-830.91-10.89-833.21-10.75z"/>
		</g>
	</g>
	<g id="Group_394" transform="translate(2025.615 1393.729)">
		<g id="Group_392" transform="translate(1.426 1.793)">
			<path id="Path_2059" class="st69" d="M-767.33-60.53c-13.44-2.05-19.62,5.29-19.62,5.29c-11.44-2.94-18.75,6.76-18.75,6.76h58.76
				C-751.96-54.93-759.25-59.24-767.33-60.53z"/>
		</g>
		<g id="Group_393" transform="translate(0)">
			<path id="Path_2060" class="st18" d="M-785.8-52.38c0.41,0.1,0.84-0.03,1.11-0.35c1.3-1.34,2.83-2.42,4.53-3.19
				c2.79-1.34,7.5-2.73,14.1-1.73c7.77,1.27,14.79,5.4,19.65,11.59l1.8-1.25c-5.18-6.72-12.74-11.2-21.13-12.51
				c-11.95-1.82-18.41,3.45-20.15,5.17c-4.79-1.05-9.79-0.13-13.89,2.56c-2.04,1.27-3.86,2.88-5.38,4.75l1.75,1.32
				C-803.33-46.11-796.41-55.1-785.8-52.38z"/>
		</g>
	</g>
	<g id="Group_396" transform="translate(2030.871 1320.818)">
		<g id="Group_395" transform="translate(0 0)">
			<path id="Path_2061" class="st23" d="M-794.69-28.18c-0.48-2.36-2.6-4.02-5.01-3.94c-2.36-0.09-4.43,1.56-4.88,3.88
				c0,0-2.6,1.08-2.6,2.47h15.95C-791.68-27.28-793.12-28.27-794.69-28.18z"/>
		</g>
	</g>
	<g id="Group_433" transform="translate(2042.057 1237.408)">
		<g id="Group_405" transform="translate(22.594 91.582)">
			<g id="Group_400" transform="translate(0 0)">
				<g id="Group_397" transform="translate(1.786 1.787)">
					<path id="Path_2062" class="st19" d="M-817.6-1.48c1.26-1.75,2.63-6.19,5.47-9.57c5.3-6.33,9.49-5.16,9.49-5.16l-6.27-19.74
						c-12.67,10.83-12.53,26.15-11.56,33.51C-820.27-0.81-818.52-0.22-817.6-1.48z"/>
				</g>
				<g id="Group_398" transform="translate(1.772 1.72)">
					<path id="Path_2063" class="st24" d="M-818.24-0.84c1.12-6.05,4.21-15.89,12.77-22.12l-3.56-12.97
						c-12.62,10.91-12.42,26.22-11.42,33.57C-820.28-1.06-819.15-0.43-818.24-0.84z"/>
				</g>
				<g id="Group_399">
					<path id="Path_2064" class="st18" d="M-817.68,2.01c0.2,0.05,0.41,0.08,0.62,0.08c0.85-0.01,1.65-0.44,2.13-1.14
						c0.62-0.97,1.17-1.99,1.63-3.05c0.99-2.3,2.26-4.47,3.79-6.46c4.7-5.62,8.23-4.84,8.36-4.81c0.58,0.16,1.19-0.18,1.35-0.76
						c0.06-0.21,0.05-0.42-0.01-0.63l-6.27-19.74c-0.18-0.58-0.8-0.9-1.38-0.72c-0.14,0.04-0.27,0.12-0.38,0.21
						c-5.68,4.83-9.63,11.37-11.25,18.64c-1.17,5.2-1.4,10.57-0.69,15.85C-819.67,0.68-818.83,1.68-817.68,2.01z M-807.67-32.21
						l5.29,16.64c-1.92,0.18-5.18,1.25-8.82,5.6c-1.65,2.13-3.03,4.45-4.09,6.93c-0.4,0.94-0.88,1.84-1.42,2.71
						c-0.13,0.18-0.28,0.26-0.43,0.22c-0.28-0.11-0.46-0.38-0.46-0.68C-818.58-8.24-818.52-21.97-807.67-32.21L-807.67-32.21z"/>
				</g>
			</g>
			<g id="Group_404" transform="translate(53.51)">
				<g id="Group_401" transform="translate(1.787 1.787)">
					<path id="Path_2065" class="st19" d="M-831.98-11.06c2.83,3.39,4.21,7.83,5.47,9.57c0.91,1.26,2.66,0.68,2.87-0.96
						c0.97-7.36,1.11-22.68-11.56-33.51l-6.27,19.74C-841.48-16.22-837.28-17.39-831.98-11.06z"/>
				</g>
				<g id="Group_402" transform="translate(6.402 1.72)">
					<path id="Path_2066" class="st24" d="M-828.28-2.35c1-7.36,1.2-22.67-11.42-33.57l-3.56,12.97
						c8.55,6.23,11.65,16.06,12.77,22.12C-829.58-0.43-828.45-1.06-828.28-2.35z"/>
				</g>
				<g id="Group_403">
					<path id="Path_2067" class="st18" d="M-839.39-13.37c0.04-0.01,3.64-0.82,8.36,4.81c1.53,1.98,2.8,4.15,3.79,6.46
						c0.46,1.06,1,2.08,1.63,3.05c0.48,0.7,1.28,1.13,2.13,1.14c0.21,0,0.42-0.03,0.62-0.08c1.15-0.33,1.99-1.33,2.1-2.52
						c0.71-5.28,0.48-10.65-0.69-15.85c-1.62-7.27-5.57-13.82-11.25-18.64c-0.46-0.39-1.15-0.34-1.55,0.12
						c-0.1,0.11-0.17,0.24-0.21,0.38l-6.27,19.74c-0.18,0.58,0.14,1.2,0.71,1.38C-839.82-13.32-839.6-13.31-839.39-13.37
						L-839.39-13.37z M-832.89-32.21c10.85,10.24,10.92,23.98,9.94,31.41c0,0.3-0.19,0.57-0.46,0.68c-0.15,0.04-0.3-0.03-0.43-0.22
						c-0.54-0.86-1.02-1.77-1.42-2.71c-1.06-2.47-2.44-4.8-4.09-6.93c-3.64-4.35-6.9-5.42-8.82-5.6L-832.89-32.21z"/>
				</g>
			</g>
		</g>
		<g id="Group_408" transform="translate(41 1.792)">
			<g id="Group_406">
				<path id="Path_2068" class="st70" d="M-804.14,77.69c0,0,19.93-50.7-4.95-77.09c-1.55-1.65-4.15-1.73-5.79-0.17
					c-0.07,0.06-0.13,0.13-0.2,0.2c-24.65,26.59-4.3,77.13-4.3,77.13l7.62-0.03L-804.14,77.69z"/>
			</g>
			<g id="Group_407" transform="translate(18.273 0.836)">
				<path id="Path_2069" class="st71" d="M-834.31,76.58c0,0,0.26,0.13,0.68,0.32l3.59-0.01l2.94-0.01l4.67-0.02
					c0,0,19.93-50.7-4.95-77.09c-0.29-0.31-0.63-0.57-1-0.77c16.91,20.14,10.08,51.75,4.95,67.83
					C-823.42,66.86-826.56,76.05-834.31,76.58z"/>
			</g>
		</g>
		<g id="Group_409" transform="translate(39.214 0.005)">
			<path id="Path_2070" class="st18" d="M-817.59,80.63L-817.59,80.63l15.24-0.06c0.45,0,0.85-0.28,1.02-0.7
				c3.4-9.34,5.73-19.05,6.92-28.92c1.1-9.39,0.92-18-0.55-25.6c-1.84-9.57-5.73-17.55-11.55-23.72c-0.98-1.04-2.35-1.63-3.78-1.63
				h-0.02c-1.44,0.01-2.81,0.61-3.79,1.67c-5.77,6.22-9.59,14.23-11.35,23.82c-1.4,7.61-1.51,16.22-0.33,25.6
				c1.28,9.86,3.68,19.55,7.17,28.86C-818.44,80.36-818.04,80.63-817.59,80.63z M-812.48,3.16c0.56-0.61,1.36-0.96,2.19-0.96h0.01
				c0.83,0,1.62,0.34,2.18,0.94l0,0c12.55,13.31,13.19,33.18,11.52,47.51c-1.15,9.45-3.34,18.75-6.53,27.73l-13.72,0.06
				c-3.26-8.95-5.53-18.23-6.76-27.67C-825.39,36.45-824.92,16.57-812.48,3.16z"/>
		</g>
		<g id="Group_410" transform="translate(1.786 157.554)">
			<path id="Path_2071" class="st26" d="M-733.25-50.1c0-4.85-3.93-8.78-8.78-8.78c-2.8,0-5.43,1.33-7.08,3.59
				c-1.91-1.96-4.76-2.67-7.36-1.82c-0.59-2.49-3.09-4.02-5.57-3.43c-1.01,0.24-1.92,0.82-2.56,1.64h-16.21
				c-1.58-2.01-4.49-2.35-6.5-0.77c-0.82,0.65-1.39,1.55-1.64,2.56c-2.6-0.84-5.45-0.14-7.36,1.82c-2.87-3.91-8.36-4.75-12.27-1.89
				c-2.83,2.07-4.15,5.63-3.36,9.05h78.47C-733.33-48.78-733.25-49.43-733.25-50.1z"/>
		</g>
		<g id="Group_411" transform="translate(52.77 144.715)">
			<rect id="Rectangle_72" x="-831.8" y="-55.73" class="st26" width="16.21" height="12.25"/>
		</g>
		<g id="Group_412" transform="translate(49.409 136.441)">
			<path id="Path_2072" class="st70" d="M-810.16-48.89l-2.17-3.32l-7.95,0.53l-7.92-0.86l-2.31,3.23
				c2.9,1.61,10.14,1.87,10.14,1.87S-813.13-47.4-810.16-48.89z"/>
		</g>
		<g id="Group_413" transform="translate(47.864 135.188)">
			<path id="Path_2073" class="st18" d="M-808.12-46.66c0.54-0.27,0.76-0.93,0.49-1.47c-0.02-0.04-0.04-0.07-0.06-0.11l-2.17-3.32
				c-0.22-0.33-0.6-0.52-0.99-0.49l-7.85,0.52l-7.85-0.52c-0.4-0.03-0.77,0.16-0.99,0.49l-2.17,3.32c-0.33,0.51-0.19,1.19,0.32,1.52
				c0.03,0.02,0.07,0.04,0.11,0.06c2.8,1.41,8.73,1.56,10.48,1.57h0.13c0.03,0,0.06,0,0.1,0l0,0
				C-816.85-45.1-810.93-45.24-808.12-46.66z M-818.61-47.29h-0.2c-2.65-0.02-6.14-0.27-8.33-0.89l1.07-1.64l7.28,0.48
				c0.05,0,0.1,0,0.15,0l7.28-0.48l1.07,1.64C-812.48-47.55-815.96-47.3-818.61-47.29z"/>
		</g>
		<g id="Group_414" transform="translate(51.128 128.296)">
			<path id="Path_2074" class="st24" d="M-822.19-43.06c5.18,0.07,7.72-0.63,7.72-0.63c0.82,0.01,1.48-0.64,1.5-1.46l0.03-2.57
				c0.01-0.82-0.64-1.48-1.46-1.5c0,0-4.66,0.38-7.57,0.35c-2.91-0.04-7.67-0.54-7.67-0.54c-0.82-0.01-1.48,0.64-1.5,1.46
				l-0.03,2.57c-0.01,0.82,0.64,1.48,1.46,1.5C-829.71-43.88-827.37-43.12-822.19-43.06z"/>
		</g>
		<g id="Group_415" transform="translate(53.432 132.916)">
			<path id="Path_2075" class="st19" d="M-816.95-48.31c0.09,0,0.18-0.01,0.28-0.02l0.02-1.42c0.01-0.66-0.5-1.21-1.16-1.26
				c-0.05,0-0.1,0-0.14,0c-0.54,0.04-4.06,0.32-6.33,0.29c-2.27-0.03-5.87-0.39-6.41-0.45c-0.05-0.01-0.09-0.01-0.14-0.01
				c-0.66,0.03-1.18,0.57-1.19,1.23l-0.02,1.49c2.42,0.56,4.9,0.82,7.38,0.78C-819.5-47.61-816.95-48.31-816.95-48.31z"/>
		</g>
		<g id="Group_416" transform="translate(49.342 126.509)">
			<path id="Path_2076" class="st18" d="M-820.42-40.17c0.24,0,0.47,0,0.7,0c2.41,0.05,4.82-0.16,7.18-0.64
				c1.36-0.07,2.43-1.18,2.45-2.54l0.03-2.57c0.01-1.42-1.12-2.59-2.54-2.61c-0.03,0-0.07,0-0.1,0c-0.05,0-4.64,0.38-7.47,0.34
				c-2.83-0.04-7.52-0.53-7.57-0.53c-0.03,0-0.07-0.01-0.1-0.01c-1.42-0.01-2.59,1.12-2.61,2.54l-0.03,2.57
				c-0.01,1.36,1.02,2.49,2.37,2.6C-827.49-40.83-825.03-40.23-820.42-40.17z M-828.29-43.58l0.03-2.57
				c0.01-0.2,0.16-0.36,0.35-0.37c0.61,0.06,4.93,0.5,7.71,0.54c2.77,0.04,6.99-0.3,7.61-0.34c0.19,0.02,0.34,0.19,0.34,0.38
				l-0.03,2.57c0,0.1-0.04,0.2-0.12,0.27c-0.07,0.07-0.17,0.11-0.27,0.11c-0.1,0-0.2,0.01-0.3,0.04c-0.02,0.01-2.5,0.65-7.42,0.59
				c-4.9-0.06-7.18-0.76-7.2-0.77c-0.1-0.03-0.21-0.05-0.32-0.05C-828.12-43.2-828.29-43.37-828.29-43.58L-828.29-43.58z"/>
		</g>
		<g id="Group_420" transform="translate(46.831)">
			<g id="Group_417" transform="translate(1.787 1.786)">
				<path id="Path_2077" class="st24" d="M-816.61,0.6c-1.55-1.64-4.14-1.72-5.78-0.17c-0.07,0.06-0.13,0.13-0.19,0.19
					c-3.19,3.46-5.77,7.43-7.62,11.75c6.76,3.17,14.59,3.14,21.32-0.09C-810.78,7.97-813.39,4.03-816.61,0.6z"/>
			</g>
			<g id="Group_418">
				<path id="Path_2078" class="st18" d="M-817.86,17.61h0.11c3.87,0.03,7.69-0.85,11.16-2.57c0.51-0.27,0.73-0.89,0.49-1.42
					c-1.95-4.41-4.63-8.47-7.93-11.99C-815,0.59-816.37,0-817.8,0h-0.02c-1.44,0.01-2.8,0.61-3.78,1.66
					c-3.27,3.55-5.91,7.62-7.83,12.05c-0.23,0.53-0.01,1.15,0.51,1.41C-825.48,16.8-821.69,17.65-817.86,17.61z M-819.99,3.16
					c1.12-1.21,3.02-1.28,4.23-0.16c0.05,0.04,0.09,0.09,0.14,0.14c2.89,3.08,5.27,6.59,7.07,10.41c-2.91,1.25-6.04,1.88-9.21,1.87
					l0,1.1l0-1.1c-3.16,0.04-6.3-0.57-9.22-1.79C-825.21,9.79-822.85,6.26-819.99,3.16L-819.99,3.16z"/>
			</g>
			<g id="Group_419" transform="translate(7.259 7.486)">
				<path id="Path_2079" class="st19" d="M-825.48,7.17c0.49,0,0.88-0.39,0.9-0.87c0.06-2.41,0.05-9.02-2.04-9.18
					c-1.55-0.12-4.64,5.56-5.58,7.55c-0.26,0.57,0,1.24,0.56,1.49c0.04,0.02,0.08,0.03,0.12,0.05
					C-829.57,6.84-827.53,7.16-825.48,7.17z"/>
			</g>
		</g>
		<g id="Group_423" transform="translate(45.282 30.072)">
			<g id="Group_421" transform="translate(0 0)">
				<circle id="Ellipse_50" class="st23" cx="-816.21" cy="1.13" r="9"/>
			</g>
			<g id="Group_422" transform="translate(9.739 6.027)">
				<path id="Path_2080" class="st72" d="M-816.94-4.93c-0.02-4.97-4.07-8.99-9.04-8.97c-2.56,0.01-4.99,1.11-6.69,3.01
					c4.75-1.47,9.79,1.2,11.26,5.95c0.93,3.01,0.22,6.29-1.88,8.65C-819.5,2.54-816.93-0.97-816.94-4.93z"/>
			</g>
		</g>
		<g id="Group_424" transform="translate(0 155.768)">
			<path id="Path_2081" class="st18" d="M-801.61-55.99c2.44,0.01,4.74,1.17,6.19,3.14c0.36,0.49,1.05,0.59,1.54,0.24
				c0.05-0.04,0.1-0.08,0.14-0.12c1.61-1.66,4.03-2.26,6.23-1.54c0.58,0.19,1.2-0.13,1.38-0.71c0.01-0.03,0.02-0.06,0.02-0.08
				c0.45-1.9,2.35-3.07,4.25-2.62c0.77,0.18,1.46,0.62,1.96,1.25c0.36,0.49,1.04,0.6,1.53,0.24c0.49-0.36,0.6-1.04,0.24-1.53
				c-0.02-0.03-0.04-0.05-0.06-0.07c-1.96-2.48-5.56-2.91-8.05-0.95c-0.71,0.56-1.28,1.29-1.66,2.11c-2.3-0.43-4.67,0.14-6.53,1.56
				c-3.73-3.97-9.98-4.17-13.96-0.44c-2.56,2.41-3.65,5.99-2.86,9.41c0.14,0.59,0.73,0.96,1.32,0.83c0.59-0.14,0.96-0.73,0.83-1.32
				c-0.95-4.13,1.63-8.25,5.76-9.2C-802.77-55.93-802.19-55.99-801.61-55.99L-801.61-55.99z"/>
		</g>
		<g id="Group_425" transform="translate(77.351 155.768)">
			<path id="Path_2082" class="st18" d="M-809.29-45.27c0.59,0.14,1.18-0.23,1.32-0.82c0,0,0,0,0,0c1.22-5.32-2.09-10.62-7.41-11.84
				c-3.42-0.79-7.01,0.3-9.41,2.86c-1.86-1.42-4.23-1.99-6.53-1.56c-1.32-2.88-4.71-4.14-7.59-2.83c-0.83,0.38-1.55,0.95-2.11,1.66
				c-0.4,0.46-0.35,1.15,0.11,1.55c0.46,0.4,1.15,0.35,1.55-0.11c0.02-0.03,0.04-0.05,0.06-0.08c1.21-1.53,3.43-1.79,4.96-0.59
				c0.63,0.49,1.07,1.18,1.25,1.96c0.14,0.59,0.73,0.96,1.32,0.81c0.03-0.01,0.06-0.01,0.08-0.02c2.2-0.71,4.62-0.12,6.23,1.54
				c0.42,0.43,1.12,0.44,1.55,0.02c0.04-0.04,0.08-0.09,0.12-0.14c2.51-3.42,7.31-4.16,10.73-1.65c2.48,1.81,3.63,4.93,2.94,7.92
				C-810.25-46-809.88-45.41-809.29-45.27C-809.29-45.27-809.29-45.27-809.29-45.27z"/>
		</g>
		<g id="Group_428" transform="translate(50.983 142.928)">
			<g id="Group_426">
				<path id="Path_2083" class="st18" d="M-828.92-41.69v-12.25c0-0.61-0.49-1.1-1.1-1.1c-0.61,0-1.1,0.49-1.1,1.1v12.25
					c0,0.61,0.49,1.1,1.1,1.1C-829.41-40.59-828.92-41.08-828.92-41.69L-828.92-41.69z"/>
			</g>
			<g id="Group_427" transform="translate(26.369)">
				<path id="Path_2084" class="st18" d="M-839.07-41.69v-12.25c0-0.61-0.49-1.1-1.1-1.1c-0.61,0-1.1,0.49-1.1,1.1v12.25
					c0,0.61,0.49,1.1,1.1,1.1C-839.56-40.59-839.07-41.08-839.07-41.69L-839.07-41.69z"/>
			</g>
		</g>
		<g id="Group_429" transform="translate(64.882 149.49)">
			<path id="Path_2085" class="st18" d="M-835.15-46.06v-10.85c0-0.36-0.3-0.66-0.66-0.66c-0.36,0-0.66,0.3-0.66,0.66v10.85
				c0,0.36,0.3,0.66,0.66,0.66C-835.44-45.4-835.15-45.69-835.15-46.06z"/>
		</g>
		<g id="Group_430" transform="translate(58.291 147.66)">
			<path id="Path_2086" class="st18" d="M-832.61-45.35V-56.2c0-0.36-0.3-0.66-0.66-0.66c-0.36,0-0.66,0.3-0.66,0.66v10.85
				c0,0.36,0.3,0.66,0.66,0.66C-832.91-44.69-832.61-44.99-832.61-45.35z"/>
		</g>
		<g id="Group_431" transform="translate(71.473 147.66)">
			<path id="Path_2087" class="st18" d="M-837.69-45.35V-56.2c0-0.36-0.3-0.66-0.66-0.66s-0.66,0.3-0.66,0.66v10.85
				c0,0.36,0.3,0.66,0.66,0.66S-837.69-44.99-837.69-45.35z"/>
		</g>
		<g id="Group_432" transform="translate(50.237 35.027)">
			<path id="Path_2088" class="st18" d="M-821.12,5.84c5.34-0.01,9.66-4.35,9.64-9.68c-0.01-5.34-4.35-9.66-9.68-9.64h-0.04
				c-5.34,0.01-9.66,4.35-9.64,9.68c0.01,5.34,4.35,9.66,9.68,9.64L-821.12,5.84z M-829.51-3.79c-0.02-4.61,3.7-8.36,8.31-8.38
				c0,0,0,0,0,0h0.04c4.61-0.01,8.35,3.72,8.36,8.33c0.01,4.61-3.72,8.35-8.33,8.36h-0.04C-825.76,4.52-829.49,0.81-829.51-3.79
				L-829.51-3.79z"/>
		</g>
	</g>
	<g id="Group_436" transform="translate(2138.342 1403.369)">
		<g id="Group_434" transform="translate(1.426 1.789)">
			<path id="Path_2089" class="st73" d="M-829.06-64.41c-7.02-1.07-10.26,2.77-10.26,2.77c-5.98-1.53-9.8,3.53-9.8,3.53h30.71
				C-821.03-61.48-824.84-63.74-829.06-64.41z"/>
		</g>
		<g id="Group_435" transform="translate(0 0)">
			<path id="Path_2090" class="st18" d="M-838.16-58.79c0.41,0.1,0.83-0.03,1.11-0.35c0.12-0.14,2.98-3.35,9.25-2.39
				c3.92,0.64,7.46,2.72,9.92,5.84l1.8-1.25c-2.79-3.63-6.87-6.05-11.39-6.76c-6.05-0.92-9.54,1.54-10.77,2.65
				c-6.25-1.22-10.16,3.85-10.33,4.07l1.75,1.32C-846.77-55.71-843.37-60.13-838.16-58.79z"/>
		</g>
	</g>
	<g id="Group_437" transform="translate(2019.51 1413.917)">
		<path id="Path_2091" class="st18" d="M-695.06-65.77c0.61-0.01,1.09-0.52,1.07-1.12c-0.01-0.59-0.49-1.06-1.07-1.07H-801.7
			c-0.61,0.01-1.09,0.52-1.07,1.12c0.01,0.59,0.49,1.06,1.07,1.07H-695.06z"/>
	</g>
</g>
</svg>
