<?xml version="1.0" encoding="utf-8"?>
<!-- Generator: Adobe Illustrator 25.2.1, SVG Export Plug-In . SVG Version: 6.00 Build 0)  -->
<svg version="1.1" id="Laag_1" xmlns="http://www.w3.org/2000/svg" xmlns:xlink="http://www.w3.org/1999/xlink" x="0px" y="0px"
	 viewBox="0 0 123.53 89.22" style="enable-background:new 0 0 123.53 89.22;" xml:space="preserve">
<style type="text/css">
	.st0{enable-background:new    ;}
	.st1{fill:url(#SVGID_1_);}
	.st2{fill:url(#SVGID_2_);}
	.st3{fill:url(#SVGID_3_);}
	.st4{fill:url(#SVGID_4_);}
	.st5{fill:url(#SVGID_5_);}
	.st6{fill:url(#SVGID_6_);}
	.st7{fill:url(#SVGID_7_);}
	.st8{fill:url(#SVGID_8_);}
	.st9{fill:url(#SVGID_9_);}
	.st10{fill:url(#SVGID_10_);}
	.st11{fill:url(#SVGID_11_);}
	.st12{fill:url(#SVGID_12_);}
	.st13{fill:url(#SVGID_13_);}
	.st14{fill:url(#SVGID_14_);}
	.st15{fill:url(#SVGID_15_);}
	.st16{fill:#EBFED1;stroke:#2C2C2C;stroke-width:2;}
	.st17{fill:#A8E533;}
	.st18{fill:#2C2C2C;}
	.st19{fill:#469612;}
	.st20{fill:#FCC4B9;}
	.st21{fill:#EFA89E;}
	.st22{fill:#A1A7B7;}
	.st23{fill:#FFFA7B;}
	.st24{fill:#BFFD6A;}
	.st25{fill:#C9C9C9;}
	.st26{fill:#FFFFFF;}
	.st27{fill:#D6D8ED;}
	.st28{fill:#8B93A0;}
	.st29{fill:#E18F81;}
	.st30{fill:#F96464;}
	.st31{fill:#1C9337;}
	.st32{fill:#147A27;}
	.st33{fill:#6EB42D;}
	.st34{fill:#619B23;}
	.st35{fill:#DBA065;}
	.st36{fill:#C18753;}
	.st37{fill:#FFD243;}
	.st38{fill:#737581;}
	.st39{fill:#EBFED1;}
	.st40{fill:#51545E;}
	.st41{fill:#40434C;}
	.st42{fill:#5E6270;}
	.st43{fill:#892F58;}
	.st44{fill:#231F20;}
	.st45{fill:#CBFD63;}
	.st46{fill:#001B01;}
	.st47{fill:#FFE98D;}
	.st48{fill:#FFD938;}
	.st49{fill:#525252;}
	.st50{fill:#DFE6F2;}
	.st51{fill:#E8A6A0;}
	.st52{fill:#717171;}
	.st53{fill:#21223F;}
	.st54{fill:#D3D5E2;}
	.st55{fill:#DDDDDD;}
	.st56{fill:#C8DDFC;}
	.st57{clip-path:url(#SVGID_17_);}
	.st58{fill:#67E9FF;}
	.st59{fill:#3B1B6D;}
	.st60{fill:#F96262;}
	.st61{fill:#315775;}
	.st62{fill:#DB9561;}
	.st63{fill:#BC7A4D;}
	.st64{clip-path:url(#SVGID_19_);}
	.st65{fill:#4CA934;}
	.st66{fill:#F9F6E5;}
	.st67{fill:#D8D3BC;}
	.st68{fill:#6F6F6D;}
	.st69{fill:#89C433;}
	.st70{fill:#FEFEFE;}
	.st71{fill:#E7E4EA;}
	.st72{fill:#DDD745;}
	.st73{fill:#9ED85B;}
	.st74{fill:#CCCCCA;}
	.st75{fill:#D3D3D3;}
	.st76{fill:#AEAEAE;}
	.st77{fill:#FEFFFF;}
	.st78{fill:#D5CE35;}
	.st79{fill:#EFF1FE;}
	.st80{fill:#BFFD6A;stroke:#2C2C2C;}
	.st81{fill:none;stroke:#2C2C2C;stroke-width:0.695;stroke-linecap:round;stroke-linejoin:round;}
	.st82{fill:#83E700;stroke:#2C2C2C;stroke-width:0.695;stroke-linecap:round;stroke-linejoin:round;}
	.st83{fill:#001B01;stroke:#2C2C2C;}
	.st84{fill:#469612;stroke:#2C2C2C;stroke-width:3;stroke-miterlimit:10;}
	.st85{fill:#7ECE29;}
	.st86{fill:#FFFA7B;stroke:#000000;stroke-width:2.5;}
	.st87{fill:#FFFA7B;stroke:#000000;stroke-width:2;}
</style>
<g id="Group_625" transform="translate(-326.464 -1145.608)">
	<g id="Group_601" transform="translate(930.217 1199.545)">
		<g id="Group_597" transform="translate(4.341 4.346)">
			<path id="Path_2175" class="st24" d="M-546.33,28.79c4.16,0,4.56-1.98,4.56-1.98h55.07v-70.12c-21.59-1.78-59.62,4.95-59.62,4.95
				s-38.03-6.74-59.62-4.95v70.12h55.07C-550.88,26.81-550.49,28.79-546.33,28.79z"/>
		</g>
		<g id="Group_598">
			<path id="Path_2176" class="st18" d="M-547.71,33.3c0.88,0.97,2.55,1.98,5.72,1.98c3.17,0,4.84-1.01,5.72-1.98h53.9
				c1.18,0,2.14-0.96,2.14-2.14v-70.12c0-1.11-0.85-2.04-1.97-2.13c-20.72-1.71-55.57,4.18-59.8,4.91
				c-4.23-0.74-39.08-6.62-59.8-4.91c-1.11,0.09-1.97,1.02-1.96,2.13v70.12c0,1.18,0.96,2.14,2.14,2.14c0,0,0,0,0,0L-547.71,33.3z
				 M-544.45,30.72L-544.45,30.72z M-544.45,30.73L-544.45,30.73L-544.45,30.73z M-544.45,30.73L-544.45,30.73L-544.45,30.73z
				 M-539.53,30.74L-539.53,30.74L-539.53,30.74z M-539.53,30.73L-539.53,30.73L-539.53,30.73z M-599.47-36.97
				c21.35-1.21,56.74,5,57.11,5.06c0.25,0.04,0.5,0.04,0.75,0c0.37-0.07,35.76-6.27,57.11-5.06v65.98h-52.93
				c-0.91,0-1.72,0.57-2.02,1.43c-0.13,0.12-0.73,0.55-2.54,0.55s-2.41-0.44-2.54-0.55c-0.3-0.85-1.11-1.43-2.02-1.43h-52.93V-36.97
				z"/>
		</g>
		<g id="Group_599" transform="translate(130.113 127.864)">
			<path id="Path_2177" class="st18" d="M-665.4-96.71v-7.36c-0.02-1.18-0.99-2.13-2.17-2.11c-1.16,0.02-2.09,0.95-2.11,2.11v7.36
				c0.02,1.18,0.99,2.13,2.17,2.11C-666.36-94.61-665.42-95.55-665.4-96.71z"/>
		</g>
		<g id="Group_600" transform="translate(111.533 127.864)">
			<path id="Path_2178" class="st18" d="M-655.99-96.71v-7.36c-0.02-1.18-0.99-2.13-2.17-2.11c-1.16,0.02-2.09,0.95-2.11,2.11v7.36
				c-0.02,1.18,0.93,2.16,2.11,2.17s2.16-0.93,2.17-2.11C-655.99-96.66-655.99-96.68-655.99-96.71L-655.99-96.71z"/>
		</g>
	</g>
	<g id="Group_602" transform="translate(948.765 1187.93)">
		<path id="Path_2179" class="st26" d="M-560.54,36.4v-62.99c-20.33-12.16-52.61-8.37-52.61-8.37V33.2
			c17.88-2.12,45.51,2.99,51.46,4.15c0.52,0.1,1.03-0.24,1.13-0.76C-560.54,36.53-560.54,36.47-560.54,36.4z"/>
	</g>
	<g id="Group_603" transform="translate(1055.435 1187.93)">
		<path id="Path_2180" class="st26" d="M-666.18,37.38c5.68-1.12,33.58-6.32,51.59-4.18v-68.16c0,0-32.29-3.79-52.61,8.37v63.12
			c0,0.48,0.38,0.86,0.86,0.86C-666.29,37.39-666.23,37.39-666.18,37.38z"/>
	</g>
	<g id="Group_604" transform="translate(944.424 1183.541)">
		<path id="Path_2181" class="st18" d="M-608.56,39.71c17.65-2.1,45.41,3.07,50.8,4.13c0.2,0.04,0.4,0.06,0.6,0.06
			c1.71,0,3.1-1.39,3.1-3.11v-63c0-0.75-0.4-1.45-1.04-1.84c-20.72-12.39-52.62-8.82-53.96-8.66c-1.08,0.13-1.89,1.04-1.89,2.13
			v68.16c0,1.18,0.96,2.14,2.14,2.14C-608.73,39.73-608.64,39.72-608.56,39.71L-608.56,39.71z M-556.94,39.64L-556.94,39.64
			L-556.94,39.64L-556.94,39.64z M-606.67-28.62c6.97-0.55,31.62-1.69,48.33,7.65v60.34c-6.43-1.22-24.95-4.43-40.82-4.43
			c-2.6,0-5.13,0.09-7.52,0.28L-606.67-28.62z"/>
	</g>
	<g id="Group_607" transform="translate(957.977 1174.144)">
		<g id="Group_605" transform="translate(4.341 4.356)">
			<path id="Path_2182" class="st26" d="M-574.16,45.05v-64.82c0,0-16.69-14.28-45.86-10.26v65.98c0,0,31.17,0.74,44.33,9.89
				c0.44,0.31,1.04,0.21,1.35-0.23C-574.22,45.45-574.16,45.25-574.16,45.05z"/>
		</g>
		<g id="Group_606">
			<path id="Path_2183" class="st18" d="M-572.57,51.95c1.4,0.99,3.34,0.65,4.33-0.76c0.37-0.52,0.56-1.15,0.56-1.79v-64.82
				c0-0.63-0.27-1.22-0.75-1.63c-0.71-0.61-17.77-14.86-47.55-10.75c-1.06,0.15-1.85,1.05-1.85,2.12V40.3
				c0,1.16,0.93,2.11,2.09,2.14C-615.42,42.45-585.05,43.27-572.57,51.95z M-613.54-23.78c23.36-2.63,38.18,6.93,41.58,9.42v61.63
				c-12.22-7.12-34.6-8.7-41.58-9.03L-613.54-23.78z"/>
		</g>
	</g>
	<g id="Group_608" transform="translate(1051.094 1183.541)">
		<path id="Path_2184" class="st18" d="M-610.5,39.71c1.17,0.14,2.24-0.7,2.38-1.87c0.01-0.08,0.02-0.17,0.02-0.25v-68.16
			c0-1.09-0.81-2-1.89-2.13c-1.35-0.16-33.25-3.73-53.96,8.66c-0.65,0.39-1.04,1.08-1.04,1.84v62.99c0,1.72,1.39,3.11,3.11,3.11
			c0.2,0,0.4-0.02,0.6-0.06l0,0C-655.91,42.78-628.15,37.61-610.5,39.71z M-662.13,39.64L-662.13,39.64L-662.13,39.64L-662.13,39.64
			z M-660.72,39.37v-60.34c16.7-9.34,41.37-8.2,48.33-7.65v63.84C-629.38,33.83-653.24,37.95-660.72,39.37L-660.72,39.37z"/>
	</g>
	<g id="Group_611" transform="translate(1051.233 1174.144)">
		<g id="Group_609" transform="translate(4.341 4.356)">
			<path id="Path_2185" class="st26" d="M-665.75,45.84c13.16-9.15,44.33-9.89,44.33-9.89v-65.98
				c-29.17-4.02-45.86,10.26-45.86,10.26v64.82c0,0.54,0.44,0.97,0.97,0.97C-666.11,46.02-665.91,45.96-665.75,45.84z"/>
		</g>
		<g id="Group_610">
			<path id="Path_2186" class="st18" d="M-661.97,52.52c0.64,0,1.26-0.2,1.78-0.56c12.48-8.67,42.85-9.5,43.16-9.51
				c1.16-0.03,2.09-0.98,2.09-2.14v-65.98c0-1.07-0.79-1.97-1.85-2.12c-29.77-4.11-46.83,10.14-47.55,10.75
				c-0.48,0.41-0.75,1-0.75,1.63v64.82C-665.08,51.12-663.69,52.51-661.97,52.52L-661.97,52.52z M-660.8-14.36
				c3.41-2.49,18.22-12.05,41.58-9.42v62.03c-6.97,0.33-29.36,1.92-41.58,9.03V-14.36z"/>
		</g>
	</g>
	<g id="Group_624" transform="translate(973.434 1207.696)">
		<g id="Group_617" transform="translate(93.366)">
			<g id="Group_612">
				<path id="Path_2187" class="st18" d="M-670.82-34.4c0.39,0,0.77-0.11,1.11-0.31c0.13-0.08,13.32-7.93,28.76-6.33
					c1.18,0.11,2.22-0.75,2.34-1.92c0.11-1.17-0.73-2.21-1.89-2.34c-16.86-1.75-30.83,6.57-31.42,6.93
					c-1.01,0.61-1.34,1.93-0.72,2.94C-672.26-34.79-671.57-34.39-670.82-34.4L-670.82-34.4z"/>
			</g>
			<g id="Group_613" transform="translate(0 17.801)">
				<path id="Path_2188" class="st18" d="M-670.82-43.42c0.39,0,0.77-0.11,1.11-0.31c0.13-0.08,13.32-7.93,28.76-6.33
					c1.18,0.11,2.22-0.75,2.34-1.92c0.11-1.17-0.73-2.21-1.89-2.34c-16.86-1.75-30.83,6.57-31.42,6.93
					c-1.01,0.61-1.34,1.93-0.72,2.94C-672.26-43.81-671.57-43.41-670.82-43.42L-670.82-43.42z"/>
			</g>
			<g id="Group_614" transform="translate(0 35.603)">
				<path id="Path_2189" class="st18" d="M-670.82-52.44c0.39,0,0.77-0.11,1.11-0.31c0.13-0.08,13.32-7.93,28.76-6.33
					c1.18,0.11,2.22-0.75,2.34-1.92c0.11-1.17-0.73-2.21-1.89-2.34c-16.86-1.75-30.83,6.57-31.42,6.93
					c-1.01,0.61-1.33,1.93-0.72,2.94C-672.26-52.83-671.57-52.44-670.82-52.44L-670.82-52.44z"/>
			</g>
			<g id="Group_615" transform="translate(0.418 53.405)">
				<path id="Path_2190" class="st18" d="M-671.03-61.46c0.39,0,0.77-0.11,1.11-0.31c0.13-0.08,13.32-7.94,28.76-6.33
					c1.18,0.11,2.22-0.76,2.32-1.94c0.1-1.15-0.73-2.18-1.88-2.32c-16.86-1.75-30.83,6.57-31.42,6.93
					c-1.01,0.61-1.34,1.93-0.72,2.94C-672.48-61.85-671.78-61.46-671.03-61.46L-671.03-61.46z"/>
			</g>
			<g id="Group_616" transform="translate(0.418 71.206)">
				<path id="Path_2191" class="st18" d="M-671.03-70.48c0.39,0,0.77-0.11,1.11-0.31c0.13-0.08,13.32-7.94,28.76-6.33
					c1.18,0.11,2.22-0.76,2.32-1.94c0.1-1.15-0.73-2.18-1.88-2.32c-16.86-1.75-30.83,6.57-31.42,6.93
					c-1.01,0.61-1.33,1.93-0.72,2.94C-672.48-70.87-671.78-70.48-671.03-70.48L-671.03-70.48z"/>
			</g>
		</g>
		<g id="Group_623" transform="translate(0 0)">
			<g id="Group_618" transform="translate(0.419)">
				<path id="Path_2192" class="st18" d="M-623.5-41.04c15.39-1.6,28.63,6.25,28.76,6.33c1.02,0.61,2.33,0.27,2.94-0.74
					c0.6-1.01,0.28-2.31-0.72-2.92c-0.59-0.36-14.56-8.67-31.42-6.93c-1.18,0.13-2.02,1.19-1.89,2.36
					C-625.7-41.77-624.66-40.92-623.5-41.04L-623.5-41.04z"/>
			</g>
			<g id="Group_619" transform="translate(0.419 17.801)">
				<path id="Path_2193" class="st18" d="M-623.5-50.06c15.39-1.6,28.63,6.25,28.76,6.33c1.01,0.61,2.33,0.29,2.94-0.72
					c0.61-1.01,0.29-2.33-0.72-2.94c-0.59-0.35-14.56-8.67-31.42-6.93c-1.18,0.13-2.02,1.19-1.89,2.36
					C-625.7-50.79-624.66-49.95-623.5-50.06L-623.5-50.06z"/>
			</g>
			<g id="Group_620" transform="translate(0.419 35.603)">
				<path id="Path_2194" class="st18" d="M-623.5-59.08c15.36-1.59,28.57,6.21,28.76,6.33c1.02,0.6,2.33,0.26,2.93-0.76
					c0.59-1,0.27-2.29-0.72-2.91c-0.59-0.35-14.56-8.68-31.42-6.93c-1.18,0.11-2.04,1.16-1.92,2.34c0.11,1.18,1.16,2.04,2.34,1.92
					C-623.52-59.08-623.51-59.08-623.5-59.08L-623.5-59.08z"/>
			</g>
			<g id="Group_621" transform="translate(0 53.406)">
				<path id="Path_2195" class="st18" d="M-623.29-68.1c15.39-1.6,28.63,6.25,28.76,6.33c1.02,0.61,2.33,0.27,2.94-0.74
					c0.6-1.01,0.28-2.31-0.72-2.92c-0.59-0.35-14.56-8.67-31.42-6.93c-1.18,0.13-2.02,1.19-1.89,2.36
					C-625.49-68.83-624.45-67.99-623.29-68.1L-623.29-68.1z"/>
			</g>
			<g id="Group_622" transform="translate(0 71.206)">
				<path id="Path_2196" class="st18" d="M-623.29-77.12c15.39-1.6,28.63,6.25,28.76,6.33c1.02,0.61,2.33,0.27,2.94-0.74
					c0.6-1.01,0.28-2.31-0.72-2.92c-0.59-0.35-14.56-8.67-31.42-6.93c-1.18,0.13-2.02,1.19-1.89,2.36
					C-625.49-77.85-624.45-77.01-623.29-77.12L-623.29-77.12z"/>
			</g>
		</g>
	</g>
</g>
</svg>
