<?xml version="1.0" encoding="utf-8"?>
<!-- Generator: Adobe Illustrator 25.2.1, SVG Export Plug-In . SVG Version: 6.00 Build 0)  -->
<svg version="1.1" id="Laag_1" xmlns="http://www.w3.org/2000/svg" xmlns:xlink="http://www.w3.org/1999/xlink" x="0px" y="0px"
	 viewBox="0 0 93.49 93.5" style="enable-background:new 0 0 93.49 93.5;" xml:space="preserve">
<style type="text/css">
	.st0{enable-background:new    ;}
	.st1{fill:url(#SVGID_1_);}
	.st2{fill:url(#SVGID_2_);}
	.st3{fill:url(#SVGID_3_);}
	.st4{fill:url(#SVGID_4_);}
	.st5{fill:url(#SVGID_5_);}
	.st6{fill:url(#SVGID_6_);}
	.st7{fill:url(#SVGID_7_);}
	.st8{fill:url(#SVGID_8_);}
	.st9{fill:url(#SVGID_9_);}
	.st10{fill:url(#SVGID_10_);}
	.st11{fill:url(#SVGID_11_);}
	.st12{fill:url(#SVGID_12_);}
	.st13{fill:url(#SVGID_13_);}
	.st14{fill:url(#SVGID_14_);}
	.st15{fill:url(#SVGID_15_);}
	.st16{fill:#EBFED1;stroke:#2C2C2C;stroke-width:2;}
	.st17{fill:#A8E533;}
	.st18{fill:#2C2C2C;}
	.st19{fill:#469612;}
	.st20{fill:#FCC4B9;}
	.st21{fill:#EFA89E;}
	.st22{fill:#A1A7B7;}
	.st23{fill:#FFFA7B;}
	.st24{fill:#BFFD6A;}
	.st25{fill:#C9C9C9;}
	.st26{fill:#FFFFFF;}
	.st27{fill:#D6D8ED;}
	.st28{fill:#8B93A0;}
	.st29{fill:#E18F81;}
	.st30{fill:#F96464;}
	.st31{fill:#1C9337;}
	.st32{fill:#147A27;}
	.st33{fill:#6EB42D;}
	.st34{fill:#619B23;}
	.st35{fill:#DBA065;}
	.st36{fill:#C18753;}
	.st37{fill:#FFD243;}
	.st38{fill:#737581;}
	.st39{fill:#EBFED1;}
	.st40{fill:#51545E;}
	.st41{fill:#40434C;}
	.st42{fill:#5E6270;}
	.st43{fill:#892F58;}
	.st44{fill:#231F20;}
	.st45{fill:#CBFD63;}
	.st46{fill:#001B01;}
	.st47{fill:#FFE98D;}
	.st48{fill:#FFD938;}
	.st49{fill:#525252;}
	.st50{fill:#DFE6F2;}
	.st51{fill:#E8A6A0;}
	.st52{fill:#717171;}
	.st53{fill:#21223F;}
	.st54{fill:#D3D5E2;}
	.st55{fill:#DDDDDD;}
	.st56{fill:#C8DDFC;}
	.st57{clip-path:url(#SVGID_17_);}
	.st58{fill:#67E9FF;}
	.st59{fill:#3B1B6D;}
	.st60{fill:#F96262;}
	.st61{fill:#315775;}
	.st62{fill:#DB9561;}
	.st63{fill:#BC7A4D;}
	.st64{clip-path:url(#SVGID_19_);}
	.st65{fill:#4CA934;}
	.st66{fill:#F9F6E5;}
	.st67{fill:#D8D3BC;}
	.st68{fill:#6F6F6D;}
	.st69{fill:#89C433;}
	.st70{fill:#FEFEFE;}
	.st71{fill:#E7E4EA;}
	.st72{fill:#DDD745;}
	.st73{fill:#9ED85B;}
	.st74{fill:#CCCCCA;}
	.st75{fill:#D3D3D3;}
	.st76{fill:#AEAEAE;}
	.st77{fill:#FEFFFF;}
	.st78{fill:#D5CE35;}
	.st79{fill:#EFF1FE;}
	.st80{fill:#BFFD6A;stroke:#2C2C2C;}
	.st81{fill:none;stroke:#2C2C2C;stroke-width:0.695;stroke-linecap:round;stroke-linejoin:round;}
	.st82{fill:#83E700;stroke:#2C2C2C;stroke-width:0.695;stroke-linecap:round;stroke-linejoin:round;}
	.st83{fill:#001B01;stroke:#2C2C2C;}
	.st84{fill:#469612;stroke:#2C2C2C;stroke-width:3;stroke-miterlimit:10;}
	.st85{fill:#7ECE29;}
	.st86{fill:#FFFA7B;stroke:#000000;stroke-width:2.5;}
	.st87{fill:#FFFA7B;stroke:#000000;stroke-width:2;}
</style>
<g id="Group_474" transform="translate(518.435 -288.403)">
	<circle id="Ellipse_51" class="st24" cx="-471.69" cy="335.16" r="45.55"/>
	<circle id="Ellipse_52" class="st39" cx="-471.69" cy="335.16" r="34.47"/>
	<g id="Path_2098" transform="translate(-198.103 -149.98)">
		<path class="st23" d="M-272.98,485.84l-0.16-0.2c-0.51-0.62-1.04-1.25-1.55-1.85l-0.02-0.02l-0.24-0.29l0.33-0.18l0.65-0.36
			l1.19-0.64l1.48-0.8l2.17-1.18l2.21-1.2l2.27-1.23l2.52-1.37l1.86-1.01l2.02-1.1l1.3-0.71l0.8-0.43l0.52-0.28
			c0.23-0.13,0.49-0.19,0.75-0.19c0.52,0,1.01,0.27,1.3,0.73c0.21,0.32,0.27,0.74,0.16,1.14c-0.11,0.41-0.36,0.75-0.71,0.94
			l-0.01,0.01c0,0-0.01,0.01-0.01,0.01c-0.51,0.29-1.04,0.57-1.55,0.85c-0.25,0.14-0.52,0.28-0.77,0.41l-2.97,1.61l-1.8,0.98
			l-1.88,1.02l-3.63,1.97c-1.52,0.82-3.03,1.65-4.55,2.47l-0.09,0.05c-0.45,0.25-0.9,0.49-1.35,0.74L-272.98,485.84z"/>
		<path class="st18" d="M-254.89,473.11c-0.2,0-0.41,0.05-0.6,0.16c-0.44,0.24-0.88,0.48-1.32,0.72c-1.11,0.6-2.21,1.2-3.32,1.8
			c-1.46,0.79-2.92,1.58-4.38,2.38c-1.5,0.81-2.99,1.62-4.49,2.44c-1.22,0.66-2.43,1.32-3.65,1.98c-0.61,0.33-1.23,0.67-1.84,1
			c0.53,0.62,1.05,1.25,1.57,1.88c0.48-0.26,0.96-0.52,1.44-0.78c1.52-0.82,3.03-1.65,4.55-2.47c1.84-1,3.68-2,5.52-3
			c1.59-0.86,3.18-1.73,4.77-2.59c0.77-0.42,1.55-0.82,2.31-1.26c0.01-0.01,0.02-0.01,0.03-0.02c0.55-0.3,0.77-1.11,0.43-1.64
			C-254.09,473.32-254.48,473.11-254.89,473.11 M-254.89,472.49v0.61V472.49L-254.89,472.49L-254.89,472.49
			c0.63,0,1.21,0.32,1.56,0.87c0.25,0.39,0.33,0.9,0.2,1.38c-0.13,0.49-0.44,0.91-0.86,1.13l-0.01,0.01l-0.01,0
			c-0.51,0.29-1.04,0.58-1.55,0.85c-0.25,0.14-0.52,0.27-0.77,0.41l-3.01,1.63l-1.76,0.96l-1.88,1.02l-3.63,1.97
			c-1.52,0.82-3.03,1.65-4.55,2.47l-0.09,0.05c-0.45,0.25-0.9,0.49-1.35,0.74l-0.45,0.24l-0.32-0.39c-0.51-0.62-1.04-1.25-1.55-1.85
			l-0.02-0.02l-0.49-0.58l0.66-0.36l0.65-0.36l1.19-0.64l1.46-0.79l2.19-1.19l2.23-1.21l2.26-1.23l2.5-1.36l1.87-1.02l2.02-1.1
			l1.3-0.71l0.8-0.43l0.52-0.28C-255.5,472.57-255.2,472.49-254.89,472.49z"/>
	</g>
	<g id="Group_458" transform="translate(706.339 308.801)">
		<path id="Path_2099" class="st18" d="M-1133.68,26.36c0.02,4.67-0.72,9.32-2.18,13.76c-0.35,1.08-0.74,2.15-1.17,3.2
			c-0.02,0.04-0.16,0.37-0.09,0.22c-0.05,0.13-0.11,0.26-0.17,0.39c-0.12,0.28-0.24,0.55-0.37,0.83c-0.24,0.51-0.48,1.02-0.73,1.52
			c-1.02,2.02-2.19,3.96-3.5,5.8c-0.7,0.99-1.19,1.63-1.96,2.55c-0.71,0.86-1.46,1.69-2.23,2.49c-0.79,0.82-1.6,1.6-2.45,2.36
			c-0.42,0.37-0.84,0.74-1.27,1.09c-0.21,0.18-0.43,0.35-0.65,0.53c-0.11,0.09-0.22,0.17-0.33,0.26l-0.14,0.11
			c-0.17,0.14,0.22-0.16-0.09,0.07c-1.8,1.37-3.69,2.6-5.67,3.7c-1,0.55-2.03,1.07-3.07,1.54c-0.53,0.25-0.98,0.44-1.38,0.6
			c-0.52,0.21-1.05,0.42-1.59,0.61c-2.17,0.79-4.4,1.42-6.67,1.87c-2.28,0.46-4.59,0.73-6.92,0.81c-2.4,0.09-4.8-0.01-7.19-0.29
			c-0.15-0.02-0.29-0.04-0.44-0.05c-0.15-0.02-0.02,0,0.01,0l-0.25-0.03c-0.29-0.04-0.58-0.08-0.86-0.13
			c-0.57-0.09-1.15-0.2-1.71-0.31c-1.15-0.23-2.29-0.51-3.42-0.83c-1.12-0.32-2.22-0.68-3.31-1.08c-0.53-0.2-1.06-0.4-1.58-0.62
			l-0.22-0.09c0.02,0.01,0.14,0.06,0.01,0c-0.13-0.05-0.26-0.11-0.39-0.17c-0.26-0.11-0.52-0.23-0.77-0.35
			c-2.08-0.95-4.08-2.06-5.99-3.32c-1.84-1.19-3.57-2.53-5.2-4.01c-1.67-1.5-3.23-3.13-4.67-4.86c-0.18-0.21-0.35-0.43-0.53-0.65
			c-0.09-0.11-0.17-0.22-0.26-0.33l-0.11-0.14c0.08,0.1,0,0.01-0.03-0.04c-0.35-0.46-0.69-0.92-1.03-1.4
			c-0.66-0.93-1.28-1.88-1.86-2.86c-0.58-0.96-1.12-1.95-1.62-2.95c-0.25-0.5-0.5-1.01-0.73-1.52c-0.12-0.26-0.23-0.51-0.34-0.77
			c-0.14-0.33-0.13-0.3-0.28-0.66c-0.87-2.13-1.57-4.33-2.11-6.57c-0.27-1.15-0.5-2.3-0.69-3.47c-0.04-0.27-0.08-0.54-0.12-0.8
			c0-0.03-0.03-0.23-0.01-0.05c-0.01-0.06-0.02-0.12-0.02-0.18c-0.02-0.17-0.04-0.33-0.06-0.5c-0.07-0.59-0.12-1.17-0.17-1.76
			c-0.18-2.4-0.18-4.81,0.01-7.21c0.18-2.3,0.55-4.58,1.11-6.82c0.55-2.24,1.27-4.43,2.14-6.56c0.02-0.06,0.05-0.11,0.07-0.17
			c-0.07,0.16,0.01-0.02,0.02-0.05c0.05-0.11,0.1-0.22,0.14-0.33c0.12-0.28,0.25-0.55,0.37-0.83c0.25-0.53,0.5-1.05,0.76-1.57
			c0.51-1,1.05-1.98,1.64-2.94c2.31-3.83,5.19-7.28,8.54-10.23c0.42-0.37,0.84-0.73,1.27-1.09c0.21-0.18,0.43-0.35,0.65-0.53
			c0.25-0.2,0.36-0.28,0.51-0.4c0.91-0.69,1.83-1.34,2.79-1.96c1.9-1.24,3.89-2.33,5.95-3.27c0.26-0.12,0.52-0.23,0.77-0.34
			c0.05-0.02,0.37-0.16,0.21-0.09c0.15-0.06,0.3-0.12,0.45-0.18c0.53-0.21,1.06-0.42,1.59-0.61c1.07-0.39,2.16-0.74,3.26-1.05
			c1.13-0.31,2.27-0.59,3.42-0.81c0.57-0.11,1.14-0.21,1.72-0.3c0.29-0.05,0.58-0.09,0.87-0.13c0.14-0.02,0.02,0-0.01,0l0.25-0.03
			c0.17-0.02,0.33-0.04,0.5-0.06c2.39-0.27,4.79-0.35,7.19-0.25c1.2,0.05,2.4,0.15,3.59,0.3l0.37,0.05
			c-0.17-0.02,0.18,0.03,0.24,0.03c0.31,0.04,0.62,0.09,0.93,0.14c0.57,0.09,1.14,0.2,1.71,0.31c2.29,0.47,4.53,1.11,6.72,1.92
			c0.53,0.2,1.06,0.41,1.58,0.62c0,0,0.18,0.08,0.08,0.03c-0.12-0.05,0.11,0.05,0.14,0.06l0.33,0.14c0.28,0.12,0.55,0.25,0.83,0.37
			c1.04,0.48,2.06,1,3.06,1.56c0.98,0.55,1.94,1.13,2.87,1.74c0.48,0.32,0.96,0.65,1.43,0.98c0.21,0.15,0.42,0.3,0.63,0.46
			c0.11,0.08,0.22,0.17,0.34,0.25c0.06,0.04,0.35,0.27,0.23,0.18c1.78,1.38,3.45,2.89,5,4.51c3.1,3.23,5.69,6.92,7.68,10.93
			c0.25,0.5,0.49,1.01,0.73,1.53c0.12,0.26,0.23,0.52,0.34,0.77c0.02,0.04,0.13,0.31,0.07,0.16c0.06,0.15,0.12,0.3,0.18,0.45
			c0.43,1.07,0.83,2.16,1.18,3.26c0.71,2.22,1.24,4.48,1.6,6.78c0.04,0.29,0.09,0.58,0.13,0.87c-0.02-0.17,0.02,0.19,0.03,0.24
			c0.02,0.15,0.04,0.29,0.05,0.44c0.06,0.56,0.12,1.13,0.16,1.7C-1133.73,24.02-1133.68,25.19-1133.68,26.36c0,1.55,2.4,1.55,2.4,0
			c0.02-9.67-2.98-19.1-8.57-26.98c-2.76-3.87-6.07-7.31-9.85-10.2c-19.95-15.23-48.37-11.96-64.35,7.39
			c-3.03,3.67-5.48,7.78-7.29,12.18c-1.82,4.48-2.94,9.21-3.3,14.03c-0.38,4.92,0.03,9.87,1.19,14.67
			c3.42,13.93,13.03,25.53,26.09,31.47c9,4.07,19.06,5.2,28.74,3.23c4.67-0.95,9.16-2.62,13.32-4.94c8.24-4.59,14.9-11.56,19.12-20
			c2.14-4.28,3.6-8.87,4.34-13.6c0.37-2.4,0.56-4.83,0.57-7.26C-1131.28,24.81-1133.68,24.81-1133.68,26.36z"/>
	</g>
	<g id="Group_459" transform="translate(780.409 326.813)">
		<path id="Path_2100" class="st18" d="M-1253.3-26.12v9.51c0,0.66,0.54,1.2,1.2,1.2c0.66,0,1.2-0.54,1.2-1.2v-9.51
			c0-0.66-0.54-1.2-1.2-1.2C-1252.76-27.33-1253.3-26.79-1253.3-26.12L-1253.3-26.12z"/>
	</g>
	<g id="Group_460" transform="translate(780.409 423.456)">
		<path id="Path_2101" class="st18" d="M-1253.3-63.34v9.51c0,0.66,0.54,1.2,1.2,1.2c0.66,0,1.2-0.54,1.2-1.2v-9.51
			c0-0.66-0.54-1.2-1.2-1.2C-1252.76-64.54-1253.3-64-1253.3-63.34z"/>
	</g>
	<g id="Group_461" transform="translate(724.351 382.871)">
		<path id="Path_2102" class="st18" d="M-1230.51-46.51h9.51c0.66,0,1.2-0.54,1.2-1.2s-0.54-1.2-1.2-1.2h-9.51
			c-0.66,0-1.2,0.54-1.2,1.2S-1231.17-46.51-1230.51-46.51z"/>
	</g>
	<g id="Group_462" transform="translate(820.994 382.871)">
		<path id="Path_2103" class="st18" d="M-1267.72-46.51h9.51c0.66,0,1.2-0.54,1.2-1.2s-0.54-1.2-1.2-1.2h-9.51
			c-0.66,0-1.2,0.54-1.2,1.2S-1268.39-46.51-1267.72-46.51z"/>
	</g>
	<g id="Group_471" transform="translate(732.849 335.311)">
		<g id="Group_463" transform="translate(20.503 0)">
			<path id="Path_2104" class="st74" d="M-1242.79-29.7l1.61,2.8l2.55,4.42l0.59,1.03c0.17,0.29,0.54,0.38,0.82,0.22
				c0.29-0.17,0.38-0.54,0.22-0.82l-1.61-2.8l-2.55-4.42l-0.59-1.03c-0.17-0.29-0.54-0.38-0.82-0.22
				C-1242.86-30.35-1242.96-29.99-1242.79-29.7z"/>
		</g>
		<g id="Group_464" transform="translate(68.824 83.696)">
			<path id="Path_2105" class="st74" d="M-1261.4-61.93l1.61,2.8l2.55,4.42l0.59,1.03c0.17,0.29,0.54,0.38,0.82,0.22
				c0.29-0.17,0.38-0.54,0.22-0.82l0,0l-1.61-2.8l-2.55-4.42l-0.59-1.03c-0.17-0.29-0.54-0.38-0.82-0.22
				C-1261.47-62.59-1261.57-62.22-1261.4-61.93L-1261.4-61.93z"/>
		</g>
		<g id="Group_465" transform="translate(0 68.824)">
			<path id="Path_2106" class="st74" d="M-1234.09-51.22l2.8-1.61l4.42-2.55l1.03-0.59c0.29-0.17,0.38-0.54,0.22-0.82
				c-0.17-0.29-0.54-0.38-0.82-0.22l-2.8,1.61l-4.42,2.55l-1.03,0.59c-0.29,0.17-0.38,0.54-0.22,0.82
				C-1234.74-51.15-1234.37-51.06-1234.09-51.22L-1234.09-51.22z"/>
		</g>
		<g id="Group_466" transform="translate(83.696 20.503)">
			<path id="Path_2107" class="st74" d="M-1266.32-32.62l2.8-1.61l4.42-2.55l1.03-0.59c0.28-0.18,0.37-0.55,0.19-0.83
				c-0.17-0.27-0.52-0.36-0.8-0.21l-2.8,1.61l-4.42,2.55l-1.03,0.59c-0.29,0.17-0.38,0.54-0.22,0.82
				C-1266.97-32.54-1266.6-32.45-1266.32-32.62L-1266.32-32.62z"/>
		</g>
		<g id="Group_467" transform="translate(68.825 0)">
			<path id="Path_2108" class="st74" d="M-1256.65-30.31l-1.61,2.8l-2.55,4.42l-0.59,1.03c-0.17,0.29-0.07,0.65,0.22,0.82
				c0.29,0.17,0.65,0.07,0.82-0.22l1.61-2.8l2.55-4.42l0.59-1.03c0.17-0.29,0.07-0.65-0.22-0.82
				C-1256.11-30.69-1256.48-30.59-1256.65-30.31z"/>
		</g>
		<g id="Group_468" transform="translate(20.503 83.695)">
			<path id="Path_2109" class="st74" d="M-1238.04-62.54l-1.61,2.8l-2.55,4.42l-0.59,1.03c-0.17,0.29-0.07,0.65,0.22,0.82
				c0.29,0.17,0.65,0.07,0.82-0.22l0,0l1.61-2.8l2.55-4.42l0.59-1.03c0.17-0.29,0.07-0.65-0.22-0.82
				C-1237.5-62.92-1237.87-62.82-1238.04-62.54z"/>
		</g>
		<g id="Group_469" transform="translate(83.695 68.825)">
			<path id="Path_2110" class="st74" d="M-1258.08-52.26l-2.8-1.61l-4.42-2.55l-1.03-0.59c-0.29-0.17-0.65-0.07-0.82,0.22
				c-0.17,0.29-0.07,0.65,0.22,0.82l2.8,1.61l4.42,2.55l1.03,0.59c0.29,0.17,0.65,0.07,0.82-0.22
				C-1257.69-51.73-1257.79-52.09-1258.08-52.26z"/>
		</g>
		<g id="Group_470" transform="translate(0 20.503)">
			<path id="Path_2111" class="st74" d="M-1225.85-33.65l-2.8-1.61l-4.42-2.55l-1.03-0.59c-0.29-0.16-0.66-0.05-0.82,0.24
				c-0.15,0.28-0.06,0.63,0.21,0.8l2.8,1.61l4.42,2.55l1.03,0.59c0.29,0.17,0.65,0.07,0.82-0.22
				C-1225.47-33.12-1225.56-33.49-1225.85-33.65L-1225.85-33.65L-1225.85-33.65z"/>
		</g>
	</g>
	<circle id="Ellipse_53" class="st18" cx="-472.08" cy="334.69" r="2.89"/>
	<g id="Group_472" transform="translate(768.217 381.6)">
		<path id="Path_2112" class="st18" d="M-1246.9-32.97c-0.3,0-0.59-0.07-0.85-0.21c-0.38-0.2-0.65-0.55-0.77-0.95
			c-0.14-0.46-0.09-0.95,0.14-1.37l6.54-12.11c0.06-0.11,0.13-0.21,0.21-0.31l0.38-0.49l0.51,0.61c0.51,0.6,1.03,1.22,1.54,1.83
			l0.22,0.26l-6.43,11.9C-1245.72-33.28-1246.29-32.96-1246.9-32.97L-1246.9-32.97z"/>
	</g>
	<g id="Group_473" transform="translate(724.352 326.814)">
		<path id="Path_2113" class="st19" d="M-1162.77,8.34c0,0.92-0.04,1.83-0.11,2.75c-0.03,0.44-0.08,0.89-0.13,1.33
			c-0.01,0.11-0.03,0.22-0.04,0.33c0,0.03-0.02,0.19,0,0.03c0.02-0.17,0,0.03-0.01,0.08c-0.03,0.22-0.06,0.44-0.1,0.65
			c-0.28,1.75-0.7,3.48-1.24,5.17c-0.27,0.82-0.56,1.62-0.89,2.42c-0.04,0.1-0.13,0.31-0.04,0.09c-0.04,0.1-0.08,0.2-0.13,0.29
			c-0.09,0.21-0.18,0.42-0.28,0.63c-0.18,0.39-0.36,0.77-0.55,1.15c-0.77,1.53-1.66,3-2.65,4.39c-0.25,0.36-0.51,0.71-0.78,1.06
			c0.12-0.16,0.03-0.04-0.03,0.04c-0.07,0.09-0.13,0.17-0.2,0.25c-0.14,0.18-0.28,0.35-0.43,0.53c-0.54,0.65-1.1,1.28-1.69,1.88
			c-0.6,0.62-1.21,1.21-1.85,1.78c-0.31,0.28-0.63,0.56-0.96,0.83c-0.16,0.13-0.33,0.27-0.49,0.4l-0.25,0.2l-0.11,0.08
			c-0.14,0.11,0.23-0.17-0.01,0.01c-1.36,1.04-2.79,1.97-4.29,2.8c-0.76,0.42-1.53,0.81-2.32,1.17c-0.18,0.08-0.36,0.16-0.54,0.24
			l-0.29,0.13c0.24-0.1-0.04,0.02-0.14,0.06c-0.4,0.16-0.8,0.32-1.2,0.46c-1.64,0.6-3.33,1.08-5.05,1.42
			c-0.45,0.09-0.89,0.17-1.34,0.24c-0.2,0.03-0.41,0.06-0.61,0.09c-0.04,0.01-0.25,0.03-0.08,0.01c0.16-0.02,0,0-0.03,0
			c-0.12,0.02-0.25,0.03-0.38,0.05c-0.9,0.11-1.81,0.18-2.72,0.21c-1.82,0.07-3.63-0.01-5.44-0.22l-0.33-0.04
			c-0.14-0.02,0.08,0.01,0.08,0.01l-0.19-0.03c-0.22-0.03-0.44-0.06-0.65-0.1c-0.43-0.07-0.87-0.15-1.3-0.23
			c-0.87-0.18-1.73-0.38-2.58-0.63c-0.85-0.24-1.68-0.51-2.51-0.82c-0.4-0.15-0.8-0.3-1.2-0.47l-0.17-0.07
			c0.01,0,0.2,0.09,0.08,0.03c-0.1-0.04-0.2-0.08-0.29-0.13c-0.2-0.09-0.39-0.17-0.58-0.26c-1.57-0.72-3.09-1.56-4.53-2.51
			c-0.71-0.46-1.39-0.96-2.07-1.47c0.23,0.18-0.03-0.02-0.08-0.06c-0.08-0.07-0.16-0.13-0.25-0.2c-0.18-0.14-0.35-0.28-0.52-0.43
			c-0.32-0.27-0.64-0.55-0.96-0.83c-1.27-1.14-2.45-2.37-3.53-3.68c-0.13-0.16-0.27-0.33-0.4-0.49c-0.07-0.08-0.13-0.16-0.2-0.25
			l-0.08-0.11c0.05,0.07,0.11,0.14,0.02,0.03c-0.26-0.35-0.52-0.7-0.78-1.06c-0.5-0.7-0.97-1.43-1.41-2.17
			c-0.44-0.73-0.85-1.47-1.23-2.23c-0.19-0.38-0.38-0.77-0.55-1.15c-0.09-0.19-0.18-0.39-0.26-0.59c-0.02-0.04-0.15-0.34-0.08-0.19
			c0.06,0.15,0,0-0.01-0.03l-0.09-0.21c-0.66-1.61-1.19-3.28-1.6-4.97c-0.2-0.87-0.38-1.74-0.52-2.63c-0.03-0.2-0.06-0.41-0.09-0.61
			c-0.01-0.06-0.03-0.24,0.01,0.04c-0.01-0.05-0.01-0.09-0.02-0.14c-0.02-0.13-0.03-0.25-0.05-0.38c-0.05-0.44-0.09-0.89-0.13-1.33
			c-0.14-1.82-0.13-3.64,0.01-5.45c0.04-0.46,0.08-0.92,0.14-1.38c0.01-0.11,0.03-0.22,0.04-0.33c-0.03,0.22-0.01,0.06,0.01-0.06
			c0.03-0.23,0.07-0.47,0.11-0.7c0.14-0.88,0.32-1.75,0.53-2.62c0.42-1.69,0.96-3.35,1.62-4.96c0.02-0.04,0.04-0.08,0.05-0.13
			c-0.1,0.25-0.04,0.09-0.01,0.03c0.04-0.08,0.07-0.17,0.11-0.25c0.09-0.21,0.19-0.42,0.28-0.63c0.18-0.4,0.38-0.8,0.58-1.19
			c0.39-0.76,0.8-1.5,1.24-2.23c0.45-0.74,0.92-1.46,1.42-2.16c0.11-0.16,0.23-0.32,0.35-0.48c0.06-0.08,0.13-0.17,0.19-0.25
			l0.11-0.14c0.02-0.02,0.14-0.18,0.04-0.06c-0.09,0.12,0.09-0.12,0.13-0.16c0.07-0.08,0.13-0.16,0.2-0.25
			c0.14-0.18,0.28-0.35,0.43-0.52c1.09-1.31,2.28-2.53,3.55-3.66c0.32-0.28,0.64-0.55,0.96-0.82c0.16-0.13,0.33-0.27,0.49-0.4
			l0.21-0.17c0.03-0.02,0.18-0.14,0.06-0.04c-0.13,0.1,0.03-0.03,0.06-0.04c0.69-0.52,1.39-1.02,2.11-1.49
			c1.44-0.94,2.94-1.76,4.51-2.47c0.19-0.09,0.39-0.17,0.59-0.26c0.06-0.03,0.37-0.15,0.09-0.04c0.11-0.05,0.23-0.09,0.34-0.14
			c0.4-0.16,0.8-0.31,1.2-0.46c0.81-0.29,1.63-0.56,2.47-0.79c0.85-0.24,1.72-0.44,2.59-0.61c0.43-0.08,0.86-0.16,1.3-0.23
			c0.22-0.03,0.44-0.07,0.66-0.1c0.14-0.02-0.08,0.01-0.08,0.01l0.19-0.02c0.13-0.02,0.25-0.03,0.38-0.04
			c1.81-0.2,3.63-0.27,5.44-0.19c0.91,0.04,1.82,0.12,2.72,0.22l0.28,0.04c-0.3-0.04,0.03,0,0.1,0.01c0.23,0.03,0.47,0.07,0.7,0.11
			c0.43,0.07,0.87,0.15,1.3,0.24c1.73,0.35,3.43,0.84,5.08,1.46c0.4,0.15,0.8,0.31,1.2,0.47c0.2,0.08-0.18-0.08,0.09,0.04l0.25,0.11
			c0.21,0.09,0.42,0.19,0.63,0.28c0.79,0.36,1.56,0.76,2.32,1.18c0.74,0.41,1.46,0.85,2.17,1.32c0.37,0.24,0.73,0.49,1.08,0.74
			c0.16,0.11,0.32,0.23,0.48,0.35c0.08,0.06,0.17,0.13,0.25,0.19c0.08,0.06,0.32,0.25,0.12,0.09c1.34,1.05,2.61,2.19,3.79,3.42
			c0.59,0.62,1.16,1.26,1.71,1.93c0.13,0.16,0.27,0.33,0.4,0.49l0.17,0.21c0.04,0.04,0.14,0.18-0.02-0.03l0.11,0.14
			c0.26,0.34,0.51,0.68,0.75,1.02c0.99,1.41,1.88,2.9,2.65,4.44c0.19,0.38,0.37,0.77,0.55,1.16c0.09,0.19,0.17,0.39,0.26,0.59
			c0.04,0.1,0.1,0.25,0.02,0.05c0.05,0.11,0.09,0.23,0.14,0.34c0.33,0.81,0.63,1.63,0.89,2.47c0.53,1.68,0.94,3.39,1.21,5.13
			c0.03,0.22,0.07,0.44,0.1,0.66c-0.03-0.25,0-0.01,0.01,0.1c0.01,0.11,0.03,0.22,0.04,0.33c0.05,0.43,0.09,0.86,0.12,1.28
			C-1162.8,6.57-1162.77,7.46-1162.77,8.34c0,0.66,0.54,1.2,1.2,1.2c0.66,0,1.2-0.54,1.2-1.2c0.01-7.37-2.27-14.56-6.53-20.57
			c-2.11-2.97-4.66-5.61-7.56-7.82c-15.22-11.59-36.87-9.1-49.06,5.64c-2.32,2.82-4.21,5.97-5.59,9.35
			c-1.39,3.41-2.23,7.02-2.51,10.69c-0.29,3.75,0.02,7.52,0.91,11.18c2.61,10.62,9.93,19.46,19.88,23.99
			c3.41,1.54,7.03,2.54,10.75,2.97c3.75,0.43,7.54,0.26,11.23-0.5c3.56-0.73,6.98-2,10.15-3.77c6.28-3.5,11.36-8.81,14.57-15.24
			c1.63-3.26,2.75-6.76,3.31-10.36c0.29-1.84,0.43-3.71,0.44-5.57c0-0.66-0.54-1.2-1.2-1.2C-1162.24,7.14-1162.77,7.68-1162.77,8.34
			L-1162.77,8.34z"/>
	</g>
</g>
</svg>
