<?xml version="1.0" encoding="utf-8"?>
<!-- Generator: Adobe Illustrator 25.2.1, SVG Export Plug-In . SVG Version: 6.00 Build 0)  -->
<svg version="1.1" id="Laag_1" xmlns="http://www.w3.org/2000/svg" xmlns:xlink="http://www.w3.org/1999/xlink" x="0px" y="0px"
	 viewBox="0 0 85.2 89.99" style="enable-background:new 0 0 85.2 89.99;" xml:space="preserve">
<style type="text/css">
	.st0{enable-background:new    ;}
	.st1{fill:url(#SVGID_1_);}
	.st2{fill:url(#SVGID_2_);}
	.st3{fill:url(#SVGID_3_);}
	.st4{fill:url(#SVGID_4_);}
	.st5{fill:url(#SVGID_5_);}
	.st6{fill:url(#SVGID_6_);}
	.st7{fill:url(#SVGID_7_);}
	.st8{fill:url(#SVGID_8_);}
	.st9{fill:url(#SVGID_9_);}
	.st10{fill:url(#SVGID_10_);}
	.st11{fill:url(#SVGID_11_);}
	.st12{fill:url(#SVGID_12_);}
	.st13{fill:url(#SVGID_13_);}
	.st14{fill:url(#SVGID_14_);}
	.st15{fill:url(#SVGID_15_);}
	.st16{fill:#EBFED1;stroke:#2C2C2C;stroke-width:2;}
	.st17{fill:#A8E533;}
	.st18{fill:#2C2C2C;}
	.st19{fill:#469612;}
	.st20{fill:#FCC4B9;}
	.st21{fill:#EFA89E;}
	.st22{fill:#A1A7B7;}
	.st23{fill:#FFFA7B;}
	.st24{fill:#BFFD6A;}
	.st25{fill:#C9C9C9;}
	.st26{fill:#FFFFFF;}
	.st27{fill:#D6D8ED;}
	.st28{fill:#8B93A0;}
	.st29{fill:#E18F81;}
	.st30{fill:#F96464;}
	.st31{fill:#1C9337;}
	.st32{fill:#147A27;}
	.st33{fill:#6EB42D;}
	.st34{fill:#619B23;}
	.st35{fill:#DBA065;}
	.st36{fill:#C18753;}
	.st37{fill:#FFD243;}
	.st38{fill:#737581;}
	.st39{fill:#EBFED1;}
	.st40{fill:#51545E;}
	.st41{fill:#40434C;}
	.st42{fill:#5E6270;}
	.st43{fill:#892F58;}
	.st44{fill:#231F20;}
	.st45{fill:#CBFD63;}
	.st46{fill:#001B01;}
	.st47{fill:#FFE98D;}
	.st48{fill:#FFD938;}
	.st49{fill:#525252;}
	.st50{fill:#DFE6F2;}
	.st51{fill:#E8A6A0;}
	.st52{fill:#717171;}
	.st53{fill:#21223F;}
	.st54{fill:#D3D5E2;}
	.st55{fill:#DDDDDD;}
	.st56{fill:#C8DDFC;}
	.st57{clip-path:url(#SVGID_17_);}
	.st58{fill:#67E9FF;}
	.st59{fill:#3B1B6D;}
	.st60{fill:#F96262;}
	.st61{fill:#315775;}
	.st62{fill:#DB9561;}
	.st63{fill:#BC7A4D;}
	.st64{clip-path:url(#SVGID_19_);}
	.st65{fill:#4CA934;}
	.st66{fill:#F9F6E5;}
	.st67{fill:#D8D3BC;}
	.st68{fill:#6F6F6D;}
	.st69{fill:#89C433;}
	.st70{fill:#FEFEFE;}
	.st71{fill:#E7E4EA;}
	.st72{fill:#DDD745;}
	.st73{fill:#9ED85B;}
	.st74{fill:#CCCCCA;}
	.st75{fill:#D3D3D3;}
	.st76{fill:#AEAEAE;}
	.st77{fill:#FEFFFF;}
	.st78{fill:#D5CE35;}
	.st79{fill:#EFF1FE;}
	.st80{fill:#BFFD6A;stroke:#2C2C2C;}
	.st81{fill:none;stroke:#2C2C2C;stroke-width:0.695;stroke-linecap:round;stroke-linejoin:round;}
	.st82{fill:#83E700;stroke:#2C2C2C;stroke-width:0.695;stroke-linecap:round;stroke-linejoin:round;}
	.st83{fill:#001B01;stroke:#2C2C2C;}
	.st84{fill:#469612;stroke:#2C2C2C;stroke-width:3;stroke-miterlimit:10;}
	.st85{fill:#7ECE29;}
	.st86{fill:#FFFA7B;stroke:#000000;stroke-width:2.5;}
	.st87{fill:#FFFA7B;stroke:#000000;stroke-width:2;}
</style>
<g id="Group_132" transform="translate(402.077 -7.864)">
	<g id="Group_129" transform="translate(15.051 12.268)">
		<path id="Path_161" class="st80" d="M-339.48,21.11l5.64,53.16c-0.02,5.19-4.22,9.39-9.41,9.41h-62.57
			c-5.19-0.01-9.39-4.22-9.41-9.41l5.64-53.16H-339.48z"/>
		<path id="Path_167" class="st83" d="M-338.08,20.96c-0.08-0.72-0.68-1.26-1.4-1.26h-9.98C-350.22,5.92-362-4.63-375.78-3.87
			c-12.71,0.7-22.86,10.85-23.56,23.56h-10.23c-0.72,0-1.32,0.55-1.4,1.26l-0.75,7.08c-0.06,0.14-0.09,0.3-0.09,0.45
			c0.01,0.05,0.02,0.09,0.03,0.14l-4.83,45.49c-0.01,0.05-0.01,0.1-0.01,0.15c0.01,5.97,4.85,10.81,10.82,10.82h62.56
			c5.97-0.01,10.81-4.85,10.82-10.82c0-0.05,0-0.1-0.01-0.15L-338.08,20.96z M-374.4-1.08c11.7,0.02,21.38,9.11,22.12,20.78h-44.24
			C-395.77,8.02-386.1-1.07-374.4-1.08z M-340.75,22.52l0.49,4.56h-68.53l0.48-4.56H-340.75z M-343.25,82.26h-62.57
			c-4.39,0-7.95-3.54-8-7.93l4.72-44.44h69.12l4.72,44.44C-335.29,78.73-338.86,82.26-343.25,82.26z"/>
	</g>
	<g id="Group_131" transform="translate(40.768 55.292)">
		<g id="Group_130">
			<path id="Path_168" class="st84" d="M-388.22,29.76c-2.62,1.29-5.5,1.96-8.43,1.96c-5.62,0-10.76-2.28-13.89-6.62
				c-1.28-1.78-2.18-3.8-2.65-5.94h-3.45v-4.29h2.86v-0.9c0.01-0.41,0.04-0.82,0.11-1.22h-2.97V8.45h3.6
				c0.65-2.37,1.78-4.57,3.34-6.47c3.24-3.82,8.03-5.98,13.05-5.88c2.85-0.01,5.68,0.53,8.32,1.59l-1.7,7.1
				c-1.87-0.76-3.87-1.17-5.88-1.22c-2.43-0.1-4.76,0.99-6.26,2.92c-0.44,0.6-0.79,1.26-1.06,1.96h12.51v4.29h-13.46
				c-0.05,0.46-0.06,0.92-0.05,1.38v0.74h13.52v4.29h-12.62c0.27,0.85,0.7,1.64,1.27,2.33c1.72,1.76,4.12,2.69,6.57,2.55
				c2.01-0.02,4-0.45,5.83-1.27L-388.22,29.76z"/>
		</g>
	</g>
</g>
</svg>
