<?xml version="1.0" encoding="utf-8"?>
<!-- Generator: Adobe Illustrator 25.2.1, SVG Export Plug-In . SVG Version: 6.00 Build 0)  -->
<svg version="1.1" id="Laag_1" xmlns="http://www.w3.org/2000/svg" xmlns:xlink="http://www.w3.org/1999/xlink" x="0px" y="0px"
	 viewBox="0 0 62.03 60.61" style="enable-background:new 0 0 62.03 60.61;" xml:space="preserve">
<style type="text/css">
	.st0{enable-background:new    ;}
	.st1{fill:url(#SVGID_1_);}
	.st2{fill:url(#SVGID_2_);}
	.st3{fill:url(#SVGID_3_);}
	.st4{fill:url(#SVGID_4_);}
	.st5{fill:url(#SVGID_5_);}
	.st6{fill:url(#SVGID_6_);}
	.st7{fill:url(#SVGID_7_);}
	.st8{fill:url(#SVGID_8_);}
	.st9{fill:url(#SVGID_9_);}
	.st10{fill:url(#SVGID_10_);}
	.st11{fill:url(#SVGID_11_);}
	.st12{fill:url(#SVGID_12_);}
	.st13{fill:url(#SVGID_13_);}
	.st14{fill:url(#SVGID_14_);}
	.st15{fill:url(#SVGID_15_);}
	.st16{fill:#EBFED1;stroke:#2C2C2C;stroke-width:2;}
	.st17{fill:#A8E533;}
	.st18{fill:#2C2C2C;}
	.st19{fill:#469612;}
	.st20{fill:#FCC4B9;}
	.st21{fill:#EFA89E;}
	.st22{fill:#A1A7B7;}
	.st23{fill:#FFFA7B;}
	.st24{fill:#BFFD6A;}
	.st25{fill:#C9C9C9;}
	.st26{fill:#FFFFFF;}
	.st27{fill:#D6D8ED;}
	.st28{fill:#8B93A0;}
	.st29{fill:#E18F81;}
	.st30{fill:#F96464;}
	.st31{fill:#1C9337;}
	.st32{fill:#147A27;}
	.st33{fill:#6EB42D;}
	.st34{fill:#619B23;}
	.st35{fill:#DBA065;}
	.st36{fill:#C18753;}
	.st37{fill:#FFD243;}
	.st38{fill:#737581;}
	.st39{fill:#EBFED1;}
	.st40{fill:#51545E;}
	.st41{fill:#40434C;}
	.st42{fill:#5E6270;}
	.st43{fill:#892F58;}
	.st44{fill:#231F20;}
	.st45{fill:#CBFD63;}
	.st46{fill:#001B01;}
	.st47{fill:#FFE98D;}
	.st48{fill:#FFD938;}
	.st49{fill:#525252;}
	.st50{fill:#DFE6F2;}
	.st51{fill:#E8A6A0;}
	.st52{fill:#717171;}
	.st53{fill:#21223F;}
	.st54{fill:#D3D5E2;}
	.st55{fill:#DDDDDD;}
	.st56{fill:#C8DDFC;}
	.st57{clip-path:url(#SVGID_17_);}
	.st58{fill:#67E9FF;}
	.st59{fill:#3B1B6D;}
	.st60{fill:#F96262;}
	.st61{fill:#315775;}
	.st62{fill:#DB9561;}
	.st63{fill:#BC7A4D;}
	.st64{clip-path:url(#SVGID_19_);}
	.st65{fill:#4CA934;}
	.st66{fill:#F9F6E5;}
	.st67{fill:#D8D3BC;}
	.st68{fill:#6F6F6D;}
	.st69{fill:#89C433;}
	.st70{fill:#FEFEFE;}
	.st71{fill:#E7E4EA;}
	.st72{fill:#DDD745;}
	.st73{fill:#9ED85B;}
	.st74{fill:#CCCCCA;}
	.st75{fill:#D3D3D3;}
	.st76{fill:#AEAEAE;}
	.st77{fill:#FEFFFF;}
	.st78{fill:#D5CE35;}
	.st79{fill:#EFF1FE;}
	.st80{fill:#BFFD6A;stroke:#2C2C2C;}
	.st81{fill:none;stroke:#2C2C2C;stroke-width:0.695;stroke-linecap:round;stroke-linejoin:round;}
	.st82{fill:#83E700;stroke:#2C2C2C;stroke-width:0.695;stroke-linecap:round;stroke-linejoin:round;}
	.st83{fill:#001B01;stroke:#2C2C2C;}
	.st84{fill:#469612;stroke:#2C2C2C;stroke-width:3;stroke-miterlimit:10;}
	.st85{fill:#7ECE29;}
	.st86{fill:#FFFA7B;stroke:#000000;stroke-width:2.5;}
	.st87{fill:#FFFA7B;stroke:#000000;stroke-width:2;}
</style>
<g id="Group_844" transform="translate(342.996 5.424)">
	<g id="Group_843">
		<path id="Path_2623" d="M-280.97-4.56c-0.08-0.55-0.59-0.94-1.15-0.86c-0.03,0-0.06,0.01-0.08,0.02l-54.36,13.48
			c-0.54,0.13-0.86,0.68-0.73,1.21c0.05,0.18,0.14,0.35,0.28,0.48l13.93,13.36l-2.76,17.15c-0.08,0.55,0.3,1.06,0.85,1.15
			c0.1,0.01,0.2,0.01,0.31,0l18.08-3.13l17.18,9.7c0.48,0.27,1.09,0.1,1.36-0.38c0.06-0.11,0.1-0.23,0.12-0.36l6.96-51.56
			C-280.96-4.38-280.96-4.47-280.97-4.56z M-334.32,9.59l47.24-11.72l-34.64,23.81L-334.32,9.59z M-307.05,36.35l-16.6,2.88
			l2.5-15.5l36.05-24.78L-307.05,36.35z M-289.72,45.53l-15.32-8.65l21.42-36.51L-289.72,45.53z"/>
		<path id="Path_2624" d="M-329.52,44.49l-4.7,5.21c-0.36,0.42-0.31,1.05,0.1,1.41c0.41,0.35,1.01,0.32,1.38-0.07l4.69-5.21
			c0.38-0.4,0.36-1.03-0.04-1.41c-0.4-0.38-1.03-0.36-1.41,0.04C-329.51,44.47-329.51,44.48-329.52,44.49L-329.52,44.49z"/>
		<path id="Path_2625" d="M-338.02,21.94l-4.69,5.21c-0.39,0.39-0.39,1.03,0.01,1.41c0.39,0.39,1.03,0.39,1.41-0.01
			c0.02-0.02,0.04-0.05,0.07-0.07l4.69-5.2c0.37-0.41,0.34-1.04-0.07-1.41C-337.01,21.5-337.65,21.53-338.02,21.94L-338.02,21.94z"
			/>
		<path id="Path_2626" d="M-303.15,48.31l-4.69,5.21c-0.37,0.41-0.34,1.04,0.07,1.41c0.41,0.37,1.04,0.34,1.41-0.07l0,0l4.69-5.21
			c0.37-0.41,0.34-1.04-0.07-1.41C-302.15,47.87-302.78,47.9-303.15,48.31L-303.15,48.31L-303.15,48.31z"/>
	</g>
</g>
</svg>
