<?xml version="1.0" encoding="utf-8"?>
<!-- Generator: Adobe Illustrator 25.2.1, SVG Export Plug-In . SVG Version: 6.00 Build 0)  -->
<svg version="1.1" id="Laag_1" xmlns="http://www.w3.org/2000/svg" xmlns:xlink="http://www.w3.org/1999/xlink" x="0px" y="0px"
	 viewBox="0 0 45.07 42.4" style="enable-background:new 0 0 45.07 42.4;" xml:space="preserve">
<style type="text/css">
	.st0{enable-background:new    ;}
	.st1{fill:url(#SVGID_1_);}
	.st2{fill:url(#SVGID_2_);}
	.st3{fill:url(#SVGID_3_);}
	.st4{fill:url(#SVGID_4_);}
	.st5{fill:url(#SVGID_5_);}
	.st6{fill:url(#SVGID_6_);}
	.st7{fill:url(#SVGID_7_);}
	.st8{fill:url(#SVGID_8_);}
	.st9{fill:url(#SVGID_9_);}
	.st10{fill:url(#SVGID_10_);}
	.st11{fill:url(#SVGID_11_);}
	.st12{fill:url(#SVGID_12_);}
	.st13{fill:url(#SVGID_13_);}
	.st14{fill:url(#SVGID_14_);}
	.st15{fill:url(#SVGID_15_);}
	.st16{fill:#EBFED1;stroke:#2C2C2C;stroke-width:2;}
	.st17{fill:#A8E533;}
	.st18{fill:#2C2C2C;}
	.st19{fill:#469612;}
	.st20{fill:#FCC4B9;}
	.st21{fill:#EFA89E;}
	.st22{fill:#A1A7B7;}
	.st23{fill:#FFFA7B;}
	.st24{fill:#BFFD6A;}
	.st25{fill:#C9C9C9;}
	.st26{fill:#FFFFFF;}
	.st27{fill:#D6D8ED;}
	.st28{fill:#8B93A0;}
	.st29{fill:#E18F81;}
	.st30{fill:#F96464;}
	.st31{fill:#1C9337;}
	.st32{fill:#147A27;}
	.st33{fill:#6EB42D;}
	.st34{fill:#619B23;}
	.st35{fill:#DBA065;}
	.st36{fill:#C18753;}
	.st37{fill:#FFD243;}
	.st38{fill:#737581;}
	.st39{fill:#EBFED1;}
	.st40{fill:#51545E;}
	.st41{fill:#40434C;}
	.st42{fill:#5E6270;}
	.st43{fill:#892F58;}
	.st44{fill:#231F20;}
	.st45{fill:#CBFD63;}
	.st46{fill:#001B01;}
	.st47{fill:#FFE98D;}
	.st48{fill:#FFD938;}
	.st49{fill:#525252;}
	.st50{fill:#DFE6F2;}
	.st51{fill:#E8A6A0;}
	.st52{fill:#717171;}
	.st53{fill:#21223F;}
	.st54{fill:#D3D5E2;}
	.st55{fill:#DDDDDD;}
	.st56{fill:#C8DDFC;}
	.st57{clip-path:url(#SVGID_17_);}
	.st58{fill:#67E9FF;}
	.st59{fill:#3B1B6D;}
	.st60{fill:#F96262;}
	.st61{fill:#315775;}
	.st62{fill:#DB9561;}
	.st63{fill:#BC7A4D;}
	.st64{clip-path:url(#SVGID_19_);}
	.st65{fill:#4CA934;}
	.st66{fill:#F9F6E5;}
	.st67{fill:#D8D3BC;}
	.st68{fill:#6F6F6D;}
	.st69{fill:#89C433;}
	.st70{fill:#FEFEFE;}
	.st71{fill:#E7E4EA;}
	.st72{fill:#DDD745;}
	.st73{fill:#9ED85B;}
	.st74{fill:#CCCCCA;}
	.st75{fill:#D3D3D3;}
	.st76{fill:#AEAEAE;}
	.st77{fill:#FEFFFF;}
	.st78{fill:#D5CE35;}
	.st79{fill:#EFF1FE;}
	.st80{fill:#BFFD6A;stroke:#2C2C2C;}
	.st81{fill:none;stroke:#2C2C2C;stroke-width:0.695;stroke-linecap:round;stroke-linejoin:round;}
	.st82{fill:#83E700;stroke:#2C2C2C;stroke-width:0.695;stroke-linecap:round;stroke-linejoin:round;}
	.st83{fill:#001B01;stroke:#2C2C2C;}
	.st84{fill:#469612;stroke:#2C2C2C;stroke-width:3;stroke-miterlimit:10;}
	.st85{fill:#7ECE29;}
	.st86{fill:#FFFA7B;stroke:#000000;stroke-width:2.5;}
	.st87{fill:#FFFA7B;stroke:#000000;stroke-width:2;}
</style>
<ellipse id="Ellipse_55" class="st16" cx="20.04" cy="23.08" rx="17.5" ry="17.5"/>
<g id="Group_530" transform="translate(-433.088 -820.957)">
	<g id="Group_526" transform="translate(440.771 824.451)">
		<g id="Group_525" transform="translate(0)">
			<g id="Group_524">
				<path id="Path_2148" class="st17" d="M31.83,5.31l-17.5,16.34l-8.18-8c-1.07-1.05-2.78-1.03-3.83,0.04
					c-1.05,1.07-1.03,2.78,0.04,3.83l10.04,9.8c1.04,1.01,2.68,1.03,3.74,0.04l19.39-18.1c1.09-1.02,1.15-2.74,0.13-3.83
					C34.63,4.35,32.91,4.29,31.83,5.31L31.83,5.31L31.83,5.31z"/>
			</g>
		</g>
	</g>
	<g id="Group_529" transform="translate(439.777 823.457)">
		<g id="Group_528">
			<g id="Group_527">
				<path id="Path_2149" class="st18" d="M32.14,5.58L15.34,21.27l-7.5-7.33c-0.7-0.69-1.65-1.07-2.63-1.05
					c-2.04,0.02-3.68,1.69-3.67,3.73c0.01,0.99,0.41,1.93,1.12,2.62l10.04,9.8c1.42,1.39,3.67,1.41,5.12,0.06L37.2,10.99
					c1.5-1.4,1.58-3.74,0.18-5.24C35.99,4.26,33.64,4.18,32.14,5.58L32.14,5.58L32.14,5.58z M35.84,9.54L16.45,27.65
					c-0.67,0.62-1.71,0.61-2.37-0.03l-10.04-9.8c-0.68-0.66-0.69-1.74-0.03-2.42c0.32-0.33,0.75-0.51,1.21-0.52h0.02
					c0.45,0,0.88,0.17,1.2,0.49l8.18,8c0.38,0.37,0.99,0.38,1.37,0.02l17.5-16.34c0.66-0.67,1.75-0.68,2.42-0.02
					c0.67,0.66,0.68,1.75,0.02,2.42C35.92,9.48,35.88,9.51,35.84,9.54L35.84,9.54z"/>
			</g>
		</g>
	</g>
</g>
</svg>
