<?xml version="1.0" encoding="utf-8"?>
<!-- Generator: Adobe Illustrator 25.2.1, SVG Export Plug-In . SVG Version: 6.00 Build 0)  -->
<svg version="1.1" id="Laag_1" xmlns="http://www.w3.org/2000/svg" xmlns:xlink="http://www.w3.org/1999/xlink" x="0px" y="0px"
	 viewBox="0 0 62 61.57" style="enable-background:new 0 0 62 61.57;" xml:space="preserve">
<style type="text/css">
	.st0{enable-background:new    ;}
	.st1{fill:url(#SVGID_1_);}
	.st2{fill:url(#SVGID_2_);}
	.st3{fill:url(#SVGID_3_);}
	.st4{fill:url(#SVGID_4_);}
	.st5{fill:url(#SVGID_5_);}
	.st6{fill:url(#SVGID_6_);}
	.st7{fill:url(#SVGID_7_);}
	.st8{fill:url(#SVGID_8_);}
	.st9{fill:url(#SVGID_9_);}
	.st10{fill:url(#SVGID_10_);}
	.st11{fill:url(#SVGID_11_);}
	.st12{fill:url(#SVGID_12_);}
	.st13{fill:url(#SVGID_13_);}
	.st14{fill:url(#SVGID_14_);}
	.st15{fill:url(#SVGID_15_);}
	.st16{fill:#EBFED1;stroke:#2C2C2C;stroke-width:2;}
	.st17{fill:#A8E533;}
	.st18{fill:#2C2C2C;}
	.st19{fill:#469612;}
	.st20{fill:#FCC4B9;}
	.st21{fill:#EFA89E;}
	.st22{fill:#A1A7B7;}
	.st23{fill:#FFFA7B;}
	.st24{fill:#BFFD6A;}
	.st25{fill:#C9C9C9;}
	.st26{fill:#FFFFFF;}
	.st27{fill:#D6D8ED;}
	.st28{fill:#8B93A0;}
	.st29{fill:#E18F81;}
	.st30{fill:#F96464;}
	.st31{fill:#1C9337;}
	.st32{fill:#147A27;}
	.st33{fill:#6EB42D;}
	.st34{fill:#619B23;}
	.st35{fill:#DBA065;}
	.st36{fill:#C18753;}
	.st37{fill:#FFD243;}
	.st38{fill:#737581;}
	.st39{fill:#EBFED1;}
	.st40{fill:#51545E;}
	.st41{fill:#40434C;}
	.st42{fill:#5E6270;}
	.st43{fill:#892F58;}
	.st44{fill:#231F20;}
	.st45{fill:#CBFD63;}
	.st46{fill:#001B01;}
	.st47{fill:#FFE98D;}
	.st48{fill:#FFD938;}
	.st49{fill:#525252;}
	.st50{fill:#DFE6F2;}
	.st51{fill:#E8A6A0;}
	.st52{fill:#717171;}
	.st53{fill:#21223F;}
	.st54{fill:#D3D5E2;}
	.st55{fill:#DDDDDD;}
	.st56{fill:#C8DDFC;}
	.st57{clip-path:url(#SVGID_17_);}
	.st58{fill:#67E9FF;}
	.st59{fill:#3B1B6D;}
	.st60{fill:#F96262;}
	.st61{fill:#315775;}
	.st62{fill:#DB9561;}
	.st63{fill:#BC7A4D;}
	.st64{clip-path:url(#SVGID_19_);}
	.st65{fill:#4CA934;}
	.st66{fill:#F9F6E5;}
	.st67{fill:#D8D3BC;}
	.st68{fill:#6F6F6D;}
	.st69{fill:#89C433;}
	.st70{fill:#FEFEFE;}
	.st71{fill:#E7E4EA;}
	.st72{fill:#DDD745;}
	.st73{fill:#9ED85B;}
	.st74{fill:#CCCCCA;}
	.st75{fill:#D3D3D3;}
	.st76{fill:#AEAEAE;}
	.st77{fill:#FEFFFF;}
	.st78{fill:#D5CE35;}
	.st79{fill:#EFF1FE;}
	.st80{fill:#BFFD6A;stroke:#2C2C2C;}
	.st81{fill:none;stroke:#2C2C2C;stroke-width:0.695;stroke-linecap:round;stroke-linejoin:round;}
	.st82{fill:#83E700;stroke:#2C2C2C;stroke-width:0.695;stroke-linecap:round;stroke-linejoin:round;}
	.st83{fill:#001B01;stroke:#2C2C2C;}
	.st84{fill:#469612;stroke:#2C2C2C;stroke-width:3;stroke-miterlimit:10;}
	.st85{fill:#7ECE29;}
	.st86{fill:#FFFA7B;stroke:#000000;stroke-width:2.5;}
	.st87{fill:#FFFA7B;stroke:#000000;stroke-width:2;}
</style>
<g id="Group_842" transform="translate(-0.998 -1.219)">
	<g id="Group_841">
		<path id="Path_2618" d="M37.06,18.06H37c-0.54,0-0.97,0.44-0.97,0.98c0,0.01,0,0.01,0,0.02c0.01,0.56,0.47,1,1.03,1
			c0.55,0,1-0.45,1-1S37.61,18.06,37.06,18.06L37.06,18.06z"/>
		<path id="Path_2619" d="M45.18,18.06h-0.06c-0.54,0-0.97,0.44-0.97,0.98c0,0.01,0,0.01,0,0.02c0.01,0.56,0.47,1,1.03,1
			c0.55,0,1-0.45,1-1S45.73,18.06,45.18,18.06z"/>
		<path id="Path_2620" d="M53.3,18.06h-0.06c-0.54,0-0.97,0.44-0.97,0.98c0,0.01,0,0.01,0,0.02c0.01,0.56,0.47,1,1.03,1
			c0.55,0,1-0.45,1-1S53.85,18.06,53.3,18.06z"/>
		<path id="Path_2621" d="M45.2,45.93c-5.15-2.9-6.69-2.67-10.62-0.45c-2.01,1.34-4.44,0.52-8.66-2.91
			c-0.83-0.67-1.66-1.43-2.47-2.23s-1.56-1.64-2.23-2.47c-3.18-3.9-4.04-7.46-3.01-8.53c3.04-3.27,2.35-5.96-0.33-10.72
			c-1.62-3.06-3.39-6.1-5.76-6.8c-1.71-0.5-4.26,0.81-5.02,1.32c-2.13,1.52-3.8,3.59-4.83,5.99c-1.9,4.41-1.39,9.73-0.29,13.24
			c1.81,5.75,6.16,12.41,11.64,17.81c5.4,5.48,12.06,9.83,17.81,11.63c2.12,0.65,4.32,0.98,6.53,0.98c2.3,0.03,4.58-0.4,6.71-1.27
			c2.4-1.03,4.47-2.7,5.99-4.83c0.5-0.76,1.83-3.3,1.32-5.02C51.28,49.31,48.23,47.53,45.2,45.93z M44.24,47.68
			c1.85,0.98,5.3,2.8,5.81,4.55c0.06,0.57-0.03,1.15-0.26,1.68l-13.53-7.09C38.81,45.42,39.84,45.2,44.24,47.68z M11.55,13.73
			c1.75,0.52,3.57,3.97,4.57,5.84c2.62,4.65,2.61,6.11,0.93,8.06l-7.3-13.6c0.48-0.19,0.98-0.31,1.5-0.34
			C11.35,13.69,11.45,13.7,11.55,13.73z M43.87,59.68c-3.92,1.68-8.83,1.17-11.85,0.22c-5.45-1.71-11.8-5.88-16.99-11.13l-0.01-0.01
			C9.77,43.57,5.61,37.22,3.89,31.77c-0.95-3.02-1.46-7.93,0.22-11.85c0.84-1.96,2.18-3.66,3.87-4.95l7.92,14.76
			c-0.44,2.37,0.92,5.9,3.77,9.4c0.75,0.91,1.54,1.79,2.37,2.62c0.86,0.86,1.74,1.65,2.62,2.37c3.09,2.51,6.33,4.63,9.37,3.79
			L48.9,55.7C47.61,57.45,45.87,58.82,43.87,59.68z"/>
		<path id="Path_2622" d="M60.96,10.77c-4.59-8.72-15.37-12.08-24.1-7.51l0,0c-8.73,4.57-12.1,15.35-7.53,24.07
			c0.34,0.65,0.72,1.28,1.14,1.89l-2.7,4.63c-0.28,0.48-0.12,1.09,0.36,1.37c0.18,0.1,0.39,0.15,0.59,0.13l7.75-0.69
			c8.61,4.79,19.48,1.7,24.27-6.92C63.67,22.48,63.75,16.1,60.96,10.77z M52.51,33.1c-4.82,2.54-10.61,2.42-15.31-0.33
			c-0.15-0.09-0.32-0.13-0.5-0.13c-0.03,0-0.06,0-0.09,0l-6.13,0.54l2.05-3.52c0.2-0.35,0.18-0.78-0.06-1.1
			c-0.5-0.68-0.95-1.39-1.35-2.14c-4.06-7.75-1.07-17.33,6.67-21.4l0,0c7.75-4.06,17.33-1.07,21.4,6.68S60.27,29.04,52.51,33.1
			L52.51,33.1z"/>
	</g>
</g>
</svg>
