<?xml version="1.0" encoding="utf-8"?>
<!-- Generator: Adobe Illustrator 25.2.1, SVG Export Plug-In . SVG Version: 6.00 Build 0)  -->
<svg version="1.1" id="Laag_1" xmlns="http://www.w3.org/2000/svg" xmlns:xlink="http://www.w3.org/1999/xlink" x="0px" y="0px"
	 viewBox="0 0 169.71 89.22" style="enable-background:new 0 0 169.71 89.22;" xml:space="preserve">
<style type="text/css">
	.st0{enable-background:new    ;}
	.st1{fill:url(#SVGID_1_);}
	.st2{fill:url(#SVGID_2_);}
	.st3{fill:url(#SVGID_3_);}
	.st4{fill:url(#SVGID_4_);}
	.st5{fill:url(#SVGID_5_);}
	.st6{fill:url(#SVGID_6_);}
	.st7{fill:url(#SVGID_7_);}
	.st8{fill:url(#SVGID_8_);}
	.st9{fill:url(#SVGID_9_);}
	.st10{fill:url(#SVGID_10_);}
	.st11{fill:url(#SVGID_11_);}
	.st12{fill:url(#SVGID_12_);}
	.st13{fill:url(#SVGID_13_);}
	.st14{fill:url(#SVGID_14_);}
	.st15{fill:url(#SVGID_15_);}
	.st16{fill:#EBFED1;stroke:#2C2C2C;stroke-width:2;}
	.st17{fill:#A8E533;}
	.st18{fill:#2C2C2C;}
	.st19{fill:#469612;}
	.st20{fill:#FCC4B9;}
	.st21{fill:#EFA89E;}
	.st22{fill:#A1A7B7;}
	.st23{fill:#FFFA7B;}
	.st24{fill:#BFFD6A;}
	.st25{fill:#C9C9C9;}
	.st26{fill:#FFFFFF;}
	.st27{fill:#D6D8ED;}
	.st28{fill:#8B93A0;}
	.st29{fill:#E18F81;}
	.st30{fill:#F96464;}
	.st31{fill:#1C9337;}
	.st32{fill:#147A27;}
	.st33{fill:#6EB42D;}
	.st34{fill:#619B23;}
	.st35{fill:#DBA065;}
	.st36{fill:#C18753;}
	.st37{fill:#FFD243;}
	.st38{fill:#737581;}
	.st39{fill:#EBFED1;}
	.st40{fill:#51545E;}
	.st41{fill:#40434C;}
	.st42{fill:#5E6270;}
	.st43{fill:#892F58;}
	.st44{fill:#231F20;}
	.st45{fill:#CBFD63;}
	.st46{fill:#001B01;}
	.st47{fill:#FFE98D;}
	.st48{fill:#FFD938;}
	.st49{fill:#525252;}
	.st50{fill:#DFE6F2;}
	.st51{fill:#E8A6A0;}
	.st52{fill:#717171;}
	.st53{fill:#21223F;}
	.st54{fill:#D3D5E2;}
	.st55{fill:#DDDDDD;}
	.st56{fill:#C8DDFC;}
	.st57{clip-path:url(#SVGID_17_);}
	.st58{fill:#67E9FF;}
	.st59{fill:#3B1B6D;}
	.st60{fill:#F96262;}
	.st61{fill:#315775;}
	.st62{fill:#DB9561;}
	.st63{fill:#BC7A4D;}
	.st64{clip-path:url(#SVGID_19_);}
	.st65{fill:#4CA934;}
	.st66{fill:#F9F6E5;}
	.st67{fill:#D8D3BC;}
	.st68{fill:#6F6F6D;}
	.st69{fill:#89C433;}
	.st70{fill:#FEFEFE;}
	.st71{fill:#E7E4EA;}
	.st72{fill:#DDD745;}
	.st73{fill:#9ED85B;}
	.st74{fill:#CCCCCA;}
	.st75{fill:#D3D3D3;}
	.st76{fill:#AEAEAE;}
	.st77{fill:#FEFFFF;}
	.st78{fill:#D5CE35;}
	.st79{fill:#EFF1FE;}
	.st80{fill:#BFFD6A;stroke:#2C2C2C;}
	.st81{fill:none;stroke:#2C2C2C;stroke-width:0.695;stroke-linecap:round;stroke-linejoin:round;}
	.st82{fill:#83E700;stroke:#2C2C2C;stroke-width:0.695;stroke-linecap:round;stroke-linejoin:round;}
	.st83{fill:#001B01;stroke:#2C2C2C;}
	.st84{fill:#469612;stroke:#2C2C2C;stroke-width:3;stroke-miterlimit:10;}
	.st85{fill:#7ECE29;}
	.st86{fill:#FFFA7B;stroke:#000000;stroke-width:2.5;}
	.st87{fill:#FFFA7B;stroke:#000000;stroke-width:2;}
</style>
<g id="Group_593" transform="translate(-226.337 -1538.663)">
	<g id="Group_546" transform="translate(260.98 1716.903)">
		<g id="Group_544" transform="translate(2.772 3.478)">
			<path id="Path_2155" class="st75" d="M-18.93-94.16c0,0,7.07-9.38,18.13-6.54c0,0,5.98-7.1,18.98-5.12
				c7.81,1.24,14.86,5.41,19.72,11.66H-18.93z"/>
		</g>
		<g id="Group_545">
			<path id="Path_2156" class="st18" d="M-14.8-89.65l-2.73-2.07c0.31-0.41,7.49-9.72,18.96-7.39c2.09-1.94,8.49-6.65,19.79-4.93
				c8.29,1.3,15.76,5.72,20.87,12.37l-2.81,1.95c-0.06-0.09-6.51-9.1-18.58-10.94c-11.8-1.8-17.2,4.28-17.42,4.54
				c-0.43,0.49-1.09,0.71-1.73,0.55C-8.24-98.07-14.53-89.99-14.8-89.65z"/>
		</g>
	</g>
	<g id="Group_547" transform="translate(226.337 1741.13)">
		<path id="Path_2157" class="st18" d="M167.97-113.25H1.74c-0.95,0.02-1.73-0.74-1.74-1.68c-0.02-0.95,0.74-1.73,1.68-1.74
			c0.02,0,0.04,0,0.06,0h166.22c0.95-0.02,1.73,0.74,1.74,1.68c0.02,0.95-0.74,1.73-1.68,1.74
			C168.01-113.25,167.99-113.25,167.97-113.25z"/>
	</g>
	<g id="Group_592" transform="translate(256.027 1567.199)">
		<g id="Group_579">
			<g id="Group_555" transform="translate(12.172 112.247)">
				<g id="Group_548" transform="translate(16.708 16.708)">
					<path id="Path_2158" class="st26" d="M-29.65-76.81v-17.08h66.03c1.36,0,2.47,1.11,2.47,2.47v12.14c0,1.36-1.11,2.47-2.47,2.47
						L-29.65-76.81z"/>
				</g>
				<g id="Group_549" transform="translate(13.237 13.237)">
					<path id="Path_2159" class="st18" d="M39.85-71.62h-66.03c-0.95,0-1.71-0.77-1.71-1.71l0,0v-17.08c0-0.95,0.77-1.71,1.71-1.71
						h0h66.03c2.31,0,4.18,1.87,4.18,4.18v12.14C44.03-73.5,42.16-71.63,39.85-71.62z M-24.47-75.05h64.32
						c0.42,0,0.76-0.34,0.76-0.76v-12.14c0-0.42-0.34-0.76-0.76-0.76h-64.32V-75.05z"/>
				</g>
				<g id="Group_550" transform="translate(3.472 3.472)">
					<path id="Path_2160" class="st24" d="M49.62-87.18h-72.56v6.53h72.56c1.36,0,2.47,1.11,2.47,2.47v12.14
						c0,1.36-1.11,2.47-2.47,2.47h-72.56v6.53h72.56c4.97,0,9-4.03,9-9v-12.14C58.62-83.15,54.59-87.18,49.62-87.18
						C49.62-87.18,49.62-87.18,49.62-87.18z"/>
				</g>
				<g id="Group_551">
					<path id="Path_2161" class="st18" d="M53.09-51.86h-72.56c-0.95,0-1.71-0.77-1.71-1.71l0,0v-6.53c0-0.95,0.77-1.71,1.71-1.71h0
						h72.56c0.42,0,0.76-0.34,0.76-0.76v-12.14c0-0.42-0.34-0.76-0.76-0.76h-72.56c-0.95,0-1.71-0.77-1.71-1.71l0,0v-6.53
						c0-0.95,0.77-1.71,1.71-1.71h0h72.56C59-85.41,63.8-80.62,63.8-74.71v12.14C63.8-56.66,59-51.86,53.09-51.86z M-17.76-55.28
						h70.85c4.02,0,7.28-3.26,7.29-7.29v-12.14c0-4.02-3.26-7.28-7.29-7.29h-70.85v3.1h70.85c2.31,0,4.18,1.87,4.18,4.18v12.14
						c0,2.31-1.87,4.18-4.18,4.18h-70.85L-17.76-55.28z"/>
				</g>
				<g id="Group_552" transform="translate(132.187 26.397)">
					<path id="Path_2162" class="st18" d="M-88.17-98.79h7.25v7.25l-3.62-3.42l-3.62,3.42L-88.17-98.79z"/>
				</g>
				<g id="Group_553" transform="translate(62.934 24.314)">
					<path id="Path_2163" class="st18" d="M-21.8-95.68h-30.25c-0.57,0-1.03-0.46-1.03-1.03s0.46-1.03,1.03-1.03h30.25
						c0.57,0,1.03,0.46,1.03,1.03S-21.23-95.68-21.8-95.68z"/>
				</g>
				<g id="Group_554" transform="translate(27.194 35.183)">
					<path id="Path_2164" class="st18" d="M-3.69-101.19h-30.25c-0.57,0-1.03-0.46-1.03-1.03s0.46-1.03,1.03-1.03h30.25
						c0.57,0,1.03,0.46,1.03,1.03S-3.12-101.19-3.69-101.19z"/>
				</g>
			</g>
			<g id="Group_563">
				<g id="Group_556" transform="translate(16.708 16.708)">
					<path id="Path_2165" class="st26" d="M45.02-19.93V-37h-66.03c-1.36,0-2.47,1.11-2.47,2.47v12.14c0,1.36,1.11,2.47,2.47,2.47
						c0,0,0,0,0,0L45.02-19.93z"/>
				</g>
				<g id="Group_557" transform="translate(13.237 13.237)">
					<path id="Path_2166" class="st18" d="M48.49-14.74h-66.03c-2.31,0-4.18-1.87-4.18-4.18v-12.14c0-2.31,1.87-4.18,4.18-4.18
						h66.03c0.95,0,1.71,0.77,1.71,1.71l0,0v17.08C50.2-15.51,49.44-14.74,48.49-14.74z M-17.54-31.82c-0.42,0-0.76,0.34-0.76,0.76
						v12.14c0,0.42,0.34,0.76,0.76,0.76h64.32v-13.65H-17.54z"/>
				</g>
				<g id="Group_558" transform="translate(3.472 3.472)">
					<path id="Path_2167" class="st24" d="M-7.78-30.3h72.56v6.53H-7.78c-1.36,0-2.47,1.11-2.47,2.47v12.14
						c0,1.36,1.11,2.47,2.47,2.47h72.56v6.53H-7.78c-4.97,0-9-4.03-9-9c0,0,0,0,0,0V-21.3C-16.77-26.27-12.75-30.3-7.78-30.3z"/>
				</g>
				<g id="Group_559">
					<path id="Path_2168" class="st18" d="M68.26,5.03H-4.3c-5.91-0.01-10.71-4.8-10.71-10.71v-12.14
						c0.01-5.91,4.8-10.71,10.71-10.71h72.56c0.95,0,1.71,0.77,1.71,1.71l0,0v6.53c0,0.95-0.77,1.71-1.71,1.71h0H-4.3
						c-0.42,0-0.76,0.34-0.76,0.76v12.14c0,0.42,0.34,0.76,0.76,0.76h72.56c0.95,0,1.71,0.77,1.71,1.71l0,0v6.53
						C69.97,4.26,69.2,5.03,68.26,5.03z M-4.3-25.11c-4.02,0-7.28,3.26-7.29,7.29v12.14c0,4.02,3.26,7.28,7.29,7.29h70.85v-3.1H-4.3
						c-2.31,0-4.18-1.87-4.18-4.18v-12.14c0-2.31,1.87-4.18,4.18-4.18h70.85v-3.1H-4.3z"/>
				</g>
				<g id="Group_560" transform="translate(25.419 26.398)">
					<path id="Path_2169" class="st18" d="M-20.65-41.91h-7.25v7.25l3.62-3.42l3.62,3.42L-20.65-41.91z"/>
				</g>
				<g id="Group_561" transform="translate(43.868 24.315)">
					<path id="Path_2170" class="st18" d="M-5.97-38.8h-30.25c-0.57,0-1.03-0.46-1.03-1.03c0-0.57,0.46-1.03,1.03-1.03h30.25
						c0.57,0,1.03,0.46,1.03,1.03C-4.94-39.26-5.4-38.8-5.97-38.8L-5.97-38.8z"/>
				</g>
				<g id="Group_562" transform="translate(79.607 35.184)">
					<path id="Path_2171" class="st18" d="M-24.08-44.31h-30.25c-0.57,0-1.03-0.46-1.03-1.03s0.46-1.03,1.03-1.03h30.25
						c0.57,0,1.03,0.46,1.03,1.03S-23.51-44.31-24.08-44.31L-24.08-44.31z"/>
				</g>
			</g>
			<g id="Group_572" transform="translate(19.233 61.096)">
				<g id="Group_564" transform="translate(3.471 3.472)">
					<path id="Rectangle_78" class="st24" d="M-22.36-61.26h73.29c2.3,0,4.16,1.86,4.16,4.16v16.91c0,2.3-1.86,4.16-4.16,4.16
						h-73.29c-2.3,0-4.16-1.86-4.16-4.16V-57.1C-26.52-59.39-24.66-61.26-22.36-61.26z"/>
				</g>
				<g id="Group_565" transform="translate(22.003 3.472)">
					<rect id="Rectangle_79" x="-35.91" y="-61.26" class="st26" width="4.9" height="25.23"/>
				</g>
				<g id="Group_566" transform="translate(39.313 3.472)">
					<rect id="Rectangle_80" x="-44.68" y="-61.26" class="st26" width="4.9" height="25.23"/>
				</g>
				<g id="Group_567" transform="translate(135.28 3.472)">
					<rect id="Rectangle_81" x="-93.32" y="-61.26" class="st26" width="4.9" height="25.23"/>
				</g>
				<g id="Group_568" transform="translate(22.003 3.472)">
					<rect id="Rectangle_82" x="-35.91" y="-61.26" class="st19" width="4.9" height="25.23"/>
				</g>
				<g id="Group_569" transform="translate(39.313 3.472)">
					<rect id="Rectangle_83" x="-44.68" y="-61.26" class="st19" width="4.9" height="25.23"/>
				</g>
				<g id="Group_570" transform="translate(135.28 3.472)">
					<rect id="Rectangle_84" x="-93.32" y="-61.26" class="st19" width="4.9" height="25.23"/>
				</g>
				<g id="Group_571">
					<path id="Path_2172" class="st18" d="M54.86-30.84h-74.21c-2.99,0-5.41-2.42-5.41-5.41v-17.83c0-2.99,2.42-5.41,5.41-5.41
						h74.21c2.99,0,5.41,2.42,5.41,5.41v17.83C60.27-33.27,57.85-30.85,54.86-30.84z M-19.35-56.07c-1.1,0-1.99,0.89-1.99,1.99
						v17.83c0,1.1,0.89,1.99,1.99,1.99h74.21c1.1,0,1.99-0.89,1.99-1.99v-17.83c0-1.1-0.89-1.99-1.99-1.99L-19.35-56.07z"/>
				</g>
			</g>
			<g id="Group_578" transform="translate(180.588 6.136)">
				<g id="Group_573" transform="translate(2.417 2.417)">
					<path id="Rectangle_85" class="st19" d="M-89.51-29.43l13.73,73.34c0.36,1.9-0.9,3.73-2.8,4.09l-10.72,2.01
						c-1.9,0.36-3.73-0.9-4.09-2.8l-13.73-73.34c-0.36-1.9,0.9-3.73,2.8-4.09l10.72-2.01C-91.69-32.58-89.86-31.33-89.51-29.43z"/>
				</g>
				<g id="Group_574" transform="translate(5.834 20.631)">
					
						<rect id="Rectangle_86" x="-109.19" y="-40.49" transform="matrix(0.9829 -0.184 0.184 0.9829 5.2875 -19.0906)" class="st39" width="17.91" height="4.9"/>
				</g>
				<g id="Group_575" transform="translate(8.661 35.692)">
					
						<rect id="Rectangle_87" x="-110.62" y="-48.12" transform="matrix(0.9829 -0.184 0.184 0.9829 6.6673 -19.4845)" class="st39" width="17.91" height="4.9"/>
				</g>
				<g id="Group_576" transform="translate(26.725 131.965)">
					
						<rect id="Rectangle_88" x="-119.77" y="-96.91" transform="matrix(0.9829 -0.184 0.184 0.9829 15.4871 -22.0016)" class="st39" width="17.91" height="4.9"/>
				</g>
				<g id="Group_577">
					<path id="Path_2173" class="st18" d="M-87.8,54.25c-2.32,0-4.31-1.66-4.75-3.94l-13.9-74.09c-0.49-2.62,1.23-5.15,3.86-5.64
						l11.47-2.15c2.62-0.49,5.15,1.23,5.64,3.86c0,0,0,0,0,0l13.9,74.09c0.49,2.62-1.24,5.14-3.86,5.64l-11.47,2.15
						C-87.2,54.22-87.5,54.25-87.8,54.25z M-90.22-28.22c-0.09,0-0.18,0.01-0.26,0.02l-11.47,2.15c-0.76,0.14-1.27,0.88-1.12,1.64
						c0,0,0,0,0,0l13.9,74.09l0,0c0.14,0.76,0.88,1.26,1.64,1.12l11.47-2.15c0.76-0.14,1.27-0.88,1.12-1.64c0,0,0,0,0,0l-13.9-74.09
						C-88.97-27.74-89.54-28.22-90.22-28.22L-90.22-28.22z"/>
				</g>
			</g>
		</g>
	</g>
</g>
</svg>
