<?xml version="1.0" encoding="utf-8"?>
<!-- Generator: Adobe Illustrator 25.2.1, SVG Export Plug-In . SVG Version: 6.00 Build 0)  -->
<svg version="1.1" id="Laag_1" xmlns="http://www.w3.org/2000/svg" xmlns:xlink="http://www.w3.org/1999/xlink" x="0px" y="0px"
	 viewBox="0 0 280.4 223.28" style="enable-background:new 0 0 280.4 223.28;" xml:space="preserve">
<style type="text/css">
	.st0{enable-background:new    ;}
	.st1{fill:url(#SVGID_1_);}
	.st2{fill:url(#SVGID_2_);}
	.st3{fill:url(#SVGID_3_);}
	.st4{fill:url(#SVGID_4_);}
	.st5{fill:url(#SVGID_5_);}
	.st6{fill:url(#SVGID_6_);}
	.st7{fill:url(#SVGID_7_);}
	.st8{fill:url(#SVGID_8_);}
	.st9{fill:url(#SVGID_9_);}
	.st10{fill:url(#SVGID_10_);}
	.st11{fill:url(#SVGID_11_);}
	.st12{fill:url(#SVGID_12_);}
	.st13{fill:url(#SVGID_13_);}
	.st14{fill:url(#SVGID_14_);}
	.st15{fill:url(#SVGID_15_);}
	.st16{fill:#EBFED1;stroke:#2C2C2C;stroke-width:2;}
	.st17{fill:#A8E533;}
	.st18{fill:#2C2C2C;}
	.st19{fill:#469612;}
	.st20{fill:#FCC4B9;}
	.st21{fill:#EFA89E;}
	.st22{fill:#A1A7B7;}
	.st23{fill:#FFFA7B;}
	.st24{fill:#BFFD6A;}
	.st25{fill:#C9C9C9;}
	.st26{fill:#FFFFFF;}
	.st27{fill:#D6D8ED;}
	.st28{fill:#8B93A0;}
	.st29{fill:#E18F81;}
	.st30{fill:#F96464;}
	.st31{fill:#1C9337;}
	.st32{fill:#147A27;}
	.st33{fill:#6EB42D;}
	.st34{fill:#619B23;}
	.st35{fill:#DBA065;}
	.st36{fill:#C18753;}
	.st37{fill:#FFD243;}
	.st38{fill:#737581;}
	.st39{fill:#EBFED1;}
	.st40{fill:#51545E;}
	.st41{fill:#40434C;}
	.st42{fill:#5E6270;}
	.st43{fill:#892F58;}
	.st44{fill:#231F20;}
	.st45{fill:#CBFD63;}
	.st46{fill:#001B01;}
	.st47{fill:#FFE98D;}
	.st48{fill:#FFD938;}
	.st49{fill:#525252;}
	.st50{fill:#DFE6F2;}
	.st51{fill:#E8A6A0;}
	.st52{fill:#717171;}
	.st53{fill:#21223F;}
	.st54{fill:#D3D5E2;}
	.st55{fill:#DDDDDD;}
	.st56{fill:#C8DDFC;}
	.st57{clip-path:url(#SVGID_17_);}
	.st58{fill:#67E9FF;}
	.st59{fill:#3B1B6D;}
	.st60{fill:#F96262;}
	.st61{fill:#315775;}
	.st62{fill:#DB9561;}
	.st63{fill:#BC7A4D;}
	.st64{clip-path:url(#SVGID_19_);}
	.st65{fill:#4CA934;}
	.st66{fill:#F9F6E5;}
	.st67{fill:#D8D3BC;}
	.st68{fill:#6F6F6D;}
	.st69{fill:#89C433;}
	.st70{fill:#FEFEFE;}
	.st71{fill:#E7E4EA;}
	.st72{fill:#DDD745;}
	.st73{fill:#9ED85B;}
	.st74{fill:#CCCCCA;}
	.st75{fill:#D3D3D3;}
	.st76{fill:#AEAEAE;}
	.st77{fill:#FEFFFF;}
	.st78{fill:#D5CE35;}
	.st79{fill:#EFF1FE;}
	.st80{fill:#BFFD6A;stroke:#2C2C2C;}
	.st81{fill:none;stroke:#2C2C2C;stroke-width:0.695;stroke-linecap:round;stroke-linejoin:round;}
	.st82{fill:#83E700;stroke:#2C2C2C;stroke-width:0.695;stroke-linecap:round;stroke-linejoin:round;}
	.st83{fill:#001B01;stroke:#2C2C2C;}
	.st84{fill:#469612;stroke:#2C2C2C;stroke-width:3;stroke-miterlimit:10;}
	.st85{fill:#7ECE29;}
	.st86{fill:#FFFA7B;stroke:#000000;stroke-width:2.5;}
	.st87{fill:#FFFA7B;stroke:#000000;stroke-width:2;}
</style>
<g id="Group_387" transform="translate(-416.294 -1261.298)">
	<g id="Group_326" transform="translate(448.6 1376.575)">
		<g id="Group_325">
			<path id="Path_2023" class="st23" d="M117.38-16.09C77.58-12.59,77,24.86,29.36,40.12S-1.8,106.13-1.8,106.13h214.83
				c12.97-8.31,10.59-52.56-22.76-68.2S157.19-19.6,117.38-16.09z"/>
		</g>
	</g>
	<g id="Group_329" transform="translate(452.011 1484.758)">
		<g id="Group_327" transform="translate(2.158 2.712)">
			<path id="Path_2024" class="st19" d="M34.25-20.05C10.1-26.24-5.34-5.77-5.34-5.77h124.11c0,0-14.68-21.12-43.07-25.45
				S34.25-20.05,34.25-20.05z"/>
		</g>
		<g id="Group_328">
			<path id="Path_2025" class="st18" d="M35.65-19.9c-10.07-2.22-20.18-0.36-29.33,5.42C2-11.79-1.83-8.4-5.04-4.45l3.7,2.79
				c0.14-0.19,14.77-19.17,37.17-13.42c0.86,0.22,1.77-0.07,2.35-0.75c2.74-2.83,5.98-5.11,9.56-6.74
				c5.89-2.83,15.83-5.77,29.77-3.65c27,4.11,41.37,24.28,41.51,24.48l3.81-2.65c-0.62-0.9-15.59-22-44.63-26.42
				C52.97-34.65,39.33-23.51,35.65-19.9z"/>
		</g>
	</g>
	<g id="Group_363" transform="translate(496.18 1285.364)">
		<g id="Group_330" transform="translate(2.702 83.158)">
			<path id="Path_2026" class="st20" d="M-11.67,41.27c-0.01,8.91,13.74,4.08,13.74,4.08l42.02,12.31
				c1.09,16.85,9.77,31.68,9.77,31.68l4.47,23.83h54.06l-4.85-23.83c1.12-63.48-27.13-104.51-27.13-104.51L2.07-7.93
				c0,0-8.84-0.36-8.91,9.39c-0.04,6.38,8.91,7.13,8.91,7.13v4.83c0,0-13.72-0.93-13.74,8.82c-0.02,9,13.74,5.47,13.74,5.47v3.71
				C2.07,31.42-11.66,33.46-11.67,41.27z"/>
		</g>
		<g id="Group_331" transform="translate(3.371 116.206)">
			<path id="Path_2027" class="st21" d="M3.75-1.62l2.41-5.45v-12.76l-4.76,0.1v0.12c-1.47-0.07-2.95,0.01-4.41,0.23
				c0.26,1.51,1.21,9.33-7.17,10.92c-0.55,0.09-1.08,0.24-1.59,0.46C-9.16-2.62,1.4-5.33,1.4-5.33v3.17
				C2.82-1.82,3.75-1.62,3.75-1.62z"/>
		</g>
		<g id="Group_332" transform="translate(4.885 138.473)">
			<path id="Path_2028" class="st21" d="M-10.39-11.62c-0.55,0.09-1.08,0.24-1.59,0.46c0.48,0.97,1.25,1.76,2.21,2.26
				C-5.72-8-0.11-9.96-0.11-9.96l5.27,1.55l0.8-1.8v-12.76l-4.76,0.1v0.12c-1.47-0.07-2.95,0.01-4.41,0.23
				C-2.95-21.03-2.01-13.22-10.39-11.62z"/>
		</g>
		<g id="Group_333" transform="translate(8.807 91.588)">
			<path id="Path_2029" class="st21" d="M-11.41-4.99c-0.38,0.07-0.75,0.16-1.12,0.28c0.42,0.98,1.08,1.84,1.94,2.48
				c4.04,0.8,9.46-1.11,9.46-1.11l5.26,1.55l0.8-1.8v-12.76l-4.76,0.1v0.12c-1.47-0.07-2.95,0.01-4.41,0.23
				C-3.97-14.4-3.03-6.59-11.41-4.99z"/>
		</g>
		<g id="Group_334" transform="translate(109.58 98.999)">
			<path id="Path_2030" class="st21" d="M-21.63,30.82c1.09-16.25-0.65-32.56-5.14-48.22v43.41L-21.63,30.82z"/>
		</g>
		<g id="Group_335" transform="translate(67.637 167.969)">
			<path id="Path_2031" class="st21" d="M-11.07,4.53l4.35,23.17c0,0,7.99,0,17.83,0.01C3.31,11.24-8.65-27.16-8.65-27.16h-12.19
				C-19.76-10.31-11.07,4.53-11.07,4.53z"/>
		</g>
		<g id="Group_340" transform="translate(16.509)">
			<g id="Group_336" transform="translate(2.702 2.703)">
				<path id="Rectangle_65" class="st25" d="M-0.68-3.79h50.94c7.36,0,13.32,5.97,13.32,13.32v115.25c0,7.36-5.97,13.32-13.32,13.32
					H-0.68c-7.36,0-13.32-5.97-13.32-13.32V9.54C-14,2.18-8.03-3.79-0.68-3.79z"/>
			</g>
			<g id="Group_337">
				<path id="Path_2032" class="st18" d="M-4.43-3.41c-5.07,0-9.18,4.12-9.19,9.19v128.17c0,5.07,4.12,9.18,9.19,9.19h63.86
					c5.07,0,9.18-4.12,9.19-9.19V5.78c0-5.07-4.12-9.18-9.19-9.19L-4.43-3.41z M63.97,5.78v128.17c0,2.51-2.04,4.54-4.54,4.54H-4.43
					c-2.51,0-4.54-2.04-4.54-4.54V5.78c0-2.51,2.04-4.54,4.54-4.54h63.86C61.94,1.24,63.97,3.27,63.97,5.78L63.97,5.78z"/>
			</g>
			<g id="Group_338" transform="translate(11.68 21.505)">
				<rect id="Rectangle_66" x="-15.27" y="-6.45" class="st77" width="62.17" height="110.36"/>
			</g>
			<g id="Group_339" transform="translate(10.058 19.883)">
				<path id="Path_2033" class="st18" d="M-13.65-6.22c-0.77,0-1.39,0.62-1.39,1.39v110.37c0,0.77,0.62,1.39,1.39,1.39h62.17
					c0.77,0,1.39-0.62,1.39-1.39V-4.83c0-0.77-0.62-1.39-1.39-1.39L-13.65-6.22z M47.13,104.14h-59.39V-3.43h59.39V104.14z"/>
			</g>
		</g>
		<g id="Group_344" transform="translate(37.019 41.829)">
			<g id="Group_341" transform="translate(1.621 1.622)">
				<path id="Rectangle_67" class="st39" d="M-12.98-9.55h36.69c2.08,0,3.77,1.69,3.77,3.77v32.26c0,2.08-1.69,3.77-3.77,3.77
					h-36.69c-2.08,0-3.77-1.69-3.77-3.77V-5.78C-16.75-7.86-15.06-9.55-12.98-9.55z"/>
			</g>
			<g id="Group_342" transform="translate(1.621 1.622)">
				<path id="Path_2034" class="st24" d="M-14.81-9.55c-1.07,0-1.94,0.87-1.94,1.94V28.3c0,1.07,0.87,1.94,1.94,1.94h40.34
					c1.07,0,1.94-0.87,1.94-1.94v-1.94H-9.83c-1.07,0-1.94-0.87-1.94-1.94V-9.55H-14.81z"/>
			</g>
			<g id="Group_343">
				<path id="Path_2035" class="st18" d="M-13.18-9.32c-1.84,0-3.33,1.49-3.33,3.33v35.91c0,1.84,1.49,3.33,3.33,3.33h40.34
					c1.84,0,3.33-1.49,3.33-3.33V-5.99c0-1.84-1.49-3.33-3.33-3.33H-13.18z M27.71-5.99v35.91c0,0.3-0.25,0.54-0.55,0.55h-40.34
					c-0.3,0-0.54-0.25-0.55-0.55V-5.99c0-0.3,0.25-0.55,0.55-0.55h40.34C27.46-6.53,27.71-6.29,27.71-5.99L27.71-5.99z"/>
			</g>
		</g>
		<g id="Group_348" transform="translate(36.508 102.101)">
			<g id="Group_345" transform="translate(1.622 1.622)">
				<path id="Rectangle_68" class="st23" d="M-10.57-18.07h32.9c3.37,0,6.1,2.73,6.1,6.1l0,0c0,3.37-2.73,6.1-6.1,6.1h-32.9
					c-3.37,0-6.1-2.73-6.1-6.1l0,0C-16.67-15.34-13.94-18.07-10.57-18.07z"/>
			</g>
			<g id="Group_346" transform="translate(1.622 1.77)">
				<path id="Path_2036" class="st78" d="M-12.36-18.09c-2.51,0.55-4.31,2.78-4.31,5.35v1.25c0.01,3.02,2.46,5.47,5.48,5.48h34.15
					c2.74-0.01,5.05-2.03,5.43-4.74c-0.38,0.08-0.77,0.13-1.17,0.13H-6.94c-3.02-0.01-5.47-2.46-5.48-5.48v-1.25
					C-12.41-17.6-12.4-17.85-12.36-18.09z"/>
			</g>
			<g id="Group_347">
				<path id="Path_2037" class="st18" d="M-9.57-17.84c-3.79,0.01-6.86,3.08-6.87,6.87v1.25c0.01,3.79,3.08,6.86,6.87,6.87h34.15
					c3.79-0.01,6.86-3.08,6.87-6.87v-1.25c-0.01-3.79-3.08-6.86-6.87-6.87H-9.57z M28.66-10.97v1.25c0,2.26-1.83,4.08-4.09,4.09
					H-9.57c-2.26,0-4.08-1.83-4.09-4.09v-1.25c0-2.26,1.83-4.08,4.09-4.09h34.15C26.83-15.06,28.66-13.23,28.66-10.97L28.66-10.97z"
					/>
			</g>
		</g>
		<g id="Group_349" transform="translate(54.535 128.722)">
			<path id="Path_2038" class="st20" d="M-18.26-17.11C-20.95-11.11-16.72-5.23,2.4-2.07c0,0,0.56,25.8,11.14,43.06l23.2-36.75
				c0,0-25.06-23.95-28.77-25.06C4.26-21.93-15.76-22.69-18.26-17.11z"/>
		</g>
		<g id="Group_350" transform="translate(54.535 129.442)">
			<path id="Path_2039" class="st21" d="M-10.1-21.71c-3.97,0.64-7.24,1.83-8.16,3.88C-20.95-11.83-16.72-5.95,2.4-2.79
				c0,0,0.56,25.8,11.14,43.06l1.8,2.78C8.87,20.37,8.87-8.59,8.87-8.59C0.7-11.41-8.56-19.59-10.1-21.71z"/>
		</g>
		<g id="Group_351" transform="translate(51.837 126.022)">
			<path id="Path_2040" class="st18" d="M-2.75-16.46c5.89-0.38,11.43,0.17,12.71,0.55C12.3-15,25.97-2.72,37.83,8.62
				c0.93,0.89,2.4,0.85,3.28-0.07c0.89-0.93,0.85-2.4-0.07-3.28c-7.66-7.32-25.88-24.45-29.71-25.6C9.12-21,2.81-21.46-3.05-21.09
				c-8.35,0.53-13.14,2.41-14.63,5.74c-1.27,2.55-1.24,5.56,0.08,8.09c2.45,4.57,9.19,7.81,20.56,9.88
				c0.71,6.64,3.78,29.86,13.1,45.08c0.67,1.09,2.1,1.44,3.19,0.77c1.09-0.67,1.44-2.1,0.77-3.19l0,0
				C9.86,28.69,7.43,0.72,7.41,0.44c-0.09-1.06-0.88-1.93-1.93-2.1c-14.13-2.33-17.96-5.89-18.99-7.8
				c-0.66-1.26-0.63-2.76,0.07-3.99C-13.05-14.34-10.35-15.97-2.75-16.46z"/>
		</g>
		<g id="Group_352" transform="translate(64.934 80.456)">
			<path id="Path_2041" class="st18" d="M-6.09,91.62c-0.05-0.26-0.14-0.51-0.28-0.74c-0.09-0.14-8.42-14.56-9.46-30.67
				c-0.08-1.28-1.19-2.25-2.47-2.17c-1.28,0.08-2.25,1.19-2.17,2.47c1.03,15.94,8.5,29.9,9.88,32.35l4.27,22.78
				c0.21,1.09,1.16,1.89,2.27,1.89l54.18,0.17h0.01c1.28,0,2.32-1.04,2.32-2.32c0-0.16-0.02-0.32-0.05-0.48l-4.8-23.11
				c0.1-26.4-4.54-52.6-13.7-77.36C27.11-3.57,20.36-13.38,20.08-13.79c-0.73-1.05-2.18-1.31-3.23-0.58
				c-1.05,0.73-1.31,2.18-0.58,3.23l0,0c0.07,0.1,6.77,9.87,13.38,27.4c8.95,24.26,13.47,49.93,13.34,75.78
				c0,0.16,0.02,0.32,0.05,0.47l4.27,20.54l-49.4-0.16L-6.09,91.62z"/>
		</g>
		<g id="Group_353" transform="translate(5.621 88.886)">
			<path id="Path_2042" class="st18" d="M-0.93-11.33c1.28,0.05,2.36-0.95,2.4-2.23c0.05-1.28-0.95-2.36-2.23-2.4l0,0
				c-2.95-0.03-5.8,1.04-8,3.01c-2.18,2.08-3.3,5.01-3.32,8.7c-0.04,6.75,7.2,9.13,11.04,9.45c0.07,0.01,0.13,0.01,0.19,0.01
				c1.28,0.04,2.35-0.96,2.4-2.24c0.04-1.27-0.94-2.33-2.2-2.4c-0.07-0.01-6.81-0.65-6.79-4.8C-7.42-6.61-6.8-8.4-5.58-9.58
				C-4.29-10.7-2.64-11.32-0.93-11.33z"/>
		</g>
		<g id="Group_354" transform="translate(0 113.721)">
			<path id="Path_2043" class="st18" d="M4.62-14.82C5.9-14.74,7-15.7,7.09-16.98c0.09-1.28-0.88-2.38-2.16-2.47l0,0
				c-0.34-0.02-8.53-0.53-13.14,3.77c-2.04,1.9-3.16,4.58-3.08,7.37c-0.12,2.47,0.96,4.84,2.89,6.38c2.11,1.64,5,2.1,7.59,2.1
				C1.27,0.15,3.34-0.11,5.35-0.6c1.24-0.32,1.99-1.58,1.67-2.82C6.7-4.66,5.44-5.41,4.2-5.09C2.42-4.64-3.17-3.76-5.54-5.61
				c-0.8-0.66-1.22-1.68-1.1-2.71c-0.07-1.49,0.51-2.94,1.59-3.97C-2.46-14.71,2.8-14.94,4.62-14.82z"/>
		</g>
		<g id="Group_355" transform="translate(0 134.72)">
			<path id="Path_2044" class="st18" d="M5.11-17.84c1.27-0.19,2.14-1.37,1.96-2.64c-0.19-1.27-1.37-2.14-2.64-1.96
				c-0.64,0.1-15.71,2.44-15.71,12.13c-0.14,2.4,0.94,4.71,2.88,6.13c1.78,1.12,3.85,1.67,5.95,1.57c2.72-0.07,5.42-0.55,7.99-1.43
				c1.21-0.42,1.85-1.75,1.42-2.96C6.54-8.19,5.22-8.83,4.01-8.4C1.75-7.61-3.6-6.45-5.71-7.95c-0.4-0.28-0.93-0.83-0.93-2.34
				C-6.64-15.01,2.06-17.38,5.11-17.84z"/>
		</g>
		<g id="Group_362" transform="translate(42.819 51.529)">
			<g id="Group_358" transform="translate(1.619 1.619)">
				<g id="Group_357">
					<g id="Group_356">
						<path id="Path_2045" class="st79" d="M12.22-10.2L-4.99,5.87l-8.05-7.86c-1.05-1.03-2.74-1.01-3.77,0.04
							c-1.03,1.05-1.01,2.74,0.04,3.77l0,0l9.87,9.64c1.02,1,2.64,1.01,3.68,0.04L15.86-6.31c1.08-1,1.13-2.69,0.13-3.77
							S13.3-11.21,12.22-10.2L12.22-10.2z"/>
					</g>
				</g>
			</g>
			<g id="Group_361">
				<g id="Group_360">
					<g id="Group_359">
						<path id="Path_2046" class="st18" d="M12.89-9.6L-3.35,5.56l-7.1-6.94c-1.57-1.6-4.13-1.63-5.74-0.07s-1.63,4.13-0.07,5.74
							c0.04,0.05,0.09,0.09,0.14,0.13l9.87,9.64c1.55,1.51,4.02,1.54,5.6,0.06L18.43-3.67c1.64-1.53,1.73-4.1,0.2-5.73
							S14.54-11.13,12.89-9.6L12.89-9.6L12.89-9.6z M16.53-5.71L-2.54,12.1c-0.5,0.45-1.26,0.44-1.76-0.02l-9.87-9.64
							c-0.49-0.5-0.49-1.3,0.01-1.8c0.49-0.48,1.27-0.49,1.77-0.02l8.05,7.86c0.53,0.52,1.38,0.53,1.92,0.02L14.79-7.57
							c0.51-0.48,1.32-0.45,1.8,0.06S17.04-6.19,16.53-5.71L16.53-5.71z"/>
					</g>
				</g>
			</g>
		</g>
	</g>
	<g id="Group_366" transform="translate(611.219 1497.035)">
		<g id="Group_364" transform="translate(2.158 2.707)">
			<path id="Path_2047" class="st24" d="M-3.28-26.31c-14.99-3.85-24.57,8.86-24.57,8.86h77.02c-6.59-8.46-16.14-14.11-26.73-15.79
				C4.82-35.93-3.28-26.31-3.28-26.31z"/>
		</g>
		<g id="Group_365">
			<path id="Path_2048" class="st18" d="M-1.86-26.15c-15.54-3.17-25.27,9.46-25.69,10.01l3.7,2.8c0.36-0.47,8.88-11.42,22.15-8.01
				c0.86,0.22,1.78-0.07,2.35-0.75c0.07-0.09,7.45-8.6,23.6-6.14c9.95,1.62,18.93,6.91,25.17,14.82l3.81-2.65
				c-6.93-9.01-17.06-15.01-28.28-16.76C9.64-35.16,0.97-28.78-1.86-26.15z"/>
		</g>
	</g>
	<g id="Group_367" transform="translate(416.294 1515.893)">
		<path id="Path_2049" class="st18" d="M2.84-36c-1.28-0.26-2.53,0.56-2.79,1.84c-0.26,1.28,0.56,2.53,1.84,2.79
			c0.31,0.06,0.64,0.06,0.95,0h274.72c1.28,0.26,2.53-0.56,2.79-1.84c0.26-1.28-0.56-2.53-1.84-2.79c-0.31-0.06-0.64-0.06-0.95,0
			H2.84z"/>
	</g>
	<g id="Group_378" transform="translate(619.267 1261.298)">
		<g id="Group_370">
			<g id="Group_368" transform="translate(2.703 2.702)">
				<path id="Path_2050" class="st23" d="M6.15,64.34h46.82c5.33,0,9.66-4.32,9.66-9.66V9.27c0-5.33-4.32-9.65-9.66-9.66h-72.38
					c-5.33,0-9.66,4.32-9.66,9.66v45.42c0,5.33,4.32,9.66,9.66,9.66h6.97v13.77L6.15,64.34z"/>
			</g>
			<g id="Group_369">
				<path id="Path_2051" class="st18" d="M-10.78,82.88c0.78,0.39,1.72,0.31,2.42-0.21L9.62,69.37h46.05
					c6.61-0.01,11.97-5.36,11.98-11.98V11.98C67.64,5.36,62.28,0.01,55.67,0h-72.38c-6.61,0.01-11.97,5.36-11.98,11.98v45.42
					c0.01,6.61,5.36,11.97,11.98,11.98h4.65v11.45C-12.05,81.69-11.56,82.49-10.78,82.88z M-16.71,64.72
					c-4.05,0-7.33-3.29-7.33-7.34V11.97c0-4.05,3.29-7.33,7.33-7.33h72.38c4.05,0,7.33,3.29,7.34,7.33v45.42
					c0,4.05-3.29,7.33-7.34,7.34H8.86c-0.5,0-0.98,0.16-1.38,0.46L-7.42,76.21v-9.16c0-1.28-1.04-2.32-2.32-2.32L-16.71,64.72z"/>
			</g>
		</g>
	</g>
	<g id="Group_386" transform="translate(418.222 1318.161)">
		<g id="Group_379" transform="translate(2.703 2.702)">
			<path id="Path_2054" class="st24" d="M30.5-8.43C13.3-8.42-0.64,5.52-0.64,22.73c0,17.2,13.95,31.14,31.15,31.14
				c5.9,0,11.67-1.68,16.66-4.83l14.48,6.52l-6.61-13.64c10.6-13.55,8.2-33.13-5.35-43.73C44.21-6.1,37.46-8.42,30.5-8.43L30.5-8.43
				z"/>
		</g>
		<g id="Group_380">
			<path id="Path_2055" class="st18" d="M33.21-8.04C14.72-8.04-0.26,6.95-0.26,25.43c0,18.48,14.99,33.46,33.48,33.46
				c5.91,0,11.71-1.57,16.81-4.53l13.37,6.01c1.17,0.53,2.54,0.01,3.07-1.16c0.28-0.63,0.27-1.35-0.03-1.97l-6-12.37
				c4.07-5.66,6.25-12.47,6.23-19.45C66.65,6.95,51.68-8.02,33.21-8.04z M55.65,45.63l3.83,7.89l-8.65-3.89
				c-0.71-0.32-1.54-0.26-2.2,0.16c-13.45,8.52-31.27,4.53-39.79-8.93C0.32,27.4,4.31,9.59,17.77,1.07
				c13.45-8.52,31.27-4.53,39.79,8.93c6.52,10.3,5.87,23.59-1.64,33.19C55.37,43.88,55.27,44.83,55.65,45.63L55.65,45.63z"/>
		</g>
	</g>
</g>
</svg>
