<?xml version="1.0" encoding="utf-8"?>
<!-- Generator: Adobe Illustrator 25.2.1, SVG Export Plug-In . SVG Version: 6.00 Build 0)  -->
<svg version="1.1" id="Laag_1" xmlns="http://www.w3.org/2000/svg" xmlns:xlink="http://www.w3.org/1999/xlink" x="0px" y="0px"
	 viewBox="0 0 72.9 98.83" style="enable-background:new 0 0 72.9 98.83;" xml:space="preserve">
<style type="text/css">
	.st0{enable-background:new    ;}
	.st1{fill:url(#SVGID_1_);}
	.st2{fill:url(#SVGID_2_);}
	.st3{fill:url(#SVGID_3_);}
	.st4{fill:url(#SVGID_4_);}
	.st5{fill:url(#SVGID_5_);}
	.st6{fill:url(#SVGID_6_);}
	.st7{fill:url(#SVGID_7_);}
	.st8{fill:url(#SVGID_8_);}
	.st9{fill:url(#SVGID_9_);}
	.st10{fill:url(#SVGID_10_);}
	.st11{fill:url(#SVGID_11_);}
	.st12{fill:url(#SVGID_12_);}
	.st13{fill:url(#SVGID_13_);}
	.st14{fill:url(#SVGID_14_);}
	.st15{fill:url(#SVGID_15_);}
	.st16{fill:#EBFED1;stroke:#2C2C2C;stroke-width:2;}
	.st17{fill:#A8E533;}
	.st18{fill:#2C2C2C;}
	.st19{fill:#469612;}
	.st20{fill:#FCC4B9;}
	.st21{fill:#EFA89E;}
	.st22{fill:#A1A7B7;}
	.st23{fill:#FFFA7B;}
	.st24{fill:#BFFD6A;}
	.st25{fill:#C9C9C9;}
	.st26{fill:#FFFFFF;}
	.st27{fill:#D6D8ED;}
	.st28{fill:#8B93A0;}
	.st29{fill:#E18F81;}
	.st30{fill:#F96464;}
	.st31{fill:#1C9337;}
	.st32{fill:#147A27;}
	.st33{fill:#6EB42D;}
	.st34{fill:#619B23;}
	.st35{fill:#DBA065;}
	.st36{fill:#C18753;}
	.st37{fill:#FFD243;}
	.st38{fill:#737581;}
	.st39{fill:#EBFED1;}
	.st40{fill:#51545E;}
	.st41{fill:#40434C;}
	.st42{fill:#5E6270;}
	.st43{fill:#892F58;}
	.st44{fill:#231F20;}
	.st45{fill:#CBFD63;}
	.st46{fill:#001B01;}
	.st47{fill:#FFE98D;}
	.st48{fill:#FFD938;}
	.st49{fill:#525252;}
	.st50{fill:#DFE6F2;}
	.st51{fill:#E8A6A0;}
	.st52{fill:#717171;}
	.st53{fill:#21223F;}
	.st54{fill:#D3D5E2;}
	.st55{fill:#DDDDDD;}
	.st56{fill:#C8DDFC;}
	.st57{clip-path:url(#SVGID_17_);}
	.st58{fill:#67E9FF;}
	.st59{fill:#3B1B6D;}
	.st60{fill:#F96262;}
	.st61{fill:#315775;}
	.st62{fill:#DB9561;}
	.st63{fill:#BC7A4D;}
	.st64{clip-path:url(#SVGID_19_);}
	.st65{fill:#4CA934;}
	.st66{fill:#F9F6E5;}
	.st67{fill:#D8D3BC;}
	.st68{fill:#6F6F6D;}
	.st69{fill:#89C433;}
	.st70{fill:#FEFEFE;}
	.st71{fill:#E7E4EA;}
	.st72{fill:#DDD745;}
	.st73{fill:#9ED85B;}
	.st74{fill:#CCCCCA;}
	.st75{fill:#D3D3D3;}
	.st76{fill:#AEAEAE;}
	.st77{fill:#FEFFFF;}
	.st78{fill:#D5CE35;}
	.st79{fill:#EFF1FE;}
	.st80{fill:#BFFD6A;stroke:#2C2C2C;}
	.st81{fill:none;stroke:#2C2C2C;stroke-width:0.695;stroke-linecap:round;stroke-linejoin:round;}
	.st82{fill:#83E700;stroke:#2C2C2C;stroke-width:0.695;stroke-linecap:round;stroke-linejoin:round;}
	.st83{fill:#001B01;stroke:#2C2C2C;}
	.st84{fill:#469612;stroke:#2C2C2C;stroke-width:3;stroke-miterlimit:10;}
	.st85{fill:#7ECE29;}
	.st86{fill:#FFFA7B;stroke:#000000;stroke-width:2.5;}
	.st87{fill:#FFFA7B;stroke:#000000;stroke-width:2;}
</style>
<g id="Group_475" transform="translate(-405.688 -726.521)">
	<g id="Group_441" transform="translate(409.084 747.136)">
		<g id="Group_440">
			<g id="Group_439">
				<path id="Path_2092" class="st17" d="M-1.31-4.72v45.14c1.68,19.2,34.36,35.71,34.36,35.71s32.68-16.51,34.36-35.71V-4.72
					c0,0-15.83,0-34.36-13.81C14.53-4.72-1.31-4.72-1.31-4.72z"/>
			</g>
		</g>
	</g>
	<g id="Group_444" transform="translate(405.688 743.74)">
		<g id="Group_443">
			<g id="Group_442">
				<path id="Path_2093" class="st18" d="M35.2-16.81C17.52-3.63,2.24-3.41,2.09-3.41C0.94-3.41,0-2.47,0-1.32l0,0v45.14
					c0,0.06,0,0.12,0.01,0.18c1.77,20.13,34.12,36.69,35.5,37.39c0.59,0.3,1.29,0.3,1.88,0c1.38-0.7,33.73-17.26,35.5-37.39
					c0.01-0.06,0.01-0.12,0.01-0.18V-1.32c0-1.15-0.94-2.09-2.09-2.09h0c-0.15,0-15.35-0.15-33.11-13.4
					C36.95-17.36,35.94-17.36,35.2-16.81z M68.72,43.72c-1.49,16.02-27.01,30.6-32.27,33.44c-5.26-2.84-30.78-17.4-32.27-33.44V0.64
					c4.88-0.46,17.64-2.68,32.27-13.19C51.09-2.03,63.85,0.18,68.72,0.64L68.72,43.72z"/>
			</g>
		</g>
	</g>
	<g id="Group_446" transform="translate(421.005 763.231)">
		<g id="Group_445">
			<path id="Path_2094" class="st23" d="M-5.9-13.7v35.98C-4.64,35.84,17.05,48.1,21.13,50.3c4.09-2.19,25.78-14.45,27.03-28.02
				V-13.7c-3.83-0.33-14.61-2.05-27.03-11.02C8.72-15.76-2.07-14.04-5.9-13.7z"/>
		</g>
	</g>
	<g id="Group_449" transform="translate(418.967 761.193)">
		<g id="Group_448">
			<g id="Group_447">
				<path id="Path_2095" class="st18" d="M22.44-23.7C10.36-14.98-0.05-13.25-3.97-12.91c-0.65,0.06-1.15,0.6-1.14,1.25v35.98
					c0,0.04,0,0.08,0.01,0.11c1.31,14.16,23.29,26.65,27.68,29.01c0.37,0.2,0.82,0.2,1.18,0c4.39-2.36,26.37-14.84,27.68-29.01
					c0-0.04,0.01-0.08,0.01-0.11v-35.98c0-0.65-0.5-1.19-1.14-1.25c-3.92-0.34-14.33-2.07-26.4-10.79
					C23.47-24.02,22.88-24.02,22.44-23.7z M48.95,24.25c-1.21,12.43-21.4,24.24-25.78,26.65C18.8,48.49-1.4,36.67-2.61,24.25v-34.79
					c4.68-0.57,14.53-2.7,25.78-10.61c11.25,7.92,21.1,10.04,25.78,10.61V24.25z"/>
			</g>
		</g>
	</g>
	<g id="Group_456" transform="translate(427.758 795.35)">
		<g id="Group_452" transform="translate(2.034 2.034)">
			<g id="Group_451">
				<g id="Group_450">
					<path id="Path_2096" class="st17" d="M28.83-36.96L6.81-16.4l-10.3-10.06c-1.35-1.32-3.5-1.29-4.82,0.06
						c-1.32,1.35-1.29,3.5,0.06,4.82l0,0L4.37-9.25c1.3,1.27,3.38,1.3,4.71,0.05l24.4-22.79c1.39-1.27,1.49-3.42,0.22-4.81
						c-1.27-1.39-3.42-1.49-4.81-0.22C28.87-37,28.85-36.98,28.83-36.96L28.83-36.96z"/>
				</g>
			</g>
		</g>
		<g id="Group_455">
			<g id="Group_454">
				<g id="Group_453">
					<path id="Path_2097" class="st18" d="M30.01-35.84L8.86-16.1l-9.44-9.22c-0.88-0.87-2.07-1.35-3.31-1.33
						c-2.57,0.03-4.64,2.14-4.61,4.72c0.01,1.24,0.52,2.41,1.4,3.28L5.53-6.31c1.78,1.74,4.62,1.77,6.44,0.07l24.4-22.79
						c1.88-1.76,1.98-4.71,0.23-6.59C34.84-37.5,31.89-37.6,30.01-35.84z M34.66-30.86L10.26-8.07C9.42-7.29,8.11-7.3,7.28-8.11
						L-5.35-20.45c-0.85-0.83-0.87-2.19-0.04-3.04c0.4-0.41,0.95-0.65,1.53-0.65h0.03c0.56,0,1.1,0.22,1.51,0.61l10.3,10.06
						C8.44-13,9.21-12.99,9.7-13.44l22.02-20.56c0.87-0.81,2.23-0.77,3.05,0.1C35.58-33.04,35.53-31.67,34.66-30.86L34.66-30.86
						L34.66-30.86z"/>
				</g>
			</g>
		</g>
	</g>
</g>
</svg>
