<?xml version="1.0" encoding="utf-8"?>
<!-- Generator: Adobe Illustrator 25.2.1, SVG Export Plug-In . SVG Version: 6.00 Build 0)  -->
<svg version="1.1" id="Laag_1" xmlns="http://www.w3.org/2000/svg" xmlns:xlink="http://www.w3.org/1999/xlink" x="0px" y="0px"
	 viewBox="0 0 62 60.43" style="enable-background:new 0 0 62 60.43;" xml:space="preserve">
<style type="text/css">
	.st0{enable-background:new    ;}
	.st1{fill:url(#SVGID_1_);}
	.st2{fill:url(#SVGID_2_);}
	.st3{fill:url(#SVGID_3_);}
	.st4{fill:url(#SVGID_4_);}
	.st5{fill:url(#SVGID_5_);}
	.st6{fill:url(#SVGID_6_);}
	.st7{fill:url(#SVGID_7_);}
	.st8{fill:url(#SVGID_8_);}
	.st9{fill:url(#SVGID_9_);}
	.st10{fill:url(#SVGID_10_);}
	.st11{fill:url(#SVGID_11_);}
	.st12{fill:url(#SVGID_12_);}
	.st13{fill:url(#SVGID_13_);}
	.st14{fill:url(#SVGID_14_);}
	.st15{fill:url(#SVGID_15_);}
	.st16{fill:#EBFED1;stroke:#2C2C2C;stroke-width:2;}
	.st17{fill:#A8E533;}
	.st18{fill:#2C2C2C;}
	.st19{fill:#469612;}
	.st20{fill:#FCC4B9;}
	.st21{fill:#EFA89E;}
	.st22{fill:#A1A7B7;}
	.st23{fill:#FFFA7B;}
	.st24{fill:#BFFD6A;}
	.st25{fill:#C9C9C9;}
	.st26{fill:#FFFFFF;}
	.st27{fill:#D6D8ED;}
	.st28{fill:#8B93A0;}
	.st29{fill:#E18F81;}
	.st30{fill:#F96464;}
	.st31{fill:#1C9337;}
	.st32{fill:#147A27;}
	.st33{fill:#6EB42D;}
	.st34{fill:#619B23;}
	.st35{fill:#DBA065;}
	.st36{fill:#C18753;}
	.st37{fill:#FFD243;}
	.st38{fill:#737581;}
	.st39{fill:#EBFED1;}
	.st40{fill:#51545E;}
	.st41{fill:#40434C;}
	.st42{fill:#5E6270;}
	.st43{fill:#892F58;}
	.st44{fill:#231F20;}
	.st45{fill:#CBFD63;}
	.st46{fill:#001B01;}
	.st47{fill:#FFE98D;}
	.st48{fill:#FFD938;}
	.st49{fill:#525252;}
	.st50{fill:#DFE6F2;}
	.st51{fill:#E8A6A0;}
	.st52{fill:#717171;}
	.st53{fill:#21223F;}
	.st54{fill:#D3D5E2;}
	.st55{fill:#DDDDDD;}
	.st56{fill:#C8DDFC;}
	.st57{clip-path:url(#SVGID_17_);}
	.st58{fill:#67E9FF;}
	.st59{fill:#3B1B6D;}
	.st60{fill:#F96262;}
	.st61{fill:#315775;}
	.st62{fill:#DB9561;}
	.st63{fill:#BC7A4D;}
	.st64{clip-path:url(#SVGID_19_);}
	.st65{fill:#4CA934;}
	.st66{fill:#F9F6E5;}
	.st67{fill:#D8D3BC;}
	.st68{fill:#6F6F6D;}
	.st69{fill:#89C433;}
	.st70{fill:#FEFEFE;}
	.st71{fill:#E7E4EA;}
	.st72{fill:#DDD745;}
	.st73{fill:#9ED85B;}
	.st74{fill:#CCCCCA;}
	.st75{fill:#D3D3D3;}
	.st76{fill:#AEAEAE;}
	.st77{fill:#FEFFFF;}
	.st78{fill:#D5CE35;}
	.st79{fill:#EFF1FE;}
	.st80{fill:#BFFD6A;stroke:#2C2C2C;}
	.st81{fill:none;stroke:#2C2C2C;stroke-width:0.695;stroke-linecap:round;stroke-linejoin:round;}
	.st82{fill:#83E700;stroke:#2C2C2C;stroke-width:0.695;stroke-linecap:round;stroke-linejoin:round;}
	.st83{fill:#001B01;stroke:#2C2C2C;}
	.st84{fill:#469612;stroke:#2C2C2C;stroke-width:3;stroke-miterlimit:10;}
	.st85{fill:#7ECE29;}
	.st86{fill:#FFFA7B;stroke:#000000;stroke-width:2.5;}
	.st87{fill:#FFFA7B;stroke:#000000;stroke-width:2;}
</style>
<g id="Group_846" transform="translate(169.996 0.35)">
	<g id="Group_845">
		<path id="Path_2627" d="M-159.15,18.29h29.04c0.55,0,1-0.45,1-1s-0.45-1-1-1h-29.04c-0.55,0-1,0.45-1,1
			S-159.71,18.29-159.15,18.29z"/>
		<path id="Path_2628" d="M-137.24,23.75h-21.92c-0.55,0-1,0.45-1,1s0.45,1,1,1h21.92c0.55,0,1-0.45,1-1S-136.68,23.75-137.24,23.75
			z"/>
		<path id="Path_2629" d="M-137.24,31.06h-21.92c-0.55,0-1,0.45-1,1c0,0.55,0.45,1,1,1h21.92c0.55,0,1-0.45,1-1
			C-136.24,31.51-136.68,31.06-137.24,31.06z"/>
		<path id="Path_2630" d="M-137.22,38.37h-21.93c-0.55,0-1,0.45-1,1s0.45,1,1,1h21.93c0.55,0,1-0.45,1-1S-136.67,38.37-137.22,38.37
			z"/>
		<path id="Path_2631" d="M-137.6,46.56L-137.6,46.56h-8.38c-0.55,0-1,0.45-1,1s0.45,1,1,1l0,0h8.38c0.55,0,1-0.45,1-1
			S-137.04,46.56-137.6,46.56L-137.6,46.56z"/>
		<path id="Path_2632" d="M-109.64,9.95l-2.23-1.21c-1.53-0.83-3.45-0.26-4.28,1.27l-4.36,8.03V3.75c0-2.26-1.84-4.1-4.1-4.1h-36.85
			c-0.27,0.01-0.52,0.11-0.72,0.29l-7.51,7.46c-0.18,0.19-0.29,0.45-0.3,0.71v47.87c0,2.26,1.84,4.1,4.1,4.1h41.28
			c2.26,0,4.1-1.84,4.1-4.1V36.57l12.14-22.34C-107.55,12.7-108.11,10.78-109.64,9.95z M-162.48,3.07v1.95c0,1.16-0.94,2.1-2.11,2.1
			h-1.98L-162.48,3.07z M-122.51,55.99c0,1.16-0.94,2.1-2.1,2.1h-41.28c-1.16,0-2.1-0.94-2.1-2.1V9.12h3.41
			c2.26,0,4.1-1.84,4.11-4.1V1.65h35.86c1.16,0,2.1,0.94,2.1,2.1v17.97l-9.86,18.17c-0.07,0.15-0.11,0.32-0.12,0.49l0.09,7.3
			c0,0.37,0.21,0.7,0.54,0.88c0.14,0.07,0.3,0.11,0.46,0.11c0.2,0,0.4-0.06,0.56-0.17l5.93-4.02c0.01-0.01,0.02-0.02,0.03-0.03
			c0.12-0.08,0.22-0.19,0.29-0.32l0,0l2.1-3.86L-122.51,55.99z M-130.49,42.06l3.08,1.67l-3.03,2.06L-130.49,42.06z M-110.14,13.28
			l-15.76,29l-4.25-2.31l15.1-27.78l0.66-1.22c0.31-0.56,1.01-0.77,1.57-0.46l2.23,1.21C-110.04,12.01-109.83,12.71-110.14,13.28
			L-110.14,13.28z"/>
	</g>
</g>
</svg>
