<?xml version="1.0" encoding="utf-8"?>
<!-- Generator: Adobe Illustrator 25.2.1, SVG Export Plug-In . SVG Version: 6.00 Build 0)  -->
<svg version="1.1" id="Laag_1" xmlns="http://www.w3.org/2000/svg" xmlns:xlink="http://www.w3.org/1999/xlink" x="0px" y="0px"
	 viewBox="0 0 133.49 103.29" style="enable-background:new 0 0 133.49 103.29;" xml:space="preserve">
<style type="text/css">
	.st0{enable-background:new    ;}
	.st1{fill:url(#SVGID_1_);}
	.st2{fill:url(#SVGID_2_);}
	.st3{fill:url(#SVGID_3_);}
	.st4{fill:url(#SVGID_4_);}
	.st5{fill:url(#SVGID_5_);}
	.st6{fill:url(#SVGID_6_);}
	.st7{fill:url(#SVGID_7_);}
	.st8{fill:url(#SVGID_8_);}
	.st9{fill:url(#SVGID_9_);}
	.st10{fill:url(#SVGID_10_);}
	.st11{fill:url(#SVGID_11_);}
	.st12{fill:url(#SVGID_12_);}
	.st13{fill:url(#SVGID_13_);}
	.st14{fill:url(#SVGID_14_);}
	.st15{fill:url(#SVGID_15_);}
	.st16{fill:#EBFED1;stroke:#2C2C2C;stroke-width:2;}
	.st17{fill:#A8E533;}
	.st18{fill:#2C2C2C;}
	.st19{fill:#469612;}
	.st20{fill:#FCC4B9;}
	.st21{fill:#EFA89E;}
	.st22{fill:#A1A7B7;}
	.st23{fill:#FFFA7B;}
	.st24{fill:#BFFD6A;}
	.st25{fill:#C9C9C9;}
	.st26{fill:#FFFFFF;}
	.st27{fill:#D6D8ED;}
	.st28{fill:#8B93A0;}
	.st29{fill:#E18F81;}
	.st30{fill:#F96464;}
	.st31{fill:#1C9337;}
	.st32{fill:#147A27;}
	.st33{fill:#6EB42D;}
	.st34{fill:#619B23;}
	.st35{fill:#DBA065;}
	.st36{fill:#C18753;}
	.st37{fill:#FFD243;}
	.st38{fill:#737581;}
	.st39{fill:#EBFED1;}
	.st40{fill:#51545E;}
	.st41{fill:#40434C;}
	.st42{fill:#5E6270;}
	.st43{fill:#892F58;}
	.st44{fill:#231F20;}
	.st45{fill:#CBFD63;}
	.st46{fill:#001B01;}
	.st47{fill:#FFE98D;}
	.st48{fill:#FFD938;}
	.st49{fill:#525252;}
	.st50{fill:#DFE6F2;}
	.st51{fill:#E8A6A0;}
	.st52{fill:#717171;}
	.st53{fill:#21223F;}
	.st54{fill:#D3D5E2;}
	.st55{fill:#DDDDDD;}
	.st56{fill:#C8DDFC;}
	.st57{clip-path:url(#SVGID_17_);}
	.st58{fill:#67E9FF;}
	.st59{fill:#3B1B6D;}
	.st60{fill:#F96262;}
	.st61{fill:#315775;}
	.st62{fill:#DB9561;}
	.st63{fill:#BC7A4D;}
	.st64{clip-path:url(#SVGID_19_);}
	.st65{fill:#4CA934;}
	.st66{fill:#F9F6E5;}
	.st67{fill:#D8D3BC;}
	.st68{fill:#6F6F6D;}
	.st69{fill:#89C433;}
	.st70{fill:#FEFEFE;}
	.st71{fill:#E7E4EA;}
	.st72{fill:#DDD745;}
	.st73{fill:#9ED85B;}
	.st74{fill:#CCCCCA;}
	.st75{fill:#D3D3D3;}
	.st76{fill:#AEAEAE;}
	.st77{fill:#FEFFFF;}
	.st78{fill:#D5CE35;}
	.st79{fill:#EFF1FE;}
	.st80{fill:#BFFD6A;stroke:#2C2C2C;}
	.st81{fill:none;stroke:#2C2C2C;stroke-width:0.695;stroke-linecap:round;stroke-linejoin:round;}
	.st82{fill:#83E700;stroke:#2C2C2C;stroke-width:0.695;stroke-linecap:round;stroke-linejoin:round;}
	.st83{fill:#001B01;stroke:#2C2C2C;}
	.st84{fill:#469612;stroke:#2C2C2C;stroke-width:3;stroke-miterlimit:10;}
	.st85{fill:#7ECE29;}
	.st86{fill:#FFFA7B;stroke:#000000;stroke-width:2.5;}
	.st87{fill:#FFFA7B;stroke:#000000;stroke-width:2;}
</style>
<g id="Group_676" transform="translate(359.803 -1474.666)">
	<g id="Group_638" transform="translate(794.802 1678.87)">
		<path id="Path_2204" class="st18" d="M-1028.69-100.91h-124.63c-0.71,0-1.28-0.57-1.28-1.28s0.57-1.28,1.28-1.28h124.63
			c0.71,0,1.28,0.57,1.28,1.28S-1027.98-100.91-1028.69-100.91L-1028.69-100.91z"/>
	</g>
	<g id="Group_675" transform="translate(829.768 1474.666)">
		<g id="Group_648" transform="translate(0 37.77)">
			<g id="Group_639" transform="translate(2.603 2.603)">
				<path id="Rectangle_92" class="st24" d="M-1167.56-20.46h79.62c3.36,0,6.08,2.72,6.08,6.08v53.27c0,3.36-2.72,6.08-6.08,6.08
					h-79.62c-3.36,0-6.08-2.72-6.08-6.08v-53.27C-1173.64-17.74-1170.92-20.46-1167.56-20.46z"/>
			</g>
			<g id="Group_640">
				<path id="Path_2205" class="st18" d="M-1083.31,48.86h-83.67c-2.95,0-5.34-2.39-5.34-5.34V-13.8c0-2.95,2.39-5.34,5.34-5.34
					h83.67c2.95,0,5.34,2.39,5.34,5.34v57.32C-1077.98,46.47-1080.37,48.86-1083.31,48.86z M-1166.99-16.57
					c-1.53,0-2.77,1.24-2.77,2.77v57.32c0,1.53,1.24,2.77,2.77,2.77h83.67c1.53,0,2.77-1.24,2.77-2.77V-13.8
					c0-1.53-1.24-2.77-2.77-2.77H-1166.99z"/>
			</g>
			<g id="Group_641" transform="translate(13.024 14.139)">
				<rect id="Rectangle_93" x="-1178.92" y="-26.31" class="st26" width="81.5" height="47.55"/>
			</g>
			<g id="Group_642" transform="translate(10.421 11.535)">
				<path id="Path_2206" class="st18" d="M-1094.82,25.13h-81.5c-0.71,0-1.28-0.57-1.28-1.28V-23.7c0-0.71,0.57-1.28,1.28-1.28h81.5
					c0.71,0,1.28,0.57,1.28,1.28v47.55C-1093.54,24.56-1094.11,25.13-1094.82,25.13z M-1175.04,22.56h78.93v-44.98h-78.93
					L-1175.04,22.56z"/>
			</g>
			<g id="Group_643" transform="translate(90.408 117.333)">
				<circle id="Ellipse_61" class="st18" cx="-1215.56" cy="-76.02" r="2.58"/>
			</g>
			<g id="Group_644" transform="translate(60.372 135.261)">
				<path id="Path_2207" class="st24" d="M-1173.51-87.69h-24.02c0.12,7.26-5.38,9.85-5.38,9.85h34.79
					C-1168.12-77.84-1173.63-80.43-1173.51-87.69z"/>
			</g>
			<g id="Group_645" transform="translate(57.768 132.658)">
				<path id="Path_2208" class="st18" d="M-1165.52-73.95h-34.79c-0.71,0-1.29-0.57-1.29-1.28c0-0.5,0.29-0.96,0.74-1.17
					c0.19-0.09,4.75-2.38,4.65-8.67c-0.01-0.71,0.55-1.29,1.26-1.31c0.01,0,0.02,0,0.02,0h24.03c0.71,0,1.28,0.57,1.28,1.28
					c0,0.01,0,0.02,0,0.02c-0.11,6.35,4.6,8.64,4.65,8.67c0.64,0.3,0.92,1.06,0.62,1.7C-1164.56-74.24-1165.02-73.95-1165.52-73.95
					L-1165.52-73.95z M-1196.66-76.52h27.49c-1.79-2.02-2.84-4.59-2.99-7.28h-21.52C-1193.82-81.1-1194.87-78.54-1196.66-76.52
					L-1196.66-76.52z"/>
			</g>
			<g id="Group_646" transform="translate(46.68 155.23)">
				<path id="Rectangle_94" class="st24" d="M-1193.41-97.8h43.16c1.42,0,2.57,1.15,2.57,2.57v1.39c0,1.42-1.15,2.57-2.57,2.57
					h-43.16c-1.42,0-2.57-1.15-2.57-2.57v-1.39C-1195.98-96.65-1194.83-97.8-1193.41-97.8z"/>
			</g>
			<g id="Group_647" transform="translate(44.076 152.627)">
				<path id="Path_2209" class="st18" d="M-1146.79-87.39h-44.87c-1.65,0-3-1.34-3-3v-3.1c0-1.65,1.34-3,3-3h44.87
					c1.65,0,3,1.34,3,3v3.1C-1143.79-88.74-1145.14-87.4-1146.79-87.39z M-1191.66-93.92c-0.24,0-0.43,0.19-0.43,0.43v3.1
					c0,0.24,0.19,0.43,0.43,0.43h44.87c0.24,0,0.43-0.19,0.43-0.43v-3.1c0-0.24-0.19-0.43-0.43-0.43H-1191.66z"/>
			</g>
		</g>
		<g id="Group_663" transform="translate(39.065)">
			<g id="Group_651">
				<g id="Group_649" transform="translate(2.603 2.603)">
					<rect id="Rectangle_95" x="-1193.44" y="-1.32" class="st26" width="53.24" height="71.87"/>
				</g>
				<g id="Group_650">
					<path id="Path_2210" class="st18" d="M-1137.59,74.44h-53.24c-0.71,0-1.28-0.57-1.28-1.28V1.28c0-0.71,0.57-1.28,1.28-1.28
						h44.37c0.34,0,0.67,0.13,0.91,0.38l8.87,8.87c0.24,0.24,0.38,0.57,0.38,0.91v63C-1136.31,73.86-1136.88,74.44-1137.59,74.44
						C-1137.59,74.44-1137.59,74.44-1137.59,74.44z M-1189.55,71.87h50.68V10.69l-8.12-8.12h-42.55V71.87z"/>
				</g>
			</g>
			<g id="Group_660" transform="translate(14.736 24.782)">
				<g id="Group_652">
					<path id="Path_2211" class="st18" d="M-1159.12-10.94h-39.66c-0.45,0-0.81-0.36-0.81-0.81s0.36-0.81,0.81-0.81h39.66
						c0.45,0,0.81,0.36,0.81,0.81S-1158.67-10.94-1159.12-10.94z"/>
				</g>
				<g id="Group_653" transform="translate(0 14.225)">
					<path id="Path_2212" class="st18" d="M-1159.12-18.15h-39.66c-0.45-0.01-0.8-0.38-0.79-0.83c0.01-0.43,0.36-0.78,0.79-0.79
						h39.66c0.45,0.01,0.8,0.38,0.79,0.83C-1158.34-18.51-1158.69-18.16-1159.12-18.15z"/>
				</g>
				<g id="Group_654" transform="translate(0 28.45)">
					<path id="Path_2213" class="st18" d="M-1159.12-25.36h-39.66c-0.45-0.01-0.8-0.38-0.79-0.83c0.01-0.43,0.36-0.78,0.79-0.79
						h39.66c0.45,0.01,0.8,0.38,0.79,0.83C-1158.34-25.72-1158.69-25.37-1159.12-25.36z"/>
				</g>
				<g id="Group_655" transform="translate(0 42.676)">
					<path id="Path_2214" class="st18" d="M-1159.12-32.57h-39.66c-0.45-0.01-0.8-0.38-0.79-0.83c0.01-0.43,0.36-0.78,0.79-0.79
						h39.66c0.45,0.01,0.8,0.38,0.79,0.83C-1158.34-32.93-1158.69-32.58-1159.12-32.57z"/>
				</g>
				<g id="Group_656" transform="translate(0 56.901)">
					<path id="Path_2215" class="st18" d="M-1159.12-39.78h-39.66c-0.45-0.01-0.8-0.38-0.79-0.83c0.01-0.43,0.36-0.78,0.79-0.79
						h39.66c0.45,0.01,0.8,0.38,0.79,0.83C-1158.34-40.13-1158.69-39.79-1159.12-39.78z"/>
				</g>
				<g id="Group_657" transform="translate(0 71.126)">
					<path id="Path_2216" class="st18" d="M-1159.12-46.99h-39.66c-0.45,0-0.81-0.36-0.81-0.81s0.36-0.81,0.81-0.81h39.66
						c0.45,0,0.81,0.36,0.81,0.81S-1158.67-46.99-1159.12-46.99z"/>
				</g>
				<g id="Group_658" transform="translate(0 84.621)">
					<path id="Path_2217" class="st18" d="M-1159.12-53.82h-39.66c-0.45,0-0.81-0.36-0.81-0.81s0.36-0.81,0.81-0.81h39.66
						c0.45,0,0.81,0.36,0.81,0.81S-1158.67-53.82-1159.12-53.82z"/>
				</g>
				<g id="Group_659" transform="translate(0 98.117)">
					<path id="Path_2218" class="st18" d="M-1159.12-60.66h-39.66c-0.45,0-0.81-0.36-0.81-0.81c0-0.45,0.36-0.81,0.81-0.81h39.66
						c0.45,0,0.81,0.36,0.81,0.81C-1158.31-61.02-1158.67-60.66-1159.12-60.66z"/>
				</g>
			</g>
			<g id="Group_661" transform="translate(92.557 2.603)">
				<path id="Path_2219" class="st75" d="M-1230.15,7.55h-8.87v-8.87L-1230.15,7.55z"/>
			</g>
			<g id="Group_662" transform="translate(90.917 0.963)">
				<path id="Path_2220" class="st18" d="M-1228.51,10h-8.87c-0.45,0-0.81-0.36-0.81-0.81l0,0V0.32c0-0.45,0.36-0.81,0.81-0.81
					c0.21,0,0.42,0.09,0.57,0.24l8.87,8.87c0.32,0.32,0.32,0.83,0,1.14C-1228.09,9.92-1228.29,10-1228.51,10L-1228.51,10z
					 M-1236.58,8.39h6.12l-6.12-6.11V8.39z"/>
			</g>
		</g>
		<g id="Group_674" transform="translate(84.67 25.799)">
			<g id="Group_664" transform="translate(67.223 61.431)">
				
					<rect id="Rectangle_96" x="-1245.76" y="-44.12" transform="matrix(0.6342 -0.7732 0.7732 0.6342 -425.1669 -974.9168)" class="st26" width="5.86" height="11.91"/>
			</g>
			<g id="Group_665" transform="translate(64.62 58.829)">
				<path id="Path_2221" class="st18" d="M-1237.48-28.22c-0.3,0-0.58-0.1-0.81-0.29l-9.21-7.56c-0.55-0.45-0.63-1.26-0.18-1.8
					c0,0,0,0,0,0l3.72-4.53c0.45-0.55,1.26-0.63,1.8-0.18c0,0,0,0,0,0l9.21,7.56c0.55,0.45,0.63,1.26,0.18,1.8c0,0,0,0,0,0
					l-3.72,4.53c-0.22,0.26-0.53,0.43-0.87,0.46C-1237.4-28.23-1237.44-28.22-1237.48-28.22z M-1244.89-37.25l7.23,5.93l2.09-2.55
					l-7.23-5.93L-1244.89-37.25z"/>
			</g>
			<g id="Group_666" transform="translate(2.583 2.607)">
				<path id="Path_2222" class="st23" d="M-1212-7.09c-7.01,8.53-5.77,21.13,2.77,28.14c8.53,7.01,21.13,5.77,28.14-2.77
					s5.77-21.13-2.77-28.14c0,0,0,0,0,0C-1192.4-16.86-1204.99-15.62-1212-7.09z M-1185.82,14.4c-4.86,5.92-13.6,6.78-19.53,1.92
					c-5.92-4.86-6.78-13.6-1.92-19.53s13.6-6.78,19.53-1.92C-1181.83-0.26-1180.97,8.48-1185.82,14.4L-1185.82,14.4z"/>
			</g>
			<g id="Group_667">
				<path id="Path_2223" class="st18" d="M-1193.98,29.47c-11.75-0.01-21.26-9.54-21.25-21.29c0.01-11.75,9.54-21.26,21.29-21.25
					c4.92,0,9.68,1.71,13.48,4.83l0,0c9.08,7.45,10.41,20.85,2.96,29.93C-1181.55,26.63-1187.6,29.48-1193.98,29.47L-1193.98,29.47z
					 M-1193.93-10.51c-0.62,0-1.24,0.03-1.87,0.09c-10.28,1.01-17.8,10.17-16.79,20.45s10.17,17.8,20.45,16.79
					c10.28-1.01,17.8-10.17,16.79-20.45c-0.49-4.94-2.91-9.48-6.75-12.63l0,0C-1185.42-9.01-1189.61-10.51-1193.93-10.51
					L-1193.93-10.51z"/>
			</g>
			<g id="Group_668" transform="translate(12.396 12.424)">
				<path id="Path_2224" class="st18" d="M-1206.39,10.93c-8.36-0.02-15.12-6.82-15.1-15.19c0.02-8.36,6.82-15.12,15.19-15.1
					c8.36,0.02,15.12,6.82,15.1,15.19c-0.01,3.49-1.22,6.87-3.44,9.56l0,0c-2.54,3.11-6.23,5.08-10.23,5.46
					C-1205.38,10.91-1205.89,10.93-1206.39,10.93z M-1206.35-16.81c-6.95,0-12.58,5.63-12.59,12.58c0,6.95,5.63,12.58,12.58,12.59
					c3.77,0,7.33-1.69,9.72-4.59l0,0c4.41-5.37,3.64-13.3-1.73-17.71C-1200.61-15.79-1203.43-16.81-1206.35-16.81z"/>
			</g>
			<g id="Group_669" transform="translate(56.579 29.971)">
				<path id="Path_2225" class="st18" d="M-1242.64-26.02c-0.26,0-0.51-0.13-0.65-0.36c-0.14-0.22-0.29-0.44-0.45-0.65
					c-0.25-0.34-0.18-0.83,0.16-1.08c0.33-0.24,0.8-0.18,1.05,0.14c0.19,0.25,0.37,0.5,0.54,0.76c0.23,0.36,0.12,0.84-0.24,1.06
					C-1242.35-26.06-1242.49-26.02-1242.64-26.02L-1242.64-26.02z"/>
			</g>
			<g id="Group_670" transform="translate(26.883 22.603)">
				<path id="Path_2226" class="st18" d="M-1228.08-19.57c-0.43,0-0.77-0.35-0.77-0.77c0-0.18,0.06-0.35,0.17-0.49
					c3.55-4.32,9.93-4.95,14.26-1.4c0.33,0.26,0.39,0.75,0.13,1.08c-0.26,0.33-0.75,0.39-1.08,0.13c-0.01-0.01-0.02-0.01-0.02-0.02
					c-3.67-3.01-9.08-2.47-12.09,1.19C-1227.63-19.67-1227.85-19.57-1228.08-19.57z"/>
			</g>
			<g id="Group_671" transform="translate(82.844 73.042)">
				<path id="Rectangle_97" class="st19" d="M-1257.21-41.89l6.73-8.2l0,0l23.4,19.19c2.26,1.86,2.59,5.2,0.74,7.46c0,0,0,0,0,0l0,0
					c-1.86,2.26-5.2,2.59-7.46,0.74L-1257.21-41.89L-1257.21-41.89z"/>
			</g>
			<g id="Group_672" transform="translate(80.242 70.439)">
				<path id="Path_2227" class="st18" d="M-1227.77-17.32c-1.37,0-2.69-0.47-3.74-1.34l-23.91-19.63c-0.55-0.45-0.63-1.26-0.18-1.8
					c0,0,0,0,0,0l6.73-8.2c0.45-0.55,1.26-0.63,1.8-0.18c0,0,0,0,0,0l23.91,19.63c2.52,2.07,2.89,5.8,0.82,8.33l0,0l-0.85,1.04
					c-0.99,1.22-2.43,1.98-4,2.13C-1227.38-17.33-1227.57-17.32-1227.77-17.32z M-1252.8-39.46l22.92,18.82
					c1.43,1.17,3.54,0.97,4.71-0.46l0.85-1.04c1.17-1.43,0.96-3.54-0.46-4.71l-22.92-18.81L-1252.8-39.46z"/>
			</g>
			<g id="Group_673" transform="translate(89.539 78.537)">
				
					<rect id="Rectangle_98" x="-1261.55" y="-49.24" transform="matrix(0.6344 -0.773 0.773 0.6344 -422.1538 -988.5676)" class="st18" width="10.61" height="2.57"/>
			</g>
		</g>
	</g>
</g>
</svg>
