<?xml version="1.0" encoding="utf-8"?>
<!-- Generator: Adobe Illustrator 25.2.1, SVG Export Plug-In . SVG Version: 6.00 Build 0)  -->
<svg version="1.1" id="Laag_1" xmlns="http://www.w3.org/2000/svg" xmlns:xlink="http://www.w3.org/1999/xlink" x="0px" y="0px"
	 viewBox="0 0 497.34 256.76" style="enable-background:new 0 0 497.34 256.76;" xml:space="preserve">
<style type="text/css">
	.st0{enable-background:new    ;}
	.st1{fill:url(#SVGID_1_);}
	.st2{fill:url(#SVGID_2_);}
	.st3{fill:url(#SVGID_3_);}
	.st4{fill:url(#SVGID_4_);}
	.st5{fill:url(#SVGID_5_);}
	.st6{fill:url(#SVGID_6_);}
	.st7{fill:url(#SVGID_7_);}
	.st8{fill:url(#SVGID_8_);}
	.st9{fill:url(#SVGID_9_);}
	.st10{fill:url(#SVGID_10_);}
	.st11{fill:url(#SVGID_11_);}
	.st12{fill:url(#SVGID_12_);}
	.st13{fill:url(#SVGID_13_);}
	.st14{fill:url(#SVGID_14_);}
	.st15{fill:url(#SVGID_15_);}
	.st16{fill:#EBFED1;stroke:#2C2C2C;stroke-width:2;}
	.st17{fill:#A8E533;}
	.st18{fill:#2C2C2C;}
	.st19{fill:#469612;}
	.st20{fill:#FCC4B9;}
	.st21{fill:#EFA89E;}
	.st22{fill:#A1A7B7;}
	.st23{fill:#FFFA7B;}
	.st24{fill:#BFFD6A;}
	.st25{fill:#C9C9C9;}
	.st26{fill:#FFFFFF;}
	.st27{fill:#D6D8ED;}
	.st28{fill:#8B93A0;}
	.st29{fill:#E18F81;}
	.st30{fill:#F96464;}
	.st31{fill:#1C9337;}
	.st32{fill:#147A27;}
	.st33{fill:#6EB42D;}
	.st34{fill:#619B23;}
	.st35{fill:#DBA065;}
	.st36{fill:#C18753;}
	.st37{fill:#FFD243;}
	.st38{fill:#737581;}
	.st39{fill:#EBFED1;}
	.st40{fill:#51545E;}
	.st41{fill:#40434C;}
	.st42{fill:#5E6270;}
	.st43{fill:#892F58;}
	.st44{fill:#231F20;}
	.st45{fill:#CBFD63;}
	.st46{fill:#001B01;}
	.st47{fill:#FFE98D;}
	.st48{fill:#FFD938;}
	.st49{fill:#525252;}
	.st50{fill:#DFE6F2;}
	.st51{fill:#E8A6A0;}
	.st52{fill:#717171;}
	.st53{fill:#21223F;}
	.st54{fill:#D3D5E2;}
	.st55{fill:#DDDDDD;}
	.st56{fill:#C8DDFC;}
	.st57{clip-path:url(#SVGID_17_);}
	.st58{fill:#67E9FF;}
	.st59{fill:#3B1B6D;}
	.st60{fill:#F96262;}
	.st61{fill:#315775;}
	.st62{fill:#DB9561;}
	.st63{fill:#BC7A4D;}
	.st64{clip-path:url(#SVGID_19_);}
	.st65{fill:#4CA934;}
	.st66{fill:#F9F6E5;}
	.st67{fill:#D8D3BC;}
	.st68{fill:#6F6F6D;}
	.st69{fill:#89C433;}
	.st70{fill:#FEFEFE;}
	.st71{fill:#E7E4EA;}
	.st72{fill:#DDD745;}
	.st73{fill:#9ED85B;}
	.st74{fill:#CCCCCA;}
	.st75{fill:#D3D3D3;}
	.st76{fill:#AEAEAE;}
	.st77{fill:#FEFFFF;}
	.st78{fill:#D5CE35;}
	.st79{fill:#EFF1FE;}
	.st80{fill:#BFFD6A;stroke:#2C2C2C;}
	.st81{fill:none;stroke:#2C2C2C;stroke-width:0.695;stroke-linecap:round;stroke-linejoin:round;}
	.st82{fill:#83E700;stroke:#2C2C2C;stroke-width:0.695;stroke-linecap:round;stroke-linejoin:round;}
	.st83{fill:#001B01;stroke:#2C2C2C;}
	.st84{fill:#469612;stroke:#2C2C2C;stroke-width:3;stroke-miterlimit:10;}
	.st85{fill:#7ECE29;}
	.st86{fill:#FFFA7B;stroke:#000000;stroke-width:2.5;}
	.st87{fill:#FFFA7B;stroke:#000000;stroke-width:2;}
</style>
<g id="Group_863" transform="translate(-240.64 -387.893)">
	<g id="Group_752" transform="translate(245.348 574.058)">
		<path id="Path_2502" class="st19" d="M76.17,3.88c2.91-3.86,5.1-9.96,5.11-13.48c0.02-12.03-14.58-12.14-18.64,0.77L59.58,2.25
			l9.23,7.29L76.17,3.88z"/>
		<path id="Path_2503" class="st19" d="M61.05-5.69c4.57-6.91,4.16-19.67-8.28-18.64C40.76-23.34,40.53-5.15,42.06,6.74l0.86,9.05
			L61.05-5.69z"/>
		<path id="Path_2504" class="st19" d="M27.36-7.12c-5.3-13.32-0.78-18.26,3.32-19.9c4.06-1.62,12.15-0.6,13.67,8.47L41.41-1.92
			L27.36-7.12z"/>
		<path id="Path_2505" class="st19" d="M25.87-11.52C11.54-24.12,0.16-6.85,12.93,2.52l11.35,3.36c0,0,5.1-9.83,4.79-9.7
			C28.75-3.68,25.87-11.52,25.87-11.52z"/>
		<path id="Path_2506" class="st19" d="M11.67,19.69c-7.81,0-14.99-7.9-8.89-14.54c3.78-4.12,11.65-3.38,17.48,0.33l11.41,14.22
			L11.67,19.69z"/>
		<path id="Path_2507" class="st19" d="M73.02,19.69c11.09,0.24,17.62-8.88,9.35-14.48c-3.03-2.05-9.69-1.04-15.28,1.41l-9.27,13.07
			L73.02,19.69z"/>
		<path id="Path_2508" class="st19" d="M52.55-3.37C46.78,0.88,43.88,11.86,43.2,19l15.76,0.19C76.5,0.63,62.76-10.88,52.55-3.37z"
			/>
		<path id="Path_2509" class="st19" d="M38.28-4.34c-2.91-3.58-8.56-4.36-12.55-2.04S19.61,0.9,20.26,5.48
			c0.89,6.3,4.7,10.28,9.87,13.97L43.2,19C43.14,12.99,41.84,0.05,38.28-4.34z"/>
		<g id="Group_735" transform="translate(0 35.508)">
			<path id="Path_2510" class="st53" d="M11.67-17c-0.34,0-0.67-0.01-1-0.04c-0.16-0.01-0.32-0.03-0.48-0.05
				c-0.16-0.02,0.26,0.04,0.11,0.02l-0.1-0.02c-0.09-0.01-0.18-0.03-0.27-0.04c-0.65-0.11-1.29-0.28-1.91-0.49
				c-0.15-0.05-0.3-0.11-0.44-0.16l-0.22-0.08c-0.25-0.1,0.22,0.1-0.03-0.01c-0.3-0.13-0.59-0.27-0.87-0.42
				c-0.56-0.3-1.1-0.64-1.61-1.02c-0.16-0.12,0.21,0.17,0.01,0.01c-0.06-0.05-0.12-0.09-0.17-0.14c-0.12-0.1-0.24-0.21-0.36-0.31
				c-0.23-0.21-0.44-0.42-0.65-0.64c-0.1-0.11-0.2-0.21-0.29-0.33c-0.05-0.06-0.09-0.11-0.14-0.17c-0.06-0.07-0.25-0.34-0.03-0.03
				c-0.17-0.23-0.34-0.46-0.49-0.7c-0.16-0.25-0.31-0.52-0.44-0.79c-0.06-0.12-0.11-0.23-0.16-0.35c-0.06-0.13,0.1,0.25,0.05,0.12
				c-0.01-0.03-0.02-0.05-0.03-0.08c-0.03-0.07-0.06-0.15-0.08-0.22c-0.1-0.28-0.18-0.56-0.25-0.85c-0.03-0.13-0.06-0.27-0.08-0.4
				c-0.01-0.06-0.02-0.12-0.03-0.17c0.07,0.4,0.02,0.13,0.01,0.02c-0.03-0.29-0.04-0.59-0.03-0.88c0-0.14,0.01-0.28,0.03-0.42
				c0.01-0.06,0.02-0.12,0.02-0.18c-0.03,0.41-0.01,0.08,0.01-0.02c0.05-0.3,0.12-0.59,0.21-0.87c0.04-0.14,0.09-0.28,0.15-0.42
				c0.02-0.06,0.05-0.12,0.07-0.18C2.06-27,2.14-27.31,2.19-27.4c0.14-0.3,0.3-0.59,0.47-0.87c0.09-0.14,0.18-0.28,0.28-0.42
				c0.04-0.06,0.09-0.12,0.13-0.18C3.1-28.92,3.13-28.96,3.16-29c0.01,0.04-0.17,0.22-0.02,0.03c0.41-0.5,0.86-0.96,1.36-1.38
				c0.1-0.08-0.13,0.1-0.12,0.09c0.03-0.02,0.07-0.05,0.1-0.07c0.06-0.04,0.11-0.08,0.17-0.12c0.13-0.09,0.25-0.17,0.39-0.25
				c0.25-0.15,0.52-0.3,0.79-0.42c0.07-0.03,0.13-0.06,0.2-0.09l0.08-0.04c0.13-0.06-0.25,0.1-0.11,0.05
				c0.14-0.05,0.29-0.11,0.44-0.17c0.29-0.1,0.59-0.19,0.89-0.27s0.61-0.14,0.93-0.19l0.23-0.04c0.26-0.04-0.23,0.03-0.02,0
				c0.17-0.02,0.33-0.04,0.5-0.05c0.67-0.05,1.33-0.06,2-0.02c0.34,0.02,0.69,0.05,1.03,0.09c0.06,0.01,0.33,0.04,0.13,0.02
				c-0.2-0.03,0.07,0.01,0.13,0.02c0.18,0.03,0.36,0.06,0.54,0.09c0.7,0.13,1.4,0.3,2.09,0.51c0.35,0.11,0.69,0.22,1.04,0.34
				c0.17,0.06,0.33,0.12,0.5,0.19l0.25,0.1l0.11,0.04c0.24,0.1-0.18-0.08-0.04-0.02c0.68,0.3,1.34,0.62,1.99,0.98
				c0.32,0.18,0.64,0.37,0.95,0.57c0.57,0.32,1.29,0.14,1.62-0.42c0.32-0.57,0.13-1.28-0.42-1.62c-2.71-1.72-5.78-2.81-8.97-3.17
				c-2.83-0.41-5.73,0.14-8.2,1.58c-4.21,2.45-5.63,7.85-3.17,12.06c0.55,0.95,1.28,1.79,2.14,2.47c2.22,1.98,5.02,3.18,7.98,3.43
				c0.34,0.03,0.69,0.04,1.03,0.05c0.65,0,1.18-0.53,1.18-1.18S12.32-17.01,11.67-17L11.67-17z"/>
		</g>
		<g id="Group_736" transform="translate(78.79 37.573)">
			<path id="Path_2511" class="st53" d="M-5.77-16.7c3.1,0.11,6.17-0.6,8.91-2.04c2.26-1.15,4.02-3.08,4.96-5.44
				c0.76-2.23,0.35-4.69-1.08-6.55c-0.87-1.17-1.97-2.15-3.22-2.89c-1.33-0.67-2.8-1.02-4.29-1.02c-1.72-0.04-3.44,0.13-5.12,0.5
				c-1.79,0.37-3.54,0.89-5.24,1.56c-0.49,0.19-0.98,0.4-1.46,0.61c-0.27,0.16-0.46,0.41-0.54,0.71c-0.08,0.31-0.04,0.64,0.12,0.91
				c0.16,0.27,0.41,0.46,0.71,0.54c0.31,0.07,0.63,0.02,0.91-0.12c0.1-0.04,0.22-0.08,0.31-0.13c-0.03,0.02-0.25,0.1-0.05,0.02
				l0.12-0.05c0.23-0.09,0.45-0.18,0.68-0.27c0.4-0.15,0.8-0.3,1.2-0.44c0.84-0.29,1.69-0.54,2.55-0.76
				c0.82-0.21,1.64-0.38,2.47-0.51l0.31-0.05c0.04-0.01,0.08-0.01,0.12-0.02c-0.31,0.05-0.15,0.02-0.08,0.01
				c0.2-0.03,0.41-0.05,0.61-0.07c0.39-0.04,0.79-0.07,1.18-0.08c0.71-0.03,1.42-0.01,2.13,0.07c0.1,0.01,0.39,0.07,0,0
				c0.07,0.01,0.15,0.02,0.22,0.03c0.16,0.03,0.32,0.06,0.48,0.09c0.29,0.06,0.59,0.15,0.87,0.24c0.07,0.02,0.14,0.05,0.21,0.08
				c0.04,0.01,0.07,0.02,0.1,0.04c0.02,0.02-0.27-0.12-0.16-0.07c0.14,0.07,0.27,0.13,0.41,0.2c0.26,0.15,0.52,0.31,0.76,0.49
				c0.06,0.05,0.12,0.09,0.19,0.14c0.06,0.05,0.15,0.14-0.08-0.07c0.03,0.03,0.07,0.05,0.1,0.08c0.13,0.1,0.26,0.21,0.38,0.32
				c0.23,0.2,0.45,0.42,0.66,0.64c0.1,0.1,0.19,0.21,0.28,0.32C4.91-29.6,4.96-29.55,5-29.49c0.02,0.02,0.03,0.04,0.05,0.06
				c0.09,0.11-0.18-0.24-0.07-0.09c0.16,0.22,0.31,0.44,0.45,0.68c0.13,0.22,0.24,0.45,0.35,0.69C5.86-28,5.72-28.31,5.72-28.3
				c0.02,0.03,0.03,0.06,0.04,0.09c0.02,0.06,0.05,0.12,0.07,0.18c0.04,0.12,0.08,0.24,0.11,0.36c0.06,0.23,0.11,0.46,0.15,0.7
				c0.04,0.22-0.03-0.3-0.02-0.11c0.01,0.06,0.01,0.12,0.02,0.18c0.01,0.12,0.02,0.24,0.02,0.36c0,0.23-0.01,0.46-0.03,0.69
				c0,0.03-0.01,0.06-0.01,0.09c-0.01,0.14,0.05-0.32,0.02-0.18c-0.01,0.05-0.02,0.1-0.03,0.16C6.05-25.68,6.02-25.56,6-25.44
				c-0.06,0.24-0.13,0.47-0.21,0.7c-0.02,0.05-0.04,0.1-0.06,0.15c-0.08,0.22,0.11-0.25,0.04-0.09c-0.06,0.12-0.11,0.24-0.17,0.36
				c-0.11,0.22-0.23,0.43-0.37,0.64c-0.07,0.1-0.13,0.2-0.2,0.3c-0.03,0.05-0.07,0.09-0.1,0.14c-0.17,0.22,0.16-0.2,0.02-0.02
				c-0.33,0.42-0.7,0.81-1.1,1.16c-0.1,0.09-0.2,0.18-0.31,0.26c-0.06,0.05-0.11,0.09-0.17,0.14c-0.06,0.05-0.17,0.13,0.11-0.08
				l-0.08,0.07c-0.24,0.18-0.49,0.35-0.74,0.51c-0.52,0.33-1.06,0.62-1.61,0.87c-0.07,0.03-0.15,0.07-0.22,0.1
				c-0.18,0.08,0.28-0.11,0.03-0.01c-0.16,0.06-0.31,0.12-0.47,0.18c-0.31,0.12-0.63,0.22-0.94,0.32c-0.68,0.2-1.37,0.36-2.07,0.47
				l-0.24,0.04c-0.08,0.01-0.42,0.04-0.03,0.01c-0.19,0.02-0.38,0.05-0.57,0.06c-0.37,0.04-0.75,0.06-1.13,0.08
				c-0.39,0.02-0.77,0.02-1.16,0.01c-0.65,0.01-1.18,0.53-1.18,1.18C-6.94-17.24-6.42-16.72-5.77-16.7L-5.77-16.7z"/>
		</g>
		<g id="Group_737" transform="translate(23.255 23.604)">
			<path id="Path_2512" class="st53" d="M7.48-5.18C7.22-5.36,6.96-5.55,6.71-5.74c-0.13-0.1-0.26-0.19-0.39-0.29L6.13-6.17
				L6.04-6.24C5.92-6.33,6.23-6.09,6.11-6.19C5.62-6.56,5.15-6.95,4.68-7.35C3.77-8.13,2.91-8.97,2.11-9.86
				c-0.19-0.21-0.38-0.43-0.56-0.66c-0.08-0.11-0.17-0.22-0.25-0.32c-0.01-0.01,0.16,0.21,0.08,0.1l-0.06-0.08l-0.14-0.19
				c-0.34-0.47-0.66-0.95-0.96-1.44c-0.3-0.5-0.57-1.01-0.81-1.54c-0.06-0.13-0.11-0.25-0.17-0.38c-0.06-0.13,0.06,0.13,0.05,0.12
				c-0.01-0.03-0.03-0.06-0.04-0.1c-0.03-0.07-0.06-0.15-0.09-0.23c-0.11-0.27-0.21-0.55-0.3-0.83c-0.19-0.58-0.35-1.18-0.48-1.78
				c-0.07-0.31-0.12-0.61-0.17-0.92c-0.01-0.08-0.02-0.15-0.03-0.23c-0.01-0.04-0.01-0.08-0.02-0.11c0-0.01,0.03,0.27,0.02,0.14
				c-0.02-0.17-0.04-0.33-0.05-0.5c-0.05-0.59-0.05-1.19-0.01-1.78c0.01-0.14,0.02-0.29,0.04-0.43c0.01-0.08,0.02-0.17,0.03-0.25
				c0.02-0.2-0.04,0.27,0,0c0.04-0.29,0.1-0.59,0.16-0.88c0.13-0.59,0.31-1.18,0.52-1.75c0.03-0.07,0.05-0.13,0.08-0.2
				c0.02-0.04,0.11-0.27,0.04-0.09s0.02-0.05,0.04-0.08c0.03-0.08,0.07-0.15,0.1-0.23c0.13-0.27,0.26-0.53,0.41-0.79
				c0.15-0.27,0.31-0.53,0.49-0.79c0.08-0.12,0.16-0.23,0.24-0.35c0.04-0.06,0.08-0.11,0.13-0.17c0.08-0.1-0.08,0.11-0.08,0.1
				c0.03-0.04,0.06-0.07,0.08-0.11c0.37-0.47,0.79-0.91,1.23-1.31c0.11-0.09,0.21-0.19,0.32-0.28c0.05-0.04,0.11-0.08,0.17-0.13
				c0.1-0.08-0.11,0.08-0.1,0.08c0.04-0.03,0.08-0.06,0.11-0.08c0.24-0.18,0.48-0.34,0.73-0.5c0.25-0.15,0.51-0.3,0.78-0.43
				c0.12-0.06,0.24-0.12,0.37-0.17l0.09-0.04c0.01-0.01-0.25,0.1-0.13,0.05c0.07-0.03,0.15-0.06,0.22-0.08
				c0.54-0.2,1.1-0.36,1.66-0.47c0.13-0.03,0.27-0.05,0.4-0.07c0.03-0.01,0.07-0.01,0.1-0.01c0.02,0-0.28,0.03-0.15,0.02
				c0.08-0.01,0.16-0.02,0.24-0.03c0.28-0.03,0.56-0.05,0.85-0.05c0.29-0.01,0.59,0,0.88,0.02c0.14,0.01,0.27,0.02,0.41,0.03
				l0.2,0.02c0.27,0.03-0.21-0.03-0.01,0c0.57,0.09,1.13,0.22,1.68,0.39c0.13,0.04,0.26,0.09,0.38,0.13l0.19,0.07l0.09,0.04
				c0.15,0.06-0.06-0.03-0.1-0.04c0.25,0.12,0.51,0.23,0.76,0.36c0.25,0.13,0.49,0.27,0.72,0.43c0.12,0.08,0.24,0.16,0.36,0.25
				c0.04,0.03,0.22,0.17,0.07,0.05s0.05,0.04,0.09,0.07c0.43,0.36,0.83,0.76,1.18,1.19c0.03,0.04,0.16,0.2,0.01,0.01
				c-0.15-0.19-0.03-0.04,0,0c0.06,0.08,0.11,0.15,0.16,0.23c0.11,0.16,0.21,0.32,0.31,0.48c0.22,0.36,0.41,0.73,0.59,1.1
				c0.09,0.2,0.18,0.4,0.27,0.6c0.03,0.07-0.12-0.29-0.04-0.08l0.06,0.15c0.05,0.11,0.09,0.23,0.13,0.34
				c0.73,1.98,1.29,4.02,1.67,6.09c0.22,1.11,0.41,2.24,0.58,3.36c0.04,0.29,0.08,0.58,0.12,0.87c0,0.02-0.04-0.28-0.02-0.15
				l0.01,0.1l0.03,0.2c0.02,0.14,0.04,0.29,0.05,0.43c0.07,0.56,0.13,1.11,0.19,1.67c0.21,1.96,0.35,3.94,0.41,5.92
				c0.01,0.39,0.02,0.79,0.02,1.18c0,0.65,0.53,1.18,1.19,1.18c0.65,0,1.18-0.53,1.18-1.18C21.12-6.5,21-8.4,20.83-10.31
				c-0.21-2.39-0.51-4.77-0.93-7.13c-0.36-2.21-0.89-4.38-1.59-6.51c-0.55-1.89-1.49-3.65-2.76-5.17c-1.8-1.87-4.22-3.04-6.8-3.28
				c-2.54-0.29-5.11,0.29-7.27,1.65c-2.27,1.51-4,3.71-4.92,6.27c-0.46,1.25-0.74,2.57-0.82,3.9c-0.07,1.34,0.05,2.69,0.35,4
				c0.53,2.46,1.57,4.78,3.07,6.8c1.57,2.06,3.42,3.89,5.49,5.43c0.54,0.42,1.09,0.82,1.64,1.22c0.56,0.33,1.29,0.14,1.62-0.42
				C8.22-4.1,8.04-4.82,7.49-5.16L7.48-5.18z"/>
		</g>
		<g id="Group_738" transform="translate(50.526 25.984)">
			<path id="Path_2513" class="st53" d="M9.27-5.96c2.3-2.37,4.3-5,5.96-7.85c1.24-2.1,2.11-4.39,2.57-6.78
				c0.37-1.91,0.3-3.89-0.23-5.77c-0.91-3.16-3.48-5.56-6.7-6.25c-1.66-0.35-3.37-0.31-5.01,0.12c-1.88,0.51-3.63,1.42-5.12,2.66
				c-1.87,1.63-3.39,3.61-4.49,5.83c-1.26,2.44-2.26,5-2.99,7.64c-0.72,2.54-1.25,5.12-1.58,7.73c-0.07,0.55-0.14,1.1-0.19,1.65
				c0,0.65,0.53,1.18,1.18,1.18c0.65-0.02,1.17-0.54,1.18-1.18c0.05-0.55,0.12-1.1,0.19-1.65c0-0.02-0.04,0.29-0.02,0.16
				c0-0.03,0.01-0.06,0.01-0.09l0.03-0.22c0.02-0.16,0.05-0.31,0.07-0.47c0.04-0.29,0.09-0.57,0.14-0.86
				c0.21-1.23,0.46-2.45,0.75-3.67c0.31-1.28,0.67-2.54,1.08-3.79c0.2-0.62,0.42-1.23,0.65-1.83c0.12-0.31,0.24-0.61,0.36-0.92
				c0.03-0.08,0.07-0.15,0.09-0.23c0-0.01-0.1,0.24-0.05,0.12l0.04-0.1c0.07-0.16,0.14-0.32,0.21-0.48
				c0.51-1.15,1.09-2.26,1.74-3.32c0.32-0.51,0.65-1.01,1.01-1.49l0.11-0.15c0.12-0.16-0.17,0.21-0.01,0.02
				c0.09-0.11,0.18-0.23,0.27-0.34c0.18-0.22,0.37-0.43,0.56-0.64c0.37-0.41,0.77-0.79,1.2-1.15c0.1-0.08,0.19-0.16,0.29-0.24
				c0.15-0.12-0.25,0.18-0.03,0.03l0.15-0.11c0.18-0.13,0.37-0.26,0.56-0.38C3.63-29,4-29.22,4.39-29.42
				c0.19-0.1,0.38-0.19,0.57-0.27l0.12-0.05c0.03-0.01,0.06-0.03,0.08-0.04c-0.06,0.03-0.12,0.05-0.18,0.08
				c0.1-0.04,0.2-0.08,0.31-0.12c0.73-0.28,1.48-0.48,2.25-0.6c0.06-0.01,0.23-0.03-0.02,0c-0.24,0.03-0.05,0.01,0,0
				c0.09-0.01,0.19-0.02,0.28-0.03c0.18-0.02,0.37-0.03,0.56-0.03c0.36-0.01,0.73,0,1.09,0.03c0.08,0.01,0.17,0.02,0.25,0.03
				c0.04,0.01,0.09,0.02,0.13,0.02c-0.07-0.02-0.15-0.03-0.22-0.03l0.09,0.01c0.17,0.03,0.35,0.06,0.52,0.1
				c0.33,0.07,0.66,0.16,0.99,0.28c0.08,0.03,0.15,0.05,0.23,0.08l0.12,0.05l0.05,0.02c0.16,0.06-0.27-0.12-0.16-0.07
				c0.15,0.07,0.31,0.14,0.46,0.22c0.3,0.15,0.59,0.32,0.86,0.51c0.07,0.05,0.14,0.1,0.21,0.15l0.08,0.07
				c0.13,0.1-0.27-0.22-0.1-0.07c0.13,0.11,0.26,0.22,0.39,0.33c0.25,0.23,0.48,0.47,0.7,0.73c0.06,0.07,0.11,0.14,0.16,0.2
				s-0.21-0.27-0.09-0.12l0.09,0.12c0.1,0.14,0.2,0.29,0.29,0.44c0.19,0.31,0.36,0.62,0.51,0.95l0.05,0.11
				c0.09,0.2-0.11-0.27-0.05-0.12c0.03,0.08,0.07,0.17,0.1,0.26c0.07,0.18,0.13,0.36,0.18,0.54c0.11,0.38,0.2,0.76,0.26,1.15
				c0.01,0.08,0.06,0.4,0.02,0.14c-0.03-0.24-0.01-0.04,0,0.02c0.01,0.06,0.01,0.12,0.02,0.18c0.02,0.2,0.03,0.41,0.04,0.61
				c0.02,0.44,0.01,0.89-0.02,1.33c-0.02,0.23-0.04,0.47-0.07,0.7c-0.03,0.22,0.03-0.19,0.02-0.11c-0.01,0.06-0.02,0.12-0.03,0.18
				c-0.02,0.12-0.04,0.24-0.06,0.36c-0.09,0.51-0.21,1.01-0.34,1.5c-0.15,0.53-0.32,1.06-0.52,1.58c-0.05,0.13-0.1,0.25-0.15,0.38
				c-0.03,0.07-0.06,0.14-0.08,0.2c-0.01,0.03-0.02,0.06-0.04,0.08c-0.05,0.13,0.13-0.29,0.03-0.08c-0.12,0.27-0.24,0.54-0.37,0.81
				c-0.58,1.21-1.24,2.37-1.99,3.49c-0.42,0.63-0.86,1.25-1.32,1.86l-0.18,0.24c-0.08,0.11,0.05-0.07,0.05-0.07
				c-0.03,0.01-0.06,0.08-0.08,0.1c-0.13,0.17-0.27,0.34-0.41,0.51c-0.26,0.33-0.53,0.65-0.8,0.97C8.75-8.9,8.17-8.27,7.58-7.64
				c-0.46,0.46-0.46,1.21,0,1.68C8.05-5.51,8.8-5.51,9.27-5.96L9.27-5.96z"/>
		</g>
		<g id="Group_739" transform="translate(48.398 3.852)">
			<path id="Path_2514" class="st53" d="M-5.16,2.89c-0.29-2.23-0.49-4.48-0.59-6.73c-0.12-2.37-0.1-4.74,0.06-7.1
				c0.04-0.58,0.09-1.17,0.15-1.75c0.03-0.29,0.06-0.57,0.1-0.86c0.01-0.05,0.04-0.31,0.01-0.08c-0.03,0.23,0-0.03,0.01-0.08
				c0.02-0.16,0.04-0.31,0.07-0.47c0.17-1.1,0.39-2.19,0.66-3.27c0.26-1.02,0.59-2.02,0.99-2.99l0.03-0.07
				c0.05-0.13-0.11,0.27-0.06,0.14l0.07-0.17c0.05-0.12,0.11-0.24,0.16-0.35c0.1-0.23,0.21-0.45,0.33-0.67
				c0.22-0.43,0.46-0.85,0.73-1.25c0.13-0.2,0.26-0.39,0.4-0.58c0.03-0.05,0.07-0.09,0.1-0.14c0.02-0.03,0.04-0.05,0.06-0.08
				c0.02-0.02-0.19,0.24-0.11,0.14c0.08-0.09,0.15-0.19,0.23-0.28c0.29-0.35,0.61-0.69,0.94-1c0.17-0.16,0.35-0.31,0.53-0.46
				l0.11-0.08c0.12-0.1-0.26,0.2-0.05,0.04c0.08-0.07,0.18-0.13,0.27-0.19c0.38-0.27,0.78-0.5,1.19-0.71c0.1-0.05,0.2-0.1,0.3-0.14
				l0.15-0.07c0.14-0.06-0.31,0.12-0.06,0.03c0.22-0.08,0.44-0.17,0.67-0.24c0.47-0.15,0.94-0.27,1.43-0.35l0.18-0.03
				c0.05-0.01,0.29-0.04,0.05-0.01s0,0,0.05-0.01l0.21-0.02c0.31-0.03,0.62-0.05,0.94-0.06c0.61-0.02,1.21-0.01,1.81,0.04
				C7.1-27,7.23-26.98,7.37-26.96l0.11,0.01c0.13,0.01-0.2-0.02-0.17-0.02c0.08,0,0.15,0.02,0.22,0.03
				c0.26,0.04,0.52,0.09,0.78,0.15c0.49,0.12,0.97,0.27,1.44,0.46c0.17,0.07-0.27-0.12-0.1-0.04l0.16,0.07
				c0.11,0.05,0.22,0.1,0.32,0.16c0.21,0.11,0.41,0.22,0.61,0.35c0.19,0.12,0.36,0.25,0.55,0.38c0.1,0.07-0.18-0.13-0.15-0.12
				c0.03,0.02,0.05,0.03,0.07,0.06l0.1,0.08c0.09,0.08,0.18,0.15,0.27,0.23c0.31,0.29,0.6,0.6,0.87,0.93
				c0.11,0.13-0.2-0.27-0.07-0.08c0.03,0.04,0.06,0.08,0.09,0.12c0.06,0.09,0.13,0.18,0.19,0.27c0.12,0.18,0.23,0.36,0.33,0.54
				c0.1,0.18,0.2,0.37,0.29,0.57c0.04,0.09,0.08,0.19,0.13,0.28c-0.03-0.06-0.05-0.12-0.08-0.18c0.01,0.03,0.02,0.06,0.03,0.08
				c0.02,0.05,0.04,0.11,0.07,0.17c0.16,0.41,0.28,0.82,0.39,1.24c0.05,0.21,0.1,0.43,0.14,0.65c0.02,0.11,0.04,0.21,0.05,0.32
				c0.01,0.05,0.02,0.11,0.02,0.16c0.04,0.26-0.03-0.24-0.01-0.08c0.05,0.45,0.09,0.9,0.1,1.35c0.01,0.45,0,0.92-0.03,1.38
				c-0.02,0.24-0.04,0.48-0.07,0.72c-0.01,0.12-0.08,0.53-0.01,0.07c-0.02,0.12-0.03,0.24-0.05,0.36c-0.15,0.93-0.38,1.84-0.68,2.73
				c-0.07,0.22-0.15,0.44-0.24,0.66c-0.04,0.1-0.08,0.21-0.12,0.31c-0.02,0.05-0.04,0.1-0.06,0.16c-0.04,0.11,0.08-0.21,0.07-0.17
				c-0.01,0.04-0.03,0.07-0.05,0.11c-0.18,0.42-0.38,0.83-0.6,1.24c-0.21,0.39-0.43,0.77-0.68,1.14c-0.33,0.56-0.14,1.29,0.42,1.62
				c0.57,0.32,1.28,0.13,1.62-0.42c1.08-1.66,1.87-3.5,2.32-5.43c0.49-1.93,0.62-3.93,0.39-5.9c-0.22-2.03-0.99-3.96-2.23-5.59
				c-1.3-1.59-3.09-2.7-5.09-3.17c-1.22-0.29-2.48-0.42-3.73-0.38c-1.19,0.01-2.38,0.19-3.53,0.51c-1.98,0.6-3.74,1.75-5.09,3.31
				c-1.39,1.68-2.46,3.61-3.13,5.68c-0.73,2.24-1.22,4.56-1.46,6.91c-0.26,2.41-0.37,4.83-0.31,7.25c0.04,2.36,0.2,4.71,0.46,7.05
				C-7.66,1.84-7.6,2.37-7.53,2.9c0.01,0.31,0.13,0.61,0.35,0.84c0.22,0.22,0.52,0.35,0.84,0.35c0.57-0.03,1.27-0.53,1.18-1.18
				L-5.16,2.89z"/>
		</g>
		<g id="Group_740" transform="translate(73.523 10.773)">
			<path id="Path_2515" class="st53" d="M-9.75-19.28c0.13-0.41,0.27-0.83,0.43-1.23c0.04-0.09,0.07-0.18,0.11-0.27
				c0.02-0.04,0.03-0.08,0.05-0.12c-0.14,0.34-0.05,0.12-0.02,0.05c0.08-0.18,0.16-0.37,0.25-0.55c0.33-0.7,0.72-1.37,1.15-2.01
				c0.1-0.14,0.19-0.28,0.3-0.42c0.06-0.08,0.11-0.15,0.17-0.23c0.02-0.03,0.05-0.06,0.07-0.09c-0.23,0.31-0.1,0.13-0.05,0.06
				c0.22-0.27,0.44-0.54,0.68-0.79c0.47-0.48,0.97-0.94,1.49-1.38c0,0-0.25,0.19-0.12,0.09l0.08-0.06c0.07-0.05,0.13-0.1,0.2-0.15
				c0.13-0.1,0.27-0.19,0.41-0.28c0.26-0.17,0.52-0.33,0.79-0.47c0.26-0.14,0.53-0.27,0.8-0.39c0.25-0.11-0.29,0.11-0.03,0.01
				l0.17-0.07c0.14-0.06,0.28-0.11,0.43-0.15c0.27-0.09,0.55-0.17,0.84-0.24c0.27-0.08,0.55-0.13,0.83-0.15
				c0.02,0-0.36,0.04-0.19,0.03l0.08-0.01c0.07-0.01,0.14-0.01,0.21-0.02c0.14-0.01,0.28-0.02,0.42-0.03
				c0.26-0.01,0.53-0.01,0.79,0.01c0.12,0.01,0.25,0.02,0.37,0.03c0.11,0.01,0.4,0.07-0.07-0.01c0.07,0.01,0.14,0.02,0.2,0.03
				c0.25,0.04,0.51,0.1,0.75,0.17c0.25,0.07,0.5,0.15,0.75,0.25c0.1,0.04,0.32,0.15-0.08-0.03c0.06,0.03,0.12,0.05,0.18,0.08
				c0.12,0.06,0.24,0.12,0.36,0.18c0.23,0.12,0.44,0.26,0.66,0.4c0.1,0.07,0.45,0.37,0.08,0.06c0.1,0.08,0.21,0.17,0.32,0.26
				c0.2,0.17,0.39,0.36,0.56,0.56c0.09,0.1,0.18,0.2,0.26,0.31c0.01,0.01,0.06,0.08,0.07,0.08s-0.2-0.26-0.11-0.14
				c0.04,0.06,0.08,0.12,0.13,0.17C5.22-25.5,5.37-25.26,5.51-25c0.16,0.25,0.29,0.53,0.4,0.81c0,0.01-0.13-0.31-0.07-0.15
				c0.01,0.03,0.02,0.06,0.04,0.08c0.03,0.08,0.06,0.15,0.08,0.22c0.06,0.15,0.11,0.31,0.16,0.47c0.09,0.31,0.17,0.62,0.24,0.94
				c0.03,0.16,0.06,0.31,0.08,0.47c0.01,0.09,0.03,0.18,0.04,0.27c-0.07-0.43-0.01-0.09,0,0.02c0.04,0.37,0.07,0.75,0.08,1.12
				c0.01,0.35,0,0.71-0.02,1.06c-0.01,0.18-0.03,0.36-0.05,0.54C6.48-19.08,6.47-19,6.46-18.92c0.05-0.44,0,0.01-0.02,0.11
				c-0.3,1.78-0.8,3.53-1.48,5.21c-0.08,0.21-0.17,0.43-0.26,0.64C4.68-12.89,4.59-12.72,4.72-13c-0.02,0.05-0.04,0.09-0.06,0.14
				c-0.06,0.13-0.11,0.26-0.17,0.39c-0.21,0.46-0.42,0.91-0.65,1.36C3.41-10.24,2.93-9.41,2.4-8.61C2.15-8.22,1.89-7.85,1.62-7.49
				c-0.16,0.28-0.2,0.6-0.12,0.91c0.08,0.3,0.28,0.55,0.54,0.71c0.28,0.16,0.6,0.2,0.91,0.12c0.29-0.1,0.54-0.29,0.71-0.54
				c1.19-1.61,2.18-3.35,2.96-5.19c0.83-1.85,1.48-3.77,1.92-5.75c0.77-3.05,0.4-6.28-1.05-9.07c-1.24-2.17-3.38-3.67-5.84-4.08
				c-2.61-0.37-5.26,0.24-7.45,1.71c-2.67,1.85-4.7,4.48-5.81,7.53c-0.16,0.41-0.3,0.82-0.43,1.23c-0.17,0.63,0.2,1.28,0.83,1.46
				C-10.58-18.29-9.94-18.66-9.75-19.28L-9.75-19.28z"/>
		</g>
		<g id="Group_741" transform="translate(28.955)">
			<path id="Path_2516" class="st53" d="M16.55-18.88c-0.28-1.79-0.92-3.51-1.89-5.04c-0.86-1.32-1.99-2.44-3.33-3.27
				c-2.35-1.4-5.11-1.93-7.81-1.52c-2.02,0.29-3.91,1.19-5.42,2.57c-1.73,1.67-2.84,3.88-3.12,6.27C-5.54-16.06-4.67-12.18-3.4-8.6
				C-3.19-8-2.97-7.41-2.74-6.82c0.09,0.29,0.28,0.54,0.54,0.71c0.56,0.33,1.29,0.14,1.62-0.42c0.16-0.28,0.21-0.61,0.12-0.92
				c-0.84-2.06-1.5-4.2-1.96-6.37c-0.09-0.44-0.17-0.88-0.23-1.33c-0.01-0.06-0.02-0.11-0.02-0.17c-0.02-0.16,0.04,0.32,0.01,0.08
				c-0.01-0.1-0.02-0.2-0.04-0.3c-0.02-0.21-0.05-0.43-0.06-0.64c-0.06-0.75-0.08-1.51-0.04-2.27c0.02-0.34,0.05-0.69,0.09-1.03
				c0.02-0.15-0.05,0.34-0.02,0.14l0.01-0.1c0.01-0.08,0.03-0.16,0.04-0.25c0.03-0.16,0.06-0.32,0.09-0.48
				c0.12-0.58,0.29-1.14,0.51-1.69c0.01-0.03,0.02-0.05,0.03-0.08c0.06-0.15-0.08,0.18-0.07,0.17c0.02-0.07,0.05-0.13,0.08-0.19
				c0.06-0.12,0.12-0.25,0.18-0.37c0.12-0.23,0.24-0.46,0.38-0.68c0.13-0.21,0.28-0.41,0.42-0.61c0.1-0.13-0.23,0.29-0.06,0.08
				c0.03-0.04,0.07-0.08,0.1-0.13c0.08-0.09,0.16-0.19,0.24-0.27c0.31-0.34,0.64-0.65,1-0.93c0.18-0.14-0.25,0.19-0.09,0.07
				l0.12-0.09c0.09-0.07,0.18-0.13,0.27-0.19c0.18-0.12,0.36-0.23,0.54-0.34c0.19-0.11,0.37-0.2,0.55-0.29
				c0.08-0.04,0.17-0.08,0.25-0.12l0.14-0.06c0.2-0.09-0.32,0.13-0.11,0.05c0.44-0.18,0.9-0.32,1.36-0.43
				c0.25-0.06,0.51-0.1,0.77-0.14c0.23-0.03-0.35,0.04-0.09,0.01l0.21-0.02c0.14-0.01,0.28-0.03,0.42-0.03
				c0.56-0.03,1.13-0.03,1.69,0.03c0.14,0,0.29,0.02,0.43,0.05c0,0.01-0.34-0.05-0.18-0.02l0.11,0.02c0.08,0.01,0.17,0.03,0.25,0.04
				c0.29,0.05,0.58,0.12,0.86,0.19c0.3,0.08,0.6,0.18,0.9,0.28c0.13,0.05,0.27,0.1,0.4,0.16c-0.4-0.16-0.13-0.06-0.04-0.01
				c0.09,0.04,0.16,0.07,0.24,0.11c0.28,0.14,0.55,0.28,0.82,0.45c0.14,0.09,0.28,0.18,0.42,0.27l0.16,0.11
				c0.08,0.06,0.38,0.3,0.04,0.03c0.53,0.42,1.01,0.89,1.44,1.4c0.05,0.06,0.1,0.13,0.15,0.19c-0.27-0.32-0.04-0.05,0.02,0.02
				c0.11,0.15,0.22,0.31,0.32,0.46c0.2,0.31,0.39,0.63,0.55,0.97c0.08,0.17,0.17,0.35,0.25,0.53c0.04,0.08,0.09,0.24-0.03-0.08
				c0.02,0.04,0.03,0.08,0.05,0.12c0.04,0.11,0.09,0.22,0.13,0.33c0.15,0.41,0.28,0.82,0.39,1.24c0.12,0.44,0.21,0.88,0.28,1.33
				c0.18,0.63,0.83,1,1.46,0.83C16.33-17.61,16.7-18.25,16.55-18.88L16.55-18.88z"/>
		</g>
		<g id="Group_742" transform="translate(8.153 13.847)">
			<path id="Path_2517" class="st53" d="M18.56-26.2c-2.37-2.24-5.29-3.82-8.47-4.56c-2.43-0.51-4.96-0.15-7.15,1.03
				c-1.96,1.14-3.45,2.92-4.24,5.04c-0.8,2.18-0.87,4.55-0.2,6.77c0.83,2.65,2.42,5,4.58,6.75c0.36,0.3,0.73,0.58,1.1,0.86
				c0.28,0.16,0.6,0.2,0.91,0.12c0.63-0.17,1-0.82,0.83-1.45c-0.08-0.3-0.28-0.56-0.55-0.71l-0.22-0.17
				c-0.16-0.12,0.06,0.05,0.08,0.06l-0.11-0.08c-0.15-0.12-0.3-0.24-0.44-0.36c-0.27-0.23-0.54-0.47-0.8-0.72
				c-0.48-0.46-0.92-0.96-1.33-1.48c-0.09-0.11,0.16,0.21,0.08,0.1L2.55-15.1c-0.04-0.06-0.08-0.11-0.12-0.16
				c-0.1-0.14-0.2-0.28-0.29-0.42c-0.17-0.25-0.32-0.5-0.47-0.76c-0.15-0.26-0.28-0.52-0.41-0.79c-0.06-0.12-0.11-0.24-0.16-0.36
				c0.17,0.37,0.06,0.13,0.02,0.04c-0.04-0.09-0.06-0.16-0.09-0.24c-0.19-0.5-0.34-1.02-0.45-1.55c-0.03-0.13-0.05-0.26-0.07-0.39
				c-0.01-0.06-0.02-0.13-0.03-0.19c-0.04-0.28,0.03,0.29,0.01,0.05c-0.03-0.26-0.05-0.52-0.06-0.79c-0.02-0.5,0-1.01,0.06-1.51
				c0-0.03,0.01-0.06,0.01-0.09c-0.01,0.06-0.02,0.12-0.02,0.18c0.01-0.06,0.02-0.12,0.03-0.18c0.02-0.13,0.04-0.25,0.07-0.38
				c0.05-0.24,0.11-0.47,0.17-0.7c0.07-0.23,0.15-0.46,0.23-0.7C1-24.1,1.02-24.16,1.04-24.21c0.08-0.22-0.13,0.29-0.03,0.08
				c0.05-0.11,0.1-0.23,0.16-0.34c0.21-0.43,0.45-0.84,0.72-1.22c0.03-0.05,0.07-0.09,0.1-0.14c0.02-0.02,0.04-0.05,0.05-0.07
				c0.08-0.11-0.19,0.24-0.11,0.14s0.15-0.19,0.23-0.29c0.15-0.18,0.31-0.35,0.47-0.51c0.17-0.16,0.34-0.32,0.53-0.48l0.14-0.11
				c0.17-0.13-0.23,0.17-0.08,0.06c0.11-0.08,0.21-0.16,0.32-0.23c0.4-0.27,0.82-0.51,1.26-0.71c0.05-0.02,0.1-0.04,0.14-0.06
				c-0.38,0.18-0.17,0.07-0.07,0.03c0.13-0.05,0.26-0.1,0.39-0.14c0.23-0.08,0.47-0.15,0.71-0.21c0.25-0.06,0.51-0.11,0.77-0.15
				l0.07-0.01c0.17-0.03-0.18,0.03-0.17,0.02c0.06-0.01,0.13-0.02,0.19-0.02c0.14-0.01,0.28-0.03,0.42-0.03
				c0.55-0.03,1.11-0.02,1.66,0.04c0.07,0.01,0.14,0.02,0.21,0.02c-0.42-0.04-0.15-0.02-0.05-0.01c0.15,0.02,0.31,0.05,0.46,0.08
				c0.31,0.06,0.61,0.13,0.91,0.22s0.6,0.18,0.91,0.29c0.15,0.06,0.31,0.11,0.46,0.17c0.08,0.03,0.15,0.07,0.23,0.09
				c-0.01,0-0.28-0.12-0.11-0.05l0.15,0.06c0.67,0.3,1.31,0.64,1.94,1.02c0.34,0.21,0.68,0.43,1.01,0.66
				c0.17,0.12,0.33,0.23,0.49,0.35l0.22,0.16c0.04,0.03,0.08,0.06,0.12,0.1c-0.24-0.21-0.04-0.03,0.01,0.01
				c0.34,0.27,0.68,0.55,1,0.84c0.46,0.46,1.21,0.46,1.68,0C19.02-24.99,19.02-25.74,18.56-26.2L18.56-26.2z"/>
		</g>
		<g id="Group_743" transform="translate(9.975 45.824)">
			<path id="Path_2518" class="st53" d="M-1.66-34.74c2,0.04,4,0.2,5.98,0.48c1.96,0.3,3.89,0.73,5.78,1.3
				c1.07,0.32,2.12,0.68,3.15,1.09c0.31,0.08,0.64-0.1,0.73-0.41c0.08-0.31-0.1-0.64-0.41-0.73c-3.76-1.46-7.7-2.37-11.72-2.73
				c-1.17-0.1-2.34-0.15-3.51-0.18C-2.42-35.95-2.42-34.77-1.66-34.74L-1.66-34.74z"/>
		</g>
		<g id="Group_744" transform="translate(35.261 36.083)">
			<path id="Path_2519" class="st53" d="M2.61-16.99l-5.99-13.37l-1.69-3.77c-0.17-0.28-0.53-0.38-0.81-0.21
				c-0.28,0.17-0.37,0.53-0.21,0.81l5.99,13.37l1.69,3.77c0.17,0.28,0.53,0.37,0.81,0.21C2.68-16.35,2.77-16.71,2.61-16.99
				L2.61-16.99z"/>
		</g>
		<g id="Group_745" transform="translate(61.024 38.805)">
			<path id="Path_2520" class="st53" d="M-8.98-19.77c1.27-3.96,3.04-7.75,5.27-11.26c0.63-1,1.3-1.97,2-2.91
				c0.16-0.28,0.07-0.64-0.21-0.81c-0.28-0.16-0.64-0.06-0.81,0.21c-2.53,3.42-4.61,7.14-6.19,11.09c-0.44,1.11-0.85,2.23-1.21,3.37
				c-0.09,0.32,0.1,0.64,0.41,0.73C-9.39-19.27-9.07-19.46-8.98-19.77L-8.98-19.77L-8.98-19.77z"/>
		</g>
		<g id="Group_746" transform="translate(73.441 47.068)">
			<path id="Path_2521" class="st53" d="M-11.17-29.17c3.19-2.14,6.7-3.77,10.39-4.82c1.05-0.34,2.1-0.65,3.15-0.97
				c0.32-0.09,0.5-0.41,0.41-0.73C2.7-36,2.37-36.18,2.05-36.1c-3.8,1.01-7.49,2.4-11.02,4.15c-0.97,0.52-1.91,1.11-2.81,1.75
				c-0.27,0.17-0.37,0.53-0.21,0.81C-11.82-29.1-11.46-29.01-11.17-29.17L-11.17-29.17z"/>
		</g>
		<g id="Group_747" transform="translate(79.85 23.264)">
			<path id="Path_2522" class="st53" d="M-11.97-20.64c1.28-2.9,2.66-5.76,4.12-8.58c0.4-0.77,0.81-1.55,1.22-2.31
				c0.36-0.67-0.66-1.27-1.02-0.6c-1.5,2.79-2.92,5.63-4.26,8.51c-0.37,0.79-0.73,1.58-1.08,2.38c-0.16,0.28-0.06,0.64,0.21,0.81
				C-12.5-20.27-12.14-20.36-11.97-20.64L-11.97-20.64z"/>
		</g>
		<g id="Group_748" transform="translate(58.707 14.232)">
			<path id="Path_2523" class="st53" d="M-8.63-14.7c0.67-4.17,1.7-8.27,3.09-12.26c0.37-1.11,0.75-2.22,1.14-3.32
				c0.09-0.32-0.1-0.64-0.41-0.73c-0.32-0.09-0.64,0.1-0.73,0.41l0,0C-7-26.63-8.2-22.58-9.15-18.47c-0.25,1.14-0.46,2.29-0.62,3.45
				c-0.08,0.31,0.1,0.63,0.41,0.73C-9.04-14.2-8.72-14.39-8.63-14.7L-8.63-14.7z"/>
		</g>
		<g id="Group_749" transform="translate(41.111 10.999)">
			<path id="Path_2524" class="st53" d="M-0.77-13.07c-0.37-1.47-0.77-2.94-1.17-4.4c-0.78-2.87-1.6-5.74-2.51-8.57
				c-0.44-1.36-0.89-2.73-1.44-4.06c-0.1-0.31-0.41-0.49-0.73-0.41c-0.31,0.09-0.5,0.41-0.41,0.73c1.01,2.57,1.88,5.2,2.6,7.86
				c0.74,2.52,1.44,5.06,2.11,7.61c0.14,0.52,0.27,1.04,0.41,1.56c0.09,0.32,0.41,0.5,0.73,0.41S-0.68-12.76-0.77-13.07L-0.77-13.07
				L-0.77-13.07z"/>
		</g>
		<g id="Group_750" transform="translate(17.592 22.866)">
			<path id="Path_2525" class="st53" d="M-3.12-31.27c2.53,1.36,4.88,3.05,6.99,5.01c0.56,0.52,1.4-0.32,0.84-0.84
				c-2.18-2.03-4.61-3.78-7.23-5.19C-3.19-32.66-3.79-31.63-3.12-31.27L-3.12-31.27z"/>
		</g>
		<path id="Path_2526" class="st24" d="M43.2,19.69H11.67v31.34c0,9.76,6.98,17.68,15.59,17.68h31.87c8.61,0,15.59-7.92,15.59-17.68
			V19.69H43.2z"/>
		<g id="Group_751" transform="translate(13.223 55.993)">
			<path id="Path_2527" class="st53" d="M29.98-37.49H2.32c-1.27,0-2.55-0.03-3.82,0h-0.05c-0.65,0.01-1.17,0.53-1.18,1.18v31.05
				c-0.03,3.22,0.67,6.41,2.05,9.32c1.72,3.68,4.66,6.64,8.32,8.4c1.86,0.86,3.87,1.34,5.92,1.42c0.57,0.02,1.15,0.01,1.72,0.01
				h26.19c1.72,0,3.45,0.07,5.17-0.02c4.05-0.24,7.86-2.02,10.66-4.96c2.96-3.15,4.81-7.18,5.27-11.47
				c0.14-1.47,0.18-2.94,0.14-4.42V-36.3c-0.01-0.65-0.53-1.17-1.18-1.18H33.86c-1.28,0-2.56-0.03-3.83,0L29.98-37.49
				c-0.66,0-1.19,0.53-1.19,1.18s0.53,1.18,1.18,1.18h27.64c1.27,0,2.56,0.05,3.83,0h0.05l-1.18-1.18v30.96
				c0.01,0.81-0.03,1.62-0.1,2.42c-0.01,0.12-0.03,0.24-0.04,0.37c0,0.01-0.04,0.31-0.01,0.11c0.02-0.17,0,0.03-0.01,0.07
				c-0.04,0.27-0.08,0.54-0.14,0.81c-0.1,0.51-0.21,1.02-0.35,1.53c-0.14,0.5-0.29,0.99-0.47,1.47c-0.08,0.23-0.17,0.46-0.27,0.69
				c-0.03,0.05-0.05,0.11-0.07,0.16c0-0.03,0.11-0.24,0.02-0.04c-0.06,0.13-0.12,0.26-0.18,0.39c-0.42,0.9-0.91,1.77-1.46,2.59
				c-0.13,0.18-0.25,0.37-0.39,0.55l-0.1,0.13c-0.01,0.01-0.18,0.23-0.06,0.08C56.8,5.85,56.69,6,56.66,6.03
				c-0.04,0.05-0.08,0.11-0.13,0.16c-0.31,0.38-0.64,0.75-0.99,1.11c-0.32,0.33-0.66,0.65-1.01,0.95C54.36,8.4,54.18,8.55,54,8.69
				c-0.03,0.03-0.17,0.14-0.04,0.03c0.16-0.12-0.06,0.04-0.07,0.05c-0.1,0.07-0.19,0.14-0.29,0.21c-0.76,0.54-1.58,1.02-2.43,1.41
				c-0.1,0.06-0.21,0.11-0.33,0.15c0.02,0,0.26-0.1,0.06-0.03l-0.15,0.06c-0.23,0.09-0.45,0.17-0.68,0.25
				c-0.44,0.15-0.9,0.28-1.35,0.38c-0.23,0.05-0.45,0.1-0.68,0.14c-0.11,0.02-0.21,0.04-0.32,0.05c-0.05,0.01-0.11,0.02-0.16,0.02
				l0.11-0.02l-0.12,0.02c-0.46,0.05-0.93,0.09-1.4,0.09c-0.52,0.01-1.04,0-1.56,0H18.62c-1.66,0-3.33,0.04-4.99-0.01
				c-0.23-0.01-0.47-0.02-0.7-0.04c-0.12-0.01-0.25-0.02-0.37-0.03l-0.16-0.02c-0.04-0.01-0.27-0.05-0.08-0.01
				c0.19,0.04-0.18-0.03-0.24-0.04c-0.11-0.02-0.21-0.04-0.32-0.06c-0.24-0.05-0.47-0.1-0.71-0.15c-0.46-0.11-0.9-0.25-1.35-0.4
				c-0.21-0.08-0.42-0.16-0.64-0.24c-0.08-0.03-0.16-0.02,0.06,0.03c-0.05-0.02-0.1-0.04-0.15-0.06c-0.12-0.06-0.24-0.11-0.36-0.17
				C7.76,9.91,6.95,9.43,6.2,8.87C6.11,8.81,6.02,8.75,5.94,8.68c0.22,0.22-0.01-0.01-0.08-0.07C5.67,8.46,5.48,8.3,5.3,8.14
				C4.93,7.82,4.58,7.47,4.24,7.12C3.92,6.78,3.61,6.43,3.32,6.06c-0.04-0.04-0.07-0.08-0.1-0.13C3.36,6.16,3.27,6,3.22,5.94
				c-0.07-0.09-0.13-0.18-0.2-0.27C2.87,5.45,2.72,5.23,2.57,5.01C2.03,4.19,1.56,3.33,1.16,2.44c-0.03-0.07-0.2-0.44-0.07-0.15
				C1.04,2.18,1,2.07,0.96,1.96c-0.1-0.24-0.19-0.49-0.27-0.74C0.51,0.74,0.36,0.24,0.23-0.26C0.1-0.75-0.01-1.27-0.11-1.79
				C-0.15-2.03-0.2-2.27-0.22-2.51c0.03,0.33-0.01-0.12-0.02-0.19C-0.26-2.85-0.27-3-0.29-3.15c-0.12-1.32-0.08-2.66-0.08-3.99
				v-29.17l-1.18,1.18H26.1c1.27,0,2.55,0.03,3.82,0h0.05c0.65,0,1.18-0.53,1.18-1.18S30.63-37.49,29.98-37.49L29.98-37.49z"/>
		</g>
	</g>
	<g id="Group_780" transform="translate(520.226 387.893)">
		<path id="Path_2528" class="st23" d="M176.48,209.16c-4.03-13.73-7.51-27.66-12.83-40.95c-2.33-5.82-5-11.57-8.86-16.51
			c-5.08-6.5-12.05-11.32-19.48-14.92c-7.43-3.6-15.35-6.04-23.23-8.47l-43.51,9.47c-8.96,2.96-18.2,6.06-25.24,12.34
			c-9.24,8.22-13.36,21.96-17.1,33.75L7.17,216.08l-34.15,9.55c3.18,4.99,5.18,10.64,5.84,16.52l7.36,10.47
			c0,0,28.99,4.57,46.38-5.89l17.05-1.87l2.08,10.48l120.02,0.2C188.63,250.32,178.83,217.2,176.48,209.16z"/>
		<path id="Path_2529" class="st26" d="M123.76,132.31c2.53,16.72-17.41,31.15-32.48,28.54c-6.37-1.1-12.53-5.96-12.86-12.42
			c-2.39,3.86-5.97,7.18-10.37,8.3c-13,3.3-17.33-10.22-8.52-15.67l27.03-10.82l16.59-1.92L123.76,132.31z"/>
		<path id="Path_2530" class="st26" d="M68.56,175.45l-5.12-5.02l-39.37,13.54L5.43,173.77l-4.8,4.52l18.17,9.74l6.11,0.85
			L68.56,175.45z"/>
		<path id="Path_2531" class="st20" d="M-43.26,228.28l17.73-1.39c0,0,5,7.96,4.69,16.63l-17.65-0.86L-43.26,228.28z"/>
		<path id="Path_2532" class="st18" d="M43.32,150.11c-6.73-6.27-8.52-16.23-4.39-24.44c0,0,11.18,2.16,17.7,0.32
			c3.78-1.05,7.47-2.42,11.03-4.08c0,0,3.44,6.46,3.49,11.25c0.05,4.79-3.4,4.89-3.4,4.89s-12.43,4.27-16,6.34
			C48.16,146.46,43.32,150.11,43.32,150.11"/>
		<path id="Path_2533" class="st20" d="M93.24,65.31l1.21-12.58c0,0,4.04-15.47-1.27-25.05s-36.71-6.82-59.99,0
			C9.91,34.51,13.58,45.67,13.58,45.67c-3.14,22.06-0.41,57,11.49,70.91c7.57,8.84,20.98,11.98,32.68,9.3
			c1.73-0.4,8.02-2.96,9.67-3.57l3.12,7.94c0,0,2.74,6.97-3.59,10.75c0,0,6.51,8.87,20.71,7.15c17.96-2.17,24.63-17.9,24.63-17.9
			c-12.06-13.64-17.06-25.14-17.06-38.95l1.54,0.06c3.97-0.15,7.72-1.87,10.41-4.79C116.3,76.38,107.86,58.17,93.24,65.31z"/>
		<path id="Path_2534" class="st18" d="M17.63,21.64C7.41,20.84-1.52,28.47-2.32,38.69c-0.29,3.65,0.51,7.31,2.3,10.5
			c-5.42,5.19-6.25,14.05-3.15,20.89s9.47,11.77,16.4,14.66l-0.76-27.51l15.56-21.66L17.63,21.64z"/>
		<path id="Path_2535" class="st18" d="M180.4,132.21c-5.76-16.83-19.62-29.61-36.87-33.98c5.38-21.67-6.81-41.28-23.18-43.68
			c3.84-15.72-2.47-33.44-15.38-43.2s-31.68-10.99-45.76-3c0,0-2.01-6.39-13.86-7.14c-13.8-0.87-25.7,9.61-26.57,23.41
			c-0.3,4.8,0.78,9.59,3.13,13.78c4.06,7.27,11.55,12.1,19.47,14.68C49.3,55.64,57.7,56.2,66,56.74c1.98,6.45,5.09,12.5,9.18,17.87
			c1.4,1.84,3.19,3.73,5.49,3.86c2.08,0.11,3.94-1.26,5.4-2.74c3.22-3.29,5.49-7.38,6.57-11.85c18.96-5.7,20.59,11.66,16.68,19.71
			c-4.12,8.45-14.08,8.24-14.08,8.24c-1.32,17.61,14,34.8,14,34.8s23.8,5.42,38.3,17.76c15.6,13.28,21.18,38.11,21.18,38.11
			C179.88,169.1,185.88,148.78,180.4,132.21z"/>
		<g id="Group_753" transform="translate(159.344 73.787)">
			<path id="Path_2536" d="M-65.36-7.6c0.22-0.11,0.45-0.21,0.68-0.31c0.06-0.03,0.12-0.05,0.18-0.08c-0.29,0.14-0.17,0.07-0.1,0.04
				c0.14-0.06,0.28-0.11,0.42-0.17c0.43-0.16,0.86-0.31,1.3-0.44c0.42-0.12,0.84-0.22,1.26-0.31c0.2-0.04,0.41-0.07,0.61-0.1
				c0.31-0.04-0.29,0.03,0.02,0c0.13-0.02,0.25-0.03,0.38-0.04c0.76-0.07,1.53-0.06,2.29,0.02l0.15,0.02
				C-58.56-9.01-58.4-9-58.3-8.99c0.09,0.01,0.18,0.03,0.27,0.04c0.18,0.03,0.35,0.07,0.53,0.1c0.36,0.08,0.72,0.18,1.07,0.3
				c0.15,0.05,0.3,0.11,0.45,0.16l0.13,0.05c0.19,0.07-0.29-0.13-0.11-0.05c0.08,0.04,0.17,0.08,0.25,0.12
				c0.31,0.15,0.62,0.31,0.91,0.48c0.31,0.18,0.61,0.38,0.89,0.59l0.07,0.06c0.16,0.12-0.25-0.2-0.09-0.07
				c0.06,0.05,0.12,0.1,0.18,0.15c0.14,0.12,0.29,0.24,0.42,0.37c0.25,0.23,0.5,0.47,0.73,0.72c0.12,0.13,0.23,0.26,0.34,0.39
				c0.05,0.06,0.1,0.12,0.15,0.18l0.08,0.11c0.16,0.2-0.11-0.15-0.05-0.07c0.43,0.56,0.81,1.16,1.14,1.78
				c0.17,0.31,0.32,0.63,0.46,0.96c0.04,0.08,0.1,0.27-0.04-0.1c0.02,0.05,0.04,0.09,0.06,0.14c0.03,0.07,0.06,0.15,0.09,0.23
				c0.07,0.18,0.14,0.37,0.2,0.55c0.23,0.69,0.41,1.39,0.54,2.1c0.03,0.18,0.06,0.36,0.08,0.54c0.04,0.29-0.04-0.31,0-0.02
				c0.01,0.11,0.03,0.22,0.04,0.32c0.04,0.38,0.06,0.75,0.07,1.13c0.02,0.75-0.02,1.5-0.11,2.24c-0.01,0.09-0.04,0.3,0.02-0.11
				c-0.01,0.05-0.01,0.1-0.02,0.15c-0.01,0.09-0.03,0.17-0.04,0.25c-0.03,0.2-0.07,0.41-0.11,0.61c-0.08,0.38-0.17,0.75-0.28,1.12
				c-0.11,0.37-0.23,0.73-0.37,1.1c-0.04,0.1-0.08,0.2-0.12,0.3l-0.04,0.1c-0.08,0.2,0.12-0.28,0.04-0.08
				c-0.09,0.2-0.17,0.39-0.27,0.59c-0.35,0.72-0.76,1.42-1.22,2.08c-0.12,0.17-0.24,0.33-0.37,0.5c0.25-0.34,0.03-0.04-0.02,0.03
				c-0.08,0.1-0.16,0.19-0.24,0.29c-0.33,0.39-0.68,0.76-1.06,1.12c-0.19,0.18-0.38,0.35-0.58,0.52c-0.1,0.09-0.21,0.17-0.31,0.25
				l-0.05,0.04c0.16-0.13-0.08,0.06-0.11,0.08c-0.43,0.32-0.89,0.62-1.35,0.89c-0.49,0.28-1,0.54-1.51,0.77l-0.14,0.06
				c0.32-0.14,0.08-0.03,0.01-0.01c-0.11,0.05-0.23,0.09-0.34,0.13c-0.28,0.1-0.56,0.2-0.84,0.29c-0.52,0.16-1.04,0.29-1.58,0.4
				c-0.26,0.05-0.55,0.07-0.8,0.14c0.32-0.08,0.12-0.02,0.02,0l-0.15,0.02c-0.16,0.02-0.32,0.03-0.48,0.05
				c-0.55,0.04-1.1,0.06-1.66,0.04c-0.26-0.01-0.52-0.02-0.77-0.05c-0.13-0.01-0.27-0.03-0.4-0.04c-0.03,0-0.28-0.04-0.06-0.01
				c0.21,0.03-0.1-0.01-0.13-0.02c-0.53-0.08-1.06-0.19-1.59-0.34c-0.63-0.17-1.28,0.2-1.46,0.83c-0.17,0.63,0.2,1.28,0.83,1.46
				c4.71,1.25,9.73,0.3,13.65-2.59c3.1-2.31,5.24-5.66,6.03-9.44c0.68-3.3,0.32-6.73-1.02-9.83c-1.2-2.86-3.4-5.18-6.18-6.54
				c-1.54-0.71-3.2-1.08-4.89-1.09c-1.86,0.01-3.71,0.37-5.44,1.07c-0.55,0.22-1.09,0.45-1.62,0.71c-0.56,0.33-0.75,1.06-0.42,1.62
				c0.34,0.55,1.05,0.74,1.62,0.42L-65.36-7.6z"/>
		</g>
		<g id="Group_754" transform="translate(64.307 47.055)">
			<path id="Path_2537" d="M13.63,66.53C7.24,72.32-0.61,76.66-9.22,78c-0.55,0.08-0.75,0.11-1.33,0.18
				c-0.51,0.06-1.02,0.1-1.53,0.14c-0.98,0.07-1.96,0.1-2.94,0.08c-0.98-0.01-1.96-0.06-2.94-0.15c-1.09-0.1-1.77-0.19-2.84-0.38
				c-1.95-0.34-3.87-0.85-5.74-1.51c-0.96-0.34-1.64-0.62-2.49-1.02c-0.85-0.4-1.71-0.85-2.54-1.32c-1.63-0.93-3.14-2.04-4.53-3.3
				c-0.7-0.63-1.36-1.31-1.99-2.01c-0.27-0.3-0.52-0.61-0.78-0.92c-0.1-0.13-0.2-0.25-0.3-0.38c0.17,0.22-0.03-0.04-0.05-0.07
				c-0.08-0.1-0.16-0.21-0.23-0.31c-0.93-1.28-1.78-2.61-2.54-4c-0.4-0.74-0.79-1.49-1.15-2.25c-0.17-0.36-0.34-0.73-0.51-1.1
				c-0.09-0.2-0.18-0.41-0.27-0.61l-0.11-0.25c-0.03-0.08-0.03-0.07,0.01,0.02l-0.08-0.21c-1.41-3.45-2.55-7-3.41-10.62
				c-0.46-1.88-0.86-3.77-1.21-5.67c-0.19-1.01-0.36-2.02-0.52-3.03c-0.07-0.47-0.14-0.94-0.21-1.4c-0.04-0.26-0.07-0.51-0.11-0.77
				l-0.04-0.25l-0.03-0.25l-0.01-0.07c-1.03-7.85-1.4-15.77-1.13-23.69c0.03-0.9,0.07-1.8,0.12-2.7l-0.16,0.6
				c2.07-3.95,4.44-7.74,7.09-11.32c1.19-1.62,2.43-3.18,3.8-4.71c0.45-0.47,0.45-1.21,0-1.68c-0.47-0.46-1.21-0.46-1.68,0
				c-3.36,3.84-6.35,7.99-8.93,12.4c-0.72,1.2-1.42,2.41-2.08,3.65c-0.21,0.32-0.35,0.69-0.41,1.07c-0.1,1.13-0.11,2.28-0.14,3.42
				c-0.14,4.82-0.04,9.64,0.3,14.44c0.34,4.99,0.95,9.96,1.85,14.88c0.82,4.63,2.02,9.19,3.58,13.63c1.36,3.98,3.25,7.77,5.62,11.24
				c2.66,3.75,6.17,6.81,10.24,8.94c4.43,2.28,9.28,3.62,14.25,3.95c5.11,0.35,10.23-0.32,15.08-1.95
				c5.26-1.8,10.17-4.49,14.51-7.95c1.04-0.82,2.05-1.67,3.03-2.56c0.46-0.46,0.46-1.21,0-1.68C14.84,66.08,14.09,66.08,13.63,66.53
				L13.63,66.53z"/>
		</g>
		<g id="Group_755" transform="translate(103.33 72.046)">
			<path id="Path_2538" class="st18" d="M-46.05-9.97c-1.59-0.7-3.3-1.1-5.04-1.17c-2.66-0.11-5.3,0.55-7.59,1.9
				c-0.57,0.33-0.76,1.06-0.43,1.62c0.33,0.56,1.06,0.76,1.62,0.43l0,0c0.32-0.19,0.65-0.37,0.99-0.53
				c0.08-0.04,0.17-0.08,0.25-0.12c0.08-0.03,0.35-0.11,0.05-0.02c0.18-0.05,0.35-0.14,0.52-0.2c0.71-0.25,1.43-0.45,2.17-0.57
				c0.09-0.02,0.19-0.03,0.28-0.04c0.04-0.01,0.08-0.01,0.12-0.02c-0.03,0.01-0.29,0.03-0.08,0.01c0.19-0.02,0.37-0.04,0.56-0.05
				c0.37-0.03,0.75-0.04,1.12-0.04c0.38,0,0.75,0.02,1.12,0.06c0.09,0.01,0.19,0.02,0.28,0.03c0.04,0.01,0.08,0.01,0.12,0.02
				c-0.03,0-0.29-0.04-0.08-0.01c0.19,0.03,0.37,0.06,0.55,0.1c0.42,0.08,0.84,0.19,1.25,0.31c0.19,0.06,0.38,0.12,0.57,0.19
				c0.1,0.04,0.2,0.07,0.3,0.11l0.11,0.04c0.26,0.1-0.25-0.11,0.01,0.01c0.28,0.15,0.6,0.19,0.91,0.12c0.63-0.17,1-0.82,0.83-1.45
				C-45.58-9.56-45.78-9.82-46.05-9.97L-46.05-9.97z"/>
		</g>
		<g id="Group_756" transform="translate(70.789 78.275)">
			<path id="Path_2539" class="st18" d="M-45.02-11.85c-3.24-0.82-6.66,0.24-8.87,2.73c-0.46,0.46-0.46,1.21,0,1.68
				c0.46,0.46,1.21,0.46,1.68,0c0.22-0.26,0.46-0.51,0.72-0.73c0.07-0.06,0.15-0.13,0.22-0.19l0.08-0.07
				c0.07-0.06,0.04-0.03-0.09,0.07c0.07-0.01,0.18-0.13,0.24-0.17c0.06-0.04,0.12-0.08,0.18-0.12c0.29-0.19,0.59-0.35,0.9-0.5
				c0.08-0.04,0.16-0.07,0.23-0.11c0.08-0.04,0.04-0.02-0.11,0.05l0.14-0.05c0.16-0.06,0.32-0.12,0.49-0.17
				c0.33-0.1,0.66-0.18,1-0.24c0.07-0.01,0.15-0.02,0.22-0.04c-0.37,0.08-0.04,0.01,0.05,0c0.17-0.02,0.34-0.03,0.51-0.03
				c0.34-0.01,0.69,0,1.03,0.04c0.11,0.01,0.27,0.1-0.02-0.01c0.08,0.02,0.17,0.03,0.25,0.04c0.18,0.03,0.36,0.07,0.54,0.12
				c0.63,0.17,1.28-0.2,1.46-0.83c0.17-0.63-0.2-1.28-0.83-1.46L-45.02-11.85z"/>
		</g>
		
			<ellipse id="Ellipse_83" transform="matrix(0.9863 -0.165 0.165 0.9863 -12.4286 9.3042)" cx="49.77" cy="79.44" rx="3.69" ry="5.41"/>
		
			<ellipse id="Ellipse_84" transform="matrix(0.9863 -0.165 0.165 0.9863 -13.4538 5.2673)" cx="24.97" cy="83.59" rx="3.69" ry="5.41"/>
		<g id="Group_757" transform="translate(162.431 84.122)">
			<path id="Path_2540" d="M-58.77-11.84c-0.55-0.79-1.46-1.24-2.41-1.19c-1.03,0.07-1.99,0.52-2.71,1.26
				c-0.74,0.74-1.39,1.56-1.94,2.45c-0.59,0.92-1.1,1.88-1.52,2.89c-0.46,1.09-0.81,2.22-1.05,3.37c-0.08,0.32,0.12,0.64,0.44,0.72
				c0.2,0.05,0.41-0.01,0.55-0.15c0.37-0.35,0.8-0.62,1.28-0.79c0.49-0.18,1.02-0.26,1.54-0.23c1.04,0.02,2.03,0.46,2.74,1.21
				c0.23,0.23,0.61,0.23,0.84,0c0.23-0.23,0.23-0.61,0-0.84l0,0c-1.97-2-5.17-2.09-7.24-0.19l0.99,0.58
				c0.38-1.85,1.06-3.63,2.01-5.27c0.46-0.8,1-1.57,1.59-2.28c0.5-0.68,1.19-1.19,1.98-1.48c0.35-0.1,0.72-0.1,1.08-0.02
				c0.17,0.04,0.34,0.11,0.49,0.21c0.13,0.09,0.25,0.2,0.34,0.33c0.17,0.28,0.53,0.37,0.81,0.21C-58.7-11.19-58.6-11.55-58.77-11.84
				L-58.77-11.84z"/>
		</g>
		
			<ellipse id="Ellipse_85" transform="matrix(0.9863 -0.165 0.165 0.9863 -14.5594 11.7947)" class="st29" cx="63.69" cy="93.51" rx="6.6" ry="4.74"/>
		<path id="Path_2541" d="M43.29,98.54c-3.39,0-6.75,0.6-9.93,1.77c-0.2,2.17,0.97,4.24,2.94,5.19c2,0.87,4.32,0.45,5.88-1.07
			C43.69,102.87,44.12,100.56,43.29,98.54z"/>
		<path id="Path_2542" class="st30" d="M34.43,103.98c0.49,0.65,1.13,1.17,1.87,1.52c2,0.87,4.32,0.45,5.88-1.07
			c0.52-0.53,0.92-1.16,1.17-1.86C40.31,101.87,37.11,102.37,34.43,103.98z"/>
		<g id="Group_758" transform="translate(90.285 116.25)">
			<path id="Path_2543" class="st53" d="M-46.99-18c-3.42-0.01-6.81,0.6-10.01,1.79c-0.12,0.04-0.21,0.15-0.22,0.29
				c-0.24,2.69,1.52,5.15,4.14,5.8c1.29,0.28,2.63,0.1,3.81-0.49c1.18-0.6,2.1-1.62,2.58-2.86c0.55-1.39,0.54-2.93-0.02-4.31
				c-0.05-0.15-0.21-0.24-0.36-0.21c-0.16,0.04-0.25,0.21-0.21,0.36c1.13,2.52,0.01,5.47-2.5,6.61c-0.86,0.39-1.82,0.52-2.76,0.39
				c-1.17-0.16-2.23-0.76-2.97-1.67c-0.84-1.01-1.25-2.32-1.12-3.63l-0.22,0.29c3.15-1.17,6.49-1.77,9.85-1.77
				c0.16-0.01,0.28-0.16,0.27-0.32C-46.74-17.87-46.85-17.99-46.99-18z"/>
		</g>
		<g id="Group_759" transform="translate(161.853 106.784)">
			<path id="Path_2544" d="M-68.33-15.35c0.22,2.91,0.63,5.81,1.25,8.66c0.6,2.78,1.39,5.51,2.37,8.18c1,2.74,2.18,5.42,3.54,8
				c2.69,5.11,6.07,9.84,10.04,14.03c0.24,0.25,0.48,0.51,0.73,0.76c0.46,0.46,1.21,0.46,1.67,0c0.46-0.46,0.46-1.21,0-1.68
				c-0.98-1-1.93-2.03-2.84-3.1c-0.46-0.54-0.92-1.09-1.36-1.65c-0.1-0.13-0.2-0.25-0.3-0.38l-0.15-0.19
				c-0.1-0.13,0.13,0.18,0.04,0.05l-0.1-0.13c-0.21-0.28-0.42-0.56-0.63-0.84c-1.67-2.26-3.19-4.64-4.54-7.11
				c-0.67-1.23-1.3-2.48-1.89-3.75c-0.3-0.64-0.56-1.28-0.85-1.92c0,0,0.09,0.22,0.04,0.1l-0.05-0.11l-0.11-0.26
				c-0.07-0.16-0.13-0.32-0.2-0.49c-0.13-0.33-0.26-0.65-0.38-0.98c-1.01-2.63-1.84-5.32-2.49-8.06c-0.32-1.38-0.6-2.76-0.83-4.16
				c-0.06-0.35-0.11-0.69-0.16-1.04c-0.02-0.16-0.05-0.32-0.07-0.48l-0.02-0.12c-0.02-0.14,0.02,0.12,0.02,0.11
				c-0.01-0.11-0.03-0.21-0.04-0.32c-0.09-0.69-0.16-1.39-0.23-2.09c-0.03-0.35-0.06-0.7-0.08-1.05c0-0.65-0.53-1.18-1.18-1.18
				C-67.79-16.53-68.32-16-68.33-15.35L-68.33-15.35z"/>
		</g>
		<g id="Group_760" transform="translate(129.007 144.3)">
			<path id="Path_2545" class="st18" d="M-62.18-20.57c0.16,0.37,0.33,0.74,0.49,1.11c0.08,0.17,0.15,0.35,0.23,0.52l0.11,0.25
				l0.05,0.11c0.06,0.15-0.11-0.27-0.01-0.03c0.28,0.66,0.55,1.33,0.8,2.01c0.47,1.2,0.83,2.44,1.1,3.71
				c0.03,0.14,0.05,0.28,0.08,0.42c0.01,0.07,0.02,0.14,0.03,0.21s0.05,0.34,0.02,0.11c-0.03-0.23,0,0.02,0.01,0.08
				c0.01,0.06,0.02,0.14,0.02,0.21c0.01,0.15,0.03,0.29,0.03,0.44c0.03,0.54,0.02,1.08-0.04,1.61c0,0.04-0.01,0.07-0.01,0.11
				c-0.01,0.13,0.02-0.21,0.02-0.18c0,0.06-0.01,0.13-0.03,0.19c-0.02,0.14-0.05,0.27-0.08,0.41c-0.06,0.26-0.13,0.52-0.21,0.78
				c-0.04,0.12-0.08,0.23-0.12,0.34c-0.02,0.06-0.05,0.12-0.07,0.18c-0.09,0.23,0.12-0.27,0,0.01c-0.11,0.25-0.24,0.49-0.37,0.73
				c-0.16,0.28-0.34,0.56-0.53,0.82c-0.05,0.07-0.1,0.14-0.15,0.2c-0.11,0.15,0.06-0.08,0.07-0.08c-0.03,0.03-0.05,0.07-0.08,0.1
				c-0.12,0.15-0.24,0.29-0.36,0.43c-0.53,0.58-1.1,1.12-1.71,1.62c-0.46,0.46-0.46,1.21,0,1.68c0.47,0.44,1.21,0.44,1.68,0
				c2.15-1.6,3.65-3.92,4.23-6.55c0.31-2.61-0.05-5.26-1.05-7.69c-0.61-1.71-1.34-3.38-2.08-5.05c-0.33-0.56-1.06-0.75-1.62-0.42
				C-62.3-21.84-62.49-21.13-62.18-20.57L-62.18-20.57z"/>
		</g>
		<g id="Group_761" transform="translate(129.017 152.707)">
			<path id="Path_2546" class="st18" d="M-62.91-10.88c2,2.08,4.38,3.78,7,5c6.07,2.87,12.99,3.42,19.44,1.56
				c3.78-1.13,7.31-2.96,10.4-5.41c3.67-2.94,6.82-6.47,9.32-10.46c0.36-0.55,0.7-1.11,1.04-1.68c0.33-0.57,0.14-1.29-0.43-1.62
				c-0.57-0.33-1.29-0.14-1.62,0.43c-0.66,1.11-1.36,2.2-2.11,3.27c-0.35,0.51-0.72,1.01-1.09,1.5c-0.05,0.06-0.1,0.12-0.14,0.18
				l0.09-0.12l-0.09,0.12l-0.23,0.29c-0.2,0.25-0.4,0.5-0.61,0.75c-1.4,1.69-2.94,3.27-4.61,4.7c-0.39,0.34-0.8,0.66-1.21,0.98
				c0.32-0.25-0.04,0.03-0.11,0.08l-0.25,0.19c-0.22,0.16-0.44,0.32-0.66,0.48c-0.78,0.55-1.58,1.06-2.41,1.53
				c-0.81,0.46-1.64,0.89-2.49,1.27c-0.1,0.05-0.21,0.09-0.31,0.14l-0.16,0.07c-0.04,0.02-0.22,0.09-0.02,0.01s0.02-0.01-0.02,0.01
				l-0.16,0.06c-0.12,0.05-0.24,0.1-0.37,0.15c-0.41,0.16-0.83,0.31-1.25,0.46c-1.61,0.54-3.26,0.93-4.94,1.16
				c0.46-0.07,0.06-0.01-0.05,0.01l-0.28,0.03c-0.21,0.02-0.43,0.05-0.64,0.06c-0.41,0.04-0.82,0.06-1.22,0.08
				c-0.79,0.03-1.58,0.03-2.36-0.01c-0.39-0.02-0.79-0.05-1.18-0.08c-0.2-0.02-0.39-0.04-0.59-0.06l-0.24-0.03l-0.15-0.02
				c0.44,0.05,0.17,0.02,0.07,0.01c-0.77-0.11-1.52-0.25-2.28-0.42c-0.72-0.17-1.44-0.37-2.14-0.59c-0.35-0.11-0.71-0.24-1.06-0.37
				c-0.17-0.06-0.35-0.13-0.52-0.2l-0.21-0.08c-0.1-0.04-0.48-0.21-0.06-0.02c-1.3-0.57-2.56-1.23-3.76-2
				c-0.29-0.19-0.58-0.39-0.86-0.59c-0.14-0.1-0.28-0.2-0.42-0.31l-0.17-0.13c-0.15-0.11,0.25,0.2,0.1,0.08l-0.13-0.11
				c-0.53-0.42-1.04-0.86-1.52-1.33c-0.23-0.22-0.45-0.44-0.67-0.67c-0.47-0.46-1.21-0.46-1.68,0
				C-63.36-12.09-63.36-11.35-62.91-10.88L-62.91-10.88z"/>
		</g>
		<g id="Group_762" transform="translate(43.937 24.144)">
			<path id="Path_2547" d="M-26.31-3.68c-5.46-0.34-10.82,1.56-14.86,5.24c-4.15,3.84-6.43,9.28-6.27,14.93
				c0.07,3.21,0.91,6.35,2.45,9.16l0.19-1.44c-4.44,4.28-5.92,10.73-5.02,16.69c0.92,6.15,4.68,11.53,9.46,15.37
				c2.84,2.25,5.98,4.09,9.34,5.47c0.63,0.17,1.28-0.2,1.46-0.83c0.15-0.63-0.21-1.27-0.83-1.46c-0.3-0.13,0.22,0.1-0.08-0.03
				l-0.27-0.12c-0.15-0.06-0.3-0.13-0.44-0.2c-0.36-0.16-0.71-0.33-1.06-0.5c-0.68-0.33-1.34-0.68-1.99-1.04
				c-1.31-0.73-2.57-1.55-3.77-2.44l-0.23-0.18c-0.03-0.02-0.29-0.22-0.07-0.05c-0.13-0.1-0.26-0.2-0.38-0.3
				c-0.3-0.24-0.6-0.49-0.9-0.75c-0.56-0.49-1.11-0.99-1.63-1.52c-0.52-0.53-1.02-1.07-1.5-1.64c-0.23-0.27-0.45-0.54-0.67-0.82
				c0.17,0.22-0.02-0.03-0.05-0.07c-0.06-0.08-0.11-0.15-0.17-0.23c-0.11-0.15-0.23-0.31-0.34-0.47c-0.85-1.21-1.58-2.5-2.19-3.85
				c-0.04-0.08-0.07-0.17-0.11-0.25c-0.12-0.27,0.06,0.16,0-0.01c-0.06-0.16-0.13-0.31-0.19-0.47c-0.13-0.34-0.25-0.69-0.36-1.04
				c-0.21-0.67-0.39-1.35-0.54-2.04c-0.07-0.33-0.13-0.66-0.18-0.99c-0.01-0.09-0.08-0.53-0.04-0.23c-0.03-0.21-0.05-0.42-0.07-0.64
				c-0.07-0.7-0.1-1.41-0.1-2.11c0-0.7,0.04-1.4,0.11-2.1c0.02-0.15,0.03-0.3,0.05-0.45c-0.05,0.32,0,0.01,0.01-0.05
				c0.01-0.09,0.03-0.18,0.04-0.27c0.06-0.36,0.13-0.71,0.21-1.07c0.16-0.73,0.37-1.46,0.63-2.17c0.07-0.2,0.15-0.39,0.22-0.59
				c0.02-0.05,0.13-0.34,0.02-0.05c0.03-0.08,0.07-0.17,0.11-0.25c0.16-0.35,0.33-0.7,0.51-1.05c0.37-0.69,0.78-1.34,1.25-1.97
				c0.03-0.04,0.22-0.28,0.03-0.05c0.06-0.07,0.11-0.14,0.17-0.21c0.13-0.16,0.27-0.32,0.41-0.48c0.26-0.29,0.53-0.58,0.82-0.85
				c0.37-0.38,0.45-0.97,0.19-1.44c-0.16-0.29-0.32-0.58-0.46-0.88c-0.07-0.13-0.13-0.27-0.19-0.4c-0.03-0.08-0.07-0.15-0.1-0.23
				c-0.14-0.3,0.09,0.22-0.04-0.08c-0.49-1.2-0.85-2.44-1.08-3.72c-0.03-0.16-0.06-0.33-0.08-0.49c-0.01-0.08-0.02-0.16-0.04-0.25
				c-0.03-0.2,0.03,0.29,0-0.03c-0.03-0.32-0.07-0.66-0.09-0.99c-0.05-0.66-0.06-1.33-0.04-1.99c0.01-0.3,0.03-0.6,0.05-0.89
				c0.01-0.17,0.03-0.33,0.05-0.5c0.01-0.07,0.01-0.13,0.02-0.2c0-0.03,0.05-0.4,0.03-0.24c-0.03,0.19,0.02-0.14,0.02-0.14
				c0.01-0.07,0.02-0.13,0.03-0.2c0.03-0.16,0.05-0.33,0.08-0.49c0.06-0.33,0.13-0.65,0.21-0.97c0.16-0.64,0.35-1.28,0.57-1.9
				c0.1-0.28,0.21-0.56,0.32-0.83c-0.09,0.23-0.01,0.02,0.02-0.04c0.03-0.08,0.07-0.15,0.1-0.23c0.08-0.17,0.15-0.33,0.23-0.49
				c0.29-0.58,0.6-1.14,0.95-1.69c0.17-0.27,0.35-0.53,0.53-0.78c0.07-0.1,0.15-0.2,0.22-0.31c0.19-0.25-0.15,0.19,0.05-0.06
				c0.06-0.07,0.12-0.15,0.18-0.22c0.39-0.48,0.8-0.93,1.24-1.37c0.44-0.43,0.89-0.85,1.37-1.24c0.05-0.04,0.43-0.34,0.21-0.17
				c0.13-0.1,0.25-0.19,0.38-0.28c0.26-0.19,0.51-0.37,0.78-0.54c0.53-0.35,1.07-0.67,1.63-0.96c0.25-0.13,0.51-0.26,0.76-0.38
				c0.14-0.07,0.29-0.13,0.43-0.2l0.17-0.08c-0.25,0.11,0.01,0,0.07-0.03c1.3-0.53,2.66-0.91,4.05-1.15l0.23-0.04
				c0.07-0.01,0.35-0.07,0.06-0.01c0.17-0.03,0.35-0.04,0.52-0.06c0.35-0.04,0.69-0.06,1.04-0.08c0.71-0.03,1.42-0.02,2.13,0.04
				c0.65,0,1.18-0.53,1.18-1.18c-0.02-0.65-0.54-1.17-1.18-1.18L-26.31-3.68z"/>
		</g>
		<g id="Group_763" transform="translate(72.05)">
			<path id="Path_2548" d="M19.98,60.55c-0.08,0.73-0.19,1.46-0.34,2.19c-0.15,0.74-0.34,1.48-0.56,2.21c-0.43,1.44-1,2.84-1.7,4.17
				c-0.37,0.71-0.78,1.4-1.21,2.08c-0.21,0.32-0.42,0.63-0.64,0.94c-0.23,0.32-0.4,0.55-0.58,0.77c-0.5,0.63-1.03,1.23-1.58,1.81
				c-0.26,0.27-0.53,0.54-0.81,0.79c-0.13,0.11-0.25,0.23-0.38,0.34c-0.08,0.07-0.16,0.14-0.25,0.2l-0.01,0.01
				c-0.05,0.04-0.1,0.08-0.15,0.11c-0.29,0.21-0.59,0.4-0.9,0.57c-0.18,0.1-0.37,0.19-0.56,0.27c0.05-0.02,0.16-0.05-0.06,0.02
				c-0.12,0.04-0.23,0.08-0.35,0.11c-0.59,0.19-1.22,0.2-1.81,0.05c-0.17-0.04-0.33-0.1-0.5-0.16c-0.03-0.01-0.21-0.08-0.04-0.01
				c-0.07-0.03-0.14-0.06-0.21-0.1c-0.35-0.18-0.68-0.39-1-0.62c0.13,0.1-0.03-0.02-0.04-0.04c-0.08-0.06-0.15-0.13-0.23-0.19
				c-0.14-0.12-0.27-0.24-0.4-0.37c-0.28-0.27-0.55-0.55-0.8-0.85c-0.23-0.26-0.45-0.53-0.66-0.8c-0.06-0.07-0.13-0.17-0.28-0.37
				c-0.14-0.18-0.27-0.36-0.41-0.55c-0.5-0.68-0.98-1.37-1.45-2.07c-0.93-1.4-1.8-2.84-2.61-4.32c-1.8-3.28-3.25-6.74-4.35-10.33
				c-0.15-0.51-0.61-0.86-1.14-0.87c-8.88-0.58-17.81-1.14-26.22-4.3c-1.67-0.62-3.29-1.36-4.86-2.21
				c-1.65-0.89-3.24-1.91-4.74-3.03c-0.05-0.03-0.09-0.07-0.14-0.11l-0.28-0.22c-0.15-0.12-0.31-0.25-0.46-0.38
				c-0.37-0.3-0.72-0.62-1.08-0.94c-0.69-0.62-1.34-1.28-1.97-1.97c-0.3-0.34-0.6-0.68-0.89-1.03c-0.35-0.42-0.45-0.55-0.76-0.98
				c-0.54-0.74-1.03-1.5-1.49-2.29c-0.47-0.81-0.89-1.65-1.25-2.51c0.08,0.2-0.07-0.17-0.07-0.17c-0.05-0.11-0.09-0.23-0.14-0.34
				c-0.09-0.23-0.17-0.45-0.25-0.69c-0.16-0.46-0.31-0.93-0.45-1.4c-0.26-0.9-0.47-1.82-0.62-2.74c-0.15-0.86-0.24-1.73-0.28-2.6
				c-0.24-3.74,0.39-7.48,1.84-10.93c-0.08,0.2,0.07-0.17,0.07-0.17c0.05-0.11,0.1-0.23,0.15-0.34c0.1-0.22,0.21-0.44,0.31-0.66
				c0.22-0.44,0.45-0.87,0.69-1.29c0.45-0.79,0.95-1.55,1.49-2.28c0.07-0.09,0.14-0.19,0.21-0.28c-0.14,0.18,0.1-0.12,0.1-0.13
				c0.12-0.15,0.24-0.3,0.37-0.45c0.3-0.36,0.61-0.71,0.93-1.05c0.64-0.68,1.31-1.32,2.02-1.93c0.63-0.54,1.29-1.05,1.98-1.51
				c0.74-0.5,1.5-0.97,2.29-1.39c0.38-0.2,0.76-0.4,1.14-0.58c0.46-0.22,0.85-0.39,1.16-0.52c0.85-0.34,1.71-0.64,2.59-0.89
				c0.86-0.25,1.73-0.45,2.61-0.6c0.23-0.04,0.46-0.08,0.69-0.11c-0.02,0,0.36-0.05,0.19-0.03c-0.17,0.02,0.21-0.03,0.19-0.02
				c0.46-0.06,0.93-0.1,1.39-0.12c0.93-0.06,1.86-0.06,2.79,0c0.42,0.02,0.84,0.06,1.26,0.11c0.02,0,0.39,0.05,0.14,0.02l0.23,0.03
				c0.27,0.04,0.53,0.09,0.8,0.14c0.87,0.17,1.74,0.39,2.58,0.66c0.4,0.13,0.8,0.28,1.19,0.44c0.35,0.14-0.2-0.09,0.14,0.06
				c0.11,0.05,0.21,0.09,0.32,0.14c0.24,0.11,0.49,0.23,0.72,0.35c0.78,0.4,1.52,0.86,2.23,1.38c0.01,0.01,0.3,0.23,0.12,0.09
				l0.18,0.14c0.18,0.14,0.35,0.29,0.51,0.44c0.34,0.3,0.66,0.62,0.96,0.95c0.15,0.17,0.3,0.34,0.44,0.51
				C-15,7.81-14.77,8.1-14.87,7.98s0.13,0.17,0.11,0.15c0.27,0.37,0.52,0.75,0.75,1.14c0.33,0.56,1.06,0.75,1.62,0.42
				c0.56-0.33,0.75-1.06,0.42-1.62l0,0C-16,1.14-24.93-0.88-32.35,0.33C-46.62,2.53-56.4,15.89-54.19,30.16
				c0.31,2.02,0.86,4.01,1.64,5.9c3,7.41,9.32,12.86,16.47,16.15c8.31,3.83,17.49,4.84,26.52,5.47c1.17,0.08,2.33,0.16,3.5,0.23
				l-1.14-0.87c1.07,3.49,2.47,6.88,4.17,10.11c1.64,3.17,3.6,6.17,5.84,8.95c1.02,1.35,2.37,2.43,3.91,3.13
				c1.67,0.64,3.53,0.51,5.1-0.34c1.51-0.84,2.85-1.96,3.94-3.3c3.73-4.2,6.03-9.46,6.58-15.04c0-0.65-0.53-1.18-1.18-1.18
				C20.52,59.39,20,59.91,19.98,60.55L19.98,60.55z"/>
		</g>
		<g id="Group_764" transform="translate(119.87 2.262)">
			<path id="Path_2549" d="M-60.05,7.11c11.14-6.07,24.44-6.75,36.14-1.85C-12.59,10.01-4.34,20.07-1.1,31.82
				c1.85,6.57,2,13.5,0.45,20.15c-0.17,0.63,0.2,1.28,0.83,1.46c13.83,2.09,22.39,15.69,23.46,28.82c0.35,4.5-0.02,9.03-1.11,13.41
				c-0.16,0.63,0.2,1.27,0.83,1.46c12.88,3.27,24,11.37,31.06,22.63c3.61,5.6,5.91,11.93,6.73,18.54
				c0.68,6.94-0.05,13.94-2.16,20.59c-2.27,7.51-6,14.49-10.98,20.55c-0.97,1.17,0.7,2.85,1.67,1.68
				c9.17-11.07,14.79-25.83,14.03-40.31c-0.74-13.93-8.34-26.9-19.07-35.59c-6.04-4.93-13.09-8.48-20.65-10.37l0.83,1.46
				c3.61-14.74-0.43-32.21-13.58-41.03c-3.13-2.12-6.69-3.52-10.43-4.1l0.83,1.46c2.9-12.66,0.06-25.96-7.76-36.33
				c-3.87-5.17-8.91-9.35-14.71-12.2c-5.93-2.86-12.43-4.37-19.02-4.41c-7.48-0.09-14.86,1.77-21.4,5.41
				C-61.81,5.4-62,6.12-61.67,6.69C-61.34,7.25-60.61,7.44-60.05,7.11L-60.05,7.11z"/>
		</g>
		<g id="Group_765" transform="translate(93.23 147.307)">
			<path id="Path_2550" d="M-55.32-22.24c-1.61,3.1-2.43,6.54-2.38,10.03c0.05,3.69,1.02,7.31,2.83,10.52
				c1.11,1.96,2.5,3.76,4.13,5.32c0.46,0.46,1.21,0.46,1.68,0s0.46-1.21,0-1.68l0,0c-0.7-0.68-1.36-1.4-1.96-2.15
				c-0.07-0.07-0.14-0.15-0.19-0.24c0.08,0.21,0.1,0.12,0.02,0.03l-0.11-0.15c-0.14-0.18-0.27-0.37-0.4-0.55
				c-0.26-0.38-0.52-0.77-0.75-1.16c-0.46-0.76-0.87-1.55-1.23-2.37l-0.07-0.17c-0.02-0.04-0.08-0.2-0.01-0.02l-0.08-0.19
				c-0.08-0.21-0.17-0.42-0.24-0.63c-0.15-0.41-0.29-0.82-0.41-1.24c-0.24-0.81-0.43-1.64-0.57-2.47c-0.03-0.19-0.05-0.39-0.08-0.58
				c0.07,0.41,0-0.01-0.01-0.09c-0.01-0.11-0.03-0.23-0.04-0.34c-0.04-0.41-0.07-0.81-0.08-1.22c-0.03-0.83-0.02-1.66,0.05-2.49
				c0.02-0.19,0.03-0.38,0.05-0.56c0.01-0.1,0.02-0.2,0.03-0.3c0.01-0.04,0.01-0.08,0.02-0.13c0.03-0.25-0.04,0.3-0.01,0.05
				c0.06-0.4,0.13-0.81,0.21-1.21c0.18-0.88,0.42-1.74,0.71-2.58c0.08-0.21,0.15-0.43,0.24-0.64c0.04-0.1,0.08-0.2,0.12-0.3
				c0.02-0.04,0.03-0.08,0.05-0.12c-0.14,0.34-0.05,0.12-0.02,0.05c0.18-0.41,0.37-0.82,0.58-1.22c0.33-0.56,0.14-1.29-0.42-1.62
				C-54.26-23-54.99-22.81-55.32-22.24L-55.32-22.24L-55.32-22.24z"/>
		</g>
		<g id="Group_766" transform="translate(81.069 161.605)">
			<path id="Path_2551" d="M-53.49,21.87c1.27-3.99,2.51-7.98,3.96-11.91c0.36-0.98,0.74-1.96,1.13-2.93
				c0.09-0.23,0.19-0.46,0.28-0.69l0.14-0.33c0.03-0.07,0.06-0.15,0.09-0.22l-0.06,0.14l0.06-0.14c0.2-0.48,0.41-0.96,0.63-1.43
				c0.84-1.89,1.78-3.73,2.8-5.52c0.51-0.88,1.05-1.75,1.61-2.6c0.28-0.42,0.57-0.84,0.87-1.25c0.15-0.21,0.3-0.41,0.45-0.61
				c0.08-0.1,0.15-0.2,0.23-0.3c0.03-0.04,0.06-0.08,0.09-0.12c-0.19,0.26-0.05,0.06,0,0c1.25-1.61,2.64-3.11,4.15-4.48
				c0.41-0.37,0.82-0.72,1.25-1.07c0.2-0.17,0.41-0.33,0.61-0.49l0.08-0.06c-0.15,0.12,0.06-0.05,0.08-0.06
				c0.12-0.09,0.24-0.18,0.36-0.27c0.89-0.67,1.81-1.29,2.76-1.88c1.88-1.17,3.82-2.21,5.83-3.14c0.5-0.23,1.01-0.46,1.52-0.68
				c0.24-0.11,0.49-0.21,0.73-0.31c0.17-0.07-0.27,0.11-0.01,0.01l0.15-0.06l0.46-0.19c1.03-0.42,2.07-0.83,3.12-1.22
				c2.1-0.78,4.21-1.5,6.33-2.2l1.58-0.52c0.63-0.17,1-0.83,0.83-1.46c-0.17-0.63-0.83-1-1.46-0.83c-4.36,1.44-8.72,2.9-12.94,4.74
				c-4.2,1.76-8.13,4.09-11.69,6.93c-3.25,2.71-6.03,5.95-8.22,9.57c-2.21,3.66-4.07,7.52-5.56,11.52
				c-1.52,3.94-2.8,7.97-4.08,11.99l-0.46,1.46c-0.17,0.63,0.2,1.28,0.83,1.46C-54.32,22.85-53.68,22.49-53.49,21.87L-53.49,21.87z"
				/>
		</g>
		<path id="Path_2552" class="st24" d="M83.13,224.72l-12.82-49.8L24.9,188.87l-6.11-0.85l-19.4-10.4l13.16,63.9l20.07,9.58h6.02
			l19.73-5.92"/>
		<path id="Path_2553" class="st20" d="M99.53,230.12c-11.84-0.18-20.51-10.44-33.82-11.2c-10.53-0.6-15.7,2.88-15.68,7.1
			c0.16,1.4,0.94,2.66,2.11,3.45c3.13,1.65,2.93,6.06,3.79,9.49c2.19,8.7,11.1,16.56,29.46,10.62c5.21,1.19,10.51,1.91,15.84,2.14"
			/>
		<g id="Group_767" transform="translate(166.756 150.399)">
			<path id="Path_2554" class="st53" d="M-55-20.95c12.28,3.78,25.04,7.7,35.16,15.97c2.32,1.88,4.46,3.99,6.37,6.29
				c1.98,2.46,3.71,5.11,5.16,7.91c3.02,5.96,5.56,12.14,7.59,18.51c2.22,6.55,4.13,13.19,6.02,19.84c1.32,4.65,2.68,9.3,4,13.95
				c1.93,6.46,3.26,13.08,3.96,19.78c0.17,1.88,0.26,3.78,0.25,5.67c-0.01,0.96-0.05,1.92-0.12,2.88c-0.07,0.93-0.15,1.65-0.28,2.45
				c-0.26,1.66-0.7,3.3-1.31,4.86c-0.02,0.05-0.11,0.27-0.03,0.08c-0.04,0.1-0.09,0.21-0.14,0.31c-0.08,0.17-0.16,0.34-0.24,0.51
				c-0.18,0.36-0.37,0.72-0.58,1.06c-0.19,0.31-0.38,0.61-0.59,0.91c-0.18,0.27-0.39,0.53-0.61,0.77c-0.24,0.27-0.48,0.52-0.74,0.77
				c-0.13,0.12-0.26,0.24-0.4,0.36c-0.07,0.06-0.5,0.41-0.35,0.29c-0.63,0.48-1.31,0.89-2.03,1.23c-0.31,0.15-0.63,0.28-0.95,0.39
				c-0.1,0.04-0.6,0.14-0.14,0.11H4.97c-0.08,0-0.15,0-0.23-0.01c-1.11-0.04-2.23-0.05-3.34-0.08l-15.37-0.36L-34.98,103
				l-19.54-0.46l-10.81-0.25l-0.49-0.01l1.18,1.18c0.66-6.09,0.54-12.23-0.35-18.29c-0.38-2.8-0.97-5.56-1.77-8.27l-0.83,1.46
				l14.53-2.11l23.12-3.37l5.26-0.77c0.63-0.18,1-0.83,0.83-1.46c-0.19-0.62-0.83-0.98-1.46-0.83l-14.53,2.11l-23.12,3.37
				l-5.26,0.77c-0.63,0.18-1,0.83-0.83,1.46c2.34,7.73,2.79,16.06,2.21,24.08c-0.04,0.62-0.09,1.23-0.17,1.85
				c0.01,0.65,0.53,1.18,1.18,1.18l7.84,0.18l18.39,0.43l21.53,0.51l17.3,0.41l4.72,0.11c0.32,0.01,0.64,0.03,0.95,0.02
				c0.25-0.01,0.5-0.06,0.74-0.15c0.86-0.29,1.69-0.66,2.47-1.1c6.32-3.64,7.72-11.66,7.74-18.34c0.03-7.45-1.44-14.92-3.3-22.11
				c-0.75-2.89-1.61-5.75-2.43-8.62c-1.95-6.76-3.8-13.55-5.84-20.28c-2.02-6.65-4.22-13.25-6.87-19.67
				c-2.48-6.01-5.39-11.88-9.63-16.87c-8.37-9.84-20.55-15.3-32.54-19.33c-3.19-1.07-6.41-2.06-9.63-3.06
				c-1.46-0.45-2.08,1.84-0.63,2.28L-55-20.95z"/>
		</g>
		<g id="Group_768" transform="translate(198.458 196.945)">
			<path id="Path_2555" class="st53" d="M-58.25,23.78c-1.8-3.28-3.42-6.65-4.9-10.08c-0.09-0.22-0.19-0.43-0.28-0.65
				c-0.12-0.28,0.07,0.18-0.04-0.1l-0.16-0.38c-0.19-0.45-0.37-0.9-0.56-1.35c-0.38-0.94-0.74-1.88-1.1-2.82
				c-0.7-1.86-1.36-3.74-1.98-5.64c-1.22-3.73-2.23-7.53-3.03-11.37c-0.19-0.93-0.36-1.85-0.52-2.79c-0.08-0.45-0.15-0.9-0.21-1.35
				c-0.03-0.23-0.07-0.46-0.1-0.69c-0.01-0.05-0.01-0.1-0.02-0.15c0,0.02,0.04,0.29,0.01,0.08c-0.02-0.13-0.03-0.25-0.05-0.38
				c-0.22-1.74-0.37-3.48-0.43-5.23c-0.06-1.61-0.02-3.23,0.12-4.84c0.03-0.37,0.07-0.75,0.12-1.12c0.01-0.04,0.01-0.08,0.02-0.13
				c0.02-0.15-0.04,0.28-0.02,0.13c0.01-0.09,0.03-0.19,0.04-0.28c0.03-0.19,0.06-0.37,0.08-0.55c0.12-0.71,0.27-1.41,0.45-2.1
				c0.09-0.33,0.18-0.65,0.28-0.98c0.17-0.63-0.2-1.28-0.83-1.46c-0.63-0.16-1.27,0.21-1.46,0.83c-0.87,3-1.28,6.11-1.21,9.24
				c0.05,3.66,0.43,7.31,1.13,10.91c0.73,3.87,1.69,7.7,2.87,11.46c1.19,3.83,2.56,7.6,4.11,11.31c1.5,3.59,3.13,7.12,4.96,10.55
				c0.21,0.39,0.41,0.77,0.62,1.15c0.33,0.56,1.06,0.75,1.62,0.42C-58.13,25.05-57.94,24.34-58.25,23.78L-58.25,23.78z"/>
		</g>
		<g id="Group_769" transform="translate(109.004 257.547)">
			<path id="Path_2556" class="st53" d="M-9.47-28.61c-0.49-0.01-0.98-0.03-1.46-0.07c-0.23-0.02-0.45-0.04-0.67-0.07
				c-0.12-0.01-0.23-0.03-0.35-0.04c0.41,0.05-0.08-0.01-0.17-0.03c-0.92-0.14-1.82-0.34-2.72-0.58c-0.92-0.25-1.82-0.55-2.71-0.88
				c-0.44-0.16-0.87-0.33-1.3-0.51c-0.11-0.04-0.21-0.09-0.32-0.13l0.08,0.04l-0.16-0.07c-0.23-0.1-0.45-0.2-0.68-0.3
				c-3.57-1.59-6.97-3.52-10.54-5.11c-3.85-1.83-7.99-2.98-12.23-3.4c-2.25-0.19-4.52-0.15-6.76,0.12c-1.9,0.21-3.76,0.68-5.53,1.41
				c-2.35,1.01-4.64,2.92-5.07,5.57c-0.18,0.88-0.12,1.79,0.19,2.63c0.39,1.01,1.03,1.91,1.87,2.6c0.36,0.28,0.74,0.54,1.13,0.76
				c-0.31-0.18-0.03-0.02,0.05,0.05c0.08,0.07,0.15,0.14,0.22,0.21s0.14,0.15,0.21,0.23l0.08,0.09c0.15,0.17-0.15-0.22-0.03-0.04
				c0.24,0.35,0.46,0.72,0.64,1.11c0.04,0.08,0.08,0.24-0.03-0.08c0.01,0.04,0.03,0.08,0.05,0.12c0.04,0.1,0.08,0.2,0.11,0.3
				c0.08,0.23,0.15,0.46,0.22,0.69c0.51,1.81,0.64,3.69,1.08,5.51c0.32,1.3,0.77,2.56,1.35,3.76c1.2,2.48,2.97,4.63,5.18,6.28
				c2.5,1.83,5.41,3,8.48,3.42c4.17,0.53,8.41,0.26,12.48-0.82c1.17-0.29,2.34-0.62,3.49-0.99h-0.63c2.87,0.7,5.78,1.22,8.72,1.55
				c2.09,0.26,4.18,0.45,6.29,0.57c0.39,0.02,0.77,0.04,1.16,0.06c0.65-0.01,1.18-0.53,1.18-1.18C-6.59-6.47-7.11-6.99-7.76-7
				c-0.95-0.03-1.9-0.1-2.85-0.17c-1-0.08-2-0.17-3-0.27c-0.58-0.06-1.17-0.13-1.75-0.2l-0.48-0.06c-0.08-0.01-0.53-0.06-0.17-0.02
				c-0.33-0.04-0.66-0.09-0.98-0.14c-1.3-0.19-2.59-0.41-3.88-0.68c-0.66-0.13-1.32-0.28-1.97-0.44c-0.15-0.04-0.3-0.08-0.45-0.11
				c-0.34-0.05-0.68-0.01-1,0.12c-0.36,0.11-0.73,0.22-1.09,0.33c-1.31,0.38-2.63,0.71-3.97,0.97c-0.62,0.12-1.24,0.23-1.86,0.32
				l-0.24,0.03c0,0,0.27-0.03,0.08-0.01c-0.16,0.02-0.31,0.04-0.47,0.06c-0.31,0.04-0.61,0.07-0.92,0.09
				c-1.1,0.1-2.21,0.14-3.31,0.11c-0.51-0.01-1.03-0.04-1.54-0.08c-0.24-0.02-0.47-0.05-0.71-0.07l-0.19-0.02
				c-0.24-0.03,0.3,0.04,0.06,0.01c-0.12-0.02-0.25-0.04-0.37-0.05c-0.93-0.14-1.85-0.35-2.74-0.63c-0.41-0.13-0.82-0.27-1.23-0.42
				l-0.25-0.1l-0.15-0.06c-0.2-0.08,0.28,0.12,0.08,0.03s-0.4-0.17-0.59-0.27c-0.72-0.34-1.42-0.74-2.09-1.18
				c-0.15-0.1-0.31-0.21-0.46-0.32c-0.08-0.06-0.16-0.12-0.24-0.18l-0.08-0.06c-0.16-0.12,0.26,0.21,0.04,0.03
				c-0.3-0.24-0.59-0.48-0.87-0.73c-0.55-0.5-1.06-1.04-1.53-1.61c-0.06-0.07-0.12-0.15-0.18-0.22l-0.08-0.11
				c-0.11-0.13,0.1,0.14,0.1,0.13c-0.12-0.14-0.23-0.3-0.34-0.46c-0.21-0.3-0.42-0.61-0.61-0.92c-0.38-0.61-0.71-1.25-1-1.91
				c-0.03-0.07-0.06-0.14-0.09-0.21c-0.04-0.08-0.1-0.27,0.05,0.11c-0.02-0.04-0.04-0.08-0.05-0.13c-0.07-0.17-0.14-0.34-0.2-0.51
				c-0.12-0.33-0.23-0.66-0.34-0.99c-0.58-1.89-0.74-3.87-1.17-5.79c-0.22-1.08-0.6-2.11-1.14-3.07c-0.29-0.49-0.64-0.93-1.05-1.33
				c-0.41-0.36-0.86-0.68-1.33-0.95c-0.1-0.06-0.28-0.25,0.01,0.02c-0.08-0.08-0.17-0.15-0.25-0.22c-0.19-0.18-0.34-0.42-0.53-0.59
				c0.22,0.19,0.08,0.1,0.01,0.01c-0.03-0.04-0.06-0.08-0.08-0.12c-0.08-0.12-0.16-0.25-0.23-0.38c-0.06-0.11-0.11-0.22-0.17-0.34
				c-0.12-0.24,0.08,0.25,0,0.01c-0.03-0.09-0.07-0.19-0.09-0.28c-0.01-0.12-0.04-0.24-0.08-0.36l0.02,0.17
				c-0.01-0.05-0.01-0.1-0.01-0.14c0-0.05-0.01-0.12-0.01-0.18c0-0.15,0.01-0.3,0.02-0.45c0-0.04,0.01-0.07,0.01-0.11
				c0.02-0.18-0.05,0.32-0.03,0.19c0.01-0.07,0.02-0.14,0.03-0.2c0.03-0.15,0.06-0.29,0.1-0.44c0.04-0.13,0.08-0.26,0.13-0.39
				c0.01-0.04,0.03-0.07,0.04-0.11c0.06-0.17-0.14,0.31-0.06,0.14c0.03-0.07,0.06-0.14,0.1-0.21c0.13-0.27,0.29-0.53,0.47-0.77
				c0.02-0.03,0.05-0.07,0.07-0.1c0.11-0.15-0.2,0.25-0.08,0.11c0.04-0.05,0.08-0.11,0.13-0.16c0.11-0.13,0.22-0.25,0.34-0.37
				s0.24-0.23,0.35-0.33c0.07-0.06,0.14-0.12,0.21-0.17l0.11-0.08c0.15-0.12-0.24,0.18-0.09,0.07c0.64-0.47,1.33-0.86,2.06-1.18
				c0.27-0.12-0.26,0.1,0.03-0.01c0.11-0.04,0.21-0.09,0.32-0.13c0.22-0.08,0.44-0.16,0.67-0.23c0.46-0.15,0.93-0.28,1.4-0.39
				c0.51-0.12,1.03-0.22,1.55-0.3c0.13-0.02,0.26-0.04,0.39-0.06c0.08-0.01,0.27-0.02-0.06,0.01c0.07-0.01,0.15-0.02,0.22-0.03
				c0.3-0.04,0.61-0.07,0.91-0.1c1.29-0.11,2.58-0.15,3.87-0.11c0.68,0.02,1.35,0.05,2.03,0.11c0.29,0.02,0.58,0.05,0.87,0.08
				l0.24,0.03l0.08,0.01c0.13,0.02,0.1,0.01-0.08-0.01c0.15,0.04,0.31,0.06,0.47,0.07c1.19,0.18,2.37,0.44,3.53,0.76
				c1.11,0.31,2.2,0.68,3.28,1.08c0.53,0.2,1.05,0.45,1.59,0.63c-0.34-0.12,0.04,0.02,0.13,0.05l0.41,0.18
				c0.27,0.12,0.54,0.24,0.81,0.36c2.04,0.93,4.02,1.95,6.02,2.96c3.92,1.97,7.98,3.92,12.35,4.63c1.13,0.19,2.27,0.29,3.41,0.32
				c0.65,0,1.18-0.53,1.18-1.18S-8.81-28.61-9.47-28.61L-9.47-28.61z"/>
		</g>
		<g id="Group_770" transform="translate(49.081 205.558)">
			<path id="Path_2557" class="st53" d="M35.19,18.84l-1.28-4.95l-3.06-11.9l-3.7-14.39l-3.2-12.44c-0.52-2.01-0.98-4.05-1.55-6.04
				c-0.01-0.03-0.01-0.06-0.02-0.08c-0.18-0.63-0.83-0.99-1.46-0.83l-4.51,1.39L5.54-27.07l-13.11,4.03l-11.33,3.48l-3.74,1.15
				c-0.59,0.18-1.2,0.33-1.77,0.55c-0.03,0.01-0.05,0.02-0.08,0.02h0.63l-5.92-0.82c-0.28-0.04-0.17-0.1,0.08,0.09
				c-0.02-0.01-0.05-0.03-0.07-0.04c-0.14-0.08-0.29-0.15-0.43-0.23l-1.9-1.02l-13.26-7.11l-3.74-2c-0.58-0.32-1.31-0.1-1.63,0.48
				c-0.14,0.26-0.18,0.57-0.11,0.86l0.27,1.32l0.75,3.65l1.14,5.53l1.41,6.87l1.6,7.75l1.68,8.15l1.67,8.11l1.55,7.51l1.33,6.48
				l1.02,4.96l0.61,2.97c0.04,0.19,0.07,0.39,0.12,0.57c0.12,0.42,0.45,0.76,0.87,0.9l4.66,2.22l7.31,3.49l6.2,2.96
				c0.49,0.23,0.97,0.47,1.46,0.7c0.57,0.21,1.19,0.29,1.8,0.22h3.89c0.52,0.04,1.04,0.01,1.55-0.09l4.73-1.42l7.81-2.34l6.08-1.82
				l0.93-0.28c0.63-0.17,1-0.83,0.83-1.46c-0.17-0.63-0.83-1-1.46-0.83l-9.98,2.99l-6.79,2.04l-2.17,0.65l-0.59,0.18
				c-0.31,0.09-0.11-0.02,0.11,0.01c-0.37-0.02-0.74-0.02-1.11,0h-4.89l0.6,0.16l-6.8-3.25l-10.79-5.15l-2.47-1.18l0.54,0.71
				l-0.35-1.7l-0.95-4.64l-1.42-6.9l-1.73-8.38l-1.89-9.18l-1.91-9.27l-1.79-8.68l-1.5-7.3l-1.08-5.25
				c-0.17-0.83-0.31-1.67-0.51-2.49c-0.01-0.04-0.02-0.07-0.02-0.11l-1.74,1.34l5.12,2.74l9.4,5.04l3.57,1.91l1,0.54
				c0.19,0.12,0.4,0.22,0.61,0.29c0.47,0.11,0.99,0.14,1.47,0.2l2.67,0.37l1.85,0.25c0.28,0.05,0.56,0.05,0.83-0.01
				c1.3-0.35,2.59-0.8,3.88-1.19l8.08-2.48l10.26-3.15l10.3-3.17l8.35-2.56l4.27-1.31l0.19-0.06l-1.46-0.83l1.27,4.95l3.06,11.9
				l3.7,14.39l3.2,12.44c0.52,2.01,0.98,4.05,1.55,6.04c0.01,0.03,0.01,0.06,0.02,0.08c0.17,0.63,0.83,1,1.46,0.83
				C34.99,20.12,35.36,19.47,35.19,18.84L35.19,18.84L35.19,18.84z"/>
		</g>
		<g id="Group_771" transform="translate(72.032 221.071)">
			<path id="Path_2558" class="st53" d="M-54.39-32.73l0.37,1.68l1,4.56l1.48,6.75l1.8,8.23l1.98,9.02l1.99,9.1l1.86,8.49l1.57,7.17
				l1.13,5.14c0.18,0.81,0.34,1.63,0.54,2.44c0.01,0.03,0.02,0.07,0.02,0.1c0.18,0.63,0.83,1,1.46,0.83
				c0.62-0.19,0.99-0.83,0.83-1.46l-0.37-1.68l-1-4.56l-1.48-6.75l-1.8-8.23l-1.98-9.02l-1.99-9.1l-1.86-8.49l-1.57-7.17l-1.13-5.14
				c-0.18-0.81-0.34-1.63-0.54-2.44c-0.01-0.03-0.02-0.07-0.02-0.1c-0.18-0.63-0.83-1-1.46-0.83C-54.18-34-54.55-33.36-54.39-32.73
				L-54.39-32.73z"/>
		</g>
		<g id="Group_772" transform="translate(79.267 222.07)">
			<path id="Path_2559" class="st53" d="M-55.51-32.89l0.37,1.66l1,4.52l1.48,6.69l1.8,8.17l1.97,8.95l2,9.06l1.86,8.42l1.57,7.12
				l1.13,5.12c0.18,0.81,0.34,1.62,0.53,2.42c0.01,0.03,0.02,0.07,0.02,0.1c0.18,0.63,0.83,1,1.46,0.83
				c0.62-0.19,0.99-0.83,0.83-1.46l-0.37-1.66l-1-4.52l-1.48-6.69l-1.8-8.17l-1.97-8.95l-2-9.06l-1.86-8.42l-1.57-7.12l-1.13-5.12
				c-0.18-0.81-0.34-1.62-0.54-2.42c-0.01-0.03-0.02-0.07-0.02-0.1c-0.18-0.63-0.83-1-1.46-0.83
				C-55.3-34.16-55.67-33.52-55.51-32.89L-55.51-32.89z"/>
		</g>
		<g id="Group_773" transform="translate(50.532 200.254)">
			<path id="Path_2560" class="st53" d="M-49.07-21.13l4.2-3.94l0.61-0.57l-1.44,0.19l3.78,2.07l7.73,4.23l6.25,3.42
				c0.52,0.29,1.18,0.77,1.8,0.61c0.22-0.06,0.45-0.15,0.67-0.23l4.41-1.52l7.25-2.49l8.57-2.95l8.35-2.87l6.61-2.28l3.35-1.15
				l0.15-0.05l-1.15-0.31l4.49,4.39l0.64,0.62c0.46,0.46,1.21,0.46,1.68,0c0.46-0.46,0.46-1.21,0-1.68l0,0l-4.49-4.39l-0.64-0.62
				c-0.3-0.3-0.74-0.42-1.15-0.31l-3.93,1.35l-9.37,3.22l-11.4,3.92l-9.8,3.37l-3.25,1.12c-0.51,0.18-1.04,0.33-1.54,0.53
				c-0.02,0.01-0.04,0.02-0.07,0.02l0.91,0.12l-6.34-3.46l-10.01-5.48l-2.29-1.26c-0.47-0.26-1.05-0.19-1.44,0.19l-4.2,3.94
				l-0.61,0.57c-0.46,0.46-0.46,1.21,0,1.68C-50.28-20.69-49.54-20.69-49.07-21.13L-49.07-21.13z"/>
		</g>
		<g id="Group_774" transform="translate(17.856 254.273)">
			<path id="Path_2561" class="st53" d="M-11-39.34l-0.91,0.25l-2.49,0.7l-3.67,1.03l-4.49,1.26l-4.9,1.37l-4.97,1.39l-4.61,1.29
				l-3.92,1.1l-2.8,0.78c-0.44,0.12-0.89,0.24-1.33,0.37l-0.06,0.02c-0.63,0.18-1,0.84-0.82,1.48c0.03,0.09,0.06,0.18,0.11,0.26
				c0.64,0.96,1.22,1.96,1.73,3c0.26,0.51,0.51,1.02,0.75,1.53c0.14,0.29,0.27,0.58,0.4,0.88c0.03,0.08,0.07,0.16,0.1,0.24
				c0.02,0.04,0.13,0.3,0.04,0.1c-0.08-0.2,0.02,0.06,0.04,0.1l0.11,0.28c0.57,1.4,1.06,2.84,1.47,4.3
				c0.25,0.91,0.47,1.84,0.65,2.77c0.09,0.47,0.17,0.94,0.24,1.41c0.01,0.06,0.02,0.11,0.02,0.17c0.03,0.23-0.02-0.17,0-0.02
				c0.02,0.13,0.03,0.25,0.05,0.38c0.03,0.26,0.06,0.52,0.08,0.77c0.01,0.65,0.54,1.17,1.18,1.18c0.65-0.01,1.18-0.53,1.18-1.18
				c-0.32-3.39-1.12-6.71-2.37-9.88c-0.83-2.16-1.83-4.24-3-6.23c-0.2-0.34-0.41-0.68-0.63-1.01l-0.71,1.74l0.91-0.25l2.49-0.7
				l3.67-1.03l4.49-1.26l4.9-1.37l4.97-1.39l4.61-1.29l3.92-1.1l2.8-0.78c0.44-0.12,0.89-0.24,1.33-0.37l0.06-0.02
				c0.63-0.17,1-0.83,0.83-1.46C-9.71-39.14-10.36-39.51-11-39.34L-11-39.34z"/>
		</g>
		<g id="Group_775" transform="translate(108.759 292.335)">
			<path id="Path_2562" class="st53" d="M-55.88-37.33l-1.72-6.4l-0.18-0.67c-0.17-0.63-0.83-1-1.46-0.83
				c-0.63,0.17-1,0.83-0.83,1.46l0,0l1.47,5.47l0.43,1.6c0.17,0.63,0.83,1,1.46,0.83C-56.08-36.04-55.71-36.7-55.88-37.33
				L-55.88-37.33L-55.88-37.33z"/>
		</g>
		<g id="Group_776" transform="translate(108.542 196.22)">
			<path id="Path_2563" d="M-57.7-21.52c0.02-0.17,0.04-0.33,0.06-0.5c0.03-0.25-0.03-0.03,0,0c0.01-0.09,0.02-0.18,0.04-0.27
				c0.05-0.32,0.1-0.63,0.16-0.94c0.12-0.64,0.27-1.28,0.45-1.91c0.17-0.62,0.36-1.22,0.58-1.82c0.11-0.31,0.23-0.63,0.36-0.94
				c0.01-0.03,0.11-0.27,0.05-0.11c-0.07,0.16,0.03-0.08,0.05-0.11c0.07-0.17,0.15-0.34,0.22-0.5c0.15-0.28,0.19-0.6,0.12-0.91
				c-0.17-0.63-0.82-1-1.45-0.83c-0.3,0.08-0.56,0.28-0.71,0.55c-1.21,2.62-1.98,5.42-2.29,8.3c0,0.65,0.53,1.18,1.18,1.18
				C-58.24-20.35-57.72-20.87-57.7-21.52L-57.7-21.52z"/>
		</g>
		<g id="Group_777" transform="translate(70.624 293.217)">
			<path id="Path_2564" class="st53" d="M-53.02-40.42c2.96-0.13,5.88-0.7,8.67-1.69c0.86-0.32,1.69-0.69,2.5-1.11
				c0.56-0.33,0.75-1.06,0.42-1.62c-0.34-0.55-1.05-0.74-1.62-0.42c-0.31,0.16-0.63,0.32-0.95,0.47l-0.23,0.1
				c-0.04,0.01-0.08,0.03-0.12,0.05c0,0,0.21-0.08,0.08-0.04c-0.17,0.07-0.34,0.14-0.52,0.21c-0.67,0.25-1.34,0.48-2.03,0.67
				s-1.4,0.36-2.11,0.5c-0.34,0.07-0.69,0.13-1.03,0.18c-0.16,0.03-0.33,0.05-0.49,0.08c-0.08,0.01-0.16,0.02-0.25,0.03
				c0,0,0.25-0.03,0.11-0.02L-50.75-43c-0.75,0.09-1.51,0.16-2.27,0.21c-0.65,0-1.18,0.53-1.18,1.18S-53.67-40.42-53.02-40.42
				L-53.02-40.42L-53.02-40.42z"/>
		</g>
		<g id="Group_778" transform="translate(4.828 267.057)">
			<path id="Path_2565" class="st53" d="M-42.83-37.59l11.02-1.39c0.31-0.01,0.61-0.13,0.84-0.35c0.22-0.22,0.35-0.52,0.35-0.84
				c-0.03-0.58-0.53-1.27-1.18-1.18l-11.02,1.39c-0.31,0.01-0.61,0.13-0.84,0.35c-0.22,0.22-0.34,0.52-0.35,0.84
				C-43.98-38.2-43.48-37.51-42.83-37.59L-42.83-37.59z"/>
		</g>
		<g id="Group_779" transform="translate(114.777 155.149)">
			<path id="Path_2566" class="st18" d="M-55.85-15.12c-2.28,1.37-3.98,3.51-4.8,6.05c-1.49,4.86,1.15,10.03,5.97,11.67
				c3.02,0.97,6.28,0.91,9.26-0.17c3.79-1.41,7.04-3.98,9.28-7.34c0.28-0.39,0.54-0.8,0.8-1.21l-2.21-0.6
				c0.29,5.34,4.12,9.7,8.79,11.94c2.26,1.08,4.71,1.73,7.21,1.9c2.19,0.15,4.38,0.01,6.54-0.39c4.49-0.85,8.76-2.63,12.53-5.23
				c3.87-2.57,7.13-5.95,9.55-9.92c2.36-3.86,3.5-8.35,3.27-12.87c-0.04-0.63-0.12-1.25-0.21-1.88c-0.18-0.63-0.83-1-1.46-0.83
				c-0.62,0.19-0.98,0.83-0.83,1.46c0.02,0.08,0.03,0.16,0.04,0.25c0-0.03-0.03-0.28-0.01-0.07c0.02,0.14,0.03,0.27,0.05,0.41
				c0.03,0.27,0.05,0.55,0.07,0.82c0.03,0.54,0.04,1.08,0.03,1.62c-0.01,0.51-0.04,1.01-0.1,1.52c-0.01,0.13-0.03,0.26-0.04,0.4
				c0,0.03-0.05,0.29-0.01,0.08c0.04-0.21-0.01,0.05-0.01,0.08c-0.04,0.26-0.08,0.52-0.13,0.79c-0.19,1.02-0.46,2.02-0.8,2.99
				c-0.09,0.25-0.18,0.5-0.27,0.75c-0.04,0.11-0.09,0.22-0.13,0.33c-0.02,0.06-0.05,0.12-0.08,0.18c-0.11,0.26,0.11-0.25-0.01,0.01
				c-0.22,0.49-0.44,0.97-0.69,1.45C5.27-9.98,4.73-9.07,4.13-8.2C3.99-7.99,3.84-7.78,3.69-7.57c-0.07,0.1-0.14,0.2-0.22,0.3
				l-0.15,0.2C3.28-7.02,3.14-6.81,3.31-7.06C2.99-6.63,2.65-6.21,2.29-5.82C1.57-5,0.81-4.22,0.01-3.47
				c-0.4,0.37-0.8,0.73-1.22,1.08c-0.2,0.17-0.41,0.34-0.61,0.51c-0.11,0.08-0.21,0.18-0.33,0.26c0.24-0.17-0.08,0.06-0.16,0.12
				c-1.76,1.33-3.65,2.48-5.63,3.44c-0.5,0.24-1,0.49-1.51,0.69c0.25-0.09,0.01-0.01-0.1,0.04c-0.13,0.05-0.26,0.1-0.38,0.15
				c-0.26,0.1-0.51,0.2-0.77,0.29c-1.02,0.37-2.06,0.69-3.12,0.96c-0.49,0.12-0.99,0.23-1.49,0.33c-0.26,0.05-0.52,0.1-0.79,0.14
				l-0.35,0.05l-0.2,0.03c-0.28,0.04,0.28-0.03,0,0c-1.02,0.13-2.05,0.2-3.08,0.21c-0.5,0-1-0.01-1.5-0.04
				c-0.24-0.02-0.48-0.03-0.72-0.06c-0.11-0.01-0.23-0.02-0.34-0.04l-0.23-0.03c-0.09-0.01-0.31-0.08,0.01,0
				c-0.52-0.14-1.09-0.17-1.62-0.3c-0.59-0.14-1.16-0.3-1.73-0.5c-0.28-0.1-0.55-0.2-0.83-0.31c-0.07-0.03-0.14-0.06-0.22-0.08
				c0.24,0.09,0.08,0.03,0.03,0.01c-0.17-0.08-0.34-0.15-0.51-0.23c-0.55-0.26-1.08-0.54-1.6-0.85c-0.51-0.31-1.01-0.65-1.49-1
				c-0.24-0.18,0.13,0.11-0.01-0.01l-0.18-0.14c-0.12-0.1-0.24-0.19-0.35-0.29c-0.23-0.2-0.46-0.4-0.68-0.61
				c-0.42-0.41-0.82-0.84-1.19-1.29c-0.05-0.06-0.09-0.12-0.14-0.17c0.16,0.2,0.06,0.07,0.02,0.03c-0.08-0.12-0.18-0.24-0.26-0.36
				c-0.17-0.24-0.33-0.49-0.48-0.74c-0.15-0.25-0.29-0.51-0.42-0.77c-0.06-0.12-0.12-0.24-0.17-0.36c-0.03-0.07-0.06-0.13-0.09-0.2
				c-0.1-0.22,0.08,0.21-0.02-0.04c-0.21-0.53-0.39-1.08-0.52-1.64c-0.03-0.13-0.06-0.26-0.08-0.39c-0.01-0.05-0.03-0.41-0.07-0.44
				c0.07,0.04,0.03,0.23,0,0c-0.01-0.08-0.02-0.15-0.02-0.22c-0.01-0.15-0.02-0.3-0.03-0.45c-0.02-0.66-0.57-1.18-1.23-1.16
				c-0.4,0.01-0.77,0.22-0.98,0.56c-0.25,0.4-0.5,0.78-0.77,1.16c-0.13,0.18-0.25,0.35-0.38,0.53l-0.09,0.12
				c-0.01,0.01-0.11,0.15-0.03,0.04c0.08-0.11-0.02,0.02-0.03,0.04l-0.16,0.2c-0.57,0.72-1.2,1.39-1.86,2.03
				c-0.32,0.31-0.66,0.61-1.01,0.89c-0.09,0.07-0.18,0.15-0.27,0.22c-0.18,0.14,0.11-0.08-0.07,0.06c-0.2,0.15-0.4,0.29-0.6,0.43
				c-0.73,0.51-1.5,0.95-2.31,1.32c-0.1,0.05-0.21,0.09-0.31,0.14c0.21-0.09-0.05,0.02-0.13,0.05c-0.21,0.08-0.43,0.16-0.65,0.24
				c-0.41,0.14-0.84,0.26-1.26,0.36c-0.4,0.1-0.8,0.18-1.21,0.24l-0.25,0.04c-0.06,0.01-0.11,0.02-0.17,0.02
				c0,0,0.25-0.03,0.11-0.02c-0.19,0.02-0.38,0.04-0.57,0.06c-0.7,0.06-1.4,0.07-2.1,0.02c-0.16-0.01-0.31-0.03-0.46-0.04
				c-0.09-0.01-0.35-0.08,0,0c-0.08-0.02-0.16-0.02-0.24-0.04c-0.31-0.05-0.62-0.12-0.93-0.19c-0.28-0.07-0.56-0.16-0.84-0.25
				c-0.13-0.05-0.25-0.1-0.38-0.15c-0.25-0.1,0.2,0.09,0.02,0.01c-0.07-0.03-0.15-0.07-0.22-0.1c-0.49-0.23-0.95-0.5-1.38-0.82
				c-0.04-0.03-0.24-0.18-0.07-0.05s-0.03-0.02-0.06-0.05c-0.1-0.08-0.2-0.17-0.3-0.26c-0.19-0.17-0.37-0.35-0.54-0.54
				c-0.08-0.09-0.16-0.18-0.24-0.27c-0.04-0.05-0.08-0.1-0.12-0.15C-57.41-2.21-57.09-1.8-57.24-2c-0.15-0.2-0.29-0.4-0.41-0.62
				c-0.13-0.21-0.25-0.44-0.37-0.68c-0.05-0.11-0.1-0.21-0.15-0.32c-0.03-0.07,0.11,0.29,0.04,0.08c-0.03-0.07-0.05-0.14-0.08-0.2
				c-0.17-0.47-0.3-0.95-0.39-1.44c-0.01-0.05-0.02-0.11-0.03-0.16c-0.01-0.04-0.01-0.07-0.02-0.11c-0.01-0.04,0.03,0.31,0.02,0.18
				c-0.01-0.13-0.03-0.25-0.04-0.38c-0.02-0.25-0.03-0.49-0.02-0.74c0-0.26,0.01-0.51,0.04-0.77c0.01-0.05,0.01-0.11,0.02-0.17
				c0.02-0.19-0.05,0.31-0.01,0.07c0.02-0.13,0.04-0.25,0.07-0.39c0.11-0.51,0.25-1.01,0.44-1.49c0.01-0.04,0.03-0.07,0.04-0.11
				c0.01-0.02-0.12,0.26-0.06,0.15c0.02-0.05,0.05-0.11,0.07-0.16c0.06-0.13,0.12-0.26,0.19-0.39c0.12-0.24,0.26-0.47,0.4-0.69
				c0.07-0.11,0.14-0.22,0.22-0.33c0.04-0.06,0.08-0.11,0.12-0.17l0.05-0.07c0.09-0.13-0.05,0.07-0.07,0.09
				c0.2-0.21,0.37-0.45,0.57-0.66s0.4-0.41,0.62-0.61c0.11-0.1,0.21-0.19,0.32-0.28c0.06-0.05,0.12-0.1,0.18-0.15
				c0.1-0.08-0.12,0.08-0.11,0.08c0.05-0.03,0.09-0.07,0.14-0.1c0.25-0.19,0.51-0.36,0.78-0.53c0.56-0.33,0.75-1.06,0.42-1.62
				C-54.56-15.25-55.29-15.44-55.85-15.12L-55.85-15.12z"/>
		</g>
	</g>
	<g id="Group_785" transform="translate(358.238 575.344)">
		<path id="Path_2567" class="st54" d="M117.48,54.7h57.05c2.44,0,4.43,1.98,4.43,4.43v0v4.52c0,2.44-1.98,4.43-4.43,4.43h0h-57.05
			V54.7z"/>
		<g id="Group_781" transform="translate(159.111 97.665)">
			<path id="Path_2568" class="st53" d="M-41.63-41.79H15.4c0.15,0,0.29,0.01,0.44,0.02c0.28,0.02-0.2-0.04-0.02,0
				c0.07,0.01,0.14,0.02,0.2,0.04c0.11,0.02,0.21,0.05,0.32,0.08c0.07,0.02,0.34,0.07,0.39,0.13c-0.01-0.01-0.26-0.12-0.06-0.02
				c0.07,0.04,0.15,0.07,0.22,0.11c0.11,0.06,0.21,0.12,0.31,0.18c0.06,0.04,0.11,0.08,0.17,0.11c0.08,0.05,0.15,0.04-0.05-0.04
				c0.23,0.15,0.42,0.33,0.58,0.55c0.04,0.04,0.07,0.08,0.1,0.12c0.15,0.17-0.03-0.05-0.04-0.05c0.06,0.02,0.17,0.25,0.2,0.3
				c0.06,0.1,0.12,0.21,0.18,0.32c0.02,0.05,0.05,0.1,0.07,0.15c0.11,0.23-0.07-0.21,0.01,0.02c0.08,0.23,0.15,0.47,0.2,0.71
				c0,0.02,0.04,0.29,0.02,0.09c-0.03-0.2,0,0.07,0.01,0.09c0.01,0.11,0.01,0.23,0.01,0.34s0,0.25,0,0.37v3.87c0,0.15,0,0.31,0,0.46
				c0.01,0.11,0,0.23-0.03,0.34c0.1-0.16,0.03-0.18,0-0.03c-0.01,0.07-0.03,0.14-0.04,0.2c-0.02,0.11-0.05,0.21-0.08,0.32
				c-0.02,0.07-0.04,0.13-0.07,0.19c-0.08,0.25,0.04-0.07,0,0.02c-0.12,0.21-0.22,0.43-0.35,0.63c-0.03,0.04-0.06,0.08-0.09,0.13
				c-0.08,0.15,0.19-0.22,0.01-0.02c-0.08,0.1-0.17,0.2-0.27,0.3s-0.17,0.17-0.26,0.25c-0.05,0.05-0.1,0.09-0.15,0.13
				c0.02-0.01,0.23-0.16,0.05-0.04c-0.22,0.15-0.46,0.28-0.7,0.4c-0.13,0.07,0,0.05,0.06-0.02c-0.05,0.03-0.1,0.04-0.15,0.06
				c-0.13,0.05-0.26,0.09-0.39,0.12c-0.11,0.03-0.22,0.05-0.32,0.07c-0.27,0.06,0.2-0.01,0.02,0c-0.07,0-0.14,0.01-0.21,0.02
				c-0.09,0.01-0.19,0.01-0.28,0.01h-57.03l1.18,1.18v-13.38c0-0.65-0.53-1.18-1.18-1.18s-1.18,0.53-1.18,1.18v13.38
				c0.01,0.65,0.53,1.17,1.18,1.18h56.91c1.17,0.02,2.32-0.32,3.28-0.97c1.03-0.71,1.8-1.74,2.2-2.93c0.2-0.67,0.29-1.37,0.27-2.07
				v-3.9c0.02-0.75-0.1-1.5-0.35-2.21c-0.83-2.26-3.01-3.73-5.42-3.67h-56.89c-0.65,0-1.18,0.53-1.18,1.18s0.53,1.18,1.18,1.18l0,0
				L-41.63-41.79z"/>
		</g>
		<path id="Path_2569" class="st26" d="M11.03,54.7h106.45v13.38H16.36c-2.94,0-5.32-2.38-5.32-5.32l0,0L11.03,54.7z"/>
		<g id="Group_782" transform="translate(33.137 97.654)">
			<path id="Path_2570" class="st53" d="M-22.11-41.77H80.03c1.38,0,2.76,0.05,4.14,0c0.06,0,0.12,0,0.18,0l-1.18-1.18v13.38
				l1.18-1.18h-96.62c-1.47,0-2.94,0.01-4.4,0c-2.23,0.03-4.1-1.69-4.24-3.92c-0.08-2.06-0.01-4.13-0.01-6.19v-2.09
				c0-0.65-0.53-1.18-1.19-1.18c-0.65,0-1.18,0.53-1.18,1.18v6.19c-0.03,0.82-0.02,1.63,0.03,2.45c0.2,2.07,1.37,3.93,3.15,5.01
				c1.82,1.08,3.85,0.91,5.86,0.91h93.43c1.65,0,3.3,0.02,4.95,0h0.21c0.65-0.01,1.17-0.53,1.18-1.18v-13.38
				c-0.01-0.65-0.53-1.17-1.18-1.18H-17.79c-1.38,0-2.76-0.02-4.14,0c-0.06,0-0.12,0-0.18,0c-0.65,0-1.18,0.53-1.18,1.18
				S-22.76-41.77-22.11-41.77z"/>
		</g>
		<path id="Path_2571" class="st54" d="M73.69-27.82H92.8c2.26,0,4.29,1.39,5.1,3.51l30.22,79.01h-17.25"/>
		<path id="Path_2572" class="st26" d="M117.48,54.7H11.6l-28.17-73.65c-1.29-3.37,0.4-7.15,3.77-8.44
			c0.75-0.29,1.54-0.43,2.34-0.43h90.95c3.28,0,6.21,2.02,7.38,5.08L117.48,54.7z"/>
		<g id="Group_783">
			<path id="Path_2573" class="st53" d="M117.48,53.51H15.91c-1.37,0-2.77-0.08-4.14,0c-0.06,0-0.12,0-0.17,0l1.14,0.87l-2-5.24
				L5.75,36.1l-6.59-17.23L-7.52,1.42l-5.33-13.93c-0.85-2.21-1.7-4.41-2.54-6.62c-1.09-2.61,0-5.62,2.51-6.94
				c1-0.45,2.1-0.64,3.2-0.56h87.67c0.76,0,1.52,0,2.27,0c2.64-0.05,5.08,1.43,6.26,3.79c0.82,1.66,1.37,3.51,2.03,5.24l4.78,12.5
				l6.47,16.9l6.78,17.71l5.79,15.14l3.49,9.13l0.47,1.24c0.19,0.62,0.83,0.98,1.46,0.83c0.63-0.18,1-0.83,0.83-1.46l-1.94-5.08
				l-4.93-12.88l-6.53-17.07l-6.8-17.79l-5.75-15.04l-3.32-8.68c-0.37-1.12-0.9-2.18-1.56-3.16c-1.78-2.36-4.58-3.73-7.53-3.69
				c-2.28,0-4.56,0-6.84,0H-6.98c-2.67,0-5.49-0.29-7.82,1.33c-2.93,2.02-4.12,5.78-2.89,9.12c0.25,0.68,0.51,1.34,0.77,2.01
				l4.09,10.68l6.23,16.28l6.85,17.91l6.01,15.71l3.69,9.66l0.51,1.32c0.15,0.51,0.61,0.86,1.14,0.87h101.57
				c1.38,0,2.76,0.03,4.14,0c0.06,0,0.12,0,0.17,0c0.65,0,1.18-0.53,1.18-1.18C118.66,54.04,118.13,53.51,117.48,53.51z"/>
		</g>
		<g id="Group_784" transform="translate(107.297 0.022)">
			<path id="Path_2574" class="st53" d="M-33.61-26.66h19.17c0.1,0,0.2,0,0.3,0.01c0.08,0.01,0.16,0.01,0.23,0.02
				c-0.12-0.02-0.11-0.02,0.03,0.01c0.23,0.04,0.45,0.1,0.68,0.16c0.11,0.03,0.22,0.07,0.33,0.11c0.34,0.12-0.11-0.05,0.08,0.04
				c0.19,0.09,0.37,0.19,0.55,0.3c0.1,0.06,0.19,0.13,0.29,0.19c0.11,0.08,0.12,0.09,0.03,0.02c0.06,0.05,0.12,0.1,0.17,0.15
				c0.14,0.13,0.28,0.26,0.41,0.4c0.08,0.08,0.15,0.17,0.23,0.26c-0.14-0.17,0.08,0.12,0.09,0.13c0.13,0.19,0.25,0.39,0.36,0.6
				c0,0,0.17,0.35,0.08,0.15c0.03,0.07,0.03,0.07,0.04,0.11l0.03,0.07c0.06,0.15,0.11,0.3,0.17,0.45l0.81,2.11l3.13,8.17l4.59,12.01
				l5.39,14.08l5.54,14.48l4.95,12.95l3.72,9.73l1.82,4.76l0.08,0.21l1.14-1.5H3.58c-0.65,0-1.18,0.53-1.18,1.18
				s0.53,1.18,1.18,1.18h17.25c0.66-0.01,1.19-0.55,1.18-1.2c0-0.1-0.01-0.2-0.04-0.29L20.69,51l-3.36-8.79l-4.76-12.44l-5.47-14.3
				L1.59,1.09l-4.85-12.67l-3.51-9.17c-0.5-1.29-0.98-2.59-1.48-3.88c-0.99-2.66-3.54-4.42-6.38-4.4c-1.51,0-3.02,0-4.53,0h-14.45
				c-0.65,0-1.18,0.53-1.18,1.18S-34.26-26.67-33.61-26.66L-33.61-26.66z"/>
		</g>
		
			<ellipse id="Ellipse_86" transform="matrix(0.9153 -0.4029 0.4029 0.9153 -1.6668 18.9456)" class="st55" cx="44.2" cy="13.43" rx="6.48" ry="8.92"/>
	</g>
	<g id="Group_786" transform="translate(240.64 688.784)">
		<path id="Path_2575" class="st53" d="M1.18-44.18h474.87c6.41,0,12.84,0.1,19.25,0c0.28,0,0.56,0,0.85,0
			c0.65,0,1.18-0.53,1.18-1.18c0-0.65-0.53-1.18-1.18-1.18H21.28c-6.41,0-12.84-0.1-19.25,0c-0.28,0-0.56,0-0.85,0
			C0.53-46.55,0-46.02,0-45.36C0-44.71,0.53-44.18,1.18-44.18L1.18-44.18z"/>
	</g>
	<g id="Group_792" transform="translate(739.441 556.785)">
		<g id="Group_788" transform="translate(24.597)">
			<path id="Path_2576" class="st23" d="M-60.32-24.35l1.97,2.6c0.77,1.02,0.57,2.47-0.45,3.25c-0.01,0.01-0.03,0.02-0.04,0.03
				l-13.41,9.7l-0.24,22.4h-7.64V-9.15c0-1.79,0.83-3.47,2.24-4.56l14.31-11.07c1.01-0.78,2.47-0.6,3.25,0.41
				C-60.32-24.36-60.32-24.36-60.32-24.35z"/>
			<path id="Path_2577" class="st26" d="M-80.13,1.82h7.77l-0.06,5.48h-7.71V1.82z"/>
			<path id="Path_2578" class="st26" d="M-80.13-8.56h7.88l-0.06,5.48h-7.82L-80.13-8.56z"/>
			<path id="Path_2579" class="st26" d="M-64.74-14.2l-4.46,3.22l-4.94-5.64l4.34-3.36L-64.74-14.2z"/>
			<g id="Group_787">
				<path id="Path_2580" class="st53" d="M-61.08-23.9l1.43,1.88c0.18,0.24,0.36,0.47,0.54,0.71c0.08,0.11,0.16,0.23,0.22,0.35
					c0.02,0.04,0.04,0.08,0.06,0.12c-0.01-0.03-0.06-0.18-0.02-0.03c0.03,0.1,0.05,0.19,0.08,0.28c0.05,0.22,0.01-0.14,0.01,0.08
					c0,0.08,0.01,0.15,0,0.23c0,0.04,0,0.09-0.01,0.13c0.03-0.03,0.03-0.17,0.01-0.04c-0.02,0.11-0.05,0.21-0.08,0.31
					c-0.01,0.04-0.02,0.08-0.04,0.12c0,0,0.08-0.15,0.03-0.06c-0.04,0.07-0.08,0.16-0.12,0.23c-0.02,0.04-0.05,0.07-0.07,0.11
					c-0.05,0.11,0.1-0.11,0.02-0.02c-0.07,0.07-0.13,0.15-0.21,0.22c-0.08,0.07-0.15,0.12-0.04,0.04l-0.02,0.02
					c-0.1,0.07-0.19,0.14-0.29,0.21l-1.37,0.99l-4.64,3.36l-4.84,3.5c-0.75,0.54-1.5,1.07-2.24,1.62c-0.48,0.36-0.44,0.78-0.45,1.28
					l-0.02,1.53l-0.06,5.14l-0.07,6.34l-0.06,5.65l-0.03,3.07v0.14l0.89-0.89h-7.64l0.89,0.89V-9.03c0-0.14,0-0.28,0.01-0.42
					c0.01-0.1,0.02-0.2,0.02-0.3c0.02-0.17,0-0.02,0,0.01c0.01-0.05,0.02-0.1,0.02-0.15c0.04-0.21,0.08-0.42,0.14-0.62
					c0.06-0.19,0.12-0.38,0.2-0.56c0.05-0.12-0.06,0.13,0,0.01c0.02-0.04,0.04-0.09,0.06-0.14c0.05-0.1,0.1-0.2,0.15-0.3
					c0.1-0.17,0.2-0.34,0.32-0.51c0.03-0.04,0.2-0.26,0.08-0.12c0.08-0.1,0.16-0.19,0.25-0.29c0.22-0.24,0.47-0.47,0.73-0.67
					l0.18-0.14l3.04-2.35l4.96-3.84l4.48-3.46l1.31-1.01l0.29-0.22c0.1-0.08-0.06,0.06-0.08,0.07c0.08-0.05,0.16-0.09,0.23-0.15
					c0.07-0.04,0.28-0.11,0.09-0.05c0.08-0.03,0.17-0.06,0.25-0.08c0.04-0.01,0.08-0.02,0.13-0.03c0.21-0.05-0.19,0,0.02,0
					c0.08,0,0.15-0.01,0.23-0.01c0.04,0,0.08,0,0.13,0.01s0.17,0.04,0.04,0c0.06,0.01,0.11,0.03,0.17,0.04
					c0.04,0.01,0.08,0.03,0.12,0.04c0.04,0.01,0.16,0.06,0.05,0.01c-0.12-0.05,0.02,0.01,0.04,0.02c0.03,0.01,0.08,0.04,0.12,0.06
					c0.04,0.02,0.08,0.05,0.11,0.07c0.04,0.02,0.14,0.1,0.05,0.03s0.02,0.02,0.04,0.04c0.02,0.02,0.07,0.06,0.1,0.09
					c0.07,0.07,0.14,0.15,0.2,0.23c0.35,0.35,0.91,0.35,1.26,0c0.33-0.35,0.33-0.9,0-1.26c-0.59-0.72-1.47-1.15-2.4-1.18
					c-0.78-0.01-1.53,0.25-2.13,0.75l-0.69,0.54l-3.89,3.01l-5.12,3.97l-3.89,3.01c-0.23,0.18-0.46,0.36-0.69,0.54
					c-1.3,1.02-2.16,2.5-2.41,4.13c-0.1,0.98-0.13,1.96-0.09,2.94v20.89c0.01,0.49,0.4,0.88,0.89,0.89h7.64
					c0.49-0.01,0.88-0.4,0.89-0.89l0.02-2.23l0.06-5.35l0.07-6.47l0.06-5.59c0.01-0.9,0.06-1.81,0.03-2.7c0-0.01,0-0.03,0-0.04
					L-71.79-8l2.22-1.61l4.8-3.47l4.65-3.36l1.38-1c0.52-0.33,0.96-0.76,1.31-1.27c0.45-0.76,0.57-1.68,0.32-2.53
					c-0.14-0.44-0.36-0.85-0.65-1.21l-1.65-2.17l-0.14-0.18c-0.26-0.41-0.79-0.55-1.22-0.32C-61.18-24.86-61.32-24.33-61.08-23.9z"
					/>
			</g>
		</g>
		<path id="Path_2581" class="st24" d="M-51.68,21.96h21.62l-5.93,61.9c-0.02,1.45-1.13,2.65-2.58,2.77H-64.8
			c-1.44-0.13-2.56-1.33-2.58-2.77l-5.93-61.9H-51.68z"/>
		<path id="Path_2582" class="st19" d="M-33.48,57.69l2.31-24.13c-14.86,2.52-24.05,17.31-39.29,18.16l1.75,18.29
			C-50.65,70.57-41.7,61.55-33.48,57.69z"/>
		<g id="Group_789" transform="translate(3.222 55.528)">
			<path id="Path_2583" class="st18" d="M-54.9-32.39h21.62l-1.18-1.18l-0.24,2.51l-0.64,6.65l-0.91,9.46l-1.04,10.88l-1.06,11.11
				L-39.31,17l-0.72,7.48l-0.35,3.67c-0.01,0.06-0.01,0.11-0.02,0.17c0.03-0.29-0.02,0.09-0.04,0.17c-0.04,0.18-0.1,0.36-0.17,0.54
				c0.11-0.27-0.08,0.12-0.12,0.2c-0.04,0.06-0.08,0.12-0.12,0.18c-0.04,0.06-0.03,0.05,0.05-0.07c-0.04,0.04-0.07,0.08-0.11,0.13
				c-0.06,0.06-0.12,0.12-0.18,0.18c-0.06,0.06-0.08,0.14,0.05-0.03c-0.08,0.11-0.27,0.14-0.38,0.23c-0.11,0.09,0.26-0.08,0.02-0.01
				c-0.08,0.02-0.16,0.04-0.23,0.07c-0.23,0.07,0.08-0.02,0.08,0c-0.01,0.02-0.22,0.01-0.25,0.01c-0.88,0.02-1.76,0-2.65,0h-22.94
				c-0.28,0-0.57-0.03-0.85-0.01c-0.16,0.01,0.28,0.08,0.04,0c-0.08-0.02-0.15-0.04-0.23-0.07c-0.23-0.07,0.07,0.03,0.06,0.03
				c-0.03,0.01-0.19-0.1-0.21-0.11c-0.07-0.03-0.14-0.08-0.2-0.14c0.01,0.02,0.2,0.19,0.05,0.03c-0.06-0.06-0.12-0.11-0.18-0.18
				c-0.04-0.04-0.08-0.08-0.11-0.13l0.08,0.1c-0.12-0.13-0.21-0.29-0.27-0.45c-0.03-0.05-0.08-0.21,0.01,0.03
				c-0.03-0.08-0.07-0.17-0.09-0.26c-0.05-0.15-0.08-0.31-0.11-0.46c-0.05-0.22,0-0.02,0,0.02c-0.01-0.07-0.01-0.13-0.02-0.2
				l-0.13-1.32l-0.56-5.82l-0.86-8.93L-72,1.33L-73.07-9.8l-0.99-10.34l-0.78-8.16l-0.45-4.66l-0.06-0.61l-1.18,1.18L-54.9-32.39
				c0.65,0,1.18-0.53,1.18-1.18s-0.53-1.18-1.18-1.18h-21.62c-0.65,0.01-1.18,0.53-1.18,1.18l0.24,2.54l0.64,6.72l0.92,9.54
				l1.06,11.03l1.07,11.16l0.95,9.95l0.71,7.39c0.11,1.16,0.22,2.32,0.33,3.48c0.03,0.4,0.1,0.79,0.2,1.18
				c0.43,1.6,1.83,2.76,3.49,2.89c0.89,0.04,1.79,0,2.67,0h21.25c1.01,0.06,2.02,0.04,3.02-0.07c1.55-0.37,2.74-1.62,3.02-3.19
				c0.05-0.28,0.09-0.55,0.11-0.83l0.12-1.21l0.54-5.68l0.85-8.86l1.03-10.74l1.08-11.26l1-10.43l0.79-8.25l0.45-4.72l0.06-0.62
				c-0.01-0.65-0.53-1.18-1.18-1.18H-54.9c-0.65,0-1.18,0.53-1.18,1.18C-56.08-32.92-55.55-32.39-54.9-32.39L-54.9-32.39z"/>
		</g>
		<path id="Rectangle_116" class="st26" d="M-72.97,15.85h42.59c1.69,0,3.05,1.37,3.05,3.05v0c0,1.69-1.37,3.05-3.05,3.05h-42.59
			c-1.69,0-3.05-1.37-3.05-3.05v0C-76.03,17.22-74.66,15.85-72.97,15.85z"/>
		<path id="Path_2584" class="st26" d="M-71.81,9.63c0.33-0.95,1.23-1.58,2.24-1.58h35.79c1.01,0,1.9,0.63,2.24,1.58l2.2,6.22
			h-44.66L-71.81,9.63z"/>
		<g id="Group_790" transform="translate(0 48.302)">
			<path id="Path_2585" class="st18" d="M-74.44-31.27h45.56c0.2,0.01,0,0.01-0.08-0.02c0.08,0.03,0.17,0.06,0.25,0.07
				c-0.13,0.02-0.23-0.11-0.1-0.04c0.04,0.02,0.08,0.04,0.11,0.06c0.03,0.03,0.07,0.05,0.11,0.07c-0.19-0.06-0.17-0.15-0.09-0.06
				c0.03,0.04,0.07,0.08,0.11,0.11c0.1,0.08-0.14-0.23-0.05-0.06c0.04,0.08,0.08,0.15,0.12,0.23c-0.14-0.18-0.08-0.21-0.05-0.1
				c0.01,0.04,0.02,0.08,0.03,0.13c0.05,0.18-0.02-0.09-0.01-0.12c0,0.05,0,0.09,0.01,0.14v0.03c0,0.14,0,0.28,0,0.41
				c0,0.83,0.01,1.66,0,2.5c0,0,0,0.08,0,0.1c0,0.15,0.05-0.26,0.02-0.11c-0.01,0.04-0.02,0.08-0.03,0.13
				c-0.01,0.06-0.08,0.17,0.01,0.01c0.11-0.19-0.05,0.08-0.07,0.12s-0.11,0.17,0,0.01c0.11-0.16,0-0.01-0.03,0.02
				c-0.03,0.02-0.07,0.05-0.09,0.08c0.08-0.16,0.2-0.13,0.06-0.05c-0.04,0.02-0.31,0.18-0.12,0.07c0.16-0.08,0.05-0.02-0.01-0.01
				c-0.04,0.01-0.08,0.02-0.13,0.03c-0.15,0.04,0.27-0.01,0.11-0.02c-0.04,0-0.07,0-0.11,0c-0.1,0-0.2,0-0.3,0h-45.22
				c-0.03,0-0.07,0-0.11,0c-0.15,0,0.28,0.06,0.08,0.01c-0.04-0.01-0.08-0.03-0.13-0.03c-0.17-0.03,0.07,0.03,0.1,0.05
				c-0.07-0.05-0.15-0.09-0.23-0.12c-0.16-0.09,0.08,0.05,0.08,0.07c-0.01-0.03-0.08-0.08-0.12-0.11c-0.03-0.03-0.12-0.15-0.01,0
				c0.12,0.17,0.01,0-0.02-0.04c-0.02-0.04-0.04-0.08-0.06-0.11c-0.09-0.16,0.05,0.08,0.04,0.1c-0.01-0.09-0.03-0.17-0.07-0.25
				c0.09,0.17,0.02,0.24,0.02,0.11c0-0.01,0-0.05,0-0.07s0-0.02,0-0.04c0-0.15,0-0.29,0-0.44v-1.54c0-0.31-0.01-0.61,0-0.92
				c0-0.02,0-0.05,0-0.07c0-0.19-0.01,0.09-0.02,0.11c0.03-0.08,0.06-0.17,0.07-0.25c0.02,0.13-0.11,0.23-0.04,0.1
				c0.02-0.04,0.04-0.08,0.06-0.11c0.03-0.03,0.05-0.07,0.07-0.11c-0.06,0.19-0.15,0.17-0.06,0.09c0.03-0.03,0.06-0.06,0.09-0.09
				c0.15-0.16-0.19,0.11-0.06,0.05c0.07-0.04,0.15-0.08,0.22-0.13c0.12-0.07-0.24,0.07-0.1,0.05c0.04-0.01,0.08-0.03,0.13-0.04
				c0.04-0.01,0.2-0.04,0.01-0.01C-74.7-31.24-74.48-31.26-74.44-31.27c0.66,0,1.19-0.53,1.19-1.18s-0.53-1.18-1.18-1.18
				c-1.19,0.02-2.24,0.77-2.63,1.9c-0.13,0.46-0.18,0.95-0.14,1.42v1.58c-0.01,0.39,0,0.78,0.03,1.17c0.15,1.13,0.98,2.06,2.08,2.33
				c0.29,0.06,0.59,0.08,0.89,0.08h45.01c0.12,0,0.24,0,0.35,0c1.19-0.04,2.22-0.83,2.58-1.96c0.11-0.46,0.15-0.93,0.12-1.4v-1.58
				c0.02-0.45,0-0.9-0.06-1.35c-0.23-1.06-1.06-1.89-2.12-2.12c-0.42-0.06-0.85-0.08-1.28-0.07h-44.84c-0.65,0-1.18,0.53-1.18,1.18
				C-75.62-31.79-75.09-31.26-74.44-31.27L-74.44-31.27z"/>
		</g>
		<g id="Group_791" transform="translate(2.377 39.066)">
			<path id="Path_2586" class="st53" d="M-73.05-29.12c0.07-0.19-0.03,0.07-0.04,0.09c0.02-0.04,0.04-0.08,0.06-0.12
				c0.04-0.08,0.09-0.16,0.14-0.23c0.11-0.17-0.17,0.19,0,0c0.07-0.08,0.14-0.14,0.21-0.21c0.14-0.13-0.06,0.05-0.08,0.06
				c0.04-0.02,0.08-0.05,0.11-0.08c0.08-0.05,0.15-0.09,0.23-0.13c0.18-0.09-0.27,0.09,0,0c0.1-0.03,0.2-0.05,0.29-0.08
				s0.14,0.03-0.11,0.01c0.05,0,0.09,0,0.14-0.01c0.05,0,0.1,0,0.14,0h35.72c0.04,0,0.09,0,0.14,0s0.09,0.01,0.14,0.01
				c0.14,0.01,0.03,0.07-0.11-0.02c0.09,0.03,0.17,0.05,0.26,0.06c0.05,0.01,0.31,0.11,0.11,0.03c-0.18-0.07-0.03-0.01,0.01,0.01
				s0.1,0.05,0.15,0.08s0.08,0.05,0.11,0.07c0.11,0.07,0.01,0.08-0.08-0.06c0.05,0.06,0.11,0.11,0.17,0.16
				c0.03,0.03,0.24,0.27,0.11,0.11c-0.11-0.15-0.02-0.02,0.01,0.02s0.06,0.1,0.09,0.15c0.03,0.05,0.04,0.08,0.06,0.12
				c0.05,0.09,0.01,0.14-0.04-0.09c0.01,0.02,0.02,0.05,0.03,0.07c0.01,0.02,0.01,0.03,0.02,0.05c0.08,0.22,0.16,0.44,0.23,0.66
				l1.8,5.11l0.14,0.4l1.14-1.5h-44.66l1.14,1.5l1.93-5.46L-73.05-29.12c0.17-0.63-0.2-1.28-0.83-1.46
				c-0.63-0.16-1.27,0.21-1.46,0.83l-1.93,5.46l-0.27,0.76c-0.17,0.64,0.21,1.29,0.85,1.46c0.1,0.03,0.19,0.04,0.29,0.04h44.66
				c0.66-0.01,1.19-0.55,1.18-1.21c0-0.1-0.01-0.2-0.04-0.29l-1.56-4.42c-0.21-0.59-0.41-1.19-0.63-1.78
				c-0.27-0.77-0.77-1.44-1.45-1.9c-0.59-0.38-1.28-0.58-1.98-0.58c-0.67,0-1.34,0-2.01,0H-71.6c-0.66-0.02-1.31,0.11-1.91,0.37
				c-0.86,0.43-1.52,1.18-1.82,2.09c-0.17,0.63,0.2,1.28,0.83,1.46C-73.88-28.14-73.24-28.5-73.05-29.12z"/>
		</g>
	</g>
	<g id="Group_798" transform="translate(284.55 657.373)">
		<rect id="Rectangle_117" x="0.77" y="-33.96" class="st26" width="68.66" height="13.42"/>
		<g id="Group_793" transform="translate(88.754 7.794)">
			<path id="Path_2587" class="st53" d="M-18.14-28.34v-13.42c0-0.65-0.53-1.18-1.19-1.18c-0.65,0-1.18,0.53-1.18,1.18v13.42
				c0,0.65,0.53,1.18,1.19,1.18C-18.67-27.16-18.14-27.69-18.14-28.34z"/>
		</g>
		<g id="Group_797">
			<path id="Path_2588" class="st23" d="M71.39-13.96H7.96c-7.28,0.05-13.28-5.7-13.54-12.98c-0.17-7.35,5.65-13.44,13-13.61
				c0.1,0,0.19,0,0.29,0h63.68c1.81,0,3.29,1.47,3.29,3.29v0.02c0,1.81-1.47,3.29-3.29,3.29H7.71C4-33.96,1-30.96,1-27.25l0,0
				c0,3.71,3,6.71,6.71,6.71h60.38l3.32,0.02c1.81,0.01,3.27,1.48,3.27,3.29l0,0C74.67-15.43,73.2-13.96,71.39-13.96z"/>
			<g id="Group_794">
				<path id="Path_2589" class="st53" d="M71.39-15.14H7.97c-0.34,0-0.68-0.01-1.02-0.04c-0.15-0.01-0.3-0.02-0.44-0.04l-0.22-0.03
					c0.22,0.03,0.03,0-0.01,0c-0.33-0.05-0.65-0.11-0.97-0.18c-0.6-0.13-1.2-0.31-1.77-0.52c-0.14-0.05-0.27-0.1-0.4-0.16
					c-0.04-0.02-0.21-0.09-0.01-0.01l-0.2-0.08c-0.29-0.13-0.58-0.28-0.86-0.43c-0.52-0.28-1.01-0.59-1.49-0.93l-0.17-0.13
					c-0.02-0.02-0.2-0.15-0.09-0.07s-0.06-0.05-0.08-0.07l-0.16-0.13c-0.24-0.2-0.48-0.42-0.71-0.64c-0.42-0.41-0.81-0.84-1.18-1.29
					c-0.15-0.17-0.04-0.05-0.01-0.01C-1.9-19.94-1.94-20-1.99-20.05c-0.08-0.11-0.17-0.23-0.25-0.34c-0.18-0.26-0.35-0.53-0.52-0.8
					c-0.14-0.24-0.28-0.49-0.41-0.75c-0.06-0.13-0.13-0.25-0.19-0.38c-0.03-0.06-0.06-0.13-0.09-0.19
					c-0.01-0.02-0.14-0.34-0.05-0.11c-0.23-0.57-0.42-1.15-0.57-1.74c-0.07-0.28-0.13-0.57-0.18-0.86
					c-0.03-0.14-0.05-0.29-0.07-0.44c0.04,0.24-0.03-0.23-0.03-0.29c-0.06-0.63-0.08-1.27-0.05-1.91c0.01-0.3,0.04-0.59,0.07-0.88
					c0-0.03,0.03-0.26,0.01-0.11c-0.02,0.15,0.01-0.08,0.02-0.11c0.03-0.16,0.05-0.32,0.08-0.48c0.12-0.6,0.27-1.19,0.47-1.77
					c0.05-0.13,0.09-0.27,0.15-0.4c0.02-0.05,0.17-0.43,0.08-0.21c0.12-0.29,0.26-0.58,0.41-0.86c0.27-0.53,0.58-1.04,0.92-1.53
					c0.08-0.11,0.16-0.23,0.25-0.34c0.02-0.03,0.14-0.18,0.01-0.01l0.13-0.16c0.19-0.23,0.38-0.46,0.58-0.68
					c0.4-0.44,0.83-0.84,1.29-1.22l0.16-0.13c0.02-0.02,0.2-0.15,0.08-0.07s0.06-0.05,0.09-0.07l0.17-0.12
					c0.24-0.17,0.49-0.34,0.74-0.49c0.51-0.31,1.04-0.59,1.59-0.84c0.21-0.1,0.05-0.03,0.01-0.01c0.07-0.03,0.13-0.05,0.2-0.08
					c0.13-0.05,0.26-0.1,0.4-0.15c0.3-0.11,0.61-0.21,0.92-0.29c0.28-0.08,0.56-0.15,0.84-0.21c0.14-0.03,0.28-0.06,0.43-0.08
					l0.22-0.04c0.05-0.01,0.37-0.05,0.12-0.02c0.67-0.08,1.34-0.11,2.02-0.1h63.32c0.04,0,0.04,0,0.11,0s0.15,0.01,0.22,0.02
					c-0.17-0.02-0.03,0,0.06,0.02c0.14,0.03,0.28,0.07,0.41,0.12c0.17,0.06-0.15-0.08,0.01,0.01c0.06,0.03,0.13,0.06,0.19,0.1
					c0.06,0.03,0.12,0.07,0.18,0.11c0.03,0.02,0.21,0.15,0.09,0.06c-0.13-0.1,0.13,0.12,0.12,0.11c0.06,0.06,0.12,0.12,0.18,0.19
					c0.02,0.02,0.16,0.19,0.08,0.08c-0.09-0.11,0.04,0.07,0.06,0.09c0.08,0.12,0.14,0.24,0.21,0.37c0.08,0.16-0.05-0.16,0.01,0.01
					c0.02,0.07,0.05,0.14,0.07,0.2c0.02,0.07,0.09,0.51,0.07,0.27c0.01,0.12,0.02,0.23,0.02,0.35c0,0.06-0.05,0.48,0,0.24
					c-0.03,0.14-0.06,0.28-0.1,0.42c-0.02,0.07-0.04,0.14-0.07,0.2c0.08-0.23-0.03,0.06-0.06,0.1c-0.07,0.12-0.14,0.24-0.22,0.36
					c0.13-0.17-0.1,0.11-0.16,0.16c-0.04,0.04-0.35,0.29-0.16,0.16c-0.15,0.1-0.3,0.19-0.45,0.27c-0.04,0.02-0.21,0.08-0.01,0.01
					c-0.07,0.03-0.13,0.05-0.2,0.07c-0.14,0.04-0.28,0.08-0.42,0.1c0.24-0.04-0.18,0-0.24,0h-0.06c-0.28,0-0.57,0-0.86,0H9.8
					c-1.1-0.04-2.2-0.01-3.3,0.1c-2.59,0.4-4.82,2.06-5.93,4.44c-1.85,3.94-0.16,8.64,3.78,10.5c1.05,0.49,2.2,0.75,3.36,0.75
					c0.22,0,0.43,0,0.65,0h57.9c0.81,0,1.63,0,2.44,0l2.35,0.01h0.3h0.05c0.08,0,0.46,0.05,0.24,0.01c0.14,0.03,0.28,0.06,0.42,0.1
					c0.07,0.02,0.14,0.04,0.2,0.07c-0.05-0.02-0.18-0.1,0.01,0.01c0.12,0.07,0.24,0.14,0.36,0.21c0.04,0.02,0.17,0.14,0.01,0
					c0.05,0.04,0.11,0.09,0.16,0.14c0.1,0.1,0.2,0.2,0.29,0.31c-0.15-0.18,0.08,0.14,0.11,0.19c0.04,0.07,0.19,0.4,0.11,0.19
					c0.05,0.13,0.09,0.27,0.13,0.41c0.02,0.07,0.03,0.14,0.04,0.21c-0.04-0.22-0.01-0.03,0,0.01c0,0.11,0.01,0.22,0.01,0.34
					c0,0.07-0.01,0.15-0.02,0.22c0.02-0.22,0-0.03-0.01,0.01c-0.03,0.14-0.07,0.28-0.11,0.42c-0.06,0.21-0.02,0.06,0,0.01
					c-0.03,0.06-0.06,0.13-0.1,0.19c-0.07,0.12-0.14,0.24-0.22,0.36c0.13-0.17-0.1,0.11-0.16,0.16c-0.05,0.05-0.1,0.09-0.15,0.14
					c-0.23,0.23,0.11-0.07-0.05,0.04c-0.12,0.08-0.24,0.15-0.36,0.22c-0.03,0.02-0.23,0.11-0.1,0.05s-0.08,0.03-0.11,0.04
					c-0.14,0.04-0.28,0.08-0.42,0.11c-0.19,0.04,0.18-0.01-0.01,0C71.58-15.15,71.48-15.15,71.39-15.14c-0.65,0-1.18,0.53-1.18,1.18
					c0,0.65,0.53,1.18,1.18,1.18c1.51-0.02,2.91-0.78,3.75-2.04c0.78-1.2,0.94-2.69,0.42-4.03c-0.53-1.39-1.73-2.43-3.18-2.77
					c-0.77-0.12-1.54-0.16-2.31-0.12c-1.11-0.01-2.23-0.01-3.34-0.01H8.53c-0.27,0-0.53,0-0.8,0H7.71c-0.11,0-0.23,0-0.34-0.01
					c-0.07,0-0.15-0.01-0.22-0.02c-0.03,0-0.32-0.03-0.17-0.02c0.16,0.02-0.08-0.01-0.11-0.02c-0.07-0.01-0.14-0.03-0.21-0.04
					c-0.14-0.03-0.28-0.06-0.42-0.1c-0.16-0.04-0.31-0.09-0.46-0.15c-0.07-0.02-0.13-0.05-0.2-0.08c0.16,0.06,0.02,0.01-0.06-0.03
					c-0.26-0.12-0.51-0.25-0.75-0.4c-0.13-0.08-0.26-0.17-0.39-0.27C4.34-22.88,4.2-23,4.36-22.86c-0.07-0.06-0.14-0.11-0.2-0.17
					c-0.21-0.18-0.41-0.38-0.6-0.59c-0.05-0.05-0.09-0.11-0.14-0.16c-0.02-0.02-0.16-0.2-0.07-0.08c0.1,0.13-0.1-0.14-0.1-0.13
					c-0.05-0.07-0.1-0.14-0.15-0.22c-0.15-0.24-0.29-0.48-0.41-0.74c-0.03-0.06-0.06-0.13-0.09-0.19c-0.08-0.17,0.06,0.16,0-0.01
					s-0.12-0.34-0.17-0.51c-0.08-0.28-0.15-0.56-0.19-0.85c-0.03-0.19,0.02,0.18,0-0.01c-0.01-0.07-0.01-0.15-0.02-0.22
					c-0.01-0.17-0.02-0.34-0.02-0.51c0-0.13,0-0.26,0.01-0.39c0-0.07,0.01-0.15,0.02-0.22c0-0.03,0.03-0.26,0.01-0.12
					c-0.02,0.15,0.01-0.08,0.02-0.11c0.01-0.07,0.03-0.14,0.04-0.21c0.04-0.18,0.08-0.35,0.13-0.53c0.04-0.14,0.09-0.27,0.14-0.41
					c0.01-0.03,0.09-0.24,0.04-0.11c-0.05,0.13,0.03-0.07,0.05-0.1c0.13-0.27,0.27-0.54,0.43-0.79c0.08-0.13,0.18-0.26,0.27-0.39
					c0.11-0.15-0.11,0.13,0.01-0.01c0.04-0.05,0.09-0.11,0.14-0.16c0.2-0.22,0.41-0.44,0.63-0.63c0.05-0.05,0.11-0.09,0.16-0.14
					c0.25-0.22-0.11,0.08,0.05-0.04c0.11-0.08,0.23-0.16,0.35-0.24c0.25-0.16,0.51-0.31,0.79-0.44c0.06-0.03,0.13-0.06,0.19-0.08
					c-0.21,0.08,0.01,0,0.06-0.02c0.13-0.05,0.27-0.09,0.41-0.14c0.3-0.09,0.6-0.15,0.9-0.2c-0.23,0.03,0.16-0.01,0.24-0.02
					c0.15-0.01,0.3-0.01,0.45-0.01h0.01c0.91-0.01,1.81,0,2.72,0h59.61c0.77,0.04,1.55,0,2.31-0.11c2.42-0.55,3.93-2.96,3.37-5.38
					c-0.11-0.49-0.31-0.96-0.58-1.39c-0.82-1.27-2.21-2.04-3.72-2.08c-0.22,0-0.43,0-0.65,0H7.89c-7.98-0.12-14.55,6.25-14.67,14.23
					c-0.1,6.76,4.5,12.7,11.07,14.28c1.66,0.36,3.36,0.52,5.06,0.46h62.04c0.65,0,1.18-0.53,1.18-1.18
					C72.57-14.61,72.04-15.14,71.39-15.14L71.39-15.14z"/>
			</g>
			<g id="Group_795" transform="translate(17.934 14.671)">
				<path id="Path_2590" class="st53" d="M-9.25-43.41h58.28c0.79,0,1.58,0.02,2.37,0h0.1c0.16-0.01,0.29-0.16,0.27-0.32
					c-0.01-0.15-0.13-0.26-0.27-0.27H-6.79c-0.79,0-1.58-0.02-2.37,0h-0.1c-0.16,0.01-0.29,0.16-0.27,0.32
					C-9.52-43.53-9.4-43.42-9.25-43.41L-9.25-43.41z"/>
			</g>
			<g id="Group_796" transform="translate(17.934 18.861)">
				<path id="Path_2591" class="st53" d="M-9.25-44.06h58.28c0.79,0,1.58,0.02,2.37,0c0.03,0,0.07,0,0.1,0
					c0.16-0.01,0.29-0.16,0.27-0.32c-0.01-0.15-0.13-0.26-0.27-0.27H-6.79c-0.79,0-1.58-0.02-2.37,0h-0.1
					c-0.16,0.01-0.29,0.16-0.27,0.32C-9.52-44.18-9.4-44.07-9.25-44.06L-9.25-44.06z"/>
			</g>
		</g>
	</g>
</g>
</svg>
