<?xml version="1.0" encoding="utf-8"?>
<!-- Generator: Adobe Illustrator 25.2.1, SVG Export Plug-In . SVG Version: 6.00 Build 0)  -->
<svg version="1.1" id="Laag_1" xmlns="http://www.w3.org/2000/svg" xmlns:xlink="http://www.w3.org/1999/xlink" x="0px" y="0px"
	 viewBox="0 0 139.53 101.76" style="enable-background:new 0 0 139.53 101.76;" xml:space="preserve">
<style type="text/css">
	.st0{enable-background:new    ;}
	.st1{fill:url(#SVGID_1_);}
	.st2{fill:url(#SVGID_2_);}
	.st3{fill:url(#SVGID_3_);}
	.st4{fill:url(#SVGID_4_);}
	.st5{fill:url(#SVGID_5_);}
	.st6{fill:url(#SVGID_6_);}
	.st7{fill:url(#SVGID_7_);}
	.st8{fill:url(#SVGID_8_);}
	.st9{fill:url(#SVGID_9_);}
	.st10{fill:url(#SVGID_10_);}
	.st11{fill:url(#SVGID_11_);}
	.st12{fill:url(#SVGID_12_);}
	.st13{fill:url(#SVGID_13_);}
	.st14{fill:url(#SVGID_14_);}
	.st15{fill:url(#SVGID_15_);}
	.st16{fill:#EBFED1;stroke:#2C2C2C;stroke-width:2;}
	.st17{fill:#A8E533;}
	.st18{fill:#2C2C2C;}
	.st19{fill:#469612;}
	.st20{fill:#FCC4B9;}
	.st21{fill:#EFA89E;}
	.st22{fill:#A1A7B7;}
	.st23{fill:#FFFA7B;}
	.st24{fill:#BFFD6A;}
	.st25{fill:#C9C9C9;}
	.st26{fill:#FFFFFF;}
	.st27{fill:#D6D8ED;}
	.st28{fill:#8B93A0;}
	.st29{fill:#E18F81;}
	.st30{fill:#F96464;}
	.st31{fill:#1C9337;}
	.st32{fill:#147A27;}
	.st33{fill:#6EB42D;}
	.st34{fill:#619B23;}
	.st35{fill:#DBA065;}
	.st36{fill:#C18753;}
	.st37{fill:#FFD243;}
	.st38{fill:#737581;}
	.st39{fill:#EBFED1;}
	.st40{fill:#51545E;}
	.st41{fill:#40434C;}
	.st42{fill:#5E6270;}
	.st43{fill:#892F58;}
	.st44{fill:#231F20;}
	.st45{fill:#CBFD63;}
	.st46{fill:#001B01;}
	.st47{fill:#FFE98D;}
	.st48{fill:#FFD938;}
	.st49{fill:#525252;}
	.st50{fill:#DFE6F2;}
	.st51{fill:#E8A6A0;}
	.st52{fill:#717171;}
	.st53{fill:#21223F;}
	.st54{fill:#D3D5E2;}
	.st55{fill:#DDDDDD;}
	.st56{fill:#C8DDFC;}
	.st57{clip-path:url(#SVGID_17_);}
	.st58{fill:#67E9FF;}
	.st59{fill:#3B1B6D;}
	.st60{fill:#F96262;}
	.st61{fill:#315775;}
	.st62{fill:#DB9561;}
	.st63{fill:#BC7A4D;}
	.st64{clip-path:url(#SVGID_19_);}
	.st65{fill:#4CA934;}
	.st66{fill:#F9F6E5;}
	.st67{fill:#D8D3BC;}
	.st68{fill:#6F6F6D;}
	.st69{fill:#89C433;}
	.st70{fill:#FEFEFE;}
	.st71{fill:#E7E4EA;}
	.st72{fill:#DDD745;}
	.st73{fill:#9ED85B;}
	.st74{fill:#CCCCCA;}
	.st75{fill:#D3D3D3;}
	.st76{fill:#AEAEAE;}
	.st77{fill:#FEFFFF;}
	.st78{fill:#D5CE35;}
	.st79{fill:#EFF1FE;}
	.st80{fill:#BFFD6A;stroke:#2C2C2C;}
	.st81{fill:none;stroke:#2C2C2C;stroke-width:0.695;stroke-linecap:round;stroke-linejoin:round;}
	.st82{fill:#83E700;stroke:#2C2C2C;stroke-width:0.695;stroke-linecap:round;stroke-linejoin:round;}
	.st83{fill:#001B01;stroke:#2C2C2C;}
	.st84{fill:#469612;stroke:#2C2C2C;stroke-width:3;stroke-miterlimit:10;}
	.st85{fill:#7ECE29;}
	.st86{fill:#FFFA7B;stroke:#000000;stroke-width:2.5;}
	.st87{fill:#FFFA7B;stroke:#000000;stroke-width:2;}
</style>
<g id="Group_521" transform="translate(-1021.543 -627.414)">
	<g id="Group_477" transform="translate(1369.415 689.658)">
		<g id="Group_476">
			<path id="Path_2114" class="st23" d="M-325.51-25.89c0,0-1.31-7.15-8.96-7.05c-7.65,0.1-8.73,6.95-8.73,6.95
				s-4.66,1.94-4.66,4.42h28.57C-319.3-21.57-320.38-25.89-325.51-25.89z"/>
		</g>
	</g>
	<g id="Group_479" transform="translate(1379.827 690.037)">
		<g id="Group_478" transform="translate(0 0)">
			<path id="Path_2115" class="st23" d="M-238.7-1.58c-19.37-9.09-19.22-33.42-42.34-31.38S-304.5-9.18-332.18-0.32
				s-18.1,38.35-18.1,38.35h124.8C-217.95,33.2-219.33,7.5-238.7-1.58z"/>
		</g>
	</g>
	<g id="Group_481" transform="translate(1480.067 642.012)">
		<g id="Group_480">
			<path id="Path_2116" class="st23" d="M-362.03-5.63c0,0-1.67-9.1-11.41-8.97c-9.74,0.13-11.11,8.84-11.11,8.84
				s-5.93,2.46-5.93,5.62h36.35C-354.13-0.13-355.49-5.63-362.03-5.63z"/>
		</g>
	</g>
	<g id="Group_484" transform="translate(1382.167 787.03)">
		<g id="Group_482" transform="translate(1.8 2.195)">
			<path id="Path_2117" class="st75" d="M-323.01-66.98c0,0-4.71-5.59-14.94-4.03c-6.15,0.98-11.7,4.26-15.53,9.17h44.74
				C-308.73-61.83-314.3-69.22-323.01-66.98z"/>
		</g>
		<g id="Group_483">
			<path id="Path_2118" class="st18" d="M-335.95-67.48c9.29-1.41,13.54,3.37,13.71,3.57c0.33,0.4,0.86,0.57,1.37,0.44
				c7.7-1.98,12.66,4.38,12.86,4.65l2.15-1.63c-0.24-0.32-5.89-7.66-14.92-5.82c-1.65-1.53-6.68-5.23-15.57-3.88
				c-6.52,1.02-12.4,4.51-16.43,9.74l2.21,1.54C-346.94-63.46-341.72-66.54-335.95-67.48z"/>
		</g>
	</g>
	<g id="Group_516" transform="translate(1372.733 666.418)">
		<g id="Group_498" transform="translate(52.408 26.379)">
			<g id="Group_485" transform="translate(3.905 2.192)">
				<rect id="Rectangle_73" x="-370.83" y="-35" class="st24" width="88.33" height="67.84"/>
			</g>
			<g id="Group_486" transform="translate(10.967 10.968)">
				<path id="Path_2119" class="st26" d="M-373.32-32.52c-0.08,0-0.15,0-0.23-0.01v45.68c0.04,0,0.08,0,0.12,0
					c3.06,0,5.56,2.45,5.63,5.51h66.05c0-0.04,0-0.08,0-0.12c0-3.11,2.52-5.63,5.63-5.63c0.04,0,0.08,0,0.12,0v-45.67
					c-3.11,0-5.63-2.52-5.63-5.63h-66.05c0,0.08,0.01,0.15,0.01,0.23C-367.69-35.03-370.21-32.52-373.32-32.52z"/>
			</g>
			<g id="Group_487">
				<path id="Path_2120" class="st18" d="M-279.66,36.38c0.74,0,1.35-0.6,1.35-1.35c0,0,0,0,0,0V-32.8c0-0.74-0.6-1.35-1.35-1.35
					l0,0h-88.33c-0.74,0-1.35,0.6-1.35,1.35c0,0,0,0,0,0v67.84c0,0.74,0.6,1.35,1.35,1.35l0,0L-279.66,36.38z M-366.63-31.46H-281
					v65.14h-85.63V-31.46z"/>
			</g>
			<g id="Group_488" transform="translate(49.503 21.691)">
				<path id="Path_2121" class="st18" d="M-359.06-40.89c0.45,0,0.81-0.36,0.81-0.81c0-0.45-0.36-0.81-0.81-0.81l0,0h-28.52
					c-0.45,0-0.81,0.36-0.81,0.81c0,0.45,0.36,0.81,0.81,0.81H-359.06z"/>
			</g>
			<g id="Group_491" transform="translate(19.694 79.295)">
				<g id="Group_489">
					<path id="Path_2122" class="st18" d="M-358.29-63.07c0.45,0,0.81-0.36,0.81-0.81c0-0.45-0.36-0.81-0.81-0.81l0,0h-17.82
						c-0.45,0-0.81,0.36-0.81,0.81c0,0.45,0.36,0.81,0.81,0.81H-358.29z"/>
				</g>
				<g id="Group_490" transform="translate(77.03)">
					<path id="Path_2123" class="st18" d="M-387.95-63.07c0.45,0,0.81-0.36,0.81-0.81c0-0.45-0.36-0.81-0.81-0.81h-17.82
						c-0.45,0-0.81,0.36-0.81,0.81c0,0.45,0.36,0.81,0.81,0.81H-387.95z"/>
				</g>
			</g>
			<g id="Group_492" transform="translate(38.684 34.026)">
				<path id="Path_2124" class="st18" d="M-341.59-45.64c0.45,0,0.81-0.36,0.81-0.81c0-0.45-0.36-0.81-0.81-0.81h-41.83
					c-0.45,0-0.81,0.36-0.81,0.81c0,0.45,0.36,0.81,0.81,0.81H-341.59z"/>
			</g>
			<g id="Group_493" transform="translate(38.684 44.473)">
				<path id="Path_2125" class="st18" d="M-341.59-49.66c0.45,0,0.81-0.36,0.81-0.81c0-0.45-0.36-0.81-0.81-0.81h-41.83
					c-0.45,0-0.81,0.36-0.81,0.81c0,0.45,0.36,0.81,0.81,0.81H-341.59z"/>
			</g>
			<g id="Group_494" transform="translate(38.684 54.92)">
				<path id="Path_2126" class="st18" d="M-341.59-53.68c0.45,0,0.81-0.36,0.81-0.81c0-0.45-0.36-0.81-0.81-0.81h-41.83
					c-0.45,0-0.81,0.36-0.81,0.81c0,0.45,0.36,0.81,0.81,0.81H-341.59z"/>
			</g>
			<g id="Group_495" transform="translate(38.684 65.662)">
				<path id="Path_2127" class="st18" d="M-341.59-57.82c0.45,0,0.81-0.36,0.81-0.81c0-0.45-0.36-0.81-0.81-0.81h-41.83
					c-0.45,0-0.81,0.36-0.81,0.81c0,0.45,0.36,0.81,0.81,0.81H-341.59z"/>
			</g>
			<g id="Group_496" transform="translate(9.652 9.652)">
				<path id="Path_2128" class="st18" d="M-372.01-32.01c-0.07,0-0.13,0-0.2,0c-0.45-0.02-0.82,0.33-0.84,0.78c0,0.01,0,0.02,0,0.03
					v45.68c0,0.45,0.36,0.81,0.81,0.81c0.01,0,0.01,0,0.02,0h0.1c2.62,0.01,4.75,2.1,4.82,4.72c0.01,0.44,0.37,0.79,0.81,0.79h66.05
					c0.45,0,0.81-0.36,0.81-0.81c0-0.01,0-0.01,0-0.02v-0.1c0-2.66,2.16-4.82,4.82-4.82h0.1c0.22,0.01,0.43-0.08,0.58-0.23
					c0.15-0.15,0.24-0.36,0.24-0.58v-45.67c0-0.45-0.36-0.81-0.81-0.81c0,0,0,0,0,0c-2.66,0-4.82-2.16-4.82-4.82
					c0-0.45-0.36-0.81-0.81-0.81c0,0,0,0,0,0h-66.05c-0.45,0-0.81,0.36-0.81,0.81c0,0.01,0,0.02,0,0.03c0,0.07,0,0.13,0,0.2
					C-367.19-34.17-369.35-32.01-372.01-32.01z M-365.6-36.25h64.51c0.37,2.91,2.67,5.2,5.58,5.58v44.14c-3,0.33-5.38,2.7-5.71,5.71
					h-64.54c-0.44-2.9-2.76-5.14-5.68-5.47v-44.12C-368.33-30.7-365.88-33.15-365.6-36.25L-365.6-36.25z"/>
			</g>
			<g id="Group_497" transform="translate(62.222 73.958)">
				<path id="Path_2129" class="st18" d="M-378.79-55.38c0-4-3.25-7.25-7.25-7.25c-4,0-7.25,3.25-7.25,7.25s3.25,7.25,7.25,7.25l0,0
					C-382.04-48.14-378.8-51.38-378.79-55.38z M-391.67-55.38c0-3.11,2.52-5.63,5.63-5.63c3.11,0,5.63,2.52,5.63,5.63
					c0,3.11-2.52,5.63-5.63,5.63C-389.15-49.75-391.67-52.27-391.67-55.38L-391.67-55.38z"/>
			</g>
		</g>
		<g id="Group_505" transform="translate(172.895)">
			<g id="Group_499" transform="translate(11.701 37.303)">
				<path id="Path_2130" class="st24" d="M-403.46-38.36h-16.78v24.18l8.39-5.49l8.39,5.49L-403.46-38.36z"/>
			</g>
			<g id="Group_500" transform="translate(9.509 35.111)">
				<path id="Path_2131" class="st18" d="M-417.3-10.86l7.65-5.01l7.65,5.01c0.62,0.41,1.46,0.23,1.87-0.39
					c0.14-0.22,0.22-0.48,0.22-0.74v-24.18c0-0.74-0.6-1.35-1.35-1.35h-16.78c-0.74,0-1.35,0.6-1.35,1.35c0,0,0,0,0,0v24.18
					c0,0.74,0.6,1.35,1.35,1.35C-417.78-10.64-417.52-10.71-417.3-10.86L-417.3-10.86z M-416.69-34.82h14.08v20.34l-6.3-4.12
					c-0.45-0.29-1.03-0.29-1.48,0l-6.3,4.12L-416.69-34.82z"/>
			</g>
			<g id="Group_501" transform="translate(2.192 2.192)">
				<path id="Path_2132" class="st19" d="M-413.85-13.76l-1.38,0.88l-0.14,0.09c-1.21,0.77-1.56,2.38-0.79,3.58
					c0.2,0.32,0.47,0.59,0.79,0.79l0.14,0.09l1.38,0.88c0.92,0.59,1.37,1.68,1.14,2.75l-0.35,1.6l-0.04,0.16
					c-0.31,1.4,0.58,2.79,1.97,3.09c0.37,0.08,0.75,0.08,1.12,0l0.16-0.04l1.6-0.35c1.06-0.24,2.16,0.22,2.75,1.14l0.88,1.38
					l0.09,0.14c0.77,1.21,2.37,1.56,3.58,0.79c0.32-0.2,0.59-0.47,0.79-0.79l0.09-0.14l0.88-1.38c0.59-0.92,1.68-1.37,2.75-1.14
					l1.6,0.35l0.16,0.04c1.4,0.31,2.79-0.57,3.09-1.97c0.08-0.37,0.08-0.75,0-1.12l-0.04-0.16l-0.35-1.6
					c-0.24-1.06,0.22-2.16,1.14-2.75l1.38-0.88l0.14-0.09c1.21-0.77,1.56-2.38,0.79-3.58c-0.2-0.32-0.47-0.59-0.79-0.79l-0.14-0.09
					l-1.38-0.88c-0.92-0.59-1.37-1.68-1.14-2.75l0.35-1.6l0.04-0.16c0.31-1.4-0.57-2.78-1.97-3.09c-0.37-0.08-0.75-0.08-1.12,0
					l-0.16,0.04l-1.6,0.35c-1.06,0.24-2.16-0.22-2.75-1.14l-0.88-1.38l-0.09-0.14c-0.77-1.21-2.37-1.56-3.58-0.79
					c-0.32,0.2-0.59,0.47-0.79,0.79l-0.09,0.14l-0.88,1.38c-0.59,0.92-1.68,1.37-2.75,1.14l-1.6-0.35l-0.16-0.04
					c-1.4-0.31-2.78,0.57-3.09,1.97c-0.08,0.37-0.08,0.75,0,1.12l0.04,0.16l0.35,1.6C-412.47-15.45-412.93-14.35-413.85-13.76z"/>
			</g>
			<g id="Group_502" transform="translate(11.742 11.775)">
				<circle id="Ellipse_54" class="st23" cx="-411.89" cy="-20.16" r="6.4"/>
			</g>
			<g id="Group_503" transform="translate(12.741 12.774)">
				<path id="Path_2133" class="st18" d="M-405.13-21.16c0-4.28-3.47-7.75-7.75-7.75c-4.28,0-7.75,3.47-7.75,7.75
					c0,4.28,3.47,7.75,7.75,7.75l0,0C-408.61-13.42-405.14-16.89-405.13-21.16z M-417.94-21.16c0-2.79,2.26-5.05,5.05-5.05
					c2.79,0,5.05,2.26,5.05,5.05c0,2.79-2.26,5.05-5.05,5.05c0,0,0,0,0,0C-415.67-16.11-417.93-18.37-417.94-21.16z"/>
			</g>
			<g id="Group_504">
				<path id="Path_2134" class="st18" d="M-412.38-12.71l-1.52,0.97c-1.84,1.17-2.38,3.61-1.2,5.44c0.31,0.48,0.72,0.9,1.2,1.2
					l1.52,0.97c0.44,0.28,0.66,0.81,0.55,1.32l-0.39,1.76c-0.47,2.13,0.87,4.23,3,4.7c0.56,0.12,1.14,0.12,1.7,0l1.76-0.39
					c0.51-0.11,1.04,0.11,1.32,0.55l0.97,1.52c1.17,1.84,3.61,2.38,5.44,1.2c0.48-0.31,0.9-0.72,1.2-1.2l0.97-1.52
					c0.28-0.44,0.81-0.66,1.32-0.55l1.76,0.39c2.13,0.47,4.23-0.87,4.7-3c0.12-0.56,0.12-1.14,0-1.7l-0.39-1.76
					c-0.11-0.51,0.11-1.04,0.55-1.32l1.52-0.97c1.84-1.17,2.38-3.61,1.2-5.44c-0.31-0.48-0.72-0.9-1.2-1.2l-1.52-0.97
					c-0.44-0.28-0.66-0.81-0.55-1.32l0.39-1.76c0.47-2.13-0.87-4.23-3-4.7c-0.56-0.12-1.14-0.12-1.7,0l-1.76,0.39
					c-0.51,0.11-1.04-0.11-1.32-0.55l-0.97-1.52c-1.17-1.84-3.61-2.37-5.44-1.2c-0.48,0.31-0.89,0.72-1.2,1.2l-0.97,1.52
					c-0.28,0.44-0.81,0.66-1.32,0.55l-1.76-0.39c-2.13-0.47-4.23,0.87-4.7,3c-0.12,0.56-0.12,1.14,0,1.7l0.39,1.76
					C-411.72-13.51-411.94-12.99-412.38-12.71z M-410.93-10.43c1.39-0.89,2.08-2.56,1.73-4.18l-0.39-1.76
					c-0.15-0.67,0.28-1.34,0.95-1.49c0.18-0.04,0.36-0.04,0.54,0l1.76,0.39c1.62,0.35,3.28-0.34,4.18-1.73l0.97-1.52
					c0.37-0.58,1.14-0.75,1.72-0.38c0.15,0.1,0.28,0.23,0.38,0.38l0.97,1.52c0.89,1.39,2.56,2.08,4.18,1.73l1.76-0.39
					c0.67-0.15,1.34,0.28,1.49,0.95c0.04,0.18,0.04,0.36,0,0.54l-0.39,1.76c-0.35,1.62,0.34,3.28,1.73,4.18l1.52,0.97
					c0.58,0.37,0.75,1.14,0.38,1.72c-0.1,0.15-0.23,0.28-0.38,0.38l0,0l-1.52,0.97c-1.39,0.89-2.08,2.56-1.73,4.18l0.39,1.76
					c0.15,0.67-0.28,1.34-0.95,1.49c-0.18,0.04-0.36,0.04-0.54,0l-1.76-0.39c-1.62-0.35-3.28,0.34-4.18,1.73l-0.97,1.52
					c-0.37,0.58-1.14,0.75-1.72,0.38c-0.15-0.1-0.28-0.23-0.38-0.38l-0.97-1.52c-0.73-1.13-1.98-1.82-3.33-1.82
					c-0.28,0-0.57,0.03-0.84,0.09l-1.76,0.39c-0.67,0.15-1.34-0.28-1.49-0.95c-0.04-0.18-0.04-0.36,0-0.54l0.39-1.76
					c0.35-1.62-0.34-3.28-1.73-4.18l-1.52-0.97c-0.58-0.37-0.75-1.14-0.38-1.72c0.1-0.15,0.23-0.28,0.38-0.38L-410.93-10.43z"/>
			</g>
		</g>
		<g id="Group_515" transform="translate(0 75.353)">
			<g id="Group_506" transform="translate(2.192 2.192)">
				<path id="Path_2135" class="st76" d="M-263.04-38.36l-43.48-15.5l-43.48,15.5l43.48,10.26L-263.04-38.36z"/>
			</g>
			<g id="Group_507">
				<path id="Path_2136" class="st18" d="M-304.64-24.59c0.2,0.05,0.42,0.05,0.62,0l43.48-10.27c0.72-0.17,1.17-0.9,1-1.62
					c-0.1-0.45-0.43-0.81-0.86-0.96l-43.48-15.5c-0.29-0.1-0.61-0.1-0.91,0l-43.48,15.5c-0.7,0.25-1.07,1.02-0.82,1.72
					c0.15,0.43,0.52,0.76,0.96,0.86L-304.64-24.59z M-304.33-50.23l38.72,13.8l-38.72,9.14l-38.72-9.14L-304.33-50.23z"/>
			</g>
			<g id="Group_508" transform="translate(40.371 21.548)">
				<path id="Path_2137" class="st76" d="M-326.8-35.67c1.16,0,2.1-0.94,2.1-2.1v-20.18c0-0.46-0.3-0.86-0.74-0.99
					c-9.02-2.59-19.26-2.37-19.26-2.37s-10.24-0.22-19.26,2.37c-0.44,0.13-0.74,0.53-0.74,0.99v20.18c0,1.16,0.94,2.1,2.1,2.1
					H-326.8z"/>
			</g>
			<g id="Group_509" transform="translate(38.18 19.355)">
				<path id="Path_2138" class="st18" d="M-324.61-32.13c1.9,0,3.44-1.55,3.44-3.45v-20.18c0-1.06-0.7-1.99-1.71-2.28
					c-8.96-2.57-18.9-2.43-19.63-2.42c-0.73-0.01-10.67-0.15-19.63,2.42c-1.01,0.3-1.71,1.23-1.71,2.28v20.18
					c0,1.9,1.54,3.44,3.44,3.45L-324.61-32.13z M-361.16-35.58v-19.94c8.65-2.43,18.52-2.25,18.62-2.25c0.02,0,0.04,0,0.06,0
					c0.1,0,9.97-0.18,18.62,2.25v19.94c0,0.41-0.34,0.75-0.75,0.75h-35.8C-360.82-34.83-361.16-35.16-361.16-35.58L-361.16-35.58z"
					/>
			</g>
			<g id="Group_510" transform="translate(21.155 14.62)">
				<path id="Path_2139" class="st18" d="M-350.91-55.95v-2.7h-5.04c-0.74,0-1.35,0.6-1.35,1.35v14.07h2.7v-12.72H-350.91z"/>
			</g>
			<g id="Group_511" transform="translate(19.91 39.696)">
				<path id="Path_2140" class="st24" d="M-354.7-64.07c1.17,0,2.11-0.95,2.11-2.11s-0.95-2.11-2.11-2.11l0,0l0,0
					c-1.17,0-2.11,0.95-2.11,2.11S-355.87-64.07-354.7-64.07z"/>
			</g>
			<g id="Group_512" transform="translate(19.212 45.126)">
				<path id="Path_2141" class="st24" d="M-354-59.23c2.08-0.07,2.48-1.21,2.48-1.21l-0.82-9.88c-0.7,0.92-2.01,1.1-2.93,0.4
					c-0.17-0.13-0.32-0.29-0.45-0.46h0l-0.83,9.95c0,0,0.4,1.14,2.48,1.21L-354-59.23z"/>
			</g>
			<g id="Group_513" transform="translate(17.718 37.504)">
				<path id="Path_2142" class="st18" d="M-349.05-63.99c0-1.91-1.55-3.46-3.46-3.46s-3.46,1.55-3.46,3.46
					c0,1.91,1.55,3.46,3.46,3.46C-350.6-60.53-349.05-62.08-349.05-63.99z M-353.28-63.99c0-0.42,0.34-0.77,0.77-0.77
					c0.42,0,0.77,0.34,0.77,0.77c0,0.42-0.34,0.77-0.77,0.77l0,0C-352.93-63.23-353.27-63.57-353.28-63.99L-353.28-63.99z"/>
			</g>
			<g id="Group_514" transform="translate(17.02 42.934)">
				<path id="Path_2143" class="st18" d="M-351.92-55.7h0.15c2.92-0.09,3.64-1.9,3.71-2.11c0.06-0.18,0.09-0.37,0.07-0.56
					l-0.82-9.88c-0.06-0.74-0.71-1.29-1.45-1.23c-0.38,0.03-0.72,0.22-0.95,0.52c-0.24,0.33-0.71,0.4-1.04,0.16
					c-0.07-0.05-0.13-0.11-0.18-0.18c-0.44-0.6-1.29-0.74-1.89-0.3c-0.32,0.23-0.52,0.58-0.55,0.97l-0.83,9.95
					c-0.02,0.19,0.01,0.38,0.07,0.56C-355.55-57.6-354.83-55.79-351.92-55.7z M-352.36-66c0.34,0.06,0.69,0.06,1.03,0.01l0.61,7.33
					c-0.34,0.19-0.73,0.28-1.12,0.27h-0.01c-0.39,0.01-0.78-0.08-1.12-0.27L-352.36-66z"/>
			</g>
		</g>
	</g>
	<g id="Group_519" transform="translate(1513.63 787.416)">
		<g id="Group_517" transform="translate(1.75 2.196)">
			<path id="Path_2144" class="st23" d="M-374.86-71.16c-10.23-1.56-14.94,4.03-14.94,4.03c-8.71-2.23-14.27,5.15-14.27,5.15h44.74
				C-363.17-66.9-368.71-70.18-374.86-71.16z"/>
		</g>
		<g id="Group_518">
			<path id="Path_2145" class="st18" d="M-388.39-63.63c0.5,0.13,1.03-0.04,1.36-0.43c0.18-0.2,4.42-4.99,13.71-3.57
				c5.78,0.94,10.99,4.01,14.62,8.61l2.21-1.54c-4.03-5.23-9.91-8.72-16.43-9.74c-8.89-1.35-13.93,2.35-15.57,3.88
				c-9.03-1.84-14.68,5.49-14.92,5.82l2.15,1.62C-401.2-59.04-396.14-65.62-388.39-63.63z"/>
		</g>
	</g>
	<g id="Group_520" transform="translate(1377.472 803.112)">
		<path id="Path_2146" class="st18" d="M-218.78-73.94c0.74,0,1.35-0.6,1.35-1.34c0-0.74-0.6-1.35-1.34-1.35c0,0-0.01,0-0.01,0
			h-130.84c-0.74,0-1.35,0.6-1.35,1.34c0,0.74,0.6,1.35,1.34,1.35c0,0,0.01,0,0.01,0H-218.78z"/>
	</g>
</g>
</svg>
