<?xml version="1.0" encoding="utf-8"?>
<!-- Generator: Adobe Illustrator 25.2.1, SVG Export Plug-In . SVG Version: 6.00 Build 0)  -->
<svg version="1.1" id="Laag_1" xmlns="http://www.w3.org/2000/svg" xmlns:xlink="http://www.w3.org/1999/xlink" x="0px" y="0px"
	 viewBox="0 0 98.59 107.81" style="enable-background:new 0 0 98.59 107.81;" xml:space="preserve">
<style type="text/css">
	.st0{enable-background:new    ;}
	.st1{fill:url(#SVGID_1_);}
	.st2{fill:url(#SVGID_2_);}
	.st3{fill:url(#SVGID_3_);}
	.st4{fill:url(#SVGID_4_);}
	.st5{fill:url(#SVGID_5_);}
	.st6{fill:url(#SVGID_6_);}
	.st7{fill:url(#SVGID_7_);}
	.st8{fill:url(#SVGID_8_);}
	.st9{fill:url(#SVGID_9_);}
	.st10{fill:url(#SVGID_10_);}
	.st11{fill:url(#SVGID_11_);}
	.st12{fill:url(#SVGID_12_);}
	.st13{fill:url(#SVGID_13_);}
	.st14{fill:url(#SVGID_14_);}
	.st15{fill:url(#SVGID_15_);}
	.st16{fill:#EBFED1;stroke:#2C2C2C;stroke-width:2;}
	.st17{fill:#A8E533;}
	.st18{fill:#2C2C2C;}
	.st19{fill:#469612;}
	.st20{fill:#FCC4B9;}
	.st21{fill:#EFA89E;}
	.st22{fill:#A1A7B7;}
	.st23{fill:#FFFA7B;}
	.st24{fill:#BFFD6A;}
	.st25{fill:#C9C9C9;}
	.st26{fill:#FFFFFF;}
	.st27{fill:#D6D8ED;}
	.st28{fill:#8B93A0;}
	.st29{fill:#E18F81;}
	.st30{fill:#F96464;}
	.st31{fill:#1C9337;}
	.st32{fill:#147A27;}
	.st33{fill:#6EB42D;}
	.st34{fill:#619B23;}
	.st35{fill:#DBA065;}
	.st36{fill:#C18753;}
	.st37{fill:#FFD243;}
	.st38{fill:#737581;}
	.st39{fill:#EBFED1;}
	.st40{fill:#51545E;}
	.st41{fill:#40434C;}
	.st42{fill:#5E6270;}
	.st43{fill:#892F58;}
	.st44{fill:#231F20;}
	.st45{fill:#CBFD63;}
	.st46{fill:#001B01;}
	.st47{fill:#FFE98D;}
	.st48{fill:#FFD938;}
	.st49{fill:#525252;}
	.st50{fill:#DFE6F2;}
	.st51{fill:#E8A6A0;}
	.st52{fill:#717171;}
	.st53{fill:#21223F;}
	.st54{fill:#D3D5E2;}
	.st55{fill:#DDDDDD;}
	.st56{fill:#C8DDFC;}
	.st57{clip-path:url(#SVGID_17_);}
	.st58{fill:#67E9FF;}
	.st59{fill:#3B1B6D;}
	.st60{fill:#F96262;}
	.st61{fill:#315775;}
	.st62{fill:#DB9561;}
	.st63{fill:#BC7A4D;}
	.st64{clip-path:url(#SVGID_19_);}
	.st65{fill:#4CA934;}
	.st66{fill:#F9F6E5;}
	.st67{fill:#D8D3BC;}
	.st68{fill:#6F6F6D;}
	.st69{fill:#89C433;}
	.st70{fill:#FEFEFE;}
	.st71{fill:#E7E4EA;}
	.st72{fill:#DDD745;}
	.st73{fill:#9ED85B;}
	.st74{fill:#CCCCCA;}
	.st75{fill:#D3D3D3;}
	.st76{fill:#AEAEAE;}
	.st77{fill:#FEFFFF;}
	.st78{fill:#D5CE35;}
	.st79{fill:#EFF1FE;}
	.st80{fill:#BFFD6A;stroke:#2C2C2C;}
	.st81{fill:none;stroke:#2C2C2C;stroke-width:0.695;stroke-linecap:round;stroke-linejoin:round;}
	.st82{fill:#83E700;stroke:#2C2C2C;stroke-width:0.695;stroke-linecap:round;stroke-linejoin:round;}
	.st83{fill:#001B01;stroke:#2C2C2C;}
	.st84{fill:#469612;stroke:#2C2C2C;stroke-width:3;stroke-miterlimit:10;}
	.st85{fill:#7ECE29;}
	.st86{fill:#FFFA7B;stroke:#000000;stroke-width:2.5;}
	.st87{fill:#FFFA7B;stroke:#000000;stroke-width:2;}
</style>
<g id="Group_133" transform="translate(-9.294 -4.184)">
	<path id="Path_169" class="st85" d="M38.7,59.58v16.48c0,2.29-2.26,4.17-5.03,4.17H21.62c-2.76,0-5.03-1.88-5.03-4.17V59.58"/>
	<path id="Path_170" class="st85" d="M82.93,41.18c16.75-15.66-5.27-35.51-5.27-35.51h-1.08c0,0-22.03,19.85-5.28,35.51l5.8,5.26
		L82.93,41.18z"/>
	<path id="Path_171" class="st85" d="M73.33,43.4c-11.25-12.04-25.52,3.78-25.52,3.78v0.77c0,0,14.27,15.83,25.52,3.8l3.78-4.17
		L73.33,43.4z"/>
	<path id="Path_172" class="st85" d="M80.88,43.65c11.25-12.04,25.52,3.79,25.52,3.79v0.78c0,0-14.27,15.82-25.52,3.79l-3.78-4.17
		L80.88,43.65z"/>
	<path id="Path_173" class="st85" d="M14.08,59.58c-1.83,0-3.31-1.48-3.31-3.31c0,0,0,0,0,0l0,0c0-1.83,1.48-3.3,3.31-3.31h27.14
		c1.83,0,3.3,1.48,3.31,3.31l0,0c0,1.83-1.48,3.31-3.3,3.31c0,0,0,0,0,0H14.08z"/>
	<path id="Path_174" class="st46" d="M107.5,46.45c-0.32-0.36-8.03-8.8-16.99-8.8c-0.99,0-1.98,0.11-2.95,0.32
		c2.07-3.06,3.17-6.68,3.13-10.37C90.58,15.47,79.13,5,78.64,4.56c-0.27-0.24-0.62-0.38-0.99-0.38h-1.08
		c-0.37,0-0.72,0.14-0.99,0.38C75.1,5,63.65,15.47,63.54,27.6c-0.04,3.58,0.99,7.1,2.95,10.1c-0.91-0.19-1.84-0.29-2.78-0.29
		c-8.96,0-16.67,8.44-16.99,8.8c-0.24,0.27-0.38,0.62-0.38,0.99v0.77c0,0.36,0.14,0.72,0.38,0.99c0.32,0.36,8.03,8.8,16.99,8.8
		c4.13-0.05,8.03-1.87,10.72-5l1.21-1.33v41.21c0,6.44-1.47,11.1-4.37,13.84c-1.69,1.65-3.97,2.56-6.33,2.54H38.7
		c-2.42,0.12-4.79-0.77-6.52-2.47c-3.25-3.38-3.07-9.15-3.06-9.27V81.7h4.56c3.59,0,6.5-2.53,6.5-5.65v-15h1.04
		c2.64,0,4.78-2.14,4.78-4.78s-2.14-4.78-4.78-4.78h-5.24V38.12c0-0.82-0.66-1.48-1.48-1.48c-0.81,0-1.47,0.66-1.48,1.48v13.37
		H22.28V38.12c0-0.82-0.66-1.48-1.48-1.48c-0.82,0-1.48,0.66-1.48,1.48l0,0v13.37h-5.25c-2.64,0-4.78,2.14-4.78,4.79
		c0,2.64,2.14,4.78,4.78,4.78h1.03v15c0,3.11,2.92,5.65,6.5,5.65h4.55v15.51c-0.01,0.29-0.25,7.07,3.87,11.37
		c2.28,2.3,5.42,3.54,8.66,3.4h26.13c0.03,0,0.14,0.01,0.32,0.01c3.01-0.06,5.89-1.24,8.08-3.3c3.55-3.32,5.35-8.71,5.35-16.04
		V51.68l1.22,1.34c2.69,3.12,6.59,4.94,10.71,4.99c8.96,0,16.67-8.44,16.99-8.79c0.24-0.27,0.38-0.62,0.38-0.99v-0.78
		C107.88,47.08,107.74,46.72,107.5,46.45z M12.25,56.28c0-1.01,0.82-1.83,1.83-1.83h27.14c1.01,0.02,1.81,0.86,1.79,1.87
		c-0.02,0.98-0.81,1.76-1.79,1.79H14.08C13.07,58.1,12.25,57.28,12.25,56.28z M18.07,76.06v-15h19.16v15c0,1.46-1.63,2.69-3.55,2.69
		H21.62C19.69,78.75,18.07,77.52,18.07,76.06z M77.11,7.19c2.07,2.02,10.54,10.89,10.62,20.46c0.04,4.62-1.92,8.81-5.8,12.44
		l-3.35,3.02V26.05c0-0.82-0.66-1.48-1.48-1.48c-0.82,0-1.48,0.66-1.48,1.48v17.07l-3.33-3.02c-3.9-3.65-5.86-7.84-5.82-12.45
		C66.57,18.08,75.05,9.21,77.11,7.19z M63.71,54.8c-6.37,0-12.36-5.39-14.21-7.22c1.85-1.83,7.82-7.22,14.21-7.22
		c3.29,0.06,6.39,1.53,8.53,4.03l1.77,1.96H62.46c-0.82,0-1.48,0.66-1.48,1.48s0.66,1.48,1.48,1.48c0,0,0,0,0,0h11.1l-1.31,1.44
		C70.12,53.26,67,54.74,63.71,54.8z M90.51,55.05c-3.29-0.06-6.4-1.53-8.53-4.03l-1.55-1.71h11.33c0.82,0,1.48-0.66,1.48-1.48
		c0-0.81-0.66-1.47-1.48-1.48H80.43l1.53-1.69c2.14-2.51,5.25-3.99,8.55-4.05c6.37,0,12.36,5.39,14.21,7.22
		C102.87,49.66,96.9,55.05,90.51,55.05L90.51,55.05z"/>
</g>
</svg>
