<?xml version="1.0" encoding="utf-8"?>
<!-- Generator: Adobe Illustrator 25.2.1, SVG Export Plug-In . SVG Version: 6.00 Build 0)  -->
<svg version="1.1" id="Laag_1" xmlns="http://www.w3.org/2000/svg" xmlns:xlink="http://www.w3.org/1999/xlink" x="0px" y="0px"
	 viewBox="0 0 85.84 85.84" style="enable-background:new 0 0 85.84 85.84;" xml:space="preserve">
<style type="text/css">
	.st0{enable-background:new    ;}
	.st1{fill:url(#SVGID_1_);}
	.st2{fill:url(#SVGID_2_);}
	.st3{fill:url(#SVGID_3_);}
	.st4{fill:url(#SVGID_4_);}
	.st5{fill:url(#SVGID_5_);}
	.st6{fill:url(#SVGID_6_);}
	.st7{fill:url(#SVGID_7_);}
	.st8{fill:url(#SVGID_8_);}
	.st9{fill:url(#SVGID_9_);}
	.st10{fill:url(#SVGID_10_);}
	.st11{fill:url(#SVGID_11_);}
	.st12{fill:url(#SVGID_12_);}
	.st13{fill:url(#SVGID_13_);}
	.st14{fill:url(#SVGID_14_);}
	.st15{fill:url(#SVGID_15_);}
	.st16{fill:#EBFED1;stroke:#2C2C2C;stroke-width:2;}
	.st17{fill:#A8E533;}
	.st18{fill:#2C2C2C;}
	.st19{fill:#469612;}
	.st20{fill:#FCC4B9;}
	.st21{fill:#EFA89E;}
	.st22{fill:#A1A7B7;}
	.st23{fill:#FFFA7B;}
	.st24{fill:#BFFD6A;}
	.st25{fill:#C9C9C9;}
	.st26{fill:#FFFFFF;}
	.st27{fill:#D6D8ED;}
	.st28{fill:#8B93A0;}
	.st29{fill:#E18F81;}
	.st30{fill:#F96464;}
	.st31{fill:#1C9337;}
	.st32{fill:#147A27;}
	.st33{fill:#6EB42D;}
	.st34{fill:#619B23;}
	.st35{fill:#DBA065;}
	.st36{fill:#C18753;}
	.st37{fill:#FFD243;}
	.st38{fill:#737581;}
	.st39{fill:#EBFED1;}
	.st40{fill:#51545E;}
	.st41{fill:#40434C;}
	.st42{fill:#5E6270;}
	.st43{fill:#892F58;}
	.st44{fill:#231F20;}
	.st45{fill:#CBFD63;}
	.st46{fill:#001B01;}
	.st47{fill:#FFE98D;}
	.st48{fill:#FFD938;}
	.st49{fill:#525252;}
	.st50{fill:#DFE6F2;}
	.st51{fill:#E8A6A0;}
	.st52{fill:#717171;}
	.st53{fill:#21223F;}
	.st54{fill:#D3D5E2;}
	.st55{fill:#DDDDDD;}
	.st56{fill:#C8DDFC;}
	.st57{clip-path:url(#SVGID_17_);}
	.st58{fill:#67E9FF;}
	.st59{fill:#3B1B6D;}
	.st60{fill:#F96262;}
	.st61{fill:#315775;}
	.st62{fill:#DB9561;}
	.st63{fill:#BC7A4D;}
	.st64{clip-path:url(#SVGID_19_);}
	.st65{fill:#4CA934;}
	.st66{fill:#F9F6E5;}
	.st67{fill:#D8D3BC;}
	.st68{fill:#6F6F6D;}
	.st69{fill:#89C433;}
	.st70{fill:#FEFEFE;}
	.st71{fill:#E7E4EA;}
	.st72{fill:#DDD745;}
	.st73{fill:#9ED85B;}
	.st74{fill:#CCCCCA;}
	.st75{fill:#D3D3D3;}
	.st76{fill:#AEAEAE;}
	.st77{fill:#FEFFFF;}
	.st78{fill:#D5CE35;}
	.st79{fill:#EFF1FE;}
	.st80{fill:#BFFD6A;stroke:#2C2C2C;}
	.st81{fill:none;stroke:#2C2C2C;stroke-width:0.695;stroke-linecap:round;stroke-linejoin:round;}
	.st82{fill:#83E700;stroke:#2C2C2C;stroke-width:0.695;stroke-linecap:round;stroke-linejoin:round;}
	.st83{fill:#001B01;stroke:#2C2C2C;}
	.st84{fill:#469612;stroke:#2C2C2C;stroke-width:3;stroke-miterlimit:10;}
	.st85{fill:#7ECE29;}
	.st86{fill:#FFFA7B;stroke:#000000;stroke-width:2.5;}
	.st87{fill:#FFFA7B;stroke:#000000;stroke-width:2;}
</style>
<g>
	<circle id="Ellipse_46" class="st24" cx="43.34" cy="42.9" r="42.5"/>
	<circle id="Ellipse_47" class="st19" cx="60.34" cy="25.9" r="6.5"/>
	<circle id="Ellipse_48" class="st19" cx="23.34" cy="42.9" r="6.5"/>
	<circle id="Ellipse_49" class="st19" cx="60.34" cy="60.9" r="6.5"/>
	<g id="Group_317" transform="translate(818.16 9.551)">
		<path id="Path_2018" d="M-775.24-9.55c-23.7,0-42.92,19.21-42.92,42.92s19.21,42.92,42.92,42.92c23.7,0,42.92-19.21,42.92-42.92
			c0,0,0,0,0,0C-732.34,9.68-751.54-9.52-775.24-9.55z M-754.81,31.99c-0.05-2.97-0.23-5.93-0.56-8.81
			c1.88-0.67,3.41-2.05,4.28-3.84c9.19,3.1,14.95,7.72,15.86,12.66L-754.81,31.99z M-758.11,43.13c-4.02,0.11-7.26,3.34-7.37,7.37
			c-2.75,0.31-5.55,0.49-8.38,0.53V34.76h16.28C-757.62,37.58-757.8,40.39-758.11,43.13z M-773.85,31.99V15.71
			c2.84,0.04,5.65,0.22,8.38,0.53c0.11,4.02,3.35,7.26,7.37,7.37c0.31,2.75,0.49,5.55,0.53,8.38L-773.85,31.99z M-757.91,20.85
			c-2.66,0-4.81-2.15-4.81-4.81s2.15-4.81,4.81-4.81c2.66,0,4.81,2.15,4.81,4.81C-753.1,18.69-755.25,20.85-757.91,20.85z
			 M-765.04,13.5c-2.88-0.33-5.83-0.51-8.81-0.56V-6.64c4.95,0.91,9.56,6.67,12.66,15.86C-762.99,10.09-764.37,11.63-765.04,13.5
			L-765.04,13.5z M-776.62-6.65v19.59c-4.74,0.06-9.46,0.5-14.13,1.32C-787.92,2.57-782.62-5.55-776.62-6.65z M-776.62,15.7v16.28
			h-10.24c-0.56-2.96-2.81-5.32-5.75-6c0.24-2.93,0.64-5.85,1.2-8.74C-786.54,16.29-781.59,15.77-776.62,15.7L-776.62,15.7z
			 M-794.3,38.18c-2.66,0-4.81-2.15-4.81-4.81s2.15-4.81,4.81-4.81s4.81,2.15,4.81,4.81C-789.5,36.02-791.65,38.18-794.3,38.18z
			 M-795.38,25.88c-3.21,0.46-5.77,2.92-6.37,6.11h-13.5c1.11-5.99,9.36-11.26,20.9-14.09C-794.8,20.44-795.15,23.11-795.38,25.88
			L-795.38,25.88z M-801.75,34.76c0.6,3.19,3.16,5.64,6.37,6.11c0.23,2.77,0.57,5.44,1.03,7.98c-11.54-2.83-19.79-8.1-20.9-14.09
			H-801.75z M-792.61,40.76c2.94-0.68,5.2-3.04,5.75-6h10.23v16.28c-4.96-0.07-9.91-0.58-14.78-1.54
			C-791.97,46.6-792.37,43.68-792.61,40.76L-792.61,40.76z M-776.62,53.81v19.58c-6-1.09-11.3-9.21-14.13-20.9
			C-786.08,53.31-781.36,53.75-776.62,53.81z M-773.85,73.38V53.8c2.97-0.04,5.92-0.23,8.81-0.56c0.67,1.88,2.05,3.41,3.84,4.28
			C-764.29,66.71-768.91,72.47-773.85,73.38z M-762.71,50.7c0-2.66,2.15-4.81,4.81-4.81s4.81,2.15,4.81,4.81
			c0,2.66-2.15,4.81-4.81,4.81C-760.56,55.51-762.71,53.36-762.71,50.7z M-755.37,43.57c0.33-2.89,0.52-5.84,0.56-8.81h19.57
			c-0.91,4.94-6.67,9.56-15.86,12.66C-751.96,45.62-753.49,44.24-755.37,43.57z M-735.96,25.06c-3.07-3.35-8-6.26-14.4-8.41
			c0.02-0.2,0.03-0.41,0.03-0.61c0-4.18-3.39-7.57-7.58-7.58c-0.21,0-0.41,0.01-0.62,0.03c-2.14-6.4-5.05-11.33-8.4-14.4
			C-751.4-2.59-739.27,9.54-735.96,25.06z M-783.58-5.9c-4.45,4.1-8.06,11.43-10.15,20.75c-9.28,2.06-16.64,5.65-20.77,10.13
			C-811.16,9.5-799.06-2.58-783.58-5.9z M-814.5,41.77c4.13,4.48,11.49,8.07,20.77,10.13c2.09,9.32,5.69,16.65,10.15,20.75
			C-799.06,69.32-811.16,57.24-814.5,41.77z M-766.93,72.65c3.35-3.07,6.26-8,8.4-14.4c0.2,0.02,0.41,0.03,0.62,0.03
			c4.18,0,7.57-3.39,7.58-7.58c0-0.21-0.01-0.41-0.03-0.62c6.4-2.15,11.33-5.06,14.4-8.41C-739.28,57.2-751.4,69.33-766.93,72.65z"
			/>
	</g>
</g>
</svg>
