<?xml version="1.0" encoding="utf-8"?>
<!-- Generator: Adobe Illustrator 25.2.1, SVG Export Plug-In . SVG Version: 6.00 Build 0)  -->
<svg version="1.1" id="Laag_1" xmlns="http://www.w3.org/2000/svg" xmlns:xlink="http://www.w3.org/1999/xlink" x="0px" y="0px"
	 viewBox="0 0 39.63 35.22" style="enable-background:new 0 0 39.63 35.22;" xml:space="preserve">
<style type="text/css">
	.st0{enable-background:new    ;}
	.st1{fill:url(#SVGID_1_);}
	.st2{fill:url(#SVGID_2_);}
	.st3{fill:url(#SVGID_3_);}
	.st4{fill:url(#SVGID_4_);}
	.st5{fill:url(#SVGID_5_);}
	.st6{fill:url(#SVGID_6_);}
	.st7{fill:url(#SVGID_7_);}
	.st8{fill:url(#SVGID_8_);}
	.st9{fill:url(#SVGID_9_);}
	.st10{fill:url(#SVGID_10_);}
	.st11{fill:url(#SVGID_11_);}
	.st12{fill:url(#SVGID_12_);}
	.st13{fill:url(#SVGID_13_);}
	.st14{fill:url(#SVGID_14_);}
	.st15{fill:url(#SVGID_15_);}
	.st16{fill:#EBFED1;stroke:#2C2C2C;stroke-width:2;}
	.st17{fill:#A8E533;}
	.st18{fill:#2C2C2C;}
	.st19{fill:#469612;}
	.st20{fill:#FCC4B9;}
	.st21{fill:#EFA89E;}
	.st22{fill:#A1A7B7;}
	.st23{fill:#FFFA7B;}
	.st24{fill:#BFFD6A;}
	.st25{fill:#C9C9C9;}
	.st26{fill:#FFFFFF;}
	.st27{fill:#D6D8ED;}
	.st28{fill:#8B93A0;}
	.st29{fill:#E18F81;}
	.st30{fill:#F96464;}
	.st31{fill:#1C9337;}
	.st32{fill:#147A27;}
	.st33{fill:#6EB42D;}
	.st34{fill:#619B23;}
	.st35{fill:#DBA065;}
	.st36{fill:#C18753;}
	.st37{fill:#FFD243;}
	.st38{fill:#737581;}
	.st39{fill:#EBFED1;}
	.st40{fill:#51545E;}
	.st41{fill:#40434C;}
	.st42{fill:#5E6270;}
	.st43{fill:#892F58;}
	.st44{fill:#231F20;}
	.st45{fill:#CBFD63;}
	.st46{fill:#001B01;}
	.st47{fill:#FFE98D;}
	.st48{fill:#FFD938;}
	.st49{fill:#525252;}
	.st50{fill:#DFE6F2;}
	.st51{fill:#E8A6A0;}
	.st52{fill:#717171;}
	.st53{fill:#21223F;}
	.st54{fill:#D3D5E2;}
	.st55{fill:#DDDDDD;}
	.st56{fill:#C8DDFC;}
	.st57{clip-path:url(#SVGID_17_);}
	.st58{fill:#67E9FF;}
	.st59{fill:#3B1B6D;}
	.st60{fill:#F96262;}
	.st61{fill:#315775;}
	.st62{fill:#DB9561;}
	.st63{fill:#BC7A4D;}
	.st64{clip-path:url(#SVGID_19_);}
	.st65{fill:#4CA934;}
	.st66{fill:#F9F6E5;}
	.st67{fill:#D8D3BC;}
	.st68{fill:#6F6F6D;}
	.st69{fill:#89C433;}
	.st70{fill:#FEFEFE;}
	.st71{fill:#E7E4EA;}
	.st72{fill:#DDD745;}
	.st73{fill:#9ED85B;}
	.st74{fill:#CCCCCA;}
	.st75{fill:#D3D3D3;}
	.st76{fill:#AEAEAE;}
	.st77{fill:#FEFFFF;}
	.st78{fill:#D5CE35;}
	.st79{fill:#EFF1FE;}
	.st80{fill:#BFFD6A;stroke:#2C2C2C;}
	.st81{fill:none;stroke:#2C2C2C;stroke-width:0.695;stroke-linecap:round;stroke-linejoin:round;}
	.st82{fill:#83E700;stroke:#2C2C2C;stroke-width:0.695;stroke-linecap:round;stroke-linejoin:round;}
	.st83{fill:#001B01;stroke:#2C2C2C;}
	.st84{fill:#469612;stroke:#2C2C2C;stroke-width:3;stroke-miterlimit:10;}
	.st85{fill:#7ECE29;}
	.st86{fill:#FFFA7B;stroke:#000000;stroke-width:2.5;}
	.st87{fill:#FFFA7B;stroke:#000000;stroke-width:2;}
</style>
<path id="file-signature-solid_1_" class="st25" d="M15.01,29.18c-0.12-0.28-0.4-0.45-0.7-0.45c-0.29,0-0.56,0.16-0.69,0.43
	l-0.53,1.06c-0.27,0.54-0.93,0.76-1.48,0.49c-0.26-0.13-0.46-0.36-0.55-0.64L9.91,26.6l-0.73,2.19c-0.41,1.21-1.54,2.03-2.82,2.03
	H5.5c-0.61,0-1.1-0.49-1.1-1.1s0.49-1.1,1.1-1.1l0,0h0.85c0.33,0,0.63-0.21,0.73-0.53l1.25-3.76c0.29-0.87,1.22-1.33,2.09-1.04
	c0.49,0.16,0.88,0.55,1.04,1.04l0.95,2.86c1.37-1.02,3.3-0.73,4.32,0.63c0.08,0.11,0.15,0.22,0.22,0.34
	c0.12,0.25,0.37,0.41,0.64,0.43v-5.65l8.81-8.74v-3.2h-9.35c-0.91,0-1.65-0.74-1.65-1.65V0H1.65C0.74,0,0,0.73,0,1.64
	c0,0,0,0.01,0,0.01v31.92c0,0.91,0.73,1.65,1.64,1.65c0,0,0.01,0,0.01,0h23.12c0.91,0,1.65-0.73,1.65-1.64c0,0,0-0.01,0-0.01v-2.75
	l-8.81-0.01C16.51,30.8,15.5,30.17,15.01,29.18z M26.42,8.39c0-0.44-0.17-0.85-0.48-1.16L19.2,0.48C18.89,0.17,18.47,0,18.03,0
	h-0.42v8.81h8.81V8.39z M19.82,23.87v4.75h4.75l11.12-11.2l-4.67-4.67L19.82,23.87z M39.12,11.51l-2.2-2.19
	c-0.68-0.68-1.79-0.68-2.48,0l-1.88,1.88l4.67,4.67l1.88-1.88C39.8,13.31,39.8,12.2,39.12,11.51
	C39.11,11.51,39.11,11.51,39.12,11.51L39.12,11.51z"/>
</svg>
