<?xml version="1.0" encoding="utf-8"?>
<!-- Generator: Adobe Illustrator 25.2.1, SVG Export Plug-In . SVG Version: 6.00 Build 0)  -->
<svg version="1.1" id="Laag_1" xmlns="http://www.w3.org/2000/svg" xmlns:xlink="http://www.w3.org/1999/xlink" x="0px" y="0px"
	 viewBox="0 0 35.98 35.98" style="enable-background:new 0 0 35.98 35.98;" xml:space="preserve">
<style type="text/css">
	.st0{enable-background:new    ;}
	.st1{fill:url(#SVGID_1_);}
	.st2{fill:url(#SVGID_2_);}
	.st3{fill:url(#SVGID_3_);}
	.st4{fill:url(#SVGID_4_);}
	.st5{fill:url(#SVGID_5_);}
	.st6{fill:url(#SVGID_6_);}
	.st7{fill:url(#SVGID_7_);}
	.st8{fill:url(#SVGID_8_);}
	.st9{fill:url(#SVGID_9_);}
	.st10{fill:url(#SVGID_10_);}
	.st11{fill:url(#SVGID_11_);}
	.st12{fill:url(#SVGID_12_);}
	.st13{fill:url(#SVGID_13_);}
	.st14{fill:url(#SVGID_14_);}
	.st15{fill:url(#SVGID_15_);}
	.st16{fill:#EBFED1;stroke:#2C2C2C;stroke-width:2;}
	.st17{fill:#A8E533;}
	.st18{fill:#2C2C2C;}
	.st19{fill:#469612;}
	.st20{fill:#FCC4B9;}
	.st21{fill:#EFA89E;}
	.st22{fill:#A1A7B7;}
	.st23{fill:#FFFA7B;}
	.st24{fill:#BFFD6A;}
	.st25{fill:#C9C9C9;}
	.st26{fill:#FFFFFF;}
	.st27{fill:#D6D8ED;}
	.st28{fill:#8B93A0;}
	.st29{fill:#E18F81;}
	.st30{fill:#F96464;}
	.st31{fill:#1C9337;}
	.st32{fill:#147A27;}
	.st33{fill:#6EB42D;}
	.st34{fill:#619B23;}
	.st35{fill:#DBA065;}
	.st36{fill:#C18753;}
	.st37{fill:#FFD243;}
	.st38{fill:#737581;}
	.st39{fill:#EBFED1;}
	.st40{fill:#51545E;}
	.st41{fill:#40434C;}
	.st42{fill:#5E6270;}
	.st43{fill:#892F58;}
	.st44{fill:#231F20;}
	.st45{fill:#CBFD63;}
	.st46{fill:#001B01;}
	.st47{fill:#FFE98D;}
	.st48{fill:#FFD938;}
	.st49{fill:#525252;}
	.st50{fill:#DFE6F2;}
	.st51{fill:#E8A6A0;}
	.st52{fill:#717171;}
	.st53{fill:#21223F;}
	.st54{fill:#D3D5E2;}
	.st55{fill:#DDDDDD;}
	.st56{fill:#C8DDFC;}
	.st57{clip-path:url(#SVGID_17_);}
	.st58{fill:#67E9FF;}
	.st59{fill:#3B1B6D;}
	.st60{fill:#F96262;}
	.st61{fill:#315775;}
	.st62{fill:#DB9561;}
	.st63{fill:#BC7A4D;}
	.st64{clip-path:url(#SVGID_19_);}
	.st65{fill:#4CA934;}
	.st66{fill:#F9F6E5;}
	.st67{fill:#D8D3BC;}
	.st68{fill:#6F6F6D;}
	.st69{fill:#89C433;}
	.st70{fill:#FEFEFE;}
	.st71{fill:#E7E4EA;}
	.st72{fill:#DDD745;}
	.st73{fill:#9ED85B;}
	.st74{fill:#CCCCCA;}
	.st75{fill:#D3D3D3;}
	.st76{fill:#AEAEAE;}
	.st77{fill:#FEFFFF;}
	.st78{fill:#D5CE35;}
	.st79{fill:#EFF1FE;}
	.st80{fill:#BFFD6A;stroke:#2C2C2C;}
	.st81{fill:none;stroke:#2C2C2C;stroke-width:0.695;stroke-linecap:round;stroke-linejoin:round;}
	.st82{fill:#83E700;stroke:#2C2C2C;stroke-width:0.695;stroke-linecap:round;stroke-linejoin:round;}
	.st83{fill:#001B01;stroke:#2C2C2C;}
	.st84{fill:#469612;stroke:#2C2C2C;stroke-width:3;stroke-miterlimit:10;}
	.st85{fill:#7ECE29;}
	.st86{fill:#FFFA7B;stroke:#000000;stroke-width:2.5;}
	.st87{fill:#FFFA7B;stroke:#000000;stroke-width:2;}
</style>
<path id="Icon_awesome-whatsapp" class="st19" d="M30.59,5.22c-6.97-6.96-18.26-6.96-25.23,0c-5.7,5.71-6.87,14.53-2.84,21.52
	L0,35.98l9.45-2.48c2.61,1.42,5.54,2.17,8.52,2.17l0,0c9.88,0,17.92-7.96,18.01-17.83C35.93,13.09,34,8.55,30.59,5.22z M17.98,32.65
	c-2.65,0.01-5.26-0.7-7.54-2.05l-0.53-0.32L4.3,31.75l1.48-5.47l-0.35-0.56C1.17,18.71,3.4,9.58,10.41,5.32s16.14-2.03,20.4,4.98
	c1.38,2.27,2.13,4.88,2.16,7.54c-0.09,8.21-6.77,14.83-14.99,14.83L17.98,32.65z M26.11,21.55c-0.44-0.22-2.64-1.3-3.04-1.45
	c-0.41-0.15-0.71-0.22-1,0.22c-0.3,0.45-1.15,1.45-1.42,1.75s-0.53,0.34-0.96,0.11c-2.57-1.03-4.71-2.9-6.07-5.31
	c-0.46-0.79,0.46-0.73,1.31-2.43c0.12-0.25,0.1-0.54-0.04-0.78c-0.11-0.22-1-2.42-1.37-3.31c-0.37-0.89-0.73-0.75-1-0.76
	c-0.27-0.02-0.55-0.02-0.85-0.02c-0.46,0.01-0.89,0.21-1.19,0.55c-1.02,0.97-1.58,2.31-1.56,3.72c0.14,1.69,0.77,3.3,1.82,4.64
	c1.91,2.86,4.53,5.18,7.61,6.73c1.62,0.94,3.49,1.33,5.35,1.12c1.26-0.25,2.35-1.02,3.01-2.12c0.29-0.67,0.38-1.41,0.26-2.12
	c-0.1-0.19-0.41-0.31-0.84-0.52L26.11,21.55z"/>
</svg>
