<?xml version="1.0" encoding="utf-8"?>
<!-- Generator: Adobe Illustrator 25.2.1, SVG Export Plug-In . SVG Version: 6.00 Build 0)  -->
<svg version="1.1" id="Laag_1" xmlns="http://www.w3.org/2000/svg" xmlns:xlink="http://www.w3.org/1999/xlink" x="0px" y="0px"
	 viewBox="0 0 247.24 165.32" style="enable-background:new 0 0 247.24 165.32;" xml:space="preserve">
<style type="text/css">
	.st0{enable-background:new    ;}
	.st1{fill:url(#SVGID_1_);}
	.st2{fill:url(#SVGID_2_);}
	.st3{fill:url(#SVGID_3_);}
	.st4{fill:url(#SVGID_4_);}
	.st5{fill:url(#SVGID_5_);}
	.st6{fill:url(#SVGID_6_);}
	.st7{fill:url(#SVGID_7_);}
	.st8{fill:url(#SVGID_8_);}
	.st9{fill:url(#SVGID_9_);}
	.st10{fill:url(#SVGID_10_);}
	.st11{fill:url(#SVGID_11_);}
	.st12{fill:url(#SVGID_12_);}
	.st13{fill:url(#SVGID_13_);}
	.st14{fill:url(#SVGID_14_);}
	.st15{fill:url(#SVGID_15_);}
	.st16{fill:#EBFED1;stroke:#2C2C2C;stroke-width:2;}
	.st17{fill:#A8E533;}
	.st18{fill:#2C2C2C;}
	.st19{fill:#469612;}
	.st20{fill:#FCC4B9;}
	.st21{fill:#EFA89E;}
	.st22{fill:#A1A7B7;}
	.st23{fill:#FFFA7B;}
	.st24{fill:#BFFD6A;}
	.st25{fill:#C9C9C9;}
	.st26{fill:#FFFFFF;}
	.st27{fill:#D6D8ED;}
	.st28{fill:#8B93A0;}
	.st29{fill:#E18F81;}
	.st30{fill:#F96464;}
	.st31{fill:#1C9337;}
	.st32{fill:#147A27;}
	.st33{fill:#6EB42D;}
	.st34{fill:#619B23;}
	.st35{fill:#DBA065;}
	.st36{fill:#C18753;}
	.st37{fill:#FFD243;}
	.st38{fill:#737581;}
	.st39{fill:#EBFED1;}
	.st40{fill:#51545E;}
	.st41{fill:#40434C;}
	.st42{fill:#5E6270;}
	.st43{fill:#892F58;}
	.st44{fill:#231F20;}
	.st45{fill:#CBFD63;}
	.st46{fill:#001B01;}
	.st47{fill:#FFE98D;}
	.st48{fill:#FFD938;}
	.st49{fill:#525252;}
	.st50{fill:#DFE6F2;}
	.st51{fill:#E8A6A0;}
	.st52{fill:#717171;}
	.st53{fill:#21223F;}
	.st54{fill:#D3D5E2;}
	.st55{fill:#DDDDDD;}
	.st56{fill:#C8DDFC;}
	.st57{clip-path:url(#SVGID_17_);}
	.st58{fill:#67E9FF;}
	.st59{fill:#3B1B6D;}
	.st60{fill:#F96262;}
	.st61{fill:#315775;}
	.st62{fill:#DB9561;}
	.st63{fill:#BC7A4D;}
	.st64{clip-path:url(#SVGID_19_);}
	.st65{fill:#4CA934;}
	.st66{fill:#F9F6E5;}
	.st67{fill:#D8D3BC;}
	.st68{fill:#6F6F6D;}
	.st69{fill:#89C433;}
	.st70{fill:#FEFEFE;}
	.st71{fill:#E7E4EA;}
	.st72{fill:#DDD745;}
	.st73{fill:#9ED85B;}
	.st74{fill:#CCCCCA;}
	.st75{fill:#D3D3D3;}
	.st76{fill:#AEAEAE;}
	.st77{fill:#FEFFFF;}
	.st78{fill:#D5CE35;}
	.st79{fill:#EFF1FE;}
	.st80{fill:#BFFD6A;stroke:#2C2C2C;}
	.st81{fill:none;stroke:#2C2C2C;stroke-width:0.695;stroke-linecap:round;stroke-linejoin:round;}
	.st82{fill:#83E700;stroke:#2C2C2C;stroke-width:0.695;stroke-linecap:round;stroke-linejoin:round;}
	.st83{fill:#001B01;stroke:#2C2C2C;}
	.st84{fill:#469612;stroke:#2C2C2C;stroke-width:3;stroke-miterlimit:10;}
	.st85{fill:#7ECE29;}
	.st86{fill:#FFFA7B;stroke:#000000;stroke-width:2.5;}
	.st87{fill:#FFFA7B;stroke:#000000;stroke-width:2;}
</style>
<g>
	<g id="Group_983" transform="translate(-830.891 -232.934)">
		<path id="Path_2773" class="st26" d="M932.25,300.25l16.54,21.31v-21.31h2.54c4.33,0,7.84-3.51,7.84-7.84c0,0,0,0,0,0v-49.44
			c0-4.33-3.51-7.84-7.84-7.84h-110.4c-4.33,0-7.84,3.51-7.84,7.84l0,0v49.44c0,4.33,3.51,7.84,7.84,7.84L932.25,300.25z"/>
		<g id="Group_981" transform="translate(830.891 232.934)">
			<path id="Path_2774" class="st18" d="M126.06,60.11c-0.01,0.04-0.02,0.09-0.02,0.13c0,0.01,0,0.02,0,0.03
				C126.03,60.53,126.06,60.14,126.06,60.11z"/>
			<path id="Path_2775" class="st18" d="M123.84,64c0.14-0.1,0.05-0.03-0.07,0.04C123.76,64.05,123.78,64.04,123.84,64z"/>
			<path id="Path_2776" class="st18" d="M125.71,61.53c-0.02,0.05-0.05,0.1-0.07,0.14C125.62,61.73,125.62,61.72,125.71,61.53z"/>
			<path id="Path_2778" class="st18" d="M7.83,64.68l-0.06-0.02C7.84,64.68,8.19,64.86,7.83,64.68z"/>
			<path id="Path_2779" class="st18" d="M115.7,88.63l3.76-1.56l-3.76-4.84V88.63z"/>
			<path id="Path_2780" class="st18" d="M121.26,65.06l-0.18,0.04C121.26,65.06,121.29,65.06,121.26,65.06z"/>
			<path id="Path_2781" class="st18" d="M121.08,4.42c0.04,0.01,0.09,0.02,0.13,0.02h0.03C121.49,4.46,121.1,4.43,121.08,4.42z"/>
			<path id="Path_2782" class="st18" d="M126.04,9.28c-0.02-0.13-0.02-0.1-0.01-0.02C126.05,9.38,126.07,9.49,126.04,9.28z"/>
			<path id="Path_2783" class="st18" d="M123.75,5.45l0.12,0.1C124.06,5.65,123.77,5.47,123.75,5.45z"/>
			<path id="Path_2784" class="st18" d="M6.64,64C6.83,64.13,6.71,64.04,6.64,64C6.57,63.94,6.53,63.92,6.64,64z"/>
			<path id="Path_2785" class="st18" d="M122.5,4.77c0.05,0.02,0.1,0.05,0.15,0.07C122.69,4.87,122.67,4.86,122.5,4.77z"/>
			<path id="Path_2786" class="st18" d="M124.96,6.64C124.88,6.53,124.9,6.57,124.96,6.64C125,6.71,125.09,6.83,124.96,6.64z"/>
			<path id="Path_2788" class="st18" d="M5.55,62.91l-0.1-0.12C5.48,62.82,5.64,63.1,5.55,62.91z"/>
			<path id="Path_2789" class="st18" d="M9.16,4.45l0.09-0.01C9.62,4.37,9.24,4.45,9.16,4.45z"/>
			<path id="Path_2790" class="st18" d="M7.84,2.2c0,1.22,0.99,2.2,2.2,2.2c1.22,0,2.2-0.99,2.2-2.2c0-1.22-0.99-2.2-2.2-2.2
				C8.83,0.02,7.86,1,7.84,2.2z"/>
			<path id="Path_2793" class="st18" d="M117.9,69.52c0.75,0,1.48,0,2.2-0.02v-2.18L117.9,69.52z"/>
			<path id="Path_2794" class="st18" d="M101.36,69.52l-1.56-0.64l0.5,0.64H101.36L101.36,69.52z"/>
			<path id="Path_2795" class="st18" d="M4.82,61.64c0.06,0.15,0.03,0.07-0.01-0.05C4.78,61.55,4.78,61.54,4.82,61.64z"/>
			<path id="Path_2796" class="st18" d="M4.45,60.36c0-0.04-0.01-0.08-0.01-0.13L4.43,60.2C4.38,59.95,4.45,60.34,4.45,60.36z"/>
			<path id="Path_2797" class="st18" d="M6.55,5.6c0.02-0.01,0.04-0.03,0.06-0.04S6.65,5.52,6.67,5.5C6.85,5.34,6.57,5.59,6.55,5.6z
				"/>
			<path id="Path_2798" class="st18" d="M4.44,9.32c0-0.01,0.01-0.03,0.01-0.04c0-0.04,0.01-0.08,0.01-0.12
				C4.45,9.18,4.38,9.57,4.44,9.32z"/>
			<path id="Path_2799" class="st18" d="M130.48,34.26V12.89c0-1.98,0.15-4.08-0.5-5.98c-1.44-4.19-5.4-6.98-9.83-6.91H10.04
				c1.22,0,2.2,0.98,2.2,2.2s-0.98,2.2-2.2,2.2c0,0,0,0-0.01,0h108.49c0.64,0,1.27-0.01,1.91,0c0.26,0,0.51,0.03,0.76,0.04
				c-0.04-0.01-0.09-0.01-0.13-0.02c0.02,0,0.41,0.04,0.16,0.02h-0.03c0.04,0.01,0.08,0.01,0.13,0.02c0.2,0.04,0.39,0.08,0.58,0.13
				c0.16,0.04,0.32,0.09,0.48,0.15c0.1,0.03,0.2,0.08,0.25,0.1c-0.05-0.02-0.1-0.05-0.15-0.07c0.18,0.09,0.2,0.09,0.15,0.07
				c0.28,0.13,0.55,0.27,0.81,0.43c0.14,0.09,0.27,0.2,0.41,0.27l0.01,0l-0.12-0.1c0.02,0.02,0.31,0.2,0.12,0.1
				c0.02,0.02,0.05,0.04,0.07,0.06c0.27,0.23,0.53,0.48,0.77,0.74c0.07,0.08,0.14,0.17,0.22,0.25c0.01,0.01,0.02,0.02,0.03,0.03
				c-0.05-0.07-0.07-0.1,0.01,0c0.13,0.19,0.05,0.06-0.01,0c0.06,0.08,0.14,0.22,0.17,0.25c0.19,0.3,0.37,0.62,0.52,0.94l0.02,0.03
				c-0.08-0.25,0.14,0.28,0,0c0.01,0.02,0.01,0.04,0.02,0.06c0.06,0.16,0.11,0.32,0.16,0.48c0.05,0.16,0.09,0.33,0.13,0.49
				c0.02,0.08,0.04,0.17,0.05,0.25c0,0.02,0.01,0.07,0.02,0.12c-0.01-0.08-0.01-0.11,0.01,0.02c0.03,0.21,0.01,0.09-0.01-0.02
				c0.01,0.1,0.03,0.28,0.03,0.33c0.01,0.15,0.01,0.29,0.01,0.44v0.02c0,0.14,0,0.28,0,0.41v47.92c0,0.36,0,0.73,0,1.09
				c0,0.26-0.03,0.51-0.04,0.76c0.01-0.04,0.01-0.09,0.02-0.13c0,0.02-0.04,0.41-0.02,0.16c0-0.01,0-0.02,0-0.03
				c-0.01,0.04-0.01,0.08-0.02,0.13c-0.04,0.2-0.08,0.39-0.13,0.58c-0.04,0.16-0.09,0.32-0.15,0.48c-0.03,0.09-0.07,0.19-0.09,0.24
				c0.02-0.05,0.05-0.1,0.07-0.14c-0.09,0.18-0.09,0.2-0.07,0.14c-0.14,0.3-0.3,0.6-0.48,0.88c-0.09,0.14-0.19,0.27-0.28,0.41
				c0.02-0.03,0.03-0.06,0.05-0.08c-0.03,0.04-0.07,0.1-0.11,0.15c-0.23,0.27-0.49,0.52-0.75,0.76c-0.05,0.04-0.26,0.21-0.29,0.23
				c0.11-0.07,0.21-0.14,0.07-0.04c-0.06,0.04-0.08,0.05-0.07,0.04l-0.18,0.12c-0.3,0.19-0.62,0.37-0.94,0.52l-0.03,0.02
				c0.25-0.08-0.28,0.14,0,0l-0.06,0.02c-0.16,0.06-0.32,0.11-0.48,0.16c-0.27,0.08-0.54,0.13-0.82,0.19c0.03-0.01,0,0-0.18,0.04
				l0.18-0.04c-0.04,0.01-0.17,0.03-0.29,0.03c-0.18,0.01-0.35,0.02-0.53,0.02c-0.1,0-0.19,0-0.29,0h-2.25
				c-1.21,0.02-2.18,0.99-2.2,2.2v14.91l3.76,4.84l-3.76,1.56v-6.4l-0.33-0.42l-7.79-10.03l-3.13-4.03
				c-0.49-0.64-0.96-1.35-1.51-1.94c-0.84-0.9-2.33-0.69-3.46-0.69H10.76c-0.24,0-0.47,0-0.71,0c-0.09,0-0.18,0-0.27,0
				c-0.2-0.01-0.41-0.03-0.61-0.04c0.45,0.03,0.02,0-0.18-0.05c-0.33-0.07-0.66-0.17-0.98-0.28c-0.06-0.02-0.11-0.04-0.17-0.06
				c0.36,0.18,0,0-0.06-0.02l0.06,0.02l0,0c-0.17-0.09-0.35-0.17-0.52-0.27c-0.14-0.08-0.29-0.17-0.43-0.26
				c-0.04-0.02-0.17-0.11-0.25-0.17c0.07,0.05,0.2,0.14,0,0.01c-0.11-0.07-0.08-0.06,0-0.01c-0.01-0.01-0.03-0.02-0.03-0.02
				c-0.08-0.07-0.17-0.14-0.25-0.22c-0.14-0.13-0.28-0.26-0.41-0.4c-0.11-0.12-0.22-0.24-0.33-0.37c-0.02-0.02-0.04-0.05-0.06-0.07
				c0.09,0.19-0.08-0.09-0.1-0.12c0.03,0.04,0.07,0.08,0.1,0.12v-0.01c-0.16-0.34-0.43-0.65-0.6-0.99
				c-0.02-0.05-0.11-0.24-0.14-0.32c0.04,0.12,0.07,0.2,0.01,0.05c-0.04-0.1-0.03-0.1-0.01-0.05c-0.03-0.09-0.07-0.21-0.08-0.24
				c-0.11-0.37-0.21-0.75-0.28-1.12c0,0.04,0.01,0.08,0.01,0.13c0-0.02-0.07-0.41-0.02-0.16l0.01,0.03c0-0.04-0.01-0.09-0.01-0.13
				c-0.01-0.18-0.02-0.35-0.02-0.53c0-0.04,0-0.07,0-0.11c0-0.14,0-0.28,0-0.42V10.56c0-0.16,0-0.32,0-0.48
				c0-0.22,0.01-0.44,0.02-0.65c0-0.05,0.01-0.09,0.01-0.14c0,0.01,0,0.03-0.01,0.04C4.38,9.57,4.46,9.18,4.46,9.16
				c0,0.04-0.01,0.08-0.01,0.12C4.48,9.13,4.5,8.97,4.54,8.82c0.05-0.19,0.1-0.38,0.16-0.57c0.03-0.08,0.06-0.16,0.08-0.24
				c0-0.01,0.01-0.04,0.03-0.07C4.79,7.97,4.79,7.97,4.82,7.88c0.08-0.21,0.02-0.05-0.02,0.06c0.03-0.07,0.12-0.28,0.15-0.32
				C5.04,7.44,5.14,7.27,5.23,7.1C5.32,6.96,5.42,6.82,5.5,6.69c0.02-0.03,0.03-0.04,0.04-0.06c-0.21,0.24,0.12-0.2,0,0l0.02-0.02
				C5.77,6.35,6,6.11,6.24,5.88c0.12-0.11,0.25-0.22,0.38-0.33C6.59,5.57,6.57,5.59,6.55,5.6c0.02-0.01,0.3-0.26,0.12-0.09
				C6.65,5.52,6.63,5.54,6.61,5.56c0.05-0.03,0.1-0.07,0.14-0.1c0.3-0.2,0.61-0.38,0.93-0.54C7.76,4.88,7.83,4.85,7.9,4.82
				L7.77,4.86C7.93,4.81,8.09,4.75,8.25,4.7C8.57,4.6,8.9,4.51,9.24,4.45l0.02,0L9.17,4.46c0.07-0.01,0.45-0.08,0.09-0.01
				c0.06-0.01,0.11-0.01,0.17-0.02c0.21-0.02,0.41-0.02,0.62-0.02c-1.22,0-2.2-0.98-2.2-2.2S8.82,0,10.04,0c0,0,0,0,0.01,0
				C4.51,0.07,0.05,4.56,0,10.09c-0.01,1.25,0,2.49,0,3.74V58.8c0,0.46-0.01,0.93,0.03,1.39c0.25,3.05,1.85,5.84,4.36,7.59
				c3.04,2.14,6.79,1.75,10.29,1.75h85.61l-0.5-0.64l1.56,0.64h-1.06l5.07,6.53l8.93,11.5l2.04,2.63c0.53,0.68,1.69,0.76,2.4,0.46
				c0.81-0.34,1.34-1.13,1.35-2.01V69.5c-0.72,0.03-1.45,0.02-2.2,0.02l2.2-2.2v2.18c1.53-0.01,3.04-0.3,4.46-0.88
				c3.01-1.34,5.16-4.09,5.74-7.33c0.2-1.73,0.25-3.48,0.17-5.22L130.48,34.26L130.48,34.26z"/>
			<path id="Path_2801" class="st18" d="M4.82,7.88C4.78,7.97,4.78,7.97,4.8,7.93C4.84,7.83,4.9,7.66,4.82,7.88z"/>
		</g>
		<g id="Group_982" transform="translate(878.14 285.167)">
			<circle id="Ellipse_125" class="st45" cx="29.08" cy="-17.47" r="5.55"/>
			<circle id="Ellipse_126" class="st45" cx="51.27" cy="-17.47" r="5.55"/>
			<circle id="Ellipse_127" class="st45" cx="-15.28" cy="-17.47" r="5.55"/>
			<circle id="Ellipse_128" class="st45" cx="6.9" cy="-17.47" r="5.55"/>
		</g>
	</g>
	<g id="Group_984" transform="translate(258.731 77)">
		<path id="Path_2773-2" class="st26" d="M-84.89,33.38l-16.54,21.31V33.38h-2.54c-4.33,0-7.84-3.51-7.84-7.83v-49.44
			c0-4.33,3.51-7.84,7.84-7.84l0,0l84.57,0.88c4.33,0,7.84,3.51,7.84,7.84v49.44c0,4.33-3.51,7.84-7.84,7.84L-84.89,33.38z"/>
		<g id="Group_981-2" transform="translate(0)">
			<path id="Path_2774-2" class="st18" d="M-109.59,26.18c0.01,0.04,0.02,0.09,0.02,0.13c0,0.01,0,0.02,0,0.03
				C-109.55,26.59-109.59,26.2-109.59,26.18z"/>
			<path id="Path_2775-2" class="st18" d="M-107.37,30.06c-0.14-0.1-0.05-0.03,0.07,0.04C-107.29,30.11-107.31,30.1-107.37,30.06z"
				/>
			<path id="Path_2776-2" class="st18" d="M-109.24,27.6c0.02,0.05,0.05,0.1,0.07,0.14C-109.15,27.79-109.15,27.78-109.24,27.6z"/>
			<path id="Path_2779-2" class="st18" d="M-99.23,54.69l-3.76-1.56l3.76-4.84V54.69z"/>
			<path id="Path_2780-2" class="st18" d="M-104.78,31.13l0.18,0.04C-104.78,31.13-104.82,31.12-104.78,31.13z"/>
			<path id="Path_2781-2" class="st18" d="M-104.6-29.51c-0.04,0.01-0.09,0.02-0.13,0.02h-0.03
				C-105.02-29.48-104.62-29.51-104.6-29.51z"/>
			<path id="Path_2782-2" class="st18" d="M-109.57-24.65c0.02-0.13,0.02-0.1,0.01-0.02C-109.58-24.56-109.6-24.44-109.57-24.65z"/>
			<path id="Path_2783-2" class="st18" d="M-107.28-28.48l-0.12,0.1C-107.59-28.28-107.3-28.47-107.28-28.48z"/>
			<path id="Path_2785-2" class="st18" d="M-106.02-29.16c-0.05,0.02-0.1,0.05-0.15,0.07C-106.22-29.07-106.2-29.08-106.02-29.16z"
				/>
			<path id="Path_2786-2" class="st18" d="M-108.48-27.29C-108.41-27.4-108.43-27.37-108.48-27.29
				C-108.53-27.23-108.62-27.1-108.48-27.29z"/>
			<path id="Path_2790-2" class="st18" d="M-19.33-31.73c0,1.22-0.99,2.2-2.2,2.2c-1.22,0-2.2-0.99-2.2-2.2c0-1.22,0.99-2.2,2.2-2.2
				C-20.33-33.91-19.35-32.94-19.33-31.73z"/>
			<path id="Path_2793-2" class="st18" d="M-101.43,35.58c-0.75,0-1.48,0-2.2-0.02v-2.18L-101.43,35.58z"/>
			<path id="Path_2794-2" class="st18" d="M-84.89,35.58l1.56-0.64l-0.5,0.64H-84.89L-84.89,35.58z"/>
			<path id="Path_2799-2" class="st18" d="M-114.01,0.32v-21.36c0-1.98-0.15-4.08,0.5-5.98c1.44-4.19,5.4-6.98,9.83-6.91h82.15
				c-1.22,0-2.2,0.98-2.2,2.2c0,1.22,0.98,2.2,2.2,2.2c0,0,0,0,0.01,0h-80.52c-0.64,0-1.27-0.01-1.91,0c-0.26,0-0.51,0.03-0.76,0.04
				c0.04-0.01,0.09-0.01,0.13-0.02c-0.02,0-0.41,0.04-0.16,0.02h0.03c-0.04,0.01-0.08,0.01-0.13,0.02c-0.2,0.04-0.39,0.08-0.58,0.13
				c-0.16,0.04-0.32,0.09-0.48,0.15c-0.1,0.03-0.2,0.08-0.25,0.1c0.05-0.02,0.1-0.05,0.15-0.07c-0.18,0.09-0.2,0.09-0.15,0.07
				c-0.28,0.13-0.55,0.27-0.81,0.43c-0.14,0.09-0.27,0.2-0.41,0.27l-0.01,0l0.12-0.1c-0.02,0.02-0.31,0.2-0.12,0.1
				c-0.02,0.02-0.05,0.04-0.07,0.06c-0.27,0.23-0.53,0.48-0.77,0.74c-0.07,0.08-0.14,0.17-0.22,0.25c-0.01,0.01-0.02,0.02-0.03,0.03
				c0.05-0.07,0.07-0.1-0.01,0c-0.13,0.19-0.05,0.06,0.01,0c-0.06,0.08-0.14,0.22-0.17,0.25c-0.19,0.3-0.37,0.62-0.52,0.94
				l-0.02,0.03c0.08-0.25-0.14,0.28,0,0c-0.01,0.02-0.01,0.04-0.02,0.06c-0.06,0.16-0.11,0.32-0.16,0.48s-0.09,0.33-0.13,0.49
				c-0.02,0.08-0.04,0.17-0.05,0.25c0,0.02-0.01,0.07-0.02,0.12c0.01-0.08,0.01-0.11-0.01,0.02c-0.03,0.21-0.01,0.09,0.01-0.02
				c-0.01,0.1-0.03,0.28-0.03,0.33c-0.01,0.15-0.01,0.29-0.01,0.44v0.02c0,0.14,0,0.28,0,0.41v47.92c0,0.36,0,0.73,0,1.09
				c0,0.26,0.03,0.51,0.04,0.76c-0.01-0.04-0.01-0.09-0.02-0.13c0,0.02,0.04,0.41,0.02,0.16c0-0.01,0-0.02,0-0.03
				c0.01,0.04,0.01,0.08,0.02,0.13c0.04,0.2,0.08,0.39,0.13,0.58c0.04,0.16,0.09,0.32,0.15,0.48c0.03,0.09,0.07,0.19,0.09,0.24
				c-0.02-0.05-0.05-0.1-0.07-0.14c0.09,0.18,0.09,0.2,0.07,0.14c0.14,0.3,0.3,0.6,0.48,0.88c0.09,0.14,0.19,0.27,0.28,0.41
				c-0.02-0.03-0.03-0.06-0.05-0.08c0.03,0.04,0.07,0.1,0.11,0.15c0.23,0.27,0.49,0.52,0.75,0.76c0.05,0.04,0.26,0.21,0.29,0.23
				c-0.11-0.07-0.21-0.14-0.07-0.04c0.06,0.04,0.08,0.05,0.07,0.04l0.18,0.12c0.3,0.19,0.62,0.37,0.94,0.52l0.03,0.02
				c-0.25-0.08,0.28,0.14,0,0l0.06,0.02c0.16,0.06,0.32,0.11,0.48,0.16c0.27,0.08,0.54,0.13,0.82,0.19c-0.03-0.01,0,0,0.18,0.04
				l-0.18-0.04c0.04,0.01,0.17,0.03,0.29,0.03c0.18,0.01,0.35,0.02,0.53,0.02c0.1,0,0.19,0,0.29,0h2.25c1.21,0.02,2.18,0.99,2.2,2.2
				v14.91l-3.76,4.84l3.76,1.56v-6.4l0.33-0.42l7.79-10.03l3.13-4.03c0.49-0.64,0.96-1.35,1.51-1.94c0.84-0.9,2.33-0.69,3.46-0.69
				h60.77c0.24,0,0.47,0,0.71,0c0.09,0,0.18,0,0.27,0c0.2-0.01,0.41-0.03,0.61-0.04c-0.45,0.03-0.02,0,0.18-0.05
				c0.33-0.07,0.66-0.17,0.98-0.28c0.06-0.02,0.11-0.04,0.17-0.06c-0.36,0.18,0,0,0.06-0.02l-0.06,0.02l0,0
				c0.17-0.09,0.35-0.17,0.52-0.27c0.14-0.08,0.29-0.17,0.43-0.26c0.04-0.02,0.17-0.11,0.25-0.17c-0.07,0.05-0.2,0.14,0,0.01
				c0.11-0.07,0.08-0.06,0-0.01c0.01-0.01,0.03-0.02,0.03-0.02c0.08-0.07,0.17-0.14,0.25-0.22c0.14-0.13,0.28-0.26,0.41-0.4
				c0.11-0.12,0.22-0.24,0.33-0.37c0.02-0.02,0.04-0.05,0.06-0.07c-0.09,0.19,0.08-0.09,0.1-0.12c-0.03,0.04-0.07,0.08-0.1,0.12
				v-0.01c0.16-0.34,0.43-0.65,0.6-0.99c0.02-0.05,0.11-0.24,0.14-0.32c-0.04,0.12-0.07,0.2-0.01,0.05c0.04-0.1,0.03-0.1,0.01-0.05
				c0.03-0.09,0.07-0.21,0.08-0.24c0.11-0.37,0.21-0.75,0.28-1.12c0,0.04-0.01,0.08-0.01,0.13c0-0.02,0.07-0.41,0.02-0.16
				l-0.01,0.03c0-0.04,0.01-0.09,0.01-0.13c0.01-0.18,0.02-0.35,0.02-0.53c0-0.04,0-0.07,0-0.11c0-0.14,0-0.28,0-0.42v-48.49
				c0-0.16,0-0.32,0-0.48c0-0.22-0.01-0.44-0.02-0.65c0-0.05-0.01-0.09-0.01-0.14c0,0.01,0.01,0.03,0.01,0.04
				c0.06,0.25-0.02-0.14-0.02-0.16c0,0.04,0.01,0.08,0.01,0.12c-0.03-0.16-0.06-0.31-0.09-0.47c-0.05-0.19-0.1-0.38-0.16-0.57
				c-0.03-0.08-0.06-0.16-0.08-0.24c0-0.01-0.01-0.04-0.03-0.07c0.02,0.04,0.02,0.04-0.02-0.06c-0.08-0.21-0.02-0.05,0.02,0.06
				c-0.03-0.07-0.12-0.28-0.15-0.32c-0.09-0.17-0.18-0.34-0.28-0.51c-0.09-0.14-0.18-0.28-0.27-0.42c-0.02-0.03-0.03-0.04-0.04-0.06
				c0.21,0.24-0.12-0.2,0,0l-0.02-0.02c-0.21-0.25-0.44-0.49-0.68-0.72c-0.12-0.11-0.25-0.22-0.38-0.33
				c0.02,0.01,0.04,0.03,0.06,0.04c-0.02-0.01-0.3-0.26-0.12-0.09c0.02,0.02,0.04,0.03,0.06,0.05c-0.05-0.03-0.1-0.07-0.14-0.1
				c-0.3-0.2-0.61-0.38-0.93-0.54c-0.07-0.03-0.14-0.06-0.22-0.09l0.13,0.04c-0.16-0.05-0.32-0.12-0.48-0.17
				c-0.33-0.1-0.66-0.18-0.99-0.24l-0.02,0l0.09,0.01c-0.07-0.01-0.45-0.08-0.09-0.01c-0.06-0.01-0.11-0.01-0.17-0.02
				c-0.21-0.02-0.41-0.02-0.62-0.02c1.22,0,2.2-0.99,2.2-2.2c0-1.21-0.99-2.2-2.2-2.2c5.53,0.07,10,4.56,10.04,10.09
				c0.01,1.25,0,2.49,0,3.74v44.96c0,0.46,0.01,0.93-0.03,1.39c-0.25,3.05-1.85,5.84-4.36,7.59c-3.04,2.14-6.79,1.75-10.29,1.75
				h-57.66l0.5-0.64l-1.56,0.64h1.06l-5.07,6.53l-8.93,11.5l-2.04,2.63c-0.53,0.68-1.69,0.76-2.4,0.46
				c-0.81-0.34-1.34-1.13-1.35-2.01V35.56c0.72,0.03,1.45,0.02,2.2,0.02l-2.2-2.2v2.18c-1.53-0.01-3.04-0.3-4.46-0.88
				c-3.01-1.34-5.16-4.09-5.74-7.33c-0.2-1.73-0.25-3.48-0.17-5.22L-114.01,0.32L-114.01,0.32z"/>
		</g>
		<g id="Group_982-2" transform="translate(45.011 52.233)">
			<ellipse id="Ellipse_125-2" class="st23" cx="-106.14" cy="-51.41" rx="5.55" ry="5.55"/>
			<ellipse id="Ellipse_126-2" class="st23" cx="-128.32" cy="-51.41" rx="5.55" ry="5.55"/>
			<ellipse id="Ellipse_128-2" class="st23" cx="-83.95" cy="-51.41" rx="5.55" ry="5.55"/>
		</g>
	</g>
	<g id="Group_1069" transform="translate(142.855 130.822)">
		<path id="Path_3109" class="st23" d="M-9.54-40.59L-35.87,1.59h14.16l-4.53,31.15L0.09-9.73h-14.16L-9.54-40.59z"/>
		<path id="Path_3110" class="st46" d="M-26.85,34.39c0.19,0.07,0.4,0.11,0.6,0.11c0.61,0,1.17-0.32,1.5-0.83L1.59-8.81
			c0.51-0.83,0.25-1.91-0.57-2.42c-0.28-0.17-0.6-0.26-0.92-0.26h-12.12l4.23-28.85c0.14-0.96-0.52-1.85-1.48-2
			c-0.69-0.1-1.38,0.22-1.75,0.81L-37.36,0.66c-0.51,0.82-0.26,1.91,0.56,2.42c0.28,0.17,0.6,0.27,0.93,0.27h12.13l-4.24,29.13
			C-28.1,33.31-27.63,34.1-26.85,34.39z M-32.7-0.17l20.2-32.36l-3.31,22.54c-0.14,0.96,0.52,1.85,1.49,1.99
			c0.08,0.01,0.17,0.02,0.25,0.02h11l-20.22,32.61l3.31-22.79c0.14-0.96-0.53-1.86-1.49-2c-0.08-0.01-0.17-0.02-0.25-0.02
			L-32.7-0.17z"/>
	</g>
</g>
</svg>
