<?xml version="1.0" encoding="utf-8"?>
<!-- Generator: Adobe Illustrator 25.2.1, SVG Export Plug-In . SVG Version: 6.00 Build 0)  -->
<svg version="1.1" id="Laag_1" xmlns="http://www.w3.org/2000/svg" xmlns:xlink="http://www.w3.org/1999/xlink" x="0px" y="0px"
	 viewBox="0 0 14.58 38.87" style="enable-background:new 0 0 14.58 38.87;" xml:space="preserve">
<style type="text/css">
	.st0{enable-background:new    ;}
	.st1{fill:url(#SVGID_1_);}
	.st2{fill:url(#SVGID_2_);}
	.st3{fill:url(#SVGID_3_);}
	.st4{fill:url(#SVGID_4_);}
	.st5{fill:url(#SVGID_5_);}
	.st6{fill:url(#SVGID_6_);}
	.st7{fill:url(#SVGID_7_);}
	.st8{fill:url(#SVGID_8_);}
	.st9{fill:url(#SVGID_9_);}
	.st10{fill:url(#SVGID_10_);}
	.st11{fill:url(#SVGID_11_);}
	.st12{fill:url(#SVGID_12_);}
	.st13{fill:url(#SVGID_13_);}
	.st14{fill:url(#SVGID_14_);}
	.st15{fill:url(#SVGID_15_);}
	.st16{fill:#EBFED1;stroke:#2C2C2C;stroke-width:2;}
	.st17{fill:#A8E533;}
	.st18{fill:#2C2C2C;}
	.st19{fill:#469612;}
	.st20{fill:#FCC4B9;}
	.st21{fill:#EFA89E;}
	.st22{fill:#A1A7B7;}
	.st23{fill:#FFFA7B;}
	.st24{fill:#BFFD6A;}
	.st25{fill:#C9C9C9;}
	.st26{fill:#FFFFFF;}
	.st27{fill:#D6D8ED;}
	.st28{fill:#8B93A0;}
	.st29{fill:#E18F81;}
	.st30{fill:#F96464;}
	.st31{fill:#1C9337;}
	.st32{fill:#147A27;}
	.st33{fill:#6EB42D;}
	.st34{fill:#619B23;}
	.st35{fill:#DBA065;}
	.st36{fill:#C18753;}
	.st37{fill:#FFD243;}
	.st38{fill:#737581;}
	.st39{fill:#EBFED1;}
	.st40{fill:#51545E;}
	.st41{fill:#40434C;}
	.st42{fill:#5E6270;}
	.st43{fill:#892F58;}
	.st44{fill:#231F20;}
	.st45{fill:#CBFD63;}
	.st46{fill:#001B01;}
	.st47{fill:#FFE98D;}
	.st48{fill:#FFD938;}
	.st49{fill:#525252;}
	.st50{fill:#DFE6F2;}
	.st51{fill:#E8A6A0;}
	.st52{fill:#717171;}
	.st53{fill:#21223F;}
	.st54{fill:#D3D5E2;}
	.st55{fill:#DDDDDD;}
	.st56{fill:#C8DDFC;}
	.st57{clip-path:url(#SVGID_17_);}
	.st58{fill:#67E9FF;}
	.st59{fill:#3B1B6D;}
	.st60{fill:#F96262;}
	.st61{fill:#315775;}
	.st62{fill:#DB9561;}
	.st63{fill:#BC7A4D;}
	.st64{clip-path:url(#SVGID_19_);}
	.st65{fill:#4CA934;}
	.st66{fill:#F9F6E5;}
	.st67{fill:#D8D3BC;}
	.st68{fill:#6F6F6D;}
	.st69{fill:#89C433;}
	.st70{fill:#FEFEFE;}
	.st71{fill:#E7E4EA;}
	.st72{fill:#DDD745;}
	.st73{fill:#9ED85B;}
	.st74{fill:#CCCCCA;}
	.st75{fill:#D3D3D3;}
	.st76{fill:#AEAEAE;}
	.st77{fill:#FEFFFF;}
	.st78{fill:#D5CE35;}
	.st79{fill:#EFF1FE;}
	.st80{fill:#BFFD6A;stroke:#2C2C2C;}
	.st81{fill:none;stroke:#2C2C2C;stroke-width:0.695;stroke-linecap:round;stroke-linejoin:round;}
	.st82{fill:#83E700;stroke:#2C2C2C;stroke-width:0.695;stroke-linecap:round;stroke-linejoin:round;}
	.st83{fill:#001B01;stroke:#2C2C2C;}
	.st84{fill:#469612;stroke:#2C2C2C;stroke-width:3;stroke-miterlimit:10;}
	.st85{fill:#7ECE29;}
	.st86{fill:#FFFA7B;stroke:#000000;stroke-width:2.5;}
	.st87{fill:#FFFA7B;stroke:#000000;stroke-width:2;}
</style>
<path id="male-solid-5" class="st26" d="M7.29,0c2.68,0,4.86,2.18,4.86,4.86S9.97,9.72,7.29,9.72S2.43,7.54,2.43,4.86S4.6,0,7.29,0
	C7.29,0,7.29,0,7.29,0 M10.93,10.93h-0.86c-1.77,0.81-3.8,0.81-5.56,0H3.64C1.63,10.93,0,12.56,0,14.58c0,0,0,0,0,0V24.9
	c0,1.01,0.82,1.82,1.82,1.82c0,0,0,0,0,0h1.21v10.33c0,1.01,0.82,1.82,1.82,1.82h4.86c1.01,0,1.82-0.82,1.82-1.82V26.72h1.22
	c1.01,0,1.82-0.82,1.82-1.82c0,0,0,0,0,0V14.58C14.58,12.56,12.94,10.93,10.93,10.93L10.93,10.93z"/>
</svg>
