<?xml version="1.0" encoding="utf-8"?>
<!-- Generator: Adobe Illustrator 25.2.1, SVG Export Plug-In . SVG Version: 6.00 Build 0)  -->
<svg version="1.1" id="Laag_1" xmlns="http://www.w3.org/2000/svg" xmlns:xlink="http://www.w3.org/1999/xlink" x="0px" y="0px"
	 viewBox="0 0 205.89 278.16" style="enable-background:new 0 0 205.89 278.16;" xml:space="preserve">
<style type="text/css">
	.st0{enable-background:new    ;}
	.st1{fill:url(#SVGID_1_);}
	.st2{fill:url(#SVGID_2_);}
	.st3{fill:url(#SVGID_3_);}
	.st4{fill:url(#SVGID_4_);}
	.st5{fill:url(#SVGID_5_);}
	.st6{fill:url(#SVGID_6_);}
	.st7{fill:url(#SVGID_7_);}
	.st8{fill:url(#SVGID_8_);}
	.st9{fill:url(#SVGID_9_);}
	.st10{fill:url(#SVGID_10_);}
	.st11{fill:url(#SVGID_11_);}
	.st12{fill:url(#SVGID_12_);}
	.st13{fill:url(#SVGID_13_);}
	.st14{fill:url(#SVGID_14_);}
	.st15{fill:url(#SVGID_15_);}
	.st16{fill:#EBFED1;stroke:#2C2C2C;stroke-width:2;}
	.st17{fill:#A8E533;}
	.st18{fill:#2C2C2C;}
	.st19{fill:#469612;}
	.st20{fill:#FCC4B9;}
	.st21{fill:#EFA89E;}
	.st22{fill:#A1A7B7;}
	.st23{fill:#FFFA7B;}
	.st24{fill:#BFFD6A;}
	.st25{fill:#C9C9C9;}
	.st26{fill:#FFFFFF;}
	.st27{fill:#D6D8ED;}
	.st28{fill:#8B93A0;}
	.st29{fill:#E18F81;}
	.st30{fill:#F96464;}
	.st31{fill:#1C9337;}
	.st32{fill:#147A27;}
	.st33{fill:#6EB42D;}
	.st34{fill:#619B23;}
	.st35{fill:#DBA065;}
	.st36{fill:#C18753;}
	.st37{fill:#FFD243;}
	.st38{fill:#737581;}
	.st39{fill:#EBFED1;}
	.st40{fill:#51545E;}
	.st41{fill:#40434C;}
	.st42{fill:#5E6270;}
	.st43{fill:#892F58;}
	.st44{fill:#231F20;}
	.st45{fill:#CBFD63;}
	.st46{fill:#001B01;}
	.st47{fill:#FFE98D;}
	.st48{fill:#FFD938;}
	.st49{fill:#525252;}
	.st50{fill:#DFE6F2;}
	.st51{fill:#E8A6A0;}
	.st52{fill:#717171;}
	.st53{fill:#21223F;}
	.st54{fill:#D3D5E2;}
	.st55{fill:#DDDDDD;}
	.st56{fill:#C8DDFC;}
	.st57{clip-path:url(#SVGID_17_);}
	.st58{fill:#67E9FF;}
	.st59{fill:#3B1B6D;}
	.st60{fill:#F96262;}
	.st61{fill:#315775;}
	.st62{fill:#DB9561;}
	.st63{fill:#BC7A4D;}
	.st64{clip-path:url(#SVGID_19_);}
	.st65{fill:#4CA934;}
	.st66{fill:#F9F6E5;}
	.st67{fill:#D8D3BC;}
	.st68{fill:#6F6F6D;}
	.st69{fill:#89C433;}
	.st70{fill:#FEFEFE;}
	.st71{fill:#E7E4EA;}
	.st72{fill:#DDD745;}
	.st73{fill:#9ED85B;}
	.st74{fill:#CCCCCA;}
	.st75{fill:#D3D3D3;}
	.st76{fill:#AEAEAE;}
	.st77{fill:#FEFFFF;}
	.st78{fill:#D5CE35;}
	.st79{fill:#EFF1FE;}
	.st80{fill:#BFFD6A;stroke:#2C2C2C;}
	.st81{fill:none;stroke:#2C2C2C;stroke-width:0.695;stroke-linecap:round;stroke-linejoin:round;}
	.st82{fill:#83E700;stroke:#2C2C2C;stroke-width:0.695;stroke-linecap:round;stroke-linejoin:round;}
	.st83{fill:#001B01;stroke:#2C2C2C;}
	.st84{fill:#469612;stroke:#2C2C2C;stroke-width:3;stroke-miterlimit:10;}
	.st85{fill:#7ECE29;}
	.st86{fill:#FFFA7B;stroke:#000000;stroke-width:2.5;}
	.st87{fill:#FFFA7B;stroke:#000000;stroke-width:2;}
</style>
<g>
	<g id="Group_896" transform="translate(-1050.161 -288.221)">
		<path id="Path_2635" class="st20" d="M1210.59,513.8c10.82,18.75,30.62,28.48,39.74,19.52c11.78-11.57-3.34-39.75-14.22-53.8
			h-25.51V513.8z"/>
		<path id="Path_2636" class="st21" d="M1210.84,513.82l-0.04-13.28c3.67-1.55,4.17-3.16,5.61-3.12c1.16,0.03,1.88,1.39,1.77,2.54
			c-0.23,1.14-0.63,2.23-1.17,3.26c-4.52,11.43,18.96,34.77,35.11,28.3C1243.56,543.72,1221.99,533.15,1210.84,513.82z"/>
		<path id="Path_2637" class="st21" d="M1215.48,483.2c2.39-0.69,4.83-1.21,7.3-1.55l1.33-0.54c5.26,8.16,9.8,16.76,13.59,25.7
			c-4.2-5.31-10.98-7.92-17.63-9.22c-0.09-3.73-1.96-7.2-5.02-9.33c-1.04-0.71-2.35-1.51-2.28-2.76
			C1212.83,484.23,1214.26,483.55,1215.48,483.2z"/>
		<path id="Path_2638" class="st20" d="M1095.66,513.8c-10.82,18.75-30.62,28.48-39.74,19.52c-11.78-11.57,3.34-39.75,14.22-53.8
			h25.62L1095.66,513.8z"/>
		<path id="Path_2639" class="st21" d="M1091.02,483.18c-2.39-0.69-4.83-1.21-7.3-1.55l-1.34-0.54c-5.26,8.16-9.8,16.76-13.59,25.7
			c4.2-5.31,10.98-7.91,17.63-9.22c0.09-3.73,1.96-7.2,5.02-9.33c1.04-0.71,2.34-1.51,2.28-2.76
			C1093.67,484.21,1092.24,483.53,1091.02,483.18z"/>
		<g id="Group_865" transform="translate(1072.483 453.315)">
			<path id="Path_2640" class="st43" d="M82.55,113.07c-0.64,0-1.27,0-1.9-0.01c-0.63,0.01-1.27,0.01-1.92,0.01H82.55z"/>
			<path id="Path_2641" class="st24" d="M165.9,25.15c-12.6-32.72-37.64-55.52-67.98-59.36H63.37C33.02-30.37,7.99-7.57-4.61,25.15
				c0,0,19.04,2.15,27.89,8.58L38.4,80.94c-1.26,4.9,91.04,4.71,89.83,0l9.79-47.21C146.86,27.29,165.9,25.15,165.9,25.15z"/>
			<path id="Path_2643" class="st19" d="M131.94,37.03c-4.47-7.75-6.97-16.48-7.27-25.42c-0.12-3.6-1-2.94,2.14-4.71
				c4.76-2.68,10.71-3.38,13.96,1.01c4.62,6.23,8.71,12.84,12.21,19.76c-5.24,1.35-10.92,3.32-14.73,6.09l-1.79,8.78
				C134.6,41.02,133.06,39.15,131.94,37.03z"/>
			<path id="Path_2644" class="st19" d="M29.59,37.01c4.47-7.75,6.97-16.48,7.27-25.42c0.12-3.6,1-2.94-2.14-4.71
				c-4.76-2.68-10.71-3.38-13.96,1c-4.62,6.23-8.71,12.84-12.21,19.76c5.24,1.35,10.92,3.32,14.73,6.09l1.79,8.78
				C26.93,41.01,28.47,39.13,29.59,37.01z"/>
		</g>
		<path id="Path_2648" class="st21" d="M1169.14,411.83h-32.03c-0.43,3.84-0.64,7.96,0.06,10.1c1.59,4.86,7.67,9.45,15.96,9.45h0
			c8.29,0,14.37-4.59,15.96-9.45C1169.78,419.79,1169.57,415.67,1169.14,411.83z"/>
		<path id="Path_2649" class="st18" d="M1169.13,411.83h-32.02c-0.17,1.51-0.3,0.29-0.36,1.74c4.91,1.91,10.42,5.6,16.37,5.6
			c5.95,0,11.47-3.68,16.38-5.6C1169.44,412.11,1169.31,413.33,1169.13,411.83z"/>
		<g id="Group_866" transform="translate(1157.485 442.289)">
			<path id="Path_2650" class="st18" d="M-21.84-30.46c-0.32,2.41-0.44,4.84-0.37,7.28c0.02,1.02,0.16,2.03,0.42,3.02
				c0.25,0.83,0.59,1.63,1.03,2.37c1.92,3.37,5.28,5.71,8.86,7.04c2.42,0.88,4.97,1.32,7.55,1.3c0.81,0,1.47-0.66,1.47-1.47
				c0-0.81-0.66-1.47-1.47-1.47c-0.57,0-1.14-0.02-1.7-0.07c-0.25-0.02-0.5-0.04-0.75-0.07l-0.2-0.02
				c-0.26-0.03,0.06,0.01,0.09,0.01c-0.15-0.03-0.29-0.04-0.44-0.06c-1.02-0.16-2.02-0.4-3-0.71c-0.46-0.15-0.91-0.32-1.36-0.5
				c-0.23-0.09,0.08,0.03,0.1,0.04c-0.05-0.03-0.11-0.05-0.16-0.07c-0.11-0.05-0.21-0.1-0.32-0.15c-0.22-0.11-0.44-0.21-0.66-0.32
				c-0.8-0.41-1.57-0.89-2.3-1.43c-0.09-0.07-0.36-0.31-0.02-0.01c-0.08-0.07-0.17-0.13-0.25-0.2c-0.16-0.13-0.32-0.27-0.48-0.41
				c-0.32-0.28-0.62-0.57-0.91-0.88c-0.27-0.29-0.52-0.59-0.77-0.9c-0.11-0.14,0.2,0.27,0.1,0.12c-0.03-0.04-0.06-0.08-0.09-0.12
				c-0.06-0.08-0.11-0.15-0.17-0.23c-0.12-0.16-0.23-0.33-0.33-0.5c-0.2-0.31-0.38-0.63-0.54-0.96c-0.1-0.15-0.17-0.32-0.23-0.49
				c0,0,0.15,0.37,0.07,0.17c-0.02-0.04-0.03-0.08-0.05-0.12c-0.04-0.09-0.07-0.18-0.1-0.28c-0.12-0.35-0.22-0.71-0.29-1.08
				c-0.02-0.1-0.04-0.21-0.05-0.31c-0.01-0.05-0.02-0.11-0.02-0.16c-0.03-0.19,0.04,0.33,0.02,0.14c-0.03-0.25-0.05-0.49-0.07-0.74
				c-0.13-2.6-0.01-5.21,0.34-7.78c0-0.81-0.66-1.46-1.47-1.47c-0.8,0.02-1.45,0.67-1.47,1.47L-21.84-30.46z"/>
		</g>
		<g id="Group_867" transform="translate(1070.616 451.454)">
			<path id="Path_2651" class="st18" d="M65.23-33.82c-6.01,0.75-11.91,2.24-17.56,4.43c-5.61,2.19-10.94,5.02-15.9,8.43
				c-5.08,3.51-9.77,7.54-14,12.03C13.37-4.25,9.43,0.84,6,6.27C2.4,11.98-0.68,18-3.22,24.25c-0.32,0.79-0.64,1.58-0.94,2.38
				c-0.13,0.44-0.03,0.92,0.26,1.28c0.28,0.35,0.7,0.56,1.15,0.58c0.17,0.02,0.35,0.04,0.52,0.06l0.27,0.03l0.15,0.02
				c-0.63-0.08-0.31-0.04-0.16-0.02c0.28,0.04,0.55,0.08,0.83,0.12c1.68,0.24,3.35,0.53,5.02,0.85c4.72,0.85,9.35,2.12,13.84,3.8
				c0.32,0.13,0.64,0.25,0.96,0.39c0.09,0.04,0.37,0.17-0.03-0.02c0.08,0.03,0.16,0.07,0.24,0.1c0.16,0.07,0.31,0.13,0.47,0.2
				c0.61,0.27,1.21,0.56,1.8,0.86c1.14,0.57,2.23,1.24,3.26,1.98c0.7,0.41,1.6,0.17,2.01-0.53c0.39-0.7,0.16-1.58-0.53-2.01
				c-2-1.39-4.16-2.53-6.43-3.42c-2.34-0.95-4.74-1.76-7.18-2.42c-4.02-1.1-8.09-1.95-12.21-2.56c-0.94-0.14-1.87-0.28-2.81-0.38
				l1.41,1.86c0.31-0.79,0.62-1.58,0.94-2.37c0.08-0.2,0.16-0.39,0.24-0.59l0.12-0.29c0.03-0.07,0.16-0.41,0.02-0.04
				c0.16-0.39,0.33-0.78,0.5-1.16c0.67-1.53,1.37-3.05,2.11-4.56c1.44-2.95,3.01-5.84,4.71-8.65c1.64-2.71,3.4-5.35,5.28-7.91
				c0.23-0.32,0.47-0.63,0.71-0.95l0.33-0.43l0.15-0.2l0.12-0.16l-0.05,0.06c0.48-0.62,0.97-1.23,1.46-1.84
				c0.98-1.21,1.99-2.39,3.03-3.54c2.04-2.26,4.19-4.42,6.44-6.47c1.11-1,2.24-1.98,3.39-2.92c0.29-0.24,0.58-0.47,0.88-0.71
				c0.13-0.11,0.27-0.21,0.4-0.32l0.18-0.14l0.15-0.11l-0.07,0.06c0.11-0.01,0.35-0.27,0.45-0.34c0.15-0.11,0.3-0.23,0.45-0.34
				c0.3-0.22,0.6-0.44,0.9-0.66c4.74-3.46,9.86-6.37,15.26-8.69c0.3-0.13-0.32,0.13-0.01,0.01l0.25-0.11l0.51-0.21
				c0.34-0.14,0.68-0.27,1.02-0.41c0.68-0.26,1.37-0.52,2.06-0.77c1.38-0.49,2.78-0.94,4.19-1.35c2.83-0.82,5.72-1.46,8.63-1.92
				c0.34-0.05,0.67-0.1,1.01-0.15c0.18-0.03,0.37-0.05,0.55-0.08c-0.49,0.08,0.14-0.02,0.26-0.03c0.39-0.01,0.75-0.17,1.04-0.43
				c0.27-0.28,0.43-0.65,0.43-1.04C66.67-33.07,66.05-33.93,65.23-33.82L65.23-33.82z"/>
		</g>
		<path id="Path_2655" class="st20" d="M1113.56,484.91c-6.63-4.3-29.98-0.16-25.73,16.67c0.94,3.3,2.52,6.39,4.65,9.09
			c0.55,0.74,1.6,0.9,2.34,0.35c0.03-0.03,0.07-0.05,0.1-0.08c2.87-2.51,10.12-3.29,11.71-3.67c4.82-1.14,9.24-4.52,10.92-9.18
			C1119.24,493.43,1117.72,487.6,1113.56,484.91z"/>
		<path id="Path_2656" class="st21" d="M1116.32,492.34c-3.47,7.98-12.76,11.62-20.73,8.15c-1.24-0.54-2.4-1.23-3.46-2.07
			c-0.54-0.57-1.26-0.93-2.04-1.02c-1.16,0.03-1.88,1.39-1.77,2.54c0.19,2.13,1.94,3.23,1.83,7.19c1.49,2.6,3,5.36,4.78,3.8
			c2.87-2.51,10.12-3.29,11.71-3.66c6.1-1.44,11.42-6.42,11.59-12.78C1117.63,493.73,1117,493.01,1116.32,492.34z"/>
		<path id="Path_3144" class="st23" d="M1148.76,464.02l14.92-14.64l6.63,6.38l1.13,5.52l-1.13,4.74c0,0-1.08,3.04-1.48,3.15
			s-5.92,2.35-5.92,2.35h-4.03l-3.53-1.28L1148.76,464.02z"/>
		<path id="Path_2657" class="st21" d="M1095.66,513.8l0.04-13.28c-3.67-1.55-4.18-3.16-5.61-3.12c-1.16,0.03-1.88,1.39-1.77,2.54
			c0.23,1.14,0.63,2.23,1.17,3.26c4.52,11.43-18.96,34.77-35.11,28.3C1062.94,543.7,1084.51,533.12,1095.66,513.8z"/>
		<path id="Path_3143" class="st44" d="M1189.83,524.6c8.94-8.96,8.94-23.46,0-32.42l-21.48-21.48c-4.93,3.79-11.91,3.34-16.31-1.05
			l-5.81-5.81l2.43-2.43l-5.4-5.4c-0.62-0.62-0.62-1.64,0-2.26c0.62-0.62,1.63-0.62,2.26,0l5.4,5.4l8.14-8.14l-5.4-5.4
			c-0.62-0.62-0.62-1.64,0-2.26c0.62-0.62,1.64-0.62,2.26,0l5.4,5.4l2.43-2.43l5.81,5.81c4.39,4.4,4.84,11.38,1.05,16.31
			l21.48,21.48c10.18,10.21,10.18,26.73,0,36.94 M1163.75,450.84l-13,13l3.55,3.55c3.59,3.59,9.41,3.59,13,0
			c3.59-3.59,3.59-9.41,0-13l0,0L1163.75,450.84z"/>
		<g id="Group_872" transform="translate(1199.994 451.455)">
			<path id="Path_2659" class="st18" d="M-29.59-30.89c0.12,0.01,0.74,0.12,0.26,0.03c0.18,0.03,0.37,0.05,0.55,0.08
				c0.37,0.05,0.74,0.11,1.1,0.17c0.73,0.12,1.46,0.24,2.19,0.38c1.45,0.28,2.89,0.6,4.31,0.97c2.84,0.73,5.64,1.63,8.37,2.69
				c0.31,0.12,0.62,0.25,0.94,0.37l0.51,0.21l0.25,0.11l-0.1-0.04l0.17,0.07c0.66,0.28,1.32,0.57,1.97,0.87
				c1.32,0.61,2.62,1.25,3.9,1.94c2.61,1.39,5.13,2.93,7.56,4.6c0.61,0.42,1.22,0.85,1.82,1.29c0.28,0.2,0.55,0.4,0.82,0.61
				c0.15,0.11,0.3,0.22,0.45,0.34l0.22,0.17l0.15,0.11c0.12,0.1,0.1,0.08-0.07-0.06c0.05,0.11,0.27,0.21,0.37,0.29l0.44,0.35
				c0.32,0.25,0.63,0.51,0.95,0.76c0.57,0.47,1.13,0.94,1.69,1.42c2.29,1.98,4.49,4.08,6.57,6.28c1.06,1.12,2.1,2.27,3.1,3.45
				c1.01,1.19,2.04,2.38,2.96,3.64C21.62-0.11,21.93,0.31,22,0.4c0.12,0.16,0.24,0.32,0.36,0.47c0.26,0.34,0.51,0.68,0.77,1.03
				c0.47,0.64,0.93,1.28,1.39,1.93c0.9,1.29,1.77,2.59,2.61,3.92c1.75,2.76,3.37,5.59,4.86,8.5c0.76,1.48,1.49,2.98,2.19,4.49
				c0.35,0.76,0.7,1.53,1.03,2.3c0.16,0.35,0.31,0.71,0.46,1.07c-0.15-0.37-0.01-0.03,0.02,0.04l0.12,0.29
				c0.09,0.23,0.19,0.46,0.28,0.69c0.31,0.76,0.61,1.51,0.9,2.28l1.41-1.86c-2.46,0.28-4.91,0.69-7.33,1.16
				c-4.77,0.85-9.46,2.14-13.99,3.85c-2.58,0.94-5.04,2.21-7.31,3.77c-0.68,0.42-0.91,1.3-0.53,2.01c0.41,0.69,1.31,0.93,2.01,0.53
				c0.91-0.66,1.87-1.25,2.87-1.77c0.52-0.28,1.05-0.54,1.59-0.79c0.25-0.12,0.51-0.23,0.77-0.35c0.14-0.06,0.29-0.12,0.43-0.19
				c0.09-0.04,0.31-0.12-0.08,0.03c0.09-0.04,0.18-0.08,0.28-0.11c2.33-0.94,4.72-1.74,7.14-2.4c3.97-1.08,8.01-1.93,12.08-2.53
				c0.34-0.05,0.68-0.1,1.02-0.15l0.42-0.06l-0.18,0.02l0.16-0.02c0.22-0.03,0.44-0.06,0.66-0.08c0.45-0.01,0.87-0.22,1.15-0.58
				c0.29-0.36,0.39-0.84,0.26-1.28c-2.44-6.37-5.43-12.52-8.93-18.37C27.55,2.71,23.7-2.5,19.39-7.31
				c-4.14-4.61-8.75-8.77-13.76-12.42c-4.79-3.5-9.97-6.44-15.43-8.76c-5.53-2.36-11.33-4.03-17.27-4.98
				c-0.83-0.13-1.67-0.25-2.51-0.35c-0.81,0-1.46,0.66-1.47,1.47c0.02,0.8,0.67,1.44,1.47,1.47L-29.59-30.89z"/>
		</g>
		<path id="Path_2660" class="st20" d="M1192.7,484.91c6.63-4.3,29.98-0.16,25.73,16.67c-0.94,3.3-2.52,6.39-4.65,9.09
			c-0.55,0.74-1.6,0.9-2.34,0.35c-0.03-0.03-0.07-0.05-0.1-0.08c-2.87-2.51-10.12-3.29-11.71-3.67c-4.82-1.14-9.24-4.52-10.92-9.18
			C1187.01,493.44,1188.54,487.61,1192.7,484.91z"/>
		<path id="Path_2661" class="st21" d="M1190.18,492.36c3.47,7.98,12.76,11.62,20.73,8.15c1.24-0.54,2.4-1.23,3.46-2.07
			c0.54-0.57,1.26-0.93,2.04-1.02c1.16,0.03,1.88,1.39,1.77,2.54c-0.19,2.13-1.94,3.23-1.83,7.19c-1.49,2.6-3,5.36-4.78,3.8
			c-2.87-2.51-10.12-3.29-11.71-3.67c-6.1-1.44-11.42-6.42-11.59-12.78C1188.86,493.75,1189.5,493.04,1190.18,492.36z"/>
		<g id="Group_873" transform="translate(1095.169 532.493)">
			<path id="Path_2662" class="st18" d="M19.13-48.85c-1.84-1.04-3.9-1.63-6.01-1.71c-2.52-0.18-5.04,0-7.51,0.55
				C3-49.47,0.5-48.52-1.8-47.18c-2.33,1.34-4.29,3.23-5.7,5.52c-1.44,2.5-2.05,5.4-1.74,8.27c0.23,2.15,0.8,4.26,1.68,6.24
				c0.49,1.11,1.05,2.19,1.68,3.22c0.65,1.13,1.39,2.2,2.21,3.21c0.99,1.09,2.61,1.35,3.89,0.63c0.25-0.16,0.49-0.34,0.71-0.54
				c0.01-0.01,0.1-0.07,0.1-0.08s-0.32,0.24-0.15,0.12c0.09-0.06,0.17-0.12,0.26-0.18c0.32-0.21,0.66-0.4,1.01-0.58
				c0.17-0.09,0.35-0.17,0.52-0.24c0.04-0.02,0.09-0.04,0.13-0.06c-0.01,0-0.36,0.15-0.15,0.06c0.12-0.05,0.23-0.09,0.35-0.14
				c0.4-0.15,0.79-0.29,1.2-0.42c0.84-0.27,1.7-0.49,2.57-0.68c1.42-0.32,2.85-0.55,4.29-0.81c1.71-0.32,3.37-0.89,4.91-1.69
				c3.8-1.95,7.04-5.43,8.13-9.63c1.08-4.16,0.09-8.59-2.68-11.89C20.76-47.63,19.99-48.3,19.13-48.85c-0.69-0.4-1.58-0.17-2,0.53
				c-0.39,0.7-0.16,1.59,0.53,2.01c0.19,0.12,0.36,0.27,0.55,0.39c-0.36-0.21-0.06-0.05,0.03,0.03c0.1,0.08,0.19,0.16,0.28,0.25
				c0.34,0.31,0.66,0.64,0.95,0.99c0.08,0.09,0.27,0.39,0.03,0.03c0.06,0.09,0.13,0.18,0.2,0.27c0.13,0.18,0.25,0.37,0.37,0.55
				c0.25,0.4,0.47,0.82,0.67,1.25c0.02,0.05,0.16,0.37,0.06,0.13c-0.1-0.24,0.05,0.13,0.07,0.18c0.09,0.22,0.16,0.45,0.24,0.68
				c0.14,0.44,0.25,0.89,0.34,1.35c0.02,0.11,0.04,0.22,0.06,0.33c0.01,0.06,0.02,0.11,0.03,0.17c0.03,0.19-0.04-0.33-0.02-0.14
				c0.03,0.24,0.05,0.48,0.07,0.72c0.03,0.45,0.04,0.9,0.02,1.36c-0.01,0.23-0.03,0.45-0.05,0.68c-0.01,0.11-0.03,0.22-0.04,0.34
				c0.04-0.49,0-0.04-0.02,0.07c-0.08,0.46-0.18,0.91-0.32,1.36c-0.07,0.22-0.14,0.43-0.22,0.65c-0.04,0.11-0.09,0.22-0.13,0.34
				c-0.04,0.11-0.13,0.18,0.04-0.1c-0.03,0.07-0.06,0.14-0.09,0.21c-0.2,0.45-0.43,0.88-0.68,1.31c-0.24,0.41-0.51,0.8-0.79,1.18
				c-0.14,0.2,0.05-0.06,0.07-0.08c-0.04,0.05-0.07,0.09-0.11,0.14c-0.07,0.09-0.15,0.18-0.23,0.28c-0.16,0.19-0.33,0.38-0.51,0.57
				c-0.34,0.36-0.69,0.7-1.07,1.03c-0.18,0.16-0.37,0.31-0.55,0.46c-0.08,0.07-0.2,0.1,0.08-0.06c-0.05,0.03-0.1,0.07-0.14,0.11
				c-0.11,0.08-0.22,0.16-0.33,0.24c-0.8,0.57-1.65,1.06-2.54,1.48c-0.11,0.05-0.22,0.1-0.33,0.15c-0.06,0.02-0.11,0.04-0.17,0.07
				c0.02-0.02,0.33-0.14,0.1-0.04c-0.23,0.09-0.48,0.19-0.72,0.28c-0.47,0.17-0.94,0.31-1.43,0.44c-1.1,0.29-2.24,0.42-3.36,0.63
				c-1.63,0.28-3.24,0.67-4.82,1.17c-0.88,0.28-1.74,0.63-2.58,1.04c-0.33,0.16-0.64,0.34-0.95,0.54c-0.14,0.09-0.28,0.19-0.42,0.3
				c-0.15,0.11-0.3,0.23-0.44,0.34c-0.03,0.03-0.06,0.05-0.09,0.08c-0.16,0.14,0.24-0.15,0.08-0.06c-0.05,0.03-0.1,0.06-0.14,0.09
				c-0.15,0.1,0.3-0.09,0.13-0.05c-0.05,0.01-0.44,0.1-0.16,0.06c0.3-0.05-0.08-0.03-0.12-0.02c0.18-0.07,0.32,0.07,0.15,0.02
				c-0.07-0.03-0.15-0.05-0.23-0.07c0.04-0.01,0.32,0.17,0.13,0.05c-0.04-0.03-0.09-0.06-0.14-0.08c0.03,0,0.27,0.25,0.1,0.08
				c-0.04-0.04-0.08-0.08-0.12-0.12c-0.09-0.09-0.13-0.05,0.06,0.08c-0.05-0.05-0.09-0.11-0.13-0.17c-0.08-0.12-0.17-0.23-0.25-0.35
				c-0.69-0.96-1.33-1.95-1.92-2.98c-0.29-0.51-0.57-1.03-0.82-1.56c-0.12-0.24-0.23-0.48-0.34-0.73l-0.09-0.19
				c-0.11-0.25,0.02,0.02,0.02,0.06c-0.04-0.17-0.11-0.34-0.2-0.49c-0.38-0.97-0.67-1.96-0.89-2.98c-0.04-0.18-0.07-0.37-0.11-0.55
				c-0.05-0.19-0.08-0.38-0.09-0.58c0,0,0.05,0.42,0.03,0.19c-0.01-0.04-0.01-0.09-0.02-0.13c-0.01-0.09-0.02-0.18-0.03-0.26
				c-0.02-0.18-0.03-0.37-0.05-0.55c-0.04-0.67-0.04-1.35,0.02-2.03c0.01-0.16,0.03-0.32,0.05-0.48c0.03-0.23-0.06,0.43-0.01,0.1
				c0.01-0.09,0.03-0.17,0.04-0.26c0.05-0.31,0.12-0.62,0.2-0.93c0.07-0.29,0.16-0.58,0.26-0.86c0.05-0.14,0.1-0.28,0.15-0.42
				c0.03-0.07,0.05-0.14,0.08-0.2c0.12-0.31-0.16,0.35-0.02,0.05c0.24-0.54,0.52-1.06,0.83-1.55c0.16-0.25,0.33-0.49,0.5-0.73
				c0.04-0.06,0.08-0.12,0.13-0.17c0.01-0.02-0.26,0.33-0.13,0.17l0.07-0.08c0.09-0.11,0.18-0.22,0.28-0.33
				c0.39-0.45,0.81-0.88,1.25-1.27c0.22-0.2,0.45-0.39,0.69-0.58c0.05-0.04,0.1-0.08,0.15-0.12C-2.22-43.31-2-43.5-1.9-43.57
				c0.13-0.1,0.26-0.2,0.4-0.29c0.99-0.7,2.04-1.3,3.15-1.79c0.14-0.06,0.28-0.12,0.41-0.18c0.3-0.13-0.3,0.12-0.09,0.04l0.26-0.11
				c0.28-0.11,0.56-0.22,0.85-0.32c0.59-0.21,1.18-0.4,1.78-0.56c0.59-0.16,1.18-0.3,1.78-0.42c0.3-0.06,0.6-0.12,0.91-0.17
				c0.15-0.02,0.29-0.05,0.44-0.07l0.22-0.03c0.33-0.05-0.36,0.05-0.09,0.01c1.15-0.15,2.31-0.22,3.47-0.21
				c0.55,0.01,1.09,0.03,1.64,0.08c0.25,0.02,0.5,0.05,0.76,0.08c0.17,0.02-0.45-0.07-0.16-0.02L14-47.52
				c0.13,0.02,0.25,0.04,0.38,0.06c0.46,0.08,0.92,0.19,1.37,0.32c0.21,0.06,0.42,0.13,0.63,0.2c0.1,0.03,0.19,0.07,0.29,0.11
				l0.14,0.06c0.21,0.08-0.41-0.18-0.16-0.07c0.35,0.15,0.68,0.33,1,0.53c0.7,0.4,1.59,0.17,2.01-0.53
				C20.05-47.54,19.82-48.43,19.13-48.85z"/>
		</g>
		<g id="Group_874" transform="translate(1067.413 551.685)">
			<path id="Path_2663" class="st18" d="M-1.36-41.23c2.43-1.75,4.96-3.36,7.57-4.81c1.3-0.72,2.62-1.41,3.96-2.05
				c0.69-0.33,1.39-0.66,2.09-0.97c0.32-0.14,0.64-0.28,0.97-0.42c0.16-0.07,0.32-0.14,0.49-0.21c-0.36,0.15-0.02,0.01,0.04-0.02
				l0.29-0.12c1.64-0.68,3.3-1.31,4.98-1.89c0.78-0.21,1.24-1.02,1.03-1.8c-0.21-0.78-1.02-1.24-1.8-1.03c0,0,0,0,0,0
				c-5.89,2.01-11.53,4.66-16.82,7.92c-1.45,0.91-2.88,1.86-4.27,2.87c-0.32,0.2-0.56,0.51-0.67,0.88c-0.1,0.38-0.05,0.79,0.15,1.13
				C-2.95-41.06-2.06-40.83-1.36-41.23L-1.36-41.23z"/>
		</g>
		<g id="Group_875" transform="translate(1050.161 527.698)">
			<path id="Path_2664" class="st18" d="M18.95-49.21c-2.28,2.94-4.4,5.99-6.38,9.15c-2.16,3.43-4.13,6.97-5.91,10.62
				c-1.83,3.7-3.37,7.54-4.62,11.48c-1.15,3.56-1.83,7.26-2.01,11c-0.18,3.32,0.44,6.63,1.82,9.65c1.31,2.75,3.5,4.99,6.22,6.36
				c2.73,1.25,5.76,1.7,8.73,1.27c3.48-0.49,6.84-1.61,9.92-3.3c3.53-1.92,6.8-4.3,9.71-7.08c3.24-3.06,6.12-6.49,8.56-10.23
				c0.62-0.94,1.21-1.89,1.77-2.86c0.42-0.69,0.2-1.59-0.5-2.01c-0.69-0.42-1.59-0.2-2.01,0.5c-0.01,0.01-0.01,0.03-0.02,0.04
				c-1.12,1.94-2.35,3.81-3.69,5.61c-0.16,0.21-0.32,0.42-0.48,0.63c-0.15,0.2,0.04-0.05,0.06-0.08c-0.04,0.05-0.08,0.1-0.11,0.15
				c-0.1,0.12-0.19,0.24-0.29,0.36c-0.34,0.43-0.69,0.86-1.05,1.28c-0.68,0.81-1.38,1.59-2.11,2.36c-1.41,1.49-2.9,2.89-4.48,4.2
				c-0.38,0.31-0.76,0.62-1.14,0.92c-0.19,0.15,0.08-0.07,0.1-0.08l-0.13,0.1l-0.3,0.23C30.41,1.2,30.2,1.35,29.99,1.5
				c-0.76,0.55-1.53,1.07-2.33,1.57c-1.49,0.94-3.05,1.78-4.67,2.49l-0.3,0.13c-0.3,0.13,0.33-0.14-0.01,0
				c-0.2,0.08-0.4,0.16-0.59,0.24c-0.38,0.15-0.76,0.29-1.15,0.42c-0.76,0.26-1.52,0.48-2.3,0.66c-0.37,0.09-0.74,0.16-1.11,0.23
				c-0.18,0.03-0.36,0.06-0.53,0.09l-0.25,0.04c-0.36,0.05,0.37-0.05,0.02,0c-0.71,0.09-1.42,0.13-2.13,0.14
				c-0.35,0-0.71-0.01-1.06-0.03c-0.15-0.01-0.31-0.02-0.46-0.04l-0.26-0.03c-0.07-0.01-0.44-0.06-0.12-0.01
				c0.32,0.04,0.01,0-0.06-0.01c-0.08-0.01-0.17-0.03-0.25-0.04c-0.17-0.03-0.33-0.06-0.5-0.1c-0.32-0.07-0.63-0.15-0.95-0.24
				c-0.32-0.09-0.62-0.19-0.92-0.31L9.82,6.63C9.56,6.52,10.2,6.8,9.89,6.65c-0.15-0.07-0.3-0.14-0.45-0.21
				c-0.58-0.28-1.13-0.62-1.65-1L7.61,5.32C7.44,5.19,7.95,5.58,7.67,5.36C7.53,5.25,7.4,5.14,7.28,5.03
				C7.02,4.81,6.77,4.57,6.53,4.32c-0.26-0.27-0.5-0.55-0.74-0.84c-0.05-0.06-0.1-0.13-0.15-0.19c0.32,0.4,0.12,0.15,0.04,0.05
				C5.57,3.19,5.46,3.03,5.35,2.87c-0.4-0.6-0.76-1.23-1.06-1.89C4.25,0.9,4.22,0.83,4.19,0.75L4.14,0.64
				c-0.09-0.2,0.08,0.19,0.08,0.18C4.16,0.64,4.1,0.47,4.01,0.31C3.88-0.04,3.76-0.4,3.66-0.76C3.45-1.47,3.29-2.19,3.17-2.93
				C3.16-3.01,3.14-3.1,3.13-3.18C3.12-3.24,3.11-3.29,3.11-3.34C3.08-3.52,3.15-2.97,3.13-3.15C3.11-3.35,3.08-3.56,3.06-3.77
				C3.03-4.15,3-4.52,2.98-4.9c-0.07-1.67,0.01-3.34,0.23-5c0.01-0.05,0.01-0.1,0.02-0.15c0,0-0.06,0.4-0.02,0.17
				c0.01-0.1,0.03-0.2,0.04-0.29c0.03-0.22,0.07-0.44,0.1-0.66c0.07-0.45,0.15-0.9,0.24-1.34c0.18-0.89,0.38-1.78,0.61-2.66
				c0.48-1.85,1.06-3.67,1.72-5.47c0.34-0.93,0.7-1.86,1.08-2.78c0.09-0.21,0.17-0.42,0.26-0.63c0.09-0.22-0.04,0.1-0.05,0.11
				c0.03-0.07,0.06-0.13,0.08-0.2c0.05-0.13,0.11-0.26,0.17-0.39c0.2-0.46,0.4-0.91,0.6-1.37c1.66-3.66,3.53-7.21,5.59-10.66
				c1.89-3.18,3.93-6.28,6.12-9.26c0.23-0.32,0.47-0.63,0.7-0.94c0.12-0.16,0.24-0.32,0.36-0.48L21-47.11l0.1-0.14
				c0.11-0.15-0.24,0.32-0.08,0.11c0.26-0.28,0.42-0.65,0.43-1.04c0-0.81-0.66-1.47-1.47-1.47C19.6-49.64,19.23-49.49,18.95-49.21
				L18.95-49.21z"/>
		</g>
		<g id="Group_877" transform="translate(1178.189 442.29)">
			<path id="Path_2666" class="st18" d="M-10.52-30.46c0.3,2.33,0.43,4.69,0.38,7.04c-0.02,0.48-0.05,0.96-0.11,1.44
				c-0.03,0.25,0.02-0.12,0.02-0.14c-0.01,0.05-0.02,0.11-0.02,0.16c-0.02,0.11-0.03,0.21-0.05,0.31c-0.04,0.2-0.08,0.41-0.14,0.61
				c-0.04,0.16-0.09,0.32-0.15,0.48c-0.03,0.08-0.06,0.16-0.09,0.25c-0.05,0.12-0.22,0.49,0,0.02c-0.15,0.33-0.3,0.66-0.48,0.97
				c-0.18,0.32-0.38,0.64-0.6,0.95c-0.05,0.08-0.11,0.16-0.17,0.23l-0.09,0.12c-0.13,0.18,0.09-0.12,0.1-0.12
				c-0.13,0.16-0.26,0.32-0.4,0.48c-0.54,0.63-1.14,1.21-1.79,1.73c-0.08,0.07-0.17,0.13-0.25,0.2c0.01-0.01,0.3-0.22,0.11-0.08
				l-0.13,0.1c-0.17,0.13-0.35,0.25-0.53,0.38c-0.38,0.26-0.77,0.5-1.17,0.73c-0.4,0.23-0.81,0.44-1.22,0.63
				c-0.11,0.05-0.21,0.1-0.32,0.15l-0.16,0.07c-0.17,0.08,0.28-0.12,0.11-0.04c-0.24,0.1-0.47,0.19-0.71,0.28
				c-1.06,0.39-2.14,0.68-3.25,0.88c-0.16,0.03-0.32,0.06-0.48,0.08c-0.08,0.01-0.33,0.09-0.39,0.06c0.07,0.04,0.3-0.04,0.09-0.01
				l-0.3,0.03c-0.15,0.02-0.3,0.03-0.45,0.04c-0.63,0.06-1.27,0.08-1.91,0.08c-0.81,0-1.47,0.66-1.47,1.47
				c0,0.81,0.66,1.47,1.47,1.47c4.38,0.07,8.67-1.26,12.24-3.8c1.53-1.11,2.84-2.49,3.88-4.07c0.46-0.73,0.84-1.51,1.14-2.32
				c0.3-0.9,0.49-1.83,0.55-2.77c0.16-2.69,0.06-5.38-0.32-8.05c-0.01-0.39-0.17-0.75-0.43-1.04c-0.57-0.57-1.5-0.57-2.07,0
				C-10.36-31.22-10.51-30.84-10.52-30.46L-10.52-30.46z"/>
		</g>
		<g id="Group_880" transform="translate(1222.218 532.496)">
			<path id="Path_2669" class="st18" d="M-28.78-46.32c0.33-0.21,0.67-0.39,1.03-0.55c0.18-0.08-0.42,0.17-0.18,0.07l0.14-0.06
				c0.1-0.04,0.19-0.07,0.29-0.11c0.22-0.08,0.44-0.14,0.66-0.21c0.45-0.13,0.91-0.23,1.37-0.31c0.12-0.02,0.24-0.04,0.36-0.06
				l0.16-0.02c0.3-0.05-0.42,0.05-0.11,0.02c0.25-0.03,0.5-0.06,0.76-0.08c1.12-0.09,2.24-0.1,3.36-0.03
				c0.59,0.04,1.17,0.1,1.75,0.17c-0.51-0.06-0.1-0.01,0.1,0.02c0.15,0.02,0.31,0.05,0.47,0.07c0.3,0.05,0.6,0.11,0.91,0.17
				c1.21,0.25,2.4,0.58,3.56,0.99c0.28,0.1,0.57,0.21,0.85,0.32l0.21,0.09c0.17,0.07-0.38-0.17-0.09-0.04
				c0.15,0.06,0.29,0.13,0.44,0.19c0.56,0.26,1.11,0.54,1.65,0.84c0.52,0.3,1.03,0.62,1.52,0.97c0.12,0.09,0.24,0.17,0.36,0.26
				l0.09,0.07c0.16,0.12-0.18-0.13-0.17-0.13c0.06,0.01,0.15,0.12,0.19,0.15c0.23,0.19,0.46,0.38,0.68,0.58
				c0.44,0.4,0.86,0.83,1.24,1.28c0.09,0.1,0.17,0.21,0.26,0.31l0.07,0.08c0.1,0.13-0.23-0.3-0.13-0.17
				c0.05,0.07,0.1,0.13,0.15,0.19c0.18,0.24,0.34,0.48,0.5,0.73c0.31,0.5,0.58,1.02,0.82,1.56c0.07,0.16-0.16-0.39-0.04-0.1
				c0.03,0.07,0.05,0.14,0.08,0.21c0.06,0.15,0.11,0.29,0.16,0.44c0.1,0.29,0.19,0.59,0.26,0.89c0.08,0.3,0.14,0.61,0.19,0.93
				c0.01,0.08,0.02,0.15,0.04,0.23c0.05,0.3-0.04-0.35-0.02-0.13c0.02,0.18,0.04,0.36,0.06,0.53c0.05,0.68,0.06,1.35,0.01,2.03
				c-0.01,0.17-0.03,0.35-0.04,0.52c-0.01,0.09-0.02,0.18-0.03,0.27c-0.01,0.04-0.01,0.09-0.02,0.13c-0.02,0.18,0.06-0.39,0.02-0.15
				c-0.06,0.38-0.12,0.76-0.2,1.13c-0.22,1.03-0.52,2.03-0.91,3.01c-0.05,0.13-0.1,0.27-0.16,0.4c0.17-0.34-0.02,0.05-0.06,0.14
				c-0.12,0.28-0.25,0.55-0.38,0.82c-0.26,0.53-0.54,1.05-0.83,1.56c-0.59,1.02-1.24,2.01-1.93,2.97l-0.22,0.31
				c-0.04,0.06-0.2,0.19-0.04,0.06c0.16-0.13,0.02-0.02-0.03,0.02c-0.04,0.04-0.08,0.08-0.12,0.11c-0.13,0.12,0.26-0.15,0.1-0.08
				c-0.05,0.02-0.1,0.05-0.14,0.08c-0.13,0.09,0.33-0.09,0.09-0.04c-0.05,0.01-0.1,0.03-0.15,0.04c-0.22,0.06,0.13-0.03,0.15-0.02
				c-0.05-0.01-0.11-0.01-0.16,0c-0.15,0.01-0.1-0.1,0.15,0.03c-0.1-0.04-0.2-0.07-0.31-0.09c0.05,0,0.31,0.17,0.13,0.04
				c-0.04-0.03-0.26-0.17-0.06-0.03s-0.04-0.05-0.08-0.08c-0.14-0.11-0.28-0.22-0.42-0.33c-0.15-0.12-0.31-0.23-0.48-0.33
				c-0.31-0.2-0.63-0.38-0.96-0.54c-1.62-0.76-3.32-1.33-5.07-1.71c-1.4-0.32-2.81-0.57-4.22-0.81c-0.5-0.09-0.99-0.18-1.49-0.31
				c-0.49-0.13-0.96-0.28-1.42-0.45c-0.23-0.08-0.45-0.17-0.68-0.26c-0.15-0.06,0.15,0.06,0.14,0.06c-0.05-0.03-0.11-0.05-0.17-0.07
				c-0.14-0.06-0.28-0.12-0.41-0.19c-0.89-0.42-1.73-0.92-2.53-1.49c-0.1-0.07-0.19-0.14-0.29-0.21c-0.29-0.22,0.22,0.18-0.06-0.05
				c-0.2-0.16-0.39-0.32-0.59-0.49c-0.37-0.33-0.72-0.67-1.06-1.03c-0.15-0.16-0.3-0.33-0.45-0.5c-0.08-0.09-0.15-0.18-0.23-0.28
				c-0.03-0.05-0.07-0.1-0.11-0.14c0.26,0.24,0.09,0.12,0.01,0.01c-0.28-0.38-0.55-0.78-0.79-1.19c-0.25-0.42-0.47-0.86-0.67-1.31
				c-0.15-0.33,0.11,0.27-0.03-0.06c-0.04-0.11-0.09-0.22-0.13-0.34c-0.08-0.23-0.16-0.45-0.23-0.68c-0.13-0.45-0.23-0.9-0.31-1.36
				c-0.01-0.04-0.01-0.08-0.02-0.13c-0.04-0.24,0.02,0.12,0.02,0.14c-0.01-0.11-0.03-0.22-0.04-0.34c-0.03-0.25-0.04-0.51-0.05-0.76
				c-0.02-0.45-0.01-0.91,0.03-1.36c0.02-0.23,0.05-0.45,0.07-0.67c0,0.02-0.06,0.38-0.02,0.14c0.01-0.06,0.02-0.11,0.03-0.17
				c0.02-0.13,0.04-0.25,0.07-0.37c0.09-0.46,0.21-0.91,0.35-1.35c0.07-0.21,0.14-0.42,0.22-0.63c0.04-0.11,0.2-0.45,0.01-0.04
				c0.05-0.1,0.09-0.2,0.14-0.31c0.19-0.42,0.41-0.82,0.66-1.21c0.12-0.19,0.24-0.37,0.37-0.55c0.03-0.04,0.27-0.36,0.11-0.15
				c-0.14,0.19-0.02,0.03,0.01-0.01c0.04-0.05,0.09-0.11,0.13-0.16c0.29-0.34,0.6-0.66,0.93-0.95c0.08-0.07,0.17-0.15,0.25-0.22
				c0.04-0.04,0.32-0.25,0.11-0.09c-0.2,0.16,0.11-0.08,0.16-0.11C-28.99-46.18-28.89-46.25-28.78-46.32
				c0.71-0.39,0.96-1.29,0.56-1.99c-0.4-0.71-1.29-0.95-2-0.56c-0.01,0.01-0.03,0.01-0.04,0.02c-3.53,2.44-5.56,6.52-5.4,10.8
				c0.05,2.17,0.63,4.29,1.68,6.18c1.1,1.94,2.6,3.62,4.39,4.95c1.71,1.29,3.63,2.26,5.69,2.86c1.2,0.31,2.43,0.56,3.66,0.74
				c1.68,0.28,3.35,0.68,4.98,1.18c0.41,0.13,0.83,0.28,1.23,0.44c0.09,0.04,0.18,0.07,0.28,0.11c0.17,0.07-0.31-0.13-0.15-0.06
				l0.13,0.06c0.19,0.08,0.37,0.17,0.55,0.26c0.34,0.17,0.68,0.37,1,0.58c0.08,0.05,0.16,0.11,0.24,0.17
				c0.14,0.1-0.28-0.22-0.15-0.11l0.1,0.08c0.23,0.21,0.49,0.4,0.76,0.56c1.3,0.69,2.91,0.39,3.87-0.73
				c0.81-1.03,1.55-2.11,2.21-3.24c1.31-2.1,2.28-4.39,2.88-6.78c1.67-5.77-0.55-11.96-5.5-15.36c-2.16-1.55-4.58-2.71-7.15-3.4
				c-2.48-0.71-5.06-1.07-7.64-1.06c-2.27-0.04-4.52,0.38-6.62,1.23c-0.36,0.15-0.7,0.34-1.03,0.55c-0.71,0.4-0.95,1.29-0.56,2
				c0.4,0.71,1.29,0.95,2,0.56C-28.8-46.3-28.79-46.31-28.78-46.32L-28.78-46.32z"/>
		</g>
		<g id="Group_881" transform="translate(1262.823 551.691)">
			<path id="Path_2670" class="st18" d="M-21.15-43.76c-5.01-3.58-10.42-6.57-16.11-8.9c-1.64-0.68-3.3-1.31-4.98-1.89
				c-0.78-0.21-1.58,0.25-1.8,1.02c-0.19,0.78,0.26,1.57,1.02,1.8c1.47,0.51,2.94,1.06,4.38,1.64c0.36,0.15,0.73,0.29,1.09,0.45
				c-0.04-0.02-0.3-0.13-0.06-0.02l0.29,0.13c0.19,0.08,0.39,0.17,0.58,0.25c0.67,0.29,1.34,0.6,2.01,0.91
				c2.69,1.27,5.3,2.69,7.83,4.27c1.45,0.91,2.88,1.86,4.27,2.87c0.7,0.41,1.6,0.17,2.01-0.53C-20.24-42.46-20.47-43.34-21.15-43.76
				L-21.15-43.76z"/>
		</g>
		<g id="Group_882" transform="translate(1250.698 527.694)">
			<path id="Path_2671" class="st18" d="M-15.63-47.13l-0.1-0.13L-15.63-47.13l0.19,0.25c0.13,0.17,0.25,0.33,0.38,0.5
				c0.25,0.33,0.5,0.67,0.74,1c0.51,0.7,1.02,1.41,1.51,2.12c1.06,1.53,2.09,3.08,3.08,4.66c2.12,3.37,4.06,6.85,5.82,10.42
				c0.44,0.9,0.87,1.8,1.28,2.72c0.21,0.47,0.42,0.94,0.62,1.41l0.13,0.32c0.02,0.05,0.04,0.1,0.07,0.16
				c-0.16-0.37-0.08-0.2-0.05-0.11c0.1,0.23,0.2,0.47,0.29,0.71c0.74,1.82,1.42,3.67,2.01,5.55c0.56,1.76,1.02,3.55,1.38,5.35
				c0.09,0.45,0.17,0.89,0.24,1.34c0.03,0.2,0.06,0.39,0.09,0.59c0.02,0.11,0.03,0.22,0.05,0.33c0.03,0.18-0.05-0.35-0.02-0.17
				C2.18-9.93,2.19-9.86,2.2-9.79c0.1,0.83,0.18,1.67,0.21,2.51c0.04,0.82,0.04,1.63,0,2.45C2.39-4.44,2.36-4.05,2.32-3.66
				C2.32-3.61,2.25-3.11,2.26-3.11s0.06-0.41,0.03-0.2C2.28-3.26,2.27-3.22,2.27-3.18C2.25-3.07,2.23-2.96,2.22-2.86
				C2.1-2.13,1.93-1.4,1.72-0.69C1.62-0.33,1.5,0.02,1.36,0.37C1.31,0.52,1.24,0.67,1.18,0.83c0.2-0.5,0.06-0.15,0.01-0.04
				C1.15,0.88,1.11,0.97,1.07,1.07C0.76,1.72,0.4,2.35-0.01,2.95c-0.09,0.13-0.19,0.27-0.28,0.4c-0.02,0.03-0.05,0.07-0.07,0.1
				c-0.13,0.17,0.12-0.15,0.12-0.15c-0.07,0.03-0.14,0.18-0.19,0.24c-0.24,0.29-0.48,0.57-0.74,0.83c-0.24,0.24-0.49,0.48-0.74,0.7
				c-0.12,0.1-0.24,0.21-0.37,0.31c-0.24,0.2,0.25-0.18,0.08-0.06c-0.07,0.05-0.15,0.11-0.22,0.17c-0.52,0.38-1.08,0.71-1.66,0.99
				c-0.15,0.07-0.3,0.14-0.45,0.21c-0.2,0.09,0.4-0.16,0.1-0.04C-4.53,6.67-4.62,6.7-4.7,6.74C-5,6.85-5.31,6.95-5.62,7.04
				c-0.31,0.09-0.63,0.17-0.95,0.24c-0.16,0.03-0.32,0.06-0.48,0.09C-7.13,7.38-7.22,7.4-7.3,7.41l-0.11,0.02
				C-7.64,7.46-7,7.38-7.25,7.41c-1.39,0.16-2.79,0.15-4.18-0.03c-0.22-0.03,0.21,0.03,0.2,0.03c-0.05-0.01-0.11-0.01-0.16-0.02
				l-0.25-0.04c-0.2-0.03-0.4-0.07-0.6-0.1c-0.37-0.07-0.74-0.15-1.11-0.24c-0.77-0.18-1.52-0.41-2.27-0.66
				c-0.39-0.13-0.77-0.27-1.15-0.42c-0.19-0.07-0.37-0.15-0.56-0.23c-0.3-0.12,0.33,0.14-0.01-0.01l-0.33-0.14
				C-18.46,5.2-19.23,4.82-20,4.41c-1.63-0.88-3.2-1.87-4.7-2.97c-0.19-0.14-0.38-0.28-0.56-0.42l-0.26-0.2
				c-0.04-0.03-0.09-0.07-0.13-0.1c0.36,0.26,0.1,0.08,0.03,0.03c-0.39-0.3-0.77-0.61-1.14-0.92c-0.78-0.65-1.54-1.32-2.28-2.02
				c-1.52-1.43-2.95-2.95-4.3-4.55c-0.36-0.42-0.71-0.85-1.05-1.28l-0.23-0.29c-0.03-0.05-0.07-0.1-0.11-0.15
				c0.16,0.11,0.15,0.2,0.06,0.08c-0.18-0.24-0.36-0.47-0.54-0.71c-0.67-0.9-1.31-1.81-1.92-2.75c-0.6-0.91-1.17-1.84-1.71-2.78
				c-0.41-0.7-1.31-0.93-2.01-0.53c-0.7,0.41-0.93,1.31-0.53,2.01c2.28,3.96,5.02,7.63,8.16,10.94c2.84,3.01,6.04,5.66,9.53,7.87
				c3,1.93,6.29,3.36,9.75,4.22c3.01,0.78,6.16,0.77,9.16-0.03c2.94-0.9,5.49-2.78,7.22-5.32C4.23,1.81,5.22-1.35,5.33-4.6
				c0.14-3.61-0.28-7.22-1.23-10.71C3.06-19.22,1.69-23.04,0-26.72c-1.68-3.74-3.59-7.38-5.69-10.9c-1.92-3.23-3.98-6.37-6.21-9.39
				c-0.54-0.74-1.1-1.47-1.66-2.2c-0.27-0.28-0.65-0.43-1.04-0.43c-0.39,0-0.76,0.16-1.04,0.43c-0.27,0.28-0.43,0.65-0.43,1.04
				C-16.04-47.79-15.89-47.42-15.63-47.13L-15.63-47.13z"/>
		</g>
		<g id="Group_895" transform="translate(1109.563 288.221)">
			<path id="Path_2673" class="st20" d="M92.99,61.05L91,46.95l-6.97-7.32L78.07,24.8H67.85l-24.24,1.4L3.7,34.9l-9.56,26.15
				c-4.46,3.93-6.11,10.16-4.17,15.78c1.98,5.46,7.56,9.25,13.13,8.92h0.97c2.56,26.64,18.26,38.41,39.5,38.41
				s36.94-11.77,39.5-38.41h0.97c5.58,0.33,11.15-3.46,13.13-8.92C99.09,71.21,97.45,64.98,92.99,61.05z"/>
			<path id="Path_2674" class="st21" d="M97.16,76.83c1.94-5.62,0.29-11.85-4.17-15.78L91,46.95l-6.97-7.32l-2.24-5.59
				c-3.08-3.16-6.29-6.21-9.51-9.24h-2.29c-2.48,4.52-4.46,13.86-2.66,18.79c1.98,5.44,7.8,6.84,9.72,12.3
				c1.6,4.92,2.41,10.05,2.41,15.22c0.73,33.97-14.53,46.95-35.57,47.78c-13.62,0.54-22.75-6.05-28.79-15.37
				C3.37,85.41,4.25,56.85,7.59,53.96c4.49-3.88,20.11-0.36,24.63-4.22l0.97-5.1C28.82,38.2,20.1,35.5,12.51,37.2
				c-4.56,1.09-8.74,3.4-12.09,6.67l-6.28,17.18c-4.46,3.93-6.11,10.16-4.17,15.78c1.98,5.46,7.56,9.25,13.13,8.92h0.97
				c2.56,26.64,18.26,38.41,39.5,38.41s36.94-11.77,39.5-38.41h0.97C89.6,86.08,95.18,82.29,97.16,76.83z"/>
			<path id="Path_2675" class="st18" d="M64.91,10.12c0-1.62-5.83-8.63-15.25-8.63c-31.65,0-64.86,27.35-55.52,59.56
				c0,0,9.39,8.89,9.56,16.73C3.03,67.09,5.9,56.39,10.73,46.83l0.52-0.35c9.71,2.08,19.68,3.17,29.45,1.59
				c11.64-1.88,23.05-8.04,29-18.22c0.89,5.08,1.86,10.34,4.83,14.55c1.2,1.7,2.76,3.11,4.56,4.16l0.33,0.9
				c2.22,9.57,3.56,19.33,4.01,29.14c0.84-7.5,3.07-13.69,9.56-17.54C100.4,31.78,81.96,1.41,64.91,10.12z"/>
			<path id="Path_2676" class="st18" d="M92.99,61.05c2.11-8.44,2.24-17.25,0.38-25.75c-2.14,0.96-4.47,1.4-6.82,1.29
				c-4.67-0.29-8.95-2.72-11.58-6.59c-2.01-3.01-3.73-7.28-7.35-7.28c-2.09,0-3.8,1.56-5.37,2.94
				C50.62,35.89,35.57,41.41,20.08,41.13c-4.8-0.11-9.73-0.82-13.89-3.23c-3.51-2.03-6.39-5.44-7.24-9.35
				c-5.9,9.42-8.24,20.62-4.8,32.49c0,0,9.39,8.89,9.56,16.73c-0.67-10.69,2.21-21.39,7.04-30.95l0.52-0.35
				c9.71,2.08,19.68,3.17,29.45,1.59c11.64-1.88,23.05-8.04,29-18.22c0.89,5.08,1.86,10.34,4.83,14.55c1.2,1.7,2.76,3.11,4.56,4.16
				l0.33,0.9c2.22,9.57,3.56,19.33,4.01,29.14C84.27,71.1,86.5,64.9,92.99,61.05z"/>
			<g id="Group_884" transform="translate(18.338 96.245)">
				<path id="Path_2677" class="st18" d="M-16.11-18.47c-0.05,5.81,0.58,11.61,1.88,17.27c1.08,4.67,2.88,9.13,5.34,13.24
					c4.42,7.29,11.36,12.7,19.5,15.21c4.2,1.3,8.55,2.01,12.94,2.1c0.56,0.02,1.11,0.02,1.66,0.02c0.81,0,1.47-0.66,1.47-1.47
					c0-0.81-0.66-1.47-1.47-1.47l0,0c-2.2,0-4.4-0.13-6.59-0.4l-0.2-0.03c-0.27-0.04,0.4,0.05,0.12,0.02l-0.4-0.06
					c-0.26-0.04-0.53-0.08-0.79-0.12c-0.52-0.09-1.05-0.18-1.57-0.29c-1-0.2-2-0.44-2.99-0.71c-0.97-0.27-1.92-0.58-2.87-0.92
					C9.48,23.75,9,23.57,8.54,23.37L8.36,23.3c0.46,0.19,0.22,0.09,0.12,0.05l-0.29-0.13C7.94,23.12,7.7,23,7.45,22.89
					c-1.77-0.82-3.46-1.8-5.06-2.92c-0.2-0.14-0.41-0.29-0.61-0.44c-0.08-0.06-0.17-0.12-0.25-0.19c-0.11-0.08-0.54-0.42-0.1-0.07
					c-0.39-0.31-0.78-0.62-1.16-0.94c-0.75-0.64-1.47-1.31-2.16-2.02c-0.7-0.72-1.36-1.46-2-2.24c-0.16-0.2-0.32-0.4-0.48-0.61
					c0.33,0.42,0.05,0.06-0.03-0.04c-0.09-0.11-0.17-0.23-0.25-0.34c-0.31-0.42-0.62-0.85-0.91-1.29C-6.76,9.99-7.81,8.08-8.7,6.09
					c-0.11-0.24-0.21-0.48-0.32-0.72c-0.11-0.26,0.14,0.35,0.04,0.08l-0.08-0.2c-0.06-0.13-0.11-0.27-0.16-0.4
					c-0.22-0.55-0.43-1.1-0.63-1.65c-0.4-1.13-0.76-2.26-1.08-3.42c-0.69-2.51-1.21-5.06-1.56-7.64c-0.01-0.09-0.02-0.17-0.04-0.26
					c0.07,0.46,0.02,0.14,0.01,0.04c-0.02-0.14-0.04-0.29-0.06-0.43c-0.05-0.38-0.09-0.76-0.13-1.14c-0.07-0.69-0.14-1.38-0.19-2.06
					c-0.12-1.5-0.2-3-0.23-4.5c-0.02-0.75-0.03-1.5-0.03-2.25c0-0.81-0.65-1.47-1.46-1.47c-0.81,0-1.47,0.65-1.47,1.46
					C-16.1-18.48-16.1-18.48-16.11-18.47L-16.11-18.47z"/>
			</g>
			<g id="Group_885" transform="translate(0 75.16)">
				<path id="Path_2678" class="st18" d="M-6.89-15.15c-3.7,3.26-5.69,8.05-5.38,12.98c0.13,2.51,0.89,4.94,2.21,7.08
					c1.33,2.11,3.15,3.88,5.3,5.15c2.37,1.42,5.11,2.11,7.87,2c0.81,0,1.47-0.66,1.47-1.47c0-0.81-0.66-1.47-1.47-1.47l0,0
					C2.55,9.15,2,9.15,1.45,9.1C1.34,9.09,1.22,9.08,1.11,9.07c-0.04,0-0.33-0.04-0.06-0.01s-0.02,0-0.06-0.01
					C0.72,9.01,0.47,8.96,0.21,8.9c-0.54-0.12-1.07-0.27-1.59-0.46C-1.48,8.4-1.59,8.36-1.7,8.32l-0.2-0.08
					C-2.1,8.16-1.56,8.4-1.84,8.27c-0.24-0.11-0.48-0.22-0.71-0.34c-0.5-0.25-0.98-0.54-1.44-0.85c-0.22-0.15-0.44-0.3-0.65-0.46
					c-0.07-0.05-0.2-0.18,0.09,0.07C-4.6,6.65-4.65,6.62-4.69,6.58C-4.81,6.49-4.92,6.39-5.03,6.3c-0.43-0.37-0.83-0.76-1.21-1.17
					c-0.18-0.2-0.36-0.4-0.52-0.61l-0.11-0.14c-0.16-0.19,0.05,0.06,0.07,0.09C-6.91,4.33-7,4.19-7.11,4.07
					c-0.32-0.45-0.61-0.92-0.87-1.41c-0.13-0.24-0.25-0.48-0.36-0.72c-0.04-0.11-0.09-0.22-0.15-0.33c0.19,0.31,0.07,0.17,0.03,0.06
					c-0.03-0.08-0.07-0.17-0.1-0.25C-8.75,0.9-8.91,0.38-9.04-0.16C-9.1-0.41-9.15-0.67-9.19-0.93c-0.02-0.12-0.04-0.23-0.06-0.35
					c-0.01-0.04-0.05-0.34-0.01-0.07c0.04,0.27,0-0.06-0.01-0.11c-0.12-1.09-0.11-2.18,0.01-3.27c0.01-0.07,0.02-0.15,0.03-0.22
					c0,0.02-0.05,0.38-0.02,0.13c0.02-0.13,0.04-0.26,0.06-0.4c0.05-0.28,0.1-0.55,0.17-0.83c0.12-0.53,0.27-1.06,0.45-1.57
					c0.1-0.29,0.22-0.58,0.33-0.87c-0.17,0.43,0.02-0.03,0.06-0.13c0.06-0.13,0.12-0.27,0.19-0.4c0.27-0.55,0.58-1.08,0.92-1.59
					c0.08-0.12,0.16-0.24,0.25-0.36c0.04-0.06,0.09-0.12,0.13-0.18c0.03-0.04,0.22-0.3,0.07-0.09c-0.13,0.18-0.02,0.02,0.02-0.02
					c0.05-0.07,0.11-0.13,0.16-0.2c0.1-0.12,0.21-0.24,0.31-0.36c0.41-0.45,0.84-0.87,1.31-1.26c0.57-0.57,0.57-1.5,0-2.07
					c-0.58-0.55-1.49-0.55-2.07,0L-6.89-15.15z"/>
			</g>
			<g id="Group_886" transform="translate(6.928 84.799)">
				<path id="Path_2679" class="st18" d="M-13.21-16.19c2.91,1.76,4.81,4.79,5.14,8.18l1.44-0.19c-0.93-2.64-3.82-4.04-6.46-3.11
					c-0.09,0.03-0.19,0.07-0.28,0.11c-0.35,0.21-0.46,0.65-0.26,1c0.21,0.34,0.65,0.46,1,0.26c0.42-0.18,0.87-0.26,1.32-0.23
					c0.45,0.03,0.9,0.13,1.32,0.31c0.9,0.39,1.61,1.13,1.96,2.05c0.1,0.35,0.44,0.57,0.8,0.53c0.36-0.05,0.63-0.35,0.63-0.72
					c-0.34-3.9-2.52-7.41-5.87-9.44c-0.35-0.2-0.8-0.09-1,0.26C-13.68-16.84-13.57-16.39-13.21-16.19L-13.21-16.19z"/>
			</g>
			<g id="Group_887" transform="translate(68.632 96.245)">
				<path id="Path_2680" class="st18" d="M13.33-18.47c0.01,2.97-0.15,5.95-0.46,8.9c-0.04,0.35-0.08,0.7-0.12,1.05
					c-0.02,0.14-0.04,0.29-0.06,0.43c-0.01,0.1-0.06,0.41,0.01-0.04c-0.02,0.11-0.03,0.23-0.05,0.34c-0.1,0.68-0.2,1.35-0.32,2.02
					c-0.22,1.27-0.48,2.53-0.78,3.78c-0.56,2.35-1.29,4.65-2.19,6.9C9.32,5.03,9.27,5.14,9.23,5.25l-0.08,0.2
					C9.04,5.71,9.29,5.11,9.18,5.37C9.07,5.63,8.95,5.89,8.83,6.16C8.6,6.67,8.36,7.18,8.11,7.68c-0.48,0.96-1,1.9-1.56,2.82
					c-0.55,0.91-1.15,1.79-1.78,2.64c-0.07,0.09-0.13,0.17-0.2,0.26c-0.08,0.1-0.38,0.49-0.05,0.06c-0.16,0.2-0.32,0.41-0.48,0.61
					c-0.32,0.4-0.66,0.79-1,1.17c-0.66,0.74-1.35,1.45-2.08,2.13c-0.37,0.34-0.74,0.68-1.12,1c-0.18,0.15-0.37,0.31-0.55,0.46
					c-0.09,0.07-0.18,0.14-0.27,0.21c-0.1,0.08-0.54,0.41-0.1,0.08c-1.57,1.19-3.23,2.25-4.98,3.16c-0.43,0.22-0.86,0.43-1.29,0.63
					c-0.23,0.11-0.46,0.21-0.69,0.31l-0.29,0.13c-0.1,0.04-0.34,0.14,0.12-0.05l-0.23,0.1c-0.92,0.38-1.86,0.72-2.8,1.02
					c-1.97,0.63-3.99,1.11-6.04,1.44c-0.24,0.04-0.49,0.08-0.73,0.11l-0.4,0.06c-0.27,0.04,0.4-0.05,0.12-0.02l-0.27,0.03
					c-0.52,0.07-1.04,0.12-1.56,0.17c-1.11,0.11-2.22,0.17-3.33,0.2c-0.54,0.02-1.09,0.02-1.63,0.02c-0.81,0-1.47,0.66-1.47,1.47
					c0,0.81,0.66,1.47,1.47,1.47c4.45,0.03,8.89-0.54,13.19-1.7c4-1.09,7.78-2.85,11.18-5.21c3.5-2.48,6.52-5.57,8.9-9.13
					c2.58-3.92,4.51-8.24,5.72-12.77c1.45-5.46,2.23-11.08,2.31-16.73c0.02-0.77,0.03-1.53,0.03-2.3c0-0.81-0.65-1.47-1.46-1.47
					s-1.47,0.65-1.47,1.46C13.33-18.48,13.33-18.47,13.33-18.47L13.33-18.47z"/>
			</g>
			<g id="Group_888" transform="translate(119.679 75.156)">
				<path id="Path_2681" class="st18" d="M-27.73-13.07c0.42,0.35,0.82,0.73,1.19,1.13c0.18,0.19,0.35,0.39,0.51,0.59
					c0.07,0.08,0.3,0.4,0.04,0.04c0.09,0.12,0.17,0.23,0.26,0.35c0.32,0.45,0.62,0.92,0.88,1.4c0.13,0.23,0.25,0.46,0.36,0.7
					c0.05,0.11,0.1,0.21,0.15,0.32c0.02,0.05,0.05,0.11,0.07,0.16c0.13,0.28-0.11-0.29-0.01-0.03c0.41,1.01,0.71,2.07,0.91,3.14
					c0.03,0.15,0.05,0.29,0.07,0.44c0.01,0.09,0.03,0.28-0.02-0.13c0.01,0.06,0.01,0.12,0.02,0.18c0.03,0.29,0.06,0.59,0.08,0.88
					c0.03,0.55,0.03,1.09,0,1.64c-0.01,0.25-0.03,0.5-0.06,0.75c-0.01,0.07-0.02,0.15-0.03,0.22c-0.02,0.21,0.06-0.39,0.01-0.08
					c-0.02,0.15-0.04,0.29-0.07,0.44c-0.09,0.54-0.22,1.07-0.38,1.59c-0.07,0.24-0.15,0.48-0.24,0.71
					c-0.07,0.13-0.12,0.28-0.16,0.42c0-0.02,0.14-0.33,0.04-0.1c-0.04,0.08-0.07,0.16-0.11,0.25c-0.23,0.5-0.5,0.99-0.79,1.46
					c-0.13,0.22-0.27,0.43-0.42,0.63c-0.09,0.12-0.17,0.24-0.26,0.36c-0.05,0.07-0.18,0.2,0.07-0.08c-0.06,0.07-0.11,0.14-0.17,0.21
					c-0.35,0.43-0.72,0.83-1.11,1.21c-0.19,0.19-0.39,0.37-0.59,0.54c-0.1,0.09-0.2,0.17-0.31,0.26l-0.14,0.11
					c-0.25,0.2,0.27-0.2,0.02-0.01c-0.44,0.33-0.89,0.63-1.36,0.91c-0.26,0.16-0.53,0.31-0.81,0.44c-0.13,0.07-0.26,0.13-0.4,0.19
					l-0.16,0.07l-0.16,0.07l0.19-0.08c-0.3,0.08-0.6,0.24-0.9,0.34c-0.28,0.09-0.55,0.17-0.84,0.25c-0.29,0.08-0.59,0.14-0.89,0.2
					c-0.14,0.03-0.29,0.05-0.43,0.07c-0.21,0.03,0.4-0.05,0.09-0.01c-0.09,0.01-0.17,0.02-0.26,0.03c-0.61,0.06-1.22,0.07-1.82,0.04
					c-0.81,0-1.46,0.66-1.47,1.47c0.02,0.8,0.66,1.45,1.47,1.47c5.02,0.28,9.81-2.42,12.7-6.44c2.81-4.11,3.49-9.32,1.81-14.02
					c-0.87-2.62-2.43-4.95-4.51-6.75c-0.58-0.55-1.49-0.55-2.07,0C-28.29-14.56-28.29-13.64-27.73-13.07L-27.73-13.07z"/>
			</g>
			<g id="Group_889" transform="translate(125.041 84.799)">
				<path id="Path_2682" class="st18" d="M-32.37-17.46c-3.35,2.03-5.53,5.54-5.87,9.44c0,0.37,0.27,0.67,0.63,0.72
					c0.36,0.05,0.7-0.18,0.8-0.53c0.16-0.44,0.41-0.85,0.74-1.19c0.09-0.09,0.19-0.19,0.28-0.27c0.07-0.07,0.14-0.13,0.22-0.18
					c0.23-0.16,0.46-0.29,0.71-0.41c0.21-0.09,0.42-0.16,0.63-0.21c0.13-0.03,0.25-0.06,0.38-0.08c-0.11,0.02,0.05,0,0.07-0.01
					c0.06,0,0.13-0.01,0.19-0.01c0.13-0.01,0.26,0,0.38,0c0.08,0,0.15,0.01,0.23,0.02c-0.1-0.01,0.03,0.01,0.07,0.01
					c0.13,0.02,0.25,0.05,0.37,0.09c0.1,0.03,0.2,0.06,0.3,0.11c0.35,0.19,0.79,0.08,1-0.26c0.2-0.35,0.08-0.8-0.26-1
					c-2.58-1.08-5.56,0.14-6.64,2.72c-0.04,0.09-0.07,0.19-0.11,0.28l1.44,0.19c0.33-3.38,2.23-6.41,5.14-8.18
					c0.35-0.2,0.47-0.65,0.26-1C-31.57-17.55-32.02-17.67-32.37-17.46L-32.37-17.46L-32.37-17.46z"/>
			</g>
			<g id="Group_890" transform="translate(4.291)">
				<path id="Path_2683" class="st18" d="M5.18,46.09C1.2,53.75-1.23,62.11-2,70.71c-0.18,2.35-0.2,4.71-0.06,7.07
					c0,0.81,0.65,1.47,1.46,1.47s1.47-0.65,1.47-1.46c0-0.01,0-0.01,0-0.02c-0.09-3.49-1.62-6.82-3.45-9.72
					c-1.56-2.44-3.34-4.72-5.34-6.82c-0.39-0.42-0.79-0.83-1.2-1.22l0.38,0.65c-0.28-0.96-0.52-1.93-0.73-2.91
					c-0.2-0.95-0.31-1.93-0.5-2.88c0.06,0.29,0.01,0.08-0.01-0.08c-0.01-0.11-0.03-0.21-0.04-0.31c-0.03-0.26-0.06-0.52-0.08-0.78
					c-0.04-0.46-0.08-0.93-0.11-1.39c-0.06-0.93-0.08-1.87-0.07-2.8c0.01-0.92,0.06-1.84,0.14-2.76c0.04-0.46,0.09-0.93,0.15-1.39
					c0-0.12,0.02-0.23,0.04-0.34c0,0-0.04,0.31-0.02,0.14c0.01-0.05,0.01-0.1,0.02-0.15c0.03-0.23,0.07-0.46,0.1-0.69
					c0.29-1.79,0.7-3.55,1.24-5.28c0.27-0.88,0.57-1.74,0.9-2.6c0.08-0.2,0.16-0.4,0.24-0.59c0.04-0.09,0.07-0.18,0.11-0.27
					c0.02-0.05,0.19-0.44,0.1-0.23s0.05-0.12,0.08-0.19c0.04-0.09,0.08-0.18,0.12-0.27c0.1-0.23,0.2-0.45,0.31-0.67
					c0.76-1.65,1.63-3.24,2.59-4.79c0.48-0.78,0.99-1.54,1.51-2.29c0.26-0.37,0.52-0.74,0.79-1.1c0.13-0.17,0.26-0.35,0.4-0.52
					c0.16-0.2-0.16,0.21,0.05-0.06c0.08-0.11,0.17-0.21,0.25-0.32c1.16-1.46,2.39-2.85,3.7-4.17c1.32-1.34,2.71-2.62,4.15-3.83
					c0.36-0.3,0.72-0.59,1.08-0.88c0.19-0.15,0.38-0.31,0.57-0.45c-0.2,0.14-0.09,0.07,0.03-0.02c0.11-0.08,0.22-0.17,0.33-0.25
					c0.76-0.58,1.54-1.13,2.33-1.67c3.19-2.18,6.57-4.06,10.1-5.63c0.21-0.09,0.42-0.19,0.63-0.28l0.34-0.15
					c0.05-0.02,0.1-0.04,0.15-0.06c-0.32,0.16-0.09,0.04-0.01,0c0.44-0.18,0.88-0.36,1.32-0.54c0.9-0.35,1.82-0.69,2.73-1
					c1.85-0.63,3.73-1.18,5.64-1.64c1.88-0.45,3.78-0.82,5.69-1.09l0.31-0.04c0.27-0.04-0.27,0.03,0.08-0.01
					c0.24-0.03,0.49-0.06,0.73-0.09c0.49-0.06,0.97-0.11,1.46-0.15C41.16,3.1,42.12,3.04,43.08,3c0.99-0.04,1.98-0.07,2.96-0.04
					c0.53,0.02,1.06,0.06,1.59,0.12c0.15,0.02,0.15-0.05-0.05-0.01c0.06,0,0.11,0.01,0.17,0.02c0.13,0.02,0.26,0.04,0.39,0.06
					c0.26,0.04,0.51,0.09,0.77,0.15c0.95,0.21,1.89,0.49,2.8,0.84c0.11,0.04,0.22,0.09,0.33,0.13c0.26,0.1-0.23-0.1,0.02,0.01
					c0.21,0.09,0.42,0.19,0.63,0.29c0.4,0.19,0.8,0.4,1.19,0.62c0.71,0.41,1.4,0.86,2.05,1.35c0.26,0.2-0.19-0.15,0,0l0.19,0.15
					c0.14,0.12,0.29,0.24,0.43,0.36c0.27,0.23,0.53,0.47,0.78,0.71c0.43,0.42,0.81,0.88,1.21,1.34c0.04,0.04-0.24-0.32-0.07-0.09
					c0.03,0.04,0.07,0.09,0.1,0.13c0.07,0.11,0.15,0.21,0.22,0.32c0.11,0.17,0.21,0.34,0.31,0.52c0.04,0.07,0.07,0.15,0.11,0.23
					c-0.16-0.32-0.12-0.32-0.05-0.1c0.02,0.06,0.03,0.12,0.05,0.18c0.06,0.18-0.04-0.48-0.03-0.2c0,0.81,0.66,1.46,1.47,1.46
					c0.8,0,1.45-0.65,1.46-1.46c-0.02-1.3-1.01-2.52-1.8-3.46C59.04,5.23,57.58,4,55.96,3.02c-2.06-1.28-4.33-2.17-6.71-2.64
					c-2.59-0.42-5.23-0.5-7.85-0.24c-4.92,0.35-9.78,1.28-14.49,2.77C22.2,4.4,17.67,6.41,13.4,8.89
					c-4.21,2.44-8.11,5.36-11.64,8.71c-3.43,3.25-6.41,6.94-8.85,10.98c-2.39,3.94-4.12,8.24-5.15,12.73
					c-1.04,4.72-1.23,9.6-0.54,14.39c0.17,1.22,0.39,2.42,0.67,3.61c0.14,0.6,0.3,1.2,0.46,1.8c0.09,0.38,0.27,0.74,0.53,1.03
					c0.74,0.76,1.48,1.51,2.18,2.31c0.62,0.71,1.22,1.43,1.8,2.17c0.22,0.28-0.17-0.23,0.05,0.06c0.08,0.11,0.17,0.22,0.25,0.33
					c0.16,0.21,0.32,0.43,0.48,0.65c0.33,0.46,0.65,0.93,0.96,1.4c0.62,0.95,1.19,1.94,1.71,2.95c0.13,0.26,0.25,0.51,0.37,0.77
					c0.06,0.12,0.11,0.25,0.16,0.37c0.08,0.18-0.1-0.26-0.03-0.07c0.03,0.08,0.06,0.15,0.09,0.23c0.21,0.53,0.41,1.08,0.57,1.63
					c0.15,0.51,0.27,1.02,0.36,1.54c0.01,0.13,0.03,0.25,0.06,0.37c-0.1-0.26-0.03-0.25-0.02-0.11c0.01,0.06,0.01,0.12,0.02,0.19
					c0.03,0.28,0.04,0.55,0.05,0.83h2.93c-0.13-2.08-0.13-4.16,0-6.24c0.06-1.01,0.15-2.03,0.27-3.04c0.02-0.14,0.03-0.28,0.05-0.41
					c0-0.03,0.06-0.49,0.02-0.16c0.03-0.23,0.06-0.46,0.1-0.69c0.08-0.53,0.16-1.05,0.26-1.57c0.74-4.09,1.87-8.09,3.39-11.96
					c0.2-0.52,0.41-1.04,0.62-1.55c0.01-0.02,0.19-0.44,0.07-0.16c0.05-0.13,0.11-0.26,0.16-0.38c0.12-0.28,0.24-0.55,0.36-0.83
					c0.48-1.08,0.99-2.15,1.52-3.21c0.42-0.69,0.2-1.59-0.5-2.01c-0.69-0.42-1.59-0.2-2.01,0.5C5.19,46.06,5.18,46.07,5.18,46.09
					L5.18,46.09z"/>
			</g>
			<g id="Group_891" transform="translate(95.571 9.003)">
				<path id="Path_2684" class="st18" d="M-17.57,40.84c0.83,3.71,1.56,7.45,2.17,11.2c0.15,0.95,0.3,1.89,0.44,2.84
					c0.07,0.46,0.13,0.93,0.2,1.39c0.01,0.05,0.07,0.48,0.02,0.12c0.02,0.13,0.03,0.25,0.05,0.38c0.03,0.25,0.07,0.51,0.1,0.76
					c0.24,1.91,0.44,3.82,0.61,5.73c0.18,2.11,0.31,4.22,0.38,6.33c0.01,0.81,0.66,1.45,1.47,1.47c0.8-0.02,1.45-0.67,1.47-1.47
					c0.02-0.21,0.05-0.41,0.07-0.62c0.01-0.1,0.03-0.2,0.04-0.31c0.05-0.36-0.05,0.34,0-0.02c0.06-0.43,0.13-0.87,0.2-1.3
					c0.13-0.79,0.29-1.58,0.48-2.36c0.18-0.76,0.39-1.51,0.63-2.25c0.12-0.35,0.24-0.71,0.37-1.05c0.07-0.17,0.14-0.34,0.2-0.52
					c0.12-0.31-0.14,0.31,0,0.01c0.05-0.11,0.1-0.22,0.15-0.34c0.3-0.66,0.64-1.31,1.01-1.94C-7.34,58.6-7.14,58.3-6.94,58
					c0.1-0.15,0.21-0.3,0.32-0.45c0.05-0.07,0.11-0.15,0.16-0.22c0.09-0.12,0.07-0.1-0.06,0.08l0.11-0.14
					c0.46-0.58,0.96-1.13,1.49-1.64c0.27-0.26,0.56-0.52,0.85-0.76c0.15-0.12,0.3-0.24,0.45-0.37c0.27-0.21-0.26,0.19,0.01-0.01
					c0.11-0.08,0.21-0.16,0.32-0.24c0.3-0.22,0.6-0.42,0.92-0.62c0.17-0.11,0.36-0.21,0.53-0.32c0.43-0.32,0.72-0.8,0.79-1.33
					c0.23-0.93,0.43-1.87,0.61-2.82c0.36-1.91,0.63-3.85,0.8-5.79c0.31-3.58,0.29-7.19-0.08-10.76c-0.63-6.75-2.52-13.31-5.56-19.37
					C-7.81,8.36-11.31,3.71-16,0.76c-4.03-2.54-9-3.44-13.54-1.73c-0.64,0.24-1.26,0.51-1.86,0.82c-0.69,0.41-0.93,1.31-0.53,2.01
					c0.42,0.68,1.3,0.92,2.01,0.53c0.19-0.1,0.39-0.19,0.59-0.29C-29.22,2.04-29.11,2-29,1.94c0,0-0.36,0.15-0.15,0.06l0.2-0.08
					c0.41-0.16,0.83-0.3,1.25-0.42c0.4-0.11,0.81-0.21,1.22-0.29c0.1-0.02,0.2-0.04,0.3-0.05c0.07-0.01,0.44-0.06,0.13-0.02
					c-0.31,0.04,0.06-0.01,0.13-0.01c0.11-0.01,0.22-0.02,0.33-0.03c0.83-0.07,1.66-0.05,2.48,0.04l0.13,0.02
					c0.26,0.03-0.35-0.05-0.16-0.02c0.1,0.02,0.19,0.03,0.29,0.05c0.22,0.04,0.43,0.08,0.65,0.12c0.4,0.09,0.79,0.19,1.18,0.31
					c0.39,0.12,0.78,0.26,1.17,0.42l0.16,0.06c0.17,0.07-0.37-0.16-0.13-0.05c0.08,0.04,0.17,0.07,0.25,0.11
					c0.21,0.1,0.42,0.19,0.62,0.3c0.79,0.4,1.55,0.86,2.28,1.37c0.19,0.13,0.38,0.27,0.56,0.41l0.12,0.09
					c0.18,0.14-0.11-0.09-0.12-0.09c0.11,0.09,0.22,0.17,0.32,0.25c0.36,0.29,0.72,0.6,1.07,0.91c0.74,0.67,1.44,1.39,2.1,2.14
					c0.34,0.38,0.66,0.77,0.98,1.16c0.08,0.1,0.16,0.2,0.23,0.29c0.15,0.19-0.06-0.08-0.08-0.1c0.04,0.06,0.09,0.11,0.13,0.17
					c0.16,0.21,0.32,0.43,0.48,0.65c0.65,0.9,1.25,1.82,1.82,2.77c0.58,0.98,1.12,1.99,1.63,3.01c0.26,0.52,0.5,1.05,0.74,1.58
					c0.06,0.14,0.13,0.29,0.19,0.44l0.08,0.18c0.1,0.24-0.02-0.07-0.04-0.09c0.08,0.14,0.14,0.29,0.18,0.44
					c0.06,0.15,0.12,0.3,0.18,0.45c0.92,2.32,1.67,4.71,2.25,7.14c0.31,1.28,0.57,2.57,0.78,3.88c0.05,0.31,0.1,0.63,0.15,0.94
					c0.02,0.14,0.04,0.28,0.06,0.42c0,0.02,0.05,0.37,0.02,0.12c-0.03-0.25,0.02,0.13,0.02,0.17c0.08,0.66,0.16,1.31,0.22,1.97
					c0.25,2.73,0.31,5.48,0.17,8.22c-0.07,1.43-0.21,2.84-0.39,4.26c-0.03,0.27,0-0.01,0.01-0.05c-0.01,0.09-0.03,0.19-0.04,0.28
					c-0.02,0.17-0.05,0.34-0.07,0.51C-3,46.72-3.06,47.1-3.12,47.47c-0.12,0.7-0.25,1.39-0.4,2.09c-0.14,0.69-0.31,1.39-0.49,2.09
					l0.67-0.88c-2.55,1.5-4.72,3.57-6.34,6.04c-1.47,2.34-2.52,4.93-3.1,7.63c-0.38,1.7-0.66,3.41-0.84,5.14h2.93
					c-0.32-7.81-1.24-15.59-2.76-23.25c-0.4-2.1-0.83-4.19-1.3-6.28c-0.23-0.77-1.02-1.22-1.8-1.01
					C-17.31,39.27-17.76,40.06-17.57,40.84L-17.57,40.84z"/>
			</g>
			<g id="Group_892" transform="translate(20.862 35.79)">
				<path id="Path_2685" class="st18" d="M-15.56,10.8c10.25,2.56,20.91,4.41,31.5,3.43c8.75-0.8,17.45-3.58,24.54-8.88
					c3.88-2.84,7.16-6.43,9.63-10.56l-2.68-0.35c0.78,4.46,1.63,9,3.81,13.02c1.95,3.78,5.33,6.63,9.39,7.92
					c2.23,0.68,4.61,0.63,6.81-0.14c0.77-0.23,1.22-1.03,1.02-1.8c-0.22-0.77-1.02-1.23-1.8-1.02c-0.41,0.15-0.83,0.28-1.26,0.37
					c-0.12,0.02-0.23,0.05-0.35,0.07c-0.07,0.01-0.46,0.05-0.08,0.01c-0.23,0.02-0.47,0.05-0.7,0.05c-0.43,0.02-0.86,0-1.29-0.04
					c-0.07-0.01-0.46-0.06-0.08,0l-0.23-0.04c-0.27-0.05-0.54-0.1-0.81-0.17c-0.43-0.11-0.84-0.23-1.25-0.39
					c-0.08-0.03-0.15-0.06-0.22-0.09c-0.05-0.02-0.42-0.18-0.1-0.04c-0.22-0.1-0.44-0.2-0.66-0.31c-0.4-0.2-0.79-0.42-1.17-0.66
					c-0.21-0.13-0.41-0.27-0.61-0.41c-0.07-0.05-0.13-0.1-0.2-0.14c-0.07-0.05-0.13-0.1-0.2-0.15c0.13,0.11,0.14,0.11,0.01,0
					c-0.73-0.6-1.4-1.25-2.02-1.97c-0.07-0.08-0.13-0.16-0.19-0.24c-0.05-0.06-0.21-0.28-0.03-0.04c-0.15-0.2-0.3-0.41-0.44-0.62
					c-0.29-0.42-0.55-0.85-0.81-1.29S53.49,5.45,53.27,5c-0.12-0.25-0.23-0.5-0.34-0.75c-0.12-0.27-0.04-0.09-0.01-0.03
					c-0.07-0.17-0.14-0.34-0.21-0.51c-0.38-1-0.71-2.01-0.99-3.04c-0.63-2.3-1.05-4.65-1.46-7c-0.16-0.56-0.64-0.98-1.22-1.05
					c-0.58-0.08-1.16,0.19-1.46,0.7c-0.53,0.89-1.09,1.76-1.7,2.6c-0.15,0.2-0.29,0.4-0.44,0.6c-0.25,0.33,0.18-0.23-0.07,0.1
					c-0.08,0.1-0.15,0.19-0.23,0.29c-0.31,0.39-0.63,0.76-0.96,1.14c-1.34,1.52-2.81,2.91-4.39,4.18c-0.1,0.08-0.19,0.16-0.29,0.23
					c-0.03,0.03-0.36,0.28-0.1,0.08c-0.2,0.15-0.4,0.3-0.6,0.45c-0.43,0.32-0.88,0.63-1.32,0.93c-0.83,0.56-1.68,1.09-2.55,1.59
					c-0.91,0.52-1.83,1.01-2.77,1.46c-0.42,0.2-0.83,0.39-1.26,0.58c-0.23,0.1-0.46,0.2-0.69,0.3c0.32-0.13-0.07,0.03-0.11,0.05
					C29.93,7.94,29.78,8,29.62,8.07c-1.91,0.76-3.87,1.4-5.87,1.9c-1.01,0.26-2.04,0.49-3.07,0.68c-0.46,0.09-0.93,0.17-1.39,0.24
					c-0.77,0.12-1.09,0.17-1.8,0.25C12.38,11.7,7.22,11.7,2.1,11.13c-2.81-0.29-5.47-0.71-8.38-1.26c-2.85-0.55-5.69-1.19-8.51-1.9
					c-0.78-0.22-1.59,0.24-1.81,1.02c-0.22,0.78,0.24,1.59,1.02,1.81C-15.57,10.8-15.57,10.8-15.56,10.8L-15.56,10.8z"/>
			</g>
			<ellipse id="Ellipse_107" class="st18" cx="26.13" cy="74.57" rx="5.17" ry="6.7"/>
			<g id="Group_893" transform="translate(38.004 73.033)">
				<path id="Path_2686" class="st18" d="M-17.45-9.56c0.06-0.09,0.12-0.18,0.18-0.27c0.06-0.09,0.29-0.33,0.02-0.04
					c0.15-0.16,0.27-0.33,0.42-0.49c0.15-0.16,0.3-0.31,0.46-0.45c0.08-0.07,0.17-0.14,0.25-0.21c0.12-0.1-0.12,0.09-0.11,0.09
					c0.05-0.03,0.1-0.07,0.15-0.11c0.36-0.26,0.75-0.49,1.15-0.68c0.1-0.05,0.42-0.14,0.03-0.02c0.09-0.03,0.17-0.07,0.26-0.1
					c0.22-0.08,0.44-0.15,0.66-0.21c0.19-0.05,0.39-0.1,0.59-0.13c0.06,0,0.12-0.01,0.18-0.03c0,0-0.32,0.03-0.16,0.02
					c0.12-0.01,0.24-0.02,0.37-0.03c0.22-0.01,0.43-0.01,0.65-0.01c0.11,0,0.22,0.01,0.33,0.02c0.05,0,0.09,0.01,0.14,0.01
					c0.2,0.01-0.31-0.05-0.11-0.02c0.45,0.07,0.89,0.18,1.31,0.32c0.09,0.03,0.18,0.06,0.26,0.1c0.24,0.09-0.27-0.12,0.04,0.02
					c0.21,0.1,0.42,0.2,0.62,0.32c0.22,0.12,0.43,0.26,0.63,0.41c0.04,0.03,0.08,0.06,0.11,0.08c0.15,0.11-0.28-0.23-0.04-0.03
					c0.08,0.07,0.17,0.14,0.25,0.21c0.19,0.17,0.36,0.34,0.53,0.53c0.08,0.09,0.16,0.19,0.24,0.28c0.1,0.12-0.09-0.11-0.09-0.11
					c0.05,0.08,0.11,0.15,0.16,0.23c0.4,0.7,1.29,0.95,2,0.55c0.71-0.4,0.95-1.29,0.55-2c-0.01-0.01-0.01-0.02-0.02-0.04
					c-1.29-1.87-3.25-3.18-5.47-3.65c-2.21-0.44-4.5-0.01-6.4,1.21c-1.08,0.7-1.99,1.62-2.68,2.71c-0.4,0.7-0.17,1.59,0.53,2.01
					C-18.75-8.64-17.87-8.87-17.45-9.56L-17.45-9.56z"/>
			</g>
			<path id="Path_2687" class="st18" d="M50.59,93.45c0.23-1.07-0.45-2.12-1.52-2.35c-0.14-0.03-0.28-0.05-0.43-0.04H38.49
				c-1.1,0-1.99,0.9-1.99,2c0,0.15,0.02,0.31,0.05,0.46c0.52,2.21,2.12,5.12,7.01,5.12C48.5,98.63,50.09,95.67,50.59,93.45z"/>
			<ellipse id="Ellipse_108" class="st29" cx="19.81" cy="92.86" rx="5.48" ry="3.77"/>
			<ellipse id="Ellipse_109" class="st18" cx="61.01" cy="74.57" rx="5.17" ry="6.7"/>
			<g id="Group_894" transform="translate(84.106 73.024)">
				<path id="Path_2688" class="st18" d="M-14.99-11.03c-1.2-1.9-3.08-3.27-5.26-3.84c-2.2-0.54-4.52-0.21-6.47,0.94
					c-1.12,0.66-2.08,1.56-2.81,2.63c-0.4,0.7-0.17,1.59,0.53,2.01c0.7,0.39,1.58,0.16,2.01-0.53c0.04-0.05,0.24-0.33,0.11-0.15
					s0.09-0.11,0.12-0.14c0.14-0.16,0.29-0.32,0.45-0.48c0.04-0.04,0.49-0.43,0.49-0.43c0,0-0.24,0.18-0.11,0.09
					c0.05-0.04,0.1-0.07,0.15-0.11c0.09-0.06,0.18-0.12,0.27-0.18c0.18-0.12,0.37-0.23,0.57-0.33c0.1-0.05,0.19-0.1,0.29-0.15
					l0.13-0.06c0.24-0.11-0.22,0.08-0.05,0.02c0.41-0.16,0.83-0.28,1.25-0.37c0.11-0.02,0.21-0.04,0.32-0.06
					c0.27-0.05-0.3,0.03-0.02,0c0.23-0.02,0.47-0.03,0.7-0.03c0.22,0,0.43,0.01,0.65,0.03c0.34,0.03-0.24-0.04,0.02,0
					c0.11,0.02,0.21,0.04,0.32,0.06c0.44,0.09,0.85,0.27,1.28,0.39c0.01,0-0.28-0.13-0.14-0.06c0.04,0.02,0.08,0.04,0.13,0.06
					c0.1,0.05,0.19,0.09,0.29,0.14c0.21,0.11,0.4,0.22,0.6,0.35c0.11,0.07,0.21,0.14,0.31,0.21c0.04,0.03,0.07,0.06,0.11,0.08
					c0.15,0.11-0.28-0.23-0.04-0.03c0.18,0.15,0.35,0.3,0.51,0.46c0.17,0.17,0.34,0.35,0.5,0.54c0.03,0.04,0.17,0.2,0.03,0.03
					c-0.14-0.17,0,0,0.02,0.04c0.08,0.11,0.16,0.23,0.23,0.35c0.42,0.69,1.32,0.92,2.01,0.5C-14.83-9.47-14.6-10.34-14.99-11.03
					L-14.99-11.03z"/>
			</g>
			<ellipse id="Ellipse_110" class="st29" cx="67.32" cy="92.86" rx="5.48" ry="3.77"/>
		</g>
	</g>
	<g id="Group_881_1_" transform="translate(1262.823 551.691)">
		<path id="Path_2670_1_" class="st18" d="M-1201.01-308.52c-1.01-6.07-2.72-12.01-5.1-17.69c-0.68-1.64-1.41-3.26-2.19-4.85
			c-0.4-0.7-1.29-0.95-2-0.55c-0.69,0.41-0.93,1.29-0.55,2c0.68,1.41,1.33,2.83,1.94,4.26c0.15,0.36,0.31,0.72,0.45,1.08
			c-0.02-0.04-0.12-0.3-0.02-0.06l0.12,0.3c0.08,0.2,0.16,0.39,0.23,0.59c0.27,0.68,0.53,1.37,0.77,2.06
			c1.01,2.8,1.85,5.66,2.52,8.55c0.39,1.67,0.72,3.35,0.99,5.04c0.21,0.78,1.01,1.25,1.79,1.05
			C-1201.29-306.95-1200.83-307.74-1201.01-308.52L-1201.01-308.52z"/>
	</g>
	<g id="Group_881_2_" transform="translate(1262.823 551.691)">
		<path id="Path_2670_2_" class="st18" d="M-1113.64-307.92c-0.07,0.8,0.5,1.51,1.29,1.62c0.8,0.09,1.53-0.49,1.62-1.29
			c0.03-1.71,0.12-3.43,0.27-5.13c0.26-2.96,0.68-5.91,1.28-8.82c0.15-0.72,0.31-1.44,0.47-2.15c0.05-0.21,0.1-0.41,0.15-0.62
			l0.08-0.31c0.06-0.26-0.01,0.02-0.02,0.06c0.09-0.38,0.19-0.76,0.29-1.14c0.4-1.51,0.84-3.01,1.32-4.49
			c0.27-0.75-0.09-1.59-0.83-1.9c-0.75-0.29-1.6,0.08-1.9,0.83c-0.54,1.69-1.04,3.4-1.48,5.11
			C-1112.64-320.2-1113.5-314.08-1113.64-307.92L-1113.64-307.92z"/>
	</g>
</g>
</svg>
