<?xml version="1.0" encoding="utf-8"?>
<!-- Generator: Adobe Illustrator 25.2.1, SVG Export Plug-In . SVG Version: 6.00 Build 0)  -->
<svg version="1.1" id="Laag_1" xmlns="http://www.w3.org/2000/svg" xmlns:xlink="http://www.w3.org/1999/xlink" x="0px" y="0px"
	 viewBox="0 0 84.75 109.88" style="enable-background:new 0 0 84.75 109.88;" xml:space="preserve">
<style type="text/css">
	.st0{enable-background:new    ;}
	.st1{fill:url(#SVGID_1_);}
	.st2{fill:url(#SVGID_2_);}
	.st3{fill:url(#SVGID_3_);}
	.st4{fill:url(#SVGID_4_);}
	.st5{fill:url(#SVGID_5_);}
	.st6{fill:url(#SVGID_6_);}
	.st7{fill:url(#SVGID_7_);}
	.st8{fill:url(#SVGID_8_);}
	.st9{fill:url(#SVGID_9_);}
	.st10{fill:url(#SVGID_10_);}
	.st11{fill:url(#SVGID_11_);}
	.st12{fill:url(#SVGID_12_);}
	.st13{fill:url(#SVGID_13_);}
	.st14{fill:url(#SVGID_14_);}
	.st15{fill:url(#SVGID_15_);}
	.st16{fill:#EBFED1;stroke:#2C2C2C;stroke-width:2;}
	.st17{fill:#A8E533;}
	.st18{fill:#2C2C2C;}
	.st19{fill:#469612;}
	.st20{fill:#FCC4B9;}
	.st21{fill:#EFA89E;}
	.st22{fill:#A1A7B7;}
	.st23{fill:#FFFA7B;}
	.st24{fill:#BFFD6A;}
	.st25{fill:#C9C9C9;}
	.st26{fill:#FFFFFF;}
	.st27{fill:#D6D8ED;}
	.st28{fill:#8B93A0;}
	.st29{fill:#E18F81;}
	.st30{fill:#F96464;}
	.st31{fill:#1C9337;}
	.st32{fill:#147A27;}
	.st33{fill:#6EB42D;}
	.st34{fill:#619B23;}
	.st35{fill:#DBA065;}
	.st36{fill:#C18753;}
	.st37{fill:#FFD243;}
	.st38{fill:#737581;}
	.st39{fill:#EBFED1;}
	.st40{fill:#51545E;}
	.st41{fill:#40434C;}
	.st42{fill:#5E6270;}
	.st43{fill:#892F58;}
	.st44{fill:#231F20;}
	.st45{fill:#CBFD63;}
	.st46{fill:#001B01;}
	.st47{fill:#FFE98D;}
	.st48{fill:#FFD938;}
	.st49{fill:#525252;}
	.st50{fill:#DFE6F2;}
	.st51{fill:#E8A6A0;}
	.st52{fill:#717171;}
	.st53{fill:#21223F;}
	.st54{fill:#D3D5E2;}
	.st55{fill:#DDDDDD;}
	.st56{fill:#C8DDFC;}
	.st57{clip-path:url(#SVGID_17_);}
	.st58{fill:#67E9FF;}
	.st59{fill:#3B1B6D;}
	.st60{fill:#F96262;}
	.st61{fill:#315775;}
	.st62{fill:#DB9561;}
	.st63{fill:#BC7A4D;}
	.st64{clip-path:url(#SVGID_19_);}
	.st65{fill:#4CA934;}
	.st66{fill:#F9F6E5;}
	.st67{fill:#D8D3BC;}
	.st68{fill:#6F6F6D;}
	.st69{fill:#89C433;}
	.st70{fill:#FEFEFE;}
	.st71{fill:#E7E4EA;}
	.st72{fill:#DDD745;}
	.st73{fill:#9ED85B;}
	.st74{fill:#CCCCCA;}
	.st75{fill:#D3D3D3;}
	.st76{fill:#AEAEAE;}
	.st77{fill:#FEFFFF;}
	.st78{fill:#D5CE35;}
	.st79{fill:#EFF1FE;}
	.st80{fill:#BFFD6A;stroke:#2C2C2C;}
	.st81{fill:none;stroke:#2C2C2C;stroke-width:0.695;stroke-linecap:round;stroke-linejoin:round;}
	.st82{fill:#83E700;stroke:#2C2C2C;stroke-width:0.695;stroke-linecap:round;stroke-linejoin:round;}
	.st83{fill:#001B01;stroke:#2C2C2C;}
	.st84{fill:#469612;stroke:#2C2C2C;stroke-width:3;stroke-miterlimit:10;}
	.st85{fill:#7ECE29;}
	.st86{fill:#FFFA7B;stroke:#000000;stroke-width:2.5;}
	.st87{fill:#FFFA7B;stroke:#000000;stroke-width:2;}
</style>
<g>
	<g id="Group_316" transform="translate(1108.071 -330.34)">
		<path id="Path_2012" d="M-1079.6,400.06c5.41,4.76,9.82,8.09,17.24,8.09h24.89c3.16,0.11,6.12-1.55,7.66-4.31
			c1.47-2.53,1.64-5.61,0.48-8.29c0.87-0.41,1.63-1.01,2.22-1.77c2.16-3.08,2.75-6.98,1.6-10.56c-0.18-0.48-0.42-0.92-0.73-1.33
			c0.51-0.43,0.94-0.94,1.28-1.52c2.06-3.4,2.21-9.73,0.3-13.02c-0.27-0.48-0.61-0.93-1.01-1.32c1.22-1.57,1.84-3.52,1.76-5.5
			c0-4.26-2.49-8.84-7.96-8.85l-20.34-0.02c4.18-6.09,3.87-14.63,1.31-18.77c-1.54-2.48-3.59-2.86-5.17-2.36
			c-1.8,0.04-3.41,1.97-5.88,4.94c-0.9,1.07-1.86,2.23-2.84,3.28c-8.53,9.13-11.32,12.13-12.28,13.21l-2.59,1.1
			c-1.04-2.48-3.47-4.09-6.16-4.09h-15.57c-3.68,0.01-6.67,2.99-6.67,6.68v42.11c0,3.68,2.99,6.67,6.67,6.67h15.57
			C-1083.05,404.42-1080.56,402.67-1079.6,400.06z M-1079.16,356.92l3.91-1.66c0.29-0.12,0.54-0.31,0.74-0.56
			c0.47-0.54,5.56-6,12.45-13.39c1.05-1.12,2.03-2.3,2.98-3.44c0.98-1.28,2.08-2.47,3.28-3.56c0.27,0,0.54-0.06,0.79-0.18
			c0.3-0.13,0.69,0.4,0.9,0.74c2.05,3.31,2.27,12.58-3.57,17.18c-0.82,0.65-0.95,1.83-0.31,2.65c0.36,0.45,0.9,0.71,1.47,0.71
			l24.63,0.02c4.01,0,4.21,4.23,4.21,5.08c0,2.08-0.82,3.23-1.17,3.23l-0.33,0.01c-1.33-0.06-2.46,0.98-2.52,2.32
			c0,0.03,0,0.06,0,0.08c0.08,1.36,1.25,2.39,2.61,2.31c0.05,0,0.09-0.01,0.14-0.01c0.18,0.01,0.57-0.01,1.02,0.77
			c1.24,2.14,1.1,6.94-0.26,9.19c-0.27,0.44-0.53,0.67-0.66,0.67l0,0c-0.15-0.01-0.3,0.01-0.44,0.03c-1.28,0.18-2.23,1.26-2.24,2.55
			c0.04,1.24,0.98,2.26,2.21,2.4c0.56,0.43,1.09,3.5-0.04,6.16c-0.96,2.27-2.19,2.08-2.59,2.01c-0.1-0.02-0.19-0.02-0.29-0.02h-0.73
			c-0.92-0.07-1.8,0.36-2.31,1.14c-0.44,0.7-0.46,1.59-0.06,2.32c0.48,0.81,1.37,1.29,2.31,1.25l0,0c0.01-0.02,0.14-0.01,0.32,0.29
			c0.63,1.56,0.5,3.32-0.37,4.76c-0.88,1.58-2.58,2.51-4.39,2.4h-24.89c-6.75,0-10.39-3.25-16.43-8.64l-0.37-0.33V356.92z
			 M-1082.92,355.68v42.07c0,1.61-1.31,2.91-2.91,2.91h-15.57c-1.61,0-2.9-1.31-2.9-2.91v-42.11c0-1.61,1.3-2.91,2.9-2.91h15.57
			c1.61,0,2.91,1.3,2.91,2.91L-1082.92,355.68z"/>
		<path id="Path_2013" class="st20" d="M-1079.16,356.92l3.91-1.66c0.29-0.12,0.54-0.31,0.74-0.56c0.47-0.54,5.56-6,12.45-13.39
			c1.05-1.12,2.03-2.3,2.98-3.44c0.98-1.28,2.08-2.47,3.28-3.56c0.27,0,0.54-0.06,0.79-0.18c0.3-0.13,0.69,0.4,0.9,0.74
			c2.05,3.31,2.27,12.58-3.57,17.18c-0.82,0.65-0.95,1.83-0.31,2.65c0.36,0.45,0.9,0.71,1.47,0.71l24.63,0.02
			c4.01,0,4.21,4.23,4.21,5.08c0,2.08-0.82,3.23-1.17,3.23l-0.33,0.01c-1.33-0.06-2.46,0.98-2.52,2.32c0,0.03,0,0.06,0,0.08
			c0.08,1.36,1.25,2.39,2.61,2.31c0.05,0,0.09-0.01,0.14-0.01c0.18,0.01,0.57-0.01,1.02,0.77c1.24,2.14,1.1,6.94-0.26,9.19
			c-0.27,0.44-0.53,0.67-0.66,0.67l0,0c-0.15-0.01-0.3,0.01-0.44,0.03c-1.28,0.18-2.23,1.26-2.24,2.55c0.04,1.24,0.98,2.26,2.21,2.4
			c0.56,0.43,1.09,3.5-0.04,6.16c-0.96,2.27-2.19,2.08-2.59,2.01c-0.1-0.02-0.19-0.02-0.29-0.02h-0.73
			c-0.92-0.07-1.8,0.36-2.31,1.14c-0.44,0.7-0.46,1.59-0.06,2.32c0.48,0.81,1.37,1.29,2.31,1.25l0,0c0.01-0.02,0.14-0.01,0.32,0.29
			c0.63,1.56,0.5,3.32-0.37,4.76c-0.88,1.58-2.58,2.51-4.39,2.4h-24.89c-6.75,0-10.4-3.25-16.43-8.64l-0.37-0.33V356.92z"/>
		<path id="Path_2014" class="st19" d="M-1082.92,355.68v42.07c0,1.61-1.31,2.91-2.91,2.91h-15.57c-1.61,0-2.91-1.31-2.91-2.91
			v-42.11c0-1.61,1.3-2.91,2.91-2.91h15.57c1.61,0,2.91,1.3,2.91,2.91V355.68z"/>
	</g>
	<path id="Path_2015" class="st86" d="M53.43,90.26l-7.74-1.5l-3.82-6.9c-0.46-0.83-1.5-1.13-2.33-0.67
		c-0.28,0.16-0.52,0.39-0.67,0.67l-3.82,6.9l-7.74,1.5c-0.93,0.18-1.54,1.08-1.36,2.02c0.06,0.32,0.21,0.61,0.43,0.84l5.39,5.76
		l-0.97,7.82c-0.12,0.94,0.55,1.8,1.49,1.92c0.32,0.04,0.64-0.01,0.94-0.15l7.14-3.34l7.14,3.34c0.86,0.4,1.88,0.03,2.28-0.83
		c0.14-0.29,0.19-0.62,0.15-0.94l-0.97-7.82l5.39-5.76c0.65-0.69,0.61-1.78-0.09-2.43C54.04,90.47,53.75,90.32,53.43,90.26
		L53.43,90.26z"/>
	<path id="Path_2016" class="st87" d="M21.44,97.22l-2.51-3.71l1.24-4.3c0.15-0.52-0.15-1.06-0.67-1.21c-0.18-0.05-0.36-0.05-0.54,0
		l-4.3,1.24l-3.71-2.5C10.51,86.43,9.9,86.55,9.6,87c-0.1,0.15-0.16,0.33-0.17,0.51l-0.15,4.47l-3.53,2.75
		c-0.42,0.33-0.5,0.95-0.17,1.37c0.11,0.14,0.26,0.25,0.43,0.31l4.21,1.52l1.52,4.21c0.18,0.51,0.74,0.77,1.25,0.58
		c0.17-0.06,0.32-0.17,0.43-0.31l2.75-3.53l4.48-0.15c0.54-0.02,0.96-0.47,0.94-1.01C21.6,97.55,21.54,97.37,21.44,97.22
		L21.44,97.22z"/>
	<path id="Path_2017" class="st87" d="M74.24,97.22l-2.51-3.71l1.24-4.3c0.15-0.52-0.15-1.06-0.67-1.21c-0.18-0.05-0.36-0.05-0.54,0
		l-4.3,1.24l-3.71-2.5c-0.45-0.3-1.05-0.18-1.35,0.26c-0.1,0.15-0.16,0.33-0.17,0.51l-0.15,4.47l-3.53,2.75
		c-0.42,0.33-0.5,0.95-0.17,1.37c0.11,0.14,0.26,0.25,0.43,0.31l4.21,1.52l1.52,4.21c0.18,0.51,0.74,0.77,1.25,0.58
		c0.17-0.06,0.32-0.17,0.43-0.31L69,98.89l4.48-0.15c0.54-0.02,0.96-0.47,0.94-1.01C74.41,97.55,74.35,97.37,74.24,97.22
		L74.24,97.22z"/>
</g>
</svg>
