<?xml version="1.0" encoding="utf-8"?>
<!-- Generator: Adobe Illustrator 25.2.1, SVG Export Plug-In . SVG Version: 6.00 Build 0)  -->
<svg version="1.1" id="Laag_1" xmlns="http://www.w3.org/2000/svg" xmlns:xlink="http://www.w3.org/1999/xlink" x="0px" y="0px"
	 viewBox="0 0 69.86 39.98" style="enable-background:new 0 0 69.86 39.98;" xml:space="preserve">
<style type="text/css">
	.st0{enable-background:new    ;}
	.st1{fill:url(#SVGID_1_);}
	.st2{fill:url(#SVGID_2_);}
	.st3{fill:url(#SVGID_3_);}
	.st4{fill:url(#SVGID_4_);}
	.st5{fill:url(#SVGID_5_);}
	.st6{fill:url(#SVGID_6_);}
	.st7{fill:url(#SVGID_7_);}
	.st8{fill:url(#SVGID_8_);}
	.st9{fill:url(#SVGID_9_);}
	.st10{fill:url(#SVGID_10_);}
	.st11{fill:url(#SVGID_11_);}
	.st12{fill:url(#SVGID_12_);}
	.st13{fill:url(#SVGID_13_);}
	.st14{fill:url(#SVGID_14_);}
	.st15{fill:url(#SVGID_15_);}
	.st16{fill:#EBFED1;stroke:#2C2C2C;stroke-width:2;}
	.st17{fill:#A8E533;}
	.st18{fill:#2C2C2C;}
	.st19{fill:#469612;}
	.st20{fill:#FCC4B9;}
	.st21{fill:#EFA89E;}
	.st22{fill:#A1A7B7;}
	.st23{fill:#FFFA7B;}
	.st24{fill:#BFFD6A;}
	.st25{fill:#C9C9C9;}
	.st26{fill:#FFFFFF;}
	.st27{fill:#D6D8ED;}
	.st28{fill:#8B93A0;}
	.st29{fill:#E18F81;}
	.st30{fill:#F96464;}
	.st31{fill:#1C9337;}
	.st32{fill:#147A27;}
	.st33{fill:#6EB42D;}
	.st34{fill:#619B23;}
	.st35{fill:#DBA065;}
	.st36{fill:#C18753;}
	.st37{fill:#FFD243;}
	.st38{fill:#737581;}
	.st39{fill:#EBFED1;}
	.st40{fill:#51545E;}
	.st41{fill:#40434C;}
	.st42{fill:#5E6270;}
	.st43{fill:#892F58;}
	.st44{fill:#231F20;}
	.st45{fill:#CBFD63;}
	.st46{fill:#001B01;}
	.st47{fill:#FFE98D;}
	.st48{fill:#FFD938;}
	.st49{fill:#525252;}
	.st50{fill:#DFE6F2;}
	.st51{fill:#E8A6A0;}
	.st52{fill:#717171;}
	.st53{fill:#21223F;}
	.st54{fill:#D3D5E2;}
	.st55{fill:#DDDDDD;}
	.st56{fill:#C8DDFC;}
	.st57{clip-path:url(#SVGID_17_);}
	.st58{fill:#67E9FF;}
	.st59{fill:#3B1B6D;}
	.st60{fill:#F96262;}
	.st61{fill:#315775;}
	.st62{fill:#DB9561;}
	.st63{fill:#BC7A4D;}
	.st64{clip-path:url(#SVGID_19_);}
	.st65{fill:#4CA934;}
	.st66{fill:#F9F6E5;}
	.st67{fill:#D8D3BC;}
	.st68{fill:#6F6F6D;}
	.st69{fill:#89C433;}
	.st70{fill:#FEFEFE;}
	.st71{fill:#E7E4EA;}
	.st72{fill:#DDD745;}
	.st73{fill:#9ED85B;}
	.st74{fill:#CCCCCA;}
	.st75{fill:#D3D3D3;}
	.st76{fill:#AEAEAE;}
	.st77{fill:#FEFFFF;}
	.st78{fill:#D5CE35;}
	.st79{fill:#EFF1FE;}
	.st80{fill:#BFFD6A;stroke:#2C2C2C;}
	.st81{fill:none;stroke:#2C2C2C;stroke-width:0.695;stroke-linecap:round;stroke-linejoin:round;}
	.st82{fill:#83E700;stroke:#2C2C2C;stroke-width:0.695;stroke-linecap:round;stroke-linejoin:round;}
	.st83{fill:#001B01;stroke:#2C2C2C;}
	.st84{fill:#469612;stroke:#2C2C2C;stroke-width:3;stroke-miterlimit:10;}
	.st85{fill:#7ECE29;}
	.st86{fill:#FFFA7B;stroke:#000000;stroke-width:2.5;}
	.st87{fill:#FFFA7B;stroke:#000000;stroke-width:2;}
</style>
<g>
	
		<ellipse transform="matrix(0.9871 -0.1602 0.1602 0.9871 -0.5321 4.3131)" class="st26" cx="26.49" cy="5.46" rx="4.86" ry="4.86"/>
	<path class="st26" d="M30.13,11.53h-0.86c-1.77,0.81-3.8,0.81-5.56,0h-0.86c-2.01,0-3.64,1.63-3.64,3.64v0.29
		c-0.42,0.02-0.84,0.18-1.17,0.51c0,0,0,0,0,0l-4.74,4.74H7.73l-4.74-4.74c-0.68-0.68-1.79-0.68-2.48,0s-0.68,1.79,0,2.48l5.18,5.18
		v14.6c0,0.97,0.78,1.75,1.75,1.75c0,0,0,0,0,0h0.88c0.97,0,1.75-0.78,1.75-1.75V32.1h0.88v6.13c0,0.97,0.78,1.75,1.75,1.75h0.88
		c0.97,0,1.75-0.78,1.75-1.75v-14.6l3.87-3.87v5.74c0,1.01,0.82,1.82,1.82,1.82h1.21v10.33c0,1.01,0.82,1.82,1.82,1.82h4.86
		c1.01,0,1.82-0.82,1.82-1.82V27.32h1.22c1.01,0,1.82-0.82,1.82-1.82c0,0,0,0,0,0V15.17C33.77,13.16,32.14,11.53,30.13,11.53z"/>
	<path class="st26" d="M43.07,9.85c2.72,0,4.93-2.2,4.93-4.93c0-2.72-2.2-4.93-4.93-4.93c0,0,0,0,0,0c-2.72,0-4.93,2.21-4.93,4.93
		C38.14,7.65,40.35,9.85,43.07,9.85z"/>
	<path class="st26" d="M10.51,19.83c2.18,0,3.94-1.76,3.94-3.94c0-2.18-1.76-3.94-3.94-3.94c-2.18,0-3.94,1.76-3.94,3.94
		C6.57,18.07,8.34,19.83,10.51,19.83z"/>
	<path class="st26" d="M69.35,15.97c-0.68-0.68-1.79-0.68-2.48,0c0,0,0,0,0,0l-4.74,4.74h-5.56l-4.74-4.74
		c-0.67-0.67-1.73-0.68-2.42-0.05l-0.86-3.44c-0.21-0.82-0.94-1.4-1.79-1.4h-0.88c-1.79,0.82-3.85,0.82-5.64,0h-0.88
		c-0.85,0-1.59,0.58-1.79,1.4l-3.7,14.78c-0.25,0.99,0.35,1.99,1.34,2.24c0.15,0.04,0.3,0.06,0.45,0.06h4.31v8.01
		c0,1.02,0.83,1.85,1.85,1.84c0,0,0.01,0,0.01,0h2.46c1.02,0,1.85-0.83,1.85-1.85v-8.01h4.31c1.02,0,1.85-0.83,1.85-1.85
		c0-0.15-0.02-0.3-0.06-0.45v0l-1.98-7.9l4.26,4.26v14.6c0,0.97,0.78,1.75,1.75,1.75c0,0,0,0,0,0h0.88c0.97,0,1.75-0.78,1.75-1.75
		V32.1h0.88v6.13c0,0.97,0.78,1.75,1.75,1.75h0.88c0.97,0,1.75-0.78,1.75-1.75v-14.6l5.18-5.18C70.03,17.76,70.03,16.65,69.35,15.97
		z"/>
	<path class="st26" d="M59.35,19.83c2.18,0,3.94-1.76,3.94-3.94c0-2.18-1.76-3.94-3.94-3.94s-3.94,1.76-3.94,3.94
		C55.41,18.07,57.18,19.83,59.35,19.83z"/>
</g>
</svg>
