<?xml version="1.0" encoding="utf-8"?>
<!-- Generator: Adobe Illustrator 25.2.1, SVG Export Plug-In . SVG Version: 6.00 Build 0)  -->
<svg version="1.1" id="Laag_1" xmlns="http://www.w3.org/2000/svg" xmlns:xlink="http://www.w3.org/1999/xlink" x="0px" y="0px"
	 viewBox="0 0 514.58 212.23" style="enable-background:new 0 0 514.58 212.23;" xml:space="preserve">
<style type="text/css">
	.st0{enable-background:new    ;}
	.st1{fill:url(#SVGID_1_);}
	.st2{fill:url(#SVGID_2_);}
	.st3{fill:url(#SVGID_3_);}
	.st4{fill:url(#SVGID_4_);}
	.st5{fill:url(#SVGID_5_);}
	.st6{fill:url(#SVGID_6_);}
	.st7{fill:url(#SVGID_7_);}
	.st8{fill:url(#SVGID_8_);}
	.st9{fill:url(#SVGID_9_);}
	.st10{fill:url(#SVGID_10_);}
	.st11{fill:url(#SVGID_11_);}
	.st12{fill:url(#SVGID_12_);}
	.st13{fill:url(#SVGID_13_);}
	.st14{fill:url(#SVGID_14_);}
	.st15{fill:url(#SVGID_15_);}
	.st16{fill:#EBFED1;stroke:#2C2C2C;stroke-width:2;}
	.st17{fill:#A8E533;}
	.st18{fill:#2C2C2C;}
	.st19{fill:#469612;}
	.st20{fill:#FCC4B9;}
	.st21{fill:#EFA89E;}
	.st22{fill:#A1A7B7;}
	.st23{fill:#FFFA7B;}
	.st24{fill:#BFFD6A;}
	.st25{fill:#C9C9C9;}
	.st26{fill:#FFFFFF;}
	.st27{fill:#D6D8ED;}
	.st28{fill:#8B93A0;}
	.st29{fill:#E18F81;}
	.st30{fill:#F96464;}
	.st31{fill:#1C9337;}
	.st32{fill:#147A27;}
	.st33{fill:#6EB42D;}
	.st34{fill:#619B23;}
	.st35{fill:#DBA065;}
	.st36{fill:#C18753;}
	.st37{fill:#FFD243;}
	.st38{fill:#737581;}
	.st39{fill:#EBFED1;}
	.st40{fill:#51545E;}
	.st41{fill:#40434C;}
	.st42{fill:#5E6270;}
	.st43{fill:#892F58;}
	.st44{fill:#231F20;}
	.st45{fill:#CBFD63;}
	.st46{fill:#001B01;}
	.st47{fill:#FFE98D;}
	.st48{fill:#FFD938;}
	.st49{fill:#525252;}
	.st50{fill:#DFE6F2;}
	.st51{fill:#E8A6A0;}
	.st52{fill:#717171;}
	.st53{fill:#21223F;}
	.st54{fill:#D3D5E2;}
	.st55{fill:#DDDDDD;}
	.st56{fill:#C8DDFC;}
	.st57{clip-path:url(#SVGID_17_);}
	.st58{fill:#67E9FF;}
	.st59{fill:#3B1B6D;}
	.st60{fill:#F96262;}
	.st61{fill:#315775;}
	.st62{fill:#DB9561;}
	.st63{fill:#BC7A4D;}
	.st64{clip-path:url(#SVGID_19_);}
	.st65{fill:#4CA934;}
	.st66{fill:#F9F6E5;}
	.st67{fill:#D8D3BC;}
	.st68{fill:#6F6F6D;}
	.st69{fill:#89C433;}
	.st70{fill:#FEFEFE;}
	.st71{fill:#E7E4EA;}
	.st72{fill:#DDD745;}
	.st73{fill:#9ED85B;}
	.st74{fill:#CCCCCA;}
	.st75{fill:#D3D3D3;}
	.st76{fill:#AEAEAE;}
	.st77{fill:#FEFFFF;}
	.st78{fill:#D5CE35;}
	.st79{fill:#EFF1FE;}
	.st80{fill:#BFFD6A;stroke:#2C2C2C;}
	.st81{fill:none;stroke:#2C2C2C;stroke-width:0.695;stroke-linecap:round;stroke-linejoin:round;}
	.st82{fill:#83E700;stroke:#2C2C2C;stroke-width:0.695;stroke-linecap:round;stroke-linejoin:round;}
	.st83{fill:#001B01;stroke:#2C2C2C;}
	.st84{fill:#469612;stroke:#2C2C2C;stroke-width:3;stroke-miterlimit:10;}
	.st85{fill:#7ECE29;}
	.st86{fill:#FFFA7B;stroke:#000000;stroke-width:2.5;}
	.st87{fill:#FFFA7B;stroke:#000000;stroke-width:2;}
</style>
<g>
	<g class="st0">
		<path d="M171.46,126.55h4.42l8.79,21.61l8.73-21.61h4.47l-10.97,26.36h-4.47L171.46,126.55z"/>
		<path d="M213.59,125.9c7.97,0,12.66,6.22,12.66,14.13v1.04h-21.33c0.33,4.97,3.82,9.11,9.49,9.11c3,0,6.06-1.2,8.13-3.33
			l1.96,2.67c-2.62,2.62-6.17,4.04-10.48,4.04c-7.8,0-13.42-5.62-13.42-13.86C200.6,132.07,206.05,125.9,213.59,125.9z
			 M204.91,138.07h17.3c-0.05-3.93-2.67-8.79-8.68-8.79C207.91,129.28,205.13,134.03,204.91,138.07z"/>
		<path d="M232.85,126.55h4.09v4.26c2.13-2.78,5.18-4.8,8.79-4.8v4.2c-0.49-0.11-0.98-0.16-1.64-0.16c-2.51,0-5.95,2.07-7.15,4.2
			v18.66h-4.09V126.55z"/>
		<path d="M252.87,156.62c2.18,2.62,4.8,3.6,8.57,3.6c4.37,0,8.46-2.13,8.46-7.91v-3.76c-1.91,2.67-5.13,4.69-8.84,4.69
			c-6.88,0-11.73-5.13-11.73-13.64c0-8.46,4.8-13.7,11.73-13.7c3.55,0,6.71,1.75,8.84,4.64v-3.98h4.09v25.59
			c0,8.73-6.11,11.46-12.55,11.46c-4.47,0-7.53-0.87-10.64-3.93L252.87,156.62z M269.9,133.81c-1.42-2.29-4.58-4.26-7.86-4.26
			c-5.29,0-8.46,4.2-8.46,10.04c0,5.78,3.16,10.04,8.46,10.04c3.27,0,6.44-2.02,7.86-4.31V133.81z"/>
		<path d="M293.63,125.9c7.97,0,12.66,6.22,12.66,14.13v1.04h-21.33c0.33,4.97,3.82,9.11,9.5,9.11c3,0,6.06-1.2,8.13-3.33l1.96,2.67
			c-2.62,2.62-6.17,4.04-10.48,4.04c-7.8,0-13.42-5.62-13.42-13.86C280.65,132.07,286.11,125.9,293.63,125.9z M284.96,138.07h17.3
			c-0.05-3.93-2.67-8.79-8.68-8.79C287.96,129.28,285.18,134.03,284.96,138.07z"/>
		<path d="M312.9,116.51h4.09v36.4h-4.09V116.51z"/>
		<path d="M324.47,119.35c0-1.53,1.25-2.73,2.73-2.73c1.53,0,2.78,1.2,2.78,2.73c0,1.53-1.26,2.78-2.78,2.78
			C325.72,122.13,324.47,120.88,324.47,119.35z M325.18,126.55h4.09v26.36h-4.09V126.55z"/>
		<path d="M341.55,155.47c0,5.18-2.78,8.13-7.75,8.13c-1.15,0-2.07-0.11-2.95-0.38l0.54-3.44c0.55,0.22,1.31,0.27,1.96,0.27
			c2.4,0,4.09-1.26,4.09-4.58v-28.92h4.09V155.47z M336.74,119.35c0-1.53,1.25-2.73,2.73-2.73c1.53,0,2.78,1.2,2.78,2.73
			c0,1.53-1.26,2.78-2.78,2.78C338,122.13,336.74,120.88,336.74,119.35z"/>
		<path d="M358.19,141.07l-4.37,4.31v7.53h-4.09v-36.4h4.09v24.06l13.86-14.02h5.18l-11.68,11.95l11.73,14.41h-5.24L358.19,141.07z"
			/>
		<path d="M387.98,125.9c7.97,0,12.66,6.22,12.66,14.13v1.04h-21.33c0.33,4.97,3.82,9.11,9.49,9.11c3,0,6.06-1.2,8.13-3.33
			l1.96,2.67c-2.62,2.62-6.17,4.04-10.48,4.04c-7.8,0-13.42-5.62-13.42-13.86C375,132.07,380.45,125.9,387.98,125.9z M379.31,138.07
			h17.3c-0.05-3.93-2.67-8.79-8.68-8.79C382.31,129.28,379.52,134.03,379.31,138.07z"/>
		<path d="M407.25,126.55h4.09v4.26c2.13-2.78,5.18-4.8,8.79-4.8v4.2c-0.49-0.11-0.98-0.16-1.64-0.16c-2.51,0-5.95,2.07-7.15,4.2
			v18.66h-4.09V126.55z"/>
		<path d="M422.91,147.45c1.64,0,3,1.36,3,3c0,1.64-1.36,3-3,3c-1.64,0-3-1.36-3-3C419.91,148.82,421.27,147.45,422.91,147.45z"/>
		<path d="M451.06,135.67c0-4.64-2.35-6.11-5.89-6.11c-3.22,0-6.27,1.96-7.8,4.09v19.26h-4.09v-26.36h4.09v3.82
			c1.86-2.18,5.46-4.47,9.39-4.47c5.51,0,8.4,2.78,8.4,8.51v18.5h-4.09V135.67z"/>
		<path d="M463.34,116.51h4.09v36.4h-4.09V116.51z"/>
	</g>
	<g>
		<linearGradient id="SVGID_1_" gradientUnits="userSpaceOnUse" x1="39.0946" y1="-4.5399" x2="373.994" y2="195.4601">
			<stop  offset="0" style="stop-color:#BFFD6A"/>
			<stop  offset="1" style="stop-color:#479635"/>
			<stop  offset="1" style="stop-color:#000000"/>
		</linearGradient>
		<path class="st1" d="M198.25,82.78c3.44-0.71,6.27-3.77,6.27-8.35c0-4.86-3.55-9.28-10.48-9.28H174.9v36.4h19.75
			c6.93,0,10.59-4.37,10.59-9.82C205.24,87.14,202.13,83.38,198.25,82.78z M182.65,71.76h9.71c2.62,0,4.26,1.75,4.26,3.98
			c0,2.35-1.64,4.04-4.26,4.04h-9.71V71.76z M192.63,94.95h-9.99v-8.57h9.99c3.06,0,4.69,1.96,4.69,4.26
			C197.32,93.26,195.58,94.95,192.63,94.95z"/>
		<linearGradient id="SVGID_2_" gradientUnits="userSpaceOnUse" x1="46.489" y1="-16.9217" x2="381.3883" y2="183.0783">
			<stop  offset="0" style="stop-color:#BFFD6A"/>
			<stop  offset="1" style="stop-color:#479635"/>
			<stop  offset="1" style="stop-color:#000000"/>
		</linearGradient>
		<path class="st2" d="M222.86,74.54c-8.02,0-13.64,6.17-13.64,13.81c0,8.46,6.06,13.86,14.08,13.86c4.09,0,8.24-1.25,10.86-3.66
			l-3.06-4.47c-1.69,1.64-4.58,2.62-7.04,2.62c-4.47,0-7.15-2.78-7.58-6.11h19.59v-1.53C236.07,80.43,230.72,74.54,222.86,74.54z
			 M216.37,85.89c0.33-2.62,2.18-5.84,6.49-5.84c4.58,0,6.33,3.33,6.49,5.84H216.37z"/>
		<linearGradient id="SVGID_3_" gradientUnits="userSpaceOnUse" x1="53.7035" y1="-29.0023" x2="388.6028" y2="170.9977">
			<stop  offset="0" style="stop-color:#BFFD6A"/>
			<stop  offset="1" style="stop-color:#479635"/>
			<stop  offset="1" style="stop-color:#000000"/>
		</linearGradient>
		<path class="st3" d="M251.4,85.13c-2.95-0.6-5.02-1.2-5.02-2.84c0-1.53,1.64-2.46,4.15-2.46c3.22,0,6.22,1.36,7.8,3.06l2.78-4.75
			c-2.62-2.07-6.17-3.6-10.64-3.6c-6.93,0-10.8,3.87-10.8,8.29c0,6.27,5.84,7.37,10.37,8.24c3,0.6,5.29,1.25,5.29,3.11
			c0,1.64-1.42,2.67-4.42,2.67c-3.27,0-7.2-1.8-9.11-3.6l-3,4.86c2.78,2.56,7.2,4.09,11.79,4.09c7.31,0,11.4-3.66,11.4-8.46
			C261.99,87.2,255.93,86,251.4,85.13z"/>
		<linearGradient id="SVGID_4_" gradientUnits="userSpaceOnUse" x1="61.4763" y1="-42.0179" x2="396.3756" y2="157.9821">
			<stop  offset="0" style="stop-color:#BFFD6A"/>
			<stop  offset="1" style="stop-color:#479635"/>
			<stop  offset="1" style="stop-color:#000000"/>
		</linearGradient>
		<path class="st4" d="M277.87,96.04c-1.53,0-2.4-1.25-2.4-2.89v-11.9h5.35V75.2h-5.35v-7.2h-6.98v7.2h-4.37v6.06h4.37V95
			c0,4.69,2.62,7.2,7.48,7.2c2.89,0,4.75-0.76,5.78-1.69l-1.47-5.24C279.88,95.66,278.9,96.04,277.87,96.04z"/>
		<linearGradient id="SVGID_5_" gradientUnits="userSpaceOnUse" x1="66.1132" y1="-49.7823" x2="401.0125" y2="150.2177">
			<stop  offset="0" style="stop-color:#BFFD6A"/>
			<stop  offset="1" style="stop-color:#479635"/>
			<stop  offset="1" style="stop-color:#000000"/>
		</linearGradient>
		<path class="st5" d="M297.51,74.54c-8.02,0-13.64,6.17-13.64,13.81c0,8.46,6.06,13.86,14.08,13.86c4.09,0,8.24-1.25,10.86-3.66
			l-3.06-4.47c-1.69,1.64-4.58,2.62-7.04,2.62c-4.47,0-7.15-2.78-7.58-6.11h19.59v-1.53C310.72,80.43,305.37,74.54,297.51,74.54z
			 M291.02,85.89c0.33-2.62,2.18-5.84,6.49-5.84c4.58,0,6.33,3.33,6.49,5.84H291.02z"/>
		<linearGradient id="SVGID_6_" gradientUnits="userSpaceOnUse" x1="72.1795" y1="-59.9404" x2="407.0789" y2="140.0596">
			<stop  offset="0" style="stop-color:#BFFD6A"/>
			<stop  offset="1" style="stop-color:#479635"/>
			<stop  offset="1" style="stop-color:#000000"/>
		</linearGradient>
		<rect x="313.94" y="85.4" class="st6" width="13.1" height="5.89"/>
		<linearGradient id="SVGID_7_" gradientUnits="userSpaceOnUse" x1="78.3494" y1="-70.2718" x2="413.2487" y2="129.7282">
			<stop  offset="0" style="stop-color:#BFFD6A"/>
			<stop  offset="1" style="stop-color:#479635"/>
			<stop  offset="1" style="stop-color:#000000"/>
		</linearGradient>
		<path class="st7" d="M344.06,74.54c-8.02,0-13.64,6.17-13.64,13.81c0,8.46,6.06,13.86,14.08,13.86c4.09,0,8.24-1.25,10.86-3.66
			l-3.06-4.47c-1.69,1.64-4.58,2.62-7.04,2.62c-4.47,0-7.15-2.78-7.58-6.11h19.59v-1.53C357.26,80.43,351.91,74.54,344.06,74.54z
			 M337.56,85.89c0.33-2.62,2.18-5.84,6.49-5.84c4.58,0,6.33,3.33,6.49,5.84H337.56z"/>
		<linearGradient id="SVGID_8_" gradientUnits="userSpaceOnUse" x1="85.8264" y1="-82.792" x2="420.7257" y2="117.208">
			<stop  offset="0" style="stop-color:#BFFD6A"/>
			<stop  offset="1" style="stop-color:#479635"/>
			<stop  offset="1" style="stop-color:#000000"/>
		</linearGradient>
		<path class="st8" d="M378.43,74.54c-4.31,0-7.53,2.07-9.22,4.09V75.2h-6.93v26.35h6.93V83.82c1.15-1.58,3.27-3.11,6-3.11
			c2.95,0,4.86,1.26,4.86,4.91v15.93H387V82.94C387,77.81,384.22,74.54,378.43,74.54z"/>
		<linearGradient id="SVGID_9_" gradientUnits="userSpaceOnUse" x1="94.5882" y1="-97.4637" x2="429.4875" y2="102.5363">
			<stop  offset="0" style="stop-color:#BFFD6A"/>
			<stop  offset="1" style="stop-color:#479635"/>
			<stop  offset="1" style="stop-color:#000000"/>
		</linearGradient>
		<path class="st9" d="M405.83,74.54c-8.02,0-13.64,6.17-13.64,13.81c0,8.46,6.06,13.86,14.08,13.86c4.09,0,8.24-1.25,10.86-3.66
			l-3.06-4.47c-1.69,1.64-4.58,2.62-7.04,2.62c-4.47,0-7.15-2.78-7.58-6.11h19.59v-1.53C419.03,80.43,413.69,74.54,405.83,74.54z
			 M399.34,85.89c0.33-2.62,2.18-5.84,6.49-5.84c4.58,0,6.33,3.33,6.49,5.84H399.34z"/>
		<linearGradient id="SVGID_10_" gradientUnits="userSpaceOnUse" x1="101.5422" y1="-109.1081" x2="436.4415" y2="90.8919">
			<stop  offset="0" style="stop-color:#BFFD6A"/>
			<stop  offset="1" style="stop-color:#479635"/>
			<stop  offset="1" style="stop-color:#000000"/>
		</linearGradient>
		<path class="st10" d="M430.98,78.8v-3.6h-6.93v26.35h6.93V84.14c1.15-1.69,4.2-3,6.49-3c0.76,0,1.42,0.11,1.91,0.22v-6.77
			C436.11,74.59,432.84,76.45,430.98,78.8z"/>
		<linearGradient id="SVGID_11_" gradientUnits="userSpaceOnUse" x1="106.2201" y1="-116.9413" x2="441.1194" y2="83.0587">
			<stop  offset="0" style="stop-color:#BFFD6A"/>
			<stop  offset="1" style="stop-color:#479635"/>
			<stop  offset="1" style="stop-color:#000000"/>
		</linearGradient>
		<path class="st11" d="M461.76,78.58c-2.13-2.67-4.97-4.04-8.13-4.04c-6.66,0-11.62,4.8-11.62,13.42c0,8.79,5.02,13.42,11.62,13.42
			c3.22,0,6.06-1.53,8.13-4.15v2.67c0,5.18-3.93,6.66-7.26,6.66c-3.33,0-6.11-0.93-8.24-3.27l-3.11,5.02
			c3.33,2.89,6.82,3.93,11.35,3.93c6.49,0,14.24-2.46,14.24-12.5V75.2h-6.98V78.58z M461.76,92.22c-1.15,1.69-3.66,3-5.95,3
			c-3.93,0-6.66-2.73-6.66-7.26s2.73-7.26,6.66-7.26c2.29,0,4.8,1.26,5.95,3V92.22z"/>
		<linearGradient id="SVGID_12_" gradientUnits="userSpaceOnUse" x1="113.8615" y1="-129.7367" x2="448.7608" y2="70.2633">
			<stop  offset="0" style="stop-color:#BFFD6A"/>
			<stop  offset="1" style="stop-color:#479635"/>
			<stop  offset="1" style="stop-color:#000000"/>
		</linearGradient>
		<rect x="475.62" y="75.2" class="st12" width="6.93" height="26.35"/>
		<linearGradient id="SVGID_13_" gradientUnits="userSpaceOnUse" x1="123.1892" y1="-145.3559" x2="458.0885" y2="54.6441">
			<stop  offset="0" style="stop-color:#BFFD6A"/>
			<stop  offset="1" style="stop-color:#479635"/>
			<stop  offset="1" style="stop-color:#000000"/>
		</linearGradient>
		<path class="st13" d="M479.06,63.03c-2.24,0-4.15,1.85-4.15,4.15c0,2.29,1.91,4.15,4.15,4.15c2.29,0,4.15-1.86,4.15-4.15
			C483.21,64.88,481.35,63.03,479.06,63.03z"/>
		<linearGradient id="SVGID_14_" gradientUnits="userSpaceOnUse" x1="119.7064" y1="-139.524" x2="454.6057" y2="60.476">
			<stop  offset="0" style="stop-color:#BFFD6A"/>
			<stop  offset="1" style="stop-color:#479635"/>
			<stop  offset="1" style="stop-color:#000000"/>
		</linearGradient>
		<path class="st14" d="M514.58,89.05c0-8.62-5.35-14.51-13.21-14.51c-8.02,0-13.64,6.17-13.64,13.81c0,8.46,6.06,13.86,14.08,13.86
			c4.09,0,8.24-1.25,10.86-3.66l-3.06-4.47c-1.69,1.64-4.58,2.62-7.04,2.62c-4.47,0-7.15-2.78-7.58-6.11h19.59V89.05z M494.88,85.89
			c0.33-2.62,2.18-5.84,6.49-5.84c4.58,0,6.33,3.33,6.49,5.84H494.88z"/>
		<linearGradient id="SVGID_15_" gradientUnits="userSpaceOnUse" x1="-6.1646" y1="71.2466" x2="328.7347" y2="271.2466">
			<stop  offset="0" style="stop-color:#BFFD6A"/>
			<stop  offset="1" style="stop-color:#479635"/>
			<stop  offset="1" style="stop-color:#000000"/>
		</linearGradient>
		<path class="st15" d="M96.3,1.31L96.3,1.31c-1.96-1.83-5.04-1.72-6.86,0.24c-0.8,0.86-1.27,1.98-1.3,3.16
			c-1.46,19.34-13.27,36.38-30.87,44.54L34.62,59.79c-30,14-42.98,49.66-29,79.67c0.56,1.21,4.07,6.19,6.96,10.3l35.11-35.97
			l-16.33-13.27c-0.84-0.69-1.28-1.75-1.16-2.83c0.12-1.08,0.78-2.02,1.75-2.5l69.19-34.3c1.39-0.69,3.08-0.27,4,0.98
			c0.92,1.26,0.79,2.99-0.3,4.11l-37.85,38.82l16.2,13.15c0.84,0.68,1.28,1.75,1.16,2.83c-0.12,1.08-0.78,2.02-1.75,2.51
			l-66.73,33.21c-2.67,5.39-13.85,29.06-13,46.24c0.29,5.52,5,9.76,10.52,9.46c5.48-0.29,9.7-4.93,9.47-10.41
			c-0.05-1.22-0.41-16.31,8.39-35.13c18.69,10.25,41.43,9.79,59.68-1.23c42.92-23.94,55.61-78.37,32.86-127.15
			C117.27,24.21,107.9,11.62,96.3,1.31z"/>
	</g>
</g>
</svg>
