<?xml version="1.0" encoding="utf-8"?>
<!-- Generator: Adobe Illustrator 25.2.1, SVG Export Plug-In . SVG Version: 6.00 Build 0)  -->
<svg version="1.1" id="Laag_1" xmlns="http://www.w3.org/2000/svg" xmlns:xlink="http://www.w3.org/1999/xlink" x="0px" y="0px"
	 viewBox="0 0 225.11 311.82" style="enable-background:new 0 0 225.11 311.82;" xml:space="preserve">
<style type="text/css">
	.st0{enable-background:new    ;}
	.st1{fill:url(#SVGID_1_);}
	.st2{fill:url(#SVGID_2_);}
	.st3{fill:url(#SVGID_3_);}
	.st4{fill:url(#SVGID_4_);}
	.st5{fill:url(#SVGID_5_);}
	.st6{fill:url(#SVGID_6_);}
	.st7{fill:url(#SVGID_7_);}
	.st8{fill:url(#SVGID_8_);}
	.st9{fill:url(#SVGID_9_);}
	.st10{fill:url(#SVGID_10_);}
	.st11{fill:url(#SVGID_11_);}
	.st12{fill:url(#SVGID_12_);}
	.st13{fill:url(#SVGID_13_);}
	.st14{fill:url(#SVGID_14_);}
	.st15{fill:url(#SVGID_15_);}
	.st16{fill:#EBFED1;stroke:#2C2C2C;stroke-width:2;}
	.st17{fill:#A8E533;}
	.st18{fill:#2C2C2C;}
	.st19{fill:#469612;}
	.st20{fill:#FCC4B9;}
	.st21{fill:#EFA89E;}
	.st22{fill:#A1A7B7;}
	.st23{fill:#FFFA7B;}
	.st24{fill:#BFFD6A;}
	.st25{fill:#C9C9C9;}
	.st26{fill:#FFFFFF;}
	.st27{fill:#D6D8ED;}
	.st28{fill:#8B93A0;}
	.st29{fill:#E18F81;}
	.st30{fill:#F96464;}
	.st31{fill:#1C9337;}
	.st32{fill:#147A27;}
	.st33{fill:#6EB42D;}
	.st34{fill:#619B23;}
	.st35{fill:#DBA065;}
	.st36{fill:#C18753;}
	.st37{fill:#FFD243;}
	.st38{fill:#737581;}
	.st39{fill:#EBFED1;}
	.st40{fill:#51545E;}
	.st41{fill:#40434C;}
	.st42{fill:#5E6270;}
	.st43{fill:#892F58;}
	.st44{fill:#231F20;}
	.st45{fill:#CBFD63;}
	.st46{fill:#001B01;}
	.st47{fill:#FFE98D;}
	.st48{fill:#FFD938;}
	.st49{fill:#525252;}
	.st50{fill:#DFE6F2;}
	.st51{fill:#E8A6A0;}
	.st52{fill:#717171;}
	.st53{fill:#21223F;}
	.st54{fill:#D3D5E2;}
	.st55{fill:#DDDDDD;}
	.st56{fill:#C8DDFC;}
	.st57{clip-path:url(#SVGID_17_);}
	.st58{fill:#67E9FF;}
	.st59{fill:#3B1B6D;}
	.st60{fill:#F96262;}
	.st61{fill:#315775;}
	.st62{fill:#DB9561;}
	.st63{fill:#BC7A4D;}
	.st64{clip-path:url(#SVGID_19_);}
	.st65{fill:#4CA934;}
	.st66{fill:#F9F6E5;}
	.st67{fill:#D8D3BC;}
	.st68{fill:#6F6F6D;}
	.st69{fill:#89C433;}
	.st70{fill:#FEFEFE;}
	.st71{fill:#E7E4EA;}
	.st72{fill:#DDD745;}
	.st73{fill:#9ED85B;}
	.st74{fill:#CCCCCA;}
	.st75{fill:#D3D3D3;}
	.st76{fill:#AEAEAE;}
	.st77{fill:#FEFFFF;}
	.st78{fill:#D5CE35;}
	.st79{fill:#EFF1FE;}
	.st80{fill:#BFFD6A;stroke:#2C2C2C;}
	.st81{fill:none;stroke:#2C2C2C;stroke-width:0.695;stroke-linecap:round;stroke-linejoin:round;}
	.st82{fill:#83E700;stroke:#2C2C2C;stroke-width:0.695;stroke-linecap:round;stroke-linejoin:round;}
	.st83{fill:#001B01;stroke:#2C2C2C;}
	.st84{fill:#469612;stroke:#2C2C2C;stroke-width:3;stroke-miterlimit:10;}
	.st85{fill:#7ECE29;}
	.st86{fill:#FFFA7B;stroke:#000000;stroke-width:2.5;}
	.st87{fill:#FFFA7B;stroke:#000000;stroke-width:2;}
</style>
<g id="Group_1068" transform="translate(-1053.363 -585.187)">
	<g id="Group_1035" transform="translate(1053.363 717.927)">
		<g id="Group_987" transform="translate(2.341 9.096)">
			<path id="Path_2802" class="st18" d="M195.42,166.94c11.31-9.31,26.6-26.93,24.94-35.58S191.1,26.94,181.12,23.64
				S128.92,0,128.92,0L85.74,0.33c0,0-18.63,10.65-32.95,16.64s-22.96,9.31-27.62,23.94S4.55,120.72,1.89,132.36
				s-4.66,22.82,9.64,34.58h10.31c0,0-1.83-18.59,5.49-25.57l15.83-17.66l5.29-17.29c0,0,2.18,12.56,6.41,22.08
				s2.62,38.44,2.62,38.44l106.01,0.67c-2.32-27.61,5.66-63.96,5.66-63.96l13.01,25.8c-5.65,6.32-15.51,18.74-15.51,18.74
				c20.78,5.2,19.79,18.74,19.79,18.74L195.42,166.94z"/>
		</g>
		<g id="Group_988" transform="translate(135.389 102.388)">
			<path id="Path_2803" class="st49" d="M44.59,59.43c2.71-3.31,5.23-6.78,7.56-10.38c2.55-3.85,5.13-8.09,4.94-12.7
				c-0.21-4.97-3.53-9.17-6.56-13.11C44.87,15.88,39.77,8.12,35.26,0.01L22.94,38.89c-0.91,2.89-1.96,5.96-4.37,7.78
				c-2.19,1.66-5.09,1.96-7.69,2.88C3.3,52.48-1.13,60.38,0.33,68.38l12.35,4.59c5.8,1.68,12.02,0.68,17.55-1.88
				c-1.49-27.13,5.89-60.72,5.89-60.72l13.01,25.8c-5.65,6.32-15.51,18.74-15.51,18.74C37.49,55.8,41.2,57.33,44.59,59.43z"/>
		</g>
		<g id="Group_989" transform="translate(33.067 104.471)">
			<path id="Path_2804" class="st49" d="M36.56,71.63c-0.01-2.4,0.44-4.77,1.32-7c1.36-3.65,3.37-7.04,4.43-10.78
				c1.72-6.18,0.74-12.8-2.69-18.23c-2.61-4.08-6.45-7.18-9.88-10.61C22.7,17.95,17.3,9.4,13.96,0c-3,14.54-11.85,27.58-13.95,42.2
				l12.43-13.87l5.29-17.29c0,0,2.18,12.56,6.41,22.08s2.62,38.44,2.62,38.44L36.56,71.63z"/>
		</g>
		<g id="Group_990" transform="translate(85.488 19.248)">
			<path id="Path_2805" class="st50" d="M45.33,0H3.02c-7.95,41.13,0.05,82.15,21.16,118.34C45.28,82.15,53.29,41.14,45.33,0z"/>
		</g>
		<g id="Group_991" transform="translate(93.578 3.545)">
			<path id="Path_2806" class="st51" d="M29.83,0H0.01c0,0,6.61,18.18,16.38,17.93S29.83,0,29.83,0z"/>
		</g>
		<g id="Group_992" transform="translate(88.071 2.343)">
			<path id="Path_2807" class="st26" d="M15.2,16.8c0,0-6.83-8.64-7.6-10.86S5.89,0.61,5.89,0.61L3.76,0
				C0.5,3.95-0.44,9.78,0.18,15.13S2.79,25.48,4.75,30.4C7.25,25.19,10.81,20.55,15.2,16.8z"/>
		</g>
		<g id="Group_993" transform="translate(116.059 2.343)">
			<path id="Path_2808" class="st26" d="M15.02,15.13C15.64,9.78,14.7,3.95,11.44,0L7.35,0.43C6.42,4.26,5.25,8.02,3.84,11.7
				c-0.77,2.03-2.1,3.79-3.83,5.1c4.39,3.76,7.95,8.39,10.44,13.6C12.41,25.48,14.4,20.47,15.02,15.13z"/>
		</g>
		<g id="Group_994" transform="translate(96.674 20.52)">
			<path id="Path_2809" class="st24" d="M13,116.21l13.12-27.75l-6.98-72.4c2.52-2.85,4.86-5.86,6.98-9.02
				c-2.19-2.47-4.52-4.82-6.98-7.03C14.25,3.7,8.58,1,7.12,0.01C4.66,2.21,2.33,4.56,0.14,7.04c2.12,3.16,4.45,6.17,6.98,9.02
				L0.01,88.67L13,116.21z"/>
		</g>
		<g id="Group_995" transform="translate(105.637 20.52)">
			<path id="Path_2810" class="st19" d="M10.17,0C7.21,2.11,3.34,2.48,0.03,0.97L0,1.67c2.31,1.08,4.79,2.34,5.83,4.67
				c1.13,2.54,0.15,5.46-0.49,8.17c-1.87,7.93-0.68,16.22,0.23,24.33c2.76,24.77,2.69,49.78-0.2,74.54l11.78-24.92l-6.98-72.4
				c2.52-2.85,4.86-5.86,6.98-9.02C14.96,4.56,12.63,2.21,10.17,0z"/>
		</g>
		<g id="Group_996" transform="translate(134.616 154.974)">
			<path id="Path_2811" class="st20" d="M25.02,21.06c2.79-0.79,5.36-2.19,7.54-4.1c0.89-0.78,2.77,4.1,2.77,4.1h8.06l4.47-4.1h5.68
				c-1.85-3.67-4.25-7.04-7.12-9.97c-2.82-2.46-6.38-3.92-10.12-4.15l-1.75,1.38c0,0-11.08-7.31-19.83-2.66S-1.25,15.74,0.19,18.97
				S21.03,22.17,25.02,21.06z"/>
		</g>
		<g id="Group_997" transform="translate(134.616 162.329)">
			<path id="Path_2812" class="st51" d="M25.02,13.7c2.79-0.79,5.36-2.19,7.54-4.1c0.89-0.78,2.77,4.1,2.77,4.1h8.06l4.47-4.1h5.68
				C51.76,6.1,49.49,2.86,46.8,0c-2.09,1.96-4.65,3.35-7.44,4.03c-3.97,1.04-8.15,0.95-12.25,0.85C20.92,4.73,14.56,4.55,8.85,2.15
				c-0.95-0.4-1.92-0.86-2.91-1.3C1.79,5.08-0.71,9.59,0.19,11.61C1.63,14.84,21.03,14.81,25.02,13.7z"/>
		</g>
		<g id="Group_999" transform="translate(45.739 102.518)">
			<g id="Group_998">
				<path id="Path_2813" d="M13.39,33.6c-0.03-0.06-0.06-0.12-0.1-0.17l0,0C13.32,33.48,13.36,33.54,13.39,33.6z"/>
				<path id="Path_2814" d="M9.36,36.08l0.02,0.06c0.02,0.04,0.03,0.08,0.05,0.11C9.59,36.6,9.23,35.72,9.36,36.08z"/>
				<path id="Path_2815" d="M11.75,73.35c0,0.06-0.01,0.11-0.01,0.17c0.01,1.29,1.05,2.34,2.34,2.34c1.28-0.03,2.32-1.06,2.35-2.34
					c0.16-2.91,0.23-5.82,0.27-8.73c0.13-5.88-0.04-11.76-0.5-17.62c-0.22-2.92-0.63-5.81-1.23-8.67c-0.23-1.09-0.53-2.16-0.91-3.2
					c-0.17-0.58-0.4-1.15-0.68-1.7c0.05,0.11,0.02,0.13-0.07-0.11l-0.02-0.06l-0.01-0.01l0.01,0.01c-0.05-0.13-0.1-0.26-0.16-0.39
					c-0.12-0.31-0.24-0.62-0.36-0.93c-2.12-5.89-3.89-11.9-5.3-18.01C6.46,10.06,5.62,5.97,4.64,1.93c-0.02-0.07-0.03-0.13-0.04-0.2
					C4.24,0.48,2.96-0.25,1.71,0.09C0.48,0.46-0.24,1.73,0.07,2.97c0.72,3.4,1.51,6.78,2.33,10.16c1.49,6.12,3.06,12.25,5.12,18.2
					c0.43,1.25,0.89,2.49,1.4,3.71c0.15,0.37,0.31,0.73,0.47,1.1l-0.02-0.06c-0.14-0.36,0.23,0.52,0.07,0.18
					c-0.02-0.04-0.03-0.08-0.05-0.11c0.04,0.11,0.09,0.23,0.13,0.34c0.18,0.49,0.34,0.99,0.49,1.5c0.32,1.14,0.58,2.29,0.78,3.46
					c0.12,0.66,0.22,1.32,0.31,1.98l0.01,0.07v-0.01c0-0.01,0.07,0.5,0.03,0.24c-0.01-0.08-0.02-0.16-0.03-0.23
					c0,0.16,0.02,0.31,0.06,0.46c0.05,0.37,0.09,0.73,0.13,1.1c0.59,5.92,0.83,11.87,0.73,17.82
					C12.01,66.37,11.81,69.86,11.75,73.35z"/>
				<path id="Path_2816" d="M11.12,43.49L11.12,43.49c0.01,0.08,0.02,0.16,0.03,0.24C11.19,43.99,11.12,43.48,11.12,43.49z"/>
			</g>
		</g>
		<g id="Group_1001" transform="translate(94.32 18.166)">
			<g id="Group_1000">
				<path id="Path_2817" class="st18" d="M26.44,8.2c-0.31,0.46-0.63,0.91-0.94,1.36c0.44,0.49,0.89,0.98,1.31,1.48
					C26.69,10.1,26.56,9.15,26.44,8.2z"/>
				<path id="Path_2818" class="st18" d="M19.83,4.01c0.46,0.41,0.92,0.84,1.38,1.26c0.51-0.26,1-0.56,1.47-0.9L19.83,4.01z"/>
				<path id="Path_2819" class="st18" d="M8.18,13.26l-0.11-0.15L8.18,13.26z"/>
				<path id="Path_2820" class="st18" d="M22.9,13.12l-0.11,0.15L22.9,13.12z"/>
				<path id="Path_2821" class="st18" d="M4.52,8.2c-0.12,0.95-0.24,1.9-0.37,2.84c0.43-0.5,0.87-0.99,1.31-1.48
					C5.41,9.48,5.35,9.4,5.29,9.32C5.03,8.95,4.77,8.58,4.52,8.2z"/>
				<path id="Path_2822" class="st18" d="M8.29,4.38C8.77,4.7,9.27,4.99,9.8,5.24c0.44-0.41,0.89-0.82,1.34-1.22L8.29,4.38z"/>
				<path id="Path_2824" class="st18" d="M23.84,18.41c-0.23,0.55-0.46,1.11-0.69,1.66c0.27-0.28,0.53-0.57,0.79-0.85
					c-0.03-0.23-0.05-0.46-0.09-0.68C23.84,18.49,23.84,18.44,23.84,18.41z"/>
				<path id="Path_2825" class="st18" d="M4.72,42.95c-0.69,7.01-1.37,14.03-2.06,21.04c-0.59,6.02-1.18,12.05-1.77,18.07
					C0.6,85,0.17,87.96,0.02,90.9c0,0.04-0.01,0.08-0.01,0.12c0.01,1.29,1.05,2.34,2.35,2.34c1.28-0.03,2.31-1.06,2.35-2.34
					c0.28-2.89,0.57-5.78,0.85-8.66l1.96-20.04c0.75-7.62,1.49-15.23,2.24-22.85c0.56-5.71,1.12-11.42,1.68-17.13
					c0.12-1.23,0.27-2.46,0.36-3.69c0.11-1.49-1.3-2.56-2.19-3.62c-0.44-0.52-0.87-1.06-1.29-1.59l-0.14-0.18l-0.11-0.15l0.11,0.15
					l-0.25-0.32c-0.22-0.29-0.44-0.58-0.66-0.87c-0.61-0.83-1.22-1.66-1.81-2.51c-0.44,0.49-0.89,0.98-1.31,1.48
					C4.28,10.1,4.4,9.15,4.52,8.2c0.25,0.38,0.51,0.75,0.77,1.12C5.35,9.4,5.41,9.48,5.47,9.56C6.84,8.06,8.3,6.62,9.8,5.24
					C9.28,4.99,8.77,4.7,8.29,4.38l2.84-0.37c-0.45,0.4-0.89,0.81-1.34,1.22c3.6,1.76,7.8,1.77,11.41,0.04
					c-0.46-0.42-0.92-0.85-1.38-1.26l2.84,0.37c-0.46,0.34-0.95,0.64-1.47,0.9c1.48,1.37,2.93,2.8,4.29,4.29
					c0.32-0.45,0.64-0.9,0.94-1.36l0.37,2.84c-0.42-0.5-0.87-0.99-1.31-1.48c-0.61,0.87-1.23,1.73-1.86,2.59
					c-0.2,0.27-0.4,0.53-0.6,0.8l-0.13,0.17l-0.11,0.15l0.11-0.15l-0.25,0.33c-0.44,0.56-0.9,1.12-1.36,1.67
					c-0.8,0.94-2.17,1.98-2.15,3.3c0.02,0.87,0.17,1.76,0.25,2.62c0.51,5.25,1.01,10.5,1.52,15.76c0.73,7.53,1.45,15.06,2.18,22.59
					l2.01,20.82c0.34,3.48,0.65,6.97,1.01,10.45c0.01,0.05,0.01,0.1,0.01,0.15c0.03,1.28,1.06,2.32,2.35,2.35
					c1.29-0.01,2.33-1.06,2.35-2.35c-0.23-2.4-0.46-4.79-0.69-7.18c-0.56-5.78-1.11-11.55-1.67-17.33l-2.01-20.9
					c-0.58-6.04-1.16-12.08-1.75-18.12c-0.19-1.98-0.38-3.96-0.57-5.94c-0.07-0.7-0.1-1.42-0.18-2.13
					c-0.26,0.29-0.52,0.58-0.79,0.85c0.23-0.55,0.46-1.11,0.69-1.66c0,0.04,0.01,0.08,0.01,0.12c0.04,0.23,0.06,0.45,0.09,0.68
					c2.39-2.72,4.58-5.61,6.55-8.64c0.52-0.92,0.37-2.08-0.37-2.84c-2.16-2.5-4.49-4.85-6.98-7.03c-0.76-0.74-1.92-0.89-2.84-0.37
					c-0.55,0.42-1.15,0.77-1.78,1.06c0.15-0.05-0.32,0.14,0,0l0,0l-0.08,0.03c-0.14,0.05-0.28,0.1-0.42,0.14
					c-0.28,0.09-0.56,0.16-0.84,0.22c-0.14,0.03-0.28,0.05-0.42,0.08h-0.01c0.23-0.01-0.23,0.05,0,0h-0.1
					c-0.27,0.01-0.54,0.03-0.81,0.03s-0.53-0.01-0.79-0.03c-0.09-0.01-0.17-0.02-0.26-0.02c0.13,0.01,0.07,0.02-0.1-0.01h-0.04h0.03
					l-0.07-0.01c-0.47-0.08-0.94-0.19-1.4-0.32c-0.21-0.06-0.43-0.13-0.64-0.2c-0.2-0.1-0.42-0.19-0.64-0.25l0,0
					c0.1,0.02,0.43,0.2,0.14,0.06C12.04,1.08,12,1.06,11.95,1.04c-0.01,0-0.02,0-0.02,0c0.01,0,0.01,0,0.02,0l-0.1-0.05
					c-0.15-0.07-0.3-0.15-0.45-0.22c-0.26-0.13-0.51-0.28-0.75-0.44C9.73-0.2,8.57-0.05,7.81,0.69C5.33,2.87,3,5.22,0.84,7.72
					C0.1,8.49-0.05,9.64,0.47,10.56c1.98,3.04,4.18,5.93,6.58,8.66l0.08-0.83l0.69,1.66c-0.26-0.27-0.52-0.55-0.77-0.83
					c-0.21,2.14-0.42,4.29-0.63,6.43C5.85,31.42,5.29,37.19,4.72,42.95z"/>
				<path id="Path_2826" class="st18" d="M11.96,1.05L11.96,1.05c-0.01,0-0.01,0-0.02,0C11.95,1.05,11.95,1.05,11.96,1.05z"/>
				<path id="Path_2827" class="st18" d="M7.13,18.41l-0.08,0.83c0.25,0.28,0.51,0.56,0.77,0.83L7.13,18.41z"/>
				<path id="Path_2828" class="st18" d="M18.53,1.39L18.53,1.39C18.2,1.54,18.68,1.35,18.53,1.39z"/>
				<path id="Path_2829" class="st18" d="M14.8,1.84l-0.1-0.01l0,0L14.8,1.84z"/>
			</g>
		</g>
		<g id="Group_1003" transform="translate(91.203 1.181)">
			<g id="Group_1002">
				<path id="Path_2830" class="st18" d="M22.49,16.49l-0.04,0.03l-0.01,0.01C22.08,16.85,22.89,16.21,22.49,16.49z"/>
				<path id="Path_2831" class="st18" d="M24.6,14.3l-0.01,0.01c-0.05,0.06-0.09,0.12-0.14,0.19C24.66,14.23,24.71,14.17,24.6,14.3z
					"/>
				<path id="Path_2832" class="st18" d="M5.15,3.02L5.13,2.97L5.1,2.89C4.9,2.43,5.33,3.46,5.15,3.02z"/>
				<path id="Path_2833" class="st18" d="M20.87,17.47c-0.03,0.01-0.05,0.02-0.08,0.03l0,0C20.37,17.74,21.33,17.32,20.87,17.47z"/>
				<path id="Path_2834" class="st18" d="M27.72,8.73l-0.01,0.02L27.7,8.79C27.51,9.25,27.93,8.27,27.72,8.73z"/>
				<path id="Path_2835" class="st18" d="M16.14,17.45c-0.05-0.01-0.1-0.04-0.14-0.06C16.36,17.68,16.32,17.56,16.14,17.45z"/>
				<path id="Path_2836" class="st18" d="M19.33,17.91l-0.06,0.02C19.48,17.9,19.5,17.89,19.33,17.91z"/>
				<path id="Path_2837" class="st18" d="M10.24,12.17c-0.31-0.43-0.61-0.86-0.9-1.3c-0.55-0.83-1.07-1.69-1.57-2.56
					c-0.9-1.6-1.73-3.24-2.46-4.92C5.25,3.25,5.19,3.11,5.13,2.97l0.02,0.05C5.34,3.46,4.9,2.43,5.1,2.9l0.03,0.07
					C5.05,2.75,4.95,2.54,4.87,2.32C4.79,2.13,4.72,1.94,4.65,1.74C4.3,0.49,3.01-0.24,1.76,0.1C0.51,0.45-0.22,1.74,0.12,2.99
					C0.98,5.3,2.01,7.54,3.19,9.7c2.12,3.93,4.76,7.77,8.38,10.45c3.59,2.86,8.56,3.21,12.52,0.9c3.65-2.23,6.03-6.13,7.69-9.96
					c1.17-2.6,2.07-5.32,2.69-8.11c0.34-1.25-0.39-2.54-1.64-2.89c-1.25-0.34-2.54,0.39-2.89,1.64c-0.44,2.03-1.05,4.02-1.81,5.95
					c-0.14,0.35-0.28,0.7-0.42,1.05l0.01-0.02c0.21-0.46-0.21,0.52-0.03,0.06l0.02-0.04c-0.03,0.08-0.07,0.16-0.1,0.23
					c-0.11,0.25-0.23,0.51-0.34,0.76c-0.4,0.86-0.84,1.7-1.32,2.51c-0.24,0.41-0.5,0.82-0.76,1.21c-0.13,0.2-0.27,0.39-0.41,0.58
					c-0.06,0.08-0.11,0.15-0.17,0.23l-0.03,0.04l0.01-0.01c0.11-0.14,0.06-0.07-0.15,0.2c0.05-0.06,0.09-0.12,0.14-0.19
					c-0.6,0.72-1.25,1.4-1.94,2.04c-0.06,0.05-0.13,0.11-0.2,0.17l0.04-0.03c0.4-0.27-0.41,0.37-0.05,0.04l0.01-0.01
					c-0.17,0.11-0.33,0.24-0.5,0.35c-0.37,0.24-0.76,0.42-1.15,0.64c0.03-0.01,0.05-0.02,0.08-0.03c0.45-0.15-0.5,0.26-0.08,0.03
					l0,0l-0.17,0.06c-0.21,0.07-0.42,0.14-0.63,0.2c-0.21,0.06-0.43,0.1-0.65,0.15l-0.02,0.01c0.18-0.02,0.15-0.01-0.06,0.02
					c-0.06,0.02-0.12,0.02-0.18,0.02l0.18-0.02l0.06-0.02h-0.02c-0.07,0.01-0.14,0.01-0.2,0.02c-0.43,0.03-0.85-0.01-1.28-0.02
					c0.03,0.01,0.06,0.01,0.09,0.02c0.48,0.11-0.58-0.02-0.1-0.02h0.01l-0.17-0.03c-0.26-0.05-0.52-0.11-0.77-0.19
					c-0.21-0.06-0.42-0.14-0.63-0.21l-0.11-0.03c0.18,0.11,0.22,0.23-0.14-0.06c0.04,0.03,0.09,0.05,0.14,0.06
					c-0.02-0.02-0.05-0.03-0.07-0.04c-0.41-0.21-0.81-0.42-1.2-0.66c-0.2-0.12-0.39-0.25-0.58-0.39c-0.15-0.1-0.82-0.47-0.21-0.14
					c-0.42-0.28-0.81-0.62-1.15-1c-0.74-0.71-1.43-1.46-2.07-2.26l-0.19-0.24l-0.09-0.12c-0.15-0.2-0.12-0.16,0.09,0.11
					C10.53,12.68,10.32,12.27,10.24,12.17z"/>
				<path id="Path_2838" class="st18" d="M17.91,17.93c-0.03-0.01-0.06-0.01-0.09-0.02h-0.01C17.33,17.91,18.39,18.04,17.91,17.93z"
					/>
			</g>
		</g>
		<g id="Group_1005" transform="translate(85.766 0.005)">
			<g id="Group_1004">
				<path id="Path_2839" class="st18" d="M6.03,6.9c0.02-0.05,0.04-0.1,0.06-0.15C6.04,6.86,6.02,6.91,6.03,6.9z"/>
				<path id="Path_2840" class="st18" d="M4.8,11.59c0.01-0.04,0.01-0.08,0.02-0.12C4.83,11.41,4.83,11.42,4.8,11.59z"/>
				<path id="Path_2841" class="st18" d="M7.64,4.1c0.02-0.02,0.03-0.04,0.05-0.06C7.58,4.19,7.56,4.2,7.64,4.1z"/>
				<path id="Path_2843" class="st18" d="M4.78,11.89c0.01-0.06,0.04-0.33,0.05-0.42c-0.01,0.04-0.02,0.08-0.02,0.12
					c0.02-0.17,0.03-0.18,0.02-0.12c0.08-0.57,0.18-1.13,0.31-1.69C5.27,9.19,5.43,8.6,5.62,8.02c0.09-0.29,0.19-0.57,0.3-0.85
					C5.95,7.08,5.99,6.99,6.03,6.9C6.02,6.91,6.04,6.86,6.09,6.75C6.07,6.8,6.05,6.85,6.03,6.9c0.01-0.01,0.04-0.08,0.09-0.2
					c0.26-0.53,0.52-1.06,0.83-1.57C7.1,4.89,7.26,4.64,7.43,4.4C7.5,4.3,7.57,4.2,7.64,4.11c-0.08,0.1-0.07,0.08,0.05-0.06
					C7.67,4.07,7.66,4.09,7.64,4.11L7.73,4c0.89-0.93,0.89-2.39,0-3.32c-0.92-0.9-2.4-0.9-3.32,0c-5.83,7.17-5.06,17.05-2.36,25.33
					c0.81,2.49,1.78,4.92,2.75,7.35c0.27,0.89,1.03,1.55,1.95,1.68c0.93,0.14,1.86-0.31,2.34-1.12c1.25-2.59,2.76-5.04,4.5-7.33
					l0.01-0.01c-0.07,0.09,0.19-0.25,0,0l0.07-0.08c0.1-0.12,0.2-0.25,0.3-0.37c0.23-0.28,0.45-0.55,0.69-0.83
					c0.46-0.54,0.94-1.07,1.43-1.59c0.97-1.02,2-2,3.08-2.91c0.91-0.92,0.91-2.4,0-3.32c-0.93-0.88-2.39-0.88-3.32,0
					c-3.28,2.81-6.11,6.11-8.4,9.77c0.6,1.63,1.24,3.25,1.88,4.86l-4.29-0.56c0.72-1.48,1.53-2.91,2.41-4.3
					c-0.38-1.03-0.74-2.07-1.07-3.12c-0.4-1.27-0.75-2.56-1.04-3.86c-0.57-2.44-0.78-4.95-0.63-7.45
					C4.72,12.51,4.75,12.2,4.78,11.89z"/>
				<path id="Path_2844" class="st18" d="M9.32,32.11c-0.65-1.61-1.28-3.23-1.88-4.86c-0.88,1.39-1.68,2.82-2.41,4.3L9.32,32.11z"/>
			</g>
		</g>
		<g id="Group_1007" transform="translate(83.154 16.925)">
			<g id="Group_1006">
				<path id="Path_2845" class="st18" d="M7.62,2.95c0.32-1.26-0.45-2.53-1.7-2.85C4.7-0.21,3.46,0.5,3.1,1.7
					c-3.11,16-3.87,32.36-2.26,48.58c1.63,15.97,5.48,31.63,11.44,46.54c3.45,8.63,7.53,17,12.21,25.04
					c0.65,1.12,2.09,1.5,3.21,0.84c1.12-0.65,1.5-2.09,0.84-3.21C20.47,105.76,14.3,91,10.19,75.62c-0.99-3.73-1.85-7.5-2.59-11.29
					c-0.38-1.98-0.73-3.96-1.04-5.95c-0.32-2.05-0.5-3.4-0.74-5.36c-0.93-7.86-1.3-15.78-1.09-23.69
					C4.97,20.48,5.93,11.65,7.62,2.95z"/>
			</g>
		</g>
		<g id="Group_1009" transform="translate(59.621 13.939)">
			<g id="Group_1008">
				<path id="Path_2846" d="M4.38,48.62l0.69-0.92c-0.23-0.48-0.46-0.96-0.69-1.44V48.62z"/>
				<path id="Path_2847" d="M6.56,30.74c0.52-1.49,1.02-2.99,1.52-4.48l-4.41,1.6L6.56,30.74z"/>
				<path id="Path_2848" d="M17.24,23.51l-4.49,6.03l7.14-2.59L17.24,23.51z"/>
				<path id="Path_2849" d="M0.33,48.62c4.88,10.42,10.25,20.59,16.11,30.51c5.93,9.99,12.34,19.66,19.26,29.02
					c4.09,5.54,8.32,10.97,12.69,16.29c0.92,0.91,2.4,0.91,3.32,0c0.88-0.93,0.88-2.39,0-3.32c-3.83-4.66-7.34-9.13-10.88-13.88
					c-3.49-4.68-6.86-9.45-10.12-14.3c-6.37-9.49-12.25-19.27-17.65-29.36c-2.8-5.23-5.46-10.52-7.99-15.89l-0.69,0.92v-2.37
					c0.23,0.48,0.46,0.96,0.69,1.44l16.23-21.82c0.64-1.13,0.25-2.57-0.88-3.22c-0.54-0.3-1.17-0.39-1.76-0.23L8.08,26.26
					c-0.5,1.5-1,2.99-1.52,4.48l-2.89-2.89l4.41-1.6c1.09-3.24,2.17-6.48,3.39-9.68c0.2-0.52,0.4-1.03,0.6-1.55
					c0.11-0.27,0.22-0.55,0.33-0.82l0.15-0.35c-0.06,0.13-0.05,0.12,0.02-0.06l-0.02,0.06l0.05-0.11c0.48-1.11,0.98-2.22,1.51-3.31
					c1.15-2.37,2.43-4.68,3.81-6.92c0.65-1.12,0.28-2.56-0.84-3.21c-1.12-0.65-2.56-0.28-3.21,0.84l0,0
					C9.7,7.93,6.85,15.27,4.31,22.8c-0.75,2.23-1.5,4.47-2.27,6.7c-0.33,1.26,0.42,2.55,1.68,2.89c0.4,0.1,0.81,0.1,1.21,0
					l7.83-2.84l4.49-6.03l2.65,3.45l-7.14,2.59L0.33,46.26C-0.09,46.99-0.09,47.89,0.33,48.62z"/>
				<path id="Path_2850" d="M12.56,13.86l0.02-0.06C12.51,13.98,12.5,13.99,12.56,13.86z"/>
			</g>
		</g>
		<g id="Group_1011" transform="translate(113.723)">
			<g id="Group_1010">
				<path id="Path_2852" class="st18" d="M14.81,31.55c-0.72-1.48-1.53-2.91-2.41-4.3c-0.6,1.63-1.23,3.25-1.88,4.86L14.81,31.55z"
					/>
				<path id="Path_2853" class="st18" d="M12.16,4.05l0.05,0.06C12.28,4.21,12.27,4.19,12.16,4.05z"/>
				<path id="Path_2854" class="st18" d="M13.76,6.76c0.02,0.05,0.04,0.1,0.06,0.15C13.82,6.92,13.81,6.87,13.76,6.76z"/>
				<path id="Path_2855" class="st18" d="M14.51,20.28c-0.29,1.3-0.64,2.59-1.04,3.86c-0.33,1.05-0.69,2.09-1.07,3.12
					c0.88,1.39,1.68,2.82,2.41,4.3l-4.29,0.56c0.65-1.61,1.28-3.23,1.88-4.86c-2.29-3.66-5.12-6.96-8.4-9.77
					c-0.92-0.92-2.4-0.92-3.32,0s-0.92,2.4,0,3.32c1.05,0.89,2.05,1.83,3,2.83c0.49,0.52,0.97,1.04,1.44,1.59
					c0.23,0.27,0.46,0.55,0.69,0.82c0.1,0.12,0.2,0.25,0.3,0.37l0.1,0.13c-0.01-0.01,0.03,0.03,0,0l0.05,0.06
					c1.74,2.29,3.25,4.74,4.5,7.33c0.48,0.81,1.4,1.25,2.34,1.12c0.92-0.14,1.68-0.79,1.95-1.68c3.3-8.27,6.55-17.33,3.81-26.26
					c-0.71-2.34-1.87-4.52-3.42-6.42c-0.92-0.91-2.4-0.91-3.32,0c-0.88,0.93-0.88,2.39,0,3.32l0.09,0.11l-0.05-0.06
					c0.11,0.14,0.13,0.16,0.05,0.06c0.07,0.1,0.14,0.19,0.21,0.29c0.17,0.24,0.33,0.49,0.48,0.74c0.31,0.51,0.57,1.03,0.83,1.57
					c0.06,0.13,0.09,0.19,0.09,0.2c-0.02-0.05-0.04-0.1-0.06-0.15c0.05,0.11,0.06,0.16,0.06,0.15c0.04,0.09,0.07,0.18,0.11,0.27
					c0.11,0.28,0.21,0.56,0.3,0.85c0.19,0.58,0.35,1.16,0.48,1.76c0.13,0.56,0.23,1.12,0.31,1.69c0-0.04,0-0.03,0.02,0.12
					c-0.01-0.04-0.01-0.08-0.02-0.12c0.01,0.09,0.05,0.41,0.05,0.42c0.03,0.31,0.06,0.62,0.07,0.93
					C15.29,15.32,15.08,17.83,14.51,20.28L14.51,20.28z"/>
				<path id="Path_2856" class="st18" d="M15.02,11.48c0.01,0.04,0.02,0.08,0.02,0.12C15.02,11.44,15.02,11.43,15.02,11.48z"/>
			</g>
		</g>
		<g id="Group_1013" transform="translate(107.331 16.897)">
			<g id="Group_1012">
				<path id="Path_2857" class="st18" d="M21.79,61.39c-0.68,3.88-1.49,7.74-2.44,11.57c-1.91,7.7-4.35,15.26-7.3,22.63
					c-1.56,3.89-3.32,7.86-5.26,11.83c-2.01,4.11-4.17,8.13-6.47,12.08c-0.65,1.12-0.28,2.56,0.84,3.21
					c1.12,0.65,2.56,0.28,3.21-0.84l0,0c8.25-14.09,14.58-29.21,18.82-44.98c4.13-15.49,6.02-31.5,5.61-47.53
					c-0.26-9.28-1.28-18.52-3.05-27.64c-0.35-1.24-1.64-1.97-2.89-1.64c-1.23,0.37-1.95,1.64-1.64,2.89
					c1.52,7.79,2.44,15.67,2.78,23.6c0.35,7.92,0.12,15.85-0.69,23.73C22.92,54.23,22.48,57.44,21.79,61.39z"/>
			</g>
		</g>
		<g id="Group_1015" transform="translate(107.309 12.518)">
			<g id="Group_1014">
				<path id="Path_2858" d="M4.02,125.87c0.23-0.28,0.46-0.57,0.69-0.85c0-0.27,0-0.54,0-0.81L4.02,125.87z"/>
				<path id="Path_2859" d="M32.52,28.37l7.14,2.59l-4.49-6.03L32.52,28.37z"/>
				<path id="Path_2860" d="M0.02,129.53c0.01,6.58,0.02,13.17,0.03,19.75c0.01,4.67-0.07,9.34,0.02,14.01c0,0.08,0,0.16,0,0.23
					c0.03,1.3,1.1,2.32,2.39,2.3c1.26-0.03,2.27-1.04,2.3-2.3c-0.01-4.44-0.01-8.87-0.02-13.31c-0.01-7.04-0.02-14.08-0.04-21.12
					c0-1.35,0-2.7-0.01-4.06c-0.23,0.28-0.46,0.57-0.69,0.85l0.69-1.66c0,0.27,0,0.54,0,0.81C12.07,116,19.07,106.66,25.57,97
					c6.42-9.54,12.35-19.4,17.78-29.53c3.07-5.72,5.97-11.53,8.72-17.42c0.43-0.73,0.43-1.64,0-2.37L39.65,30.97l-7.14-2.59
					l2.65-3.45l4.49,6.03l7.83,2.84c1.26,0.33,2.55-0.42,2.89-1.68c0.1-0.4,0.1-0.81,0-1.21C46.83,20.74,43.74,10.4,38.06,1.15
					c-0.65-1.12-2.09-1.5-3.21-0.84c-1.12,0.65-1.5,2.09-0.84,3.21c2.66,4.38,4.91,9,6.7,13.8c1.3,3.42,2.45,6.89,3.61,10.36
					l4.41,1.6l-2.89,2.89c-0.52-1.49-1.02-2.99-1.52-4.49l-10.56-3.83c-1.83-0.67-3.86,1.82-2.65,3.45l16.23,21.82
					c0.23-0.48,0.46-0.96,0.69-1.44v2.37l-0.69-0.92C36.8,71.49,23.89,92.67,8.84,112.3c-1.91,2.5-3.87,4.99-5.86,7.46
					c-0.5,0.62-1.01,1.24-1.51,1.86c-0.76,0.68-1.27,1.59-1.45,2.59c0,0.1,0,0.19,0,0.29C-0.01,126.18,0.02,127.85,0.02,129.53z"/>
				<path id="Path_2861" d="M48.73,29.28l-4.41-1.6c0.5,1.5,1.01,2.99,1.52,4.49L48.73,29.28z"/>
				<path id="Path_2862" d="M48.03,47.68c-0.23,0.48-0.46,0.96-0.69,1.44l0.69,0.92V47.68z"/>
			</g>
		</g>
		<g id="Group_1016" transform="translate(23.876 138.545)">
			<path id="Path_2863" class="st20" d="M25.9,34.73L26.91,33c1.8-0.96,6.82-2,12.3-4.82s8.48-9.97,6.98-17.96
				S33.32-0.95,23.08,0.25S9.5,5.05,6.63,10.22c-0.59,1.07-1.03,2.21-1.3,3.4C-1.86,18.24,0.3,37.49,0.3,37.49h20.75
				C23.05,37.49,24.89,36.44,25.9,34.73z"/>
		</g>
		<g id="Group_1017" transform="translate(23.877 151.74)">
			<path id="Path_2864" class="st51" d="M25.89,21.53l1.02-1.72c1.8-0.96,6.82-2,12.3-4.82C44,12.51,46.89,6.74,46.55,0
				C34.71,10.46,17.04,10.8,4.8,0.81C-1.74,6.01,0.3,24.29,0.3,24.29h20.75C23.04,24.3,24.89,23.24,25.89,21.53z"/>
		</g>
		<g id="Group_1019" transform="translate(0 7.091)">
			<g id="Group_1018">
				<path id="Path_2865" d="M26.78,156.46C26.76,156.56,26.77,156.54,26.78,156.46C26.79,156.35,26.8,156.28,26.78,156.46z"/>
				<path id="Path_2866" d="M52.43,22.63l0.08-0.03L52.43,22.63z"/>
				<path id="Path_2867" d="M34.48,34.08l0.01-0.01l0.01-0.02C34.71,33.78,34.27,34.35,34.48,34.08z"/>
				<path id="Path_2868" d="M30.95,40.27c-0.06,0.14-0.02,0.05,0.02-0.04C30.99,40.18,30.99,40.17,30.95,40.27z"/>
				<path id="Path_2869" d="M5.01,142.56C5,142.64,5,142.62,5.01,142.56S5.02,142.49,5.01,142.56z"/>
				<path id="Path_2870" d="M38.74,29.84l0.1-0.08C38.67,29.9,38.68,29.89,38.74,29.84z"/>
				<path id="Path_2871" d="M28.63,149.14l0.02-0.04c0.01-0.03,0.03-0.07,0.04-0.1L28.63,149.14z"/>
				<path id="Path_2872" d="M4.89,150.55c0-0.03-0.01-0.06-0.02-0.08C4.91,150.7,4.91,150.66,4.89,150.55z"/>
				<path id="Path_2873" d="M4.87,143.79c0.02-0.24,0.05-0.48,0.08-0.72c0.01-0.08,0.05-0.39,0.06-0.51c-0.01,0.06-0.01,0.08,0,0
					s0.01-0.05,0,0c0.02-0.12,0.06-0.44,0.07-0.52c0.04-0.24,0.07-0.48,0.11-0.72c0.08-0.48,0.17-0.97,0.26-1.45
					c0.32-1.73,0.71-3.44,1.1-5.16c0.36-1.58,0.74-3.15,1.11-4.72c1.23-5.18,2.49-10.35,3.76-15.52c1.67-6.8,3.35-13.6,5.04-20.4
					c1.79-7.16,3.6-14.32,5.43-21.47c1.58-6.15,3.17-12.29,4.83-18.41c1.11-4.63,2.49-9.2,4.13-13.67l0.11-0.28
					c-0.04,0.09-0.08,0.18-0.02,0.04c0.04-0.1,0.04-0.09,0.02-0.04l0.04-0.09c0.1-0.23,0.21-0.47,0.31-0.7
					c0.21-0.45,0.43-0.9,0.65-1.34c0.43-0.84,0.91-1.66,1.42-2.46c0.25-0.38,0.5-0.75,0.77-1.12c0.11-0.15,0.22-0.3,0.33-0.45
					l-0.01,0.01c-0.22,0.27,0.23-0.3,0.02-0.03l-0.01,0.02l0.23-0.28c0.55-0.67,1.12-1.31,1.74-1.92c0.6-0.6,1.23-1.17,1.89-1.72
					c0.13-0.11,0.27-0.21,0.4-0.32c-0.07,0.05-0.08,0.06,0.1-0.08l-0.1,0.08c0.05-0.04,0.14-0.11,0.21-0.16
					c0.37-0.28,0.75-0.55,1.13-0.81c1.49-1,3.05-1.92,4.65-2.73c1.75-0.9,3.55-1.72,5.36-2.51c0.45-0.2,0.9-0.39,1.35-0.58
					l0.74-0.32l0.24-0.1l0.08-0.03l-0.08,0.03l0.17-0.07c1.05-0.44,2.1-0.88,3.15-1.32c4.49-1.88,8.9-3.94,13.25-6.1
					C75.5,11.92,81.89,8.53,88.2,4.97c0.35-0.2,0.71-0.4,1.06-0.6c1.12-0.64,1.51-2.08,0.87-3.2c-0.64-1.12-2.08-1.51-3.2-0.87
					c-0.01,0.01-0.02,0.01-0.03,0.02c-5.42,3.1-10.94,6.04-16.51,8.89c-4.67,2.39-9.39,4.69-14.19,6.79
					c-2.12,0.93-4.39,1.85-6.8,2.87c-2.03,0.86-4.05,1.75-6.03,2.72c-3.62,1.69-6.96,3.94-9.9,6.65c-3.08,3.08-5.48,6.76-7.04,10.82
					c-2.01,4.91-3.23,10.2-4.6,15.31c-1.86,6.92-3.66,13.86-5.43,20.81c-2,7.85-3.97,15.71-5.93,23.58
					c-1.74,7.03-3.47,14.06-5.18,21.1c-1.08,4.47-2.17,8.94-3.21,13.43c-1,3.92-1.67,7.92-2.02,11.96
					c-0.32,4.6,0.51,9.22,2.41,13.42c1.13,2.38,2.57,4.59,4.29,6.59c0.92,1.1,1.91,2.15,2.96,3.14c1.1,1.04,2.6,2.82,4.18,2.9
					c2.58,0.13,5.19,0,7.77,0h2.53c1.29-0.01,2.34-1.05,2.34-2.34c-0.19-2.16-0.25-4.33-0.19-6.49c0.02-0.98,0.06-1.96,0.13-2.94
					c0.04-0.52,0.08-1.04,0.13-1.56c0.03-0.28,0.06-0.56,0.09-0.84c0.01-0.13,0.03-0.25,0.05-0.38c0-0.03,0.02-0.16,0.03-0.26
					c-0.01,0.08-0.02,0.1,0,0c0.03-0.19,0.02-0.11,0,0c0.02-0.14,0.07-0.48,0.08-0.54c0.04-0.29,0.09-0.57,0.14-0.86
					c0.1-0.57,0.22-1.14,0.34-1.71c0.24-1.06,0.53-2.11,0.89-3.13c0.1-0.3,0.21-0.59,0.33-0.88c0.03-0.08,0.06-0.16,0.1-0.24
					l-0.02,0.04l0,0L28.7,149c-0.01,0.03-0.03,0.07-0.04,0.1c0.02-0.04,0.04-0.08,0.06-0.13c0.24-0.52,0.49-1.03,0.78-1.53
					c0.26-0.45,0.55-0.89,0.85-1.31c0.03-0.06,0.07-0.11,0.11-0.16c-0.04,0.05-0.07,0.11-0.11,0.16c0.02-0.01,0.31-0.39,0.4-0.48
					c0.19-0.21,0.39-0.41,0.59-0.61c0.92-0.92,0.92-2.4,0-3.32c-0.92-0.92-2.4-0.92-3.32,0c-3.36,3.26-4.87,8.07-5.62,12.58
					c-0.65,4.02-0.88,8.1-0.71,12.17c0,0.04,0,0.09,0.01,0.13h2.49l-2.35,2.35c-0.08-0.78-0.11-1.56-0.15-2.35h-6.96
					c0.27,0.23,0.53,0.46,0.8,0.69l-1.66-0.69h0.86c-3.57-2.86-6.43-6.51-8.37-10.66c0.03,0.07,0.03,0.08-0.03-0.06
					c0.01,0.02,0.02,0.04,0.03,0.06c-0.04-0.09-0.11-0.27-0.14-0.33c-0.09-0.24-0.18-0.48-0.27-0.72c-0.18-0.51-0.34-1.02-0.48-1.54
					c-0.25-0.92-0.44-1.85-0.59-2.79c0.02,0.11,0.02,0.15-0.02-0.09c0,0.03,0.01,0.06,0.02,0.09c-0.01-0.09-0.03-0.21-0.04-0.28
					c-0.03-0.24-0.05-0.48-0.07-0.72c-0.04-0.51-0.07-1.03-0.08-1.54c-0.03-0.96,0-1.92,0.06-2.88
					C4.79,144.68,4.83,144.24,4.87,143.79z"/>
				<path id="Path_2874" d="M6.37,155.94c-0.01-0.02-0.02-0.04-0.03-0.06C6.4,156.02,6.4,156.01,6.37,155.94z"/>
				<path id="Path_2875" d="M30.35,146.12c0.04-0.05,0.07-0.11,0.11-0.16C30.41,146.01,30.38,146.06,30.35,146.12z"/>
				<path id="Path_2876" d="M15.54,167.28c-0.27-0.23-0.54-0.46-0.8-0.69h-0.86L15.54,167.28z"/>
				<path id="Path_2877" d="M24.19,166.6h-2.49c0.03,0.78,0.07,1.57,0.15,2.35L24.19,166.6z"/>
			</g>
		</g>
		<g id="Group_1021" transform="translate(43.127 114.792)">
			<g id="Group_1020">
				<path id="Path_2878" d="M4.64,18.63c1.9-5.17,3.78-10.38,5.29-15.68c0.32-1.26-0.45-2.53-1.7-2.85C7-0.2,5.76,0.5,5.4,1.7
					C3.9,7,2.01,12.21,0.11,17.39c-0.34,1.25,0.39,2.54,1.64,2.89C3,20.58,4.26,19.86,4.64,18.63z"/>
			</g>
		</g>
		<g id="Group_1022" transform="translate(35.645 132.803)">
			<path id="Path_2879" class="st20" d="M12.42,0C5.1,0,0.01,9.42,0.01,9.42l18.44-3.56C18.45,5.87,18.45,0,12.42,0z"/>
		</g>
		<g id="Group_1024" transform="translate(21.833 136.195)">
			<g id="Group_1023">
				<path id="Path_2880" d="M12.59,10.77l0.01-0.01l0.01-0.02C12.87,10.37,12.28,11.13,12.59,10.77z"/>
				<path id="Path_2882" d="M39.57,6.49c0.05,0.02,0.1,0.05,0.15,0.07C39.75,6.57,39.72,6.55,39.57,6.49z"/>
				<path id="Path_2883" d="M17.79,6.75l0.19-0.09C17.87,6.71,17.81,6.74,17.79,6.75z"/>
				<path id="Path_2884" d="M33.53,4.95c-0.13-0.02-0.12-0.02-0.06-0.01C33.61,4.96,33.72,4.97,33.53,4.95z"/>
				<path id="Path_2885" d="M9.42,17.7c0.01-0.03,0.01-0.06,0.02-0.09C9.46,17.47,9.48,17.35,9.42,17.7z"/>
				<path id="Path_2886" d="M30.14,37.37c0.09-0.05,0.19-0.09,0.28-0.14l-0.04,0.01c-0.38,0.13,0.5-0.24,0.07-0.03l-0.04,0.02
					l0.19-0.07c0.12-0.21,0.24-0.42,0.37-0.63L30.14,37.37z"/>
				<path id="Path_2887" d="M30.38,37.25l0.04-0.01l0.04-0.02C30.88,37.01,30,37.38,30.38,37.25z"/>
				<path id="Path_2888" d="M42.9,8.36c-0.13-0.1-0.12-0.09-0.06-0.04C42.96,8.4,43.11,8.51,42.9,8.36z"/>
				<path id="Path_2889" d="M9.48,21.94c-0.01-0.06-0.02-0.11-0.03-0.17C9.47,21.86,9.48,21.91,9.48,21.94z"/>
				<path id="Path_2890" d="M11.28,28.22l-0.01-0.04l-0.01-0.01C11.05,27.72,11.47,28.7,11.28,28.22z"/>
				<path id="Path_2891" d="M43.47,25.68c-0.03,0.05-0.06,0.09-0.1,0.14C43.47,25.69,43.49,25.66,43.47,25.68z"/>
				<path id="Path_2892" d="M44.65,10.11c-0.01-0.02-0.04-0.07-0.13-0.18C44.56,9.98,44.6,10.05,44.65,10.11z"/>
				<path id="Path_2893" d="M25.8,36.11c-0.03,0.04-0.06,0.07-0.09,0.1C25.7,36.23,25.72,36.21,25.8,36.11z"/>
				<path id="Path_2894" d="M24.52,37.19c-0.02,0.01-0.05,0.02-0.07,0.02C24.21,37.36,24.43,37.23,24.52,37.19z"/>
				<path id="Path_2895" d="M37.18,29.86L37.1,29.9L37.18,29.86z"/>
				<path id="Path_2896" d="M23.32,37.49c-0.66,0.03-1.32,0-1.98,0H2.35c-1.3-0.03-2.37,1-2.39,2.3c-0.03,1.3,1,2.37,2.3,2.39
					c0.03,0,0.06,0,0.09,0h9.94c3.58,0,7.17,0.04,10.75,0c2.04-0.01,4-0.78,5.5-2.15c0.83-0.84,1.53-1.81,2.07-2.86l-0.19,0.07
					c-0.09,0.05-0.19,0.09-0.28,0.14l0.84-0.84c-0.12,0.21-0.24,0.42-0.37,0.63c0.25-0.09,0.51-0.19,0.76-0.28
					c0.79-0.27,1.59-0.53,2.38-0.79c2.27-0.74,4.5-1.6,6.68-2.58c1.96-0.81,3.77-1.96,5.33-3.4c1.38-1.36,2.5-2.96,3.31-4.72
					c1.84-4.19,2.35-8.84,1.44-13.33c-0.8-3.56-3.07-6.62-6.24-8.42C40.8,1.65,36.91,0.47,32.9,0.18c-4.31-0.42-8.66-0.1-12.87,0.92
					c-3.42,0.73-6.58,2.33-9.2,4.65c-2.35,2.24-4.15,4.99-5.26,8.03C3.3,20.01,5.29,27.4,8.41,33c0.06,0.11,0.13,0.23,0.2,0.34
					c0.65,1.12,2.09,1.5,3.21,0.84c1.12-0.65,1.5-2.09,0.84-3.21c-0.48-0.83-0.92-1.68-1.29-2.56c-0.03-0.08-0.07-0.15-0.1-0.23
					l0.01,0.04c0.19,0.48-0.23-0.5-0.02-0.05l0.01,0.01c-0.08-0.19-0.16-0.39-0.23-0.58c-0.2-0.52-0.39-1.05-0.57-1.59
					c-0.37-1.14-0.67-2.31-0.89-3.49c-0.04-0.19-0.06-0.39-0.1-0.58c-0.01-0.03-0.01-0.08-0.03-0.17c0.01,0.06,0.02,0.11,0.03,0.17
					c0.03,0.16-0.07-0.56-0.08-0.7c-0.06-0.69-0.09-1.38-0.07-2.07c0.01-0.3,0.02-0.6,0.04-0.9c0.01-0.17,0.03-0.33,0.05-0.5
					c0-0.04,0.01-0.1,0.02-0.17c-0.01,0.03-0.01,0.06-0.02,0.09c0.06-0.35,0.04-0.24,0.02-0.09c0.1-0.64,0.25-1.28,0.43-1.9
					c0.1-0.33,0.22-0.66,0.34-0.98c0.01-0.03,0.02-0.05,0.03-0.07c-0.12,0.2,0.16-0.44,0,0l0.03-0.05c0.08-0.16,0.15-0.32,0.23-0.48
					c0.24-0.47,0.51-0.94,0.79-1.4c0.24-0.41,0.5-0.81,0.77-1.21c0.11-0.16,0.21-0.31,0.32-0.46c0.08-0.11,0.16-0.21,0.23-0.32
					l-0.01,0.01c-0.31,0.36,0.28-0.39,0.03-0.03l-0.01,0.02c0.59-0.72,1.23-1.4,1.93-2.02c0.07-0.06,0.15-0.12,0.22-0.19
					s0.43-0.26,0.1-0.09s0.24-0.18,0.35-0.26c0.44-0.31,0.9-0.59,1.37-0.85c0.4-0.22,0.8-0.41,1.21-0.6
					c0.02-0.01,0.08-0.04,0.19-0.09l-0.19,0.09C17.7,6.78,18.3,6.53,18.4,6.49c0.32-0.12,0.64-0.23,0.96-0.34
					c1.3-0.41,2.63-0.73,3.98-0.96c1.37-0.25,2.75-0.4,4.14-0.46c1.42-0.07,2.85-0.06,4.27,0.03c0.35,0.03,0.7,0.05,1.05,0.09
					c0.14,0.01,0.28,0.03,0.42,0.04l0.25,0.03c-0.06-0.01-0.07-0.01,0.06,0.01c0.2,0.02,0.08,0.01-0.06-0.01l0.37,0.05
					C33.97,5,34.1,5.02,34.24,5.04c0.4,0.07,0.81,0.14,1.21,0.22c1.26,0.26,2.5,0.61,3.71,1.05c0.1,0.04,0.49,0.19,0.56,0.22
					c-0.05-0.02-0.1-0.05-0.15-0.07c0.15,0.07,0.18,0.08,0.15,0.07c0.23,0.1,0.47,0.21,0.7,0.32c0.54,0.26,1.07,0.55,1.58,0.87
					c0.25,0.15,0.49,0.32,0.73,0.49l0.11,0.08c-0.05-0.04-0.07-0.05,0.06,0.04c0.21,0.16,0.06,0.05-0.06-0.04
					c0.07,0.06,0.21,0.17,0.23,0.18c0.43,0.35,0.83,0.74,1.2,1.15c0.08,0.08,0.42,0.53,0.38,0.46s-0.08-0.12-0.13-0.18
					c0.08,0.11,0.11,0.16,0.13,0.18c0.11,0.16,0.23,0.32,0.33,0.48c0.13,0.2,0.25,0.41,0.36,0.63c0.06,0.12,0.12,0.24,0.18,0.36
					l0.01,0.03c-0.17-0.48,0.21,0.42,0,0v0.01c0.18,0.49,0.32,0.99,0.43,1.5c0.06,0.3,0.11,0.59,0.15,0.89
					c-0.01-0.06,0-0.05,0.02,0.13c-0.01-0.04-0.02-0.08-0.02-0.13c0.01,0.1,0.05,0.41,0.05,0.43c0.02,0.23,0.04,0.46,0.06,0.69
					c0.05,0.71,0.07,1.42,0.04,2.13c-0.01,0.33-0.03,0.66-0.05,0.98c-0.02,0.18-0.03,0.36-0.05,0.54c-0.01,0.07-0.02,0.14-0.02,0.21
					c0.02-0.14,0.02-0.1-0.01,0.11c0.01-0.04,0.01-0.08,0.01-0.11c-0.01,0.03-0.01,0.07-0.02,0.12c-0.23,1.31-0.58,2.6-1.05,3.84
					c0.2-0.41-0.13,0.35,0,0l0,0l-0.04,0.07c-0.06,0.12-0.11,0.24-0.17,0.35c-0.14,0.29-0.29,0.58-0.45,0.86
					c-0.28,0.5-0.6,0.98-0.94,1.45c0.02-0.02,0,0.01-0.1,0.14c0.03-0.04,0.06-0.09,0.1-0.14c-0.05,0.05-0.37,0.44-0.44,0.52
					c-0.21,0.23-0.42,0.45-0.64,0.66c-0.22,0.21-0.45,0.41-0.68,0.61l-0.05,0.04l0.1-0.07l-0.15,0.11c-0.06,0.05-0.1,0.08,0,0
					l0.05-0.04c-0.11,0.08-0.23,0.17-0.34,0.25c-1.31,0.84-2.69,1.54-4.14,2.1l-0.08,0.04l0.08-0.04l-0.35,0.15
					c-0.19,0.08-0.39,0.16-0.58,0.23c-0.34,0.13-0.68,0.26-1.02,0.39c-0.73,0.27-1.48,0.53-2.22,0.78
					c-1.12,0.38-2.25,0.72-3.36,1.13c-1.13,0.25-2.14,0.9-2.83,1.83c-0.22,0.35-0.42,0.72-0.63,1.07c-0.08,0.13-0.16,0.27-0.24,0.4
					c-0.05,0.08-0.21,0.32-0.23,0.36c0.03-0.04,0.06-0.06,0.09-0.1c-0.08,0.1-0.1,0.12-0.09,0.1c-0.16,0.19-0.33,0.36-0.52,0.53
					c0.04-0.03,0.03-0.02-0.12,0.11c0.04-0.04,0.08-0.07,0.12-0.11c-0.05,0.04-0.17,0.14-0.23,0.18c-0.15,0.09-0.3,0.17-0.44,0.26
					l-0.07,0.04c0.02-0.01,0.05-0.02,0.07-0.02c-0.09,0.04-0.32,0.17-0.07,0.02c-0.17,0.06-0.34,0.12-0.52,0.17
					c-0.13,0.04-0.27,0.06-0.41,0.09C23.98,37.35,23.45,37.48,23.32,37.49z"/>
				<path id="Path_2897" d="M25.19,36.74c-0.04,0.04-0.08,0.08-0.12,0.11C25.22,36.72,25.23,36.71,25.19,36.74z"/>
				<path id="Path_2899" d="M46.11,14c0.01,0.04,0.02,0.08,0.02,0.13C46.11,13.96,46.11,13.95,46.11,14z"/>
				<path id="Path_2900" d="M41.76,27.44l-0.1,0.07l-0.04,0.04L41.76,27.44z"/>
				<path id="Path_2901" d="M46.14,18.98c0,0.04-0.01,0.08-0.01,0.11C46.16,18.88,46.16,18.85,46.14,18.98z"/>
				<path id="Path_2902" d="M45.07,22.95L45.07,22.95C44.94,23.3,45.27,22.54,45.07,22.95z"/>
			</g>
		</g>
		<g id="Group_1026" transform="translate(33.324 130.485)">
			<g id="Group_1025">
				<path id="Path_2903" d="M11.96,5.26c0.01,0,0.02-0.01,0.03-0.01C12.45,5.02,11.63,5.36,11.96,5.26z"/>
				<path id="Path_2906" d="M18.39,7.74L18.39,7.74C18.4,8.44,18.44,8.01,18.39,7.74z"/>
				<path id="Path_2908" d="M17.56,5.74c-0.02-0.02-0.04-0.04-0.06-0.06c0.04,0.07,0.09,0.12,0.14,0.17L17.6,5.78L17.56,5.74z"/>
				<path id="Path_2909" d="M18.02,6.47c0.03,0.08,0.05,0.15,0.08,0.22c0.01,0.01,0.02,0.03,0.03,0.04
					C18.12,6.73,17.92,6.15,18.02,6.47z"/>
				<path id="Path_2910" d="M15.54,4.7h0.02l0.15,0.01L15.54,4.7z"/>
				<path id="Path_2911" d="M18.41,7.91c0.01,0.09,0.01,0.18,0.01,0.28c0.03,1.3,1.1,2.32,2.39,2.3c1.26-0.03,2.27-1.04,2.3-2.3
					c0.04-3.93-2.74-7.32-6.6-8.05C10.92-0.74,6.05,2.79,2.76,6.98C1.84,8.1,1.02,9.3,0.3,10.56c-0.65,1.12-0.28,2.56,0.84,3.21
					c1.12,0.65,2.56,0.28,3.21-0.84l0,0c0.44-0.79,0.93-1.55,1.47-2.28c0.11-0.15,0.22-0.3,0.34-0.46l0.03-0.04
					c-0.22,0.27,0.19-0.27,0,0l0.06-0.07c0.32-0.4,0.65-0.79,0.99-1.17c0.7-0.77,1.46-1.48,2.25-2.15l0.04-0.04
					c-0.42,0.3,0.3-0.26,0,0l0.01-0.01c0.09-0.07,0.18-0.13,0.27-0.2c0.23-0.16,0.46-0.32,0.69-0.47c0.48-0.29,0.97-0.56,1.47-0.8
					l0.01-0.01c-0.01,0-0.02,0.01-0.03,0.01c-0.33,0.1,0.49-0.24,0.03-0.01c0.12-0.04,0.24-0.09,0.36-0.14
					c0.24-0.08,0.48-0.16,0.73-0.22c0.25-0.07,0.5-0.11,0.74-0.17l0.05-0.01c-0.54,0.04,0.44-0.11,0,0h0.01
					c0.17-0.01,0.34-0.03,0.52-0.04c0.28-0.01,0.57-0.01,0.85,0.01c0.11,0.01,0.22,0.02,0.32,0.03h-0.02c-0.23-0.02-0.11-0.02,0,0
					l0.17,0.02l-0.15-0.01l0.05,0.01c0.27,0.07,0.54,0.12,0.8,0.21l0.1,0.03c-0.17-0.08-0.11-0.06,0.19,0.07c0,0-0.1-0.04-0.19-0.07
					l0.04,0.02c0.06,0.03,0.13,0.07,0.19,0.1c0.08,0.05,0.25,0.12,0.37,0.2c-0.1-0.14,0.01-0.13,0.15,0.14
					c-0.04-0.06-0.09-0.1-0.15-0.14c0.03,0.04,0.06,0.07,0.09,0.1c0.06,0.06,0.12,0.12,0.19,0.18c0.04,0.04,0.08,0.08,0.11,0.12
					c-0.01-0.02-0.01-0.03,0-0.03c0.03,0.04,0.07,0.09,0.09,0.13c0.14,0.14,0.11,0.13,0.05,0.07c0.08,0.12,0.17,0.26,0.18,0.29
					C17.91,6.33,18,6.52,18.11,6.7c-0.03-0.07-0.06-0.15-0.08-0.22c-0.11-0.32,0.1,0.25,0.11,0.26c-0.01-0.01-0.02-0.03-0.03-0.04
					c0.01,0.02,0.02,0.04,0.03,0.07c0.11,0.32,0.19,0.64,0.26,0.97c0-0.04,0-0.07,0-0.12C18.38,7.71,18.4,7.81,18.41,7.91z"/>
				<path id="Path_2912" d="M16.52,4.96c0.09,0.03,0.19,0.07,0.19,0.07C16.41,4.9,16.35,4.88,16.52,4.96z"/>
				<path id="Path_2913" d="M17.27,5.42c-0.14-0.27-0.25-0.28-0.15-0.14C17.18,5.31,17.23,5.36,17.27,5.42z"/>
			</g>
		</g>
		<g id="Group_1028" transform="translate(128.924 6.787)">
			<g id="Group_1027">
				<path id="Path_2914" d="M53.56,28.12c0.1,0.06,0.21,0.09,0.32,0.11l-0.02-0.01C53.76,28.19,53.66,28.16,53.56,28.12z"/>
				<path id="Path_2915" d="M54.07,28.36l-0.01-0.01L54.07,28.36L54.07,28.36L54.07,28.36z"/>
				<path id="Path_2916" d="M53.93,28.24L53.93,28.24l-0.03-0.01l0.01,0.01L53.93,28.24z"/>
				<path id="Path_2917" d="M53.88,28.23l0.18,0.12c-0.05-0.03-0.1-0.07-0.14-0.11L53.88,28.23z"/>
				<path id="Path_2919" d="M68.84,166.9H68c-0.27,0.23-0.54,0.46-0.81,0.69L68.84,166.9z"/>
				<path id="Path_2920" d="M62.28,43.34l0.12,0.29L62.28,43.34z"/>
				<path id="Path_2921" d="M54.59,161.29l0.02,0.03C54.94,161.7,54.3,160.88,54.59,161.29z"/>
				<path id="Path_2922" d="M56.55,164.59l0.01,0.02l0.02,0.04C56.82,165.19,56.42,164.22,56.55,164.59z"/>
				<path id="Path_2924" d="M48.77,21.19c-8.52-3.61-16.92-7.53-25.3-11.45C17.13,6.78,10.82,3.79,4.52,0.76l-1-0.48
					C2.39-0.33,0.98,0.03,0.31,1.13c-0.64,1.12-0.27,2.55,0.84,3.21c4.16,2,8.34,3.99,12.52,5.96c8.06,3.81,16.14,7.58,24.27,11.23
					c3.65,1.64,7.32,3.26,11.02,4.78c1.26,0.52,2.53,1.03,3.82,1.5c0.25,0.09,0.51,0.21,0.78,0.3c-0.04-0.04,0.11-0.03,0.28,0.08
					l0.02,0.02l0.05,0.01c-0.04-0.04-0.04-0.04,0.02,0.01c0.04,0.01,0.08,0.02,0.12,0.03c-0.05-0.01-0.07-0.02-0.11-0.02
					c0.03,0.03,0.07,0.06,0.13,0.12c0.04,0.03,0.08,0.06,0.12,0.08c-0.04-0.02-0.08-0.05-0.12-0.08c0.12,0.11,0.24,0.22,0.36,0.34
					c0.26,0.27,0.5,0.55,0.74,0.84l0,0c-0.06-0.07-0.11-0.15-0.14-0.19c0.04,0.07,0.09,0.13,0.14,0.19v0.01l0.01,0.02
					c0.17,0.21,0.09,0.11-0.01-0.02l0,0c0.02,0.03,0.04,0.06,0.06,0.08c0.13,0.18,0.26,0.36,0.38,0.54
					c0.29,0.42,0.57,0.85,0.83,1.28c1.31,2.18,2.5,4.44,3.55,6.76c0.67,1.42,1.3,2.86,1.92,4.3c0.12,0.28,0.24,0.56,0.35,0.83
					l0.12,0.29l-0.12-0.29c-0.01-0.02,0.14,0.33,0.18,0.43l0.3,0.71c0.33,0.8,0.66,1.6,0.98,2.41c1.46,3.63,2.84,7.29,4.18,10.96
					c2.98,8.16,5.75,16.4,8.42,24.66c2.61,8.07,5.13,16.17,7.55,24.31c1.89,6.33,3.73,12.68,5.48,19.05c0.55,2,1.09,4,1.59,6
					c0.16,0.62,0.31,1.24,0.44,1.87c0.02,0.11,0.05,0.22,0.07,0.33c0.01,0.05,0.02,0.11,0.03,0.16c0,0.02,0.01,0.04,0.01,0.06
					c0.03,0.15,0.05,0.19,0.06,0.18c-0.01-0.15-0.03-0.28-0.07-0.3c0.06,0.03,0.09,0.28,0.07,0.3c0.02,0.32-0.02,0.8-0.03,0.9
					c-0.01,0.19-0.02,0.38-0.04,0.56c0,0.01,0,0.04-0.01,0.08c0.02-0.12,0.03-0.2,0,0.04c-0.05,0.34-0.02,0.1,0-0.04
					c-0.01,0.09-0.03,0.21-0.04,0.25c-0.19,0.99-0.46,1.97-0.82,2.91c-0.09,0.25-0.19,0.5-0.29,0.75l0,0c0.22-0.48-0.13,0.33,0,0
					l-0.01,0.03c-0.05,0.11-0.1,0.23-0.15,0.34c-0.25,0.56-0.53,1.11-0.81,1.66c-1.29,2.42-2.75,4.73-4.38,6.93
					c-1.63,2.24-3.44,4.44-5.45,6.71s-4.12,4.46-6.3,6.56c-1.7,1.64-3.44,3.22-5.25,4.75h0.84l-1.66,0.69
					c0.27-0.23,0.54-0.46,0.81-0.69h-5.92c0.13,0.77,0.18,1.56,0.13,2.35l-2.35-2.35h2.22c-0.19-1.11-0.49-2.21-0.89-3.26
					c-1.8-4.49-5.01-8.26-9.15-10.76c-2.48-1.53-5.14-2.76-7.91-3.64c-0.8,0.97-1.6,1.95-2.4,2.92c-0.35-1.31-0.69-2.61-1.04-3.92
					c1.15,0.29,2.29,0.62,3.43,1c4.38-5.36,8.79-10.68,13.24-15.98c1.59-1.88,3.18-3.75,4.81-5.58c0.89-0.93,0.89-2.39,0-3.32
					c-0.92-0.9-2.4-0.9-3.32,0c-6.42,7.18-12.46,14.71-18.56,22.16c-0.63,0.77-1.27,1.55-1.9,2.33c-0.91,0.95-0.88,2.45,0.07,3.36
					c0.27,0.26,0.6,0.45,0.96,0.56c1.84,0.46,3.65,1.03,5.42,1.72c0.59,0.23,1.07,0.44,1.89,0.83c0.7,0.34,1.39,0.71,2.06,1.1
					c0.56,0.33,1.12,0.68,1.66,1.05c0.26,0.17,0.5,0.36,0.75,0.54l0.04,0.03L51.25,158c-0.28-0.22,0.38,0.28,0.02,0.01
					c0.15,0.12,0.31,0.25,0.46,0.37c0.87,0.72,1.67,1.51,2.41,2.35c0.16,0.18,0.31,0.38,0.47,0.56l0,0l-0.02-0.03
					c-0.29-0.41,0.35,0.41,0.02,0.03c0.05,0.07,0.1,0.13,0.14,0.2c0.29,0.39,0.56,0.8,0.81,1.22c0.22,0.37,0.43,0.75,0.63,1.13
					c0.1,0.19,0.19,0.38,0.28,0.58c0.03,0.06,0.05,0.11,0.08,0.17l-0.01-0.02c-0.13-0.37,0.27,0.6,0.02,0.05l-0.02-0.04
					c0.22,0.64,0.46,1.27,0.64,1.93c0.07,0.27,0.13,0.54,0.18,0.81c0.06,0.32,0.08,1.23,0.06,0.23c0.02,0.56,0.13,1.1,0.09,1.66
					c0.01,1.29,1.06,2.33,2.35,2.34c2.98,0,5.99,0.15,8.96,0c1.54-0.08,3.03-1.81,4.15-2.8c1.16-1.03,2.3-2.08,3.41-3.15
					c2.3-2.22,4.51-4.52,6.63-6.91c4.21-4.52,7.82-9.57,10.72-15.02c1.76-3.53,3.05-7.33,2.17-11.29
					c-0.98-4.44-2.28-8.82-3.52-13.19c-2.17-7.68-4.43-15.32-6.79-22.95c-2.74-8.92-5.6-17.79-8.58-26.63
					c-2.79-8.22-5.69-16.42-8.95-24.47c-2.32-5.73-4.66-11.7-8.08-16.89c-0.95-1.68-2.28-3.11-3.88-4.18
					c-1.05-0.49-2.14-0.9-3.24-1.24c-0.72-0.28-1.43-0.56-2.14-0.85c-0.36-0.15-0.71-0.29-1.07-0.44l-0.62-0.26l-0.25-0.11
					l0.14,0.06L48.77,21.19z"/>
				<path id="Path_2925" d="M51.25,158.02l0.02,0.01C51.64,158.29,50.98,157.8,51.25,158.02z"/>
				<path id="Path_2926" d="M91.51,134.17c0.04,0.02,0.06,0.15,0.07,0.3C91.6,134.45,91.57,134.2,91.51,134.17z"/>
				<path id="Path_2927" d="M91.51,136.05c0.03-0.24,0.02-0.16,0-0.04C91.49,136.15,91.46,136.39,91.51,136.05z"/>
				<path id="Path_2929" d="M62.2,169.25c0.05-0.78,0-1.57-0.13-2.35h-2.22L62.2,169.25z"/>
				<path id="Path_2930" d="M41.73,152.16c0.8-0.98,1.6-1.95,2.4-2.92c-1.13-0.37-2.28-0.71-3.43-1
					C41.04,149.55,41.38,150.85,41.73,152.16z"/>
			</g>
		</g>
		<g id="Group_1030" transform="translate(169.179 108.057)">
			<g id="Group_1029">
				<path id="Path_2931" d="M11.7,28.21l1.6,3.46c0.66,1.11,2.09,1.49,3.21,0.84c1.09-0.68,1.46-2.09,0.84-3.21l-4.4-9.52L5.94,4.62
					l-1.6-3.46C3.68,0.04,2.25-0.33,1.13,0.32C0.04,0.99-0.33,2.4,0.29,3.53c1.47,3.17,2.93,6.35,4.4,9.52L11.7,28.21z"/>
			</g>
		</g>
		<g id="Group_1032" transform="translate(163.477 102.55)">
			<g id="Group_1031">
				<path id="Path_2932" d="M5.94,37.13c0.13-1.12,0.27-2.24,0.42-3.36c0.07-0.53,0.14-1.07,0.21-1.6c0.02-0.14,0.04-0.29,0.06-0.43
					c-0.07,0.55,0.05-0.39,0-0.02v0.02v-0.02c0.04-0.3,0.08-0.59,0.12-0.89c1.06-7.75,2.31-15.47,3.68-23.17
					c0.28-1.57,0.56-3.14,0.85-4.7c0.34-1.25-0.39-2.54-1.64-2.89C8.39-0.28,7.09,0.45,6.75,1.7C5.9,6.2,5.13,10.71,4.39,15.22
					C2.93,24.13,1.6,33.07,0.71,42.05c-0.48,4.21-0.71,8.45-0.69,12.69c0,1.3,1.05,2.35,2.35,2.35c1.3,0,2.35-1.05,2.35-2.35l0,0
					c-0.03-3.71,0.15-7.42,0.54-11.11C5.45,41.46,5.68,39.29,5.94,37.13z"/>
				<path id="Path_2933" d="M6.62,31.73v-0.02C6.67,31.34,6.55,32.28,6.62,31.73z"/>
			</g>
		</g>
		<g id="Group_1034" transform="translate(132.226 152.621)">
			<g id="Group_1033">
				<path id="Path_2934" d="M4.71,20.3c-0.01-0.1-0.01-0.08,0.01-0.02c0-0.01,0-0.01,0.01-0.02s0.01-0.05,0.02-0.07L4.7,20.15
					C4.69,20.27,4.68,20.38,4.71,20.3z"/>
				<path id="Path_2935" d="M4.71,20.3l0.01-0.02C4.71,20.22,4.7,20.2,4.71,20.3z"/>
				<path id="Path_2936" d="M4.73,20.46L4.73,20.46c0.01,0.03,0.02,0.06,0.03,0.09c0-0.02,0-0.04,0-0.06v-0.02
					c-0.01-0.05-0.03-0.14-0.04-0.2l-0.01,0.02C4.72,20.33,4.72,20.38,4.73,20.46z"/>
				<path id="Path_2937" d="M4.7,20.15l0.04,0.02c0-0.02,0.01-0.04,0.01-0.06v-0.04C4.75,19.83,4.71,20,4.7,20.15z"/>
				<path id="Path_2938" d="M13.66,8.92l0.06-0.05C13.88,8.74,13.69,8.9,13.66,8.92z"/>
				<path id="Path_2939" d="M4.76,20.55c0.03,0.07,0.04,0.08,0-0.06C4.76,20.51,4.76,20.52,4.76,20.55z"/>
				<path id="Path_2940" d="M5.03,19.08c0.02-0.07,0.05-0.14,0.08-0.2C5.15,18.75,5.1,18.82,5.03,19.08z"/>
				<path id="Path_2941" d="M7.49,15.04l0.09-0.11C7.56,14.94,7.34,15.22,7.49,15.04z"/>
				<path id="Path_2942" d="M4.64,20.21c0,0,0.01,0.03,0.03,0.09C4.68,20.29,4.67,20.27,4.64,20.21z"/>
				<path id="Path_2943" d="M4.42,20l0.07,0.04C4.45,20.01,4.43,20,4.42,20z"/>
				<path id="Path_2944" d="M9.15,21.25l-0.12-0.02C8.87,21.21,9.01,21.23,9.15,21.25z"/>
				<path id="Path_2945" d="M4.76,20.55c-0.01-0.02-0.02-0.05-0.03-0.09C4.76,20.69,4.76,20.66,4.76,20.55z"/>
				<path id="Path_2946" d="M4.71,20.3c-0.03,0.08-0.03-0.02-0.01-0.14c-0.07-0.04-0.13-0.07-0.2-0.11l0,0
					c0.02,0.01,0.03,0.02,0.06,0.04c0.17,0.15,0.02,0.06-0.1-0.03c0.06,0.09,0.2,0.25,0.22,0.23c-0.02-0.05-0.03-0.09-0.03-0.09
					c0.03,0.06,0.04,0.08,0.03,0.09c0.02,0.05,0.04,0.11,0.06,0.17l0,0C4.72,20.38,4.71,20.33,4.71,20.3z"/>
				<path id="Path_2948" d="M4.43,20.01c-0.18-0.1-0.09-0.03,0.02,0.05C4.43,20.03,4.42,20.01,4.43,20.01z"/>
				<path id="Path_2949" d="M18.87,5.63C18.91,5.61,18.96,5.6,19,5.58C19.02,5.57,19.01,5.57,18.87,5.63z"/>
				<path id="Path_2950" d="M4.55,20.09c-0.03-0.02-0.04-0.03-0.06-0.04l-0.07-0.04c-0.01,0.01,0,0.02,0.02,0.05
					C4.57,20.14,4.73,20.24,4.55,20.09z"/>
				<path id="Path_2951" d="M25.76,4.82c-0.08-0.01-0.09-0.01-0.06,0C25.75,4.82,26.06,4.86,25.76,4.82z"/>
				<path id="Path_2952" d="M4.99,20.3c-0.02-0.01-0.05-0.02-0.07-0.03l0.01,0.01C4.95,20.29,4.96,20.29,4.99,20.3z"/>
				<path id="Path_2953" d="M45.77,21.07h-0.92c-0.25,0.23-0.49,0.46-0.74,0.69L45.77,21.07z"/>
				<path id="Path_2954" d="M28.89,20.43l-0.06,0.03C28.61,20.55,28.8,20.46,28.89,20.43z"/>
				<path id="Path_2956" d="M25.69,21.38l-0.16,0.02l-0.08,0.01C25.31,21.43,26.12,21.33,25.69,21.38z"/>
				<path id="Path_2957" d="M4.74,20.18l0.01,0.01c0-0.03,0-0.04,0-0.06C4.74,20.14,4.74,20.16,4.74,20.18z"/>
				<path id="Path_2958" d="M4.72,20.25c0,0.01-0.01,0.02-0.01,0.02c0.01,0.06,0.03,0.15,0.04,0.2v0.02c0-0.09-0.01-0.21-0.01-0.3
					l-0.01-0.01C4.73,20.2,4.73,20.23,4.72,20.25z"/>
				<path id="Path_2959" d="M4.76,20.55c0,0.11-0.01,0.15-0.03-0.08c-0.02-0.06-0.04-0.12-0.06-0.17c-0.02,0.02-0.16-0.14-0.22-0.23
					c-0.11-0.08-0.2-0.15-0.02-0.05c0.01-0.01,0.03,0.01,0.07,0.04l0,0c0.06,0.04,0.13,0.07,0.2,0.11c0.02-0.16,0.05-0.33,0.05-0.07
					v0.04c0.02-0.08,0.03-0.17,0.05-0.25c0.07-0.27,0.15-0.54,0.25-0.81c0.03-0.08,0.05-0.15,0.06-0.19
					c-0.03,0.06-0.06,0.13-0.08,0.2c0.07-0.26,0.12-0.33,0.08-0.2c0.04-0.08,0.08-0.17,0.12-0.25c0.15-0.31,0.31-0.62,0.48-0.93
					c0.39-0.68,0.81-1.34,1.26-1.97c0.12-0.17,0.25-0.34,0.37-0.51l0.14-0.18c-0.15,0.18,0.07-0.09,0.09-0.11l-0.09,0.11l0.01-0.01
					c0.31-0.37,0.61-0.75,0.93-1.12c0.62-0.72,1.28-1.42,1.96-2.09c0.71-0.7,1.45-1.38,2.21-2.03c0.36-0.31,0.73-0.61,1.1-0.9
					l0.02-0.02l-0.06,0.05c0.03-0.03,0.23-0.18,0.06-0.05L14,8.66c0.24-0.18,0.48-0.35,0.72-0.52c0.84-0.6,1.71-1.16,2.6-1.67
					c0.41-0.24,0.82-0.47,1.24-0.68c0.08-0.04,0.37-0.17,0.43-0.2c-0.04,0.02-0.09,0.03-0.13,0.05c0.13-0.06,0.16-0.06,0.13-0.05
					c0.21-0.09,0.43-0.17,0.65-0.24c0.42-0.14,0.84-0.26,1.27-0.36c0.23-0.05,0.46-0.1,0.69-0.14c0.1-0.02,0.2-0.03,0.3-0.05h0.01
					c-0.31,0.02,0.24-0.05,0,0l0.06-0.01c0.91-0.09,1.83-0.1,2.75-0.05c0.19,0.01,0.39,0.03,0.58,0.04
					c0.13,0.01,0.26,0.03,0.39,0.04h0.01c-0.03-0.01-0.02,0,0.06,0c0.3,0.03-0.01,0-0.06,0c0.07,0.01,0.44,0.06,0.51,0.07
					c0.25,0.04,0.5,0.09,0.74,0.14c0.84,0.17,1.66,0.39,2.48,0.64c0.75,0.23,1.49,0.5,2.22,0.8l0.16,0.06l-0.07-0.03
					c-0.29-0.13,0.43,0.17,0.13,0.06l-0.06-0.02l0.33,0.15c0.32,0.14,0.63,0.29,0.95,0.44c0.8,0.39,1.58,0.81,2.34,1.27
					c0.11,0.07,0.22,0.13,0.32,0.2c0.93,0.52,2.08,0.37,2.84-0.37l1.75-1.37c0.91-0.92,0.91-2.4,0-3.32c-0.93-0.88-2.39-0.88-3.32,0
					l-0.26,0.2c0.46,0.25,0.91,0.52,1.35,0.81l-2.84,0.37l1.49-1.17c-1.25-0.67-2.55-1.27-3.88-1.79
					c-3.44-1.49-7.19-2.12-10.92-1.85c-2.26,0.22-4.45,0.9-6.44,1.99c-1.94,1.09-3.78,2.35-5.5,3.76c-3.13,2.47-5.82,5.44-7.96,8.8
					c-1.32,2.14-3.04,5.63-1.4,8.06c1.32,1.96,3.98,2.52,6.16,2.89c3.08,0.5,6.19,0.77,9.31,0.81c2.81,0.08,5.62,0.01,8.42-0.22
					c1.08-0.07,2.16-0.22,3.22-0.45c2.03-0.52,3.97-1.35,5.74-2.47c0.41-0.26,0.81-0.53,1.2-0.82c-0.08-0.17-0.16-0.33-0.25-0.5
					c-0.14-0.25-0.31-0.49-0.45-0.74c-0.15-0.1-0.1-0.07-0.01-0.01c-0.01-0.03-0.03-0.05-0.05-0.07c-0.06-0.12,0.03,0,0.1,0.11
					c0.05,0.03,0.1,0.06,0.15,0.1c0.69,0.32,1.5,0.25,2.13-0.18c0.4-0.26,0.08-0.05-0.02,0.03c-0.2,0.18-0.41,0.34-0.63,0.51
					c-0.33,0.26-0.66,0.5-0.99,0.75c0.2,0.4,0.39,0.81,0.58,1.22l0.02,0.03c-0.16-0.41,0.22,0.5,0,0l0.03,0.09
					c0.03,0.08,0.07,0.16,0.1,0.25c0.31,1,1.22,1.69,2.26,1.72h6.26c1.23,0,2.45,0.17,3.46-0.69c0.71-0.6,1.39-1.27,2.07-1.9
					l1.64-1.51h-0.91l1.66-0.69l-0.75,0.69h4.77c1.3,0.03,2.37-1,2.39-2.3c0.03-1.3-1-2.37-2.3-2.39c-0.03,0-0.06,0-0.09,0h-3.13
					c-1.39,0-3.1-0.28-4.22,0.69c-1.27,1.1-2.5,2.27-3.73,3.42h0.92l-1.66,0.69c0.25-0.23,0.49-0.46,0.74-0.69H39.3
					c0.26,0.62,0.48,1.22,0.68,1.72l-2.26-1.72h1.58c-0.83-1.98-2.07-4.19-4.15-4.19c-0.91,0.1-1.75,0.52-2.37,1.2
					c-0.06,0.05-0.47,0.36-0.15,0.12s-0.12,0.09-0.21,0.16c-0.31,0.23-0.63,0.45-0.96,0.66c-0.8,0.51-1.64,0.97-2.51,1.37
					l-0.14,0.06l0.06-0.03c-0.08,0.03-0.27,0.12-0.06,0.03c-0.09,0.04-0.18,0.07-0.27,0.11c-0.27,0.1-0.53,0.2-0.8,0.29
					c-0.38,0.13-0.76,0.25-1.15,0.35c-0.35,0.09-0.71,0.14-1.06,0.2l0.16-0.02c0.43-0.05-0.38,0.06-0.24,0.03l0.08-0.01l-0.2,0.02
					c-0.28,0.03-0.56,0.06-0.83,0.08c-1.25,0.11-2.5,0.17-3.75,0.21c-2.95,0.09-5.91,0.02-8.86-0.19c-0.71-0.05-1.42-0.12-2.13-0.2
					c-0.17-0.02-0.34-0.04-0.51-0.06l-0.09-0.01c0.05,0,0.09,0.01,0.14,0.02c-0.35,0-0.69-0.05-1.03-0.15
					c-1.08-0.16-2.14-0.41-3.18-0.76c-0.04-0.01-0.07-0.03-0.11-0.05c0.15,0.07,0.26,0.15,0,0.01L4.92,20.3
					c-0.04-0.02-0.09-0.04-0.14-0.05c0.04,0.01,0.08,0.02,0.12,0.04L4.75,20.2c0,0.09,0.01,0.21,0.01,0.3
					C4.8,20.62,4.79,20.61,4.76,20.55z"/>
				<path id="Path_2960" d="M39.98,22.79c-0.19-0.5-0.42-1.1-0.68-1.72h-1.58L39.98,22.79z"/>
				<path id="Path_2961" d="M34.03,21.21L34.03,21.21C33.93,21.14,33.87,21.11,34.03,21.21z"/>
				<path id="Path_2962" d="M33.98,21.13c0.01,0.03,0.03,0.05,0.05,0.07l0.06,0.04C34,21.13,33.92,21.01,33.98,21.13z"/>
				<path id="Path_2963" d="M38.12,4.54c-0.44-0.29-0.89-0.55-1.35-0.81l-1.49,1.17L38.12,4.54z"/>
				<path id="Path_2964" d="M50.24,21.65h0.91l0.75-0.69L50.24,21.65z"/>
				<path id="Path_2965" d="M31.73,6.5l0.08,0.03l0.06,0.02C32.16,6.67,31.45,6.37,31.73,6.5z"/>
				<path id="Path_2967" d="M36.35,21.19c0.1-0.08,0.42-0.29,0.02-0.03c-0.63,0.43-1.44,0.5-2.13,0.18c-0.05-0.04-0.1-0.07-0.15-0.1
					l0.1,0.14c-0.05-0.03-0.08-0.12-0.13-0.16l-0.02-0.01c0.14,0.25,0.31,0.48,0.45,0.74c0.09,0.16,0.17,0.33,0.25,0.5
					c0.33-0.24,0.66-0.49,0.99-0.75C35.93,21.53,36.14,21.37,36.35,21.19z"/>
				<path id="Path_2968" d="M34.18,21.38c0,0-0.05-0.07-0.1-0.14l-0.06-0.04l0.01,0.01l0.02,0.01
					C34.1,21.26,34.12,21.35,34.18,21.38z"/>
			</g>
		</g>
	</g>
	<g id="Group_1036" transform="translate(1101.426 619.082)">
		<path id="Path_2969" class="st20" d="M100.67,17.84l-4.13-8.26c0,0-12.4-16.18-25.22-5.35c0,0-3.58-4.22-10.85-4.22
			C47.62,0,39.12,25.66,39.12,25.66s-5.14,15.63-20.14,12.8c0,0-0.91,6.47-1.67,10.78l-5.94-4.72c-4.55-1.03-9.16,1.46-10.78,5.83
			c-3.26,9.52,7.75,25.82,17.68,20.73l1.08-0.37c5.59,14.77,13.36,33.22,41.11,33.22c26.23,0,37.11-18.17,41.19-33.28
			c5.52,2.32,13.1,0.9,17.49-9.03c5.46-12.35-2.75-18.39-8.94-17.11l-6.15,5.68C104.06,50.19,104.37,24.82,100.67,17.84z"/>
	</g>
	<g id="Group_1037" transform="translate(1101.426 619.082)">
		<path id="Path_2970" class="st51" d="M42.78,33.51c3.11-6.73,4.51-14.2,8.2-20.63S61.76,1,69,2.58l0.09-0.18
			c-2.58-1.61-5.58-2.45-8.62-2.4C47.62,0,39.13,25.65,39.13,25.65s-5.14,15.63-20.14,12.8c0,0-0.91,6.47-1.67,10.78l-5.94-4.72
			c-4.55-1.03-9.16,1.46-10.78,5.83c-3.26,9.52,7.75,25.82,17.68,20.73l1.08-0.37c5.59,14.77,13.36,33.22,41.11,33.22
			c26.23,0,37.11-18.17,41.19-33.28c5.52,2.32,13.1,0.9,17.49-9.03c5.46-12.35-2.75-18.39-8.94-17.11l-6.15,5.68
			c0,0,0.31-25.37-3.39-32.35l-4.13-8.26c0,0-11.53-15.04-23.85-6.41c4.63-0.49,9.23,2.88,11.67,7.01
			c2.68,4.53,3.56,9.86,5.31,14.82s4.84,9.97,9.84,11.61c-0.87,12.93-1.81,26.15-6.97,38.04S77.1,97.03,64.26,98.79
			c-12.36,1.69-24.96-5.3-31.76-15.77S24.23,59.26,26.53,47C33.92,46.65,39.67,40.24,42.78,33.51z"/>
	</g>
	<g id="Group_1038" transform="translate(1108.488 587.503)">
		<path id="Path_2971" class="st18" d="M107.6,63.06c2.48-13.75-0.1-28.7-7.46-40.39S78.27,3.43,65.48,7.74
			c-2.7-4.11-7.06-6.83-11.93-7.47C48.81-0.47,43.97,0.42,39.4,1.9C9.45,11.57-5.84,46.9,2.07,69.2c3.44,9.7,7.91,13.11,7.91,13.11
			c0.45-3.89,1.1-8.06,1.94-12.27l0,0c4.29,0.9,8.77-0.12,12.25-2.78c5.29-4.03,8.26-10.47,11.08-16.62s5.91-12.57,11.32-16.42
			s13.86-3.96,17.68,1.59c6.92-6.17,18.64-4.89,22.63,20.04l4.73,5.69l4.88,2.51c0,0,0.76,13.3,0.54,18.27
			C97.05,82.31,104.82,78.47,107.6,63.06z"/>
	</g>
	<g id="Group_1039" transform="translate(1108.49 608.686)">
		<path id="Path_2972" class="st52" d="M107.6,41.88c0.77-4.32,1.06-8.71,0.85-13.09c-1.56,0.25-3.16,0.15-4.68-0.28
			c-5.73-1.69-9.72-6.81-12.88-11.88S84.81,6.05,79.92,2.62s-12.56-3.84-16.19,0.9c-10.9-4.73-23.58-2.33-32,6.05
			c-3.59,3.71-6.09,8.32-9.31,12.36s-7.55,7.66-12.69,8.1c-3.4,0.23-6.7-1.19-8.87-3.82c-1.41,7.73-1.08,15.32,1.23,21.8
			c3.44,9.7,7.91,13.11,7.91,13.11c0.45-3.89,1.1-8.06,1.94-12.27l0,0c4.29,0.9,8.77-0.12,12.25-2.78
			c5.29-4.03,8.26-10.47,11.08-16.62s5.91-12.57,11.32-16.42s13.86-3.96,17.68,1.59c6.92-6.17,18.64-4.89,22.63,20.04l4.73,5.69
			l4.88,2.51c0,0,0.76,13.3,0.54,18.27C97.04,61.12,104.81,57.29,107.6,41.88z"/>
	</g>
	<g id="Group_1041" transform="translate(1116.109 667.459)">
		<g id="Group_1040" transform="translate(0 0)">
			<path id="Path_2974" class="st18" d="M69.67,45.74c-0.05,0.04-0.09,0.08-0.14,0.11l-0.02,0.02
				C69.38,45.97,69.23,46.15,69.67,45.74z"/>
			<path id="Path_2975" class="st18" d="M86.46,11.53l-0.02,0.14v0.01C86.37,12.26,86.51,11.18,86.46,11.53z"/>
			<path id="Path_2978" class="st18" d="M62.08,50.19c-0.03,0.02-0.07,0.03-0.1,0.04C62.52,50.09,62.26,50.13,62.08,50.19z"/>
			<path id="Path_2979" class="st18" d="M52.37,52.8l-0.09,0.01l-0.04,0.01C51.91,52.86,52.7,52.76,52.37,52.8z"/>
			<path id="Path_2980" class="st18" d="M2.36,0C1.08,0.03,0.04,1.06,0.02,2.35c-0.03,1.8,0.04,3.59,0.2,5.38
				c0.33,4.52,1.04,9,2.11,13.4c1.32,5.59,3.42,10.96,6.23,15.97c3.15,5.59,7.54,10.39,12.84,14.02c6.38,4.1,13.74,6.41,21.31,6.7
				c8.04,0.59,16.09-0.9,23.39-4.33c5.88-2.98,10.93-7.37,14.69-12.79c3.36-4.86,5.92-10.22,7.59-15.88
				c1.42-4.71,2.4-9.55,2.93-14.44c0.31-2.54,0.47-5.1,0.48-7.67c0-0.12,0-0.24,0-0.36c0.03-1.3-1-2.37-2.3-2.39
				c-1.3-0.03-2.37,1-2.39,2.3c0,0.03,0,0.06,0,0.09c0.02,1.75-0.05,3.5-0.21,5.24c-0.07,0.88-0.15,1.75-0.25,2.62
				c-0.05,0.48-0.11,0.97-0.18,1.45l0.02-0.14c0.05-0.35-0.09,0.73-0.02,0.15v-0.01c-0.01,0.07-0.02,0.14-0.03,0.21
				c-0.04,0.27-0.08,0.54-0.12,0.81c-0.35,2.31-0.8,4.61-1.35,6.89c-0.63,2.58-1.41,5.11-2.33,7.6c-0.24,0.65-0.5,1.29-0.76,1.92
				l-0.01,0.02c0.18-0.42-0.2,0.49,0,0l-0.01,0.02c-0.06,0.15-0.13,0.29-0.19,0.44c-0.15,0.35-0.31,0.7-0.47,1.04
				c-0.6,1.29-1.25,2.55-1.95,3.79c-0.72,1.26-1.49,2.48-2.32,3.66c-0.2,0.29-0.41,0.58-0.62,0.86c-0.11,0.15-0.22,0.3-0.34,0.45
				l-0.02,0.03c0.19-0.24-0.28,0.37,0,0l-0.03,0.04c-0.46,0.58-0.93,1.15-1.42,1.7c-0.99,1.13-2.05,2.19-3.16,3.19
				c-0.58,0.52-1.18,1.01-1.79,1.5c0.05-0.03,0.1-0.07,0.14-0.11c-0.44,0.41-0.28,0.22-0.16,0.12l0.02-0.02l-0.07,0.05
				c-0.14,0.1-0.28,0.21-0.43,0.32c-0.34,0.25-0.69,0.49-1.04,0.73c-1.33,0.9-2.71,1.71-4.14,2.42c-0.36,0.18-0.72,0.35-1.08,0.52
				c-0.17,0.08-0.35,0.16-0.52,0.23l-0.16,0.07c0.18-0.06,0.44-0.11-0.1,0.04c0.03-0.01,0.07-0.02,0.1-0.04
				c-0.03,0.01-0.05,0.02-0.07,0.03c-0.82,0.33-1.64,0.64-2.48,0.92c-1.72,0.56-3.48,1.01-5.26,1.35c-0.43,0.08-0.86,0.15-1.28,0.22
				c-0.23,0.04-0.46,0.07-0.7,0.1l0.09-0.01c0.33-0.04-0.46,0.07-0.13,0.02l0.04-0.01l-0.41,0.05c-1,0.12-2,0.21-3.01,0.26
				c-2.11,0.12-4.22,0.12-6.33-0.01c-1.03-0.06-2.06-0.16-3.09-0.28l-0.19-0.02c0.38,0.06-0.09-0.01-0.15-0.02
				c0.05,0.01,0.1,0.01,0.15,0.02h-0.02c-0.22-0.03-0.44-0.06-0.65-0.1c-0.48-0.08-0.96-0.16-1.44-0.25
				c-1.8-0.34-3.57-0.81-5.31-1.39c-0.8-0.27-1.58-0.57-2.36-0.88c0.04,0.02,0.08,0.04,0.12,0.05c-0.04-0.01-0.53-0.22-0.16-0.07
				l0.04,0.02l-0.14-0.06c-0.2-0.09-0.39-0.17-0.58-0.26c-0.38-0.18-0.77-0.36-1.14-0.55c-1.45-0.73-2.84-1.55-4.17-2.47
				c-0.29-0.2-0.58-0.41-0.87-0.62c-0.14-0.1-0.28-0.21-0.43-0.32l-0.06-0.05c0.22,0.18-0.3-0.22,0,0l-0.09-0.07
				c-0.61-0.49-1.21-0.99-1.79-1.52c-1.11-1-2.15-2.07-3.14-3.2c-0.46-0.53-0.91-1.09-1.35-1.64c0.03,0.04,0.06,0.07,0.08,0.11
				c0.17,0.23-0.32-0.4-0.14-0.18l0.05,0.07l-0.11-0.14c-0.1-0.13-0.2-0.27-0.3-0.4c-0.22-0.3-0.44-0.61-0.65-0.91
				c-1.63-2.37-3.05-4.89-4.24-7.52c-0.14-0.31-0.28-0.62-0.41-0.93v-0.01v0.02c-0.06-0.19-0.14-0.37-0.23-0.55
				c-0.26-0.64-0.51-1.28-0.75-1.92c-0.47-1.28-0.9-2.57-1.29-3.87c-0.71-2.39-1.3-4.82-1.76-7.28c-0.21-1.1-0.39-2.21-0.55-3.32
				c-0.04-0.25-0.07-0.51-0.11-0.76c0.12,0.85,0.01,0.07-0.03-0.25c-0.06-0.48-0.12-0.97-0.17-1.45C4.84,7.66,4.7,5.18,4.7,2.69
				c0-0.11,0-0.23,0-0.34C4.69,1.06,3.65,0.02,2.36,0z"/>
			<path id="Path_2981" class="st18" d="M15.79,39.54c-0.03-0.04-0.06-0.07-0.08-0.11l-0.05-0.07
				C15.47,39.14,15.96,39.77,15.79,39.54z"/>
			<path id="Path_2983" class="st18" d="M29.6,50.23c-0.04-0.01-0.08-0.03-0.12-0.05l-0.04-0.02C29.06,50.01,29.55,50.22,29.6,50.23
				z"/>
			<path id="Path_2984" class="st18" d="M39.25,52.8c-0.05-0.01-0.1-0.01-0.15-0.02C39.17,52.8,39.64,52.87,39.25,52.8z"/>
		</g>
	</g>
	<g id="Group_1048" transform="translate(1134.117 650.815)">
		<g id="Group_1042" transform="translate(4.09 11.249)">
			<ellipse id="Ellipse_130" cx="5.42" cy="7.02" rx="5.42" ry="7.02"/>
		</g>
		<g id="Group_1044" transform="translate(0 0)">
			<g id="Group_1043">
				<path id="Path_2985" d="M8.08,4.72H8.1l0.04-0.01C8.47,4.64,7.75,4.73,8.08,4.72z"/>
				<path id="Path_2986" d="M6.59,5.15C6.65,5.13,6.7,5.12,6.76,5.09C6.84,5.06,6.85,5.05,6.59,5.15z"/>
				<path id="Path_2988" d="M5.48,5.84l0.03-0.02l0.01-0.01L5.48,5.84z"/>
				<path id="Path_2989" d="M12.86,6.73L12.86,6.73C13.09,6.96,12.62,6.38,12.86,6.73z"/>
				<path id="Path_2990" d="M4.38,7.07c0.07-0.11,0.14-0.21,0.21-0.32C4.6,6.73,4.6,6.73,4.61,6.71c-0.16,0.15,0.25-0.38,0,0
					C4.62,6.71,4.62,6.71,4.63,6.7c0.18-0.18,0.34-0.38,0.52-0.55c0.11-0.11,0.23-0.21,0.35-0.32l0.01-0.01L5.48,5.84l0.05-0.03
					c0.13-0.12,0.11-0.08,0,0L5.52,5.82c0.23-0.15,0.45-0.31,0.69-0.44c0.11-0.06,0.22-0.12,0.34-0.18c0.05-0.02,0.16-0.07,0.22-0.1
					C6.7,5.12,6.65,5.13,6.59,5.15c0.26-0.1,0.25-0.09,0.17-0.06C6.94,5.03,7.12,4.96,7.31,4.9C7.57,4.83,7.84,4.78,8.1,4.72H8.09
					C7.75,4.73,8.47,4.64,8.15,4.71L8.1,4.72c0.15,0,0.31-0.02,0.46-0.03C8.82,4.69,9.07,4.7,9.33,4.72h0.03
					c-0.24-0.06,0.37,0.02,0,0h0.01c0.12,0.03,0.25,0.05,0.37,0.08c0.28,0.06,0.55,0.14,0.82,0.24c0.08,0.03,0.16,0.06,0.24,0.09
					c-0.1-0.05-0.04-0.02,0.12,0.04c-0.04-0.02-0.08-0.03-0.12-0.04l0.08,0.04c0.25,0.14,0.5,0.27,0.75,0.42
					c0.11,0.07,0.21,0.15,0.32,0.21l0.01,0.01c-0.22-0.2,0.17,0.1,0,0L12,5.85c0.19,0.17,0.38,0.34,0.56,0.52
					c0.11,0.11,0.21,0.24,0.32,0.35c-0.24-0.35,0.23,0.24,0,0l0,0c0.01,0.02,0.02,0.03,0.04,0.06c0.67,1.09,2.09,1.46,3.21,0.84
					c1.11-0.66,1.48-2.09,0.84-3.21C13.94-0.13,7.82-1.37,3.28,1.64C2.08,2.43,1.08,3.48,0.33,4.7C-0.32,5.82,0.06,7.24,1.17,7.9
					C2.29,8.53,3.7,8.16,4.38,7.07z"/>
				<path id="Path_2991" d="M10.8,5.13c0.04,0.02,0.08,0.03,0.12,0.04C10.76,5.11,10.7,5.07,10.8,5.13z"/>
			</g>
		</g>
		<g id="Group_1045" transform="translate(40.606 11.25)">
			<path id="Path_2994" d="M10.84,7.02C10.84,3.14,8.41,0,5.42,0S0,3.14,0,7.02s2.43,7.02,5.42,7.02S10.84,10.89,10.84,7.02z"/>
		</g>
		<g id="Group_1047" transform="translate(38.247)">
			<g id="Group_1046">
				<path id="Path_2995" d="M10.54,5.1c0.05,0.02,0.11,0.03,0.16,0.05C10.57,5.1,10.53,5.09,10.54,5.1z"/>
				<path id="Path_2996" d="M12.65,6.67L12.65,6.67C12.83,6.86,12.51,6.46,12.65,6.67z"/>
				<path id="Path_2997" d="M11.71,5.76l0.03,0.02C12,5.94,11.47,5.55,11.71,5.76z"/>
				<path id="Path_2998" d="M4.37,6.8l0.06-0.07l0.02-0.02C4.42,6.73,4.4,6.77,4.37,6.8z"/>
				<path id="Path_2999" d="M5.28,5.86l0.1-0.07L5.4,5.77L5.28,5.86z"/>
				<path id="Path_3000" d="M7.87,4.73h0.01C8.36,4.62,7.54,4.74,7.87,4.73z"/>
				<path id="Path_3001" d="M10.55,5.1c-0.01-0.01,0.02,0,0.16,0.05C10.65,5.13,10.6,5.12,10.55,5.1c0.03,0.02,0.35,0.17,0.46,0.23
					c0.25,0.14,0.48,0.31,0.73,0.46h0.01l-0.03-0.02C11.47,5.54,12,5.94,11.74,5.78c0.11,0.1,0.22,0.19,0.33,0.29
					c0.19,0.17,0.35,0.36,0.53,0.55l0.05,0.05V6.67c-0.14-0.21,0.19,0.19,0,0.01c0.09,0.13,0.18,0.26,0.26,0.39
					c0.65,1.12,2.09,1.5,3.21,0.84c1.12-0.65,1.5-2.09,0.84-3.21l0,0C14.11,0.05,8.03-1.39,3.39,1.46C2.17,2.21,1.13,3.22,0.34,4.41
					c-0.65,1.12-0.27,2.55,0.84,3.21C2.3,8.24,3.71,7.87,4.39,6.78c0.02-0.03,0.03-0.04,0.04-0.05L4.37,6.8
					C4.4,6.76,4.42,6.73,4.44,6.71c0.05-0.06,0.05-0.06,0,0L4.43,6.73c0.08-0.1,0.16-0.19,0.25-0.29c0.17-0.19,0.36-0.36,0.55-0.53
					c0.06-0.05,0.11-0.09,0.15-0.12l-0.1,0.07L5.4,5.77l0,0L5.37,5.79c0.07-0.05,0.14-0.1,0.21-0.15c0.24-0.16,0.49-0.3,0.74-0.43
					l0.09-0.05C6.38,5.18,6.39,5.17,6.48,5.13c0.19-0.1,0.05-0.02-0.06,0.04c0.07-0.03,0.31-0.13,0.31-0.13
					c0.24-0.08,0.48-0.16,0.73-0.22c0.12-0.03,0.25-0.05,0.37-0.08l0.05-0.01H7.87c-0.33,0.01,0.48-0.11,0.01,0
					c0.28-0.01,0.56-0.04,0.84-0.03c0.19,0,0.83,0.1,0.32,0c0.28,0.05,0.56,0.1,0.84,0.18C10.11,4.94,10.33,5.02,10.55,5.1z"/>
				<path id="Path_3002" d="M6.48,5.13c-0.09,0.05-0.1,0.05-0.06,0.04C6.53,5.11,6.67,5.03,6.48,5.13z"/>
			</g>
		</g>
	</g>
	<g id="Group_1051" transform="translate(1131.281 684.278)">
		<g id="Group_1049" transform="translate(0)">
			<ellipse id="Ellipse_131" class="st29" cx="5.74" cy="3.95" rx="5.74" ry="3.95"/>
		</g>
		<g id="Group_1050" transform="translate(49.731)">
			<ellipse id="Ellipse_132" class="st29" cx="5.74" cy="3.95" rx="5.74" ry="3.95"/>
		</g>
	</g>
	<g id="Group_1053" transform="translate(1201.366 661.108)">
		<g id="Group_1052" transform="translate(0 0)">
			<path id="Path_3003" class="st18" d="M7.6,27.41l-0.17,0.02c0,0-0.01,0.01-0.02,0.01C7.48,27.42,7.54,27.41,7.6,27.41z"/>
			<path id="Path_3004" class="st18" d="M9.98,26.73c-0.01,0-0.02,0-0.04,0.01c-0.06,0.03-0.12,0.05-0.18,0.08
				C9.53,26.93,9.97,26.73,9.98,26.73z"/>
			<path id="Path_3007" class="st18" d="M14.54,22.98c-0.02,0.02-0.03,0.05-0.05,0.07C14.54,22.99,14.73,22.76,14.54,22.98z"/>
			<path id="Path_3008" class="st18" d="M18.56,13.61c0.01-0.07,0.01-0.08,0-0.05C18.56,13.68,18.54,13.81,18.56,13.61z"/>
			<path id="Path_3009" class="st18" d="M12.26,25.33l-0.15,0.11C12.06,25.47,12.09,25.45,12.26,25.33z"/>
			<path id="Path_3010" class="st18" d="M14.42,5.14l0.03,0.02c0.06,0.02,0.11,0.05,0.17,0.07C14.89,5.32,14.17,5.01,14.42,5.14z"/>
			<path id="Path_3011" class="st18" d="M15.95,6.02c0.01,0.01,0.02,0.01,0.02,0.02c0.05,0.03,0.09,0.07,0.14,0.1
				C16.35,6.3,15.74,5.81,15.95,6.02z"/>
			<path id="Path_3012" class="st18" d="M5.52,27.43l-0.03-0.01C4.93,27.38,5.88,27.5,5.52,27.43z"/>
			<path id="Path_3013" class="st18" d="M18.58,13.43l-0.01,0.13c0-0.03,0.01-0.02,0,0.05c-0.02,0.2-0.01,0.07,0-0.05
				c-0.02,0.08-0.07,0.48-0.08,0.54c-0.04,0.21-0.08,0.41-0.12,0.62c-0.11,0.51-0.24,1.01-0.39,1.5c-0.57,1.93-1.43,3.77-2.53,5.46
				c-0.24,0.38-0.5,0.76-0.77,1.12c-0.04,0.06-0.09,0.12-0.13,0.17c0.19-0.22,0,0.01-0.05,0.07c0.02-0.02,0.03-0.05,0.05-0.07
				l-0.05,0.06c-0.14,0.17-0.29,0.35-0.44,0.52c-0.54,0.61-1.12,1.19-1.74,1.71c-0.09,0.07-0.17,0.14-0.21,0.17l0.15-0.11
				c-0.17,0.12-0.19,0.14-0.15,0.11c-0.1,0.08-0.21,0.15-0.31,0.23c-0.31,0.21-0.62,0.41-0.94,0.6c-0.29,0.16-0.58,0.32-0.88,0.46
				l-0.02,0.01c0.01,0,0.02-0.01,0.04-0.01c0,0-0.44,0.2-0.22,0.09c0.06-0.03,0.12-0.06,0.18-0.08c-0.17,0.05-0.34,0.12-0.51,0.2
				c-0.33,0.12-0.67,0.22-1.01,0.3c-0.33,0.03-0.66,0.09-0.98,0.19l0.17-0.02h0.01h0.04h0.01c0.12-0.01,0.19-0.02,0,0H7.61H7.6
				c-0.06,0-0.12,0.01-0.18,0.03c0,0,0.01-0.01,0.02-0.01l-0.05,0.01c-0.15,0.01-0.3,0.02-0.45,0.03c-0.32,0.01-0.63,0.01-0.95,0
				c-0.17-0.01-0.33-0.02-0.49-0.04H5.49l0.03,0.01c0.36,0.07-0.59-0.05-0.03-0.01c-0.28-0.06-0.56-0.1-0.83-0.18
				S4.12,27.09,3.85,27c0.05,0.02,0.04,0.02-0.13-0.05c-0.41-0.16,0.03,0.01,0.13,0.05l0,0c-0.07-0.04-0.29-0.13-0.34-0.16
				c-1.12-0.65-2.56-0.28-3.21,0.84c-0.65,1.12-0.28,2.56,0.84,3.21c2.67,1.32,5.72,1.62,8.6,0.86c3.63-1.07,6.79-3.36,8.93-6.49
				c4.5-6.06,7.38-16.64,0.8-22.38c-2.68-2.37-6.32-3.35-9.82-2.65C8.4,0.57,7.67,1.86,8,3.11c0.37,1.23,1.64,1.95,2.89,1.64
				c0.09-0.02,0.19-0.03,0.28-0.05c-0.44,0.03,0.29-0.05,0.14-0.03c-0.05,0.01-0.09,0.02-0.14,0.03h0.01
				c0.29-0.02,0.58-0.04,0.87-0.03c0.25,0,0.5,0.03,0.74,0.04L12.73,4.7c-0.41-0.08,0.54,0.04,0.12,0.02l-0.06-0.01
				c0.15,0.03,0.29,0.05,0.44,0.08c0.27,0.06,0.53,0.13,0.8,0.22c0.14,0.05,0.28,0.1,0.42,0.15h0.01l-0.03-0.02
				c-0.25-0.14,0.47,0.17,0.2,0.08c-0.06-0.02-0.11-0.05-0.17-0.07c0.51,0.28,1.01,0.53,1.49,0.86l0.02,0.02
				c-0.01-0.01-0.02-0.01-0.02-0.02c-0.21-0.21,0.4,0.28,0.16,0.12c-0.05-0.03-0.09-0.07-0.14-0.1c0.09,0.09,0.19,0.16,0.28,0.24
				c0.23,0.21,0.46,0.43,0.67,0.67C16.93,6.97,17,7.03,17.06,7.1c-0.04-0.06-0.02-0.04,0.02,0.02c0.08,0.08,0.16,0.17,0.15,0.2
				c-0.06-0.06-0.11-0.13-0.15-0.2L17.06,7.1l0.01,0.02c0.04,0.06,0.08,0.11,0.12,0.17c0.19,0.28,0.37,0.55,0.53,0.84
				c0.08,0.15,0.16,0.3,0.23,0.45c0.06,0.13,0.3,0.42,0.09,0.19c-0.01-0.01-0.01-0.01-0.02-0.02c0,0.01,0.01,0.01,0.01,0.02
				c0.03,0.1,0.07,0.19,0.1,0.29c0.06,0.17,0.11,0.34,0.16,0.52c0.1,0.33,0.17,0.67,0.23,1.01c0.01,0.08,0.02,0.16,0.04,0.24
				c0.06,0.27-0.03-0.22-0.03-0.21c0.05,0.22,0.08,0.45,0.06,0.68c0.02,0.39,0.03,0.78,0.02,1.17c-0.01,0.22-0.02,0.44-0.03,0.66
				C18.6,13.24,18.59,13.33,18.58,13.43z"/>
			<path id="Path_3014" class="st18" d="M17.07,7.1l0.02,0.02C17.04,7.06,17.03,7.03,17.07,7.1z"/>
			<path id="Path_3015" class="st18" d="M3.72,26.95C3.89,27.02,3.9,27.02,3.85,27l0,0C3.75,26.96,3.31,26.78,3.72,26.95z"/>
			<path id="Path_3016" class="st18" d="M12.73,4.7l0.06,0.01l0.06,0.01C13.27,4.74,12.32,4.61,12.73,4.7z"/>
			<path id="Path_3017" class="st18" d="M11.17,4.7c0.05-0.01,0.1-0.02,0.14-0.03C11.46,4.64,10.73,4.72,11.17,4.7z"/>
		</g>
	</g>
	<g id="Group_1055" transform="translate(1205.181 671.096)">
		<g id="Group_1054" transform="translate(0 0)">
			<path id="Path_3019" class="st18" d="M4.18,6.77L4.18,6.77l0.01-0.02L4.18,6.77z"/>
			<path id="Path_3020" class="st18" d="M10.81,1.57c-0.03-0.77-0.69-1.66-1.56-1.56C7.26,0.26,5.4,1.12,3.91,2.46
				C2.5,3.8,1.26,5.3,0.21,6.94C-0.1,7.49-0.06,8.18,0.34,8.68c0.39,0.49,1.03,0.71,1.64,0.56c-0.41,0.06,0.01,0.01,0.07,0
				c0.1-0.01,0.2-0.01,0.31-0.01s0.6-0.05,0.67,0.03C2.84,9.24,2.8,9.23,2.92,9.25C2.98,9.26,3.04,9.27,3.1,9.28
				C3.2,9.3,3.3,9.33,3.4,9.35c0.22,0.06,0.43,0.13,0.65,0.2h0.01c-0.12-0.07,0.23,0.08,0,0l0.01,0.01
				c0.09,0.05,0.19,0.09,0.28,0.14c0.22,0.12,0.42,0.25,0.63,0.39l0.02,0.01c-0.11-0.11,0.19,0.12,0,0l0,0
				c0.07,0.07,0.16,0.13,0.23,0.2c0.18,0.17,0.35,0.35,0.51,0.53c0.61,0.61,1.6,0.61,2.21,0c0.59-0.62,0.59-1.59,0-2.21
				c-0.91-1.07-2.13-1.83-3.49-2.2c-0.08,0.1-0.16,0.19-0.24,0.29C4.2,6.72,4.19,6.74,4.18,6.75L4.01,6.97
				C3.88,7.14,3.75,7.32,3.63,7.5C3.38,7.83,3.15,8.17,2.91,8.51l-1.77-2.3c1.11-0.16,2.23-0.09,3.31,0.21
				C4.9,5.86,5.39,5.33,5.92,4.84C6.05,4.72,6.19,4.6,6.32,4.49l0.1-0.08c-0.05,0.03-0.07,0.05,0,0s0.05-0.03,0,0l0.17-0.12
				c0.31-0.22,0.64-0.42,0.97-0.6C7.72,3.6,7.88,3.52,8.04,3.45c-0.14,0.04,0.15-0.07,0,0l0,0L8.1,3.43
				C8.19,3.4,8.27,3.37,8.35,3.34c0.17-0.05,0.34-0.1,0.51-0.14c0.11-0.03,0.22-0.05,0.32-0.07c0.07-0.01,0.39-0.05,0.05-0.01
				C10.09,3.1,10.78,2.43,10.81,1.57z"/>
			<path id="Path_3023" class="st18" d="M8.05,3.47L8.05,3.47C8.2,3.4,7.91,3.51,8.05,3.47z"/>
			<path id="Path_3024" class="st18" d="M6.44,4.42C6.36,4.47,6.39,4.46,6.44,4.42S6.51,4.36,6.44,4.42z"/>
			<path id="Path_3025" class="st18" d="M1.15,6.22l1.77,2.3c0.24-0.34,0.47-0.67,0.71-1.01c0.13-0.18,0.26-0.35,0.39-0.53
				c0.05-0.07,0.11-0.14,0.16-0.22l0,0c-0.05,0.07-0.04,0.05,0,0L4.2,6.75L4.19,6.77C4.2,6.75,4.21,6.74,4.22,6.72
				c0.08-0.1,0.16-0.19,0.24-0.29C3.39,6.13,2.26,6.06,1.15,6.22z"/>
		</g>
	</g>
	<g id="Group_1057" transform="translate(1099.08 661.035)">
		<g id="Group_1056" transform="translate(0 0)">
			<path id="Path_3026" class="st53" d="M7.31,6.14l0.01-0.01C7.52,5.95,7.05,6.3,7.31,6.14z"/>
			<path id="Path_3028" class="st53" d="M14.04,27.19c0,0-0.02-0.01-0.04-0.02l-0.18-0.07C13.59,27.02,14.04,27.19,14.04,27.19z"/>
			<path id="Path_3029" class="st53" d="M15.85,27.7c0.07,0.01,0.11,0.01,0.13,0.01C15.79,27.69,15.53,27.67,15.85,27.7z"/>
			<path id="Path_3031" class="st53" d="M19.24,27.21l-0.01,0.01C19.27,27.2,19.28,27.19,19.24,27.21z"/>
			<path id="Path_3032" class="st53" d="M12.32,4.7c0.08,0.01,0.16,0.01,0.23,0.02c-0.04-0.01-0.07-0.01-0.07-0.02l0.08,0.02
				l0.08,0.01c0.29,0.02,0.06,0.01-0.07-0.01l0.52,0.1c1.26,0.31,2.53-0.45,2.85-1.71c0.3-1.22-0.4-2.46-1.6-2.82
				C10.47-0.57,6.43,0.53,3.53,3.22C0.9,5.91-0.38,9.64,0.06,13.37c0.33,3.57,1.49,7.02,3.38,10.07c1.75,3,4.24,5.51,7.22,7.3
				c3.4,2.02,7.6,2.18,11.14,0.41c1.11-0.66,1.49-2.09,0.84-3.21c-0.67-1.09-2.09-1.46-3.21-0.84c-0.03,0.02-0.11,0.06-0.19,0.11
				c0.03-0.01,0.02-0.01-0.01,0.01c-0.1,0.05-0.2,0.11-0.24,0.09c-0.01,0,0.16-0.07,0.24-0.09l0.01-0.01l-0.05,0.02
				c-0.1,0.03-0.19,0.08-0.29,0.11c-0.31,0.11-0.63,0.2-0.95,0.28c-0.15,0.03-0.29,0.06-0.44,0.09h-0.01c0.52-0.04-0.38,0.08,0,0
				h-0.02c-0.31,0.02-0.63,0.04-0.94,0.03c-0.14,0-0.29-0.01-0.43-0.02l-0.14-0.01c-0.02,0-0.06,0-0.13-0.01
				c-0.32-0.03-0.06-0.01,0.13,0.01c0.1,0-0.24-0.03-0.32-0.05c-0.17-0.03-0.33-0.07-0.5-0.11c-0.31-0.08-0.61-0.17-0.91-0.28
				c-0.08-0.03-0.16-0.06-0.24-0.09c0.02,0.01,0.04,0.02,0.04,0.02s-0.45-0.18-0.21-0.09l0.18,0.07c-0.07-0.03-0.22-0.09-0.24-0.1
				c-0.6-0.29-1.18-0.62-1.73-1c-0.13-0.09-0.26-0.18-0.39-0.27l-0.11-0.08l0.01,0.01c0.19,0.17-0.16-0.12-0.16-0.12l0.15,0.11
				c-0.26-0.23-0.53-0.44-0.79-0.68c-0.53-0.49-1.04-1-1.51-1.55c-0.11-0.13-0.22-0.26-0.33-0.39L8.7,22.85
				c0.04,0.05,0.05,0.07-0.03-0.03c-0.1-0.13-0.05-0.07,0.03,0.03c-0.06-0.08-0.18-0.23-0.21-0.28c-0.12-0.16-0.23-0.33-0.35-0.49
				c-0.82-1.2-1.52-2.47-2.11-3.8c0.04,0.1,0.05,0.12-0.06-0.13C6,18.2,6.02,18.24,6.04,18.29C6.01,18.21,5.96,18.1,5.92,18
				c-0.06-0.16-0.12-0.32-0.18-0.48c-0.12-0.35-0.24-0.7-0.35-1.05c-0.21-0.69-0.38-1.4-0.51-2.11c-0.03-0.18-0.06-0.37-0.09-0.55
				v0.04c0.01,0.08,0.03,0.17,0.03,0.17c-0.02-0.05-0.03-0.11-0.03-0.17c-0.02-0.11-0.03-0.2,0-0.05v0.01c0-0.01,0-0.03,0-0.03
				c-0.03-0.34-0.06-0.69-0.08-1.04c-0.02-0.67,0-1.35,0.06-2.02l0,0c-0.08,0.42,0.03-0.41,0,0l0.01-0.05
				c0.03-0.15,0.05-0.3,0.08-0.44C4.93,9.92,5.01,9.61,5.1,9.3c0.06-0.19,0.14-0.38,0.2-0.57l0,0l-0.05,0.1
				C5.27,8.8,5.38,8.49,5.3,8.73c0.03-0.06,0.05-0.11,0.08-0.17c0.18-0.38,0.39-0.74,0.63-1.08c0.05-0.07,0.1-0.14,0.15-0.21
				c-0.08,0.09-0.03,0.03,0.07-0.1C6.21,7.2,6.19,7.24,6.16,7.27l0.05-0.06C6.36,7.06,6.5,6.89,6.65,6.74s0.31-0.3,0.47-0.43
				C7.18,6.25,7.25,6.2,7.31,6.15C7.05,6.31,7.52,5.96,7.33,6.14L7.31,6.15l0.04-0.03C7.7,5.9,8.05,5.67,8.42,5.48l0.26-0.13
				C8.64,5.36,8.65,5.36,8.77,5.29c0.16-0.08,0.05-0.02-0.09,0.05c0.05-0.02,0.17-0.08,0.22-0.1C9.01,5.2,9.12,5.16,9.22,5.13
				C9.61,5,9.99,4.89,10.39,4.81c0.08-0.02,0.17-0.03,0.25-0.05c0.07-0.01,0.4-0.05,0.31-0.04c-0.18,0.01-0.34,0.02-0.12,0.01
				l0.12-0.01l0.23-0.02C11.56,4.67,11.94,4.67,12.32,4.7z"/>
			<path id="Path_3033" class="st53" d="M10.94,4.71l-0.12,0.01C10.6,4.74,10.77,4.72,10.94,4.71z"/>
			<path id="Path_3034" class="st53" d="M4.79,13.84v-0.04v-0.01C4.76,13.64,4.77,13.73,4.79,13.84z"/>
			<path id="Path_3036" class="st53" d="M5.25,8.82l0.05-0.1C5.37,8.48,5.27,8.79,5.25,8.82z"/>
			<path id="Path_3037" class="st53" d="M11.55,25.72l-0.01-0.01l-0.15-0.11C11.39,25.6,11.74,25.9,11.55,25.72z"/>
			<path id="Path_3038" class="st53" d="M6.16,7.27C6.18,7.23,6.2,7.2,6.23,7.17C6.13,7.3,6.08,7.36,6.16,7.27z"/>
			<path id="Path_3039" class="st53" d="M8.67,22.81c0.08,0.1,0.07,0.09,0.03,0.03C8.62,22.75,8.57,22.68,8.67,22.81z"/>
			<path id="Path_3040" class="st53" d="M8.77,5.29C8.65,5.35,8.64,5.35,8.68,5.34C8.82,5.27,8.92,5.21,8.77,5.29z"/>
			<path id="Path_3041" class="st53" d="M6.04,18.28C6.02,18.24,6,18.2,5.98,18.15C6.09,18.4,6.08,18.38,6.04,18.28z"/>
		</g>
	</g>
	<g id="Group_1059" transform="translate(1107.776 671.097)">
		<g id="Group_1058" transform="translate(0)">
			<path id="Path_3042" class="st53" d="M4.4,4.43L4.4,4.43l0.04,0.03L4.4,4.43z"/>
			<path id="Path_3043" class="st53" d="M2.7,3.44c0.02,0.01,0.04,0.02,0.06,0.03C2.84,3.49,2.81,3.48,2.7,3.44z"/>
			<path id="Path_3044" class="st53" d="M6.66,6.79C6.61,6.74,6.63,6.76,6.66,6.79C6.68,6.84,6.69,6.84,6.66,6.79z"/>
			<path id="Path_3047" class="st53" d="M6.66,6.8C6.63,6.76,6.61,6.73,6.66,6.8C6.71,6.85,6.69,6.83,6.66,6.8l0.09,0.13
				C6.88,7.1,7.01,7.27,7.14,7.45C7.4,7.8,7.65,8.16,7.9,8.52l1.77-2.3c-1.1-0.16-2.23-0.09-3.31,0.21
				c0.06,0.08,0.13,0.15,0.19,0.23C6.56,6.68,6.63,6.76,6.66,6.8z"/>
			<path id="Path_3048" class="st53" d="M10.48,8.68c0.39-0.5,0.44-1.19,0.12-1.74C9.55,5.3,8.31,3.8,6.9,2.46
				C5.42,1.12,3.56,0.26,1.57,0.01C0.7,0.01,0.01,0.71,0,1.57c0.02,0.85,0.71,1.54,1.56,1.56L1.52,3.13l0.03,0.01
				C1.66,3.15,1.77,3.17,1.88,3.2c0.17,0.04,0.34,0.09,0.51,0.14C2.49,3.37,2.6,3.41,2.7,3.45l0.06,0.02
				C2.74,3.46,2.72,3.45,2.7,3.44c0.11,0.05,0.13,0.05,0.06,0.03c0.14,0.06,0.28,0.13,0.42,0.2c0.34,0.18,0.66,0.37,0.97,0.59
				C4.24,4.31,4.32,4.37,4.4,4.43l-0.01,0c-0.06-0.04-0.06-0.04,0,0l0.04,0.03L4.4,4.44l0.03,0.03c0.16,0.13,0.31,0.26,0.46,0.4
				c0.53,0.49,1.02,1.02,1.47,1.58c1.08-0.3,2.2-0.37,3.31-0.21L7.9,8.53C7.65,8.17,7.4,7.81,7.14,7.46
				C7.01,7.28,6.89,7.11,6.76,6.93L6.66,6.81l-0.1-0.13C6.5,6.59,6.43,6.52,6.37,6.44c-1.36,0.36-2.58,1.13-3.49,2.2
				c-0.59,0.62-0.59,1.59,0,2.21c0.61,0.6,1.6,0.6,2.21,0c0.14-0.17,0.3-0.34,0.46-0.49c0.07-0.07,0.15-0.14,0.23-0.2l0.03-0.03
				c-0.21,0.14,0.19-0.17,0,0l0.04-0.03c0.19-0.13,0.38-0.25,0.57-0.36C6.51,9.7,6.61,9.66,6.7,9.61l0.05-0.03
				c-0.27,0.09,0.21-0.11,0,0l0.03-0.01C6.97,9.5,7.16,9.44,7.36,9.39C7.48,9.35,7.6,9.33,7.72,9.3c0.02,0,0.05-0.01,0.08-0.02H7.79
				c0.29-0.1,0.14-0.04,0.01,0c0.2-0.04,0.4-0.05,0.6-0.03c0.12,0,0.25,0,0.37,0.01c0.09,0.01,0.47,0.06,0.07,0
				C9.45,9.4,10.09,9.18,10.48,8.68z"/>
			<path id="Path_3049" class="st53" d="M7.78,9.26L7.78,9.26C7.92,9.23,8.08,9.17,7.78,9.26z"/>
		</g>
	</g>
	<g id="Group_1060" transform="translate(1155.542 687.892)">
		<path id="Path_3051" class="st18" d="M10.01,7.31c2.12-1.59,3.09-4.29,2.49-6.87C8.43-0.21,4.27-0.14,0.22,0.64
			c-0.66,2.57,0.34,5.28,2.52,6.81C4.96,8.89,7.84,8.83,10.01,7.31z"/>
	</g>
	<g id="Group_1061" transform="translate(1156.378 692.09)">
		<path id="Path_3052" class="st30" d="M9.24,3.11c0.73-0.53,1.33-1.22,1.77-2.01C7.49-0.34,3.54-0.36,0.01,1.05
			c0.46,0.88,1.13,1.64,1.95,2.2C4.19,4.69,7.07,4.63,9.24,3.11z"/>
	</g>
	<g id="Group_1063" transform="translate(1153.992 686.342)">
		<g id="Group_1062">
			<path id="Path_3053" class="st18" d="M2.18,3.7c0.31-0.07,0.62-0.12,0.94-0.18C3.13,3.21,3.18,2.9,3.28,2.61L2.18,3.7z"/>
			<path id="Path_3054" class="st18" d="M3.15,4.38L3.15,4.38C3.16,4.48,3.16,4.48,3.15,4.38z"/>
			<path id="Path_3055" class="st18" d="M14.13,0.45l0.2,0.03C14.26,0.46,14.2,0.45,14.13,0.45z"/>
			<path id="Path_3056" class="st18" d="M14.66,7.71c1.07-1.85,1.39-4.04,0.9-6.12c-0.05-0.21-0.15-0.4-0.28-0.56
				c0.29,0.4,0.39,0.9,0.29,1.39c-0.25,0.81-1.09,1.29-1.92,1.09c-0.32-0.04-0.65-0.08-0.97-0.12c0.11,2.7-2,4.98-4.7,5.09
				C7.25,8.5,6.54,8.37,5.87,8.1C5.19,7.8,4.59,7.33,4.14,6.74C3.68,6.15,3.36,5.46,3.22,4.72C3.19,4.61,3.17,4.5,3.15,4.38
				c0.01,0.09,0.01,0.09,0-0.01v0.01L3.14,4.27C3.13,4.1,3.12,3.92,3.12,3.75c0-0.09,0-0.16,0-0.23C2.81,3.57,2.49,3.63,2.18,3.7
				L3.27,2.6c-0.09,0.3-0.15,0.6-0.15,0.91c3.16-0.51,6.37-0.56,9.54-0.13c-0.01-0.33-0.05-0.65-0.12-0.97
				c-0.21-0.83,0.27-1.68,1.09-1.92c0.16-0.04,0.33-0.06,0.49-0.04C9.89-0.23,5.56-0.15,1.35,0.68C0.82,0.82,0.4,1.24,0.26,1.77
				c-0.98,3.79,0.97,7.73,4.57,9.26C8.48,12.48,12.64,11.07,14.66,7.71z"/>
			<path id="Path_3057" class="st18" d="M13.64,0.49c-0.82,0.24-1.31,1.09-1.09,1.92c0.07,0.32,0.11,0.65,0.12,0.97
				c0.33,0.04,0.65,0.07,0.97,0.12c0.83,0.2,1.67-0.28,1.92-1.09c0.11-0.48,0-0.99-0.28-1.39c-0.24-0.29-0.58-0.48-0.95-0.55
				l-0.2-0.03C13.96,0.43,13.8,0.44,13.64,0.49z"/>
			<path id="Path_3058" class="st18" d="M15.28,1.02c-0.18-0.28-0.48-0.48-0.81-0.53l-0.14-0.02C14.7,0.54,15.04,0.73,15.28,1.02z"
				/>
		</g>
	</g>
	<g id="Group_1065" transform="translate(1106.166 585.187)">
		<g id="Group_1064" transform="translate(0)">
			<path id="Path_3059" d="M101.92,79.11c-0.03,0.04-0.05,0.08-0.07,0.13l0,0C101.87,79.19,101.9,79.15,101.92,79.11z"/>
			<path id="Path_3060" d="M11.73,80.6c0.15,0.2,0.06,0.08-0.05-0.07C11.64,80.48,11.63,80.48,11.73,80.6z"/>
			<path id="Path_3061" d="M5.01,64.15c0-0.02-0.01-0.04-0.01-0.07v-0.03C4.92,63.54,5.05,64.5,5.01,64.15z"/>
			<path id="Path_3063" d="M5.09,52.44c0.01-0.05,0.01-0.1,0.02-0.15C5,52.85,5.06,52.58,5.09,52.44z"/>
			<path id="Path_3064" d="M13.49,82.6c0.94,0.72,0.36,0.28,0.15,0.09c-0.3-0.27-0.58-0.55-0.85-0.84
				c-0.18-0.19-0.36-0.39-0.53-0.59c-0.11-0.13-0.22-0.26-0.33-0.39c-0.04-0.05-0.19-0.24-0.26-0.32c0.11,0.15,0.2,0.27,0.05,0.07
				c-0.1-0.13-0.09-0.12-0.05-0.07L11.5,80.3c-0.12-0.16-0.23-0.32-0.34-0.48c-0.16-0.22-0.31-0.46-0.46-0.69
				c-0.28,1.83-0.53,3.66-0.74,5.49L13.49,82.6z"/>
			<path id="Path_3065" d="M99.33,81.84c-0.06,0.04-0.11,0.08-0.17,0.12l-0.01,0.01c-0.03,0.03-0.06,0.05-0.1,0.08
				C98.82,82.26,99.58,81.67,99.33,81.84z"/>
			<path id="Path_3066" d="M105.19,73.43c0.1-0.23,0.02-0.05-0.01,0.03S105.13,73.59,105.19,73.43z"/>
			<path id="Path_3067" d="M69.83,8.87c-0.33-0.53-0.69-1.04-1.08-1.54c-0.53,0.14-1.05,0.29-1.57,0.46L69.83,8.87z"/>
			<path id="Path_3068" d="M100.22,81.03c-0.26,0.25-0.53,0.5-0.81,0.73c-0.09,0.07-0.18,0.14-0.26,0.21l0.01-0.01
				c0.06-0.04,0.11-0.09,0.17-0.12c0.25-0.17-0.51,0.42-0.27,0.21c0.03-0.03,0.06-0.05,0.1-0.08c-0.28,0.2-0.57,0.38-0.85,0.56
				c-0.04,0.02-0.08,0.04-0.12,0.06l3.53,2.03c-0.04-1.71-0.06-3.41-0.09-5.12c-0.15,0.18-0.31,0.36-0.47,0.54
				C100.86,80.39,100.55,80.71,100.22,81.03z"/>
			<path id="Path_3069" d="M78.41,11.36l0.1,0.02h0.02C78.81,11.4,78.44,11.36,78.41,11.36z"/>
			<path id="Path_3070" d="M92.47,17.44C92.43,17.41,92.43,17.41,92.47,17.44C92.53,17.49,92.56,17.51,92.47,17.44z"/>
			<path id="Path_3071" d="M85.39,13.29l0.02,0.01l0.08,0.03L85.39,13.29z"/>
			<path id="Path_3072" d="M9.02,38.29c0.1-0.22,0.1-0.24,0.08-0.2l-0.08,0.18L9.02,38.29z"/>
			<path id="Path_3073" d="M72.47,11.35l0.13-0.02C72.58,11.33,72.23,11.37,72.47,11.35z"/>
			<path id="Path_3074" d="M108.08,62.03c-0.01,0.12-0.03,0.24-0.04,0.36c-0.01,0.04-0.01,0.07-0.01,0.09c0.05-0.34-0.02,0.18,0,0
				v0.01c-0.04,0.28-0.08,0.56-0.12,0.84c-0.16,1.06-0.36,2.11-0.58,3.16c-0.41,1.93-0.96,3.83-1.63,5.68
				c-0.13,0.37-0.28,0.74-0.43,1.1l-0.08,0.19c0.04-0.08,0.11-0.26,0.01-0.03c-0.07,0.16-0.05,0.11-0.01,0.03l-0.02,0.03
				c-0.09,0.2-0.17,0.39-0.26,0.58c-0.31,0.67-0.64,1.33-0.99,1.98c-0.33,0.6-0.68,1.19-1.06,1.76c-0.27,0.41-0.7,0.84-0.93,1.29
				c0.08-0.12,0.16-0.15-0.02,0.06l-0.05,0.06c0,0.01-0.01,0.02-0.01,0.02c0-0.01,0.01-0.01,0.01-0.02
				c-0.07,0.09-0.14,0.17-0.21,0.26l-0.01,0.02c0.03,1.71,0.05,3.41,0.09,5.12l-3.53-2.03c0.04-0.02,0.08-0.04,0.12-0.06
				c0.29-0.19,0.58-0.36,0.85-0.56c0.09-0.07,0.18-0.14,0.26-0.21c0.28-0.23,0.55-0.48,0.81-0.73c0.32-0.31,0.64-0.64,0.94-0.98
				c0.16-0.18,0.31-0.36,0.47-0.54c-0.07-4.39-0.15-8.77-0.46-13.15c0.03-1.3-1-2.37-2.3-2.39c-1.3-0.03-2.37,1-2.39,2.3
				c0,0.03,0,0.06,0,0.09c0.43,6.08,0.42,12.17,0.54,18.27c0.03,1.31,1.11,2.35,2.42,2.33c0.39-0.01,0.77-0.11,1.11-0.3
				c0.8-0.44,1.54-0.98,2.21-1.6c1.62-1.43,3.03-3.09,4.18-4.92c4.34-6.69,5.92-15.07,6.2-22.91c0.33-9.11-1.39-18.18-5.04-26.54
				c-3.2-7.72-8.65-14.31-15.63-18.92c-6.67-4.25-14.8-6.31-22.62-4.69c-0.37,0.08-0.74,0.17-1.11,0.27c0.39,0.49,0.75,1,1.08,1.54
				l-2.65-1.08c0.52-0.17,1.04-0.32,1.57-0.46c-3.16-3.89-7.68-6.42-12.65-7.07c-6.22-0.88-12.51,0.57-18.28,2.88
				c-8.51,3.43-16.08,8.82-22.1,15.75C9.9,25.53,5.5,33.29,2.77,41.68c-2.59,7.69-3.36,15.88-2.26,23.92
				c0.72,4.43,2.15,8.71,4.25,12.68c1.38,2.9,3.28,5.54,5.6,7.77c0.24,0.21,0.49,0.4,0.75,0.6c0.73,0.44,1.64,0.44,2.37,0
				c0.7-0.44,1.14-1.2,1.16-2.03c0.44-3.75,1.08-7.71,1.85-11.65c0.32-1.26-0.44-2.53-1.7-2.85c-1.22-0.31-2.47,0.4-2.83,1.6
				c-0.49,2.46-0.91,4.92-1.28,7.4c0.15,0.23,0.3,0.46,0.46,0.69c0.11,0.16,0.23,0.32,0.34,0.48l0.18,0.24
				c0.06,0.08,0.22,0.27,0.26,0.32c0.11,0.13,0.22,0.26,0.33,0.39c0.17,0.2,0.35,0.4,0.53,0.59c0.27,0.29,0.55,0.58,0.85,0.84
				c0.21,0.19,0.79,0.63-0.15-0.09l-3.53,2.03c0.21-1.84,0.47-3.67,0.74-5.49c-0.12-0.18-0.24-0.35-0.35-0.53
				c-2.29-3.58-3.93-7.54-4.83-11.7c-0.19-0.84-0.34-1.68-0.47-2.53C5.02,64.26,5.01,64.17,5,64.08c0,0.02,0,0.04,0.01,0.07
				c0.04,0.35-0.09-0.61-0.01-0.09v0.03c-0.02-0.18-0.05-0.36-0.06-0.54c-0.05-0.46-0.1-0.93-0.13-1.39
				c-0.14-1.79-0.17-3.59-0.09-5.38c0.04-0.95,0.11-1.89,0.2-2.84c0.04-0.44,0.09-0.87,0.15-1.31c0.01-0.06,0.02-0.12,0.02-0.18
				c-0.02,0.14-0.08,0.4,0.02-0.15c-0.01,0.05-0.01,0.1-0.02,0.15v-0.02c0.04-0.27,0.08-0.55,0.12-0.82c0.3-1.89,0.7-3.77,1.19-5.61
				c0.51-1.92,1.12-3.82,1.82-5.69c0.17-0.44,0.33-0.87,0.51-1.31c0.1-0.24,0.19-0.47,0.29-0.71l-0.02,0.04l0.03-0.06l0.01-0.02
				c0.02-0.05,0.06-0.13,0.07-0.17l0.07-0.16c0.4-0.92,0.82-1.84,1.27-2.74c1.81-3.65,3.96-7.12,6.43-10.37
				c-0.05,0.07-0.05,0.07,0.09-0.12c-0.03,0.04-0.06,0.08-0.09,0.12c0.07-0.09,0.23-0.3,0.28-0.36c0.15-0.19,0.3-0.38,0.46-0.57
				c0.35-0.43,0.7-0.85,1.06-1.27c0.7-0.81,1.42-1.61,2.16-2.38c1.45-1.51,2.97-2.95,4.57-4.3c0.4-0.34,0.81-0.67,1.22-1
				c0.17-0.13,0.33-0.27,0.5-0.4c-0.25,0.19,0.02-0.02,0.08-0.07l-0.08,0.07l0.05-0.04c0.15-0.11,0.3-0.22,0.45-0.34
				c0.85-0.63,1.72-1.24,2.6-1.82c1.79-1.18,3.64-2.25,5.56-3.2c0.46-0.23,0.91-0.45,1.38-0.66c0.26-0.12,0.52-0.24,0.78-0.35
				c0.09-0.04,0.46-0.2,0.54-0.23l-0.14,0.05c0.16-0.07,0.18-0.07,0.14-0.05c0.97-0.4,1.94-0.77,2.93-1.11
				c1.38-0.47,2.78-0.9,4.2-1.24c0.75-0.18,1.51-0.35,2.27-0.48c0.64-0.12,1.28-0.21,1.93-0.27c2.74-0.34,5.52-0.11,8.17,0.68
				c0.52,0.16,1.03,0.34,1.53,0.55c-0.02-0.01,0,0,0.1,0.04l-0.1-0.04c0.06,0.03,0.44,0.2,0.53,0.25c0.32,0.16,0.64,0.32,0.96,0.5
				c0.5,0.28,0.99,0.59,1.46,0.92c0.1,0.07,0.2,0.14,0.29,0.21c-0.09-0.07-0.16-0.12,0.06,0.04L62.74,7.9l0.09,0.07
				c0.28,0.23,0.55,0.46,0.81,0.71c0.42,0.39,0.82,0.81,1.2,1.25c0.06,0.07,0.12,0.15,0.18,0.22c-0.02-0.03-0.01-0.02,0.09,0.11
				c-0.03-0.04-0.06-0.08-0.09-0.11c0.03,0.05,0.15,0.2,0.19,0.25c0.19,0.27,0.37,0.54,0.54,0.82c0.55,0.91,1.62,1.35,2.65,1.08
				c0.85-0.28,1.71-0.51,2.58-0.7c0.43-0.09,0.86-0.17,1.3-0.24l0.17-0.03c-0.25,0.02,0.1-0.02,0.13-0.02l-0.13,0.02h0.01
				c0.27-0.02,0.54-0.06,0.81-0.08c1.74-0.13,3.49-0.1,5.22,0.11l-0.1-0.02c0.03,0,0.4,0.05,0.12,0.02h-0.02l0.3,0.05
				c0.2,0.03,0.4,0.07,0.6,0.1c0.47,0.09,0.93,0.18,1.4,0.29c0.87,0.2,1.72,0.44,2.56,0.72c0.39,0.13,0.78,0.27,1.17,0.41
				c0.23,0.09,0.45,0.17,0.67,0.26l0.21,0.09l-0.02-0.01l0,0l0.1,0.04l-0.08-0.03l0.09,0.04c0.83,0.37,1.64,0.76,2.43,1.19
				c0.83,0.45,1.65,0.93,2.44,1.45c0.35,0.23,0.7,0.47,1.05,0.71c0.2,0.14,0.4,0.29,0.6,0.43l0.26,0.19l0.18,0.14
				c-0.03-0.03-0.04-0.03,0.01,0c0.1,0.07,0.06,0.04-0.01,0l0.35,0.28c0.19,0.15,0.39,0.31,0.57,0.47c0.35,0.3,0.7,0.6,1.04,0.91
				c0.71,0.64,1.4,1.31,2.06,2.01c0.64,0.67,1.24,1.37,1.83,2.08c0.11,0.13,0.21,0.27,0.32,0.4l0.08,0.1l-0.08-0.1
				c0.02,0.03,0.18,0.23,0.23,0.3c0.3,0.4,0.59,0.8,0.87,1.21c1.15,1.71,2.19,3.49,3.1,5.33c0.89,1.74,1.67,3.54,2.32,5.39
				c0.72,2.01,1.33,4.05,1.82,6.13c0.24,1.02,0.46,2.05,0.65,3.08c0.09,0.52,0.18,1.04,0.26,1.55c0.04,0.24,0.07,0.48,0.11,0.72
				l0.01,0.07c0-0.03-0.01-0.06-0.01-0.09c0.01,0.05,0.03,0.25,0.01,0.09c0.02,0.13,0.03,0.26,0.05,0.39
				c0.26,2.13,0.41,4.27,0.44,6.41c0.03,2.14-0.05,4.28-0.26,6.41C108.18,61.07,108.13,61.55,108.08,62.03z"/>
			<path id="Path_3075" d="M107.99,47.29c0,0.03,0.01,0.06,0.01,0.09C108.02,47.53,107.99,47.33,107.99,47.29z"/>
			<path id="Path_3076" d="M98.63,23.59l0.08,0.1L98.63,23.59z"/>
			<path id="Path_3077" d="M38.35,7.95l0.14-0.05C38.53,7.88,38.51,7.89,38.35,7.95z"/>
			<path id="Path_3078" d="M27.12,14.53l0.08-0.07C27.15,14.51,26.87,14.72,27.12,14.53z"/>
			<path id="Path_3079" d="M16.87,24.82c0.03-0.04,0.06-0.08,0.09-0.12C16.82,24.89,16.82,24.89,16.87,24.82z"/>
			<path id="Path_3080" d="M65.05,10.17c0.03,0.04,0.06,0.07,0.09,0.11C65.04,10.15,65.02,10.13,65.05,10.17z"/>
			<path id="Path_3081" d="M62.76,7.9l0.06,0.04C62.6,7.78,62.67,7.84,62.76,7.9z"/>
			<path id="Path_3082" d="M59.51,6.02l0.1,0.04C59.51,6.02,59.49,6.01,59.51,6.02z"/>
		</g>
	</g>
	<g id="Group_1067" transform="translate(1112.53 616.658)">
		<g id="Group_1066" transform="translate(0)">
			<path id="Path_3083" class="st18" d="M43.39,7.32c0.03-0.02,0.05-0.04,0.08-0.06C43.3,7.38,43.33,7.36,43.39,7.32z"/>
			<path id="Path_3084" class="st18" d="M22.65,32.25l-0.06,0.07C22.55,32.39,22.56,32.37,22.65,32.25z"/>
			<path id="Path_3085" class="st18" d="M39.58,11.18l0.02-0.02l0.01-0.02L39.58,11.18z"/>
			<path id="Path_3086" class="st18" d="M46.28,5.63c0.02-0.01,0.04-0.02,0.06-0.03C46.27,5.63,45.93,5.76,46.28,5.63z"/>
			<path id="Path_3087" class="st18" d="M62.23,5.46c-0.5-0.7-1.06-1.35-1.69-1.93c-0.71,0.43-1.38,0.92-2,1.46L62.23,5.46z"/>
			<path id="Path_3088" class="st18" d="M49.48,4.75c-0.13,0.02-0.14,0.02-0.1,0.02C49.54,4.75,49.73,4.71,49.48,4.75z"/>
			<path id="Path_3090" class="st18" d="M15.89,37.87c0.18-0.07,0.09-0.04-0.03,0.01C15.79,37.91,15.78,37.91,15.89,37.87z"/>
			<path id="Path_3091" class="st18" d="M12.6,38.78l-0.06,0.01l-0.09,0.01L12.6,38.78z"/>
			<path id="Path_3092" class="st18" d="M9.43,38.81C9.58,38.83,9.53,38.82,9.43,38.81C9.33,38.78,9.22,38.78,9.43,38.81z"/>
			<path id="Path_3093" class="st18" d="M18.95,36.07c-0.02,0.02-0.05,0.03-0.07,0.05C18.82,36.17,18.79,36.19,18.95,36.07z"/>
			<path id="Path_3095" class="st18" d="M7.21,38.23l-0.03-0.01C6.76,38.08,7.52,38.39,7.21,38.23z"/>
			<path id="Path_3096" class="st18" d="M87.77,29.17c0-0.01-0.01-0.03-0.01-0.04C87.76,29.15,87.77,29.16,87.77,29.17L87.77,29.17z
				"/>
			<path id="Path_3097" class="st18" d="M89.68,31.1c0.32,0.25,0.04,0.03-0.09-0.07C89.52,30.98,89.49,30.95,89.68,31.1z"/>
			<path id="Path_3098" class="st18" d="M76.79,13.62c0.02,0.05,0.05,0.1,0.07,0.15C76.84,13.72,76.81,13.67,76.79,13.62z"/>
			<path id="Path_3099" class="st18" d="M56.67,6.28l0.07,0.06l0,0L56.67,6.28z"/>
			<path id="Path_3100" class="st18" d="M84.8,23.79c-0.23-0.57-0.44-1.15-0.64-1.73c-0.42-1.2-0.79-2.42-1.13-3.65
				c-0.55-2.55-1.33-5.04-2.32-7.45c-1.84-3.94-5.14-7.02-9.2-8.58c-3.64-1.33-7.68-0.91-10.96,1.14c0.63,0.59,1.19,1.23,1.69,1.93
				l-3.68-0.47c0.62-0.54,1.29-1.03,1.99-1.46c-3.29-3.09-7.92-4.04-12.47-3.27c-5.72,0.98-10.11,5-13.32,9.62
				c-3.33,4.8-5.37,10.32-7.98,15.52c-0.67,1.33-1.37,2.64-2.14,3.91c-0.36,0.6-0.74,1.18-1.13,1.76c-0.17,0.25-0.35,0.51-0.53,0.75
				c-0.11,0.16-0.23,0.31-0.34,0.46l-0.04,0.05l0.06-0.07c-0.09,0.12-0.11,0.14-0.06,0.07c-0.05,0.07-0.1,0.13-0.16,0.2
				c-0.9,1.13-1.9,2.17-2.99,3.12c-0.14,0.12-0.29,0.24-0.44,0.37l-0.14,0.11c0.02-0.02,0.05-0.03,0.07-0.05
				c-0.16,0.12-0.13,0.1-0.07,0.05c-0.21,0.16-0.42,0.31-0.63,0.45c-0.51,0.34-1.04,0.65-1.58,0.93c-0.14,0.07-0.29,0.14-0.44,0.21
				c-0.04,0.02-0.27,0.12-0.37,0.17c0.12-0.05,0.21-0.08,0.03-0.01c-0.11,0.04-0.09,0.04-0.03,0.01l-0.23,0.09
				c-0.18,0.07-0.36,0.13-0.55,0.2c-0.61,0.2-1.23,0.37-1.87,0.5c-0.16,0.03-0.31,0.06-0.47,0.09l-0.2,0.03l0.06-0.01
				c0.18-0.02,0.13-0.01-0.15,0.02l0.09-0.01c-0.33,0.02-0.65,0.07-0.98,0.08c-0.63,0.03-1.26,0.02-1.88-0.04L9.43,38.8
				c0.11,0.02,0.16,0.03,0,0.01c-0.21-0.03-0.13-0.02,0-0.01l-0.42-0.07c-0.3-0.06-0.6-0.13-0.9-0.21
				c-0.29-0.08-0.58-0.19-0.87-0.28l-0.06-0.02l0.03,0.01c0.31,0.16-0.45-0.15-0.03-0.01c-0.15-0.08-0.31-0.14-0.46-0.22
				c-0.3-0.15-0.59-0.32-0.87-0.5c-0.1-0.07-0.2-0.14-0.3-0.2l-0.08-0.05c0.33,0.28-0.28-0.17,0,0l-0.03-0.03
				c-0.53-0.45-1.01-0.94-1.45-1.48c-0.92-0.91-2.4-0.91-3.32,0c-0.88,0.93-0.88,2.39,0,3.32c3.4,4.24,9.29,5.25,14.36,4.02
				c5.7-1.38,9.95-5.61,13.05-10.41c3.18-4.93,5.18-10.48,7.9-15.65c0.66-1.26,1.37-2.51,2.14-3.71c0.37-0.58,0.76-1.14,1.16-1.7
				c0.11-0.15,0.22-0.29,0.33-0.44l-0.02,0.02c-0.06,0.08-0.14,0.17,0,0l0.03-0.04l-0.01,0.02l0.06-0.08
				c0.24-0.29,0.47-0.58,0.72-0.87c0.9-1.06,1.91-2.03,3-2.89c-0.06,0.04-0.08,0.06,0.08-0.06c-0.03,0.02-0.05,0.04-0.08,0.06
				l0.14-0.1c0.14-0.1,0.28-0.2,0.42-0.29c0.23-0.16,0.47-0.31,0.71-0.46c0.52-0.31,1.06-0.59,1.62-0.83
				c-0.35,0.13-0.01,0,0.06-0.03l-0.06,0.03l0.03-0.01c0.18-0.07,0.35-0.14,0.54-0.2c0.3-0.1,0.6-0.2,0.91-0.29
				c0.33-0.09,0.67-0.18,1.01-0.25c0.15-0.03,0.31-0.06,0.46-0.09l0.15-0.03c-0.04,0-0.03,0,0.1-0.02c0.25-0.04,0.06-0.01-0.1,0.02
				c0.07-0.01,0.34-0.05,0.35-0.05c0.19-0.02,0.37-0.03,0.56-0.05c0.31-0.02,0.62-0.03,0.93-0.03s0.62,0.01,0.93,0.03
				c0.15,0.01,0.31,0.03,0.46,0.04l0.09,0.01c-0.06-0.03,0.33,0.03,0,0c0.01,0,0.01,0.01,0.02,0.01c0.6,0.18,1.24,0.25,1.85,0.45
				c0.18,0.06,0.96,0.4,0.44,0.16c0.3,0.14,0.59,0.28,0.88,0.45s0.56,0.35,0.83,0.53l0.03,0.02l-0.07-0.06l0.08,0.07
				c0.09,0.07,0.22,0.19,0,0l0,0c0.11,0.1,0.23,0.19,0.34,0.29c0.23,0.2,0.44,0.42,0.65,0.64c0.1,0.11,0.19,0.25,0.3,0.35
				c-0.03-0.03-0.05-0.07-0.08-0.11c0.16,0.2,0.18,0.24,0.08,0.11l0,0c0.05,0.07,0.1,0.13,0.14,0.2c0.69,1.12,2.17,1.47,3.29,0.78
				c0.14-0.09,0.27-0.19,0.4-0.3C61.99,8.21,62.11,8.1,62.24,8c0.01-0.01,0.06-0.05,0.17-0.15C62.35,7.9,62.29,7.95,62.24,8
				c-0.02,0.03,0.32-0.24,0.4-0.29c0.39-0.26,0.81-0.5,1.23-0.71c0.24-0.12,0.53-0.22,0.11-0.06c0.2-0.07,0.4-0.15,0.6-0.22
				c0.43-0.14,0.86-0.25,1.3-0.33l0.19-0.03h-0.04c-0.32,0.01,0.47-0.09,0.16-0.02c-0.04,0.01-0.08,0.02-0.12,0.02
				c0.19-0.01,0.39-0.03,0.59-0.04c0.44-0.02,0.88-0.01,1.32,0.03l0.2,0.02h-0.02C68,6.33,67.81,6.29,68.12,6.35l0.03,0.01h0.03
				c0.06,0.01,0.1,0.01,0.1,0.01c-0.03,0-0.07,0-0.1-0.01h-0.01c0.16,0.03,0.33,0.06,0.49,0.09c0.44,0.09,0.87,0.21,1.3,0.36
				c0.14,0.05,0.28,0.1,0.42,0.16l0.18,0.07c-0.06-0.02-0.12-0.04-0.18-0.07c-0.14-0.05,0.19,0.08,0.35,0.16
				c0.39,0.19,0.78,0.4,1.15,0.63c0.19,0.12,0.38,0.24,0.56,0.36c0.08,0.05,0.23,0.17,0.31,0.23c-0.04-0.03-0.07-0.07-0.11-0.1
				c0.2,0.16,0.19,0.16,0.11,0.1c0.34,0.28,0.68,0.56,0.99,0.87s0.62,0.63,0.91,0.96c0.12,0.14,0.24,0.29,0.35,0.43
				c0.02,0.02,0.05,0.05,0.1,0.12c-0.03-0.04-0.07-0.08-0.1-0.12c-0.09-0.1,0.3,0.42,0.38,0.53c0.53,0.79,1,1.62,1.39,2.49
				c0.03,0.05,0.05,0.1,0.07,0.15c-0.02-0.05-0.05-0.1-0.07-0.15c0.01,0.03,0.17,0.41,0.21,0.5c0.09,0.25,0.18,0.5,0.26,0.75
				c0.17,0.52,0.31,1.05,0.44,1.58c0.33,1.39,0.67,2.78,1.07,4.15c0.66,2.3,1.49,4.54,2.48,6.72c1.28,3,3.28,5.63,5.83,7.66
				c1.94,1.37,4.17,2.27,6.52,2.62c1.24,0.31,2.52-0.41,2.89-1.64c0.33-1.25-0.4-2.53-1.64-2.89c-0.94-0.16-1.86-0.38-2.76-0.68
				c-0.22-0.08-0.44-0.17-0.67-0.25c0.75,0.27,0.06,0.02-0.23-0.12c-0.48-0.24-0.93-0.51-1.37-0.82c-0.04-0.03-0.15-0.11-0.22-0.16
				c0.13,0.1,0.41,0.33,0.09,0.07c-0.19-0.15-0.17-0.13-0.09-0.07L89.55,31c-0.24-0.2-0.47-0.41-0.7-0.63s-0.44-0.44-0.65-0.68
				c-0.11-0.12-0.22-0.25-0.32-0.37l-0.11-0.14v0.01c0,0,0-0.01,0-0.02l-0.04-0.05c-0.27-0.32-0.03-0.1,0.03,0.02
				c-0.1-0.18-0.56-0.76-0.62-0.84c-0.23-0.35-0.45-0.7-0.66-1.07c-0.46-0.79-0.88-1.61-1.25-2.44c-0.08-0.17-0.15-0.34-0.22-0.51
				c-0.01-0.02-0.03-0.06-0.07-0.16c0.02,0.05,0.05,0.11,0.07,0.16C85.03,24.34,84.84,23.9,84.8,23.79z"/>
			<path id="Path_3101" class="st18" d="M85,24.27c-0.02-0.05-0.05-0.11-0.07-0.16C84.97,24.21,84.99,24.26,85,24.27z"/>
			<path id="Path_3102" class="st18" d="M75.02,10.6c0.03,0.04,0.07,0.08,0.1,0.12C75.06,10.65,75.04,10.62,75.02,10.6z"/>
			<path id="Path_3103" class="st18" d="M62.24,7.99c0.06-0.05,0.11-0.1,0.17-0.15C62.3,7.94,62.25,7.98,62.24,7.99z"/>
			<path id="Path_3104" class="st18" d="M57.96,7.52c0.03,0.03,0.05,0.07,0.08,0.11l0,0C58.15,7.76,58.12,7.72,57.96,7.52z"/>
			<path id="Path_3105" class="st18" d="M66.03,6.34h0.04c0.04-0.01,0.08-0.01,0.12-0.02C66.5,6.25,65.71,6.35,66.03,6.34z"/>
			<path id="Path_3106" class="st18" d="M72.66,8.25c0.04,0.03,0.07,0.07,0.11,0.1C72.85,8.4,72.86,8.41,72.66,8.25z"/>
			<path id="Path_3107" class="st18" d="M70.39,6.95C70.44,6.98,70.5,7,70.56,7.02L70.39,6.95z"/>
		</g>
	</g>
</g>
</svg>
