<svg xmlns="http://www.w3.org/2000/svg" width="1966.487" height="525.21" viewBox="0 0 1966.487 525.21">
  <path id="Path_2147" data-name="Path 2147" d="M1569.6,1085.482q25.231-.008,50.462,0,74.4-.079,148.792,0,83.245-.043,166.489,0,86.849,0,173.7,0,81.933,0,163.867,0,87.177,0,174.354,0,108.152.048,216.3,0,81.934.04,163.867,0,86.522.006,173.044,0,82.916,0,165.833,0h167.144q87.5,0,175.009,0h26.664c1.493,5.468,1.155,503.7-.381,510.907-1.209-.487-2.4-.856-3.485-1.425-2.9-1.52-5.757-3.12-8.626-4.7-22.054-12.141-43.859-11.06-65.534,1.094-6.472,3.629-13.2,6.8-19.654,10.461-20.094,11.392-40.226,11.492-60.614.783-10.046-5.277-20.172-10.414-30.4-15.329-16.152-7.763-32.492-7.725-48.683-.135-9.089,4.261-17.975,8.951-26.956,13.441-2.148,1.074-4.308,2.126-6.466,3.181-18.346,8.97-36.6,8.708-54.76-.557-9.521-4.86-19.076-9.657-28.518-14.667-19.9-10.56-39.417-8.812-58.809,1.422-8.879,4.686-17.845,9.21-26.817,13.717-18.842,9.465-37.5,8.28-55.99-1.1-10.31-5.232-20.519-10.676-30.955-15.643-17.882-8.513-35.572-6.948-52.9,1.859-7.978,4.055-15.779,8.467-23.833,12.359a150.29,150.29,0,0,1-17.515,7.224c-13.907,4.662-27.272,1.65-40.056-4.182-10.913-4.979-21.483-10.709-32.224-16.07-18.362-9.165-36.656-8.362-54.813.572-9.207,4.53-18.158,9.617-27.535,13.749a111.519,111.519,0,0,1-21.045,6.961c-12.017,2.621-23.436-.771-34.3-5.674-7.75-3.5-15.2-7.681-22.715-11.677-9.7-5.157-19.634-9.433-30.78-10.478a52.417,52.417,0,0,0-18.738,1.789c-12.155,3.275-22.7,10.069-33.832,15.6-5.855,2.907-11.8,5.7-17.907,8.022-15.71,5.974-30.952,3.586-45.66-3.534-8.448-4.09-16.767-8.466-24.99-12.991-22.3-12.272-44.128-11.043-66.1,1.2a327.732,327.732,0,0,1-31.875,15.234c-14.1,5.966-28.291,4.521-41.934-1.789-9.1-4.209-17.982-8.918-26.8-13.7-10.308-5.6-21.059-9.6-32.86-10.2a50.729,50.729,0,0,0-24.083,5.136c-9.895,4.6-19.5,9.817-29.316,14.6a137.083,137.083,0,0,1-13.834,5.915c-14.977,5.353-29.714,3.884-43.919-2.651-10.113-4.651-19.924-9.96-29.864-14.984-9.9-5.005-20.212-7.86-31.5-7.449a59.28,59.28,0,0,0-23.889,6.187c-10.611,5.122-21.041,10.621-31.637,15.775a87.551,87.551,0,0,1-11.568,4.546,48.645,48.645,0,0,1-34.594-1.792c-11.223-4.777-21.787-11.079-32.906-16.126a128.044,128.044,0,0,0-22.684-8.167c-11.689-2.815-22.982.206-33.73,4.932-5.784,2.543-11.2,5.905-16.938,8.57-9.294,4.319-18.463,9.122-28.144,12.338-11.5,3.822-23.408,2.674-34.665-1.732-7.5-2.934-14.691-6.682-21.88-10.342-9.726-4.955-19.2-10.493-30-12.88-10.69-2.363-21.438-2.193-31.536,2.1-10.624,4.518-20.98,9.73-31.2,15.124-9.577,5.057-19.48,8.994-30.272,9.916-11.374.971-22.014-2.18-32.187-7.132-12.151-5.915-24.157-12.182-36.568-17.5-15.165-6.5-30.4-4.666-45.052,2.111-10.3,4.763-20.293,10.184-30.507,15.139-2.5,1.213-5.325,1.754-8,2.6Z" transform="translate(-1569.598 -1085.463)" fill="#fff"/>
</svg>
