<svg xmlns="http://www.w3.org/2000/svg" xmlns:xlink="http://www.w3.org/1999/xlink" width="1966.487" height="643" viewBox="0 0 1966.487 643">
  <defs>
    <radialGradient id="radial-gradient" cx="0.5" cy="0.5" r="0.38" gradientTransform="translate(0 -1.047) scale(1 3.095)" gradientUnits="objectBoundingBox">
      <stop offset="0" stop-color="#bffd6a"/>
      <stop offset="1" stop-color="#8bd55b"/>
    </radialGradient>
  </defs>
  <path id="Path_7" data-name="Path 7" d="M1569.6,1085.486c16.821-.007,33.642.022,50.462,0,49.6-.065,99.195.032,148.792,0q83.245-.053,166.489,0,86.849,0,173.7,0,81.933,0,163.867,0,87.177,0,174.354,0,108.152.059,216.3,0,81.934.049,163.867,0,86.522.007,173.044,0,82.916,0,165.833,0h167.144q87.5,0,175.009,0h26.664c1.493,6.695,1.155,616.664-.381,625.49a34.928,34.928,0,0,1-3.485-1.744c-2.9-1.861-5.757-3.82-8.626-5.754-22.054-14.863-43.859-13.541-65.534,1.34-6.472,4.442-13.2,8.327-19.654,12.807-20.094,13.947-40.226,14.07-60.614.959-10.046-6.461-20.172-12.75-30.4-18.768-16.152-9.5-32.492-9.458-48.683-.166-9.089,5.216-17.975,10.958-26.956,16.455-2.148,1.315-4.308,2.6-6.466,3.894-18.346,10.982-36.6,10.662-54.76-.682-9.521-5.95-19.076-11.823-28.518-17.957-19.9-12.929-39.417-10.788-58.809,1.741-8.879,5.737-17.845,11.275-26.817,16.793-18.842,11.587-37.5,10.137-55.99-1.35-10.31-6.406-20.519-13.07-30.955-19.152-17.882-10.423-35.572-8.506-52.9,2.276-7.978,4.964-15.779,10.366-23.833,15.131a136.384,136.384,0,0,1-17.515,8.844c-13.907,5.708-27.272,2.02-40.056-5.12-10.913-6.1-21.483-13.11-32.224-19.674-18.362-11.22-36.656-10.237-54.813.7-9.207,5.546-18.158,11.774-27.535,16.832a97.971,97.971,0,0,1-21.045,8.522c-12.017,3.208-23.436-.944-34.3-6.947-7.75-4.282-15.2-9.4-22.715-14.3-9.7-6.314-19.634-11.548-30.78-12.828a43.275,43.275,0,0,0-18.738,2.19c-12.155,4.01-22.7,12.327-33.832,19.094a185.711,185.711,0,0,1-17.907,9.821c-15.71,7.314-30.952,4.39-45.66-4.326-8.448-5.007-16.767-10.365-24.99-15.9-22.3-15.024-44.128-13.52-66.1,1.466a305.876,305.876,0,0,1-31.875,18.65c-14.1,7.3-28.291,5.535-41.934-2.19-9.1-5.153-17.982-10.918-26.8-16.777-10.308-6.85-21.059-11.758-32.86-12.492-8.451-.526-16.522,1.983-24.083,6.288-9.895,5.634-19.5,12.018-29.316,17.872a125.151,125.151,0,0,1-13.834,7.242c-14.977,6.554-29.714,4.755-43.919-3.246-10.113-5.695-19.924-12.193-29.864-18.345-9.9-6.127-20.212-9.622-31.5-9.119-8.521.381-16.375,3.135-23.889,7.575-10.611,6.271-21.041,13-31.637,19.313a78.816,78.816,0,0,1-11.568,5.565c-11.726,4.6-23.5,3.588-34.594-2.194-11.223-5.849-21.787-13.564-32.906-19.743a113.782,113.782,0,0,0-22.684-10c-11.689-3.446-22.982.252-33.73,6.038-5.784,3.113-11.2,7.229-16.938,10.492-9.294,5.288-18.463,11.168-28.144,15.1-11.5,4.679-23.408,3.274-34.665-2.12-7.5-3.592-14.691-8.18-21.88-12.662-9.726-6.066-19.2-12.846-30-15.768-10.69-2.893-21.438-2.685-31.536,2.571-10.624,5.531-20.98,11.912-31.2,18.516-9.577,6.191-19.48,11.011-30.272,12.139-11.374,1.189-22.014-2.669-32.187-8.731-12.151-7.242-24.157-14.915-36.568-21.424-15.165-7.954-30.4-5.712-45.052,2.584-10.3,5.832-20.293,12.468-30.507,18.534-2.5,1.485-5.325,2.148-8,3.188Z" transform="translate(-1569.598 -1085.463)" fill="url(#radial-gradient)"/>
</svg>
