<svg xmlns="http://www.w3.org/2000/svg" width="42.157" height="34.239" viewBox="0 0 42.157 34.239">
  <path id="twitter-brands" d="M37.824,56.615c.027.374.027.749.027,1.124,0,11.422-8.694,24.583-24.583,24.583A24.416,24.416,0,0,1,0,78.443a17.875,17.875,0,0,0,2.086.107,17.3,17.3,0,0,0,10.727-3.691,8.655,8.655,0,0,1-8.078-5.992A10.9,10.9,0,0,0,6.366,69a9.138,9.138,0,0,0,2.274-.294,8.641,8.641,0,0,1-6.928-8.48v-.107a8.7,8.7,0,0,0,3.905,1.1A8.653,8.653,0,0,1,2.942,49.66,24.559,24.559,0,0,0,20.757,58.7a9.753,9.753,0,0,1-.214-1.979A8.648,8.648,0,0,1,35.5,50.81a17.011,17.011,0,0,0,5.484-2.086,8.617,8.617,0,0,1-3.8,4.761,17.321,17.321,0,0,0,4.975-1.337A18.573,18.573,0,0,1,37.824,56.615Z" transform="translate(0 -48.082)" fill="#2c2c2c"/>
</svg>
