<svg xmlns="http://www.w3.org/2000/svg" xmlns:xlink="http://www.w3.org/1999/xlink" width="319" height="131.566" viewBox="0 0 319 131.566">
  <defs>
    <linearGradient id="linear-gradient" x1="-4.476" y1="-1.915" x2="6.563" y2="3.58" gradientUnits="objectBoundingBox">
      <stop offset="0" stop-color="#bffd6a"/>
      <stop offset="1" stop-color="#479635"/>
      <stop offset="1"/>
    </linearGradient>
    <linearGradient id="linear-gradient-2" x1="-6.061" y1="-3.306" x2="6.413" y2="3.923" xlink:href="#linear-gradient"/>
    <linearGradient id="linear-gradient-3" x1="-7.982" y1="-3.743" x2="6.46" y2="3.487" xlink:href="#linear-gradient"/>
    <linearGradient id="linear-gradient-4" x1="-11.497" y1="-3.215" x2="7.504" y2="2.63" xlink:href="#linear-gradient"/>
    <linearGradient id="linear-gradient-5" x1="-8.111" y1="-4.494" x2="4.363" y2="2.735" xlink:href="#linear-gradient"/>
    <linearGradient id="linear-gradient-6" x1="-18.461" y1="-24.663" x2="7.112" y2="9.275" xlink:href="#linear-gradient"/>
    <linearGradient id="linear-gradient-7" x1="-9.389" y1="-5.234" x2="3.086" y2="1.995" xlink:href="#linear-gradient"/>
    <linearGradient id="linear-gradient-8" x1="-11.184" y1="-5.825" x2="2.364" y2="1.58" xlink:href="#linear-gradient"/>
    <linearGradient id="linear-gradient-9" x1="-11.086" y1="-6.217" x2="1.389" y2="1.012" xlink:href="#linear-gradient"/>
    <linearGradient id="linear-gradient-10" x1="-21.034" y1="-6.815" x2="0.808" y2="0.605" xlink:href="#linear-gradient"/>
    <linearGradient id="linear-gradient-11" x1="-0.046" y1="0.336" x2="2.436" y2="1.278" xlink:href="#linear-gradient"/>
  </defs>
  <g id="Group_1082" data-name="Group 1082" transform="translate(-127 -95.61)">
    <g id="Group_1079" data-name="Group 1079" transform="translate(-29.829 -96.446)">
      <g id="Group_1077" data-name="Group 1077" transform="translate(263.12 264.285)" style="isolation: isolate">
        <path id="Path_3116" data-name="Path 3116" d="M328.288,318.609h2.74l5.446,13.4,5.413-13.4h2.774l-6.8,16.339h-2.774Z" transform="translate(-328.288 -312.385)"/>
        <path id="Path_3117" data-name="Path 3117" d="M365.478,317.955c4.938,0,7.848,3.857,7.848,8.761v.642H360.1a5.756,5.756,0,0,0,5.886,5.649,7.143,7.143,0,0,0,5.041-2.063l1.217,1.658a8.875,8.875,0,0,1-6.494,2.5c-4.837,0-8.322-3.484-8.322-8.591C357.427,321.777,360.81,317.955,365.478,317.955ZM360.1,325.5h10.723a5.3,5.3,0,0,0-5.378-5.446C361.96,320.052,360.235,322.995,360.1,325.5Z" transform="translate(-339.363 -312.136)"/>
        <path id="Path_3118" data-name="Path 3118" d="M389.676,318.4h2.537v2.639a6.945,6.945,0,0,1,5.446-2.977v2.6a4.444,4.444,0,0,0-1.015-.1,5.977,5.977,0,0,0-4.431,2.6V334.74h-2.537Z" transform="translate(-351.62 -312.178)"/>
        <path id="Path_3119" data-name="Path 3119" d="M408.355,337a6.238,6.238,0,0,0,5.311,2.232c2.706,0,5.243-1.319,5.243-4.9v-2.333a6.826,6.826,0,0,1-5.479,2.909c-4.263,0-7.273-3.18-7.273-8.457,0-5.243,2.977-8.49,7.273-8.49a6.769,6.769,0,0,1,5.479,2.875v-2.47h2.537v15.865c0,5.413-3.788,7.1-7.779,7.1-2.774,0-4.669-.541-6.6-2.436Zm10.554-14.14a6.017,6.017,0,0,0-4.871-2.638c-3.281,0-5.243,2.6-5.243,6.223,0,3.586,1.962,6.225,5.243,6.225A6.046,6.046,0,0,0,418.908,330Z" transform="translate(-357.884 -312.136)"/>
        <path id="Path_3120" data-name="Path 3120" d="M445.528,317.955c4.939,0,7.848,3.857,7.848,8.761v.642H440.15a5.756,5.756,0,0,0,5.886,5.649,7.14,7.14,0,0,0,5.04-2.063l1.218,1.658a8.875,8.875,0,0,1-6.495,2.5c-4.837,0-8.321-3.484-8.321-8.591C437.478,321.777,440.861,317.955,445.528,317.955ZM440.15,325.5h10.723a5.3,5.3,0,0,0-5.378-5.446C442.01,320.052,440.286,322.995,440.15,325.5Z" transform="translate(-369.789 -312.136)"/>
        <path id="Path_3121" data-name="Path 3121" d="M469.728,308.569h2.536v22.563h-2.536Z" transform="translate(-382.046 -308.569)"/>
        <path id="Path_3122" data-name="Path 3122" d="M481.295,310.37a1.709,1.709,0,0,1,3.417,0,1.709,1.709,0,1,1-3.417,0Zm.44,4.465h2.537v16.339h-2.537Z" transform="translate(-386.443 -308.611)"/>
        <path id="Path_3123" data-name="Path 3123" d="M494.309,332.763c0,3.214-1.725,5.041-4.8,5.041a5.959,5.959,0,0,1-1.826-.237l.338-2.131a3.53,3.53,0,0,0,1.218.169c1.488,0,2.537-.779,2.537-2.842V314.835h2.537Zm-2.977-22.393a1.709,1.709,0,0,1,3.417,0,1.709,1.709,0,1,1-3.417,0Z" transform="translate(-388.869 -308.611)"/>
        <path id="Path_3124" data-name="Path 3124" d="M511.8,323.791l-2.707,2.673v4.668H506.56V308.569H509.1v14.918l8.593-8.694H520.9l-7.239,7.409,7.273,8.93h-3.247Z" transform="translate(-396.045 -308.569)"/>
        <path id="Path_3125" data-name="Path 3125" d="M539.875,317.955c4.938,0,7.848,3.857,7.848,8.761v.642H534.5a5.757,5.757,0,0,0,5.886,5.649,7.141,7.141,0,0,0,5.041-2.063l1.218,1.658a8.876,8.876,0,0,1-6.495,2.5c-4.837,0-8.321-3.484-8.321-8.591C531.824,321.777,535.207,317.955,539.875,317.955ZM534.5,325.5H545.22a5.3,5.3,0,0,0-5.379-5.446C536.357,320.052,534.632,322.995,534.5,325.5Z" transform="translate(-405.648 -312.136)"/>
        <path id="Path_3126" data-name="Path 3126" d="M564.074,318.4h2.537v2.639a6.944,6.944,0,0,1,5.446-2.977v2.6a4.441,4.441,0,0,0-1.015-.1,5.979,5.979,0,0,0-4.431,2.6V334.74h-2.537Z" transform="translate(-417.905 -312.178)"/>
        <path id="Path_3127" data-name="Path 3127" d="M578.594,339.508a1.861,1.861,0,1,1-1.86,1.861A1.877,1.877,0,0,1,578.594,339.508Z" transform="translate(-422.717 -320.328)"/>
        <path id="Path_3128" data-name="Path 3128" d="M601.13,324.01c0-2.876-1.455-3.789-3.654-3.789a6.31,6.31,0,0,0-4.837,2.537V334.7H590.1V318.36h2.536v2.369a8.105,8.105,0,0,1,5.819-2.774c3.416,0,5.208,1.725,5.208,5.277V334.7H601.13Z" transform="translate(-427.798 -312.136)"/>
        <path id="Path_3129" data-name="Path 3129" d="M620.17,308.569h2.537v22.563H620.17Z" transform="translate(-439.226 -308.569)"/>
      </g>
      <g id="Group_1078" data-name="Group 1078" transform="translate(156.829 192.055)">
        <path id="Path_3130" data-name="Path 3130" d="M346.2,268.136a5.011,5.011,0,0,0,3.89-5.175c0-3.01-2.2-5.75-6.495-5.75H331.726v22.562h12.245c4.3,0,6.562-2.706,6.562-6.089A5.468,5.468,0,0,0,346.2,268.136Zm-9.674-6.833h6.021a2.491,2.491,0,1,1,0,4.972h-6.021Zm6.19,14.376h-6.19v-5.31h6.19a2.636,2.636,0,0,1,2.909,2.638A2.592,2.592,0,0,1,342.719,275.68Z" transform="translate(-223.303 -216.82)" fill="url(#linear-gradient)"/>
        <path id="Path_3131" data-name="Path 3131" d="M374.505,266.6a8.315,8.315,0,0,0-8.456,8.558c0,5.243,3.755,8.592,8.727,8.592a10.183,10.183,0,0,0,6.732-2.266l-1.895-2.774a6.678,6.678,0,0,1-4.364,1.624,4.4,4.4,0,0,1-4.7-3.789h12.144v-.947C382.692,270.249,379.377,266.6,374.505,266.6Zm-4.025,7.036a3.927,3.927,0,0,1,4.025-3.62,3.785,3.785,0,0,1,4.026,3.62Z" transform="translate(-236.349 -220.387)" fill="url(#linear-gradient-2)"/>
        <path id="Path_3132" data-name="Path 3132" d="M403.439,273.158c-1.827-.372-3.112-.745-3.112-1.759,0-.947,1.015-1.522,2.571-1.522a6.9,6.9,0,0,1,4.837,1.894l1.725-2.943a10.437,10.437,0,0,0-6.6-2.232c-4.3,0-6.7,2.4-6.7,5.142,0,3.89,3.619,4.566,6.427,5.108,1.86.372,3.281.778,3.281,1.929,0,1.014-.88,1.657-2.74,1.657a9.351,9.351,0,0,1-5.649-2.232l-1.86,3.01a11,11,0,0,0,7.307,2.537c4.532,0,7.069-2.266,7.069-5.243C410,274.444,406.247,273.7,403.439,273.158Z" transform="translate(-247.59 -220.387)" fill="url(#linear-gradient-3)"/>
        <path id="Path_3133" data-name="Path 3133" d="M429.469,277.435c-.947,0-1.488-.778-1.488-1.793v-7.374H431.3v-3.755H427.98v-4.465h-4.33v4.465h-2.707v3.755h2.707v8.524c0,2.909,1.624,4.465,4.634,4.465a5.3,5.3,0,0,0,3.586-1.049l-.913-3.247A2.348,2.348,0,0,1,429.469,277.435Z" transform="translate(-257.213 -217.898)" fill="url(#linear-gradient-4)"/>
        <path id="Path_3134" data-name="Path 3134" d="M449.155,266.6a8.315,8.315,0,0,0-8.457,8.558c0,5.243,3.755,8.592,8.727,8.592a10.184,10.184,0,0,0,6.732-2.266l-1.894-2.774a6.679,6.679,0,0,1-4.364,1.624,4.4,4.4,0,0,1-4.7-3.789h12.144v-.947C457.341,270.249,454.026,266.6,449.155,266.6Zm-4.025,7.036a3.926,3.926,0,0,1,4.025-3.62,3.785,3.785,0,0,1,4.025,3.62Z" transform="translate(-264.721 -220.387)" fill="url(#linear-gradient-5)"/>
        <rect id="Rectangle_246" data-name="Rectangle 246" width="8.118" height="3.653" transform="translate(194.616 52.941)" fill="url(#linear-gradient-6)"/>
        <path id="Path_3135" data-name="Path 3135" d="M495.7,266.6a8.315,8.315,0,0,0-8.457,8.558c0,5.243,3.755,8.592,8.727,8.592a10.185,10.185,0,0,0,6.732-2.266l-1.895-2.774a6.678,6.678,0,0,1-4.364,1.624,4.4,4.4,0,0,1-4.7-3.789h12.144v-.947C503.886,270.249,500.572,266.6,495.7,266.6Zm-4.025,7.036a3.926,3.926,0,0,1,4.025-3.62,3.785,3.785,0,0,1,4.025,3.62Z" transform="translate(-282.413 -220.387)" fill="url(#linear-gradient-7)"/>
        <path id="Path_3136" data-name="Path 3136" d="M529.124,266.6a7.481,7.481,0,0,0-5.717,2.537V267h-4.3V283.34h4.3V272.346a4.653,4.653,0,0,1,3.721-1.928c1.827,0,3.01.778,3.01,3.044v9.877h4.3V271.805C534.435,268.626,532.71,266.6,529.124,266.6Z" transform="translate(-294.524 -220.387)" fill="url(#linear-gradient-8)"/>
        <path id="Path_3137" data-name="Path 3137" d="M557.472,266.6a8.315,8.315,0,0,0-8.456,8.558c0,5.243,3.754,8.592,8.727,8.592a10.183,10.183,0,0,0,6.731-2.266l-1.894-2.774a6.678,6.678,0,0,1-4.364,1.624,4.4,4.4,0,0,1-4.7-3.789h12.144v-.947C565.658,270.249,562.344,266.6,557.472,266.6Zm-4.025,7.036a3.927,3.927,0,0,1,4.025-3.62,3.785,3.785,0,0,1,4.025,3.62Z" transform="translate(-305.891 -220.387)" fill="url(#linear-gradient-9)"/>
        <path id="Path_3138" data-name="Path 3138" d="M585.178,269.255v-2.232h-4.3v16.338h4.3V272.57a5.274,5.274,0,0,1,5.21-1.725V266.65A6.991,6.991,0,0,0,585.178,269.255Z" transform="translate(-318.003 -220.407)" fill="url(#linear-gradient-10)"/>
        <path id="Path_3139" data-name="Path 3139" d="M611.081,269.1a6.292,6.292,0,0,0-5.041-2.5c-4.126,0-7.2,2.977-7.2,8.321,0,5.446,3.111,8.321,7.2,8.321a6.36,6.36,0,0,0,5.041-2.571v1.658c0,3.214-2.436,4.127-4.5,4.127a6.494,6.494,0,0,1-5.108-2.03l-1.929,3.112a9.9,9.9,0,0,0,7.036,2.436c4.025,0,8.829-1.522,8.829-7.747V267h-4.33Zm0,8.456a4.758,4.758,0,0,1-3.687,1.86c-2.436,0-4.127-1.691-4.127-4.5s1.691-4.5,4.127-4.5a4.659,4.659,0,0,1,3.687,1.86Z" transform="translate(-324.826 -220.387)" fill="#519f39"/>
        <rect id="Rectangle_247" data-name="Rectangle 247" width="4.296" height="16.338" transform="translate(294.847 46.615)" fill="#519f39"/>
        <path id="Path_3140" data-name="Path 3140" d="M634.311,255.083a2.571,2.571,0,1,0,2.571,2.57A2.591,2.591,0,0,0,634.311,255.083Z" transform="translate(-337.332 -216.011)" fill="#519f39"/>
        <path id="Path_3141" data-name="Path 3141" d="M661.206,275.594c0-5.344-3.315-9-8.186-9a8.315,8.315,0,0,0-8.457,8.558c0,5.243,3.755,8.592,8.728,8.592a10.184,10.184,0,0,0,6.731-2.266l-1.894-2.774a6.678,6.678,0,0,1-4.364,1.624,4.4,4.4,0,0,1-4.7-3.789h12.144Zm-12.211-1.961a3.927,3.927,0,0,1,4.025-3.62,3.785,3.785,0,0,1,4.025,3.62Z" transform="translate(-342.206 -220.387)" fill="#519f39"/>
        <path id="Path_3142" data-name="Path 3142" d="M216.525,192.866h0a3.011,3.011,0,0,0-5.063,2.105,33.193,33.193,0,0,1-19.134,27.609l-14.034,6.544a37.174,37.174,0,0,0-17.976,49.389c.35.75,2.521,3.835,4.315,6.385L186.4,262.6l-10.123-8.225a1.977,1.977,0,0,1,.368-3.307L219.536,229.8a1.98,1.98,0,0,1,2.295,3.157l-23.462,24.067,10.04,8.152a1.982,1.982,0,0,1-.365,3.31l-41.366,20.59c-1.655,3.341-8.583,18.016-8.058,28.666a6.2,6.2,0,0,0,12.391-.588c-.031-.754-.252-10.113,5.2-21.776a37.081,37.081,0,0,0,37-.762c26.61-14.843,34.475-48.582,20.372-78.825A70.383,70.383,0,0,0,216.525,192.866Z" transform="translate(-156.829 -192.055)" fill="url(#linear-gradient-11)"/>
      </g>
    </g>
  </g>
</svg>
