<svg xmlns="http://www.w3.org/2000/svg" width="87.925" height="61.163" viewBox="0 0 87.925 61.163">
  <g id="Group_917" data-name="Group 917" transform="translate(0 0)">
    <g id="Group_282" data-name="Group 282" transform="translate(0)">
      <path id="Path_1906" data-name="Path 1906" d="M2372.558,601.006c.067-.026.057-.024.019-.01S2372.408,601.065,2372.558,601.006Z" transform="translate(-2289.904 -557.377)"/>
      <path id="Path_1907" data-name="Path 1907" d="M2375.443,599.348c.015-.013.2-.128.076-.063Z" transform="translate(-2292.004 -556.155)"/>
      <path id="Path_1908" data-name="Path 1908" d="M2375.574,463.1c.112.066-.138-.121,0,0Z" transform="translate(-2292.067 -459.431)"/>
      <path id="Path_1909" data-name="Path 1909" d="M2369.229,460.571l.016,0,.022,0C2369.481,460.586,2369.02,460.525,2369.229,460.571Z" transform="translate(-2287.552 -457.654)"/>
      <path id="Path_1910" data-name="Path 1910" d="M2379.89,468.616l.031.067c-.02-.043-.035-.081-.044-.1Z" transform="translate(-2295.153 -463.355)"/>
      <path id="Path_1911" data-name="Path 1911" d="M2378.165,465.684c.022.027.046.052.067.079C2378.154,465.666,2378.145,465.656,2378.165,465.684Z" transform="translate(-2293.931 -461.288)"/>
      <path id="Path_1912" data-name="Path 1912" d="M2379.845,593.718c-.007.019-.015.037-.021.056,0-.015.113-.228.035-.086C2379.854,593.7,2379.85,593.708,2379.845,593.718Z" transform="translate(-2295.115 -552.16)"/>
      <path id="Path_1913" data-name="Path 1913" d="M2380.791,471.834c.006.034.008.037,0-.032C2380.767,471.625,2380.786,471.788,2380.791,471.834Z" transform="translate(-2295.793 -465.585)"/>
      <path id="Path_1914" data-name="Path 1914" d="M2380.8,590.392c-.008.169.012-.079.015-.1l-.014.076C2380.8,590.38,2380.8,590.386,2380.8,590.392Z" transform="translate(-2295.806 -549.786)"/>
      <path id="Path_1915" data-name="Path 1915" d="M2378.187,596.669c.03-.043.032-.048.022-.037C2378.163,596.7,2378.129,596.752,2378.187,596.669Z" transform="translate(-2293.931 -554.281)"/>
      <path id="Path_1916" data-name="Path 1916" d="M2369.127,601.935l.09-.008.013,0C2369.119,601.933,2369.1,601.937,2369.127,601.935Z" transform="translate(-2287.512 -558.044)"/>
      <path id="Path_1917" data-name="Path 1917" d="M2111.749,608.465c.482.009.967,0,1.448,0l-1.448-1.448Z" transform="translate(-2104.752 -561.659)"/>
      <path id="Path_1918" data-name="Path 1918" d="M2364.108,450.552a1.448,1.448,0,1,0,1.448,1.448A1.463,1.463,0,0,0,2364.108,450.552Z" transform="translate(-2282.926 -450.552)"/>
      <path id="Path_1919" data-name="Path 1919" d="M2102.693,463.07l.032-.028c.119-.108-.06.049-.073.057C2102.667,463.09,2102.68,463.08,2102.693,463.07Z" transform="translate(-2098.293 -459.394)"/>
      <path id="Path_1920" data-name="Path 1920" d="M2108.873,460.584l.02,0c.164-.036-.081.01-.1.011Z" transform="translate(-2102.656 -457.663)"/>
      <path id="Path_1921" data-name="Path 1921" d="M2175.527,476.325V458.074c0-.255,0-.511,0-.766a6.914,6.914,0,0,0-1.671-4.456,6.757,6.757,0,0,0-5.062-2.3,1.448,1.448,0,1,1,0,2.9c.12,0,.238,0,.358.012l.154.013-.016,0c-.209-.046.253.015.038.005l-.022,0c.238.052.476.1.71.171.108.034.213.079.32.114-.265-.087,0,0,.117.062a7.043,7.043,0,0,1,.624.372l.044.027c-.138-.122.112.066,0,0l.018.016c.1.085.2.169.291.259a5.632,5.632,0,0,1,.419.455c-.02-.028-.011-.018.067.079-.021-.027-.045-.052-.067-.079.019.028.068.094.1.147.073.109.14.22.2.334.055.1.105.2.156.3.014.028.027.057.04.086l-.012-.034-.005-.015.005.015c.008.021.023.059.044.1l-.031-.067.012.036a6.406,6.406,0,0,1,.206.713c.007.034.031.181.043.239,0-.046-.024-.209,0-.032.009.069.007.066,0,.032v.009c.005.079.012.157.016.236s0,.182,0,.273c0,.115,0,.229,0,.344v32.695c0,.087,0,.173,0,.26,0,.062,0,.124,0,.186,0,.112-.017.224-.022.335l.013-.076c0,.016-.022.264-.015.1a.154.154,0,0,1,0-.019c-.009.05-.017.1-.028.152a5.774,5.774,0,0,1-.2.716c-.012.035-.025.069-.038.1.005-.01.01-.02.015-.03.078-.142-.031.071-.035.086.006-.019.013-.038.021-.056-.055.106-.1.216-.161.322s-.13.226-.2.336c-.012.019-.055.082-.09.135.01-.012.008-.006-.022.036-.058.083-.023.032.022-.036-.025.027-.129.163-.155.192q-.129.146-.268.282c-.093.091-.19.177-.288.262-.017.015-.035.029-.053.043.122-.065-.061.05-.076.063l.076-.063-.006,0c-.212.115-.4.267-.619.379-.067.035-.135.066-.2.1l-.015.007c.039-.013.048-.016-.019.01-.15.059-.03.011.019-.01l-.217.077a6.356,6.356,0,0,1-.722.183l-.016,0,.054,0-.068.006c-.033,0-.071.008-.09.008l-.018,0c-.119.009-.237.014-.356.016h-.065c-.592.005-1.183,0-1.774,0h-59.568a1.635,1.635,0,0,0-1.288.465c-.383.419-.708.912-1.056,1.36l-4.8,6.186-2.795,3.6v4.206l-2.471-1.024.741-.955,1.729-2.228V495.909a1.468,1.468,0,0,0-1.448-1.447h-1.771c-.119,0-.238-.006-.356-.016l-.117-.011h.007c.07.009.1.019,0,0l-.02,0-.045,0,.045,0h.013l-.02,0a6.31,6.31,0,0,1-.668-.165c-.108-.034-.213-.079-.321-.114.27.089-.006-.006-.116-.062a6.3,6.3,0,0,1-.578-.341c-.034-.022-.066-.046-.1-.07l.035.031c.119.108-.06-.049-.072-.057l.037.026c-.086-.075-.174-.147-.258-.225a6.244,6.244,0,0,1-.456-.486l-.016-.018c.067.112-.121-.138,0,0-.007-.012-.013-.023-.026-.044-.071-.11-.145-.217-.211-.329q-.086-.145-.162-.295c-.06-.119-.148-.382-.062-.116-.077-.236-.163-.464-.22-.707-.025-.106-.042-.213-.065-.319,0,.025.005.05.007.075,0-.015-.047-.26-.011-.1a.149.149,0,0,1,0,.021c0-.033-.006-.067-.009-.1-.011-.139-.015-.279-.017-.418-.008-.916,0-1.832,0-2.749V457.552c0-.086,0-.173,0-.259,0-.023,0-.046,0-.069,0-.119.007-.237.016-.356,0-.039.007-.078.011-.117l0,.007c-.009.07-.019.1,0,0,0-.007,0-.013,0-.02s0-.03,0-.045c0,.015,0,.03,0,.045v.014c0-.007,0-.012,0-.02a6.344,6.344,0,0,1,.165-.668c.034-.108.079-.213.114-.321-.088.27.006-.006.062-.117a6.624,6.624,0,0,1,.341-.578c.025-.039.053-.077.08-.115l-.006.007-.015.018c-.047.058-.105.123,0,0a.573.573,0,0,0,.037-.047l-.015.023c.082-.1.165-.192.253-.284.145-.151.3-.283.458-.423-.013.01-.026.02-.04.028.012-.008.191-.165.072-.057l-.032.028c.033-.023.064-.046.1-.068.11-.071.218-.143.332-.208q.146-.084.3-.159c.12-.059.3-.114.066-.036.236-.077.465-.163.707-.22.106-.025.213-.042.319-.064l-.076.007c.015,0,.26-.048.1-.011l-.021,0,.1-.009c.139-.011.278-.015.417-.017h74.447a1.448,1.448,0,0,1,0-2.9h-73.481a10.04,10.04,0,0,0-2.794.251,6.825,6.825,0,0,0-4.623,4.546,7.817,7.817,0,0,0-.283,2.3v32.5a9.763,9.763,0,0,0,.146,1.852,6.78,6.78,0,0,0,4.224,4.919,7.383,7.383,0,0,0,2.628.435v-1.448l1.447,1.448c-.48,0-.965.009-1.447,0v12.922a1.451,1.451,0,0,0,.89,1.323,1.421,1.421,0,0,0,1.581-.3l3.758-4.84,6.021-7.755,1.049-1.351h-.694l1.023-.424-.329.424h55.826c1.678,0,3.358.014,5.036,0a6.816,6.816,0,0,0,6.751-6.494c.033-.74.005-1.487.005-2.227Z" transform="translate(-2087.613 -450.552)"/>
      <path id="Path_1922" data-name="Path 1922" d="M2155.922,610.972l.329-.424-1.024.424Z" transform="translate(-2135.627 -564.167)"/>
      <path id="Path_1923" data-name="Path 1923" d="M2100.157,596.7c-.121-.138.067.113,0,0Z" transform="translate(-2096.491 -554.306)"/>
      <path id="Path_1924" data-name="Path 1924" d="M2113.211,645.258l2.471,1.024v-4.206l-1.729,2.228Z" transform="translate(-2105.79 -586.555)"/>
      <path id="Path_1925" data-name="Path 1925" d="M2100.278,465.621l.006-.007c.005-.008.011-.015.015-.023a.542.542,0,0,1-.037.047Z" transform="translate(-2096.595 -461.232)"/>
      <path id="Path_1926" data-name="Path 1926" d="M2108.954,601.925l.02,0h-.02Z" transform="translate(-2102.768 -558.044)"/>
      <path id="Path_1927" data-name="Path 1927" d="M2102.69,599.259l-.037-.026c.013.008.191.165.073.057Z" transform="translate(-2098.293 -556.132)"/>
      <path id="Path_1928" data-name="Path 1928" d="M2097.64,590.357c-.037-.164.01.081.011.1,0-.025,0-.05-.007-.075Z" transform="translate(-2094.724 -549.789)"/>
      <path id="Path_1929" data-name="Path 1929" d="M2097.69,471.907v-.014c0,.007,0,.014,0,.02Z" transform="translate(-2094.768 -465.706)"/>
    </g>
  </g>
  <g id="Group_1082" data-name="Group 1082" transform="translate(-1659.073 -66.047)">
    <g id="Group_1081" data-name="Group 1081">
      <path id="Path_1905" data-name="Path 1905" d="M2172.34,455.546h-74.449a5.285,5.285,0,0,0-5.285,5.285v33.34a5.285,5.285,0,0,0,5.285,5.285h1.712v14.369l11.157-14.369h61.581a5.285,5.285,0,0,0,5.284-5.285v-33.34A5.285,5.285,0,0,0,2172.34,455.546Z" transform="translate(-432.086 -388.051)" fill="#fff"/>
      <text id="_" data-name="?" transform="translate(1696 100)" fill="#2c2c2c" font-size="27" font-family="SegoeUI-Semibold, Segoe UI" font-weight="600"><tspan x="0" y="0">?</tspan></text>
    </g>
  </g>
</svg>
