<svg xmlns="http://www.w3.org/2000/svg" width="259.768" height="350.908" viewBox="0 0 259.768 350.908">
  <g id="Group_896" data-name="Group 896" transform="translate(-1050.161 -288.221)">
    <path id="Path_2635" data-name="Path 2635" d="M1706.619,1114.234c13.655,23.66,38.632,35.931,50.136,24.63,14.857-14.594-4.216-50.145-17.946-67.871h-32.19Z" transform="translate(-454.077 -541.45)" fill="#fcc4b9"/>
    <path id="Path_2636" data-name="Path 2636" d="M1707.517,1164.917l-.049-16.751c4.624-1.955,5.267-3.991,7.082-3.938,1.462.042,2.367,1.754,2.234,3.21a15.4,15.4,0,0,1-1.481,4.108c-5.705,14.419,23.92,43.867,44.3,35.7C1748.8,1202.643,1721.589,1189.3,1707.517,1164.917Z" transform="translate(-454.664 -592.106)" fill="#efa89e"/>
    <path id="Path_2637" data-name="Path 2637" d="M1718.934,1080.119a64.651,64.651,0,0,1,9.207-1.959l1.684-.678a213.462,213.462,0,0,1,17.142,32.42c-5.3-6.7-13.854-9.986-22.24-11.634a14.766,14.766,0,0,0-6.339-11.766c-1.308-.891-2.959-1.905-2.879-3.486C1715.59,1081.418,1717.4,1080.566,1718.934,1080.119Z" transform="translate(-460.225 -545.938)" fill="#efa89e"/>
    <path id="Path_2638" data-name="Path 2638" d="M1111.694,1114.234c-13.655,23.66-38.631,35.931-50.136,24.63-14.857-14.594,4.216-50.145,17.946-67.871h32.317Z" transform="translate(-4.15 -541.45)" fill="#fcc4b9"/>
    <path id="Path_2639" data-name="Path 2639" d="M1154.4,1080.031a64.7,64.7,0,0,0-9.206-1.959l-1.685-.678a213.523,213.523,0,0,0-17.142,32.42c5.3-6.7,13.853-9.985,22.24-11.634a14.768,14.768,0,0,1,6.339-11.766c1.308-.891,2.958-1.905,2.879-3.486C1157.745,1081.33,1155.939,1080.477,1154.4,1080.031Z" transform="translate(-52.713 -545.877)" fill="#efa89e"/>
    <g id="Group_865" data-name="Group 865" transform="translate(1072.483 453.315)">
      <path id="Path_2640" data-name="Path 2640" d="M1468.463,1426.427q-1.211,0-2.4-.012-1.2.011-2.416.012Z" transform="translate(-1358.495 -1240.612)" fill="#892f58"/>
      <path id="Path_2641" data-name="Path 2641" d="M1337.686,898.622c-15.9-41.279-47.482-70.04-85.759-74.891h-43.6c-38.278,4.851-69.857,33.612-85.759,74.891,0,0,24.023,2.707,35.189,10.827l19.072,59.561c-1.594,6.183,114.859,5.948,113.325,0L1302.5,909.45C1313.663,901.329,1337.686,898.622,1337.686,898.622Z" transform="translate(-1122.564 -823.731)" fill="#bffd6a"/>
      <path id="Path_2643" data-name="Path 2643" d="M1660.241,1023.9a68.776,68.776,0,0,1-9.171-32.076c-.146-4.541-1.261-3.715,2.7-5.942,6-3.376,13.51-4.269,17.616,1.268a172.672,172.672,0,0,1,15.4,24.932c-6.617,1.7-13.783,4.193-18.578,7.681l-2.258,11.08A22.273,22.273,0,0,1,1660.241,1023.9Z" transform="translate(-1487.96 -934.02)" fill="#469612"/>
      <path id="Path_2644" data-name="Path 2644" d="M1202.985,1023.815a68.774,68.774,0,0,0,9.171-32.076c.146-4.541,1.261-3.715-2.7-5.942-6-3.376-13.51-4.268-17.616,1.267a172.668,172.668,0,0,0-15.4,24.932c6.616,1.7,13.782,4.193,18.578,7.681l2.257,11.08A22.266,22.266,0,0,0,1202.985,1023.815Z" transform="translate(-1159.835 -933.959)" fill="#469612"/>
    </g>
    <path id="Path_2648" data-name="Path 2648" d="M1445.207,793.973H1404.8c-.546,4.85-.808,10.046.074,12.742,2.007,6.133,9.679,11.918,20.132,11.918H1425c10.453,0,18.125-5.785,20.132-11.918C1446.016,804.019,1445.753,798.823,1445.207,793.973Z" transform="translate(-244.961 -349.833)" fill="#efa89e"/>
    <path id="Path_2649" data-name="Path 2649" d="M1445.3,793.973H1404.9c-.213,1.9-.382.362-.457,2.194,6.2,2.413,13.149,7.06,20.651,7.06s14.468-4.648,20.668-7.066C1445.686,794.33,1445.517,795.867,1445.3,793.973Z" transform="translate(-245.059 -349.833)" fill="#2c2c2c"/>
    <g id="Group_866" data-name="Group 866" transform="translate(1157.485 442.289)">
      <path id="Path_2650" data-name="Path 2650" d="M1398.79,789.82a57.873,57.873,0,0,0-.465,9.18,16.714,16.714,0,0,0,.531,3.812,13.832,13.832,0,0,0,1.295,2.995c2.424,4.247,6.662,7.2,11.173,8.879a27.583,27.583,0,0,0,9.522,1.645,1.85,1.85,0,0,0,0-3.7c-.718,0-1.435-.027-2.151-.083q-.475-.037-.949-.091l-.25-.03c-.33-.038.077.01.119.018-.184-.032-.37-.053-.553-.082a25.064,25.064,0,0,1-3.779-.9c-.579-.188-1.149-.4-1.714-.629-.289-.117.1.042.132.056-.067-.032-.137-.059-.2-.089q-.2-.089-.4-.183-.422-.2-.836-.409a21.14,21.14,0,0,1-2.9-1.8c-.118-.087-.459-.388-.029-.018-.1-.087-.21-.166-.314-.251q-.307-.251-.6-.514-.6-.53-1.146-1.11c-.343-.363-.659-.747-.977-1.132-.142-.172.253.336.121.157-.036-.049-.073-.1-.109-.146q-.107-.145-.212-.294-.219-.31-.421-.631a13.785,13.785,0,0,1-.682-1.213,2.421,2.421,0,0,1-.285-.616c0-.006.192.472.089.21-.02-.052-.042-.1-.062-.155q-.068-.174-.13-.35a9.156,9.156,0,0,1-.365-1.36c-.024-.13-.047-.26-.067-.39-.01-.067-.019-.134-.03-.2-.038-.236.051.421.025.181-.034-.31-.067-.621-.09-.932a53.342,53.342,0,0,1,.427-9.82,1.854,1.854,0,0,0-1.85-1.85,1.9,1.9,0,0,0-1.85,1.85Z" transform="translate(-1398.284 -787.969)" fill="#21223f"/>
    </g>
    <g id="Group_867" data-name="Group 867" transform="translate(1070.616 451.454)">
      <path id="Path_2651" data-name="Path 2651" d="M1204.136,817.707a93.222,93.222,0,0,0-22.153,5.586,98.62,98.62,0,0,0-20.058,10.633A110.659,110.659,0,0,0,1144.26,849.1a126.886,126.886,0,0,0-14.853,19.186,144.794,144.794,0,0,0-11.625,22.677q-.611,1.491-1.19,3a1.751,1.751,0,0,0,.331,1.612,1.924,1.924,0,0,0,1.453.729c.219.025.438.052.657.081l.342.044.186.025c-.8-.1-.388-.052-.206-.027q.523.072,1.045.148,3.177.463,6.332,1.074a100.342,100.342,0,0,1,17.464,4.8q.607.237,1.209.486c.111.046.468.211-.044-.02.1.044.2.084.3.126q.294.127.587.257,1.149.512,2.269,1.084a31.568,31.568,0,0,1,4.117,2.494,1.858,1.858,0,0,0,2.531-.663,1.9,1.9,0,0,0-.664-2.531,39.44,39.44,0,0,0-8.109-4.316,77.666,77.666,0,0,0-9.059-3.058,130.4,130.4,0,0,0-15.407-3.225c-1.18-.177-2.361-.348-3.547-.482l1.784,2.341q.58-1.5,1.19-2.995.152-.371.307-.741l.154-.37c.035-.084.208-.511.021-.05.2-.493.418-.98.631-1.468q1.267-2.9,2.657-5.754,2.728-5.585,5.94-10.917,3.1-5.136,6.659-9.976.443-.6.894-1.2l.414-.544.189-.247.151-.2-.062.08q.912-1.17,1.847-2.323,1.859-2.281,3.828-4.469a113.839,113.839,0,0,1,8.126-8.165q2.092-1.9,4.282-3.685.55-.449,1.106-.89.254-.2.51-.4l.233-.182.186-.145-.094.073c.144-.013.442-.339.562-.43q.281-.214.564-.426.565-.423,1.135-.838a98.761,98.761,0,0,1,19.253-10.96c.382-.163-.4.166-.016.007l.32-.133.641-.263q.642-.261,1.287-.512,1.291-.5,2.6-.966,2.614-.927,5.281-1.7a90.646,90.646,0,0,1,10.889-2.42q.636-.1,1.274-.192c.232-.033.466-.058.7-.1-.612.105.176-.022.323-.041a2.031,2.031,0,0,0,1.308-.542,1.881,1.881,0,0,0,.542-1.308c-.04-.9-.822-1.981-1.85-1.85Z" transform="translate(-1116.51 -817.696)" fill="#21223f"/>
    </g>
    <path id="Path_2655" data-name="Path 2655" d="M1235.248,1088.562c-8.366-5.423-37.82-.207-32.457,21.032a33.235,33.235,0,0,0,5.865,11.466,2.112,2.112,0,0,0,3.081.339c3.616-3.166,12.767-4.148,14.778-4.624,6.087-1.438,11.66-5.7,13.782-11.578S1240.5,1091.964,1235.248,1088.562Z" transform="translate(-105.127 -552.225)" fill="#fcc4b9"/>
    <path id="Path_2656" data-name="Path 2656" d="M1241.533,1123.426a19.873,19.873,0,0,1-30.519,7.672,4.271,4.271,0,0,0-2.575-1.286c-1.462.042-2.367,1.754-2.234,3.21.244,2.691,2.45,4.081,2.307,9.07,1.878,3.275,3.782,6.765,6.026,4.8,3.616-3.166,12.767-4.148,14.778-4.623,7.694-1.819,14.413-8.1,14.625-16.129A29.55,29.55,0,0,0,1241.533,1123.426Z" transform="translate(-107.927 -577.718)" fill="#efa89e"/>
    <path id="Path_3144" data-name="Path 3144" d="M1174.53,509.979l18.822-18.465,8.365,8.044,1.428,6.96-1.428,5.981s-1.366,3.83-1.867,3.98-7.466,2.971-7.466,2.971H1187.3l-4.455-1.619Z" fill="#fffa7b"/>
    <path id="Path_2657" data-name="Path 2657" d="M1119.435,1164.828l.049-16.751c-4.624-1.955-5.268-3.991-7.082-3.938-1.462.043-2.367,1.754-2.234,3.21a15.43,15.43,0,0,0,1.481,4.108c5.705,14.419-23.92,43.867-44.3,35.7C1078.149,1202.554,1105.363,1189.209,1119.435,1164.828Z" transform="translate(-11.89 -592.044)" fill="#efa89e"/>
    <path id="Path_3143" data-name="Path 3143" d="M575.741,286.787a28.952,28.952,0,0,0,28.92-28.919V219.54a15.645,15.645,0,0,1-13.618-15.488V193.691h4.337v-9.634a2.015,2.015,0,1,1,4.03,0v9.634h14.53v-9.634a2.015,2.015,0,1,1,4.03,0v9.634h4.337v10.361a15.645,15.645,0,0,1-13.616,15.488v38.328a32.987,32.987,0,0,1-32.951,32.949m42.536-93.1h-23.2v6.331a11.6,11.6,0,1,0,23.2,0Z" transform="translate(616.456 790.74) rotate(-45)" fill="#231f20"/>
    <g id="Group_872" data-name="Group 872" transform="translate(1199.994 451.455)">
      <path id="Path_2659" data-name="Path 2659" d="M1538.02,821.41c.147.018.935.146.324.041.231.04.465.064.7.1q.7.1,1.389.211,1.384.221,2.76.485,2.74.525,5.443,1.218a91.456,91.456,0,0,1,10.556,3.4q.592.231,1.18.47l.641.263.32.133-.123-.052.213.091q1.248.532,2.481,1.1,2.5,1.151,4.921,2.445a98.893,98.893,0,0,1,9.543,5.809q1.159.8,2.3,1.628.523.381,1.04.769.283.212.564.425l.281.214.187.144q.234.18-.094-.073c.068.133.344.267.465.363l.557.439q.6.478,1.2.965,1.079.883,2.136,1.794a112,112,0,0,1,8.284,7.925q2.01,2.128,3.912,4.354c1.278,1.5,2.574,3,3.736,4.592-.314-.429.082.108.165.216q.226.3.451.594.488.646.968,1.3.89,1.21,1.751,2.441,1.7,2.432,3.292,4.941,3.308,5.218,6.135,10.721,1.441,2.8,2.759,5.662.666,1.444,1.3,2.9c.2.447.394.894.578,1.346-.188-.461-.015-.034.021.05l.155.37q.179.432.357.866.584,1.43,1.139,2.871l1.784-2.341c-3.1.35-6.189.871-9.251,1.459a100.117,100.117,0,0,0-17.655,4.859,41.146,41.146,0,0,0-9.217,4.762,1.894,1.894,0,0,0-.663,2.531,1.871,1.871,0,0,0,2.531.664,30.76,30.76,0,0,1,3.617-2.233q.985-.524,2-.993.481-.224.967-.438c.18-.079.36-.157.54-.235.118-.051.386-.147-.095.04.117-.046.233-.1.349-.145a78.293,78.293,0,0,1,9.014-3.025,130.628,130.628,0,0,1,15.243-3.187q.641-.1,1.283-.187l.527-.072-.223.03.208-.027c.276-.036.552-.071.828-.1a1.925,1.925,0,0,0,1.453-.729,1.751,1.751,0,0,0,.331-1.613,147.442,147.442,0,0,0-11.272-23.179,128.979,128.979,0,0,0-14.5-19.623,112.345,112.345,0,0,0-17.358-15.669,98.056,98.056,0,0,0-19.465-11.05,92.889,92.889,0,0,0-21.786-6.283c-1.052-.165-2.106-.31-3.162-.445a1.852,1.852,0,0,0-1.849,1.85,1.907,1.907,0,0,0,1.849,1.85Z" transform="translate(-1536.169 -817.7)" fill="#21223f"/>
    </g>
    <path id="Path_2660" data-name="Path 2660" d="M1620.156,1088.563c8.366-5.423,37.82-.207,32.457,21.032a33.24,33.24,0,0,1-5.866,11.466,2.112,2.112,0,0,1-3.08.339c-3.616-3.166-12.767-4.148-14.778-4.624-6.086-1.438-11.66-5.7-13.782-11.578S1614.907,1091.965,1620.156,1088.563Z" transform="translate(-390.19 -552.225)" fill="#fcc4b9"/>
    <path id="Path_2661" data-name="Path 2661" d="M1617.693,1123.515a19.873,19.873,0,0,0,30.519,7.672,4.274,4.274,0,0,1,2.575-1.286c1.462.042,2.367,1.754,2.235,3.21-.244,2.69-2.45,4.081-2.306,9.07-1.879,3.275-3.782,6.766-6.027,4.8-3.616-3.166-12.767-4.148-14.778-4.624-7.694-1.819-14.412-8.1-14.625-16.129A29.6,29.6,0,0,1,1617.693,1123.515Z" transform="translate(-390.901 -577.779)" fill="#efa89e"/>
    <g id="Group_873" data-name="Group 873" transform="translate(1095.169 532.493)">
      <path id="Path_2662" data-name="Path 2662" d="M1232.036,1082.807a16.545,16.545,0,0,0-7.583-2.153,32.843,32.843,0,0,0-9.471.693,30.786,30.786,0,0,0-9.351,3.571,20.277,20.277,0,0,0-7.189,6.967,17.244,17.244,0,0,0-2.2,10.43,26.318,26.318,0,0,0,2.117,7.868,32.919,32.919,0,0,0,2.122,4.059,31.308,31.308,0,0,0,2.791,4.052,3.993,3.993,0,0,0,4.911.789,6.609,6.609,0,0,0,.9-.684c.016-.013.123-.094.122-.1s-.4.3-.185.146c.111-.078.22-.157.332-.232a11.619,11.619,0,0,1,1.269-.726c.218-.109.438-.211.66-.309.056-.025.115-.047.17-.074-.009,0-.454.187-.183.078.146-.059.292-.119.44-.176.5-.192,1-.367,1.514-.528,1.065-.337,2.148-.616,3.237-.863,1.79-.406,3.6-.7,5.408-1.022a21.949,21.949,0,0,0,6.2-2.136c4.8-2.466,8.879-6.846,10.256-12.15a16.789,16.789,0,0,0-3.375-15,13.791,13.791,0,0,0-2.9-2.5,1.864,1.864,0,0,0-2.531.664,1.892,1.892,0,0,0,.663,2.531c.235.154.455.345.695.488-.458-.271-.081-.061.039.039s.241.2.358.311a12.166,12.166,0,0,1,1.2,1.248c.1.114.345.492.038.035.078.116.169.224.25.337q.244.342.467.7a13.9,13.9,0,0,1,.845,1.579c.031.068.208.47.076.167s.062.161.084.221q.162.422.3.852a15.26,15.26,0,0,1,.428,1.705c.027.14.051.28.074.421.011.07.021.141.032.211.039.239-.051-.415-.022-.174.035.3.067.6.088.905a15.314,15.314,0,0,1,.02,1.712q-.019.428-.062.854c-.015.141-.038.283-.049.425.05-.614,0-.054-.021.09a14.292,14.292,0,0,1-.4,1.714q-.124.412-.273.815c-.052.142-.108.282-.163.423s-.158.231.056-.128a2.527,2.527,0,0,0-.114.259,16.208,16.208,0,0,1-.86,1.649c-.308.517-.649,1.01-1,1.495-.182.249.061-.08.084-.106-.049.057-.093.118-.14.177-.094.118-.19.233-.287.349q-.31.366-.639.716-.64.681-1.346,1.3c-.229.2-.463.392-.7.582-.1.084-.248.121.105-.079a1.883,1.883,0,0,0-.182.137q-.205.153-.414.3a20.769,20.769,0,0,1-3.2,1.867c-.138.065-.277.128-.416.19a1.274,1.274,0,0,0-.21.092c.026-.019.419-.171.126-.053s-.6.239-.907.349q-.885.318-1.8.555c-1.389.361-2.827.532-4.236.792a47.63,47.63,0,0,0-6.085,1.471,23.869,23.869,0,0,0-3.25,1.307,11.856,11.856,0,0,0-1.2.681q-.271.177-.529.373c-.188.143-.376.286-.559.435-.04.033-.08.065-.118.1-.2.173.3-.189.1-.077-.06.034-.122.07-.179.108-.188.127.38-.111.161-.062-.069.016-.555.131-.2.071.376-.064-.1-.036-.154-.019.233-.084.405.084.195.026a1.645,1.645,0,0,0-.29-.082c.046-.008.4.22.165.064a1.608,1.608,0,0,0-.175-.1c.039,0,.336.316.13.1-.048-.05-.1-.1-.149-.148-.112-.113-.158-.062.073.1a1.212,1.212,0,0,1-.161-.219q-.16-.219-.318-.44a43.622,43.622,0,0,1-2.426-3.756q-.552-.966-1.039-1.967-.22-.454-.425-.915l-.108-.246c-.14-.317.027.029.029.071a2.579,2.579,0,0,0-.25-.624,24.088,24.088,0,0,1-1.117-3.755q-.073-.349-.134-.7a3.147,3.147,0,0,1-.115-.729c0-.006.066.524.032.238-.007-.056-.014-.112-.021-.168q-.02-.167-.036-.334-.035-.35-.057-.7a17.164,17.164,0,0,1,.027-2.555c.018-.2.041-.4.064-.6.034-.292-.081.542-.015.123.017-.109.034-.219.053-.327q.1-.589.25-1.169.141-.549.324-1.086c.06-.177.124-.352.191-.526.033-.086.068-.172.1-.258.154-.386-.2.438-.024.059a15.851,15.851,0,0,1,1.048-1.96q.3-.473.635-.924c.053-.072.1-.15.164-.217.017-.019-.327.414-.164.214l.085-.106q.17-.212.347-.418a17.608,17.608,0,0,1,1.574-1.608q.422-.38.866-.734c.063-.051.128-.1.19-.15-.5.416-.227.174-.1.079q.25-.188.5-.369a24.363,24.363,0,0,1,3.971-2.263c.173-.079.347-.155.521-.231.375-.163-.375.154-.113.047l.33-.135q.531-.214,1.07-.406,1.111-.4,2.25-.71,1.113-.306,2.246-.534.569-.115,1.142-.21.276-.046.552-.087l.275-.04c.418-.061-.456.058-.114.015a32.6,32.6,0,0,1,4.377-.265c.689.007,1.378.039,2.065.1.319.028.636.066.953.1.22.026-.573-.082-.2-.027l.23.034q.241.037.48.08a17.373,17.373,0,0,1,1.725.4q.4.116.8.255.185.066.368.137l.179.072c.267.1-.515-.228-.2-.085a9.957,9.957,0,0,1,1.26.671,1.866,1.866,0,0,0,2.531-.664A1.89,1.89,0,0,0,1232.036,1082.807Z" transform="translate(-1196.151 -1080.559)" fill="#21223f"/>
    </g>
    <g id="Group_874" data-name="Group 874" transform="translate(1067.413 551.685)">
      <path id="Path_2663" data-name="Path 2663" d="M1108.9,1159.7a97.668,97.668,0,0,1,9.551-6.072q2.46-1.367,5-2.587,1.31-.631,2.637-1.223.608-.271,1.219-.534c.2-.088.408-.179.615-.263-.46.186-.031.013.052-.022l.372-.155q3.1-1.282,6.28-2.38a1.85,1.85,0,1,0-.983-3.567,105.32,105.32,0,0,0-21.224,9.993q-2.751,1.718-5.384,3.616a2,2,0,0,0-.85,1.106,1.891,1.891,0,0,0,.186,1.425,1.871,1.871,0,0,0,2.531.664Z" transform="translate(-1106.122 -1142.813)" fill="#21223f"/>
    </g>
    <g id="Group_875" data-name="Group 875" transform="translate(1050.161 527.698)">
      <path id="Path_2664" data-name="Path 2664" d="M1074.047,1065.545q-4.309,5.568-8.049,11.542a142,142,0,0,0-7.457,13.394,101.633,101.633,0,0,0-5.824,14.48,53.541,53.541,0,0,0-2.536,13.876,25.873,25.873,0,0,0,2.3,12.173,17.255,17.255,0,0,0,7.852,8.021,19.75,19.75,0,0,0,11.018,1.607,36.528,36.528,0,0,0,12.511-4.167,57.666,57.666,0,0,0,12.251-8.927,71.83,71.83,0,0,0,10.8-12.9q1.167-1.774,2.229-3.613a1.85,1.85,0,1,0-3.194-1.867,72.694,72.694,0,0,1-4.658,7.076q-.3.4-.6.8c-.191.25.05-.066.074-.1-.049.061-.1.124-.144.185q-.18.231-.362.459-.651.818-1.325,1.617-1.289,1.527-2.664,2.978a64.754,64.754,0,0,1-5.646,5.294c-.475.394-.958.779-1.444,1.16-.237.186.105-.082.125-.1l-.166.127-.374.284q-.393.3-.792.584-1.435,1.04-2.936,1.986a45.566,45.566,0,0,1-5.891,3.147l-.376.163c-.375.162.42-.174-.018.006q-.373.154-.75.3-.719.279-1.45.527c-.953.323-1.92.6-2.9.835q-.7.165-1.4.294-.336.062-.674.114l-.316.047c-.449.064.469-.058.021,0a22.643,22.643,0,0,1-2.688.175q-.67,0-1.339-.04-.293-.018-.584-.046l-.326-.034c-.093-.011-.556-.071-.149-.016s.007,0-.075-.014q-.16-.024-.319-.052-.316-.055-.63-.122-.6-.128-1.2-.3t-1.156-.392l-.291-.116c-.326-.13.485.215.09.037-.19-.085-.379-.172-.565-.263a14.241,14.241,0,0,1-2.082-1.257l-.225-.168c-.21-.155.426.337.069.051q-.249-.2-.489-.41-.488-.429-.938-.9-.489-.508-.933-1.057c-.065-.08-.128-.162-.193-.243.4.5.146.189.055.066q-.218-.294-.424-.6a17.129,17.129,0,0,1-1.34-2.381q-.065-.14-.128-.282l-.062-.142c-.109-.247.1.237.1.228a3.522,3.522,0,0,0-.258-.651q-.247-.661-.446-1.34a22.246,22.246,0,0,1-.616-2.74q-.026-.162-.05-.324c-.01-.068-.019-.136-.029-.2-.033-.221.059.469.033.246-.031-.261-.063-.522-.089-.784q-.07-.714-.1-1.431a36.27,36.27,0,0,1,.288-6.307c.008-.061.013-.124.024-.184,0,.005-.07.509-.029.214.018-.123.035-.247.053-.37q.061-.42.13-.838.139-.85.308-1.694c.223-1.124.483-2.241.77-3.35.607-2.335,1.341-4.635,2.167-6.9q.643-1.768,1.358-3.51.162-.4.328-.791c.118-.283-.051.121-.062.145.035-.082.07-.165.1-.247q.1-.247.212-.494.374-.866.762-1.726a134.6,134.6,0,0,1,7.057-13.448c2.389-4.012,4.959-7.919,7.723-11.683q.438-.6.884-1.19.225-.3.451-.6l.211-.276.132-.171c.142-.185-.306.4-.106.136a2.024,2.024,0,0,0,.542-1.308,1.85,1.85,0,0,0-3.158-1.308Z" transform="translate(-1050.161 -1065.008)" fill="#21223f"/>
    </g>
    <g id="Group_877" data-name="Group 877" transform="translate(1178.189 442.29)">
      <path id="Path_2666" data-name="Path 2666" d="M1485.649,789.821a59.986,59.986,0,0,1,.478,8.88q-.034.913-.135,1.82c-.034.311.022-.157.026-.179-.013.067-.019.136-.03.2q-.03.2-.066.392c-.048.258-.1.514-.172.767-.055.2-.119.4-.188.6-.036.1-.075.208-.114.311-.059.153-.28.613,0,.023-.194.414-.384.827-.608,1.226s-.484.811-.755,1.2q-.1.148-.211.294l-.109.146c-.169.23.116-.15.122-.157-.17.2-.328.409-.5.608a18.023,18.023,0,0,1-2.256,2.184c-.1.084-.214.162-.314.251.016-.014.373-.281.134-.1l-.163.122q-.331.245-.67.475-.718.488-1.474.916t-1.545.8q-.2.093-.4.183l-.2.089c-.22.1.356-.146.133-.056-.3.12-.595.24-.9.35a24.671,24.671,0,0,1-4.1,1.112q-.3.055-.607.1c-.1.017-.41.119-.492.072.089.051.383-.048.119-.017l-.375.044q-.284.031-.569.056c-.8.07-1.6.1-2.406.1a1.85,1.85,0,1,0,0,3.7,25.979,25.979,0,0,0,15.44-4.791,19.707,19.707,0,0,0,4.891-5.13,15.313,15.313,0,0,0,1.435-2.927,13.464,13.464,0,0,0,.689-3.5,51.071,51.071,0,0,0-.4-10.158,2.013,2.013,0,0,0-.542-1.308,1.85,1.85,0,0,0-3.158,1.308Z" transform="translate(-1465.442 -787.97)" fill="#21223f"/>
    </g>
    <g id="Group_880" data-name="Group 880" transform="translate(1222.218 532.496)">
      <path id="Path_2669" data-name="Path 2669" d="M1616.938,1086.009a9.888,9.888,0,0,1,1.3-.689c.227-.1-.533.216-.223.094l.179-.071q.183-.071.369-.137c.273-.1.549-.182.827-.261a17.5,17.5,0,0,1,1.73-.392c.151-.026.3-.051.453-.074l.2-.03c.384-.057-.53.066-.143.019.318-.039.636-.074.956-.1a28.618,28.618,0,0,1,4.241-.035c.739.047,1.474.123,2.208.215-.639-.08-.13-.018.128.021q.293.044.587.093.572.1,1.142.212a32.277,32.277,0,0,1,4.494,1.255q.538.194,1.068.408l.264.109c.213.087-.482-.209-.114-.047.185.081.37.161.553.246q1.063.486,2.079,1.065.987.565,1.916,1.224.226.161.448.328l.11.084c.2.153-.229-.167-.21-.163.073.018.185.146.244.193q.442.356.863.737a17.582,17.582,0,0,1,1.568,1.614q.166.194.324.393l.084.106c.129.159-.287-.377-.165-.213.061.082.123.163.183.245q.333.451.631.926a16.505,16.505,0,0,1,1.04,1.966c.094.206-.2-.493-.052-.123.034.086.069.172.1.259q.107.277.2.559.188.555.33,1.122t.245,1.172c.016.1.031.194.046.292.06.38-.051-.443-.021-.16.024.225.052.449.07.674a17.214,17.214,0,0,1,.015,2.561q-.022.331-.056.661c-.011.111-.024.223-.037.335-.007.056-.014.112-.021.168-.026.225.072-.495.026-.195-.073.479-.155.957-.256,1.431a24.174,24.174,0,0,1-1.147,3.792c-.064.165-.121.341-.2.5.217-.427-.027.059-.079.176q-.232.523-.484,1.036-.49,1-1.047,1.963a44.345,44.345,0,0,1-2.437,3.749l-.279.385c-.055.075-.249.234-.05.074s.019-.028-.035.028-.1.1-.152.144c-.161.157.332-.187.126-.107a.98.98,0,0,0-.177.1c-.169.116.413-.118.115-.055-.062.013-.132.032-.194.05-.282.081.161-.041.195-.026a.984.984,0,0,0-.2,0c-.187.011-.124-.121.193.036a1.443,1.443,0,0,0-.39-.108c.063,0,.387.219.163.054-.055-.041-.322-.219-.073-.034s-.056-.057-.1-.1c-.173-.14-.351-.276-.529-.41q-.291-.221-.6-.419a12.173,12.173,0,0,0-1.211-.676,29.686,29.686,0,0,0-6.4-2.152c-1.761-.407-3.541-.713-5.322-1.019-.631-.108-1.255-.224-1.875-.388s-1.205-.35-1.795-.565c-.287-.1-.569-.218-.852-.332-.19-.076.189.081.178.075-.067-.033-.14-.061-.21-.091q-.261-.116-.519-.239a20.771,20.771,0,0,1-3.193-1.884q-.185-.133-.367-.27c-.362-.272.278.223-.075-.059q-.377-.3-.739-.621-.7-.619-1.338-1.3-.288-.311-.562-.634-.145-.172-.287-.348a1.532,1.532,0,0,0-.14-.177c.327.3.115.15.016.016a16.974,16.974,0,0,1-.994-1.5,16.206,16.206,0,0,1-.848-1.656c-.184-.417.136.344-.033-.08q-.084-.211-.162-.424-.156-.427-.284-.864a14.376,14.376,0,0,1-.388-1.717c-.009-.052-.017-.105-.025-.158-.05-.308.019.151.022.174-.015-.142-.035-.283-.049-.425q-.048-.479-.066-.961a15.344,15.344,0,0,1,.032-1.712c.021-.285.058-.567.087-.851,0,.024-.073.482-.021.174.012-.07.022-.141.034-.211q.039-.237.086-.473a15.19,15.19,0,0,1,.44-1.7q.13-.4.283-.8c.052-.135.253-.565.014-.048.059-.128.113-.258.172-.386a13.882,13.882,0,0,1,.829-1.527q.224-.356.469-.7c.037-.051.335-.46.139-.19-.171.235-.029.039.018-.018s.111-.135.167-.2a12.242,12.242,0,0,1,1.169-1.2c.1-.093.211-.185.319-.275.056-.047.4-.317.142-.119s.144-.1.2-.139q.2-.138.4-.269a1.85,1.85,0,1,0-1.867-3.194,15.852,15.852,0,0,0-6.81,13.63,16.948,16.948,0,0,0,2.123,7.8,20.206,20.206,0,0,0,5.533,6.244,22.4,22.4,0,0,0,7.174,3.612,42.466,42.466,0,0,0,4.615.93,49.629,49.629,0,0,1,6.279,1.487c.523.167,1.042.349,1.553.55.117.046.233.094.35.142.21.085-.389-.17-.184-.077l.17.074q.353.157.7.33a11.411,11.411,0,0,1,1.257.732c.1.068.2.142.3.21.177.12-.35-.28-.186-.145l.121.1a5.574,5.574,0,0,0,.957.708,3.987,3.987,0,0,0,4.886-.922,36.343,36.343,0,0,0,2.794-4.083,30.081,30.081,0,0,0,3.635-8.558,17.576,17.576,0,0,0-6.941-19.373,27.961,27.961,0,0,0-9.023-4.291,34.505,34.505,0,0,0-9.643-1.341,21.135,21.135,0,0,0-8.352,1.555,9.245,9.245,0,0,0-1.3.689,1.85,1.85,0,1,0,1.867,3.194Z" transform="translate(-1608.257 -1080.571)" fill="#21223f"/>
    </g>
    <g id="Group_881" data-name="Group 881" transform="translate(1262.823 551.691)">
      <path id="Path_2670" data-name="Path 2670" d="M1768.9,1156.52a100.426,100.426,0,0,0-20.329-11.229q-3.1-1.282-6.28-2.38a1.862,1.862,0,0,0-2.276,1.292,1.9,1.9,0,0,0,1.292,2.275q2.79.971,5.531,2.074c.457.185.917.366,1.369.564-.048-.021-.378-.161-.072-.03l.369.158q.368.158.734.319,1.274.558,2.532,1.152a95.913,95.913,0,0,1,9.877,5.384q2.752,1.718,5.385,3.616a1.857,1.857,0,0,0,2.531-.664,1.9,1.9,0,0,0-.664-2.531Z" transform="translate(-1739.966 -1142.832)" fill="#21223f"/>
    </g>
    <g id="Group_882" data-name="Group 882" transform="translate(1250.698 527.694)">
      <path id="Path_2671" data-name="Path 2671" d="M1733.364,1068.151l-.132-.17.132.171.237.31q.24.315.478.631.473.63.939,1.265.97,1.324,1.906,2.67,2.012,2.889,3.883,5.873a142.336,142.336,0,0,1,7.342,13.145q.833,1.7,1.612,3.431.4.885.781,1.776l.169.4c.028.066.055.132.084.2-.2-.465-.1-.249-.062-.145q.186.444.368.89c.938,2.3,1.794,4.633,2.535,7a64.2,64.2,0,0,1,1.739,6.755q.166.844.3,1.692.06.372.115.745c.02.139.039.278.059.417.033.229-.057-.444-.029-.215.011.092.024.184.036.277.131,1.051.224,2.107.271,3.166.046,1.029.047,2.06,0,3.088q-.037.736-.112,1.47c-.007.067-.094.7-.082.7s.073-.521.033-.247c-.008.054-.015.108-.023.162-.02.135-.041.27-.063.4a22.165,22.165,0,0,1-.625,2.736q-.2.676-.451,1.337c-.073.194-.153.385-.23.578.252-.628.079-.189.018-.051q-.079.177-.161.351a17.046,17.046,0,0,1-1.357,2.372q-.174.255-.358.5c-.031.041-.062.082-.093.124-.158.213.152-.192.147-.19-.082.044-.181.229-.242.3q-.447.546-.939,1.053c-.3.309-.612.607-.937.889-.151.132-.307.259-.463.386-.307.251.314-.233.1-.073-.094.069-.187.14-.282.209a14.238,14.238,0,0,1-2.088,1.247c-.187.091-.377.176-.567.261-.256.114.5-.2.122-.052-.108.042-.215.086-.323.127q-.571.217-1.159.387t-1.2.3q-.3.062-.6.113-.159.027-.319.052l-.143.021c-.291.047.516-.064.206-.027a22.223,22.223,0,0,1-5.268-.034c-.277-.033.269.038.256.035-.063-.016-.133-.018-.2-.027l-.315-.048q-.378-.06-.754-.13-.706-.132-1.4-.3c-.967-.232-1.921-.513-2.861-.834q-.731-.25-1.451-.531c-.237-.093-.473-.188-.708-.285-.377-.155.418.18-.018-.007l-.418-.182q-1.5-.663-2.942-1.441a51.2,51.2,0,0,1-5.926-3.746q-.356-.259-.708-.525l-.333-.252c-.055-.042-.11-.086-.166-.128.45.333.132.1.043.032q-.73-.571-1.443-1.164-1.479-1.231-2.881-2.552a67.89,67.89,0,0,1-5.422-5.741q-.673-.8-1.323-1.62l-.289-.368a1.045,1.045,0,0,0-.144-.185c.208.134.191.249.074.1q-.34-.445-.675-.893-1.263-1.7-2.424-3.469-1.132-1.725-2.163-3.512a1.85,1.85,0,0,0-3.195,1.867,73.506,73.506,0,0,0,10.3,13.808,62.257,62.257,0,0,0,12.027,9.928,40.847,40.847,0,0,0,12.3,5.328,22.763,22.763,0,0,0,11.558-.039,17.057,17.057,0,0,0,9.107-6.718,22.363,22.363,0,0,0,3.63-11.511,44.527,44.527,0,0,0-1.557-13.509,88.851,88.851,0,0,0-5.164-14.4,133.883,133.883,0,0,0-7.18-13.751c-2.42-4.069-5.025-8.032-7.831-11.847q-1.03-1.4-2.1-2.772a1.846,1.846,0,0,0-1.308-.542,1.883,1.883,0,0,0-1.308.542,1.863,1.863,0,0,0-.542,1.308,2.178,2.178,0,0,0,.542,1.308Z" transform="translate(-1700.639 -1064.993)" fill="#21223f"/>
    </g>
    <g id="Group_895" data-name="Group 895" transform="translate(1109.563 288.221)">
      <path id="Path_2673" data-name="Path 2673" d="M1379.832,435.359l-2.513-17.786-8.792-9.232-7.51-18.707h-12.9l-30.587,1.768-50.35,10.964-12.056,32.994a18.494,18.494,0,0,0-5.261,19.91c2.5,6.888,9.532,11.666,16.566,11.253h1.218c3.228,33.611,23.031,48.455,49.829,48.455s46.6-14.844,49.829-48.455h1.218c7.034.413,14.068-4.365,16.566-11.253A18.494,18.494,0,0,0,1379.832,435.359Z" transform="translate(-1246.996 -358.368)" fill="#fcc4b9"/>
      <path id="Path_2674" data-name="Path 2674" d="M1385.093,455.27a18.494,18.494,0,0,0-5.261-19.91l-2.513-17.786-8.792-9.232-2.832-7.055c-3.887-3.989-7.933-7.838-11.993-11.653h-2.888c-3.124,5.7-5.627,17.482-3.361,23.709,2.5,6.864,9.842,8.63,12.264,15.521a61.86,61.86,0,0,1,3.037,19.207c.921,42.853-18.329,59.236-44.873,60.281-17.184.677-28.7-7.628-36.317-19.391-14.8-22.866-13.688-58.9-9.465-62.547,5.67-4.9,25.367-.455,31.07-5.319l1.22-6.439c-5.518-8.118-16.512-11.53-26.09-9.382a32.79,32.79,0,0,0-15.253,8.414l-7.919,21.672a18.494,18.494,0,0,0-5.261,19.91c2.5,6.888,9.532,11.666,16.566,11.253h1.218c3.228,33.611,23.031,48.455,49.829,48.455s46.6-14.844,49.829-48.455h1.218C1375.561,466.935,1382.595,462.157,1385.093,455.27Z" transform="translate(-1246.996 -358.368)" fill="#efa89e"/>
      <path id="Path_2675" data-name="Path 2675" d="M1353.976,305.1c0-2.04-7.357-10.888-19.239-10.888-39.936,0-81.823,34.5-70.049,75.143,0,0,11.849,11.214,12.056,21.106-.843-13.487,2.784-26.981,8.876-39.044l.658-.446c12.255,2.628,24.834,4,37.157,2.006,14.691-2.376,29.076-10.139,36.583-22.989,1.125,6.405,2.344,13.043,6.091,18.359a18.334,18.334,0,0,0,5.748,5.245l.418,1.132a204.226,204.226,0,0,1,5.061,36.764c1.065-9.457,3.874-17.274,12.057-22.133C1398.745,332.433,1375.475,294.115,1353.976,305.1Z" transform="translate(-1256.557 -292.366)" fill="#2c2c2c"/>
      <path id="Path_2676" data-name="Path 2676" d="M1389.4,429.454a71.24,71.24,0,0,0,.482-32.481,18.842,18.842,0,0,1-8.6,1.623,19.086,19.086,0,0,1-14.609-8.313c-2.538-3.8-4.7-9.183-9.267-9.187-2.638,0-4.8,1.964-6.775,3.714a78.468,78.468,0,0,1-53.221,19.517c-6.059-.135-12.272-1.04-17.521-4.069-4.431-2.557-8.063-6.867-9.135-11.792-7.443,11.886-10.391,26.018-6.055,40.988,0,0,11.849,11.214,12.056,21.106-.843-13.487,2.784-26.981,8.876-39.044l.658-.446c12.255,2.628,24.834,4,37.157,2.006,14.691-2.376,29.076-10.139,36.583-22.989,1.125,6.405,2.344,13.043,6.091,18.359a18.333,18.333,0,0,0,5.748,5.245l.418,1.132a204.238,204.238,0,0,1,5.061,36.764C1378.4,442.13,1381.212,434.313,1389.4,429.454Z" transform="translate(-1256.56 -352.463)" fill="#2c2c2c"/>
      <g id="Group_884" data-name="Group 884" transform="translate(18.338 96.245)">
        <path id="Path_2677" data-name="Path 2677" d="M1302.323,602.261a93.179,93.179,0,0,0,2.375,21.786,57.919,57.919,0,0,0,6.738,16.706,43.884,43.884,0,0,0,24.6,19.19,59.344,59.344,0,0,0,16.329,2.649q1.051.031,2.1.031a1.85,1.85,0,0,0,0-3.7,66.224,66.224,0,0,1-8.309-.509l-.254-.033c-.345-.045.5.069.154.021l-.5-.072q-.5-.074-1-.156-.992-.163-1.978-.361-1.9-.382-3.766-.9-1.829-.511-3.615-1.163-.9-.329-1.785-.7l-.221-.092c.582.24.277.117.15.062l-.364-.158q-.471-.207-.937-.425a42.238,42.238,0,0,1-6.387-3.685q-.385-.27-.764-.549-.158-.116-.315-.234c-.134-.1-.678-.527-.125-.092-.495-.389-.985-.782-1.464-1.191q-1.417-1.209-2.72-2.543-1.322-1.355-2.518-2.825c-.206-.253-.407-.51-.61-.767.418.529.059.075-.035-.049q-.161-.213-.32-.429-.592-.8-1.147-1.63a48.8,48.8,0,0,1-3.97-7.2c-.136-.3-.268-.607-.4-.911-.141-.327.182.436.045.107l-.1-.253q-.105-.254-.208-.509-.416-1.035-.791-2.086-.761-2.13-1.363-4.312a74.755,74.755,0,0,1-1.974-9.644c-.015-.108-.028-.217-.045-.325.087.58.024.18.008.056q-.036-.274-.07-.548-.089-.719-.167-1.439-.14-1.3-.243-2.605-.226-2.835-.293-5.679-.035-1.419-.035-2.838a1.85,1.85,0,1,0-3.7,0Z" transform="translate(-1302.323 -600.41)" fill="#21223f"/>
      </g>
      <g id="Group_885" data-name="Group 885" transform="translate(0 75.16)">
        <path id="Path_2678" data-name="Path 2678" d="M1249.665,532.539a20.146,20.146,0,0,0-6.789,16.374,18.884,18.884,0,0,0,2.784,8.936,19.721,19.721,0,0,0,6.688,6.494,17.912,17.912,0,0,0,9.93,2.517,1.85,1.85,0,1,0,0-3.7,15.065,15.065,0,0,1-2.084-.027q-.219-.019-.436-.043c-.054-.006-.422-.053-.081-.008s-.025-.006-.079-.014q-.487-.076-.969-.183a16.292,16.292,0,0,1-2-.583q-.207-.075-.413-.155l-.256-.1c-.241-.1.437.2.086.036-.3-.137-.6-.275-.9-.425a17.656,17.656,0,0,1-1.82-1.068c-.278-.187-.549-.383-.818-.582-.089-.066-.251-.222.109.085-.057-.048-.117-.093-.175-.139q-.218-.175-.43-.357a17.849,17.849,0,0,1-1.53-1.481q-.342-.373-.662-.765l-.141-.175c-.2-.241.067.078.082.108a4.447,4.447,0,0,0-.367-.5,16.98,16.98,0,0,1-1.1-1.776q-.242-.45-.456-.914a4.089,4.089,0,0,0-.185-.416c.234.386.09.214.034.073q-.064-.159-.124-.32a16.525,16.525,0,0,1-.6-1.976q-.116-.488-.2-.982-.039-.22-.072-.44c-.007-.053-.068-.424-.013-.085s-.006-.073-.014-.142a18.614,18.614,0,0,1,.016-4.125c.01-.091.03-.186.034-.278,0,.029-.069.474-.02.159.026-.166.051-.332.08-.5q.091-.523.21-1.041a19.35,19.35,0,0,1,.571-1.984c.128-.369.274-.729.417-1.092-.213.542.02-.036.081-.168q.116-.252.239-.5a18.015,18.015,0,0,1,1.161-2.006q.153-.228.313-.452.08-.111.162-.222c.038-.052.274-.378.088-.119-.166.231-.02.029.025-.028q.1-.128.208-.254.193-.231.395-.455a16.034,16.034,0,0,1,1.653-1.587,1.857,1.857,0,0,0,0-2.616,1.9,1.9,0,0,0-2.616,0Z" transform="translate(-1242.842 -532.017)" fill="#21223f"/>
      </g>
      <g id="Group_886" data-name="Group 886" transform="translate(6.928 84.799)">
        <path id="Path_2679" data-name="Path 2679" d="M1265.976,565.012a13.6,13.6,0,0,1,6.481,10.316l1.817-.246a6.4,6.4,0,0,0-8.51-3.79.932.932,0,0,0-.332,1.265.948.948,0,0,0,1.266.332,3.781,3.781,0,0,1,1.665-.294,4.975,4.975,0,0,1,1.661.389,4.547,4.547,0,0,1,2.467,2.59.931.931,0,0,0,1.015.663.915.915,0,0,0,.8-.909,15.506,15.506,0,0,0-7.4-11.913.926.926,0,0,0-.933,1.6Z" transform="translate(-1265.313 -563.281)" fill="#21223f"/>
      </g>
      <g id="Group_887" data-name="Group 887" transform="translate(68.632 96.245)">
        <path id="Path_2680" data-name="Path 2680" d="M1515.758,602.261a104.178,104.178,0,0,1-.583,11.234q-.072.664-.155,1.328-.034.274-.07.548c-.016.123-.079.523.009-.056-.022.144-.04.289-.06.433q-.18,1.279-.4,2.552-.416,2.4-.983,4.764a62.315,62.315,0,0,1-2.764,8.7q-.086.213-.173.424l-.105.253c-.137.329.186-.433.045-.107s-.287.663-.436.993q-.439.973-.917,1.928-.911,1.817-1.97,3.555-1.048,1.713-2.242,3.33c-.082.11-.164.22-.247.33-.1.126-.484.618-.06.081-.2.257-.4.514-.61.767q-.613.753-1.26,1.478-1.25,1.4-2.623,2.681-.693.647-1.416,1.261-.345.293-.7.578-.168.136-.337.271c-.132.1-.682.523-.12.1a43.153,43.153,0,0,1-6.283,3.987q-.806.417-1.629.8-.43.2-.866.391l-.364.158c-.128.055-.432.178.149-.062l-.294.122q-1.742.718-3.538,1.292a52.548,52.548,0,0,1-7.616,1.813q-.459.075-.919.142l-.5.072c-.344.048.5-.065.154-.021l-.339.044q-.981.124-1.965.215-2.1.2-4.2.254-1.029.029-2.058.029a1.85,1.85,0,1,0,0,3.7,62.073,62.073,0,0,0,16.643-2.144,46.024,46.024,0,0,0,14.108-6.574,44.3,44.3,0,0,0,11.234-11.522,55.281,55.281,0,0,0,7.211-16.116,87.309,87.309,0,0,0,2.914-21.107q.037-1.449.036-2.9a1.85,1.85,0,1,0-3.7,0Z" transform="translate(-1465.461 -600.41)" fill="#21223f"/>
      </g>
      <g id="Group_888" data-name="Group 888" transform="translate(119.679 75.156)">
        <path id="Path_2681" data-name="Path 2681" d="M1642.89,535.145a16,16,0,0,1,1.506,1.425q.335.362.647.743c.087.106.375.5.051.055.108.147.22.292.327.441a17.685,17.685,0,0,1,1.115,1.771q.24.436.456.886.1.2.188.4c.03.068.06.136.09.2.158.347-.144-.361-.013-.032A20.063,20.063,0,0,1,1648.4,545c.032.184.06.368.089.552.018.116.033.354-.02-.159.008.074.018.148.027.222q.065.555.1,1.114a18.454,18.454,0,0,1,.006,2.066q-.025.474-.075.945c-.01.092-.022.184-.032.277-.028.264.075-.493.015-.1-.028.183-.056.367-.089.55a16.983,16.983,0,0,1-.48,2q-.139.455-.3.9a2.784,2.784,0,0,0-.208.532c0-.031.182-.417.053-.127-.046.1-.092.208-.14.312a16.675,16.675,0,0,1-1,1.844q-.253.407-.53.8c-.108.154-.22.3-.332.456-.066.089-.221.252.083-.106-.073.085-.14.177-.211.264a17.6,17.6,0,0,1-1.406,1.529q-.362.351-.744.68-.19.165-.385.324l-.174.14c-.313.254.345-.257.021-.015a18.789,18.789,0,0,1-1.713,1.144q-.5.3-1.024.556-.247.124-.5.24l-.2.091-.2.089.238-.1c-.383.1-.757.3-1.136.424q-.521.173-1.054.311-.558.144-1.125.247c-.18.033-.36.06-.541.089-.26.041.5-.057.111-.015-.109.011-.218.025-.327.036a15.062,15.062,0,0,1-2.3.047,1.861,1.861,0,0,0-1.85,1.85,1.891,1.891,0,0,0,1.85,1.85c6.33.347,12.382-3.057,16.019-8.121a19.65,19.65,0,0,0,2.286-17.685,19.217,19.217,0,0,0-5.693-8.515,1.892,1.892,0,0,0-2.616,0,1.872,1.872,0,0,0,0,2.616Z" transform="translate(-1631.042 -532.002)" fill="#21223f"/>
      </g>
      <g id="Group_889" data-name="Group 889" transform="translate(125.041 84.799)">
        <path id="Path_2682" data-name="Path 2682" d="M1655.835,563.415a15.507,15.507,0,0,0-7.4,11.913.916.916,0,0,0,.8.909.935.935,0,0,0,1.015-.663,4.321,4.321,0,0,1,.928-1.505q.172-.179.359-.343a1.889,1.889,0,0,1,.281-.223,6.271,6.271,0,0,1,.9-.519,5.889,5.889,0,0,1,.8-.266c.158-.039.318-.073.479-.1-.138.02.068-.006.093-.008.081-.006.161-.013.243-.016.162-.007.324-.006.485,0,.1.005.194.012.29.024-.128-.016.044.009.09.018.159.031.317.068.473.115a3.366,3.366,0,0,1,.376.133.953.953,0,0,0,1.266-.332.932.932,0,0,0-.332-1.265,6.4,6.4,0,0,0-8.51,3.789l1.817.246a13.6,13.6,0,0,1,6.481-10.316.926.926,0,0,0-.934-1.6Z" transform="translate(-1648.435 -563.281)" fill="#21223f"/>
      </g>
      <g id="Group_890" data-name="Group 890" transform="translate(4.291)">
        <path id="Path_2683" data-name="Path 2683" d="M1279.935,346.34a83.568,83.568,0,0,0-9.055,31.059,64.8,64.8,0,0,0-.074,8.919,1.85,1.85,0,1,0,3.7,0c-.113-4.4-2.04-8.6-4.35-12.266a57.072,57.072,0,0,0-6.734-8.607c-.493-.524-.991-1.046-1.514-1.541l.476.816q-.524-1.817-.922-3.667c-.256-1.2-.385-2.43-.637-3.629.078.37.013.1-.012-.1q-.024-.2-.048-.393-.058-.489-.105-.979-.085-.875-.139-1.754-.108-1.766-.086-3.536.022-1.744.172-3.483.075-.878.183-1.752a1.763,1.763,0,0,1,.056-.435c0-.006-.056.393-.024.181.009-.062.017-.124.026-.186q.062-.434.132-.866a49.175,49.175,0,0,1,1.561-6.657q.512-1.659,1.137-3.281.145-.376.3-.75.07-.173.14-.345c.026-.065.239-.551.122-.295s.068-.157.1-.236q.074-.171.15-.342.188-.426.385-.849a56.32,56.32,0,0,1,3.265-6.038q.913-1.47,1.911-2.885.491-.7,1-1.382.246-.33.5-.657c.2-.258-.207.263.06-.077.1-.133.209-.267.315-.4a66.851,66.851,0,0,1,4.662-5.267q2.5-2.543,5.242-4.829.677-.565,1.367-1.114c.238-.19.474-.388.721-.566-.25.181-.114.088.041-.031q.208-.16.418-.318,1.444-1.089,2.938-2.11a81.155,81.155,0,0,1,12.739-7.109q.4-.177.794-.349l.429-.184c.061-.026.125-.049.184-.079-.4.2-.109.046-.011.006q.832-.347,1.671-.676,1.711-.67,3.45-1.263,3.506-1.195,7.113-2.066,3.557-.857,7.184-1.379l.394-.056c.34-.047-.339.044.1-.013q.46-.06.921-.114.921-.108,1.845-.193,1.81-.166,3.626-.241c1.244-.051,2.5-.089,3.74-.045.668.024,1.333.081,2,.156.188.021.184-.064-.061-.01a.807.807,0,0,1,.214.031q.247.037.494.08.486.083.967.187a23.427,23.427,0,0,1,3.531,1.061c.14.055.279.111.418.167.328.132-.294-.132.027.012.267.119.533.238.8.364q.764.367,1.5.788a24.949,24.949,0,0,1,2.586,1.7c.33.247-.237-.191,0,0l.243.194q.274.223.542.454.506.437.984.9c.546.535,1.022,1.116,1.523,1.69.048.055-.3-.405-.093-.117.04.056.082.111.122.167q.142.2.276.4a7.557,7.557,0,0,1,.387.661c.048.093.088.191.135.284-.206-.4-.154-.4-.066-.127.023.073.035.153.06.225.077.224-.045-.611-.04-.256a1.85,1.85,0,0,0,3.7,0c-.025-1.644-1.268-3.177-2.277-4.359a23.315,23.315,0,0,0-5.464-4.575,25.165,25.165,0,0,0-8.462-3.325,38.232,38.232,0,0,0-9.9-.3,79.532,79.532,0,0,0-18.28,3.493,84.286,84.286,0,0,0-17.054,7.536,78.848,78.848,0,0,0-14.684,10.989,66.382,66.382,0,0,0-11.17,13.849,54.47,54.47,0,0,0-6.5,16.057,50.926,50.926,0,0,0-.687,18.151q.32,2.3.851,4.56.267,1.141.584,2.269a2.863,2.863,0,0,0,.673,1.3c.938.954,1.867,1.909,2.751,2.913q1.178,1.339,2.276,2.744c.278.354-.215-.285.06.078.105.139.211.278.316.417q.3.4.6.815.627.872,1.215,1.771a37.511,37.511,0,0,1,2.153,3.727q.241.483.465.974c.07.154.134.31.2.462.106.23-.132-.328-.038-.093.039.1.08.194.119.291.27.673.511,1.358.715,2.053a17.65,17.65,0,0,1,.456,1.947,2.659,2.659,0,0,0,.074.471c-.125-.322-.038-.31-.02-.139.008.078.017.156.025.235.035.35.055.7.065,1.052h3.7a64.508,64.508,0,0,1,0-7.873q.117-1.919.344-3.83c.02-.174.042-.347.063-.521.005-.038.08-.612.025-.2.039-.289.081-.577.123-.866q.147-1,.323-1.986a80.565,80.565,0,0,1,4.276-15.092q.383-.984.788-1.958c.01-.022.236-.556.087-.207q.1-.243.208-.485.227-.524.46-1.046.914-2.045,1.924-4.045a1.85,1.85,0,1,0-3.194-1.867Z" transform="translate(-1256.76 -288.221)" fill="#21223f"/>
      </g>
      <g id="Group_891" data-name="Group 891" transform="translate(95.571 9.003)">
        <path id="Path_2684" data-name="Path 2684" d="M1571.206,371.273q1.579,7.024,2.738,14.135.29,1.789.55,3.582.128.878.247,1.756c.008.061.083.6.02.147.022.16.043.319.063.479q.063.479.123.958.455,3.607.771,7.229.344,3.986.481,7.987a1.877,1.877,0,0,0,1.85,1.85,1.9,1.9,0,0,0,1.85-1.85q.044-.389.092-.777c.016-.129.033-.257.049-.386.057-.451-.061.429,0-.02.079-.547.159-1.093.252-1.637.169-1,.368-1.994.6-2.98.229-.954.493-1.9.8-2.833q.221-.67.473-1.33c.083-.218.171-.434.258-.65.155-.387-.174.395-.006.014.062-.141.123-.283.187-.424a24.4,24.4,0,0,1,1.272-2.444q.351-.59.738-1.158.194-.284.4-.562c.068-.093.137-.184.205-.277q.178-.234-.079.1l.143-.181a21.38,21.38,0,0,1,1.885-2.07q.518-.5,1.068-.962c.186-.157.377-.309.567-.462.336-.27-.333.245.016-.012.133-.1.266-.2.4-.3q.565-.408,1.155-.782c.218-.139.448-.265.663-.408a2.465,2.465,0,0,0,.992-1.674q.431-1.768.769-3.558c.456-2.415.79-4.858,1.006-7.306a71.783,71.783,0,0,0-.1-13.58,68.527,68.527,0,0,0-7.02-24.433c-3.167-6.149-7.582-12.024-13.508-15.746-5.089-3.2-11.356-4.337-17.076-2.184a23.288,23.288,0,0,0-2.35,1.032,1.862,1.862,0,0,0-.663,2.531,1.894,1.894,0,0,0,2.531.664c.246-.125.494-.246.746-.361.137-.063.278-.119.415-.184-.005,0-.459.188-.193.082l.249-.1q.776-.306,1.579-.536.76-.217,1.538-.362.187-.035.374-.065c.091-.014.556-.08.169-.028s.077-.007.169-.017q.207-.022.415-.039a16.019,16.019,0,0,1,3.133.056l.164.02c.326.036-.439-.066-.205-.027.122.02.245.037.367.057q.408.068.814.156.756.164,1.494.394t1.477.527l.2.081c.218.087-.466-.206-.165-.069.1.047.211.092.315.14q.4.18.785.376a23.611,23.611,0,0,1,2.878,1.729q.36.252.712.515l.149.112c.231.173-.143-.111-.152-.118.134.109.272.213.406.321q.69.556,1.345,1.152a34.328,34.328,0,0,1,2.653,2.7q.634.719,1.232,1.469.148.185.293.372c.187.237-.08-.1-.095-.124.05.072.108.141.161.211q.307.405.6.817,1.226,1.7,2.294,3.5,1.1,1.857,2.052,3.8.483.986.928,1.99.121.274.241.55l.095.221c.129.3-.024-.083-.045-.108a2.467,2.467,0,0,1,.232.56q.116.282.227.565a65.9,65.9,0,0,1,2.833,9.007q.58,2.427.985,4.891.1.591.185,1.185.039.265.076.53c0,.031.064.47.021.153s.021.162.028.22q.159,1.24.274,2.485a71.95,71.95,0,0,1,.209,10.367c-.094,1.8-.261,3.587-.486,5.371-.044.346,0-.008.01-.066-.015.118-.032.237-.049.355q-.045.32-.093.639-.107.713-.229,1.422-.226,1.321-.5,2.633t-.612,2.632l.85-1.106a24.459,24.459,0,0,0-8,7.618,29.977,29.977,0,0,0-3.911,9.626,57.432,57.432,0,0,0-1.062,6.486h3.7a190.816,190.816,0,0,0-3.484-29.338q-.755-3.973-1.643-7.919A1.864,1.864,0,0,0,1572.5,369a1.892,1.892,0,0,0-1.292,2.276Z" transform="translate(-1552.843 -317.425)" fill="#2c2c2c"/>
      </g>
      <g id="Group_892" data-name="Group 892" transform="translate(20.862 35.79)">
        <path id="Path_2685" data-name="Path 2685" d="M1311.854,427.274c12.93,3.234,26.379,5.559,39.743,4.333,11.044-1.013,22.009-4.522,30.962-11.2a45.438,45.438,0,0,0,12.149-13.324l-3.381-.442c.989,5.624,2.058,11.349,4.807,16.424a20.228,20.228,0,0,0,11.847,9.994,13.788,13.788,0,0,0,8.586-.176,1.891,1.891,0,0,0,1.292-2.276,1.872,1.872,0,0,0-2.276-1.292,11.391,11.391,0,0,1-1.586.468q-.218.047-.438.084c-.085.015-.576.063-.095.018-.294.027-.587.057-.883.069a12.088,12.088,0,0,1-1.623-.047c-.082-.008-.578-.077-.1,0l-.294-.045q-.516-.086-1.023-.211a14.711,14.711,0,0,1-1.583-.487c-.095-.035-.189-.071-.283-.108-.063-.024-.527-.228-.121-.046-.279-.125-.557-.253-.83-.391-.5-.255-1-.535-1.472-.837q-.392-.249-.771-.518c-.085-.06-.168-.121-.251-.182s-.166-.123-.249-.186q.255.2.008,0a20.19,20.19,0,0,1-2.546-2.483q-.124-.147-.245-.3c-.061-.075-.271-.352-.042-.048q-.289-.384-.561-.782-.542-.794-1.016-1.631t-.884-1.7c-.15-.314-.293-.632-.432-.951-.146-.335-.046-.112-.017-.04q-.132-.323-.259-.648a39.5,39.5,0,0,1-1.25-3.835c-.8-2.9-1.326-5.866-1.847-8.825a1.83,1.83,0,0,0-1.538-1.325,1.853,1.853,0,0,0-1.843.883q-.994,1.693-2.146,3.286c-.184.253-.372.5-.56.753-.313.416.232-.287-.093.12-.1.122-.194.245-.292.367q-.587.73-1.207,1.433a44.7,44.7,0,0,1-5.535,5.272q-.183.147-.368.293c-.043.034-.457.352-.121.1q-.374.285-.753.565-.822.605-1.669,1.176-1.568,1.058-3.212,2-1.716.984-3.5,1.841-.787.378-1.584.732-.436.193-.874.379c.4-.167-.094.037-.145.058q-.294.121-.59.238a60.315,60.315,0,0,1-7.4,2.4q-1.92.49-3.868.856-.874.165-1.753.3c-.97.154-1.372.21-2.268.317a87.806,87.806,0,0,1-19.43-.01c-3.54-.368-6.905-.89-10.574-1.591-3.6-.688-7.176-1.5-10.731-2.392a1.85,1.85,0,1,0-.983,3.567Z" transform="translate(-1310.511 -404.313)" fill="#2c2c2c"/>
      </g>
      <ellipse id="Ellipse_107" data-name="Ellipse 107" cx="6.528" cy="8.455" rx="6.528" ry="8.455" transform="translate(41.956 85.59)" fill="#21223f"/>
      <g id="Group_893" data-name="Group 893" transform="translate(38.004 73.033)">
        <path id="Path_2686" data-name="Path 2686" d="M1369.561,532.138c.073-.115.147-.229.224-.34s.362-.417.022-.047c.183-.2.346-.418.533-.616s.383-.386.586-.565c.1-.09.209-.174.312-.263.152-.131-.15.113-.145.11.065-.039.125-.093.188-.138a9.427,9.427,0,0,1,1.453-.856c.128-.061.524-.177.038-.025.11-.034.217-.086.326-.126q.41-.15.833-.26.366-.1.739-.16a1.249,1.249,0,0,0,.23-.036c.006,0-.408.044-.2.029.155-.011.309-.03.464-.039q.411-.024.822-.007.206.008.412.026c.059.005.118.014.176.018.248.015-.385-.063-.141-.021a10.275,10.275,0,0,1,1.658.408c.111.039.221.081.332.122.3.112-.343-.157.047.021q.4.184.787.4c.272.157.537.328.793.511.048.034.095.071.143.1.192.135-.354-.294-.049-.035.1.089.21.177.313.269a8.85,8.85,0,0,1,.667.666c.105.117.2.24.307.359.132.151-.109-.145-.108-.142.057.1.142.194.207.287a1.85,1.85,0,1,0,3.194-1.867,11.163,11.163,0,0,0-6.9-4.6,10.93,10.93,0,0,0-8.069,1.531,11.305,11.305,0,0,0-3.384,3.415,1.866,1.866,0,0,0,.664,2.531,1.89,1.89,0,0,0,2.531-.663Z" transform="translate(-1366.116 -525.116)" fill="#21223f"/>
      </g>
      <path id="Path_2687" data-name="Path 2687" d="M1460.332,663.766a2.5,2.5,0,0,0-2.459-3.025h-12.806a2.517,2.517,0,0,0-2.442,3.1c.65,2.792,2.677,6.458,8.845,6.458C1457.695,670.3,1459.7,666.567,1460.332,663.766Z" transform="translate(-1380.987 -545.896)" fill="#21223f"/>
      <ellipse id="Ellipse_108" data-name="Ellipse 108" cx="6.912" cy="4.758" rx="6.912" ry="4.758" transform="translate(33.608 112.363)" fill="#e18f81"/>
      <ellipse id="Ellipse_109" data-name="Ellipse 109" cx="6.528" cy="8.455" rx="6.528" ry="8.455" transform="translate(85.965 85.59)" fill="#21223f"/>
      <g id="Group_894" data-name="Group 894" transform="translate(84.106 73.024)">
        <path id="Path_2688" data-name="Path 2688" d="M1534.271,530.25a11.209,11.209,0,0,0-6.637-4.84,10.948,10.948,0,0,0-8.168,1.182,11.28,11.28,0,0,0-3.549,3.316,1.859,1.859,0,0,0,.664,2.531,1.9,1.9,0,0,0,2.531-.664c.048-.069.305-.416.134-.193s.115-.133.154-.178q.27-.312.568-.6c.052-.05.62-.545.621-.543s-.3.224-.141.109c.064-.046.126-.093.191-.139q.168-.119.342-.231.347-.224.713-.416.182-.1.37-.184l.161-.074c.306-.143-.278.1-.062.026a10.926,10.926,0,0,1,1.581-.471c.135-.027.27-.049.406-.073.346-.06-.374.035-.024.006.294-.024.587-.044.883-.044.272,0,.545.014.816.041.435.042-.3-.056.027,0,.134.023.268.046.4.073.558.115,1.069.335,1.612.491.007,0-.357-.161-.174-.072.052.025.106.047.159.072.123.058.245.118.365.181q.388.2.755.439.2.126.385.262c.047.034.094.07.141.1.191.134-.356-.295-.053-.039.223.188.442.378.649.583a8.947,8.947,0,0,1,.627.687c.044.054.209.258.036.041s0,0,.028.046c.1.142.2.288.292.436a1.85,1.85,0,0,0,3.194-1.867Z" transform="translate(-1515.656 -525.087)" fill="#21223f"/>
      </g>
      <ellipse id="Ellipse_110" data-name="Ellipse 110" cx="6.912" cy="4.758" rx="6.912" ry="4.758" transform="translate(93.544 112.363)" fill="#e18f81"/>
    </g>
  </g>
</svg>
